<?xml version="1.0" standalone="no"?>
<!DOCTYPE svg PUBLIC "-//W3C//DTD SVG 1.1//EN" "http://www.w3.org/Graphics/SVG/1.1/DTD/svg11.dtd" >
<svg>
<metadata>
Created by FontForge 20120731 at Tue Nov 26 20:22:46 2013
 By World Wide Web Server
Copyright (c) 2008 Linotype GmbH, www.linotype.com. All rights reserved. This font software may not be reproduced, modified, disclosed or transferred without the express written approval of Linotype GmbH. Frutiger is a trademark of Linotype Corp. registered in the U.S. Patent and Trademark Office and may be registered in certain other jurisdictions in the name of Linotype Corp. or its licensee Linotype GmbH. This typeface is original artwork of Adrian Frutiger and Linotype Design Studio. The design may be protected in certain jurisdictions.
</metadata>
<defs>
<font id="FrutigerNextLTW1G-Italic" horiz-adv-x="400" >
  <font-face 
    font-family="Frutiger Next LT W1G"
    font-weight="400"
    font-style="italic"
    font-stretch="normal"
    units-per-em="1000"
    panose-1="2 11 5 3 4 2 4 9 2 3"
    ascent="721"
    descent="-279"
    x-height="498"
    cap-height="667"
    bbox="-153 -302 1207 905"
    underline-thickness="50"
    underline-position="-50"
    slope="-12"
    stemh="51"
    stemv="55"
    unicode-range="U+000D-FB04"
  />
<missing-glyph horiz-adv-x="512" 
d="M269 117h-59v64h59v-64zM263 241h-47v9c0 123 112 131 112 236c0 44 -31 77 -82 77c-33 0 -66 -8 -98 -21l-4 47c33 13 63 20 102 20c79 0 134 -44 134 -124c0 -115 -117 -128 -117 -233v-11zM512 0h-512v718h512v-718zM50 667v-617h412v617h-412z" />
    <glyph glyph-name="IJ" unicode="IJ" horiz-adv-x="553" 
d="M95 0h-79l142 667h79zM173 1l16 65c17 -7 35 -11 55 -11c81 0 107 71 120 130l103 482h78l-104 -492c-24 -110 -83 -186 -199 -186c-28 0 -46 3 -69 12z" />
    <glyph glyph-name="fi" unicode="fi" horiz-adv-x="516" 
d="M-120 -221l15 59c13 -4 26 -5 41 -5c67 0 90 70 106 151l96 456h-95l12 58h95l14 65c19 83 58 168 166 168c21 0 41 -3 61 -9l-17 -58c-15 4 -31 8 -46 8c-62 0 -81 -66 -92 -115l-13 -59h111l-13 -58h-110l-97 -462c-19 -85 -57 -205 -175 -205c-24 0 -36 2 -59 6z
M505 609h-76l18 87h75zM377 0h-73l104 498h74z" />
    <glyph glyph-name="fl" unicode="fl" horiz-adv-x="524" 
d="M-120 -221l15 59c13 -4 26 -5 41 -5c67 0 90 70 106 151l96 456h-95l12 58h95l14 65c19 83 58 168 166 168c21 0 41 -3 61 -9l-17 -58c-15 4 -31 8 -46 8c-62 0 -81 -66 -92 -115l-13 -59h111l-13 -58h-110l-97 -462c-19 -85 -57 -205 -175 -205c-24 0 -36 2 -59 6z
M377 0h-73l153 721h73z" />
    <glyph glyph-name="ij" unicode="ij" horiz-adv-x="449" 
d="M213 609h-76l18 87h75zM85 0h-73l104 498h74zM434 609h-75l17 87h76zM86 -221l18 60c10 -4 21 -6 32 -6c52 0 74 48 82 93l120 572h73l-120 -580c-16 -79 -55 -145 -145 -145c-20 0 -41 1 -60 6z" />
    <glyph glyph-name="napostrophe" unicode="&#x22;n" horiz-adv-x="574" 
d="M126 0h-73l79 381c8 39 16 78 20 117h67l-14 -89c48 64 96 99 177 99s133 -48 133 -128c0 -19 -2 -39 -7 -60l-67 -320h-73l63 302c4 21 9 42 9 61c0 48 -24 86 -88 86c-100 0 -148 -85 -167 -171zM79 504h-60l104 217h81z" />
    <glyph glyph-name="f_f_i" unicode="ffi" horiz-adv-x="812" 
d="M-120 -221l15 59c13 -4 26 -5 41 -5c67 0 90 70 106 151l96 456h-95l12 58h95l14 65c19 83 58 168 166 168c21 0 41 -3 61 -9l-17 -58c-15 4 -31 8 -46 8c-62 0 -81 -66 -92 -115l-13 -59h111l-13 -58h-110l-97 -462c-19 -85 -57 -205 -175 -205c-24 0 -36 2 -59 6z
M176 -221l15 59c13 -4 26 -5 41 -5c67 0 90 70 106 151l96 456h-95l12 58h95l14 65c19 83 58 168 166 168c21 0 41 -3 61 -9l-17 -58c-15 4 -31 8 -46 8c-62 0 -81 -66 -92 -115l-13 -59h111l-13 -58h-110l-97 -462c-19 -85 -57 -205 -175 -205c-24 0 -36 2 -59 6zM801 609
h-76l18 87h75zM673 0h-73l104 498h74z" />
    <glyph glyph-name="f_f_l" unicode="ffl" horiz-adv-x="824" 
d="M-120 -221l15 59c13 -4 26 -5 41 -5c67 0 90 70 106 151l96 456h-95l12 58h95l14 65c19 83 58 168 166 168c21 0 41 -3 61 -9l-17 -58c-15 4 -31 8 -46 8c-62 0 -81 -66 -92 -115l-13 -59h111l-13 -58h-110l-97 -462c-19 -85 -57 -205 -175 -205c-24 0 -36 2 -59 6z
M180 -221l15 59c13 -4 26 -5 41 -5c67 0 90 70 106 151l96 456h-95l12 58h95l14 65c19 83 58 168 166 168c21 0 41 -3 61 -9l-17 -58c-15 4 -31 8 -46 8c-62 0 -81 -66 -92 -115l-13 -59h111l-13 -58h-110l-97 -462c-19 -85 -57 -205 -175 -205c-24 0 -36 2 -59 6zM677 0
h-73l153 721h73z" />
    <glyph glyph-name=".notdef" horiz-adv-x="512" 
d="M269 117h-59v64h59v-64zM263 241h-47v9c0 123 112 131 112 236c0 44 -31 77 -82 77c-33 0 -66 -8 -98 -21l-4 47c33 13 63 20 102 20c79 0 134 -44 134 -124c0 -115 -117 -128 -117 -233v-11zM512 0h-512v718h512v-718zM50 667v-617h412v617h-412z" />
    <glyph glyph-name="afii10050" unicode="&#x490;" horiz-adv-x="434" 
d="M16 0l142 667h278l32 147h71l-47 -213h-270l-128 -601h-78z" />
    <glyph glyph-name="afii10194" unicode="&#x463;" horiz-adv-x="504" 
d="M44 0l94 444h-101l11 54h102l47 223h74l-47 -223h171l-12 -54h-171l-30 -139h130c86 0 139 -59 139 -129c0 -132 -103 -176 -200 -176h-207zM130 58h119c80 0 130 38 130 114c0 41 -35 77 -96 77h-114z" />
    <glyph glyph-name="afii10146" unicode="&#x462;" horiz-adv-x="567" 
d="M54 0l121 575h-116l13 60h116l19 86h77l-19 -86h198l-13 -60h-197l-37 -179h97c125 0 196 -74 196 -165c0 -138 -90 -231 -283 -231h-172zM145 62h93c107 0 192 51 192 166c0 66 -53 106 -137 106h-90z" />
    <glyph glyph-name="afii10147" unicode="&#x472;" horiz-adv-x="679" 
d="M638 422c0 -217 -116 -433 -366 -433c-178 0 -230 149 -230 246c0 214 125 442 362 442c185 0 234 -159 234 -255zM280 53c150 0 235 119 265 254h-418c-4 -24 -5 -47 -5 -70c0 -102 51 -184 158 -184zM558 420c0 95 -45 193 -165 193c-135 0 -219 -113 -253 -240h416
c1 15 2 31 2 47z" />
    <glyph glyph-name="afii10195" unicode="&#x473;" horiz-adv-x="560" 
d="M508 330c0 -171 -103 -341 -285 -341c-122 0 -189 78 -189 182c0 160 98 337 288 337c115 0 186 -74 186 -178zM230 49c95 0 163 89 190 180h-308c-2 -14 -3 -28 -3 -41c0 -81 34 -139 121 -139zM433 310c0 82 -37 139 -127 139c-91 0 -153 -78 -181 -162h307
c0 8 1 15 1 23z" />
    <glyph glyph-name="afii10148" unicode="&#x474;" horiz-adv-x="637" 
d="M530 503l-278 -503h-90l-100 667h82l78 -591l245 456c58 107 98 142 167 142c25 0 48 -6 65 -17l-17 -57c-13 8 -26 12 -42 12c-37 0 -62 -22 -110 -109z" />
    <glyph glyph-name="afii10196" unicode="&#x475;" horiz-adv-x="491" 
d="M398 366l-193 -366h-94l-61 498h78l41 -435l162 321c47 95 78 121 134 121c19 0 38 -5 49 -12l-15 -53c-8 5 -16 7 -26 7c-21 0 -39 -12 -75 -81z" />
    <glyph glyph-name="equal.inferior" unicode="&#x208c;" 
d="M302 -96h-323v48h323v-48zM302 22h-323v49h323v-49z" />
    <glyph glyph-name="minus.inferior" unicode="&#x208b;" 
d="M295 -37h-324v49h324v-49z" />
    <glyph glyph-name="plus.inferior" unicode="&#x208a;" 
d="M110 -37h-137v49h137v126h50v-126h137v-49h-137v-125h-50v125z" />
    <glyph glyph-name="parenleft.inferior" unicode="&#x208d;" horiz-adv-x="190" 
d="M68 -239h-49c-24 59 -44 122 -44 185c0 131 72 232 152 325h49c-73 -97 -146 -198 -146 -325c0 -68 18 -125 38 -185z" />
    <glyph glyph-name="parenright.inferior" unicode="&#x208e;" horiz-adv-x="190" 
d="M-61 -239h-49c73 94 146 197 146 325c0 67 -18 125 -38 185h48c25 -60 45 -122 45 -186c0 -130 -72 -233 -152 -324z" />
    <glyph glyph-name="zero.inferior" unicode="&#x2080;" 
d="M62 -102c11 -15 26 -23 47 -23c82 0 130 150 130 242c0 49 -22 82 -63 82c-82 0 -130 -149 -130 -242c0 -24 5 -44 16 -59zM103 -172c-80 0 -118 54 -118 130c0 117 64 288 197 288c80 0 118 -54 118 -129c0 -119 -64 -289 -197 -289z" />
    <glyph glyph-name="one.inferior" unicode="&#x2081;" 
d="M149 -165h-63l75 336l-95 -60l-27 47l145 82h54z" />
    <glyph glyph-name="two.inferior" unicode="&#x2082;" 
d="M229 -165h-275l12 52l141 110c75 59 117 97 117 142c0 31 -30 56 -74 56c-45 0 -74 -11 -105 -26l6 53c31 15 72 24 115 24c71 0 122 -36 122 -97c0 -72 -54 -122 -138 -186l-100 -77h191z" />
    <glyph glyph-name="three.inferior" unicode="&#x2083;" 
d="M-49 -156l14 52c27 -12 67 -17 98 -17c68 0 126 27 126 87c0 40 -49 55 -97 55h-48l11 49h46c56 0 121 17 121 73c0 36 -38 54 -85 54c-39 0 -67 -7 -98 -19l8 51c27 9 60 17 108 17c64 0 130 -28 130 -94c0 -60 -44 -95 -95 -108c39 -9 62 -41 62 -77
c0 -99 -103 -139 -191 -139c-35 0 -75 4 -110 16z" />
    <glyph glyph-name="four.inferior" unicode="&#x2084;" 
d="M221 181l-190 -208h143zM163 -78h-203l12 57l246 261h73l-59 -266h59l-11 -52h-59l-19 -87h-59z" />
    <glyph glyph-name="five.inferior" unicode="&#x2085;" 
d="M-28 -157l11 54c27 -12 58 -18 89 -18c75 0 131 34 131 97c0 47 -41 65 -90 65c-37 0 -73 -9 -97 -16l52 215h236l-12 -50h-177l-27 -112c20 4 36 6 59 6c64 0 122 -31 122 -100c0 -106 -96 -156 -197 -156c-32 0 -69 6 -100 15z" />
    <glyph glyph-name="six.inferior" unicode="&#x2086;" 
d="M68 -101c12 -15 30 -22 55 -22c60 0 98 49 98 102c0 39 -22 68 -71 68c-59 0 -100 -46 -100 -94c0 -21 6 -39 18 -54zM311 229l-19 -47c-20 11 -48 15 -77 15c-95 0 -137 -76 -153 -149c29 33 69 47 110 47c63 0 110 -48 110 -108c0 -99 -81 -159 -166 -159
c-84 0 -126 60 -126 132c0 125 63 286 227 286c32 0 63 -5 94 -17z" />
    <glyph glyph-name="seven.inferior" unicode="&#x2087;" 
d="M64 -165h-77l250 353h-220l12 52h287l-13 -53z" />
    <glyph glyph-name="eight.inferior" unicode="&#x2088;" 
d="M191 -3c-15 11 -31 21 -49 28c-54 -14 -107 -37 -107 -91c0 -39 38 -58 77 -58c57 0 102 30 102 82c0 15 -8 28 -23 39zM108 91c13 -11 27 -20 42 -26c49 15 95 42 95 85c0 31 -32 50 -67 50c-53 0 -89 -27 -89 -68c0 -15 6 -29 19 -41zM41 30c13 7 28 12 43 16
c-31 17 -55 41 -55 80c0 80 72 120 157 120c55 0 122 -26 122 -88c0 -61 -49 -95 -101 -113c39 -17 69 -44 69 -87c0 -97 -89 -130 -173 -130c-58 0 -131 26 -131 96c0 51 29 86 69 106z" />
    <glyph glyph-name="nine.inferior" unicode="&#x2089;" 
d="M81 46c11 -13 29 -19 54 -19c58 0 100 46 100 94c0 43 -25 76 -74 76c-60 0 -97 -49 -97 -102c0 -19 6 -36 17 -49zM-27 -154l19 47c21 -11 47 -16 78 -16c95 0 137 77 153 150c-29 -35 -68 -48 -111 -48c-64 0 -109 47 -109 108c0 99 79 159 165 159
c84 0 126 -60 126 -132c0 -125 -63 -286 -226 -286c-33 0 -64 5 -95 18z" />
    <glyph glyph-name="a.inferior" unicode="&#x2090;" horiz-adv-x="363" 
d="M197 -165c0 17 4 47 11 78c-30 -48 -74 -85 -131 -85c-56 0 -87 39 -87 98c0 118 98 220 227 220c35 0 62 -4 95 -13l-38 -165c-13 -57 -19 -105 -19 -133h-58zM242 94c-11 4 -23 5 -36 5c-86 0 -155 -86 -155 -166c0 -34 15 -58 51 -58c46 0 106 65 120 130z" />
    <glyph glyph-name="b.inferior" unicode="&#xe5f7;" horiz-adv-x="362" 
d="M136 273l-47 -206c29 44 66 79 121 79c57 0 88 -41 88 -99c0 -117 -79 -219 -201 -219c-37 0 -79 6 -117 15l96 430h60zM48 -121c18 -3 36 -4 51 -4c86 0 136 83 136 166c0 33 -16 58 -51 58c-47 0 -100 -61 -116 -130z" />
    <glyph glyph-name="c.inferior" unicode="&#xe601;" horiz-adv-x="300" 
d="M267 134l-13 -48c-18 9 -41 13 -64 13c-83 0 -133 -76 -133 -144c0 -46 25 -80 81 -80c25 0 44 4 71 12l-8 -49c-24 -7 -52 -10 -81 -10c-79 0 -127 46 -127 115c0 111 77 203 196 203c24 0 54 -4 78 -12z" />
    <glyph glyph-name="d.inferior" unicode="&#xe60b;" horiz-adv-x="369" 
d="M253 140l29 133h61l-69 -304c-13 -57 -19 -106 -19 -134h-58c1 17 5 46 11 78c-32 -48 -74 -85 -131 -85c-56 0 -87 39 -87 98c0 118 97 220 219 220c14 0 31 -2 44 -6zM242 95c-12 3 -27 4 -38 4c-86 0 -153 -86 -153 -166c0 -34 15 -58 52 -58c46 0 105 65 119 130z
" />
    <glyph glyph-name="e.inferior" unicode="&#x2091;" horiz-adv-x="328" 
d="M280 75c0 -97 -139 -107 -224 -107c-5 -11 -6 -24 -6 -35c0 -42 30 -62 74 -62c31 0 68 9 90 22v-45c-31 -13 -69 -20 -106 -20c-65 0 -119 30 -119 101c0 111 90 216 195 216c49 0 96 -17 96 -70zM225 71c0 20 -16 33 -47 33c-55 0 -97 -56 -113 -97c65 0 160 8 160 64z
" />
    <glyph glyph-name="f.inferior" unicode="&#xe61e;" horiz-adv-x="209" 
d="M234 271l-13 -44c-7 2 -17 4 -26 4c-38 0 -54 -36 -60 -64l-6 -29h68l-9 -46h-70l-61 -271c-13 -55 -42 -123 -111 -123c-15 0 -30 1 -47 4l12 46c7 -1 15 -2 24 -2c41 0 55 45 63 80l59 266h-59l11 46h59l8 35c12 55 42 105 113 105c14 0 29 -2 45 -7z" />
    <glyph glyph-name="g.inferior" unicode="&#xe628;" horiz-adv-x="366" 
d="M191 -153l13 57c-36 -45 -75 -69 -123 -69c-57 0 -89 38 -89 96c0 115 99 215 227 215c35 0 62 -4 95 -13l-61 -268c-24 -107 -72 -167 -197 -167c-39 0 -71 6 -99 15l16 50c25 -12 54 -18 85 -18c80 0 120 42 133 102zM245 95c-11 3 -23 4 -37 4
c-85 0 -155 -84 -155 -163c0 -32 15 -57 53 -57c46 0 104 58 119 126z" />
    <glyph glyph-name="h.inferior" unicode="&#xe632;" horiz-adv-x="356" 
d="M289 72c0 -17 -1 -28 -6 -50l-42 -187h-62l42 183c3 12 5 26 5 36c0 25 -16 45 -51 45c-58 0 -88 -48 -99 -96l-38 -168h-60l98 438h60l-42 -185c33 39 68 58 112 58c48 0 83 -26 83 -74z" />
    <glyph glyph-name="i.inferior" unicode="&#xe63b;" horiz-adv-x="158" 
d="M133 261l-14 -60h-62l14 60h62zM107 140l-68 -305h-60l67 305h61z" />
    <glyph glyph-name="j.inferior" unicode="&#xe645;" horiz-adv-x="162" 
d="M136 261l-14 -60h-61l13 60h62zM110 140l-77 -348c-12 -53 -38 -94 -98 -94c-16 0 -31 1 -46 5l13 45c4 -1 11 -2 19 -2c33 0 47 28 53 53l74 341h62z" />
    <glyph glyph-name="k.inferior" unicode="&#xe64f;" horiz-adv-x="318" 
d="M305 140l-164 -138l108 -167h-73l-101 164l-37 -164h-60l98 438h60l-59 -263l152 130h76z" />
    <glyph glyph-name="l.inferior" unicode="&#xe659;" horiz-adv-x="165" 
d="M137 273l-98 -438h-60l97 438h61z" />
    <glyph glyph-name="m.inferior" unicode="&#xe663;" horiz-adv-x="536" 
d="M469 71c0 -12 -2 -23 -4 -33l-45 -203h-60l44 199c2 9 3 18 3 26c0 26 -16 39 -47 39c-52 0 -84 -51 -93 -93l-38 -171h-60l43 199c2 9 3 18 3 26c0 27 -15 39 -47 39c-51 0 -82 -51 -92 -93l-38 -171h-60l52 238c4 20 9 41 13 67h56l-10 -56c33 41 69 62 114 62
c38 0 70 -23 72 -67c27 36 65 67 114 67c47 0 80 -25 80 -75z" />
    <glyph glyph-name="n.inferior" unicode="&#xe66c;" horiz-adv-x="355" 
d="M289 69c0 -12 -2 -32 -5 -45l-43 -189h-62l42 179c2 12 5 30 5 40c0 25 -14 45 -51 45c-57 0 -88 -47 -98 -92l-39 -172h-60l53 236c5 22 9 43 13 69h56l-10 -57c30 41 66 63 115 63c51 0 84 -27 84 -77z" />
    <glyph glyph-name="o.inferior" unicode="&#x2092;" horiz-adv-x="370" 
d="M-8 -58c0 108 77 204 191 204c76 0 123 -45 123 -114c0 -109 -77 -204 -191 -204c-77 0 -123 44 -123 114zM243 25c0 48 -25 73 -71 73c-70 0 -118 -84 -118 -150c0 -43 23 -72 66 -72c73 0 123 79 123 149z" />
    <glyph glyph-name="p.inferior" unicode="&#xe67f;" horiz-adv-x="362" 
d="M97 -172c-22 0 -41 2 -59 7l-28 -131h-61l74 333c9 38 16 73 20 103h58l-16 -77c30 44 65 83 125 83c57 0 88 -41 88 -99c0 -117 -78 -219 -201 -219zM48 -121c16 -3 36 -4 51 -4c86 0 136 83 136 166c0 33 -15 58 -51 58c-47 0 -100 -61 -116 -130z" />
    <glyph glyph-name="q.inferior" unicode="&#xe689;" horiz-adv-x="363" 
d="M154 -296l45 196c-35 -43 -73 -72 -122 -72c-56 0 -87 39 -87 98c0 118 98 220 227 220c35 0 62 -4 95 -13l-98 -429h-60zM243 95c-13 3 -24 4 -37 4c-86 0 -155 -86 -155 -166c0 -34 15 -58 52 -58c46 0 104 65 119 130z" />
    <glyph glyph-name="r.inferior" unicode="&#xe693;" horiz-adv-x="231" 
d="M214 144l-16 -59c-4 1 -12 2 -22 2c-63 0 -94 -60 -105 -109l-32 -143h-61l53 236c5 23 10 43 13 69h56l-12 -64c23 35 60 70 103 70c7 0 15 0 23 -2z" />
    <glyph glyph-name="s.inferior" unicode="&#xe69d;" horiz-adv-x="273" 
d="M225 133l-14 -45c-20 9 -45 15 -71 15c-28 0 -71 -10 -71 -44c0 -18 18 -29 50 -47c44 -24 76 -42 76 -86c0 -73 -75 -98 -138 -98c-29 0 -62 5 -91 14l16 47c21 -12 47 -18 76 -18c30 0 76 10 76 48c0 23 -22 35 -54 53c-42 23 -68 38 -68 85c0 64 73 89 130 89
c26 0 58 -5 83 -13z" />
    <glyph glyph-name="t.inferior" unicode="&#xe6a7;" horiz-adv-x="221" 
d="M196 140l-11 -47h-71l-36 -160c-3 -12 -4 -21 -4 -31c0 -20 13 -25 32 -25c14 0 25 3 35 6l-6 -47c-15 -4 -34 -8 -56 -8c-36 0 -67 17 -67 59c0 16 2 30 6 47l35 159h-59l12 47h58l15 65l64 19l-18 -84h71z" />
    <glyph glyph-name="u.inferior" unicode="&#xe6b1;" horiz-adv-x="354" 
d="M303 140l-52 -236c-5 -22 -10 -46 -13 -69h-55l10 57c-31 -36 -62 -64 -115 -64c-50 0 -84 28 -84 78c0 11 2 24 4 35l44 199h61l-42 -183c-3 -15 -5 -28 -5 -36c0 -25 15 -46 53 -46c54 0 85 49 95 94l39 171h60z" />
    <glyph glyph-name="v.inferior" unicode="&#xe6bb;" horiz-adv-x="304" 
d="M288 140l-167 -305h-80l-37 305h63l22 -263l135 263h64z" />
    <glyph glyph-name="w.inferior" unicode="&#xe6c5;" horiz-adv-x="509" 
d="M489 140l-158 -305h-73l-20 258l-130 -258h-72l-31 305h62l17 -261l130 261h70l19 -262l129 262h57z" />
    <glyph glyph-name="x.inferior" unicode="&#x2093;" horiz-adv-x="314" 
d="M291 140l-132 -149l74 -156h-68l-47 130l-108 -130h-68l146 163l-68 142h65l47 -119l90 119h69z" />
    <glyph glyph-name="y.inferior" unicode="&#xe6d8;" horiz-adv-x="306" 
d="M290 140l-196 -351c-28 -50 -65 -90 -120 -90c-15 0 -27 1 -45 5l14 47c7 -2 18 -5 27 -5c25 0 45 16 62 45l21 37l-47 312h64l26 -259l132 259h62z" />
    <glyph glyph-name="z.inferior" unicode="&#xe6e2;" horiz-adv-x="291" 
d="M264 140l-13 -53l-211 -205h168l-13 -47h-239l13 51l212 207h-161l11 47h233z" />
    <glyph glyph-name="exclam.sc" unicode="&#xef32;" horiz-adv-x="271" 
d="M108 0h-82l18 84h82zM129 165h-57l67 368h81z" />
    <glyph glyph-name="dollar.sc" unicode="&#xf101;" horiz-adv-x="455" 
d="M160 -85h-46l15 74c-41 3 -86 7 -121 22l21 64c29 -17 72 -27 119 -27c80 0 128 36 128 100c0 39 -23 66 -84 102c-79 45 -111 80 -111 139c0 84 70 141 174 152l16 78h46l-16 -76c35 -3 74 -8 103 -20l-20 -60c-28 15 -68 21 -101 21c-80 0 -126 -40 -126 -87
c0 -36 19 -58 79 -93c81 -48 116 -84 116 -147c0 -92 -65 -157 -177 -166z" />
    <glyph glyph-name="percent.sc" unicode="&#xf0f5;" horiz-adv-x="748" 
d="M217 -19h-50l340 571h50zM502 -11c-69 0 -103 46 -103 107c0 111 63 221 163 221c69 0 102 -46 102 -107c0 -112 -63 -221 -162 -221zM466 48c10 -12 23 -18 39 -18c64 0 106 100 106 182c0 37 -19 64 -51 64c-64 0 -108 -100 -108 -182c0 -19 5 -34 14 -46zM163 215
c-69 0 -103 46 -103 107c0 111 63 221 163 221c69 0 102 -46 102 -107c0 -112 -63 -221 -162 -221zM127 274c10 -12 23 -18 39 -18c64 0 106 100 106 182c0 37 -19 64 -51 64c-64 0 -108 -100 -108 -182c0 -19 5 -34 14 -46z" />
    <glyph glyph-name="ampersand.sc" unicode="&#xef3a;" horiz-adv-x="532" 
d="M348 249h-104c-83 0 -161 -30 -161 -114c0 -56 43 -91 118 -91c39 0 81 7 106 15zM414 249l-50 -236c-56 -15 -120 -24 -169 -24c-111 0 -186 51 -186 135c0 95 64 147 152 156c-51 11 -85 53 -85 98c0 103 97 165 214 165c43 0 94 -7 138 -20l-17 -60
c-39 15 -79 23 -120 23c-70 0 -143 -30 -143 -105c0 -51 44 -79 107 -79h104l12 61h68l-13 -61h82l-12 -53h-82z" />
    <glyph glyph-name="zero.sc" unicode="&#xf057;" horiz-adv-x="455" 
d="M106 78c13 -21 33 -32 60 -32c101 0 169 185 169 327c0 64 -22 112 -78 112c-100 0 -169 -185 -169 -327c0 -32 6 -59 18 -80zM96 2c-54 26 -81 83 -81 154c0 176 88 387 250 387c96 0 143 -74 143 -167c0 -177 -86 -387 -249 -387c-24 0 -45 4 -63 13z" />
    <glyph glyph-name="one.sc" unicode="&#xf061;" horiz-adv-x="455" 
d="M218 0h-71l97 452l-120 -83l-31 53l173 111h66z" />
    <glyph glyph-name="two.sc" unicode="&#xf06c;" horiz-adv-x="455" 
d="M319 0h-345l14 60l182 151c115 97 146 142 146 193s-39 79 -92 79c-47 0 -82 -11 -135 -35l9 63c43 19 89 32 146 32c83 0 145 -48 145 -130s-52 -139 -164 -235l-144 -121h251z" />
    <glyph glyph-name="three.sc" unicode="&#xf077;" horiz-adv-x="455" 
d="M-25 10l20 61c43 -17 81 -24 124 -24c88 0 160 40 160 116c0 51 -41 84 -124 84h-60l12 56h63c92 0 153 32 153 100c0 47 -38 82 -105 82c-51 0 -86 -9 -129 -25l8 60c25 9 70 23 133 23c95 0 164 -52 164 -131c0 -75 -64 -127 -133 -140c60 -12 90 -57 90 -105
c0 -116 -107 -178 -237 -178c-45 0 -94 6 -139 21z" />
    <glyph glyph-name="four.sc" unicode="&#xf082;" horiz-adv-x="455" 
d="M316 468l-251 -291h189zM241 121h-254l14 63l307 349h89l-76 -356h78l-14 -56h-77l-25 -121h-69z" />
    <glyph glyph-name="five.sc" unicode="&#xf08c;" horiz-adv-x="455" 
d="M-2 7l16 64c37 -15 74 -23 112 -23c97 0 172 49 172 132c0 56 -37 95 -113 95c-49 0 -95 -10 -130 -21l64 279h295l-13 -57h-228l-38 -160c27 7 49 10 80 10c99 0 154 -54 154 -138c0 -129 -105 -199 -245 -199c-40 0 -85 6 -126 18z" />
    <glyph glyph-name="six.sc" unicode="&#xf096;" horiz-adv-x="455" 
d="M120 74c17 -20 41 -30 70 -30c72 0 125 59 125 142c0 56 -31 97 -90 97c-74 0 -130 -57 -130 -132c0 -31 8 -56 25 -77zM427 519l-19 -57c-32 16 -69 24 -104 24c-120 0 -181 -98 -202 -219c40 52 94 71 145 71c78 0 138 -52 138 -143c0 -118 -85 -206 -200 -206
c-100 0 -160 69 -160 173c0 164 74 381 284 381c41 0 81 -8 118 -24z" />
    <glyph glyph-name="seven.sc" unicode="&#xf0a0;" horiz-adv-x="455" 
d="M110 0h-87l320 473h-287l12 60h362l-13 -59z" />
    <glyph glyph-name="eight.sc" unicode="&#xf0aa;" horiz-adv-x="455" 
d="M157 339c15 -15 34 -28 58 -38c67 24 124 54 124 114c0 39 -38 74 -86 74c-74 0 -117 -48 -117 -94c0 -22 7 -41 21 -56zM272 211c-17 17 -39 32 -67 44c-92 -25 -141 -67 -141 -132c0 -47 39 -79 99 -79c75 0 134 45 134 110c0 21 -8 40 -25 57zM35 218
c29 27 65 47 109 60c-47 27 -77 65 -77 112c0 84 77 153 192 153c90 0 151 -55 151 -119c0 -79 -67 -122 -137 -146c51 -21 97 -69 97 -122c0 -102 -97 -167 -217 -167c-92 0 -161 47 -161 127c0 42 14 76 43 102z" />
    <glyph glyph-name="nine.sc" unicode="&#xf0b4;" horiz-adv-x="455" 
d="M132 276c15 -19 38 -28 67 -28c75 0 131 59 131 133c0 61 -35 106 -92 106c-75 0 -129 -62 -129 -141c0 -28 8 -51 23 -70zM-8 12l19 58c31 -15 71 -23 106 -23c121 0 182 100 206 220c-39 -52 -95 -73 -146 -73c-77 0 -137 52 -137 143c0 115 84 206 203 206
c100 0 156 -70 156 -174c0 -166 -75 -380 -287 -380c-42 0 -82 8 -120 23z" />
    <glyph glyph-name="question.sc" unicode="&#xef82;" horiz-adv-x="353" 
d="M126 0h-82l18 84h82zM148 165h-66c8 62 32 96 103 151c47 36 66 61 66 102c0 40 -35 65 -84 65c-39 0 -81 -10 -114 -25l4 61c35 12 72 24 125 24c84 0 141 -46 141 -118c0 -56 -27 -98 -88 -143c-60 -46 -79 -68 -87 -117z" />
    <glyph glyph-name="a.sc" unicode="&#xe5ec;" horiz-adv-x="528" 
d="M302 480l-167 -281h214zM21 0h-78l323 534h90l94 -534h-72l-22 143h-251z" />
    <glyph glyph-name="b.sc" unicode="&#xe5f5;" horiz-adv-x="462" 
d="M178 480l-38 -179h67c73 0 142 30 142 109c0 49 -46 70 -94 70h-77zM130 251l-42 -198h69c83 0 155 25 155 121c0 64 -75 77 -128 77h-54zM156 0h-150l113 533h159c73 0 143 -34 143 -110c0 -73 -52 -132 -127 -148c59 -15 90 -53 90 -108c0 -125 -105 -167 -228 -167z
" />
    <glyph glyph-name="c.sc" unicode="&#xe5ff;" horiz-adv-x="478" 
d="M390 74l-7 -63c-41 -14 -85 -21 -131 -21c-140 0 -225 93 -225 220c0 192 131 333 330 333c56 0 89 -8 128 -21l-23 -63c-29 15 -66 23 -109 23c-155 0 -250 -116 -250 -260c0 -99 52 -172 167 -172c40 0 80 7 120 24z" />
    <glyph glyph-name="d.sc" unicode="&#xe609;" horiz-adv-x="547" 
d="M179 476l-89 -420h50c181 0 273 92 273 263c0 112 -70 157 -166 157h-68zM150 0h-144l113 533h149c128 0 221 -63 221 -202c0 -219 -143 -331 -339 -331z" />
    <glyph glyph-name="e.sc" unicode="&#xe613;" horiz-adv-x="416" 
d="M303 0h-297l113 533h292l-14 -57h-218l-37 -174h206l-11 -56h-207l-40 -189h227z" />
    <glyph glyph-name="f.sc" unicode="&#xe61c;" horiz-adv-x="392" 
d="M78 0h-72l113 533h284l-13 -57h-211l-37 -177h202l-13 -56h-201z" />
    <glyph glyph-name="g.sc" unicode="&#xe626;" horiz-adv-x="548" 
d="M484 284l-56 -262c-60 -23 -114 -33 -174 -33c-139 0 -227 94 -227 223c0 211 155 331 335 331c55 0 96 -6 147 -26l-20 -63c-39 20 -81 27 -128 27c-156 0 -258 -111 -258 -266c0 -94 55 -168 162 -168c36 0 64 5 103 18l35 163h-105l13 56h173z" />
    <glyph glyph-name="h.sc" unicode="&#xe630;" horiz-adv-x="550" 
d="M78 0h-72l113 533h72l-48 -228h252l48 228h72l-113 -533h-72l52 243h-252z" />
    <glyph glyph-name="i.sc" unicode="&#xe63a;" horiz-adv-x="225" 
d="M78 0h-72l113 533h72z" />
    <glyph glyph-name="j.sc" unicode="&#xe643;" horiz-adv-x="277" 
d="M-65 0l17 59c11 -5 26 -8 43 -8c51 0 85 39 100 104l80 378h72l-83 -390c-20 -92 -71 -154 -166 -154c-27 0 -42 3 -63 11z" />
    <glyph glyph-name="k.sc" unicode="&#xe64d;" horiz-adv-x="486" 
d="M78 0h-72l113 533h72l-52 -240l271 240h93l-300 -257l209 -276h-86l-192 265z" />
    <glyph glyph-name="l.sc" unicode="&#xe657;" horiz-adv-x="380" 
d="M297 0h-291l113 533h72l-100 -471h221z" />
    <glyph glyph-name="m.sc" unicode="&#xe661;" horiz-adv-x="726" 
d="M74 0h-68l113 533h110l78 -457l270 457h114l-113 -533h-68l101 479l-284 -479h-70l-82 479z" />
    <glyph glyph-name="n.sc" unicode="&#xe66b;" horiz-adv-x="569" 
d="M73 0h-67l113 533h102l147 -471l99 471h68l-113 -533h-104l-146 467z" />
    <glyph glyph-name="o.sc" unicode="&#xe674;" horiz-adv-x="574" 
d="M134 91c21 -25 53 -42 94 -42c147 0 212 155 212 287c0 72 -35 147 -127 147c-141 0 -210 -164 -210 -291c0 -39 11 -74 31 -101zM130 8c-75 38 -103 114 -103 182c0 174 103 353 295 353c146 0 194 -121 194 -206c0 -177 -96 -348 -296 -348c-35 0 -65 6 -90 19z" />
    <glyph glyph-name="p.sc" unicode="&#xe67d;" horiz-adv-x="441" 
d="M178 476l-43 -203h62c85 0 153 33 153 126c0 43 -32 77 -91 77h-81zM78 0h-72l113 533h163c93 0 141 -64 141 -129c0 -142 -115 -186 -212 -186h-86z" />
    <glyph glyph-name="q.sc" unicode="&#xe687;" horiz-adv-x="574" 
d="M134 91c21 -25 53 -42 94 -42c147 0 212 155 212 287c0 72 -35 147 -127 147c-141 0 -210 -164 -210 -291c0 -39 11 -74 31 -101zM458 -101h-89l-72 100c-24 -7 -50 -10 -77 -10c-142 0 -193 113 -193 201c0 174 103 353 295 353c146 0 194 -121 194 -206
c0 -129 -51 -254 -155 -313z" />
    <glyph glyph-name="r.sc" unicode="&#xe691;" horiz-adv-x="448" 
d="M179 478l-39 -181h60c61 0 148 16 148 109c0 44 -35 72 -107 72h-62zM78 0h-72l113 533h161c71 0 141 -40 141 -115c0 -106 -88 -143 -150 -154c33 -11 48 -35 56 -70l47 -194h-78l-35 171c-11 51 -29 70 -89 70h-43z" />
    <glyph glyph-name="s.sc" unicode="&#xe69b;" horiz-adv-x="396" 
d="M-23 11l21 64c29 -17 72 -27 119 -27c80 0 128 36 128 100c0 39 -23 66 -84 102c-79 45 -111 80 -111 139c0 92 84 154 207 154c39 0 83 -5 116 -20l-20 -60c-28 15 -68 21 -101 21c-80 0 -126 -40 -126 -87c0 -36 19 -58 79 -93c81 -48 116 -84 116 -147
c0 -99 -78 -168 -207 -168c-45 0 -97 6 -137 22z" />
    <glyph glyph-name="t.sc" unicode="&#xe6a5;" horiz-adv-x="416" 
d="M170 0h-72l100 471h-160l13 62h394l-13 -62h-162z" />
    <glyph glyph-name="u.sc" unicode="&#xe6af;" horiz-adv-x="544" 
d="M186 533l-72 -339c-4 -19 -6 -38 -6 -53c0 -51 33 -91 108 -91c80 0 134 48 154 144l72 339h72l-72 -340c-28 -133 -108 -204 -237 -204c-103 0 -169 58 -169 146c0 20 2 46 9 73l69 325h72z" />
    <glyph glyph-name="v.sc" unicode="&#xe6b9;" horiz-adv-x="492" 
d="M213 0h-88l-80 533h78l59 -463l256 463h81z" />
    <glyph glyph-name="w.sc" unicode="&#xe6c3;" horiz-adv-x="748" 
d="M175 0h-90l-33 533h74l23 -463l224 463h84l29 -463l222 463h70l-262 -533h-87l-29 463z" />
    <glyph glyph-name="x.sc" unicode="&#xe6cd;" horiz-adv-x="502" 
d="M23 0h-90l261 283l-127 250h80l96 -212l182 212h89l-239 -258l136 -275h-81l-105 237z" />
    <glyph glyph-name="y.sc" unicode="&#xe6d6;" horiz-adv-x="471" 
d="M190 0h-72l47 219l-130 314h81l96 -258l208 258h82l-266 -317z" />
    <glyph glyph-name="z.sc" unicode="&#xe6e0;" horiz-adv-x="416" 
d="M318 0h-361l12 60l361 414h-264l14 59h345l-12 -60l-357 -414h276z" />
    <glyph glyph-name="ae.sc" unicode="&#xeb99;" horiz-adv-x="692" 
d="M393 486l-233 -287h172zM6 0h-83l437 533h327l-14 -57h-214l-37 -174h202l-11 -56h-203l-40 -189h223l-14 -57h-290l31 143h-200z" />
    <glyph glyph-name="aogonek.sc" unicode="&#xeb8f;" horiz-adv-x="528" 
d="M302 480l-167 -281h214zM21 0h-78l323 534h90l94 -534h-20c-56 -31 -84 -65 -84 -100c0 -29 24 -40 45 -40s37 4 60 15l8 -35c-27 -12 -48 -20 -83 -20c-53 0 -85 29 -85 68c0 48 35 88 94 112h-7l-22 143h-251z" />
    <glyph glyph-name="ccedilla.sc" unicode="&#xebd5;" horiz-adv-x="478" 
d="M125 -161l15 35c25 -11 49 -17 72 -17c27 0 54 12 54 37c0 20 -19 26 -36 26c-12 0 -25 -2 -40 -7l-13 18l49 60c-124 11 -199 100 -199 219c0 192 131 333 330 333c56 0 89 -8 128 -21l-23 -63c-29 15 -66 23 -109 23c-155 0 -250 -116 -250 -260
c0 -99 52 -172 167 -172c40 0 80 7 120 24l-7 -63c-38 -13 -78 -20 -121 -21l-36 -43c15 3 19 4 32 4c36 0 60 -21 60 -53c0 -49 -44 -78 -108 -78c-31 0 -54 4 -85 19z" />
    <glyph glyph-name="eth.sc" unicode="&#xebf3;" horiz-adv-x="547" 
d="M150 0h-144l52 246h-62l9 50h63l51 237h149c128 0 221 -63 221 -202c0 -219 -143 -331 -339 -331zM130 246l-40 -190h50c181 0 273 92 273 263c0 112 -70 157 -166 157h-68l-38 -180h131l-11 -50h-131z" />
    <glyph glyph-name="dcroat.sc" unicode="&#xebe9;" horiz-adv-x="547" 
d="M150 0h-144l52 246h-62l9 50h63l51 237h149c128 0 221 -63 221 -202c0 -219 -143 -331 -339 -331zM130 246l-40 -190h50c181 0 273 92 273 263c0 112 -70 157 -166 157h-68l-38 -180h131l-11 -50h-131z" />
    <glyph glyph-name="eogonek.sc" unicode="&#xec4d;" horiz-adv-x="416" 
d="M223 0h-217l113 533h292l-14 -57h-218l-37 -174h206l-11 -56h-207l-40 -189h227l-14 -57h-35c-56 -31 -84 -65 -84 -100c0 -29 24 -40 45 -40s37 4 60 15l8 -35c-27 -12 -48 -20 -83 -20c-53 0 -85 29 -85 68c0 48 35 88 94 112z" />
    <glyph glyph-name="hbar.sc" unicode="&#xec89;" horiz-adv-x="550" 
d="M158 376l-22 -101h253l21 101h-252zM78 0h-72l113 533h72l-23 -109h252l24 109h72l-114 -533h-72l47 217h-253z" />
    <glyph glyph-name="iogonek.sc" unicode="&#xecda;" horiz-adv-x="225" 
d="M90 -127l8 -35c-23 -11 -48 -18 -76 -18c-53 0 -85 29 -85 68c0 48 39 88 95 112h-26l113 533h72l-113 -533h-1c-57 -33 -85 -66 -85 -100c0 -29 24 -40 45 -40c16 0 33 6 53 13z" />
    <glyph glyph-name="lslash.sc" unicode="&#xed20;" horiz-adv-x="380" 
d="M297 0h-291l50 234l-74 -54l13 57l72 54l52 242h72l-41 -195l132 96l-13 -60l-132 -95l-46 -217h221z" />
    <glyph glyph-name="oe.sc" unicode="&#xedca;" horiz-adv-x="718" 
d="M328 58l88 415c-24 7 -45 10 -80 10c-160 0 -233 -158 -233 -287c0 -87 44 -147 147 -147c32 0 59 5 78 9zM605 0h-268c-31 -7 -61 -11 -92 -11c-147 0 -218 82 -218 206c0 173 107 348 315 348c39 0 78 -5 102 -10h269l-14 -57h-214l-37 -174h202l-11 -56h-203l-40 -189
h223z" />
    <glyph glyph-name="oslash.sc" unicode="&#xedb6;" horiz-adv-x="574" 
d="M434 383l-307 -282c21 -32 54 -52 101 -52c147 0 212 155 212 287c0 15 -2 31 -6 47zM110 138l310 284c-20 36 -54 61 -107 61c-141 0 -210 -164 -210 -291c0 -20 2 -38 7 -54zM74 51l-74 -69l-28 31l79 73c-17 33 -24 69 -24 104c0 174 103 353 295 353
c72 0 120 -30 151 -71l77 71l27 -31l-83 -76c15 -33 22 -68 22 -99c0 -177 -96 -348 -296 -348c-68 0 -115 26 -146 62z" />
    <glyph glyph-name="scedilla.sc" unicode="&#xee10;" horiz-adv-x="396" 
d="M13 -161l15 35c25 -11 49 -17 72 -17c27 0 54 12 54 37c0 20 -19 26 -36 26c-12 0 -25 -2 -40 -7l-13 18l48 58c-45 0 -97 6 -136 22l21 64c29 -17 72 -27 119 -27c80 0 128 36 128 100c0 39 -23 66 -84 102c-79 45 -111 80 -111 139c0 92 84 154 207 154
c39 0 83 -5 116 -20l-20 -60c-28 15 -68 21 -101 21c-80 0 -126 -40 -126 -87c0 -36 19 -58 79 -93c81 -48 116 -84 116 -147c0 -89 -62 -154 -170 -166l-37 -44c15 3 19 4 32 4c36 0 60 -21 60 -53c0 -49 -44 -78 -108 -78c-31 0 -54 4 -85 19z" />
    <glyph glyph-name="germandbls.sc" unicode="&#xee24;" horiz-adv-x="784" 
d="M365 11l21 64c29 -17 72 -27 119 -27c80 0 128 36 128 100c0 39 -23 66 -84 102c-79 45 -111 80 -111 139c0 92 84 154 207 154c39 0 83 -5 116 -20l-20 -60c-28 15 -68 21 -101 21c-80 0 -126 -40 -126 -87c0 -36 19 -58 79 -93c81 -48 116 -84 116 -147
c0 -99 -78 -168 -207 -168c-45 0 -97 6 -137 22zM-23 11l21 64c29 -17 72 -27 119 -27c80 0 128 36 128 100c0 39 -23 66 -84 102c-79 45 -111 80 -111 139c0 92 84 154 207 154c39 0 83 -5 116 -20l-20 -60c-28 15 -68 21 -101 21c-80 0 -126 -40 -126 -87
c0 -36 19 -58 79 -93c81 -48 116 -84 116 -147c0 -99 -78 -168 -207 -168c-45 0 -97 6 -137 22z" />
    <glyph glyph-name="thorn.sc" unicode="&#xee4c;" horiz-adv-x="442" 
d="M155 372l-43 -203h54c93 0 161 29 161 126c0 43 -33 77 -93 77h-79zM78 0h-72l113 533h72l-22 -104h90c93 0 141 -64 141 -129c0 -141 -115 -186 -212 -186h-86z" />
    <glyph glyph-name="tbar.sc" unicode="&#xee42;" horiz-adv-x="416" 
d="M170 0h-72l63 296h-113l11 51h113l26 124h-160l13 62h394l-13 -62h-162l-26 -124h115l-11 -51h-115z" />
    <glyph glyph-name="fl.sc" unicode="&#xf172;" horiz-adv-x="764" 
d="M78 0h-72l113 533h284l-13 -57h-211l-37 -177h202l-13 -56h-201zM681 0h-291l113 533h72l-100 -471h221z" />
    <glyph glyph-name="uogonek.sc" unicode="&#xeeb0;" horiz-adv-x="544" 
d="M292 -125l8 -35c-27 -12 -48 -20 -83 -20c-53 0 -85 29 -85 68c0 41 26 77 71 101c-101 1 -167 58 -167 146c0 20 2 46 9 73l69 325h72l-72 -339c-4 -19 -6 -38 -6 -53c0 -51 33 -91 108 -91c80 0 134 48 154 144l72 339h72l-72 -340c-24 -115 -85 -181 -182 -199
c-49 -29 -73 -61 -73 -94c0 -29 24 -40 45 -40s37 4 60 15z" />
    <glyph glyph-name="fi.sc" unicode="&#xf15b;" horiz-adv-x="609" 
d="M78 0h-72l113 533h284l-13 -57h-211l-37 -177h202l-13 -56h-201zM462 0h-72l113 533h72z" />
    <glyph glyph-name="ij.sc" unicode="&#xf192;" horiz-adv-x="494" 
d="M77 0h-72l113 533h72zM152 0l17 59c11 -5 26 -8 43 -8c51 0 85 39 100 104l80 378h72l-83 -390c-20 -92 -71 -154 -166 -154c-27 0 -42 3 -63 11z" />
    <glyph glyph-name="grave.sc" unicode="&#xe001;" horiz-adv-x="224" 
d="M206 610h-59l-66 136h84z" />
    <glyph glyph-name="acute.sc" unicode="&#xe003;" horiz-adv-x="224" 
d="M184 610h-59l99 136h84z" />
    <glyph glyph-name="circumflex.sc" unicode="&#xe005;" horiz-adv-x="224" 
d="M94 610h-65l131 136h73l72 -136h-64l-54 96z" />
    <glyph glyph-name="caron.sc" unicode="&#xe007;" horiz-adv-x="224" 
d="M207 610h-73l-72 136h64l53 -97l94 97h65z" />
    <glyph glyph-name="tilde.sc" unicode="&#xe00a;" horiz-adv-x="224" 
d="M78 624h-47c10 47 53 100 109 100c46 0 77 -41 107 -41c24 0 42 26 47 45h47c-11 -43 -53 -99 -105 -99c-50 0 -69 40 -106 40c-24 0 -48 -25 -52 -45z" />
    <glyph glyph-name="dieresis.sc" unicode="&#xe00c;" horiz-adv-x="224" 
d="M132 634h-65l18 87h65zM284 634h-65l18 87h65z" />
    <glyph glyph-name="macron.sc" unicode="&#xe00e;" horiz-adv-x="224" 
d="M289 653h-240l11 51h240z" />
    <glyph glyph-name="breve.sc" unicode="&#xe010;" horiz-adv-x="224" 
d="M77 735h42c-1 -3 -1 -7 -1 -10c0 -39 24 -61 61 -61c43 0 77 31 90 71h42c-13 -67 -75 -117 -143 -117c-60 0 -94 34 -94 94c0 7 2 16 3 23z" />
    <glyph glyph-name="ring.sc" unicode="&#xe012;" horiz-adv-x="224" 
d="M140 636c11 -11 25 -17 40 -17c32 0 61 26 61 59c0 31 -25 58 -57 58s-60 -26 -60 -58c0 -17 5 -31 16 -42zM143 592c-32 14 -55 47 -55 86c0 52 46 92 97 92s91 -40 91 -92s-46 -93 -97 -93c-13 0 -25 2 -36 7z" />
    <glyph glyph-name="hungarumlaut.sc" unicode="&#xe014;" horiz-adv-x="224" 
d="M110 610h-59l99 136h84zM278 610h-59l98 136h84z" />
    <glyph glyph-name="dotaccent.sc" unicode="&#xe016;" horiz-adv-x="224" 
d="M213 634h-76l18 87h75z" />
    <glyph glyph-name="exclamdown.sc" unicode="&#xefc2;" horiz-adv-x="271" 
d="M199 449h-82l18 84h82zM104 0h-81l91 368h57z" />
    <glyph glyph-name="questiondown.sc" unicode="&#xefc6;" horiz-adv-x="353" 
d="M249 449h-82l18 84h82zM258 74l-4 -61c-35 -12 -72 -24 -125 -24c-84 0 -141 47 -141 119c0 56 27 98 88 143c60 43 79 69 87 117h66c-8 -62 -32 -96 -103 -151c-47 -36 -66 -61 -66 -102c0 -40 35 -66 84 -66c39 0 81 10 114 25z" />
    <glyph glyph-name="Euro.sc" unicode="&#xf113;" horiz-adv-x="455" 
d="M72 187h-71l19 44h54c3 20 5 46 12 69h-66l19 44h58c44 120 136 199 259 199c35 0 62 -4 102 -20l-25 -56c-27 12 -51 16 -83 16c-81 0 -151 -59 -178 -139h210l-19 -44h-204c-7 -23 -11 -50 -12 -69h192l-17 -44h-176c0 -74 35 -139 123 -139c31 0 56 5 85 16l-3 -62
c-31 -9 -62 -13 -94 -13c-118 0 -185 85 -185 198z" />
    <glyph glyph-name="cent.sc" unicode="&#xf11c;" horiz-adv-x="455" 
d="M214 0h-46l16 74c-71 11 -116 67 -116 143c0 124 74 229 199 242l16 74h44l-14 -72c27 -1 52 -7 79 -15l-17 -55c-24 12 -53 17 -80 17c-99 0 -156 -92 -156 -178c0 -65 34 -105 93 -105c31 0 62 6 91 17l-8 -56c-31 -9 -56 -13 -87 -14z" />
    <glyph glyph-name="sterling.sc" unicode="&#xf125;" horiz-adv-x="455" 
d="M323 0h-324l13 57h62l44 201h-59l9 55h62l10 45c24 111 88 185 211 185c29 0 59 -5 88 -16l-18 -59c-23 11 -41 16 -73 16c-85 0 -126 -60 -139 -128l-9 -43h130l-11 -55h-130l-44 -201h190z" />
    <glyph glyph-name="florin.sc" unicode="&#xf12e;" horiz-adv-x="455" 
d="M-12 -177l5 57c13 -4 24 -5 36 -5c35 0 57 19 73 87l69 305h-85v53h98l21 86c19 70 48 137 131 137c16 0 33 -1 52 -8l-5 -54c-15 5 -25 6 -36 6c-47 0 -67 -50 -75 -87l-19 -80h86v-53h-99l-71 -312c-23 -101 -63 -138 -127 -138c-19 0 -34 1 -54 6z" />
    <glyph glyph-name="yen.sc" unicode="&#xf137;" horiz-adv-x="455" 
d="M190 0h-71l24 109h-119l9 43h118l16 70h-118l9 43h98l-86 268h72l72 -254l180 254h76l-203 -268h99l-8 -43h-120l-16 -70h120l-8 -43h-120z" />
    <glyph glyph-name="perthousand.sc" unicode="&#xf0f9;" horiz-adv-x="1043" 
d="M217 -19h-50l340 571h50zM797 -11c-69 0 -103 46 -103 107c0 111 63 221 163 221c69 0 102 -46 102 -107c0 -112 -63 -221 -162 -221zM761 48c10 -12 23 -18 39 -18c64 0 106 100 106 182c0 37 -19 64 -51 64c-64 0 -108 -100 -108 -182c0 -19 5 -34 14 -46zM502 -11
c-69 0 -103 46 -103 107c0 111 63 221 163 221c69 0 102 -46 102 -107c0 -112 -63 -221 -162 -221zM466 48c10 -12 23 -18 39 -18c64 0 106 100 106 182c0 37 -19 64 -51 64c-64 0 -108 -100 -108 -182c0 -19 5 -34 14 -46zM163 215c-69 0 -103 46 -103 107
c0 111 63 221 163 221c69 0 102 -46 102 -107c0 -112 -63 -221 -162 -221zM127 274c10 -12 23 -18 39 -18c64 0 106 100 106 182c0 37 -19 64 -51 64c-64 0 -108 -100 -108 -182c0 -19 5 -34 14 -46z" />
    <glyph glyph-name="ordfeminine.sc" horiz-adv-x="308" 
d="M189 499l-64 -112h84zM76 300h-52l145 238h53l50 -238h-49l-9 52h-107z" />
    <glyph glyph-name="zero.scprop" unicode="&#xf058;" horiz-adv-x="455" 
d="M106 78c13 -21 33 -32 60 -32c101 0 169 185 169 327c0 64 -22 112 -78 112c-100 0 -169 -185 -169 -327c0 -32 6 -59 18 -80zM96 2c-54 26 -81 83 -81 154c0 176 88 387 250 387c96 0 143 -74 143 -167c0 -177 -86 -387 -249 -387c-24 0 -45 4 -63 13z" />
    <glyph glyph-name="one.scprop" unicode="&#xf062;" horiz-adv-x="337" 
d="M159 0h-71l97 452l-120 -83l-31 53l173 111h66z" />
    <glyph glyph-name="two.scprop" unicode="&#xf06d;" horiz-adv-x="455" 
d="M319 0h-345l14 60l182 151c115 97 146 142 146 193s-39 79 -92 79c-47 0 -82 -11 -135 -35l9 63c43 19 89 32 146 32c83 0 145 -48 145 -130s-52 -139 -164 -235l-144 -121h251z" />
    <glyph glyph-name="three.scprop" unicode="&#xf078;" horiz-adv-x="455" 
d="M-25 10l20 61c43 -17 81 -24 124 -24c88 0 160 40 160 116c0 51 -41 84 -124 84h-60l12 56h63c92 0 153 32 153 100c0 47 -38 82 -105 82c-51 0 -86 -9 -129 -25l8 60c25 9 70 23 133 23c95 0 164 -52 164 -131c0 -75 -64 -127 -133 -140c60 -12 90 -57 90 -105
c0 -116 -107 -178 -237 -178c-45 0 -94 6 -139 21z" />
    <glyph glyph-name="four.scprop" unicode="&#xf083;" horiz-adv-x="455" 
d="M316 468l-251 -291h189zM241 121h-254l14 63l307 349h89l-76 -356h78l-14 -56h-77l-25 -121h-69z" />
    <glyph glyph-name="five.scprop" unicode="&#xf08d;" horiz-adv-x="455" 
d="M-2 7l16 64c37 -15 74 -23 112 -23c97 0 172 49 172 132c0 56 -37 95 -113 95c-49 0 -95 -10 -130 -21l64 279h295l-13 -57h-228l-38 -160c27 7 49 10 80 10c99 0 154 -54 154 -138c0 -129 -105 -199 -245 -199c-40 0 -85 6 -126 18z" />
    <glyph glyph-name="six.scprop" unicode="&#xf097;" horiz-adv-x="455" 
d="M120 74c17 -20 41 -30 70 -30c72 0 125 59 125 142c0 56 -31 97 -90 97c-74 0 -130 -57 -130 -132c0 -31 8 -56 25 -77zM427 519l-19 -57c-32 16 -69 24 -104 24c-120 0 -181 -98 -202 -219c40 52 94 71 145 71c78 0 138 -52 138 -143c0 -118 -85 -206 -200 -206
c-100 0 -160 69 -160 173c0 164 74 381 284 381c41 0 81 -8 118 -24z" />
    <glyph glyph-name="seven.scprop" unicode="&#xf0a1;" horiz-adv-x="401" 
d="M83 0h-87l320 473h-287l12 60h362l-13 -59z" />
    <glyph glyph-name="eight.scprop" unicode="&#xf0ab;" horiz-adv-x="455" 
d="M157 339c15 -15 34 -28 58 -38c67 24 124 54 124 114c0 39 -38 74 -86 74c-74 0 -117 -48 -117 -94c0 -22 7 -41 21 -56zM272 211c-17 17 -39 32 -67 44c-92 -25 -141 -67 -141 -132c0 -47 39 -79 99 -79c75 0 134 45 134 110c0 21 -8 40 -25 57zM35 218
c29 27 65 47 109 60c-47 27 -77 65 -77 112c0 84 77 153 192 153c90 0 151 -55 151 -119c0 -79 -67 -122 -137 -146c51 -21 97 -69 97 -122c0 -102 -97 -167 -217 -167c-92 0 -161 47 -161 127c0 42 14 76 43 102z" />
    <glyph glyph-name="nine.scprop" unicode="&#xf0b5;" horiz-adv-x="455" 
d="M132 276c15 -19 38 -28 67 -28c75 0 131 59 131 133c0 61 -35 106 -92 106c-75 0 -129 -62 -129 -141c0 -28 8 -51 23 -70zM-8 12l19 58c31 -15 71 -23 106 -23c121 0 182 100 206 220c-39 -52 -95 -73 -146 -73c-77 0 -137 52 -137 143c0 115 84 206 203 206
c100 0 156 -70 156 -174c0 -166 -75 -380 -287 -380c-42 0 -82 8 -120 23z" />
    <glyph glyph-name="cyrbreve.sc" unicode="&#xe021;" horiz-adv-x="224" 
d="M151 611c-91 0 -121 67 -125 96l48 26c6 -32 29 -63 83 -63s92 34 112 63l38 -26c-16 -32 -64 -96 -156 -96z" />
    <glyph glyph-name="afii10103.sc" horiz-adv-x="225" 
d="M78 0h-72l113 533h72z" />
    <glyph glyph-name="afii10105.sc" horiz-adv-x="277" 
d="M-65 0l17 59c11 -5 26 -8 43 -8c51 0 85 39 100 104l80 378h72l-83 -390c-20 -92 -71 -154 -166 -154c-27 0 -42 3 -63 11z" />
    <glyph glyph-name="afii10077.sc" horiz-adv-x="555" 
d="M-15 -6c-21 0 -39 2 -53 7l18 63c9 -4 23 -6 39 -6c84 0 120 107 198 475h333l-113 -533h-72l100 474h-191c-73 -349 -109 -480 -259 -480z" />
    <glyph glyph-name="afii10065.sc" horiz-adv-x="528" 
d="M21 0h-78l323 534h90l94 -534h-72l-22 143h-251zM302 480l-167 -281h214z" />
    <glyph glyph-name="afii10066.sc" horiz-adv-x="463" 
d="M6 0l114 533h299l-11 -59h-229l-34 -160h102c92 0 144 -61 144 -128c0 -145 -119 -186 -215 -186h-170zM90 57h58c90 0 170 16 170 123c0 44 -34 78 -92 78h-93z" />
    <glyph glyph-name="afii10067.sc" horiz-adv-x="462" 
d="M156 0h-150l113 533h159c73 0 143 -34 143 -110c0 -73 -52 -132 -127 -148c59 -15 90 -53 90 -108c0 -125 -105 -167 -228 -167zM130 251l-42 -198h69c83 0 155 25 155 121c0 64 -75 77 -128 77h-54zM178 480l-38 -179h67c73 0 142 30 142 109c0 49 -46 70 -94 70h-77z
" />
    <glyph glyph-name="afii10068.sc" horiz-adv-x="381" 
d="M6 0l113 533h294l-12 -59h-222l-101 -474h-72z" />
    <glyph glyph-name="afii10069.sc" horiz-adv-x="569" 
d="M-94 -145l44 209h55c77 81 122 189 150 316l34 153h330l-100 -469h78l-45 -209h-66l31 145h-413l-31 -145h-67zM87 64h260l87 410h-191l-26 -122c-24 -111 -62 -213 -130 -288z" />
    <glyph glyph-name="afii10070.sc" horiz-adv-x="416" 
d="M303 0h-297l113 533h292l-14 -57h-218l-37 -174h206l-11 -56h-207l-40 -189h227z" />
    <glyph glyph-name="afii10072.sc" horiz-adv-x="739" 
d="M-59 0l315 289l-170 244h78l167 -247l53 247h70l-52 -246l264 246h90l-280 -256l188 -277h-83l-182 274l-58 -274h-70l57 273l-288 -273h-99z" />
    <glyph glyph-name="afii10073.sc" horiz-adv-x="405" 
d="M118 -11c-71 0 -119 16 -144 29l18 60c31 -21 81 -31 121 -31c86 0 138 37 138 121c0 59 -47 83 -109 83c-12 0 -26 0 -37 -1l12 56c12 -1 27 -1 39 -1c71 0 134 34 134 101c0 63 -43 82 -90 82c-46 0 -94 -9 -126 -23l-2 55c27 11 88 23 139 23c81 0 149 -34 149 -129
c0 -76 -62 -129 -128 -137c55 -11 93 -59 93 -113c0 -120 -96 -175 -207 -175z" />
    <glyph glyph-name="afii10074.sc" horiz-adv-x="558" 
d="M6 0l113 533h72l-92 -435l335 435h89l-114 -533h-73l92 435l-333 -435h-89z" />
    <glyph glyph-name="afii10076.sc" horiz-adv-x="486" 
d="M78 0h-72l113 533h72l-52 -240l271 240h93l-300 -257l209 -276h-86l-192 265z" />
    <glyph glyph-name="afii10078.sc" horiz-adv-x="726" 
d="M74 0h-68l113 533h110l78 -457l270 457h114l-113 -533h-68l101 479l-284 -479h-70l-82 479z" />
    <glyph glyph-name="afii10079.sc" horiz-adv-x="550" 
d="M78 0h-72l113 533h72l-48 -228h252l48 228h72l-113 -533h-72l52 243h-252z" />
    <glyph glyph-name="afii10080.sc" horiz-adv-x="574" 
d="M130 8c-75 38 -103 114 -103 182c0 174 103 353 295 353c146 0 194 -121 194 -206c0 -177 -96 -348 -296 -348c-35 0 -65 6 -90 19zM134 91c21 -25 53 -42 94 -42c147 0 212 155 212 287c0 72 -35 147 -127 147c-141 0 -210 -164 -210 -291c0 -39 11 -74 31 -101z" />
    <glyph glyph-name="afii10081.sc" horiz-adv-x="544" 
d="M78 0h-72l113 533h390l-113 -533h-72l101 474h-246z" />
    <glyph glyph-name="afii10082.sc" horiz-adv-x="441" 
d="M78 0h-72l113 533h163c93 0 141 -64 141 -129c0 -142 -115 -186 -212 -186h-86zM178 476l-43 -203h62c85 0 153 33 153 126c0 43 -32 77 -91 77h-81z" />
    <glyph glyph-name="afii10083.sc" horiz-adv-x="478" 
d="M390 74l-7 -63c-41 -14 -85 -21 -131 -21c-140 0 -225 93 -225 220c0 192 131 333 330 333c56 0 89 -8 128 -21l-23 -63c-29 15 -66 23 -109 23c-155 0 -250 -116 -250 -260c0 -99 52 -172 167 -172c40 0 80 7 120 24z" />
    <glyph glyph-name="afii10084.sc" horiz-adv-x="416" 
d="M170 0h-72l100 471h-160l13 62h394l-13 -62h-162z" />
    <glyph glyph-name="afii10085.sc" horiz-adv-x="485" 
d="M63 -11c-21 0 -46 3 -66 8l18 59c9 -3 24 -7 42 -7c39 0 74 40 115 98l-123 386h76l97 -322l216 322h79l-287 -418c-46 -66 -93 -126 -167 -126z" />
    <glyph glyph-name="afii10086.sc" horiz-adv-x="645" 
d="M211 -11l13 63c-134 18 -200 101 -200 206c0 72 31 136 87 181c49 39 119 62 208 63l10 46h72l-11 -50c150 -17 202 -109 202 -198c0 -69 -27 -131 -76 -176c-50 -46 -124 -74 -220 -74l-13 -61h-72zM236 108l71 338c-145 -3 -209 -86 -209 -189c0 -82 48 -136 138 -149z
M307 105c145 3 210 86 210 194c0 81 -50 133 -138 145z" />
    <glyph glyph-name="afii10087.sc" horiz-adv-x="502" 
d="M23 0h-90l261 283l-127 250h80l96 -212l182 212h89l-239 -258l136 -275h-81l-105 237z" />
    <glyph glyph-name="afii10088.sc" horiz-adv-x="560" 
d="M376 -145l32 145h-402l113 533h73l-101 -474h245l101 474h72l-101 -474h79l-44 -204h-67z" />
    <glyph glyph-name="afii10089.sc" horiz-adv-x="496" 
d="M278 0l45 215c-21 -7 -88 -18 -121 -18c-69 0 -149 10 -149 110c0 16 2 34 6 54l37 172h73l-36 -168c-4 -18 -6 -33 -6 -45c0 -48 28 -64 93 -64c35 0 95 10 115 16l56 261h71l-113 -533h-71z" />
    <glyph glyph-name="afii10090.sc" horiz-adv-x="793" 
d="M6 0l114 533h72l-101 -474h211l101 474h72l-101 -474h211l101 474h72l-113 -533h-639z" />
    <glyph glyph-name="afii10091.sc" horiz-adv-x="809" 
d="M625 -145l32 145h-651l114 533h72l-101 -474h211l101 474h72l-101 -474h211l101 474h72l-101 -474h79l-44 -204h-67z" />
    <glyph glyph-name="afii10092.sc" horiz-adv-x="516" 
d="M73 0l101 475h-136l13 58h207l-46 -215h103c96 0 144 -66 144 -131c0 -142 -116 -187 -214 -187h-172zM157 58h63c91 0 166 20 166 124c0 45 -33 79 -92 79h-94z" />
    <glyph glyph-name="afii10093.sc" horiz-adv-x="654" 
d="M6 0l113 533h72l-46 -215h103c96 0 144 -66 144 -131c0 -142 -116 -187 -214 -187h-172zM90 58h63c91 0 166 20 166 124c0 45 -33 79 -92 79h-93zM434 0l114 533h71l-114 -533h-71z" />
    <glyph glyph-name="afii10094.sc" horiz-adv-x="449" 
d="M6 0l113 533h72l-46 -215h103c96 0 144 -66 144 -131c0 -142 -116 -187 -214 -187h-172zM90 58h63c91 0 166 20 166 124c0 45 -33 79 -92 79h-93z" />
    <glyph glyph-name="afii10095.sc" horiz-adv-x="478" 
d="M91 -10c-57 0 -89 9 -127 21l22 62c27 -16 63 -24 108 -24c131 0 219 83 244 195h-246l12 56h241c0 101 -46 183 -167 183c-41 0 -80 -8 -120 -24v60c43 17 97 24 138 24c141 0 224 -94 224 -226c0 -191 -130 -327 -329 -327z" />
    <glyph glyph-name="afii10096.sc" horiz-adv-x="769" 
d="M419 -11c-140 0 -189 113 -189 201c0 16 1 36 3 53h-103l-52 -243h-72l113 533h72l-48 -227h102c34 129 128 237 276 237c147 0 190 -121 190 -206c0 -176 -94 -348 -292 -348zM426 48c146 0 210 155 210 287c0 74 -32 149 -124 149c-141 0 -207 -165 -207 -292
c0 -77 39 -144 121 -144z" />
    <glyph glyph-name="afii10097.sc" horiz-adv-x="473" 
d="M-61 0l108 153c29 42 61 85 110 93c-57 11 -92 66 -92 122c0 114 97 165 201 165h172l-113 -533h-72l46 219h-39c-78 0 -106 -31 -147 -92l-86 -127h-88zM244 276h69l42 199h-82c-78 0 -137 -38 -137 -100c0 -52 19 -99 108 -99z" />
    <glyph glyph-name="afii10102.sc" horiz-adv-x="396" 
d="M-23 11l21 64c29 -17 72 -27 119 -27c80 0 128 36 128 100c0 39 -23 66 -84 102c-79 45 -111 80 -111 139c0 92 84 154 207 154c39 0 83 -5 116 -20l-20 -60c-28 15 -68 21 -101 21c-80 0 -126 -40 -126 -87c0 -36 19 -58 79 -93c81 -48 116 -84 116 -147
c0 -99 -78 -168 -207 -168c-45 0 -97 6 -137 22z" />
    <glyph glyph-name="afii10098.sc" horiz-adv-x="381" 
d="M6 0l113 533h228l28 134h66l-41 -193h-221l-101 -474h-72z" />
    <glyph glyph-name="afii10193.sc" horiz-adv-x="544" 
d="M137 -145l31 145h-162l114 533h72l-101 -474h245l101 474h72l-113 -533h-161l-31 -145h-67z" />
    <glyph glyph-name="afii10106.sc" horiz-adv-x="770" 
d="M-15 -6c-21 0 -39 2 -53 7l18 63c9 -4 23 -6 39 -6c84 0 120 107 198 475h325c-16 -71 -31 -143 -46 -215h103c95 0 144 -66 144 -130c0 -142 -117 -188 -214 -188h-172c33 158 66 316 100 474h-183c-73 -349 -109 -480 -259 -480zM410 57h63c91 0 167 22 167 126
c0 44 -34 78 -93 78h-93c-14 -68 -29 -136 -44 -204z" />
    <glyph glyph-name="afii10107.sc" horiz-adv-x="759" 
d="M6 0l114 533h72l-48 -221h238l48 221h72l-47 -221h107c92 0 140 -63 140 -127c0 -140 -115 -185 -211 -185h-175l55 253h-239l-54 -253h-72zM402 58h63c89 0 163 21 163 122c0 42 -32 75 -89 75h-95z" />
    <glyph glyph-name="afii10101.sc" horiz-adv-x="478" 
d="M251 -10c-141 0 -224 101 -224 227c0 191 131 326 329 326c57 0 89 -8 128 -21l-22 -62c-28 15 -64 23 -109 23c-127 0 -214 -78 -242 -183h245l-12 -57h-242c-1 -7 -1 -14 -1 -22c0 -98 53 -171 168 -171c41 0 80 8 120 24l-6 -62c-42 -18 -91 -22 -132 -22z" />
    <glyph glyph-name="afii10108.sc" horiz-adv-x="574" 
d="M64 0l100 474h-128l13 59h392l-13 -59h-191l-40 -186c39 46 103 74 161 74c88 0 137 -48 137 -133c0 -18 -3 -36 -7 -57l-35 -172h-74l35 165c4 17 6 33 6 47c0 60 -33 90 -93 90c-75 0 -139 -56 -154 -128c-3 -13 -36 -174 -36 -174h-73z" />
    <glyph glyph-name="afii10099.sc" horiz-adv-x="574" 
d="M299 -9c-41 0 -81 9 -96 15l15 55c14 -6 41 -15 71 -15c99 0 142 73 142 156c0 59 -40 99 -104 99c-71 0 -138 -50 -154 -127l-36 -174h-73l100 474h-127l13 59h392l-13 -59h-192l-39 -186c38 46 102 72 159 72c91 0 149 -65 149 -154c0 -145 -90 -215 -207 -215z" />
    <glyph glyph-name="one.onum" unicode="&#xf05f;" horiz-adv-x="542" 
d="M266 0h-78l101 476h-153l13 64h233z" />
    <glyph glyph-name="zero.onum" unicode="&#xf055;" horiz-adv-x="542" 
d="M216 -11c-125 0 -200 81 -200 214c0 187 107 347 283 347c125 0 200 -81 200 -214c0 -187 -107 -347 -283 -347zM125 97c21 -28 53 -45 96 -45c125 0 199 130 199 275c0 93 -40 161 -123 161c-125 0 -202 -131 -202 -276c0 -47 10 -87 30 -115z" />
    <glyph glyph-name="two.onum" unicode="&#xf06a;" horiz-adv-x="542" 
d="M379 0h-381l13 61l163 114c165 115 198 162 198 228c0 49 -38 82 -97 82c-49 0 -90 -9 -151 -35l4 67c59 24 103 33 160 33c104 0 163 -58 163 -142c0 -90 -53 -155 -221 -270l-110 -76h271z" />
    <glyph glyph-name="three.onum" unicode="&#xf075;" horiz-adv-x="542" 
d="M-26 -159l-3 65c20 -3 35 -3 54 -3c168 0 290 60 290 191c0 76 -58 106 -151 106h-54l12 62h54c80 0 188 28 188 136c0 56 -41 89 -101 89c-50 0 -91 -9 -154 -35l4 66c61 24 106 32 163 32c100 0 166 -55 166 -144c0 -100 -70 -160 -179 -175c92 -9 131 -58 131 -133
c0 -175 -157 -259 -369 -259c-15 0 -32 1 -51 2z" />
    <glyph glyph-name="four.onum" unicode="&#xf080;" horiz-adv-x="542" 
d="M272 0h-294l15 70l359 470h83l-370 -478h220l66 305h73l-65 -305h103l-13 -62h-103l-34 -160h-74z" />
    <glyph glyph-name="five.onum" unicode="&#xf08a;" horiz-adv-x="542" 
d="M9 -159l-3 65c20 -2 38 -3 54 -3c169 0 289 62 289 197c0 65 -47 114 -134 114c-43 0 -80 -5 -139 -17l74 343h339l-13 -63h-268l-45 -211c29 7 53 8 76 8c121 0 189 -66 189 -170c0 -180 -155 -265 -368 -265c-15 0 -32 1 -51 2z" />
    <glyph glyph-name="six.onum" unicode="&#xf094;" horiz-adv-x="542" 
d="M134 84c23 -24 54 -36 91 -36c105 0 184 87 184 201c0 68 -42 118 -117 118c-103 0 -192 -82 -192 -183c0 -42 11 -75 34 -100zM517 698l-8 -65c-21 3 -38 4 -55 4c-172 0 -294 -148 -334 -300c56 64 125 91 192 91c106 0 172 -74 172 -176c0 -144 -113 -263 -262 -263
c-116 0 -194 72 -194 202c0 263 183 509 426 509c15 0 43 -1 63 -2z" />
    <glyph glyph-name="seven.onum" unicode="&#xf09e;" horiz-adv-x="542" 
d="M58 -160h-83v5c130 210 313 463 444 631h-340l14 64h418l-14 -63c-142 -193 -313 -437 -439 -637z" />
    <glyph glyph-name="eight.onum" unicode="&#xf0a8;" horiz-adv-x="542" 
d="M97 113c22 -40 70 -64 128 -64c109 0 178 55 178 143c0 49 -36 102 -128 135c-136 -31 -189 -91 -189 -166c0 -18 4 -34 11 -48zM202 437c17 -22 45 -40 84 -55c119 32 165 86 165 151c0 61 -51 100 -118 100c-90 0 -157 -52 -157 -126c0 -24 9 -47 26 -70zM59 284
c34 33 82 59 144 78c-57 31 -101 81 -101 145c0 107 102 185 236 185c109 0 187 -57 187 -156c0 -88 -64 -154 -171 -187c87 -39 125 -94 125 -159c0 -120 -105 -201 -260 -201c-124 0 -211 62 -211 168c0 51 17 94 51 127z" />
    <glyph glyph-name="nine.onum" unicode="&#xf0b2;" horiz-adv-x="542" 
d="M-3 -159l8 65c21 -2 39 -3 56 -3c181 0 294 143 334 298c-55 -64 -123 -90 -190 -90c-106 0 -175 73 -175 177c0 144 112 262 263 262c114 0 194 -73 194 -203c0 -268 -175 -508 -427 -508c-15 0 -43 1 -63 2zM137 205c21 -22 51 -33 88 -33c103 0 189 78 189 181
c0 84 -49 138 -125 138c-104 0 -183 -87 -183 -201c0 -34 10 -62 31 -85z" />
    <glyph glyph-name="afii61352.sc" unicode="&#xe384;" horiz-adv-x="833" 
d="M6 0l113 533h96l143 -456l97 456h68l-113 -533h-98l-143 455l-96 -455h-67zM494 96l11 52h241l-11 -52h-241zM646 186c-67 0 -110 45 -110 115c0 84 54 169 144 169c68 0 111 -44 111 -113c0 -86 -53 -171 -145 -171zM649 232c56 0 84 74 84 124c0 38 -19 69 -54 69
c-58 0 -86 -73 -86 -127c0 -40 21 -66 56 -66z" />
    <glyph glyph-name="minus.superior" unicode="&#x207b;" 
d="M401 497h-324v49h324v-49z" />
    <glyph glyph-name="n.superior" unicode="&#x207f;" horiz-adv-x="355" 
d="M289 600c0 -12 -2 -32 -5 -45l-43 -189h-62l42 179c2 12 5 30 5 40c0 25 -14 45 -51 45c-57 0 -88 -47 -98 -92l-39 -172h-60l53 236c5 22 9 43 13 69h56l-10 -57c30 41 66 63 115 63c51 0 84 -27 84 -77z" />
    <glyph glyph-name="zero.superior" unicode="&#x2070;" 
d="M168 432c11 -15 26 -23 47 -23c82 0 130 150 130 242c0 49 -22 82 -63 82c-82 0 -130 -149 -130 -242c0 -24 5 -44 16 -59zM209 362c-80 0 -118 54 -118 130c0 117 64 288 197 288c80 0 118 -54 118 -129c0 -119 -64 -289 -197 -289z" />
    <glyph glyph-name="four.superior" unicode="&#x2074;" 
d="M327 715l-190 -208h143zM269 456h-203l12 57l246 261h73l-59 -266h59l-11 -52h-59l-19 -87h-59z" />
    <glyph glyph-name="five.superior" unicode="&#x2075;" 
d="M78 377l11 54c27 -12 58 -18 89 -18c75 0 131 34 131 97c0 47 -41 65 -90 65c-37 0 -73 -9 -97 -16l52 215h236l-12 -50h-177l-27 -112c20 4 36 6 59 6c64 0 122 -31 122 -100c0 -106 -96 -156 -197 -156c-32 0 -69 6 -100 15z" />
    <glyph glyph-name="six.superior" unicode="&#x2076;" 
d="M174 433c12 -15 30 -22 55 -22c60 0 98 49 98 102c0 39 -22 68 -71 68c-59 0 -100 -46 -100 -94c0 -21 6 -39 18 -54zM417 763l-19 -47c-20 11 -48 15 -77 15c-95 0 -137 -76 -153 -149c29 33 69 47 110 47c63 0 110 -48 110 -108c0 -99 -81 -159 -166 -159
c-84 0 -126 60 -126 132c0 125 63 286 227 286c32 0 63 -5 94 -17z" />
    <glyph glyph-name="seven.superior" unicode="&#x2077;" 
d="M170 369h-77l250 353h-220l12 52h287l-13 -53z" />
    <glyph glyph-name="eight.superior" unicode="&#x2078;" 
d="M297 531c-15 11 -31 21 -49 28c-54 -14 -107 -37 -107 -91c0 -39 38 -58 77 -58c57 0 102 30 102 82c0 15 -8 28 -23 39zM214 625c13 -11 27 -20 42 -26c49 15 95 42 95 85c0 31 -32 50 -67 50c-53 0 -89 -27 -89 -68c0 -15 6 -29 19 -41zM147 564c13 7 28 12 43 16
c-31 17 -55 41 -55 80c0 80 72 120 157 120c55 0 122 -26 122 -88c0 -61 -49 -95 -101 -113c39 -17 69 -44 69 -87c0 -97 -89 -130 -173 -130c-58 0 -131 26 -131 96c0 51 29 86 69 106z" />
    <glyph glyph-name="nine.superior" unicode="&#x2079;" 
d="M187 580c11 -13 29 -19 54 -19c58 0 100 46 100 94c0 43 -25 76 -74 76c-60 0 -97 -49 -97 -102c0 -19 6 -36 17 -49zM79 380l19 47c21 -11 47 -16 78 -16c95 0 137 77 153 150c-29 -35 -68 -48 -111 -48c-64 0 -109 47 -109 108c0 99 79 159 165 159
c84 0 126 -60 126 -132c0 -125 -63 -286 -226 -286c-33 0 -64 5 -95 18z" />
    <glyph glyph-name="equal.superior" unicode="&#x207c;" 
d="M408 438h-323v48h323v-48zM408 556h-323v49h323v-49z" />
    <glyph glyph-name="parenleft.superior" unicode="&#x207d;" horiz-adv-x="190" 
d="M174 295h-49c-24 59 -44 122 -44 185c0 131 72 232 152 325h49c-73 -97 -146 -198 -146 -325c0 -68 18 -125 38 -185z" />
    <glyph glyph-name="parenright.superior" unicode="&#x207e;" horiz-adv-x="190" 
d="M45 295h-49c73 94 146 197 146 325c0 67 -18 125 -38 185h48c25 -60 45 -122 45 -186c0 -130 -72 -233 -152 -324z" />
    <glyph glyph-name="plus.superior" unicode="&#x207a;" 
d="M216 497h-137v49h137v126h50v-126h137v-49h-137v-125h-50v125z" />
    <glyph glyph-name="a.superior" unicode="&#xe5ed;" horiz-adv-x="363" 
d="M197 366c0 17 4 47 11 78c-30 -48 -74 -85 -131 -85c-56 0 -87 39 -87 98c0 118 98 220 227 220c35 0 62 -4 95 -13l-38 -165c-13 -57 -19 -105 -19 -133h-58zM242 625c-11 4 -23 5 -36 5c-86 0 -155 -86 -155 -166c0 -34 15 -58 51 -58c46 0 106 65 120 130z" />
    <glyph glyph-name="b.superior" unicode="&#xe5f6;" horiz-adv-x="362" 
d="M136 804l-47 -206c29 44 66 79 121 79c57 0 88 -41 88 -99c0 -117 -79 -219 -201 -219c-37 0 -79 6 -117 15l96 430h60zM48 410c18 -3 36 -4 51 -4c86 0 136 83 136 166c0 33 -16 58 -51 58c-47 0 -100 -61 -116 -130z" />
    <glyph glyph-name="c.superior" unicode="&#xe600;" horiz-adv-x="300" 
d="M267 665l-13 -48c-18 9 -41 13 -64 13c-83 0 -133 -76 -133 -144c0 -46 25 -80 81 -80c25 0 44 4 71 12l-8 -49c-24 -7 -52 -10 -81 -10c-79 0 -127 46 -127 115c0 111 77 203 196 203c24 0 54 -4 78 -12z" />
    <glyph glyph-name="d.superior" unicode="&#xe60a;" horiz-adv-x="369" 
d="M253 671l29 133h61l-69 -304c-13 -57 -19 -106 -19 -134h-58c1 17 5 46 11 78c-32 -48 -74 -85 -131 -85c-56 0 -87 39 -87 98c0 118 97 220 219 220c14 0 31 -2 44 -6zM242 626c-12 3 -27 4 -38 4c-86 0 -153 -86 -153 -166c0 -34 15 -58 52 -58c46 0 105 65 119 130z
" />
    <glyph glyph-name="e.superior" unicode="&#xe614;" horiz-adv-x="328" 
d="M280 606c0 -97 -139 -107 -224 -107c-5 -11 -6 -24 -6 -35c0 -42 30 -62 74 -62c31 0 68 9 90 22v-45c-31 -13 -69 -20 -106 -20c-65 0 -119 30 -119 101c0 111 90 216 195 216c49 0 96 -17 96 -70zM225 602c0 20 -16 33 -47 33c-55 0 -97 -56 -113 -97
c65 0 160 8 160 64z" />
    <glyph glyph-name="f.superior" unicode="&#xe61d;" horiz-adv-x="209" 
d="M234 802l-13 -44c-7 2 -17 4 -26 4c-38 0 -54 -36 -60 -64l-6 -29h68l-9 -46h-70l-61 -271c-13 -55 -42 -123 -111 -123c-15 0 -30 1 -47 4l12 46c7 -1 15 -2 24 -2c41 0 55 45 63 80l59 266h-59l11 46h59l8 35c12 55 42 105 113 105c14 0 29 -2 45 -7z" />
    <glyph glyph-name="g.superior" unicode="&#xe627;" horiz-adv-x="366" 
d="M191 378l13 57c-36 -45 -75 -69 -123 -69c-57 0 -89 38 -89 96c0 115 99 215 227 215c35 0 62 -4 95 -13l-61 -268c-24 -107 -72 -167 -197 -167c-39 0 -71 6 -99 15l16 50c25 -12 54 -18 85 -18c80 0 120 42 133 102zM245 626c-11 3 -23 4 -37 4
c-85 0 -155 -84 -155 -163c0 -32 15 -57 53 -57c46 0 104 58 119 126z" />
    <glyph glyph-name="h.superior" unicode="&#xe631;" horiz-adv-x="356" 
d="M289 603c0 -17 -1 -28 -6 -50l-42 -187h-62l42 183c3 12 5 26 5 36c0 25 -16 45 -51 45c-58 0 -88 -48 -99 -96l-38 -168h-60l98 438h60l-42 -185c33 39 68 58 112 58c48 0 83 -26 83 -74z" />
    <glyph glyph-name="i.superior" unicode="&#x2071;" horiz-adv-x="158" 
d="M133 792l-14 -60h-62l14 60h62zM107 671l-68 -305h-60l67 305h61z" />
    <glyph glyph-name="j.superior" unicode="&#xe644;" horiz-adv-x="162" 
d="M136 792l-14 -60h-61l13 60h62zM110 671l-77 -348c-12 -53 -38 -94 -98 -94c-16 0 -31 1 -46 5l13 45c4 -1 11 -2 19 -2c33 0 47 28 53 53l74 341h62z" />
    <glyph glyph-name="k.superior" unicode="&#xe64e;" horiz-adv-x="318" 
d="M305 671l-164 -138l108 -167h-73l-101 164l-37 -164h-60l98 438h60l-59 -263l152 130h76z" />
    <glyph glyph-name="l.superior" unicode="&#xe658;" horiz-adv-x="165" 
d="M137 804l-98 -438h-60l97 438h61z" />
    <glyph glyph-name="m.superior" unicode="&#xe662;" horiz-adv-x="536" 
d="M469 602c0 -12 -2 -23 -4 -33l-45 -203h-60l44 199c2 9 3 18 3 26c0 26 -16 39 -47 39c-52 0 -84 -51 -93 -93l-38 -171h-60l43 199c2 9 3 18 3 26c0 27 -15 39 -47 39c-51 0 -82 -51 -92 -93l-38 -171h-60l52 238c4 20 9 41 13 67h56l-10 -56c33 41 69 62 114 62
c38 0 70 -23 72 -67c27 36 65 67 114 67c47 0 80 -25 80 -75z" />
    <glyph glyph-name="o.superior" unicode="&#xe675;" horiz-adv-x="370" 
d="M-8 473c0 108 77 204 191 204c76 0 123 -45 123 -114c0 -109 -77 -204 -191 -204c-77 0 -123 44 -123 114zM243 556c0 48 -25 73 -71 73c-70 0 -118 -84 -118 -150c0 -43 23 -72 66 -72c73 0 123 79 123 149z" />
    <glyph glyph-name="p.superior" unicode="&#xe67e;" horiz-adv-x="362" 
d="M97 359c-22 0 -41 2 -59 7l-28 -131h-61l74 333c9 38 16 73 20 103h58l-16 -77c30 44 65 83 125 83c57 0 88 -41 88 -99c0 -117 -78 -219 -201 -219zM48 410c16 -3 36 -4 51 -4c86 0 136 83 136 166c0 33 -15 58 -51 58c-47 0 -100 -61 -116 -130z" />
    <glyph glyph-name="q.superior" unicode="&#xe688;" horiz-adv-x="363" 
d="M154 235l45 196c-35 -43 -73 -72 -122 -72c-56 0 -87 39 -87 98c0 118 98 220 227 220c35 0 62 -4 95 -13l-98 -429h-60zM243 626c-13 3 -24 4 -37 4c-86 0 -155 -86 -155 -166c0 -34 15 -58 52 -58c46 0 104 65 119 130z" />
    <glyph glyph-name="r.superior" unicode="&#xe692;" horiz-adv-x="231" 
d="M214 675l-16 -59c-4 1 -12 2 -22 2c-63 0 -94 -60 -105 -109l-32 -143h-61l53 236c5 23 10 43 13 69h56l-12 -64c23 35 60 70 103 70c7 0 15 0 23 -2z" />
    <glyph glyph-name="s.superior" unicode="&#xe69c;" horiz-adv-x="273" 
d="M225 664l-14 -45c-20 9 -45 15 -71 15c-28 0 -71 -10 -71 -44c0 -18 18 -29 50 -47c44 -24 76 -42 76 -86c0 -73 -75 -98 -138 -98c-29 0 -62 5 -91 14l16 47c21 -12 47 -18 76 -18c30 0 76 10 76 48c0 23 -22 35 -54 53c-42 23 -68 38 -68 85c0 64 73 89 130 89
c26 0 58 -5 83 -13z" />
    <glyph glyph-name="t.superior" unicode="&#xe6a6;" horiz-adv-x="221" 
d="M196 671l-11 -47h-71l-36 -160c-3 -12 -4 -21 -4 -31c0 -20 13 -25 32 -25c14 0 25 3 35 6l-6 -47c-15 -4 -34 -8 -56 -8c-36 0 -67 17 -67 59c0 16 2 30 6 47l35 159h-59l12 47h58l15 65l64 19l-18 -84h71z" />
    <glyph glyph-name="u.superior" unicode="&#xe6b0;" horiz-adv-x="354" 
d="M303 671l-52 -236c-5 -22 -10 -46 -13 -69h-55l10 57c-31 -36 -62 -64 -115 -64c-50 0 -84 28 -84 78c0 11 2 24 4 35l44 199h61l-42 -183c-3 -15 -5 -28 -5 -36c0 -25 15 -46 53 -46c54 0 85 49 95 94l39 171h60z" />
    <glyph glyph-name="v.superior" unicode="&#xe6ba;" horiz-adv-x="304" 
d="M288 671l-167 -305h-80l-37 305h63l22 -263l135 263h64z" />
    <glyph glyph-name="w.superior" unicode="&#xe6c4;" horiz-adv-x="509" 
d="M489 671l-158 -305h-73l-20 258l-130 -258h-72l-31 305h62l17 -261l130 261h70l19 -262l129 262h57z" />
    <glyph glyph-name="x.superior" unicode="&#xe6ce;" horiz-adv-x="314" 
d="M291 671l-132 -149l74 -156h-68l-47 130l-108 -130h-68l146 163l-68 142h65l47 -119l90 119h69z" />
    <glyph glyph-name="y.superior" unicode="&#xe6d7;" horiz-adv-x="306" 
d="M290 671l-196 -351c-28 -50 -65 -90 -120 -90c-15 0 -27 1 -45 5l14 47c7 -2 18 -5 27 -5c25 0 45 16 62 45l21 37l-47 312h64l26 -259l132 259h62z" />
    <glyph glyph-name="z.superior" unicode="&#xe6e1;" horiz-adv-x="291" 
d="M264 671l-13 -53l-211 -205h168l-13 -47h-239l13 51l212 207h-161l11 47h233z" />
    <glyph glyph-name="onesuperior" unicode="&#xb9;" 
d="M255 369h-63l75 336l-95 -60l-27 47l145 82h54z" />
    <glyph glyph-name="twosuperior" unicode="&#xb2;" 
d="M335 369h-275l12 52l141 110c75 59 117 97 117 142c0 31 -30 56 -74 56c-45 0 -74 -11 -105 -26l6 53c31 15 72 24 115 24c71 0 122 -36 122 -97c0 -72 -54 -122 -138 -186l-100 -77h191z" />
    <glyph glyph-name="threesuperior" unicode="&#xb3;" 
d="M57 378l14 52c27 -12 67 -17 98 -17c68 0 126 27 126 87c0 40 -49 55 -97 55h-48l11 49h46c56 0 121 17 121 73c0 36 -38 54 -85 54c-39 0 -67 -7 -98 -19l8 51c27 9 60 17 108 17c64 0 130 -28 130 -94c0 -60 -44 -95 -95 -108c39 -9 62 -41 62 -77
c0 -99 -103 -139 -191 -139c-35 0 -75 4 -110 16z" />
    <glyph glyph-name="parenleft.denominator" unicode="&#xef45;" horiz-adv-x="190" 
d="M206 436c-73 -95 -146 -199 -146 -325c0 -67 18 -126 38 -185h-49c-24 58 -44 123 -44 185c0 132 72 232 152 325h49z" />
    <glyph glyph-name="parenright.denominator" unicode="&#xef4b;" horiz-adv-x="190" 
d="M-80 -74c73 94 146 198 146 325c0 66 -18 125 -38 185h48c25 -59 45 -123 45 -186c0 -131 -72 -232 -152 -324h-49z" />
    <glyph glyph-name="plus.denominator" 
d="M327 128h-137v-125h-50v125h-137v49h137v126h50v-126h137v-49z" />
    <glyph glyph-name="zero.denominator" unicode="&#xf05a;" 
d="M330 282c0 -119 -63 -289 -197 -289c-80 0 -118 55 -118 130c0 118 64 288 197 288c80 0 118 -55 118 -129zM269 282c0 49 -22 82 -63 82c-82 0 -130 -149 -130 -242c0 -48 22 -82 63 -82c82 0 130 150 130 242z" />
    <glyph glyph-name="one.denominator" unicode="&#xf065;" 
d="M268 405l-89 -405h-63l75 336l-95 -60l-27 47l145 82h54z" />
    <glyph glyph-name="two.denominator" unicode="&#xf070;" 
d="M318 314c0 -72 -54 -122 -138 -186l-100 -77h191l-12 -51h-275l12 52l141 110c74 58 117 97 117 142c0 31 -30 56 -74 56c-45 0 -74 -12 -105 -26l6 53c31 15 72 24 115 24c70 0 122 -36 122 -97z" />
    <glyph glyph-name="three.denominator" unicode="&#xf07b;" 
d="M315 317c0 -60 -45 -95 -95 -108c38 -9 62 -41 62 -77c0 -99 -102 -139 -191 -139c-35 0 -76 4 -110 16l14 52c27 -12 67 -17 98 -17c68 0 126 27 126 87c0 41 -48 55 -97 55h-48l11 49h46c55 0 121 17 121 73c0 36 -38 54 -85 54c-39 0 -67 -7 -98 -19l8 51
c27 9 60 17 108 17c64 0 130 -28 130 -94z" />
    <glyph glyph-name="four.denominator" unicode="&#xf085;" 
d="M321 139l-11 -52h-59l-19 -87h-59l20 87h-203l12 57l246 261h73l-59 -266h59zM251 346l-190 -208h143z" />
    <glyph glyph-name="five.denominator" unicode="&#xf08f;" 
d="M334 405l-12 -50h-177l-27 -112c20 4 36 6 59 6c64 0 122 -31 122 -100c0 -106 -95 -156 -197 -156c-32 0 -70 6 -100 15l11 54c26 -12 59 -18 89 -18c74 0 131 34 131 97c0 47 -41 65 -90 65c-37 0 -73 -9 -97 -16l52 215h236z" />
    <glyph glyph-name="six.denominator" unicode="&#xf099;" 
d="M341 394l-19 -47c-20 10 -48 15 -77 15c-95 0 -136 -76 -153 -149c29 33 69 47 110 47c63 0 110 -47 110 -108c0 -99 -80 -159 -166 -159c-84 0 -126 59 -126 132c0 126 63 286 227 286c32 0 64 -5 94 -17zM251 144c0 38 -22 68 -71 68c-59 0 -100 -46 -100 -94
c0 -41 24 -76 73 -76c60 0 98 49 98 102z" />
    <glyph glyph-name="seven.denominator" unicode="&#xf0a3;" 
d="M346 405l-13 -53l-239 -352h-77l250 353h-220l12 52h287z" />
    <glyph glyph-name="eight.denominator" unicode="&#xf0ad;" 
d="M338 323c0 -61 -48 -94 -101 -113c39 -17 69 -44 69 -87c0 -97 -89 -130 -173 -130c-58 0 -131 26 -131 96s52 105 112 122c-30 17 -55 42 -55 80c0 79 72 120 157 120c55 0 122 -26 122 -88zM275 315c0 31 -33 50 -67 50c-53 0 -89 -27 -89 -68c0 -31 32 -55 61 -67
c49 15 95 42 95 85zM244 123c0 31 -36 53 -72 67c-54 -13 -107 -37 -107 -91c0 -39 38 -58 77 -58c57 0 102 30 102 82z" />
    <glyph glyph-name="nine.denominator" unicode="&#xf0b7;" 
d="M324 279c0 -126 -62 -286 -226 -286c-33 0 -65 5 -95 18l19 47c20 -10 49 -16 78 -16c95 0 136 77 153 150c-29 -34 -69 -48 -111 -48c-63 0 -109 47 -109 108c0 99 79 159 165 159c84 0 126 -59 126 -132zM265 286c0 42 -25 76 -74 76c-60 0 -97 -48 -97 -102
c0 -38 22 -68 71 -68c58 0 100 46 100 94z" />
    <glyph glyph-name="less.denominator" 
d="M330 5l-322 122v51l322 121v-52l-262 -95l262 -94v-53z" />
    <glyph glyph-name="equal.denominator" 
d="M332 187h-323v49h323v-49zM332 69h-323v48h323v-48z" />
    <glyph glyph-name="greater.denominator" 
d="M338 126l-322 -120v52l262 94l-262 95v53l322 -123v-51z" />
    <glyph glyph-name="minus.denominator" 
d="M325 128h-324v49h324v-49z" />
    <glyph glyph-name="plusminus.denominator" 
d="M330 164h-135v-99h-50v99h-135v48h135v101h50v-101h135v-48zM330 -9h-320v48h320v-48z" />
    <glyph glyph-name="multiply.denominator" 
d="M323 41l-35 -34l-118 111l-118 -110l-35 33l117 111l-118 111l35 35l119 -112l119 112l34 -34l-117 -111z" />
    <glyph glyph-name="divide.denominator" 
d="M203 263c0 -21 -16 -36 -38 -36c-23 0 -38 14 -38 36c0 20 15 36 38 36s38 -15 38 -36zM327 128h-324v49h324v-49zM203 41c0 -20 -16 -36 -38 -36c-23 0 -38 15 -38 36s15 37 38 37s38 -16 38 -37z" />
    <glyph glyph-name="notequal.denominator" 
d="M332 68h-182l-48 -87l-44 21l38 66h-88v49h113l40 71h-153v49h179l50 89l42 -21l-38 -68h91v-49h-116l-40 -71h156v-49z" />
    <glyph glyph-name="approxequal.denominator" 
d="M331 144c-3 -44 -30 -94 -83 -94c-57 0 -121 41 -173 41c-27 0 -43 -21 -47 -44h-35c6 44 27 94 83 94c57 0 120 -41 173 -41c29 0 42 20 47 44h35zM331 256c-3 -43 -30 -93 -83 -93c-57 0 -121 41 -173 41c-27 0 -43 -21 -47 -44h-35c6 44 27 94 83 94
c57 0 120 -41 173 -41c29 0 42 20 47 43h35z" />
    <glyph glyph-name="lessequal.denominator" 
d="M333 53l-324 111v49l324 108v-52l-255 -80l255 -85v-51zM333 -16h-324v47h324v-47z" />
    <glyph glyph-name="greaterequal.denominator" 
d="M332 164l-324 -111v51l254 85l-254 80v52l324 -108v-49zM332 -16h-324v47h324v-47z" />
    <glyph glyph-name="parenleft.numerator" horiz-adv-x="190" 
d="M206 702c-73 -95 -146 -199 -146 -325c0 -67 18 -126 38 -185h-49c-24 58 -44 123 -44 185c0 132 72 232 152 325h49z" />
    <glyph glyph-name="parenright.numerator" horiz-adv-x="190" 
d="M-80 192c73 94 146 198 146 325c0 66 -18 125 -38 185h48c25 -59 45 -123 45 -186c0 -131 -72 -232 -152 -324h-49z" />
    <glyph glyph-name="plus.numerator" 
d="M327 394h-137v-125h-50v125h-137v49h137v126h50v-126h137v-49z" />
    <glyph glyph-name="zero.numerator" 
d="M330 548c0 -119 -63 -289 -197 -289c-80 0 -118 55 -118 130c0 118 64 288 197 288c80 0 118 -55 118 -129zM269 548c0 49 -22 82 -63 82c-82 0 -130 -149 -130 -242c0 -48 22 -82 63 -82c82 0 130 150 130 242z" />
    <glyph glyph-name="one.numerator" 
d="M268 671l-89 -405h-63l75 336l-95 -60l-27 47l145 82h54z" />
    <glyph glyph-name="two.numerator" 
d="M318 580c0 -72 -54 -122 -138 -186l-100 -77h191l-12 -51h-275l12 52l141 110c74 58 117 97 117 142c0 31 -30 56 -74 56c-45 0 -74 -12 -105 -26l6 53c31 15 72 24 115 24c70 0 122 -36 122 -97z" />
    <glyph glyph-name="three.numerator" 
d="M315 583c0 -60 -45 -95 -95 -108c38 -9 62 -41 62 -77c0 -99 -102 -139 -191 -139c-35 0 -76 4 -110 16l14 52c27 -12 67 -17 98 -17c68 0 126 27 126 87c0 41 -48 55 -97 55h-48l11 49h46c55 0 121 17 121 73c0 36 -38 54 -85 54c-39 0 -67 -7 -98 -19l8 51
c27 9 60 17 108 17c64 0 130 -28 130 -94z" />
    <glyph glyph-name="four.numerator" 
d="M321 405l-11 -52h-59l-19 -87h-59l20 87h-203l12 57l246 261h73l-59 -266h59zM251 612l-190 -208h143z" />
    <glyph glyph-name="five.numerator" 
d="M334 671l-12 -50h-177l-27 -112c20 4 36 6 59 6c64 0 122 -31 122 -100c0 -106 -95 -156 -197 -156c-32 0 -70 6 -100 15l11 54c26 -12 59 -18 89 -18c74 0 131 34 131 97c0 47 -41 65 -90 65c-37 0 -73 -9 -97 -16l52 215h236z" />
    <glyph glyph-name="six.numerator" 
d="M341 660l-19 -47c-20 10 -48 15 -77 15c-95 0 -136 -76 -153 -149c29 33 69 47 110 47c63 0 110 -47 110 -108c0 -99 -80 -159 -166 -159c-84 0 -126 59 -126 132c0 126 63 286 227 286c32 0 64 -5 94 -17zM251 410c0 38 -22 68 -71 68c-59 0 -100 -46 -100 -94
c0 -41 24 -76 73 -76c60 0 98 49 98 102z" />
    <glyph glyph-name="seven.numerator" 
d="M346 671l-13 -53l-239 -352h-77l250 353h-220l12 52h287z" />
    <glyph glyph-name="eight.numerator" 
d="M338 589c0 -61 -48 -94 -101 -113c39 -17 69 -44 69 -87c0 -97 -89 -130 -173 -130c-58 0 -131 26 -131 96s52 105 112 122c-30 17 -55 42 -55 80c0 79 72 120 157 120c55 0 122 -26 122 -88zM275 581c0 31 -33 50 -67 50c-53 0 -89 -27 -89 -68c0 -31 32 -55 61 -67
c49 15 95 42 95 85zM244 389c0 31 -36 53 -72 67c-54 -13 -107 -37 -107 -91c0 -39 38 -58 77 -58c57 0 102 30 102 82z" />
    <glyph glyph-name="nine.numerator" 
d="M324 545c0 -126 -62 -286 -226 -286c-33 0 -65 5 -95 18l19 47c20 -10 49 -16 78 -16c95 0 136 77 153 150c-29 -34 -69 -48 -111 -48c-63 0 -109 47 -109 108c0 99 79 159 165 159c84 0 126 -59 126 -132zM265 552c0 42 -25 76 -74 76c-60 0 -97 -48 -97 -102
c0 -38 22 -68 71 -68c58 0 100 46 100 94z" />
    <glyph glyph-name="less.numerator" 
d="M330 271l-322 122v51l322 121v-52l-262 -95l262 -94v-53z" />
    <glyph glyph-name="equal.numerator" 
d="M332 453h-323v49h323v-49zM332 335h-323v48h323v-48z" />
    <glyph glyph-name="greater.numerator" 
d="M338 392l-322 -120v52l262 94l-262 95v53l322 -123v-51z" />
    <glyph glyph-name="minus.numerator" 
d="M325 394h-324v49h324v-49z" />
    <glyph glyph-name="plusminus.numerator" 
d="M330 430h-135v-99h-50v99h-135v48h135v101h50v-101h135v-48zM330 257h-320v48h320v-48z" />
    <glyph glyph-name="multiply.numerator" 
d="M323 307l-35 -34l-118 111l-118 -110l-35 33l117 111l-118 111l35 35l119 -112l119 112l34 -34l-117 -111z" />
    <glyph glyph-name="divide.numerator" 
d="M203 529c0 -21 -16 -36 -38 -36c-23 0 -38 14 -38 36c0 20 15 36 38 36s38 -15 38 -36zM327 394h-324v49h324v-49zM203 307c0 -20 -16 -36 -38 -36c-23 0 -38 15 -38 36s15 37 38 37s38 -16 38 -37z" />
    <glyph glyph-name="notequal.numerator" 
d="M332 334h-182l-48 -87l-44 21l38 66h-88v49h113l40 71h-153v49h179l50 89l42 -21l-38 -68h91v-49h-116l-40 -71h156v-49z" />
    <glyph glyph-name="approxequal.numerator" 
d="M331 410c-3 -44 -30 -94 -83 -94c-57 0 -121 41 -173 41c-27 0 -43 -21 -47 -44h-35c6 44 27 94 83 94c57 0 120 -41 173 -41c29 0 42 20 47 44h35zM331 522c-3 -43 -30 -93 -83 -93c-57 0 -121 41 -173 41c-27 0 -43 -21 -47 -44h-35c6 44 27 94 83 94
c57 0 120 -41 173 -41c29 0 42 20 47 43h35z" />
    <glyph glyph-name="lessequal.numerator" 
d="M333 319l-324 111v49l324 108v-52l-255 -80l255 -85v-51zM333 250h-324v47h324v-47z" />
    <glyph glyph-name="greaterequal.numerator" 
d="M332 430l-324 -111v51l254 85l-254 80v52l324 -108v-49zM332 250h-324v47h324v-47z" />
    <glyph glyph-name="zero.onumprop" unicode="&#xf056;" horiz-adv-x="621" 
d="M161 5c-84 34 -130 106 -130 206c0 180 129 339 307 339c146 0 227 -90 227 -222c0 -184 -129 -339 -307 -339c-37 0 -69 5 -97 16zM149 97c27 -28 65 -45 113 -45c128 0 224 129 224 273c0 96 -56 163 -152 163c-128 0 -224 -130 -224 -274c0 -48 14 -88 39 -117z" />
    <glyph glyph-name="one.onumprop" unicode="&#xf060;" horiz-adv-x="364" 
d="M185 0h-78l101 476h-153l13 64h233z" />
    <glyph glyph-name="two.onumprop" unicode="&#xf06b;" horiz-adv-x="458" 
d="M340 0h-381l13 61l163 114c165 115 198 162 198 228c0 49 -38 82 -97 82c-49 0 -90 -9 -151 -35l4 67c59 24 103 33 160 33c104 0 163 -58 163 -142c0 -90 -53 -155 -221 -270l-110 -76h271z" />
    <glyph glyph-name="three.onumprop" unicode="&#xf076;" horiz-adv-x="443" 
d="M-70 -159l-3 65c20 -3 35 -3 54 -3c168 0 290 60 290 191c0 76 -58 106 -151 106h-54l12 62h54c80 0 188 28 188 136c0 56 -41 89 -101 89c-50 0 -91 -9 -154 -35l4 66c61 24 106 32 163 32c100 0 166 -55 166 -144c0 -100 -70 -160 -179 -175c92 -9 131 -58 131 -133
c0 -175 -157 -259 -369 -259c-15 0 -32 1 -51 2z" />
    <glyph glyph-name="four.onumprop" unicode="&#xf081;" horiz-adv-x="528" 
d="M262 0h-294l15 70l359 470h83l-370 -478h220l66 305h73l-65 -305h103l-13 -62h-103l-34 -160h-74z" />
    <glyph glyph-name="five.onumprop" unicode="&#xf08b;" horiz-adv-x="501" 
d="M-15 -159l-3 65c20 -2 38 -3 54 -3c169 0 289 62 289 197c0 65 -47 114 -134 114c-43 0 -80 -5 -139 -17l74 343h339l-13 -63h-268l-45 -211c29 7 53 8 76 8c121 0 189 -66 189 -170c0 -180 -155 -265 -368 -265c-15 0 -32 1 -51 2z" />
    <glyph glyph-name="six.onumprop" unicode="&#xf095;" horiz-adv-x="554" 
d="M139 84c23 -24 54 -36 91 -36c105 0 184 87 184 201c0 68 -42 118 -117 118c-103 0 -192 -82 -192 -183c0 -42 11 -75 34 -100zM522 698l-8 -65c-21 3 -38 4 -55 4c-172 0 -294 -148 -334 -300c56 64 125 91 192 91c106 0 172 -74 172 -176c0 -144 -113 -263 -262 -263
c-116 0 -194 72 -194 202c0 263 183 509 426 509c15 0 43 -1 63 -2z" />
    <glyph glyph-name="seven.onumprop" unicode="&#xf09f;" horiz-adv-x="501" 
d="M42 -160h-83v5c130 210 313 463 444 631h-340l14 64h418l-14 -63c-142 -193 -313 -437 -439 -637z" />
    <glyph glyph-name="eight.onumprop" unicode="&#xf0a9;" horiz-adv-x="559" 
d="M101 113c22 -40 70 -64 128 -64c109 0 178 55 178 143c0 49 -36 102 -128 135c-136 -31 -189 -91 -189 -166c0 -18 4 -34 11 -48zM206 437c17 -22 45 -40 84 -55c119 32 165 86 165 151c0 61 -51 100 -118 100c-90 0 -157 -52 -157 -126c0 -24 9 -47 26 -70zM63 284
c34 33 82 59 144 78c-57 31 -101 81 -101 145c0 107 102 185 236 185c109 0 187 -57 187 -156c0 -88 -64 -154 -171 -187c87 -39 125 -94 125 -159c0 -120 -105 -201 -260 -201c-124 0 -211 62 -211 168c0 51 17 94 51 127z" />
    <glyph glyph-name="nine.onumprop" unicode="&#xf0b3;" horiz-adv-x="555" 
d="M5 -159l8 65c21 -2 39 -3 56 -3c181 0 294 143 334 298c-55 -64 -123 -90 -190 -90c-106 0 -175 73 -175 177c0 144 112 262 263 262c114 0 194 -73 194 -203c0 -268 -175 -508 -427 -508c-15 0 -43 1 -63 2zM145 205c21 -22 51 -33 88 -33c103 0 189 78 189 181
c0 84 -49 138 -125 138c-104 0 -183 -87 -183 -201c0 -34 10 -62 31 -85z" />
    <glyph glyph-name="afii10029" unicode="&#x41b;" horiz-adv-x="655" 
d="M10 -7c-25 0 -61 3 -80 13l18 61c16 -7 37 -9 54 -9c104 0 152 171 245 609h391l-142 -667h-77l128 603h-237c-95 -442 -137 -610 -300 -610z" />
    <glyph glyph-name="afii10017" unicode="&#x410;" horiz-adv-x="618" 
d="M374 603l-212 -358h272zM19 0h-81l402 667h93l120 -667h-80l-30 182h-316z" />
    <glyph glyph-name="afii10018" unicode="&#x411;" horiz-adv-x="531" 
d="M16 0l142 667h351l-13 -63h-273l-45 -208h97c125 0 196 -74 196 -165c0 -138 -90 -231 -283 -231h-172zM107 62h93c107 0 192 51 192 166c0 66 -53 106 -137 106h-90z" />
    <glyph glyph-name="afii10019" unicode="&#x412;" horiz-adv-x="531" 
d="M160 317l-54 -257h70c105 0 207 29 207 157c0 86 -96 100 -164 100h-59zM221 607l-48 -230h74c96 0 183 37 183 145c0 65 -66 85 -119 85h-90zM173 0h-157l142 667h174c89 0 177 -41 177 -137c0 -93 -60 -166 -159 -183c76 -19 112 -66 112 -134
c0 -167 -153 -213 -289 -213z" />
    <glyph glyph-name="afii10020" unicode="&#x413;" horiz-adv-x="434" 
d="M16 0l142 667h349l-15 -66h-270l-128 -601h-78z" />
    <glyph glyph-name="afii10021" unicode="&#x414;" horiz-adv-x="666" 
d="M-92 -171l50 235h49c70 45 155 212 196 404l42 199h384l-128 -603h88l-50 -235h-74l37 171h-484l-37 -171h-73zM102 64h321l115 539h-232l-34 -158c-42 -195 -109 -322 -170 -381z" />
    <glyph glyph-name="afii10022" unicode="&#x415;" horiz-adv-x="489" 
d="M365 0h-349l142 667h339l-14 -63h-260l-50 -231h248l-14 -62h-246l-54 -248h272z" />
    <glyph glyph-name="afii10024" unicode="&#x416;" horiz-adv-x="851" 
d="M-71 0l391 359l-214 308h89l207 -309l65 309h77l-66 -310l332 310h98l-352 -321l241 -346h-91l-231 344l-73 -344h-77l74 344l-367 -344h-103z" />
    <glyph glyph-name="afii10025" unicode="&#x417;" horiz-adv-x="472" 
d="M143 -11c-82 0 -144 19 -176 36l17 68c42 -27 108 -41 157 -41c105 0 177 52 177 157c0 74 -66 110 -143 110c-11 0 -35 0 -45 -1l13 65c10 -1 31 -1 48 -1c93 0 176 45 176 127c0 81 -60 106 -119 106c-56 0 -114 -11 -154 -28l-3 63c36 12 101 27 164 27
c100 0 189 -43 189 -160c0 -93 -80 -160 -161 -170c67 -14 115 -75 115 -142c0 -148 -114 -216 -255 -216z" />
    <glyph glyph-name="afii10026" unicode="&#x418;" horiz-adv-x="651" 
d="M16 0l142 667h76l-121 -567l426 567h96l-141 -667h-75l119 566l-426 -566h-96z" />
    <glyph glyph-name="afii10028" unicode="&#x41a;" horiz-adv-x="561" 
d="M93 0h-77l142 667h77l-64 -301l344 301h103l-378 -320l256 -347h-95l-236 335z" />
    <glyph glyph-name="afii10030" unicode="&#x41c;" horiz-adv-x="863" 
d="M90 0h-74l142 667h121l100 -579l348 579h120l-142 -667h-76l130 603l-361 -603h-77l-104 604z" />
    <glyph glyph-name="afii10031" unicode="&#x41d;" horiz-adv-x="648" 
d="M94 0h-78l142 667h78l-62 -290h319l62 290h77l-142 -667h-77l66 310h-319z" />
    <glyph glyph-name="afii10032" unicode="&#x41e;" horiz-adv-x="679" 
d="M160 107c27 -33 67 -54 120 -54c191 0 278 194 278 367c0 95 -45 193 -165 193c-183 0 -271 -208 -271 -376c0 -51 13 -97 38 -130zM161 14c-88 50 -119 146 -119 221c0 213 125 442 362 442c185 0 234 -159 234 -255c0 -217 -115 -433 -366 -433c-45 0 -82 8 -111 25z
" />
    <glyph glyph-name="afii10033" unicode="&#x41f;" horiz-adv-x="641" 
d="M16 0l142 667h467l-142 -667h-78l128 603h-311l-128 -603h-78z" />
    <glyph glyph-name="afii10034" unicode="&#x420;" horiz-adv-x="510" 
d="M222 605l-55 -261h47c115 0 215 25 215 164c0 51 -45 97 -112 97h-95zM94 0h-78l142 667h178c109 0 172 -78 172 -154c0 -180 -147 -231 -260 -231h-94z" />
    <glyph glyph-name="afii10035" unicode="&#x421;" horiz-adv-x="562" 
d="M482 84l-7 -67c-48 -23 -111 -28 -160 -28c-196 0 -273 148 -273 272c0 260 186 416 406 416c68 0 119 -14 154 -26l-25 -68c-36 21 -78 29 -137 29c-195 0 -318 -150 -318 -337c0 -122 63 -221 208 -221c51 0 103 7 152 30z" />
    <glyph glyph-name="afii10036" unicode="&#x422;" horiz-adv-x="463" 
d="M199 0h-78l128 601h-195l14 66h468l-14 -66h-195z" />
    <glyph glyph-name="afii10037" unicode="&#x423;" horiz-adv-x="559" 
d="M86 -7c-27 0 -57 3 -79 8l19 63c12 -4 31 -9 54 -9c42 0 88 51 136 119l-146 493h82l117 -420l273 420h85l-340 -511c-63 -94 -119 -163 -201 -163z" />
    <glyph glyph-name="afii10038" unicode="&#x424;" horiz-adv-x="765" 
d="M269 -11l16 78c-168 18 -248 118 -248 253c0 92 38 174 110 229c60 45 142 72 256 72l13 56h76l-13 -59c188 -19 252 -130 252 -244c0 -89 -33 -167 -96 -223c-61 -54 -149 -87 -273 -87l-16 -75h-77zM299 126l92 435c-187 -1 -276 -112 -276 -242
c0 -105 67 -177 184 -193zM374 124c188 1 278 112 278 247c0 105 -69 173 -185 187z" />
    <glyph glyph-name="afii10039" unicode="&#x425;" horiz-adv-x="587" 
d="M28 0h-93l321 353l-155 314h86l124 -270l228 270h93l-289 -317l162 -350h-86l-131 306z" />
    <glyph glyph-name="afii10040" unicode="&#x426;" horiz-adv-x="662" 
d="M460 -171l37 171h-481l142 667h78l-129 -603h311l129 603h77l-128 -603h88l-50 -235h-74z" />
    <glyph glyph-name="afii10041" unicode="&#x427;" horiz-adv-x="594" 
d="M357 0l62 285c-26 -9 -112 -22 -146 -22c-114 0 -187 26 -187 143c0 26 3 58 11 93l37 168h79c-9 -41 -38 -177 -38 -177c-5 -26 -9 -50 -9 -67c0 -62 22 -94 127 -94c32 0 113 10 140 20l66 318h78l-142 -667h-78z" />
    <glyph glyph-name="afii10042" unicode="&#x428;" horiz-adv-x="968" 
d="M16 0l142 667h78l-129 -603h281l128 603h78l-129 -603h281l128 603h78l-142 -667h-794z" />
    <glyph glyph-name="afii10043" unicode="&#x429;" horiz-adv-x="989" 
d="M787 -171l37 171h-808l142 667h78l-129 -603h281l128 603h78l-129 -603h281l128 603h78l-129 -603h89l-51 -235h-74z" />
    <glyph glyph-name="afii10044" unicode="&#x42a;" horiz-adv-x="618" 
d="M93 0l129 602h-168l13 65h246l-57 -266h118c116 0 186 -78 186 -162c0 -191 -157 -239 -273 -239h-194zM184 62h74c119 0 223 28 223 172c0 53 -47 104 -120 104h-118z" />
    <glyph glyph-name="afii10045" unicode="&#x42b;" horiz-adv-x="770" 
d="M16 0l142 667h78l-57 -266h118c116 0 186 -78 186 -162c0 -191 -157 -239 -273 -239h-194zM107 62h75c118 0 222 28 222 172c0 53 -47 104 -120 104h-118zM534 0l142 667h78l-142 -667h-78z" />
    <glyph glyph-name="afii10046" unicode="&#x42c;" horiz-adv-x="541" 
d="M16 0l142 667h78l-57 -266h118c116 0 186 -78 186 -162c0 -191 -157 -239 -273 -239h-194zM107 62h75c118 0 222 28 222 172c0 53 -47 104 -120 104h-118z" />
    <glyph glyph-name="afii10047" unicode="&#x42d;" horiz-adv-x="562" 
d="M127 -11c-66 0 -129 14 -164 27l25 67c37 -19 88 -30 138 -30c173 0 281 111 308 260h-316l13 62h309c1 8 1 19 1 32c0 114 -75 206 -219 206c-48 0 -93 -8 -140 -29l4 65c45 18 103 28 149 28c203 0 285 -144 285 -274c0 -256 -160 -414 -393 -414z" />
    <glyph glyph-name="afii10048" unicode="&#x42e;" horiz-adv-x="924" 
d="M523 -11c-189 0 -235 145 -235 247c0 24 2 49 5 74h-133l-66 -310h-78l142 667h78l-62 -290h132c42 160 154 300 339 300c191 0 237 -157 237 -255c0 -218 -118 -433 -359 -433zM529 53c182 0 273 194 273 367c0 95 -45 193 -164 193c-183 0 -270 -208 -270 -372
c0 -98 44 -188 161 -188z" />
    <glyph glyph-name="afii10049" unicode="&#x42f;" horiz-adv-x="560" 
d="M-60 0l159 225c22 31 59 79 117 88c-46 4 -120 51 -120 140c0 135 97 214 256 214h191l-144 -667h-76l60 280h-69c-65 0 -91 -11 -145 -86l-140 -194h-89zM318 343h79l57 262h-96c-103 0 -184 -49 -184 -150c0 -84 62 -112 144 -112z" />
    <glyph glyph-name="afii10077" unicode="&#x43b;" horiz-adv-x="530" 
d="M3 -6c-21 0 -48 4 -59 8l16 58c9 -4 23 -6 36 -6c80 0 118 117 188 444h319l-106 -498h-73l93 440h-178c-66 -311 -109 -446 -236 -446z" />
    <glyph glyph-name="afii10065" unicode="&#x430;" horiz-adv-x="539" 
d="M418 0h-72c1 27 6 76 17 132c-29 -59 -95 -143 -204 -143c-88 0 -133 67 -133 157c0 194 164 362 356 362c47 0 77 -6 121 -21l-57 -267c-20 -93 -28 -169 -28 -220zM387 286l34 154c-19 7 -35 9 -54 9c-149 0 -266 -156 -266 -296c0 -56 18 -104 85 -104
c80 0 172 106 201 237z" />
    <glyph glyph-name="afii10066" unicode="&#x431;" horiz-adv-x="566" 
d="M242 -11c-143 0 -191 92 -191 214c0 137 50 344 165 438c65 53 139 64 213 70c55 4 102 8 145 19l-18 -67c-32 -9 -80 -14 -131 -18c-89 -7 -155 -28 -204 -76s-80 -119 -104 -221c47 90 125 152 223 152c124 0 181 -86 181 -184c0 -141 -91 -327 -279 -327zM250 48
c127 0 196 156 196 262c0 75 -31 131 -122 131c-130 0 -197 -144 -197 -259c0 -80 35 -134 123 -134z" />
    <glyph glyph-name="afii10067" unicode="&#x432;" horiz-adv-x="504" 
d="M11 0l107 498h193c96 0 143 -42 143 -109c0 -64 -53 -116 -109 -128c40 -8 81 -44 81 -95c0 -106 -86 -166 -190 -166h-225zM97 57h112c107 0 138 49 138 108c0 41 -35 67 -106 67h-106zM147 287h108c76 0 122 37 122 98c0 32 -26 57 -83 57h-115z" />
    <glyph glyph-name="afii10068" unicode="&#x433;" horiz-adv-x="419" 
d="M181 -10c-99 0 -161 44 -161 126c0 84 58 127 149 161c87 32 135 60 135 109c0 44 -33 65 -91 65c-49 0 -87 -12 -130 -41l11 69c46 20 86 28 134 28c94 0 151 -37 151 -115c0 -95 -92 -132 -167 -162c-81 -33 -116 -55 -116 -112c0 -47 40 -72 97 -72c48 0 99 15 139 49
l-8 -72c-42 -22 -91 -33 -143 -33z" />
    <glyph glyph-name="afii10069" unicode="&#x434;" horiz-adv-x="567" 
d="M220 -11c-133 0 -187 91 -187 187c0 144 94 323 276 323c83 0 136 -50 151 -110c13 39 21 93 21 135c0 83 -37 142 -153 142c-56 0 -114 -20 -140 -40l14 67c27 12 83 28 145 28c149 0 202 -80 202 -196c0 -114 -57 -340 -128 -431c-47 -60 -112 -105 -201 -105zM230 49
c121 0 194 153 194 261c0 75 -34 131 -123 131c-126 0 -192 -148 -192 -259c0 -84 36 -133 121 -133z" />
    <glyph glyph-name="afii10070" unicode="&#x435;" horiz-adv-x="491" 
d="M154 338c-12 -20 -22 -40 -29 -59c109 0 266 11 266 117c0 45 -35 57 -74 57c-67 0 -126 -55 -163 -115zM354 84l5 -61c-47 -24 -106 -34 -159 -34c-100 0 -173 54 -173 161c0 188 148 358 304 358c68 0 131 -31 131 -106c0 -164 -220 -176 -349 -176
c-7 -20 -10 -47 -10 -70c0 -72 42 -110 114 -110c45 0 98 14 137 38z" />
    <glyph glyph-name="afii10072" unicode="&#x436;" horiz-adv-x="699" 
d="M-72 0l296 269l-167 229h81l165 -234l50 234h73l-50 -234l254 234h92l-268 -240l188 -258h-85l-182 259l-55 -259h-73l55 258l-278 -258h-96z" />
    <glyph glyph-name="afii10073" unicode="&#x437;" horiz-adv-x="429" 
d="M137 -11c-53 0 -109 9 -159 29l20 65c35 -20 66 -35 133 -35c99 0 147 50 147 110c0 64 -58 77 -126 77c-12 0 -27 0 -37 -1l11 58c11 -1 24 -2 34 -2c99 0 147 55 147 99s-24 62 -89 62c-55 0 -111 -17 -146 -33v61c27 10 96 29 161 29c100 0 146 -40 146 -111
c0 -70 -56 -119 -121 -132c55 -3 93 -49 93 -107c0 -103 -75 -169 -214 -169z" />
    <glyph glyph-name="afii10074" unicode="&#x438;" horiz-adv-x="531" 
d="M184 498l-64 -300c-4 -21 -8 -42 -8 -61c0 -48 23 -88 87 -88c99 0 147 88 166 173l58 276h74l-80 -380c-8 -39 -15 -79 -19 -118h-67l14 91c-45 -64 -93 -102 -174 -102s-135 50 -135 130c0 19 3 39 7 60l67 319h74z" />
    <glyph glyph-name="afii10076" unicode="&#x43a;" horiz-adv-x="470" 
d="M12 0l106 498h72l-47 -224l255 224h95l-278 -238l199 -260h-88l-187 255l-54 -255h-73z" />
    <glyph glyph-name="afii10078" unicode="&#x43c;" horiz-adv-x="682" 
d="M12 0l106 498h107l69 -429l246 429h114l-105 -498h-71l92 432l-253 -432h-75l-69 432l-92 -432h-69z" />
    <glyph glyph-name="afii10079" unicode="&#x43d;" horiz-adv-x="534" 
d="M12 0l106 498h73l-44 -205h242l44 205h74l-107 -498h-73l50 235h-242l-50 -235h-73z" />
    <glyph glyph-name="afii10080" unicode="&#x43e;" horiz-adv-x="560" 
d="M142 3c-70 28 -108 89 -108 168c0 160 99 337 288 337c115 0 186 -74 186 -178c0 -172 -104 -341 -285 -341c-31 0 -58 5 -81 14zM137 88c19 -26 50 -39 93 -39c124 0 203 152 203 261c0 83 -36 139 -127 139c-127 0 -197 -149 -197 -261c0 -41 9 -74 28 -100z" />
    <glyph glyph-name="afii10081" unicode="&#x43f;" horiz-adv-x="533" 
d="M85 0h-73l79 381c8 39 16 78 20 117h67l-14 -89c48 64 96 99 177 99s133 -48 133 -128c0 -19 -2 -39 -7 -60l-67 -320h-73l63 302c4 21 9 42 9 61c0 48 -24 86 -88 86c-100 0 -148 -85 -167 -171z" />
    <glyph glyph-name="afii10082" unicode="&#x440;" horiz-adv-x="541" 
d="M128 212l-33 -154c31 -7 61 -9 88 -9c157 0 227 162 227 294c0 56 -19 106 -87 106c-80 0 -168 -106 -195 -237zM36 -216h-71l118 548c12 56 21 110 28 166h70l-28 -132c29 59 87 142 197 142c88 0 135 -67 135 -158c0 -187 -114 -361 -306 -361c-31 0 -65 1 -97 8z" />
    <glyph glyph-name="afii10083" unicode="&#x441;" horiz-adv-x="457" 
d="M358 69l-9 -63c-32 -11 -68 -17 -115 -17c-140 0 -200 87 -200 191c0 170 112 328 300 328c37 0 84 -7 117 -20l-18 -63c-33 17 -67 24 -102 24c-142 0 -221 -139 -221 -258c0 -76 37 -142 140 -142c37 0 72 5 108 20z" />
    <glyph glyph-name="afii10084" unicode="&#x442;" horiz-adv-x="812" 
d="M85 0h-73l79 381c8 39 16 77 20 117h68l-14 -86c43 60 97 96 173 96c61 0 112 -40 113 -104c37 60 102 104 174 104c76 0 128 -42 128 -121c0 -16 -3 -32 -6 -48l-71 -339h-74l69 329c3 17 5 32 5 45c0 50 -25 75 -76 75c-89 0 -146 -95 -162 -172l-58 -277h-73l69 329
c3 17 5 32 5 45c0 53 -28 75 -79 75c-89 0 -143 -95 -159 -172z" />
    <glyph glyph-name="afii10085" unicode="&#x443;" horiz-adv-x="455" 
d="M-69 -219l19 61c13 -5 27 -9 42 -9c43 0 75 38 94 74l40 78l-70 513h78l48 -431l217 431h79l-315 -584c-45 -84 -91 -141 -173 -141c-24 0 -36 3 -59 8z" />
    <glyph glyph-name="afii10086" unicode="&#x444;" horiz-adv-x="780" 
d="M246 -216l57 267c-34 -40 -84 -62 -137 -62c-89 0 -132 72 -132 173c0 165 79 346 245 346c59 0 92 -31 107 -63l59 276h73l-59 -276c28 32 76 63 136 63c100 0 133 -73 133 -174c0 -160 -88 -345 -245 -345c-54 0 -89 23 -107 63l-57 -268h-73zM197 47
c47 0 95 36 123 83l50 238c-3 48 -32 82 -86 82c-113 0 -175 -167 -175 -282c0 -65 18 -121 88 -121zM479 47c112 0 174 166 174 282c0 66 -19 121 -89 121c-47 0 -93 -36 -121 -82l-50 -238c7 -51 26 -83 86 -83z" />
    <glyph glyph-name="afii10087" unicode="&#x445;" horiz-adv-x="463" 
d="M43 0h-84l225 262l-103 236h82l75 -196l149 196h83l-201 -239l110 -259h-84l-76 215z" />
    <glyph glyph-name="afii10088" unicode="&#x446;" horiz-adv-x="546" 
d="M454 -141h-72l30 137c-43 0 -73 19 -73 60c0 6 2 19 6 35c-45 -64 -93 -102 -174 -102s-135 50 -135 130c0 19 3 39 7 60l67 319h73l-63 -300c-4 -21 -8 -42 -8 -61c0 -48 23 -88 87 -88c99 0 148 88 166 173l58 276h73l-77 -371c-3 -15 -6 -27 -6 -39
c0 -25 12 -38 52 -38h29c0 -1 -39 -191 -40 -191z" />
    <glyph glyph-name="afii10089" unicode="&#x447;" horiz-adv-x="487" 
d="M282 0l43 204c-23 -8 -70 -21 -126 -21c-97 0 -143 34 -143 110c0 16 3 36 7 53l32 152h72l-30 -143c-4 -19 -7 -34 -7 -48c0 -50 29 -66 92 -66c39 0 97 13 115 19l50 238h73l-106 -498h-72z" />
    <glyph glyph-name="afii10090" unicode="&#x448;" horiz-adv-x="809" 
d="M161 -10c-77 0 -128 44 -128 122c0 14 3 31 6 47l71 339h73l-68 -329c-3 -17 -5 -31 -5 -45c0 -50 25 -75 76 -75c89 0 145 95 161 172l58 277h73l-68 -329c-3 -17 -5 -31 -5 -45c0 -53 27 -75 79 -75c89 0 143 95 159 172l57 277h74l-80 -381c-8 -39 -16 -78 -20 -117
h-67l14 86c-44 -59 -94 -96 -173 -96c-61 0 -113 41 -114 105c-37 -61 -100 -105 -173 -105z" />
    <glyph glyph-name="afii10091" unicode="&#x449;" horiz-adv-x="823" 
d="M659 -141c9 46 19 92 29 137c-42 0 -72 19 -72 60c0 6 2 19 5 30c-44 -59 -94 -96 -173 -96c-61 0 -113 41 -114 105c-37 -61 -100 -105 -173 -105c-77 0 -128 44 -128 122c0 14 3 31 6 47l71 339h73l-68 -329c-4 -17 -5 -31 -5 -45c0 -50 25 -75 76 -75
c89 0 145 95 161 172l58 277h73l-68 -329c-4 -17 -5 -31 -5 -45c0 -53 27 -75 79 -75c89 0 143 95 159 172l57 277h74l-79 -378c-3 -13 -5 -23 -5 -32c0 -25 12 -38 51 -38h29c-1 -9 -37 -181 -39 -191h-72z" />
    <glyph glyph-name="afii10092" unicode="&#x44a;" horiz-adv-x="543" 
d="M83 0l93 440h-139l13 58h213l-42 -193h130c86 0 139 -59 139 -129c0 -132 -104 -176 -201 -176h-206zM169 58h119c80 0 130 39 130 115c0 41 -36 76 -97 76h-113z" />
    <glyph glyph-name="afii10093" unicode="&#x44b;" horiz-adv-x="672" 
d="M12 0l106 498h73l-42 -193h130c86 0 140 -59 140 -129c0 -132 -104 -176 -201 -176h-206zM97 58h120c79 0 130 39 130 115c0 41 -37 76 -97 76h-113zM465 0l105 498h73l-104 -498h-74z" />
    <glyph glyph-name="afii10094" unicode="&#x44c;" horiz-adv-x="472" 
d="M12 0l106 498h73l-42 -193h130c86 0 140 -59 140 -129c0 -132 -104 -176 -201 -176h-206zM97 58h120c79 0 130 39 130 115c0 41 -37 76 -97 76h-113z" />
    <glyph glyph-name="afii10095" unicode="&#x44d;" horiz-adv-x="457" 
d="M113 -10c-37 0 -92 5 -123 19l17 62c28 -16 67 -23 105 -23c112 0 185 89 209 187h-215l11 54h211c1 3 1 11 1 16c0 79 -42 144 -140 144c-34 0 -67 -5 -106 -20l5 61c32 10 73 18 116 18c131 0 201 -86 201 -196c0 -172 -108 -322 -292 -322z" />
    <glyph glyph-name="afii10096" unicode="&#x44e;" horiz-adv-x="744" 
d="M415 -11c-130 0 -187 90 -187 193c0 16 0 35 4 53h-97l-50 -235h-73l106 498h73l-44 -205h97c35 114 124 215 261 215c125 0 187 -84 187 -186c0 -144 -91 -333 -277 -333zM422 48c127 0 194 160 194 266c0 76 -29 135 -121 135c-127 0 -192 -153 -192 -265
c0 -81 33 -136 119 -136z" />
    <glyph glyph-name="afii10097" unicode="&#x44f;" horiz-adv-x="493" 
d="M-44 0l99 143c27 40 60 78 107 85c-55 9 -90 62 -90 115c0 107 93 155 193 155h201l-107 -498h-73l43 205h-69c-70 0 -96 -28 -134 -84l-81 -121h-89zM241 260h100l38 180h-112c-69 0 -123 -35 -123 -91c0 -46 18 -89 97 -89z" />
    <glyph glyph-name="zero.prop" unicode="&#xf054;" horiz-adv-x="542" 
d="M130 98c16 -28 41 -47 84 -47c159 0 221 299 221 421c0 69 -20 143 -103 143c-158 0 -222 -294 -222 -416c0 -36 5 -73 20 -101zM120 7c-65 37 -84 109 -84 193c0 176 91 477 308 477c123 0 165 -94 165 -201c0 -185 -76 -487 -305 -487c-34 0 -62 6 -84 18z" />
    <glyph glyph-name="one.prop" unicode="&#xf05e;" horiz-adv-x="385" 
d="M195 0h-77l123 581l-136 -97l-34 54l197 129h68z" />
    <glyph glyph-name="two.prop" unicode="&#xf069;" horiz-adv-x="542" 
d="M401 0h-418l16 63l229 196c122 103 183 171 183 255c0 59 -40 99 -112 99c-68 0 -114 -22 -167 -48l8 69c53 29 112 43 175 43c102 0 179 -61 179 -154c0 -113 -93 -199 -208 -298l-189 -161h318z" />
    <glyph glyph-name="three.prop" unicode="&#xf074;" horiz-adv-x="542" 
d="M-16 16l22 69c48 -24 110 -32 151 -32c108 0 206 53 206 161c0 82 -79 108 -148 108h-77l13 63h82c92 0 182 29 182 129c0 69 -63 100 -131 100c-64 0 -104 -14 -155 -35l8 68c27 11 85 30 165 30c99 0 191 -47 191 -151c0 -106 -74 -162 -163 -176
c81 -20 112 -72 112 -133c0 -164 -152 -228 -291 -228c-49 0 -116 7 -167 27z" />
    <glyph glyph-name="four.prop" unicode="&#xf07f;" horiz-adv-x="542" 
d="M408 591l-322 -376h241zM314 152h-316l16 71l390 444h91l-95 -452h95l-14 -63h-96l-32 -152h-72z" />
    <glyph glyph-name="five.prop" unicode="&#xf089;" horiz-adv-x="542" 
d="M15 14l12 72c43 -21 97 -33 144 -33c109 0 213 55 213 174c0 90 -72 122 -143 122c-60 0 -117 -15 -157 -28l81 346h353l-15 -64h-279l-52 -208c29 8 57 13 102 13c91 0 190 -46 190 -167c0 -172 -147 -252 -298 -252c-51 0 -108 8 -151 25z" />
    <glyph glyph-name="six.prop" unicode="&#xf093;" horiz-adv-x="542" 
d="M146 101c19 -28 47 -49 94 -49c108 0 163 86 163 186c0 69 -40 120 -117 120c-96 0 -165 -73 -165 -160c0 -32 6 -69 25 -97zM533 646l-22 -64c-33 20 -85 33 -126 33c-154 0 -220 -147 -247 -278c35 53 102 83 169 83c100 0 173 -64 173 -168c0 -154 -98 -263 -246 -263
c-141 0 -189 113 -189 214c0 196 90 474 346 474c48 0 99 -12 142 -31z" />
    <glyph glyph-name="seven.prop" unicode="&#xf09d;" horiz-adv-x="469" 
d="M104 0h-89l402 601h-363l13 66h439l-14 -64z" />
    <glyph glyph-name="eight.prop" unicode="&#xf0a7;" horiz-adv-x="542" 
d="M319 297c-15 9 -30 17 -47 24c-86 -30 -180 -65 -180 -169c0 -75 64 -103 128 -103c85 0 174 46 174 142c0 45 -32 81 -75 106zM250 393c12 -7 24 -14 36 -20c88 32 157 73 157 154c0 64 -54 90 -110 90c-83 0 -148 -47 -148 -124c0 -45 30 -76 65 -100zM135 322
c23 11 48 21 73 28c-51 30 -98 72 -98 137c0 128 108 190 232 190c88 0 181 -36 181 -136c0 -103 -81 -159 -174 -194c73 -35 123 -79 123 -150c0 -149 -130 -208 -261 -208c-87 0 -196 39 -196 153c0 91 52 149 120 180z" />
    <glyph glyph-name="nine.prop" unicode="&#xf0b1;" horiz-adv-x="542" 
d="M171 342c20 -23 49 -34 88 -34c96 0 165 73 165 160c0 64 -27 146 -119 146c-107 0 -163 -86 -163 -186c0 -35 10 -63 29 -86zM12 20l22 64c33 -20 85 -33 126 -33c156 0 218 147 247 278c-35 -53 -102 -83 -169 -83c-100 0 -173 64 -173 168c0 154 101 263 249 263
c139 0 186 -113 186 -214c0 -196 -90 -474 -346 -474c-48 0 -99 12 -142 31z" />
    <glyph glyph-name=".null" horiz-adv-x="1000" 
 />
    <glyph glyph-name="CR" unicode="&#xd;" horiz-adv-x="0" 
 />
    <glyph glyph-name="space" unicode=" " horiz-adv-x="271" 
 />
    <glyph glyph-name="exclam" unicode="!" horiz-adv-x="268" 
d="M131 169h-63l93 498h88zM106 0h-85l19 89h84z" />
    <glyph glyph-name="quotedbl" unicode="&#x22;" horiz-adv-x="411" 
d="M327 459h-64l44 208h65zM188 459h-65l44 208h65z" />
    <glyph glyph-name="numbersign" unicode="#" horiz-adv-x="542" 
d="M110 0h-54l49 209h-85l11 53h86l35 143h-85l11 53h86l51 209h55l-51 -209h163l51 209h55l-50 -209h85l-12 -53h-85l-36 -143h86l-12 -53h-85l-50 -209h-55l50 209h-163zM208 405l-36 -143h163l36 143h-163z" />
    <glyph glyph-name="dollar" unicode="$" horiz-adv-x="542" 
d="M206 -108h-55l21 97c-51 0 -98 7 -141 28l22 72c31 -19 82 -37 135 -37c95 0 171 53 171 142c0 123 -236 135 -236 289c0 108 87 178 203 191l22 100h54l-21 -97c43 0 86 -7 123 -22l-20 -67c-32 16 -79 26 -118 26c-69 0 -164 -39 -164 -124c0 -106 236 -123 236 -289
c0 -107 -79 -197 -211 -210z" />
    <glyph glyph-name="percent" unicode="%" horiz-adv-x="903" 
d="M581 0c-43 20 -60 65 -60 117c0 111 62 284 206 284c80 0 113 -54 113 -121c0 -115 -53 -291 -206 -291c-21 0 -38 4 -53 11zM268 -24h-57l423 715h58zM123 275c-43 22 -60 65 -60 118c0 111 62 284 206 284c80 0 113 -54 113 -121c0 -115 -53 -291 -206 -291
c-21 0 -38 3 -53 10zM593 55c9 -15 26 -24 51 -24c99 0 137 179 137 249c0 40 -11 79 -63 79c-99 0 -137 -179 -137 -249c0 -20 3 -39 12 -55zM135 331c9 -15 26 -24 51 -24c99 0 137 179 137 249c0 40 -11 79 -63 79c-99 0 -137 -179 -137 -249c0 -20 3 -39 12 -55z" />
    <glyph glyph-name="ampersand" unicode="&#x26;" horiz-adv-x="645" 
d="M520 317l-64 -299c-66 -18 -152 -29 -211 -29c-124 0 -215 44 -215 148c0 120 89 193 201 209c-68 7 -117 54 -117 111c0 149 138 220 274 220c51 0 99 -9 147 -28l-19 -66c-44 24 -91 33 -142 33c-95 0 -185 -54 -185 -152c0 -79 77 -87 138 -87h132l17 79h74l-17 -79
h101l-13 -60h-101zM446 317h-131c-105 0 -208 -52 -208 -167c0 -75 64 -100 151 -100c48 0 91 5 136 20z" />
    <glyph glyph-name="quotesingle" unicode="'" horiz-adv-x="271" 
d="M188 459h-65l44 208h65z" />
    <glyph glyph-name="parenleft" unicode="(" horiz-adv-x="269" 
d="M175 -128h-55c-41 100 -73 205 -73 310c0 220 115 387 243 539h56c-117 -157 -231 -329 -231 -540c0 -112 29 -208 60 -309z" />
    <glyph glyph-name="parenright" unicode=")" horiz-adv-x="269" 
d="M-32 -128h-56c115 157 238 325 238 536c0 108 -32 210 -63 313h54c43 -104 77 -213 77 -314c0 -221 -122 -383 -250 -535z" />
    <glyph glyph-name="asterisk" unicode="*" horiz-adv-x="407" 
d="M175 353l-53 32l73 110l-116 38l20 59l110 -51l-7 126h63l-9 -126l110 51l20 -59l-115 -38l73 -110l-53 -32l-58 114z" />
    <glyph glyph-name="plus" unicode="+" horiz-adv-x="542" 
d="M233 215h-218v60h218v215h65v-215h219v-60h-219v-215h-65v215z" />
    <glyph glyph-name="comma" unicode="," horiz-adv-x="271" 
d="M17 -128h-60l104 217h81z" />
    <glyph glyph-name="hyphen" unicode="-" horiz-adv-x="320" 
d="M269 277h-238l14 66h238z" />
    <glyph glyph-name="period" unicode="." horiz-adv-x="271" 
d="M112 0h-86l20 89h85z" />
    <glyph glyph-name="slash" unicode="/" horiz-adv-x="292" 
d="M15 0h-69l331 667h69z" />
    <glyph glyph-name="zero" unicode="0" horiz-adv-x="542" 
d="M130 98c16 -28 41 -47 84 -47c159 0 221 299 221 421c0 69 -20 143 -103 143c-158 0 -222 -294 -222 -416c0 -36 5 -73 20 -101zM120 7c-65 37 -84 109 -84 193c0 176 91 477 308 477c123 0 165 -94 165 -201c0 -185 -76 -487 -305 -487c-34 0 -62 6 -84 18z" />
    <glyph glyph-name="one" unicode="1" horiz-adv-x="542" 
d="M264 0h-77l123 581l-136 -97l-34 54l197 129h68z" />
    <glyph glyph-name="two" unicode="2" horiz-adv-x="542" 
d="M401 0h-418l16 63l229 196c122 103 183 171 183 255c0 59 -40 99 -112 99c-68 0 -114 -22 -167 -48l8 69c53 29 112 43 175 43c102 0 179 -61 179 -154c0 -113 -93 -199 -208 -298l-189 -161h318z" />
    <glyph glyph-name="three" unicode="3" horiz-adv-x="542" 
d="M-16 16l22 69c48 -24 110 -32 151 -32c108 0 206 53 206 161c0 82 -79 108 -148 108h-77l13 63h82c92 0 182 29 182 129c0 69 -63 100 -131 100c-64 0 -104 -14 -155 -35l8 68c27 11 85 30 165 30c99 0 191 -47 191 -151c0 -106 -74 -162 -163 -176
c81 -20 112 -72 112 -133c0 -164 -152 -228 -291 -228c-49 0 -116 7 -167 27z" />
    <glyph glyph-name="four" unicode="4" horiz-adv-x="542" 
d="M408 591l-322 -376h241zM314 152h-316l16 71l390 444h91l-95 -452h95l-14 -63h-96l-32 -152h-72z" />
    <glyph glyph-name="five" unicode="5" horiz-adv-x="542" 
d="M15 14l12 72c43 -21 97 -33 144 -33c109 0 213 55 213 174c0 90 -72 122 -143 122c-60 0 -117 -15 -157 -28l81 346h353l-15 -64h-279l-52 -208c29 8 57 13 102 13c91 0 190 -46 190 -167c0 -172 -147 -252 -298 -252c-51 0 -108 8 -151 25z" />
    <glyph glyph-name="six" unicode="6" horiz-adv-x="542" 
d="M146 101c19 -28 47 -49 94 -49c108 0 163 86 163 186c0 69 -40 120 -117 120c-96 0 -165 -73 -165 -160c0 -32 6 -69 25 -97zM533 646l-22 -64c-33 20 -85 33 -126 33c-154 0 -220 -147 -247 -278c35 53 102 83 169 83c100 0 173 -64 173 -168c0 -154 -98 -263 -246 -263
c-141 0 -189 113 -189 214c0 196 90 474 346 474c48 0 99 -12 142 -31z" />
    <glyph glyph-name="seven" unicode="7" horiz-adv-x="542" 
d="M135 0h-89l402 601h-363l13 66h439l-14 -64z" />
    <glyph glyph-name="eight" unicode="8" horiz-adv-x="542" 
d="M319 297c-15 9 -30 17 -47 24c-86 -30 -180 -65 -180 -169c0 -75 64 -103 128 -103c85 0 174 46 174 142c0 45 -32 81 -75 106zM250 393c12 -7 24 -14 36 -20c88 32 157 73 157 154c0 64 -54 90 -110 90c-83 0 -148 -47 -148 -124c0 -45 30 -76 65 -100zM135 322
c23 11 48 21 73 28c-51 30 -98 72 -98 137c0 128 108 190 232 190c88 0 181 -36 181 -136c0 -103 -81 -159 -174 -194c73 -35 123 -79 123 -150c0 -149 -130 -208 -261 -208c-87 0 -196 39 -196 153c0 91 52 149 120 180z" />
    <glyph glyph-name="nine" unicode="9" horiz-adv-x="542" 
d="M171 342c20 -23 49 -34 88 -34c96 0 165 73 165 160c0 64 -27 146 -119 146c-107 0 -163 -86 -163 -186c0 -35 10 -63 29 -86zM12 20l22 64c33 -20 85 -33 126 -33c156 0 218 147 247 278c-35 -53 -102 -83 -169 -83c-100 0 -173 64 -173 168c0 154 101 263 249 263
c139 0 186 -113 186 -214c0 -196 -90 -474 -346 -474c-48 0 -99 12 -142 31z" />
    <glyph glyph-name="colon" unicode=":" horiz-adv-x="271" 
d="M197 409h-86l20 89h84zM112 0h-86l20 89h85z" />
    <glyph glyph-name="semicolon" unicode=";" horiz-adv-x="271" 
d="M197 409h-86l20 89h84zM17 -128h-60l104 217h81z" />
    <glyph glyph-name="less" unicode="&#x3c;" horiz-adv-x="542" 
d="M517 11l-502 200v65l502 202v-66l-428 -169l428 -167v-65z" />
    <glyph glyph-name="equal" unicode="=" horiz-adv-x="542" 
d="M518 309h-502v60h502v-60zM518 119h-502v60h502v-60z" />
    <glyph glyph-name="greater" unicode="&#x3e;" horiz-adv-x="542" 
d="M528 211l-502 -200v65l427 167l-427 169v66l502 -202v-65z" />
    <glyph glyph-name="question" unicode="?" horiz-adv-x="407" 
d="M161 169h-70l7 33c36 178 221 202 221 327c0 56 -45 84 -98 84c-48 0 -97 -16 -136 -32l10 66c29 9 74 30 149 30c77 0 153 -51 153 -129c0 -178 -206 -193 -230 -344zM133 0h-85l19 89h84z" />
    <glyph glyph-name="at" unicode="@" horiz-adv-x="1040" 
d="M613 244l50 199c-28 7 -42 7 -62 7c-147 0 -254 -152 -254 -292c0 -69 33 -111 93 -111c82 0 147 91 173 197zM813 -108l9 -62c-98 -40 -179 -57 -299 -57c-277 0 -460 174 -460 438c0 301 218 520 502 520c225 0 398 -141 398 -402c0 -193 -111 -340 -247 -340
c-64 0 -112 36 -115 119c-45 -79 -104 -119 -177 -119c-88 0 -146 61 -146 165c0 188 142 354 335 354c40 0 86 -7 127 -20l-75 -321c-3 -13 -5 -37 -5 -48c0 -47 21 -76 66 -76c90 0 173 119 173 285c0 232 -154 344 -341 344c-237 0 -429 -194 -429 -461
c0 -229 157 -379 405 -379c101 0 182 17 279 60z" />
    <glyph glyph-name="A" unicode="A" horiz-adv-x="618" 
d="M19 0h-81l402 667h93l120 -667h-80l-30 182h-316zM374 603l-212 -358h272z" />
    <glyph glyph-name="B" unicode="B" horiz-adv-x="531" 
d="M173 0h-157l142 667h174c89 0 177 -41 177 -137c0 -93 -60 -166 -159 -183c76 -19 112 -66 112 -134c0 -167 -153 -213 -289 -213zM221 607l-48 -230h74c96 0 183 37 183 145c0 65 -66 85 -119 85h-90zM160 317l-54 -257h70c105 0 207 29 207 157c0 86 -96 100 -164 100
h-59z" />
    <glyph glyph-name="C" unicode="C" horiz-adv-x="562" 
d="M482 84l-7 -67c-48 -23 -111 -28 -160 -28c-196 0 -273 148 -273 272c0 260 186 416 406 416c68 0 119 -14 154 -26l-25 -68c-36 21 -78 29 -137 29c-195 0 -318 -150 -318 -337c0 -122 63 -221 208 -221c51 0 103 7 152 30z" />
    <glyph glyph-name="D" unicode="D" horiz-adv-x="644" 
d="M191 0h-175l142 667h174c152 0 270 -90 270 -248c0 -260 -150 -419 -411 -419zM223 604l-115 -541h55c237 0 359 111 359 351c0 127 -90 190 -209 190h-90z" />
    <glyph glyph-name="E" unicode="E" horiz-adv-x="489" 
d="M365 0h-349l142 667h339l-14 -63h-260l-50 -231h248l-14 -62h-246l-54 -248h272z" />
    <glyph glyph-name="F" unicode="F" horiz-adv-x="456" 
d="M95 0h-79l142 667h330l-14 -63h-252l-49 -231h242l-15 -63h-240z" />
    <glyph glyph-name="G" unicode="G" horiz-adv-x="649" 
d="M601 359l-70 -329c-73 -29 -143 -41 -215 -41c-191 0 -274 143 -274 275c0 263 193 413 413 413c59 0 129 -8 176 -32l-21 -68c-45 29 -104 36 -160 36c-197 0 -328 -146 -328 -347c0 -115 71 -213 207 -213c45 0 91 6 138 23l47 221h-143l14 62h216z" />
    <glyph glyph-name="H" unicode="H" horiz-adv-x="648" 
d="M94 0h-78l142 667h78l-62 -290h319l62 290h77l-142 -667h-77l66 310h-319z" />
    <glyph glyph-name="I" unicode="I" horiz-adv-x="253" 
d="M95 0h-79l142 667h79z" />
    <glyph glyph-name="J" unicode="J" horiz-adv-x="311" 
d="M-69 1l16 65c17 -7 35 -11 55 -11c81 0 107 71 120 130l103 482h78l-104 -492c-24 -110 -83 -186 -199 -186c-28 0 -46 3 -69 12z" />
    <glyph glyph-name="K" unicode="K" horiz-adv-x="561" 
d="M93 0h-77l142 667h77l-64 -301l344 301h103l-378 -320l256 -347h-95l-236 335z" />
    <glyph glyph-name="L" unicode="L" horiz-adv-x="446" 
d="M373 0h-357l142 667h78l-128 -601h280z" />
    <glyph glyph-name="M" unicode="M" horiz-adv-x="863" 
d="M90 0h-74l142 667h121l100 -579l348 579h120l-142 -667h-76l130 603l-361 -603h-77l-104 604z" />
    <glyph glyph-name="N" unicode="N" horiz-adv-x="671" 
d="M89 0h-73l142 667h109l191 -591l124 591h73l-142 -667h-108l-190 589z" />
    <glyph glyph-name="O" unicode="O" horiz-adv-x="679" 
d="M161 14c-88 50 -119 146 -119 221c0 213 125 442 362 442c185 0 234 -159 234 -255c0 -217 -115 -433 -366 -433c-45 0 -82 8 -111 25zM160 107c27 -33 67 -54 120 -54c191 0 278 194 278 367c0 95 -45 193 -165 193c-183 0 -271 -208 -271 -376c0 -51 13 -97 38 -130z
" />
    <glyph glyph-name="P" unicode="P" horiz-adv-x="510" 
d="M94 0h-78l142 667h178c109 0 172 -78 172 -154c0 -180 -147 -231 -260 -231h-94zM222 605l-55 -261h47c115 0 215 25 215 164c0 51 -45 97 -112 97h-95z" />
    <glyph glyph-name="Q" unicode="Q" horiz-adv-x="679" 
d="M574 -128h-98l-96 135c-32 -12 -68 -18 -108 -18c-177 0 -230 147 -230 246c0 215 127 442 363 442c185 0 233 -159 233 -255c0 -155 -59 -313 -188 -388zM160 107c27 -33 67 -54 120 -54c191 0 278 194 278 367c0 95 -45 193 -165 193c-184 0 -271 -208 -271 -376
c0 -51 13 -97 38 -130z" />
    <glyph glyph-name="R" unicode="R" horiz-adv-x="528" 
d="M94 0h-78l141 667h177c89 0 173 -49 173 -140c0 -136 -110 -179 -186 -190c47 -11 57 -41 68 -84l61 -253h-85l-46 220c-13 64 -33 89 -109 89h-51zM221 605l-49 -234h68c76 0 187 21 187 145c0 56 -43 89 -136 89h-70z" />
    <glyph glyph-name="S" unicode="S" horiz-adv-x="467" 
d="M-15 15l23 71c28 -17 85 -34 132 -34c93 0 173 35 173 135c0 131 -228 140 -228 302c0 132 116 188 232 188c45 0 102 -8 139 -24l-21 -66c-31 17 -80 28 -119 28c-70 0 -150 -28 -150 -119c0 -120 228 -128 228 -303c0 -133 -105 -204 -257 -204c-53 0 -105 7 -152 26z
" />
    <glyph glyph-name="T" unicode="T" horiz-adv-x="463" 
d="M199 0h-78l128 601h-195l14 66h468l-14 -66h-195z" />
    <glyph glyph-name="U" unicode="U" horiz-adv-x="642" 
d="M224 667l-92 -432c-5 -21 -7 -44 -7 -64c1 -67 41 -117 144 -117c108 0 175 75 196 182l91 431h78l-91 -431c-37 -175 -139 -247 -292 -247c-108 0 -204 52 -204 175c0 23 0 44 7 71l93 432h77z" />
    <glyph glyph-name="V" unicode="V" horiz-adv-x="566" 
d="M252 0h-90l-100 667h82l78 -590l326 590h83z" />
    <glyph glyph-name="W" unicode="W" horiz-adv-x="891" 
d="M209 0h-95l-45 667h80l33 -588l287 588h90l37 -588l284 588h74l-329 -667h-92l-37 589z" />
    <glyph glyph-name="X" unicode="X" horiz-adv-x="587" 
d="M28 0h-93l321 353l-155 314h86l124 -270l228 270h93l-289 -317l162 -350h-86l-131 306z" />
    <glyph glyph-name="Y" unicode="Y" horiz-adv-x="552" 
d="M240 0h-77l59 278l-160 389h88l125 -325l266 325h85l-326 -389z" />
    <glyph glyph-name="Z" unicode="Z" horiz-adv-x="491" 
d="M398 0h-435l14 64l453 539h-328l15 64h414l-13 -64l-450 -539h344z" />
    <glyph glyph-name="bracketleft" unicode="[" horiz-adv-x="270" 
d="M170 -128h-162l180 849h162l-11 -52h-94l-158 -745h94z" />
    <glyph glyph-name="backslash" unicode="\" horiz-adv-x="306" 
d="M282 0h-67l-191 667h67z" />
    <glyph glyph-name="bracketright" unicode="]" horiz-adv-x="270" 
d="M66 -128h-162l11 52h94l158 745h-94l11 52h162z" />
    <glyph glyph-name="asciicircum" unicode="^" horiz-adv-x="600" 
d="M152 249h-69l169 418h63l169 -418h-69l-133 342z" />
    <glyph glyph-name="underscore" unicode="_" horiz-adv-x="500" 
d="M399 -125h-489l11 50h489z" />
    <glyph glyph-name="grave" unicode="`" horiz-adv-x="224" 
d="M206 585h-59l-66 136h84z" />
    <glyph glyph-name="a" unicode="a" horiz-adv-x="539" 
d="M387 286l34 154c-19 7 -35 9 -54 9c-149 0 -266 -156 -266 -296c0 -56 18 -104 85 -104c80 0 172 106 201 237zM418 0h-72c1 27 6 76 17 132c-29 -59 -95 -143 -204 -143c-88 0 -133 67 -133 157c0 194 164 362 356 362c47 0 77 -6 121 -21l-57 -267
c-20 -93 -28 -169 -28 -220z" />
    <glyph glyph-name="b" unicode="b" horiz-adv-x="541" 
d="M128 212l-33 -154c31 -7 61 -9 88 -9c157 0 227 162 227 294c0 56 -19 106 -87 106c-81 0 -166 -106 -195 -237zM236 721l-78 -348c29 56 85 135 192 135c88 0 135 -67 135 -158c0 -187 -114 -361 -306 -361c-43 0 -104 5 -164 21l150 711h71z" />
    <glyph glyph-name="c" unicode="c" horiz-adv-x="457" 
d="M358 69l-9 -63c-32 -11 -68 -17 -115 -17c-140 0 -200 87 -200 191c0 170 112 328 300 328c37 0 84 -7 117 -20l-18 -63c-33 17 -67 24 -102 24c-142 0 -221 -139 -221 -258c0 -76 37 -142 140 -142c37 0 72 5 108 20z" />
    <glyph glyph-name="d" unicode="d" horiz-adv-x="551" 
d="M387 286l34 154c-19 7 -39 9 -58 9c-148 0 -262 -156 -262 -296c0 -56 18 -104 85 -104c80 0 172 106 201 237zM418 0h-72c1 27 6 76 17 132c-29 -59 -95 -143 -204 -143c-88 0 -133 67 -133 157c0 194 161 362 353 362c19 0 40 -3 55 -8l46 221h73l-107 -501
c-20 -93 -28 -169 -28 -220z" />
    <glyph glyph-name="e" unicode="e" horiz-adv-x="491" 
d="M354 84l5 -61c-47 -24 -106 -34 -159 -34c-100 0 -173 54 -173 161c0 188 148 358 304 358c68 0 131 -31 131 -106c0 -164 -220 -176 -349 -176c-7 -20 -10 -47 -10 -70c0 -72 42 -110 114 -110c45 0 98 14 137 38zM154 338c-12 -20 -22 -40 -29 -59
c109 0 266 11 266 117c0 45 -35 57 -74 57c-67 0 -126 -55 -163 -115z" />
    <glyph glyph-name="f" unicode="f" horiz-adv-x="300" 
d="M-120 -221l15 59c13 -4 26 -5 41 -5c67 0 90 70 106 151l96 456h-95l12 58h95l14 65c19 83 58 168 166 168c21 0 41 -3 61 -9l-17 -58c-15 4 -31 8 -46 8c-62 0 -81 -66 -92 -115l-13 -59h111l-13 -58h-110l-97 -462c-19 -85 -57 -205 -175 -205c-24 0 -36 2 -59 6z" />
    <glyph glyph-name="g" unicode="g" horiz-adv-x="543" 
d="M391 286l34 154c-19 7 -35 9 -54 9c-149 0 -266 -153 -266 -289c0 -53 19 -102 86 -102c81 0 171 98 200 228zM-25 -201l18 65c41 -23 90 -31 135 -31c122 0 180 72 204 178l25 107c-59 -85 -113 -118 -190 -118c-88 0 -137 65 -137 153c0 189 164 355 356 355
c47 0 77 -6 121 -21l-95 -449c-37 -171 -102 -265 -292 -265c-51 0 -101 10 -145 26z" />
    <glyph glyph-name="h" unicode="h" horiz-adv-x="535" 
d="M85 0h-73l153 721h71l-67 -306c47 61 99 93 174 93c77 0 133 -48 133 -124c0 -32 -1 -41 -12 -88l-63 -296h-73l63 297c5 23 7 46 7 66c0 49 -24 86 -84 86c-103 0 -153 -87 -172 -180z" />
    <glyph glyph-name="i" unicode="i" horiz-adv-x="224" 
d="M213 609h-76l18 87h75zM85 0h-73l104 498h74z" />
    <glyph glyph-name="j" unicode="j" horiz-adv-x="232" 
d="M217 609h-75l17 87h76zM-131 -221l18 60c10 -4 21 -6 32 -6c52 0 74 48 82 93l120 572h73l-120 -580c-16 -79 -55 -145 -145 -145c-20 0 -41 1 -60 6z" />
    <glyph glyph-name="k" unicode="k" horiz-adv-x="455" 
d="M85 0h-73l150 721h74l-90 -431l237 208h95l-265 -223l181 -275h-88l-166 269z" />
    <glyph glyph-name="l" unicode="l" horiz-adv-x="236" 
d="M85 0h-73l153 721h73z" />
    <glyph glyph-name="m" unicode="m" horiz-adv-x="812" 
d="M85 0h-73l79 381c8 39 16 77 20 117h68l-14 -86c43 60 97 96 173 96c61 0 112 -40 113 -104c37 60 102 104 174 104c76 0 128 -42 128 -121c0 -16 -3 -32 -6 -48l-71 -339h-74l69 329c3 17 5 32 5 45c0 50 -25 75 -76 75c-89 0 -146 -95 -162 -172l-58 -277h-73l69 329
c3 17 5 32 5 45c0 53 -28 75 -79 75c-89 0 -143 -95 -159 -172z" />
    <glyph glyph-name="n" unicode="n" horiz-adv-x="533" 
d="M85 0h-73l79 381c8 39 16 78 20 117h67l-14 -89c48 64 96 99 177 99s133 -48 133 -128c0 -19 -2 -39 -7 -60l-67 -320h-73l63 302c4 21 9 42 9 61c0 48 -24 86 -88 86c-100 0 -148 -85 -167 -171z" />
    <glyph glyph-name="o" unicode="o" horiz-adv-x="560" 
d="M137 88c19 -26 50 -39 93 -39c124 0 203 152 203 261c0 83 -36 139 -127 139c-127 0 -197 -149 -197 -261c0 -41 9 -74 28 -100zM142 3c-70 28 -108 89 -108 168c0 160 99 337 288 337c115 0 186 -74 186 -178c0 -172 -104 -341 -285 -341c-31 0 -58 5 -81 14z" />
    <glyph glyph-name="p" unicode="p" horiz-adv-x="541" 
d="M36 -216h-71l118 548c12 56 21 110 28 166h70l-28 -132c29 59 87 142 197 142c88 0 135 -67 135 -158c0 -187 -114 -361 -306 -361c-31 0 -65 1 -97 8zM128 212l-33 -154c31 -7 61 -9 88 -9c157 0 227 162 227 294c0 56 -19 106 -87 106c-80 0 -168 -106 -195 -237z" />
    <glyph glyph-name="q" unicode="q" horiz-adv-x="539" 
d="M387 286l34 154c-19 7 -35 9 -54 9c-149 0 -266 -156 -266 -296c0 -56 18 -104 85 -104c80 0 172 106 201 237zM354 -216h-74l72 329c-51 -83 -116 -124 -193 -124c-88 0 -133 67 -133 157c0 194 164 362 356 362c47 0 77 -6 121 -21z" />
    <glyph glyph-name="r" unicode="r" horiz-adv-x="334" 
d="M85 0h-73l81 381c8 39 16 78 20 117h68l-18 -97c26 52 92 107 153 107c15 0 26 0 41 -4l-20 -73c-12 4 -25 6 -38 6c-98 0 -146 -110 -162 -192z" />
    <glyph glyph-name="s" unicode="s" horiz-adv-x="402" 
d="M-10 12l21 65c36 -21 76 -31 119 -31c55 0 116 21 116 92c0 98 -180 100 -180 228c0 101 96 142 183 142c39 0 89 -8 126 -23l-20 -60c-32 16 -68 26 -105 26c-56 0 -111 -20 -111 -82c0 -82 182 -92 182 -226c0 -115 -100 -154 -194 -154c-47 0 -94 6 -137 23z" />
    <glyph glyph-name="t" unicode="t" horiz-adv-x="315" 
d="M241 63l-7 -61c-23 -9 -49 -13 -78 -13c-54 0 -100 25 -100 91c0 25 3 48 10 75l61 285h-93l13 58h92l23 112l79 25l-28 -137h114l-12 -58h-115l-62 -290c-4 -20 -7 -36 -7 -55c0 -33 21 -45 49 -45c20 0 41 5 61 13z" />
    <glyph glyph-name="u" unicode="u" horiz-adv-x="531" 
d="M184 500l-64 -302c-4 -21 -8 -42 -8 -61c0 -48 23 -88 87 -88c99 0 147 88 166 173l58 278h74l-80 -382c-8 -39 -15 -79 -19 -118h-67l14 91c-45 -64 -93 -102 -174 -102s-135 50 -135 130c0 19 3 39 7 60l67 321h74z" />
    <glyph glyph-name="v" unicode="v" horiz-adv-x="448" 
d="M205 0h-94l-61 498h78l41 -435l223 435h80z" />
    <glyph glyph-name="w" unicode="w" horiz-adv-x="760" 
d="M191 0h-87l-53 498h76l37 -430l209 430h85l38 -430l209 430h75l-255 -498h-87l-37 429z" />
    <glyph glyph-name="x" unicode="x" horiz-adv-x="463" 
d="M43 0h-84l225 262l-103 236h82l75 -196l149 196h83l-201 -239l110 -259h-84l-76 215z" />
    <glyph glyph-name="y" unicode="y" horiz-adv-x="455" 
d="M-69 -219l19 61c13 -5 27 -9 42 -9c43 0 75 38 94 74l40 78l-70 513h78l48 -431l217 431h79l-315 -584c-45 -84 -91 -141 -173 -141c-24 0 -36 3 -59 8z" />
    <glyph glyph-name="z" unicode="z" horiz-adv-x="427" 
d="M330 0h-357l13 59l351 381h-259l12 58h345l-13 -60l-349 -379h270z" />
    <glyph glyph-name="braceleft" unicode="{" horiz-adv-x="272" 
d="M173 -128h-60c-51 0 -75 37 -75 85c0 11 1 22 4 33l34 160c4 17 5 34 5 51c0 36 -12 71 -52 71l10 50c59 0 89 76 100 124l33 158c11 59 56 117 122 117h59l-10 -50h-46c-37 0 -56 -56 -61 -86l-33 -155c-14 -55 -54 -117 -111 -133c43 -12 58 -57 58 -97
c0 -13 0 -24 -3 -37l-34 -153c-3 -15 -5 -30 -5 -44c0 -35 14 -44 30 -44h45z" />
    <glyph glyph-name="bar" unicode="|" horiz-adv-x="216" 
d="M145 -216h-72v991h72v-991z" />
    <glyph glyph-name="braceright" unicode="}" horiz-adv-x="272" 
d="M-22 -128h-59l10 50h45c37 0 56 58 62 88l33 153c11 56 55 118 111 134c-43 12 -58 57 -58 97c0 12 1 24 4 36l32 155c3 15 5 30 5 44c0 19 -2 42 -29 42h-46l11 50h58c51 0 77 -34 77 -83c0 -11 -1 -23 -4 -34l-33 -158c-4 -17 -6 -35 -6 -52c0 -35 11 -72 53 -72
l-12 -50c-59 0 -87 -74 -98 -122l-34 -160c-13 -58 -56 -118 -122 -118z" />
    <glyph glyph-name="asciitilde" unicode="~" horiz-adv-x="542" 
d="M37 172h-46c11 71 42 140 124 140c91 0 202 -74 280 -74c47 0 70 38 79 79h44c-5 -68 -45 -138 -122 -138c-94 0 -200 72 -281 72c-47 0 -71 -36 -78 -79z" />
    <glyph glyph-name="uni00A0" unicode="&#xa0;" horiz-adv-x="271" 
 />
    <glyph glyph-name="Aogonek" unicode="&#x104;" horiz-adv-x="618" 
d="M374 603l-212 -358h272zM19 0h-81l402 667h93l120 -667h-24c-56 -31 -84 -65 -84 -100c0 -29 24 -40 45 -40s37 4 60 15l8 -35c-27 -12 -48 -20 -83 -20c-53 0 -85 29 -85 68c0 48 35 88 94 112h-11l-30 182h-316z" />
    <glyph glyph-name="AE" unicode="&#xc6;" horiz-adv-x="854" 
d="M21 0h-87l551 667h376l-13 -63h-261l-50 -231h249l-15 -62h-246l-54 -248h273l-15 -63h-343l38 180h-255zM518 612l-298 -367h217z" />
    <glyph glyph-name="Ccedilla" unicode="&#xc7;" horiz-adv-x="562" 
d="M179 -161l15 35c25 -11 49 -17 72 -17c27 0 54 12 54 37c0 20 -19 26 -36 26c-12 0 -25 -2 -40 -7l-13 18l49 60c-170 16 -238 154 -238 270c0 260 186 416 406 416c68 0 119 -14 154 -26l-25 -68c-36 21 -78 29 -137 29c-195 0 -318 -150 -318 -337
c0 -122 63 -221 208 -221c51 0 103 7 152 30l-7 -67c-48 -23 -111 -28 -160 -28l-35 -42c15 3 19 4 32 4c36 0 60 -21 60 -53c0 -49 -44 -78 -108 -78c-31 0 -54 4 -85 19z" />
    <glyph glyph-name="Dcroat" unicode="&#x110;" horiz-adv-x="644" 
d="M159 305l-51 -242h55c237 0 359 111 359 351c0 127 -90 190 -209 190h-90l-51 -239h178l-13 -60h-178zM191 0h-175l65 305h-73l13 60h73l64 302h174c152 0 270 -90 270 -248c0 -260 -150 -419 -411 -419z" />
    <glyph glyph-name="Eth" unicode="&#xd0;" horiz-adv-x="644" 
d="M159 305l-51 -242h55c237 0 359 111 359 351c0 127 -90 190 -209 190h-90l-51 -239h178l-13 -60h-178zM191 0h-175l65 305h-73l13 60h73l64 302h174c152 0 270 -90 270 -248c0 -260 -150 -419 -411 -419z" />
    <glyph glyph-name="Eogonek" unicode="&#x118;" horiz-adv-x="489" 
d="M280 0h-264l142 667h339l-14 -63h-260l-50 -231h248l-14 -62h-246l-54 -248h272l-14 -63h-40c-56 -31 -84 -65 -84 -100c0 -29 24 -40 45 -40s37 4 60 15l8 -35c-27 -12 -48 -20 -83 -20c-53 0 -85 29 -85 68c0 48 35 88 94 112z" />
    <glyph glyph-name="Hbar" unicode="&#x126;" horiz-adv-x="648" 
d="M193 464l-25 -117h319l25 117h-319zM94 0h-78l142 667h78l-31 -145h319l31 145h77l-142 -667h-77l59 280h-319z" />
    <glyph glyph-name="Iogonek" unicode="&#x12e;" horiz-adv-x="253" 
d="M104 -127l8 -35c-23 -11 -48 -18 -76 -18c-53 0 -85 29 -85 68c0 48 40 88 99 112h-34l142 667h79l-142 -667c-57 -32 -89 -65 -89 -100c0 -29 24 -40 45 -40c16 0 33 6 53 13z" />
    <glyph glyph-name="Lslash" unicode="&#x141;" horiz-adv-x="446" 
d="M373 0h-357l62 293l-88 -67l14 68l89 65l65 308h78l-53 -252l164 128l-16 -70l-164 -126l-59 -281h280z" />
    <glyph glyph-name="Oslash" unicode="&#xd8;" horiz-adv-x="679" 
d="M97 65l-93 -88l-31 35l99 93c-23 44 -30 91 -30 130c0 213 125 442 362 442c91 0 148 -37 184 -88l95 88l31 -34l-101 -96c19 -43 25 -89 25 -125c0 -217 -115 -433 -366 -433c-84 0 -139 31 -175 76zM135 161l396 375c-27 45 -69 77 -138 77c-181 0 -271 -203 -271 -371
c0 -30 4 -57 13 -81zM547 490l-393 -373c27 -39 66 -64 126 -64c188 0 277 188 277 362c0 25 -3 51 -10 75z" />
    <glyph glyph-name="OE" unicode="&#x152;" horiz-adv-x="868" 
d="M413 63l115 541c-36 7 -62 9 -95 9c-214 0 -311 -209 -311 -373c0 -101 56 -187 200 -187c29 0 60 3 91 10zM744 0h-327c-28 -5 -72 -11 -103 -11c-203 0 -272 113 -272 249c0 211 134 439 402 439c43 0 81 -3 114 -10h317l-13 -63h-261l-49 -231h248l-14 -62h-247
l-53 -248h272z" />
    <glyph glyph-name="Scedilla" unicode="&#x15e;" horiz-adv-x="467" 
d="M46 -161l15 35c25 -11 49 -17 72 -17c27 0 54 12 54 37c0 20 -19 26 -36 26c-12 0 -25 -2 -40 -7l-13 18l48 58h-9c-53 0 -105 7 -152 26l23 71c28 -17 85 -34 132 -34c93 0 173 35 173 135c0 131 -228 140 -228 302c0 132 116 188 232 188c45 0 102 -8 139 -24l-21 -66
c-31 17 -80 28 -119 28c-70 0 -150 -28 -150 -119c0 -120 228 -128 228 -303c0 -118 -86 -190 -211 -201l-36 -45c15 3 19 4 32 4c36 0 60 -21 60 -53c0 -49 -44 -78 -108 -78c-31 0 -54 4 -85 19z" />
    <glyph glyph-name="Tbar" unicode="&#x166;" horiz-adv-x="463" 
d="M199 0h-78l82 387h-138l13 60h138l33 154h-195l14 66h468l-14 -66h-195l-33 -154h141l-13 -60h-141z" />
    <glyph glyph-name="Thorn" unicode="&#xde;" horiz-adv-x="510" 
d="M95 0h-79l142 667h79l-29 -135h102c109 0 172 -78 172 -154c0 -179 -148 -231 -261 -231h-95zM195 470l-56 -261h47c116 0 216 25 216 164c0 48 -45 97 -113 97h-94z" />
    <glyph glyph-name="Uogonek" unicode="&#x172;" horiz-adv-x="642" 
d="M332 -125l8 -35c-27 -12 -48 -20 -83 -20c-53 0 -85 29 -85 68c0 41 26 77 71 101c-104 3 -196 56 -196 175c0 23 0 44 7 71l93 432h77l-92 -432c-5 -21 -7 -44 -7 -64c1 -67 41 -117 144 -117c108 0 175 75 196 182l91 431h78l-91 -431c-33 -157 -119 -232 -248 -245
c-45 -29 -68 -59 -68 -91c0 -29 24 -40 45 -40s37 4 60 15z" />
    <glyph glyph-name="aogonek" unicode="&#x105;" horiz-adv-x="539" 
d="M387 286l34 154c-19 7 -35 9 -54 9c-149 0 -266 -156 -266 -296c0 -56 18 -104 85 -104c80 0 172 106 201 237zM423 -125l8 -35c-27 -12 -48 -20 -83 -20c-53 0 -85 29 -85 68c0 48 35 88 94 112h-11c1 27 6 76 17 132c-29 -59 -95 -143 -204 -143
c-88 0 -133 67 -133 157c0 194 164 362 356 362c47 0 77 -6 121 -21l-57 -267c-20 -93 -28 -169 -28 -220h-16c-56 -31 -84 -65 -84 -100c0 -29 24 -40 45 -40s37 4 60 15z" />
    <glyph glyph-name="ae" unicode="&#xe6;" horiz-adv-x="826" 
d="M689 84l5 -61c-47 -24 -106 -34 -159 -34c-100 0 -149 53 -162 144c-23 -52 -98 -144 -212 -144c-88 0 -134 65 -134 156c0 195 163 364 355 364c45 0 90 -8 119 -16l-20 -82c42 44 103 97 187 97c66 0 129 -31 129 -106c0 -164 -220 -176 -349 -176
c-7 -20 -10 -47 -10 -70c0 -72 42 -110 114 -110c45 0 98 14 137 38zM489 338c-12 -20 -22 -40 -29 -59c109 0 266 11 266 117c0 45 -35 57 -74 57c-67 0 -126 -55 -163 -115zM388 287l36 155c-19 7 -39 8 -59 8c-148 0 -262 -158 -262 -298c0 -56 18 -103 85 -103
c80 0 171 106 200 238z" />
    <glyph glyph-name="ccedilla" unicode="&#xe7;" horiz-adv-x="457" 
d="M102 -161l15 35c25 -11 49 -17 72 -17c27 0 54 12 54 37c0 20 -19 26 -36 26c-12 0 -25 -2 -40 -7l-13 18l47 60c-117 11 -167 94 -167 189c0 170 112 328 300 328c37 0 84 -7 117 -20l-18 -63c-33 17 -67 24 -102 24c-142 0 -221 -139 -221 -258c0 -76 37 -142 140 -142
c37 0 72 5 108 20l-9 -63c-32 -11 -68 -16 -112 -17l-34 -42c15 3 19 4 32 4c36 0 60 -21 60 -53c0 -49 -44 -78 -108 -78c-31 0 -54 4 -85 19z" />
    <glyph glyph-name="dcroat" unicode="&#x111;" horiz-adv-x="551" 
d="M387 286l34 154c-19 7 -39 9 -58 9c-148 0 -262 -156 -262 -296c0 -56 18 -104 85 -104c80 0 172 106 201 237zM418 0h-72c1 27 6 76 17 132c-29 -59 -95 -143 -204 -143c-88 0 -133 67 -133 157c0 194 161 362 353 362c19 0 40 -3 55 -8l18 90h-156l12 52h155l17 79h73
l-17 -79h83l-12 -52h-82l-79 -370c-20 -93 -28 -169 -28 -220z" />
    <glyph glyph-name="eth" unicode="&#xf0;" horiz-adv-x="560" 
d="M378 606l-119 -64l-27 38l107 57c-31 23 -78 40 -117 49l43 45c60 -15 111 -44 134 -63l110 61l28 -37l-101 -56c47 -57 83 -128 83 -215c0 -189 -78 -432 -305 -432c-104 0 -180 75 -180 186c0 160 108 321 282 321c63 0 109 -29 136 -81c0 66 -30 144 -74 191zM136 87
c19 -25 49 -38 90 -38c125 0 202 149 202 261c0 76 -38 128 -119 128c-127 0 -200 -145 -200 -256c0 -38 9 -70 27 -95z" />
    <glyph glyph-name="eogonek" unicode="&#x119;" horiz-adv-x="491" 
d="M154 338c-12 -20 -22 -40 -29 -59c109 0 266 11 266 117c0 45 -35 57 -74 57c-67 0 -126 -55 -163 -115zM278 -125l8 -35c-27 -12 -48 -20 -83 -20c-53 0 -85 29 -85 68c0 41 26 77 71 101c-95 4 -162 58 -162 161c0 188 148 358 304 358c68 0 131 -31 131 -106
c0 -164 -220 -176 -349 -176c-7 -20 -10 -47 -10 -70c0 -72 42 -110 114 -110c45 0 98 14 137 38l5 -61c-35 -19 -77 -28 -118 -32c-45 -29 -68 -59 -68 -91c0 -29 24 -40 45 -40s37 4 60 15z" />
    <glyph glyph-name="hbar" unicode="&#x127;" horiz-adv-x="535" 
d="M85 0h-73l125 590h-86l11 52h86l17 79h71l-17 -79h154l-11 -52h-155l-38 -175c47 61 99 93 174 93c77 0 133 -48 133 -124c0 -32 -1 -41 -12 -88l-63 -296h-73l63 297c5 23 7 46 7 66c0 49 -24 86 -84 86c-103 0 -153 -87 -172 -180z" />
    <glyph glyph-name="dotlessi" unicode="&#x131;" horiz-adv-x="224" 
d="M85 0h-73l104 498h74z" />
    <glyph glyph-name="iogonek" unicode="&#x12f;" horiz-adv-x="224" 
d="M213 609h-76l18 87h75zM97 -127l8 -35c-23 -11 -48 -18 -76 -18c-53 0 -85 29 -85 68c0 48 37 88 96 112h-28l104 498h74l-105 -498c-57 -32 -86 -65 -86 -100c0 -29 24 -40 45 -40c16 0 33 6 53 13z" />
    <glyph glyph-name="dotlessj" unicode="&#x237;" horiz-adv-x="232" 
d="M-131 -221l18 60c10 -4 21 -6 32 -6c52 0 74 48 82 93l120 572h73l-120 -580c-16 -79 -55 -145 -145 -145c-20 0 -41 1 -60 6z" />
    <glyph glyph-name="lslash" unicode="&#x142;" horiz-adv-x="236" 
d="M85 0h-73l67 315l-67 -57l14 65l66 54l73 344h73l-61 -286l94 81l-15 -68l-92 -78z" />
    <glyph glyph-name="oslash" unicode="&#xf8;" horiz-adv-x="560" 
d="M426 370l-294 -278c19 -28 48 -43 95 -43c138 0 207 164 207 255c0 24 -1 47 -8 66zM116 127l293 280c-21 28 -55 42 -100 42c-127 0 -201 -145 -201 -262c0 -24 1 -41 8 -60zM80 45l-77 -73l-26 30l80 76c-15 27 -23 57 -23 91c0 198 128 339 288 339
c55 0 105 -19 138 -54l76 73l29 -31l-80 -76c15 -27 23 -57 23 -90c0 -165 -100 -341 -289 -341c-59 0 -106 19 -139 56z" />
    <glyph glyph-name="oe" unicode="&#x153;" horiz-adv-x="867" 
d="M137 88c19 -26 50 -39 93 -39c128 0 195 151 195 265c0 80 -35 135 -119 135c-127 0 -197 -149 -197 -261c0 -41 9 -74 28 -100zM530 338c-12 -20 -22 -40 -29 -59c109 0 265 11 265 117c0 45 -35 57 -74 57c-68 0 -125 -55 -162 -115zM730 84l5 -61
c-47 -24 -106 -34 -159 -34c-75 0 -146 34 -154 114c-39 -71 -115 -114 -199 -114c-122 0 -189 78 -189 182c0 160 99 337 288 337c99 0 152 -69 165 -130c35 59 123 130 219 130c69 0 132 -31 132 -106c0 -164 -220 -176 -350 -176c-7 -20 -10 -47 -10 -70
c0 -72 42 -110 114 -110c45 0 99 14 138 38z" />
    <glyph glyph-name="scedilla" unicode="&#x15f;" horiz-adv-x="402" 
d="M22 -161l15 35c25 -11 49 -17 72 -17c27 0 54 12 54 37c0 20 -19 26 -36 26c-12 0 -25 -2 -40 -7l-13 18l47 58c-44 1 -91 7 -131 23l21 65c36 -21 76 -31 119 -31c55 0 116 21 116 92c0 98 -180 100 -180 228c0 101 96 142 183 142c39 0 89 -8 126 -23l-20 -60
c-32 16 -68 26 -105 26c-56 0 -111 -20 -111 -82c0 -82 182 -92 182 -226c0 -102 -78 -144 -162 -152l-36 -44c15 3 19 4 32 4c36 0 60 -21 60 -53c0 -49 -44 -78 -108 -78c-31 0 -54 4 -85 19z" />
    <glyph glyph-name="germandbls" unicode="&#xdf;" horiz-adv-x="539" 
d="M-150 -221l15 59c13 -4 26 -5 41 -5c67 0 90 70 106 151l111 533c27 126 101 214 238 214c79 0 166 -36 166 -128c0 -183 -195 -130 -195 -234c0 -75 150 -125 150 -219c0 -108 -82 -161 -182 -161c-43 0 -82 6 -121 23l19 63c31 -19 64 -28 99 -28c60 0 110 28 110 95
c0 77 -149 122 -149 220c0 143 196 90 196 233c0 61 -50 77 -102 77c-93 0 -139 -72 -155 -155l-113 -539c-19 -85 -57 -205 -175 -205c-24 0 -36 2 -59 6z" />
    <glyph glyph-name="tbar" unicode="&#x167;" horiz-adv-x="315" 
d="M241 63l-7 -61c-23 -9 -49 -13 -78 -13c-54 0 -100 25 -100 91c0 25 3 48 10 75l30 143h-78l10 51h79l20 91h-93l13 58h92l23 112l79 25l-28 -137h114l-12 -58h-115l-20 -91h99l-10 -51h-100l-31 -148c-4 -20 -7 -36 -7 -55c0 -33 21 -45 49 -45c20 0 41 5 61 13z" />
    <glyph glyph-name="thorn" unicode="&#xfe;" horiz-adv-x="541" 
d="M36 -216h-71l200 937h71l-78 -348c29 56 85 135 192 135c88 0 135 -67 135 -158c0 -187 -114 -361 -306 -361c-31 0 -65 1 -97 8zM128 212l-33 -154c31 -7 61 -9 88 -9c157 0 227 162 227 294c0 56 -19 106 -87 106c-81 0 -166 -106 -195 -237z" />
    <glyph glyph-name="uogonek" unicode="&#x173;" horiz-adv-x="531" 
d="M419 -125l8 -35c-27 -12 -48 -20 -83 -20c-53 0 -85 29 -85 68c0 48 35 88 94 112h-22l14 91c-45 -64 -93 -102 -174 -102s-135 50 -135 130c0 19 3 39 7 60l67 321h74l-64 -302c-4 -21 -8 -42 -8 -61c0 -48 23 -88 87 -88c99 0 147 88 166 173l58 278h74l-80 -382
c-8 -39 -15 -79 -19 -118c-56 -31 -84 -65 -84 -100c0 -29 24 -40 45 -40s37 4 60 15z" />
    <glyph glyph-name="grave.cap" unicode="&#xe000;" horiz-adv-x="224" 
d="M206 724h-59l-66 136h84z" />
    <glyph glyph-name="acute" unicode="&#xb4;" horiz-adv-x="224" 
d="M184 585h-59l99 136h84z" />
    <glyph glyph-name="acute.cap" unicode="&#xe002;" horiz-adv-x="224" 
d="M184 724h-59l99 136h84z" />
    <glyph glyph-name="circumflex" unicode="&#x2c6;" horiz-adv-x="224" 
d="M94 585h-65l131 136h73l72 -136h-64l-54 96z" />
    <glyph glyph-name="circumflex.cap" unicode="&#xe004;" horiz-adv-x="224" 
d="M94 724h-65l131 136h73l72 -136h-64l-54 96z" />
    <glyph glyph-name="caron" unicode="&#x2c7;" horiz-adv-x="224" 
d="M207 585h-73l-72 136h64l53 -97l94 97h65z" />
    <glyph glyph-name="caron.cap" unicode="&#xe006;" horiz-adv-x="224" 
d="M207 724h-73l-72 136h64l53 -97l94 97h65z" />
    <glyph glyph-name="caron.alt" unicode="&#xe008;" horiz-adv-x="224" 
d="M300 557h-53l56 164h75z" />
    <glyph glyph-name="tilde" unicode="&#x2dc;" horiz-adv-x="224" 
d="M78 599h-47c10 47 53 100 109 100c46 0 77 -41 107 -41c24 0 42 26 47 45h47c-11 -43 -53 -99 -105 -99c-50 0 -69 40 -106 40c-24 0 -48 -25 -52 -45z" />
    <glyph glyph-name="tilde.cap" unicode="&#xe009;" horiz-adv-x="224" 
d="M78 738h-47c10 47 52 100 109 100c46 0 77 -41 107 -41c24 0 42 26 47 45h47c-11 -43 -53 -99 -105 -99c-50 0 -69 40 -106 40c-24 0 -48 -25 -52 -45z" />
    <glyph glyph-name="dieresis" unicode="&#xa8;" horiz-adv-x="224" 
d="M284 609h-65l18 87h65zM132 609h-65l18 87h65z" />
    <glyph glyph-name="dieresis.cap" unicode="&#xe00b;" horiz-adv-x="224" 
d="M132 748h-65l18 87h65zM284 748h-65l18 87h65z" />
    <glyph glyph-name="macron" unicode="&#xaf;" horiz-adv-x="224" 
d="M289 628h-240l11 51h240z" />
    <glyph glyph-name="macron.cap" unicode="&#xe00d;" horiz-adv-x="224" 
d="M289 767h-240l11 51h240z" />
    <glyph glyph-name="uni02C9" unicode="&#x2c9;" horiz-adv-x="224" 
d="M289 628h-240l11 51h240z" />
    <glyph glyph-name="breve" unicode="&#x2d8;" horiz-adv-x="224" 
d="M77 710h42c0 -3 -1 -7 -1 -10c0 -39 24 -61 61 -61c43 0 77 31 90 71h42c-13 -67 -75 -117 -143 -117c-60 0 -94 34 -94 94c0 7 2 16 3 23z" />
    <glyph glyph-name="breve.cap" unicode="&#xe00f;" horiz-adv-x="224" 
d="M77 849h42c-1 -3 -1 -7 -1 -10c0 -39 24 -61 61 -61c43 0 77 31 90 71h42c-13 -67 -75 -117 -143 -117c-60 0 -94 34 -94 94c0 7 2 16 3 23z" />
    <glyph glyph-name="ring" unicode="&#x2da;" horiz-adv-x="224" 
d="M143 567c-32 14 -55 47 -55 86c0 52 46 92 97 92s91 -40 91 -92s-46 -93 -97 -93c-13 0 -25 2 -36 7zM140 611c11 -11 25 -17 40 -17c32 0 61 26 61 59c0 31 -25 58 -57 58s-60 -26 -60 -58c0 -17 5 -31 16 -42z" />
    <glyph glyph-name="ring.cap" unicode="&#xe011;" horiz-adv-x="224" 
d="M140 750c11 -11 25 -17 40 -17c32 0 61 26 61 59c0 31 -25 58 -57 58s-60 -26 -60 -58c0 -17 5 -31 16 -42zM143 706c-32 14 -55 47 -55 86c0 52 46 92 97 92s91 -40 91 -92s-46 -93 -97 -93c-13 0 -25 2 -36 7z" />
    <glyph glyph-name="hungarumlaut" unicode="&#x2dd;" horiz-adv-x="224" 
d="M278 585h-59l98 136h84zM110 585h-59l99 136h84z" />
    <glyph glyph-name="hungarumlaut.cap" unicode="&#xe013;" horiz-adv-x="224" 
d="M110 724h-59l99 136h84zM278 724h-59l98 136h84z" />
    <glyph glyph-name="dotaccent" unicode="&#x2d9;" horiz-adv-x="224" 
d="M213 609h-76l18 87h75z" />
    <glyph glyph-name="dotaccent.cap" unicode="&#xe015;" horiz-adv-x="224" 
d="M213 748h-76l18 87h75z" />
    <glyph glyph-name="cedilla" unicode="&#xb8;" horiz-adv-x="224" 
d="M-52 -161l15 35c25 -11 49 -17 72 -17c27 0 54 12 54 37c0 20 -19 26 -36 26c-12 0 -25 -2 -40 -7l-13 18l57 69h37l-45 -53c15 3 19 4 32 4c36 0 60 -21 60 -53c0 -49 -44 -78 -108 -78c-31 0 -54 4 -85 19z" />
    <glyph glyph-name="ogonek" unicode="&#x2db;" horiz-adv-x="224" 
d="M134 -125l8 -35c-27 -12 -48 -20 -83 -20c-53 0 -85 29 -85 68c0 48 35 88 94 112h45c-56 -31 -84 -65 -84 -100c0 -29 24 -40 45 -40s37 4 60 15z" />
    <glyph glyph-name="commaaccent" unicode="&#xe017;" horiz-adv-x="224" 
d="M173 -227h-51l61 159h70z" />
    <glyph glyph-name="commaaccent.alt" unicode="&#xe01a;" horiz-adv-x="224" 
d="M391 585h-63l65 136h45z" />
    <glyph glyph-name="ellipsis" unicode="&#x2026;" horiz-adv-x="1000" 
d="M796 0h-85l20 89h84zM469 0h-86l20 89h85zM141 0h-85l19 89h85z" />
    <glyph glyph-name="uni00AD" unicode="&#xad;" horiz-adv-x="320" 
d="M269 277h-238l14 66h238z" />
    <glyph glyph-name="exclamdown" unicode="&#xa1;" horiz-adv-x="268" 
d="M196 408h-85l18 89h86zM74 -170h-87l118 498h63z" />
    <glyph glyph-name="questiondown" unicode="&#xbf;" horiz-adv-x="407" 
d="M313 409h-84l18 89h85zM295 -83l-10 -66c-29 -9 -74 -30 -149 -30c-77 0 -153 51 -153 129c0 177 202 194 230 344l6 35h70l-7 -33c-40 -176 -221 -204 -221 -327c0 -56 45 -84 98 -84c48 0 97 16 136 32z" />
    <glyph glyph-name="quoteleft" unicode="&#x2018;" horiz-adv-x="271" 
d="M174 504h-81l125 217h60z" />
    <glyph glyph-name="quoteright" unicode="&#x2019;" horiz-adv-x="271" 
d="M157 504h-60l104 217h81z" />
    <glyph glyph-name="quotedblleft" unicode="&#x201c;" horiz-adv-x="440" 
d="M343 504h-82l126 217h60zM174 504h-81l125 217h60z" />
    <glyph glyph-name="quotedblright" unicode="&#x201d;" horiz-adv-x="440" 
d="M326 504h-60l104 217h81zM157 504h-60l104 217h81z" />
    <glyph glyph-name="quotesinglbase" unicode="&#x201a;" horiz-adv-x="271" 
d="M17 -128h-60l104 217h81z" />
    <glyph glyph-name="quotedblbase" unicode="&#x201e;" horiz-adv-x="440" 
d="M186 -128h-60l104 217h81zM17 -128h-60l104 217h81z" />
    <glyph glyph-name="guilsinglleft" unicode="&#x2039;" horiz-adv-x="271" 
d="M173 55h-64l-95 200l167 198h67l-165 -198z" />
    <glyph glyph-name="guilsinglright" unicode="&#x203a;" horiz-adv-x="271" 
d="M54 55h-67l165 199l-89 199h63l96 -199z" />
    <glyph glyph-name="guillemotleft" unicode="&#xab;" horiz-adv-x="444" 
d="M345 55h-64l-95 200l167 198h68l-165 -198zM173 55h-64l-95 200l167 198h67l-165 -198z" />
    <glyph glyph-name="guillemotright" unicode="&#xbb;" horiz-adv-x="444" 
d="M226 55h-67l165 199l-89 199h63l96 -199zM54 55h-67l165 199l-89 199h63l96 -199z" />
    <glyph glyph-name="endash" unicode="&#x2013;" horiz-adv-x="500" 
d="M489 282h-491l12 56h491z" />
    <glyph glyph-name="emdash" unicode="&#x2014;" horiz-adv-x="1000" 
d="M989 282h-991l12 56h991z" />
    <glyph glyph-name="bullet" unicode="&#x2022;" horiz-adv-x="542" 
d="M227 205c-40 18 -67 57 -67 105c0 63 49 114 111 114c61 0 113 -51 113 -114s-52 -114 -113 -114c-15 0 -30 3 -44 9z" />
    <glyph glyph-name="periodcentered" unicode="&#xb7;" horiz-adv-x="271" 
d="M162 265h-86l19 88h85z" />
    <glyph glyph-name="uni2219" unicode="&#x2219;" horiz-adv-x="271" 
d="M162 265h-86l19 88h85z" />
    <glyph glyph-name="dagger" unicode="&#x2020;" horiz-adv-x="542" 
d="M203 -128h-75l117 556h-172l14 66h172l47 227h75l-47 -227h173l-14 -66h-172z" />
    <glyph glyph-name="daggerdbl" unicode="&#x2021;" horiz-adv-x="542" 
d="M203 -128h-75l47 227h-172l13 66h173l57 263h-173l14 66h173l46 227h76l-47 -227h172l-14 -66h-172l-57 -263h172l-14 -66h-172z" />
    <glyph glyph-name="section" unicode="&#xa7;" horiz-adv-x="542" 
d="M7 -86l21 62c49 -25 92 -42 148 -42c64 0 138 35 138 108c0 39 -32 60 -67 77l-103 52c-39 19 -63 54 -63 97c0 71 61 117 114 154c-29 19 -47 50 -47 85c0 115 104 170 210 170c51 0 90 -12 135 -28l-19 -61c-31 17 -76 31 -112 31c-62 0 -139 -22 -139 -97
c0 -40 38 -65 70 -81l86 -45c39 -20 70 -46 70 -93c0 -69 -55 -116 -103 -156c27 -20 43 -50 43 -85c0 -130 -106 -186 -223 -186c-53 0 -112 15 -159 38zM199 219l99 -50c33 27 79 70 79 117c0 35 -33 54 -62 69l-78 40c-37 -19 -84 -67 -84 -112c0 -29 22 -52 46 -64z" />
    <glyph glyph-name="paragraph" unicode="&#xb6;" horiz-adv-x="542" 
d="M196 -108h-64l91 430c-83 0 -164 44 -164 136c0 147 125 218 258 218h234l-167 -784h-64l154 729h-123z" />
    <glyph glyph-name="brokenbar" unicode="&#xa6;" horiz-adv-x="216" 
d="M145 379h-72v396h72v-396zM145 -216h-72v397h72v-397z" />
    <glyph glyph-name="copyright" unicode="&#xa9;" horiz-adv-x="792" 
d="M262 16c-124 53 -210 175 -210 318c0 189 154 343 344 343s344 -154 344 -343c0 -190 -154 -345 -344 -345c-47 0 -92 9 -134 27zM194 129c52 -53 122 -86 202 -86c160 0 284 133 284 291c0 157 -125 289 -284 289s-284 -132 -284 -289c0 -79 31 -152 82 -205zM522 206
l4 -54c-31 -13 -63 -19 -96 -19c-134 0 -220 78 -220 201c0 120 91 201 220 201c31 0 67 -6 96 -17l-4 -54c-27 11 -59 19 -88 19c-103 0 -162 -61 -162 -149c0 -89 58 -149 162 -149c32 0 59 9 88 21z" />
    <glyph glyph-name="registered" unicode="&#xae;" horiz-adv-x="774" 
d="M253 16c-124 53 -210 175 -210 318c0 189 154 343 344 343s344 -154 344 -343c0 -190 -154 -345 -344 -345c-47 0 -92 9 -134 27zM185 129c52 -52 122 -86 202 -86c159 0 284 134 284 291s-125 289 -284 289s-284 -132 -284 -289c0 -79 31 -152 82 -205zM314 145h-59v391
h130c71 0 134 -28 134 -103c0 -52 -46 -87 -98 -95c33 -7 49 -24 61 -51l64 -142h-63l-54 122c-17 37 -31 51 -80 51h-35v-173zM314 488v-122h44c48 0 99 13 99 65c0 49 -49 57 -100 57h-43z" />
    <glyph glyph-name="trademark" unicode="&#x2122;" horiz-adv-x="926" 
d="M490 266h-60v401h98l141 -336l137 336h97v-401h-62v357l-145 -357h-59l-147 357v-357zM243 266h-63v353h-131v48h326v-48h-132v-353z" />
    <glyph glyph-name="currency" unicode="&#xa4;" horiz-adv-x="542" 
d="M64 101l-41 40l64 64c-29 39 -44 77 -44 128c0 47 14 89 43 128l-64 64l41 40l63 -64c37 29 80 43 129 43c51 0 88 -14 128 -42l63 62l41 -40l-63 -63c27 -39 43 -80 43 -129c0 -48 -15 -87 -44 -126l64 -66l-40 -40l-65 65c-37 -30 -80 -45 -127 -45s-91 17 -128 44z
M116 273c23 -53 77 -91 139 -91c83 0 150 67 150 150s-67 151 -150 151c-84 0 -151 -67 -151 -151c0 -21 4 -40 12 -59z" />
    <glyph glyph-name="Euro" unicode="&#x20ac;" horiz-adv-x="542" 
d="M103 241h-89l22 51h71c3 27 7 55 14 82h-78l22 51h72c45 135 167 252 316 252c43 0 84 -8 123 -24l-27 -64c-36 17 -66 22 -106 22c-103 0 -192 -94 -224 -186h262l-21 -51h-259c-8 -27 -13 -55 -16 -82h241l-21 -51h-224c0 -95 34 -187 146 -187c39 0 78 5 113 20
l-2 -70c-39 -12 -79 -15 -120 -15c-154 0 -215 112 -215 252z" />
    <glyph glyph-name="cent" unicode="&#xa2;" horiz-adv-x="542" 
d="M265 0h-48l20 92c-84 13 -139 81 -139 169c0 155 89 294 244 313l20 93h48l-18 -91c32 -1 67 -8 98 -19l-18 -61c-32 17 -67 23 -102 23c-121 0 -199 -127 -199 -239c0 -69 40 -133 115 -133c40 0 79 7 117 21l-9 -62c-36 -11 -72 -15 -109 -16z" />
    <glyph glyph-name="sterling" unicode="&#xa3;" horiz-adv-x="542" 
d="M401 0h-390l13 61h80l57 270h-75l12 61h76l11 57c29 140 104 228 260 228c35 0 83 -12 106 -20l-20 -64c-23 14 -55 21 -95 21c-125 0 -159 -92 -175 -171l-11 -51h164l-13 -61h-165l-57 -270h235z" />
    <glyph glyph-name="florin" unicode="&#x192;" horiz-adv-x="542" 
d="M3 -222l5 59c13 -3 28 -4 44 -4c68 0 91 98 102 151l76 357h-108v59h120l23 109c19 83 55 168 157 168c19 0 39 -3 58 -9l-6 -58c-15 4 -30 8 -45 8c-61 0 -82 -66 -93 -114l-23 -104h108v-59h-120l-76 -363c-19 -85 -53 -205 -155 -205c-23 0 -44 1 -67 5z" />
    <glyph glyph-name="yen" unicode="&#xa5;" horiz-adv-x="542" 
d="M231 0h-76l31 148h-144l11 52h144l17 79h-143l10 52h119l-101 336h81l88 -323l226 323h81l-249 -336h123l-11 -52h-148l-17 -79h148l-11 -52h-148z" />
    <glyph glyph-name="ordfeminine" unicode="&#xaa;" horiz-adv-x="370" 
d="M295 536l20 89c-9 3 -21 5 -36 5c-86 0 -155 -86 -155 -166c0 -35 15 -58 51 -58c45 0 106 65 120 130zM328 366h-58c0 17 4 47 11 78c-31 -48 -74 -85 -131 -85c-56 0 -87 38 -87 98c0 117 99 220 227 220c35 0 62 -4 95 -13l-38 -165c-13 -57 -19 -105 -19 -133z" />
    <glyph glyph-name="ordmasculine" unicode="&#xba;" horiz-adv-x="370" 
d="M144 427c11 -13 28 -20 49 -20c73 0 123 80 123 149c0 49 -24 73 -71 73c-70 0 -118 -83 -118 -150c0 -21 6 -39 17 -52zM97 389c-21 21 -32 49 -32 84c0 108 77 204 191 204c76 0 123 -45 123 -114c0 -109 -77 -204 -191 -204c-39 0 -69 10 -91 30z" />
    <glyph glyph-name="fraction" unicode="&#x2044;" horiz-adv-x="169" 
d="M-95 -24h-58l423 715h58z" />
    <glyph glyph-name="uni2215" unicode="&#x2215;" horiz-adv-x="169" 
d="M-95 -24h-58l423 715h58z" />
    <glyph glyph-name="onequarter" unicode="&#xbc;" horiz-adv-x="900" 
d="M224 266h-63l75 336l-95 -60l-27 47l145 82h54zM669 346l-190 -208h143zM611 87h-203l12 57l246 261h73l-59 -266h59l-11 -52h-59l-19 -87h-59zM212 -24h-57l423 715h57z" />
    <glyph glyph-name="onehalf" unicode="&#xbd;" horiz-adv-x="900" 
d="M713 0h-275l12 52l141 110c75 59 117 97 117 142c0 31 -30 56 -74 56c-45 0 -74 -11 -105 -26l6 53c31 15 72 24 115 24c71 0 122 -36 122 -97c0 -72 -54 -122 -138 -186l-100 -77h191zM209 266h-63l75 336l-95 -60l-27 47l145 82h54zM196 -24h-57l423 715h57z" />
    <glyph glyph-name="threequarters" unicode="&#xbe;" horiz-adv-x="900" 
d="M48 275l14 52c27 -12 67 -17 98 -17c68 0 126 27 126 87c0 40 -49 55 -97 55h-48l11 49h46c56 0 121 17 121 73c0 36 -38 54 -85 54c-39 0 -67 -7 -98 -19l8 51c27 9 60 17 108 17c64 0 130 -28 130 -94c0 -60 -44 -95 -95 -108c39 -9 62 -41 62 -77
c0 -99 -103 -139 -191 -139c-35 0 -75 4 -110 16zM747 346l-190 -208h143zM689 87h-203l12 57l246 261h73l-59 -266h59l-11 -52h-59l-19 -87h-59zM290 -24h-57l423 715h57z" />
    <glyph glyph-name="perthousand" unicode="&#x2030;" horiz-adv-x="1269" 
d="M947 0c-42 20 -59 65 -59 117c0 111 61 284 205 284c80 0 114 -54 114 -121c0 -115 -55 -291 -207 -291c-21 0 -38 4 -53 11zM581 0c-43 20 -60 65 -60 117c0 111 62 284 206 284c80 0 113 -54 113 -121c0 -115 -53 -291 -206 -291c-21 0 -38 4 -53 11zM268 -24h-57
l423 715h58zM123 275c-43 22 -60 65 -60 118c0 111 62 284 206 284c80 0 113 -54 113 -121c0 -115 -53 -291 -206 -291c-21 0 -38 3 -53 10zM959 55c9 -15 26 -24 51 -24c99 0 137 179 137 249c0 40 -11 79 -63 79c-99 0 -137 -179 -137 -249c0 -20 3 -39 12 -55zM593 55
c9 -15 26 -24 51 -24c99 0 137 179 137 249c0 40 -11 79 -63 79c-99 0 -137 -179 -137 -249c0 -20 3 -39 12 -55zM135 331c9 -15 26 -24 51 -24c99 0 137 179 137 249c0 40 -11 79 -63 79c-99 0 -137 -179 -137 -249c0 -20 3 -39 12 -55z" />
    <glyph glyph-name="minus" unicode="&#x2212;" horiz-adv-x="542" 
d="M506 215h-502v59h502v-59z" />
    <glyph glyph-name="plusminus" unicode="&#xb1;" horiz-adv-x="542" 
d="M234 266h-219v60h219v175h64v-175h219v-60h-219v-174h-64v174zM517 -13h-502v60h502v-60z" />
    <glyph glyph-name="multiply" unicode="&#xd7;" horiz-adv-x="542" 
d="M266 201l-193 -193l-44 44l192 192l-192 193l43 45l193 -194l193 193l45 -44l-193 -193l193 -192l-45 -45z" />
    <glyph glyph-name="divide" unicode="&#xf7;" horiz-adv-x="542" 
d="M265 372c-28 0 -51 23 -51 52s22 53 51 53s52 -24 52 -53s-23 -52 -52 -52zM517 214h-502v60h502v-60zM265 11c-29 0 -51 24 -51 53s23 52 51 52c29 0 52 -23 52 -52s-23 -53 -52 -53z" />
    <glyph glyph-name="notequal" unicode="&#x2260;" horiz-adv-x="542" 
d="M154 -24l-53 28l62 115h-148v60h180l68 130h-248v60h280l78 147l52 -27l-64 -120h156v-60h-188l-68 -130h256v-60h-288z" />
    <glyph glyph-name="approxequal" unicode="&#x2248;" horiz-adv-x="600" 
d="M66 256h-46c11 70 42 141 125 141c92 0 194 -73 279 -73c47 0 70 35 79 78h44c-5 -68 -45 -138 -123 -138c-92 0 -200 72 -280 72c-45 0 -71 -37 -78 -80zM66 86h-46c11 70 41 140 125 140c92 0 194 -72 279 -72c47 0 70 35 79 78h44c-5 -69 -45 -139 -123 -139
c-92 0 -200 73 -280 73c-45 0 -71 -37 -78 -80z" />
    <glyph glyph-name="lessequal" unicode="&#x2264;" horiz-adv-x="542" 
d="M529 74l-502 189v66l502 188v-66l-420 -155l420 -157v-65zM529 -28h-502v60h502v-60z" />
    <glyph glyph-name="greaterequal" unicode="&#x2265;" horiz-adv-x="542" 
d="M517 263l-502 -189v65l418 157l-418 155v66l502 -188v-66zM517 -28h-502v60h502v-60z" />
    <glyph glyph-name="logicalnot" unicode="&#xac;" horiz-adv-x="600" 
d="M472 309h-439v60h502v-250h-63v190z" />
    <glyph glyph-name="Delta" unicode="&#x2206;" horiz-adv-x="750" 
d="M678 0h-639l279 672h78zM357 605l-227 -546h456z" />
    <glyph glyph-name="Omega" unicode="&#x2126;" horiz-adv-x="750" 
d="M321 0h-263v62h201v73c-122 24 -201 145 -201 265c0 164 144 282 301 282c156 0 300 -118 300 -282c0 -121 -79 -241 -202 -265v-73h202v-62h-264v177c118 3 193 106 193 218c0 125 -106 226 -229 226c-124 0 -230 -101 -230 -226c0 -112 75 -215 192 -218v-177z" />
    <glyph glyph-name="mu" unicode="&#xb5;" horiz-adv-x="542" 
d="M37 -216h-71l152 716h73l-63 -302c-4 -21 -9 -42 -9 -61c0 -48 23 -88 87 -88c100 0 148 88 167 173l58 278h74l-80 -382c-8 -39 -16 -79 -20 -118h-66l14 91c-44 -64 -92 -101 -167 -101c-48 0 -83 22 -96 42z" />
    <glyph glyph-name="degree" unicode="&#xb0;" 
d="M143 430c-25 24 -41 58 -41 98c0 84 67 149 150 149c79 0 141 -59 141 -138c0 -84 -67 -148 -150 -148c-40 0 -75 15 -100 39zM159 495c16 -32 47 -55 86 -55c53 0 99 46 99 98c0 56 -37 90 -92 90c-57 0 -100 -38 -100 -97c0 -13 2 -25 7 -36z" />
    <glyph glyph-name="afii61289" unicode="&#x2113;" horiz-adv-x="500" 
d="M279 567l-49 -228c69 64 171 182 171 278c0 32 -17 56 -42 56c-32 0 -63 -25 -80 -106zM71 168h-2l-21 39l105 84l56 262c24 116 84 168 156 168c56 0 94 -41 94 -100c0 -120 -116 -247 -242 -346c-35 -145 -35 -164 -35 -180c0 -44 29 -57 54 -57c29 0 56 10 99 41h2
l19 -40c-48 -36 -90 -53 -137 -53c-63 0 -106 33 -106 97c0 16 3 36 27 145z" />
    <glyph glyph-name="estimated" unicode="&#x212e;" horiz-adv-x="600" 
d="M157 440v-145h291v145c-42 40 -91 60 -147 60s-104 -20 -144 -60zM157 259v-181c39 -39 88 -59 145 -59c84 0 142 36 193 120l35 -21c-61 -96 -123 -135 -228 -135c-157 0 -258 122 -258 276c0 155 101 276 258 276c154 0 259 -114 259 -276h-404z" />
    <glyph glyph-name="infinity" unicode="&#x221e;" horiz-adv-x="777" 
d="M129 176c19 -19 44 -30 72 -30c64 0 99 66 136 106c-33 44 -76 101 -135 101c-56 0 -101 -48 -101 -104c0 -28 11 -53 28 -73zM433 274l-26 -32c35 -45 74 -101 135 -101c57 0 100 49 100 105c0 53 -43 102 -98 102c-39 0 -80 -37 -111 -74zM406 157
c-11 14 -21 29 -32 44c-46 -59 -88 -109 -168 -109c-88 0 -158 66 -158 155c0 88 64 159 155 159c77 0 127 -55 167 -114c45 58 85 111 166 111c90 0 160 -65 160 -156c0 -88 -64 -159 -155 -159c-62 0 -101 29 -135 69z" />
    <glyph glyph-name="partialdiff" unicode="&#x2202;" horiz-adv-x="542" 
d="M147 87c24 -32 57 -55 104 -55c122 0 146 180 154 270c-40 43 -87 76 -148 76c-99 0 -144 -84 -144 -173c0 -41 11 -85 34 -118zM122 620l-36 44c44 36 88 56 145 56c189 0 243 -205 243 -357c0 -142 -43 -376 -226 -376c-124 0 -198 113 -198 228c0 116 74 209 194 209
c65 0 118 -29 163 -74v34c-4 106 -24 289 -166 289c-45 0 -88 -18 -119 -53z" />
    <glyph glyph-name="integral" unicode="&#x222b;" horiz-adv-x="542" 
d="M97 -217l6 58c15 -7 32 -10 48 -10c71 0 72 72 72 108v677c0 71 11 169 131 169c19 0 45 -1 62 -10l-6 -58c-15 7 -32 10 -48 10c-71 0 -71 -77 -71 -108v-677c0 -71 -13 -169 -132 -169c-19 0 -45 2 -62 10z" />
    <glyph glyph-name="radical" unicode="&#x221a;" horiz-adv-x="600" 
d="M335 -200h-58l-158 345l-46 -22l-23 45l102 47l149 -331l160 916h56z" />
    <glyph glyph-name="summation" unicode="&#x2211;" horiz-adv-x="750" 
d="M669 -200h-606v60l274 448l-255 435v57h569v-58h-491l255 -434l-275 -445h529v-63z" />
    <glyph glyph-name="product" unicode="&#x220f;" horiz-adv-x="750" 
d="M155 -200h-65v1000h538v-1000h-65v937h-408v-937z" />
    <glyph glyph-name="lozenge" unicode="&#x25ca;" horiz-adv-x="600" 
d="M314 0h-63l-170 400l171 400h62l172 -400zM146 400l137 -333l137 333l-137 333z" />
    <glyph glyph-name="uniF8FF" unicode="&#xf8ff;" horiz-adv-x="512" 
d="M269 117h-59v64h59v-64zM263 241h-47v9c0 123 112 131 112 236c0 44 -31 77 -82 77c-33 0 -66 -8 -98 -21l-4 47c33 13 63 20 102 20c79 0 134 -44 134 -124c0 -115 -117 -128 -117 -233v-11zM512 0h-512v718h512v-718zM50 667v-617h412v617h-412z" />
    <glyph glyph-name="pi" unicode="&#x3c0;" horiz-adv-x="581" 
d="M563 438h-89l-61 -288c-4 -20 -6 -37 -6 -55c0 -33 20 -45 47 -45c11 0 22 2 33 4l-4 -59c-17 -4 -34 -6 -52 -6c-53 0 -97 24 -97 90c0 8 0 26 5 50l64 309h-193l-93 -438h-72l91 438h-90l13 60h517z" />
    <glyph glyph-name="uni0394" unicode="&#x394;" horiz-adv-x="618" 
d="M-62 0l402 667h93l120 -667h-615zM378 603l-318 -539h406z" />
    <glyph glyph-name="uni03A9" unicode="&#x3a9;" horiz-adv-x="708" 
d="M335 0l9 54c165 34 231 241 231 375c0 63 -22 184 -163 184c-160 0 -269 -188 -269 -365c0 -46 19 -153 100 -192l-8 -56h-255l12 66h79c14 0 63 -6 75 -9c-41 34 -85 104 -85 195c0 228 146 425 362 425c166 0 234 -131 234 -246c0 -189 -92 -329 -189 -375
c16 4 73 10 83 10h62l-13 -66h-265z" />
    <glyph glyph-name="uni03BC" unicode="&#x3bc;" horiz-adv-x="547" 
d="M489 498l-80 -371c-3 -13 -4 -24 -4 -33c0 -37 20 -44 40 -44c10 0 22 2 32 5l-5 -59c-14 -4 -33 -7 -57 -7c-40 0 -78 26 -78 98c-23 -33 -55 -98 -146 -98c-45 0 -80 20 -103 43l-53 -248h-70l148 714h72l-77 -401c11 -23 50 -45 91 -45c93 0 148 87 180 255l37 191h73
z" />
    <glyph glyph-name="alpha" unicode="&#x3b1;" horiz-adv-x="589" 
d="M501 55l-5 -59c-17 -5 -27 -7 -56 -7c-46 0 -80 24 -80 82c0 9 3 33 5 42c-47 -72 -110 -124 -204 -124c-71 0 -138 51 -138 154c0 187 124 365 280 365c73 0 123 -39 135 -89l25 89h71c-98 -343 -104 -387 -104 -411c0 -36 14 -46 39 -47c18 0 20 2 32 5zM312 451
c-124 0 -214 -159 -214 -292c0 -67 37 -111 93 -111c74 0 164 86 200 207l23 78c0 71 -36 118 -102 118z" />
    <glyph glyph-name="nu" unicode="&#x3bd;" horiz-adv-x="458" 
d="M384 498h79c-32 -141 -160 -376 -295 -498h-72l-41 498h77l26 -431c121 152 206 322 226 431z" />
    <glyph glyph-name="gamma" unicode="&#x3b3;" horiz-adv-x="477" 
d="M383 498h84c-54 -295 -211 -463 -295 -552c-11 -65 -17 -97 -31 -162h-70c28 122 42 213 42 314c0 127 -24 303 -63 400h78c24 -58 53 -221 53 -375c0 -23 -1 -59 -4 -83c93 96 199 288 206 458z" />
    <glyph glyph-name="omicron" unicode="&#x3bf;" horiz-adv-x="560" 
d="M508 330c0 -171 -103 -341 -285 -341c-122 0 -189 78 -189 182c0 160 98 337 288 337c115 0 186 -74 186 -178zM433 310c0 82 -37 139 -127 139c-127 0 -197 -150 -197 -261c0 -81 34 -139 121 -139c124 0 203 152 203 261z" />
    <glyph glyph-name="tau" unicode="&#x3c4;" horiz-adv-x="393" 
d="M285 64l-7 -61c-24 -9 -49 -13 -77 -13c-70 0 -97 41 -97 91c0 22 4 46 10 75l59 283h-138l12 59h351l-12 -59h-142l-60 -288c-4 -18 -6 -37 -6 -54c0 -31 17 -46 48 -46c19 0 41 5 59 13z" />
    <glyph glyph-name="iota" unicode="&#x3b9;" horiz-adv-x="282" 
d="M224 63l-9 -61c-25 -9 -49 -13 -78 -13c-69 0 -95 41 -95 91c0 22 4 46 10 75l73 343h71l-73 -348c-4 -18 -7 -37 -7 -54c0 -31 15 -46 46 -46c19 0 43 5 62 13z" />
    <glyph glyph-name="eta" unicode="&#x3b7;" horiz-adv-x="533" 
d="M474 380c0 -19 -2 -38 -7 -60l-112 -536h-73l108 518c4 21 9 42 9 61c0 48 -24 86 -88 86c-99 0 -149 -85 -167 -171l-59 -278h-73l79 381c8 39 16 78 20 117h67l-14 -89c48 64 96 99 177 99s133 -49 133 -128z" />
    <glyph glyph-name="kappa" unicode="&#x3ba;" horiz-adv-x="447" 
d="M459 498l-254 -223l173 -275h-84l-141 238l-30 -27l-42 -211h-69l99 498h70l-41 -208l228 208h91z" />
    <glyph glyph-name="lambda" unicode="&#x3bb;" horiz-adv-x="537" 
d="M379 607l15 -432c3 -87 8 -125 43 -125c11 0 23 4 34 10v-57c-19 -9 -38 -14 -58 -14c-76 0 -85 70 -86 139l-6 282l-250 -410h-81l322 514l-2 75c-1 54 -22 83 -58 83c-6 0 -27 -1 -38 -7l-3 63c13 2 27 3 40 3c71 0 125 -28 128 -124z" />
    <glyph glyph-name="theta" unicode="&#x3b8;" horiz-adv-x="543" 
d="M209 -11c-108 0 -163 87 -163 227c0 217 110 515 316 515c94 0 154 -93 154 -227v-13c-8 -242 -123 -502 -307 -502zM215 48c94 0 174 147 205 299h-287c-8 -37 -14 -76 -14 -125c0 -93 22 -174 96 -174zM349 671c-92 0 -165 -137 -203 -264h285c6 32 8 57 8 95
c0 91 -21 169 -90 169z" />
    <glyph glyph-name="rho" unicode="&#x3c1;" horiz-adv-x="516" 
d="M31 -216h-71l100 472c34 163 119 252 244 252c110 0 172 -71 172 -173c0 -173 -121 -346 -297 -346c-45 0 -75 14 -97 27zM399 319c0 62 -30 129 -101 129c-94 0 -151 -96 -176 -233l-25 -139c20 -18 50 -27 78 -27c129 0 224 131 224 270z" />
    <glyph glyph-name="upsilon" unicode="&#x3c5;" horiz-adv-x="525" 
d="M373 498h75c7 -32 12 -67 12 -109c0 -220 -90 -400 -269 -400c-89 0 -155 50 -155 151c0 14 1 27 6 58c8 45 26 129 61 300h75l-62 -295c-6 -27 -6 -46 -6 -54c0 -67 33 -100 88 -100c138 0 189 186 189 328c0 43 -4 86 -14 121z" />
    <glyph glyph-name="beta" unicode="&#x3b2;" horiz-adv-x="533" 
d="M351 414h11c76 0 114 -61 114 -125c-1 -135 -111 -300 -266 -300c-118 0 -170 86 -170 190c0 44 13 119 49 249c66 239 183 303 277 303c80 0 138 -46 138 -119c0 -90 -82 -163 -153 -198zM112 186c0 -89 38 -135 108 -135c109 0 179 132 179 234c0 62 -36 98 -94 98
c-33 0 -102 -17 -169 -42c-18 -71 -24 -121 -24 -155zM430 612c0 35 -25 65 -69 65c-79 0 -168 -118 -208 -269c37 7 84 22 118 33c80 26 159 95 159 171z" />
    <glyph glyph-name="epsilon" unicode="&#x3b5;" horiz-adv-x="465" 
d="M270 298h74l-15 -58h-87c-87 -1 -147 -61 -147 -112c0 -54 55 -81 121 -81c53 0 116 20 153 48l5 -67c-36 -20 -97 -39 -167 -39c-121 0 -187 51 -187 130c0 75 55 126 133 156c-25 8 -52 44 -52 83c0 89 104 150 203 150c62 0 104 -13 131 -21l-20 -64
c-26 14 -60 26 -111 26c-70 0 -133 -40 -133 -92c0 -51 48 -59 99 -59z" />
    <glyph glyph-name="delta" unicode="&#x3b4;" horiz-adv-x="508" 
d="M526 704l-21 -61c-23 10 -59 26 -108 26c-67 0 -121 -29 -121 -72c0 -35 31 -69 62 -103c74 -81 115 -159 115 -251c0 -135 -96 -254 -238 -254c-104 0 -190 70 -190 186c0 138 91 251 230 306c-34 35 -56 73 -56 109c0 92 105 141 188 141c69 0 110 -16 139 -27z
M296 435c-114 -42 -196 -127 -196 -256c0 -73 48 -130 116 -130c103 0 161 106 161 203c0 72 -36 132 -81 183z" />
    <glyph glyph-name="sigma" unicode="&#x3c3;" horiz-adv-x="571" 
d="M554 439h-68c-17 0 -54 1 -62 4c33 -23 62 -73 62 -137c0 -159 -93 -317 -267 -317c-99 0 -185 55 -185 200c0 137 97 309 315 309h217zM411 306c0 58 -19 132 -90 132c-135 0 -212 -129 -212 -251c0 -100 56 -138 114 -138c123 0 188 139 188 257z" />
    <glyph glyph-name="phi" unicode="&#x3c6;" horiz-adv-x="693" 
d="M222 506l38 -68c-92 -54 -157 -127 -157 -244c0 -99 64 -140 141 -146l56 250c34 153 100 210 194 210c95 0 154 -54 154 -147c0 -169 -101 -372 -341 -372l-43 -205h-73l43 206c-111 10 -210 66 -210 202c0 127 83 238 198 314zM317 47c133 1 258 121 258 306
c0 57 -33 92 -85 92c-65 0 -96 -50 -125 -182z" />
    <glyph glyph-name="omega" unicode="&#x3c9;" horiz-adv-x="738" 
d="M170 -11c-82 0 -144 61 -144 169c0 137 57 253 137 340h88c-88 -90 -149 -194 -149 -332c0 -72 28 -118 80 -118c73 0 123 109 140 206l22 129h74l-27 -134c-5 -26 -10 -61 -10 -94c0 -60 16 -107 69 -107c100 0 166 193 166 301c0 48 -6 102 -26 149h80
c13 -35 18 -85 18 -134c0 -146 -78 -375 -247 -375c-81 0 -108 46 -117 103c-35 -67 -86 -103 -154 -103z" />
    <glyph glyph-name="zeta" unicode="&#x3b6;" horiz-adv-x="389" 
d="M499 721l-14 -66c-220 -125 -366 -278 -366 -438c0 -101 40 -144 141 -192c49 -24 68 -64 68 -107c-3 -33 -19 -72 -41 -106h-72c25 31 46 61 46 96c0 21 -11 44 -57 67c-96 48 -158 109 -158 228c0 201 139 343 360 466c-20 -5 -48 -6 -77 -6h-166l12 58h324z" />
    <glyph glyph-name="xi" unicode="&#x3be;" horiz-adv-x="422" 
d="M318 398h85l-17 -64h-78c-115 0 -213 -76 -213 -182c0 -138 218 -118 218 -221c0 -41 -19 -74 -52 -119h-74c30 36 57 69 57 102c0 72 -219 63 -219 228c0 111 72 196 172 232c-31 14 -69 52 -69 114c0 147 121 243 247 243c54 0 102 -11 132 -22l-18 -64
c-30 14 -76 27 -122 27c-86 0 -171 -66 -171 -182c0 -65 53 -92 122 -92z" />
    <glyph glyph-name="psi" unicode="&#x3c8;" horiz-adv-x="679" 
d="M265 -216h-77l49 208l-1 -1c-116 4 -198 56 -198 168c0 12 2 30 5 44l63 295h76l-66 -306c-2 -11 -3 -24 -3 -33c0 -83 74 -108 135 -108l126 597h72l-126 -600c166 0 236 182 236 352c0 38 -2 58 -9 98h82c6 -29 10 -68 10 -97c0 -141 -68 -413 -331 -413z" />
    <glyph glyph-name="chi" unicode="&#x3c7;" horiz-adv-x="485" 
d="M197 410l34 -196l189 284h85l-247 -345l45 -235c14 -73 32 -83 52 -83c17 0 30 5 44 12l5 -58c-14 -10 -35 -16 -62 -16c-66 0 -92 53 -103 121l-34 212l-237 -322h-85l296 380l-46 219c-9 41 -17 67 -42 67c-13 0 -25 -6 -34 -11l-14 54c13 8 35 15 55 15
c47 0 86 -22 99 -98z" />
    <glyph glyph-name="Alpha" unicode="&#x391;" horiz-adv-x="618" 
d="M553 0h-80l-30 182h-316l-108 -182h-81l402 667h93zM434 245l-60 358l-212 -358h272z" />
    <glyph glyph-name="Beta" unicode="&#x392;" horiz-adv-x="531" 
d="M509 530c0 -93 -61 -166 -159 -183c76 -18 112 -66 112 -134c0 -167 -154 -213 -289 -213h-157l142 667h174c89 0 177 -41 177 -137zM430 522c0 65 -65 85 -119 85h-90l-48 -230h74c96 0 183 37 183 145zM383 217c0 86 -97 100 -164 100h-59l-54 -257h70
c105 0 207 29 207 157z" />
    <glyph glyph-name="Gamma" unicode="&#x393;" horiz-adv-x="448" 
d="M513 667l-14 -66h-277l-128 -601h-78l142 667h355z" />
    <glyph glyph-name="Epsilon" unicode="&#x395;" horiz-adv-x="489" 
d="M497 667l-14 -63h-260l-50 -231h248l-14 -62h-246l-54 -248h272l-14 -63h-349l142 667h339z" />
    <glyph glyph-name="Zeta" unicode="&#x396;" horiz-adv-x="491" 
d="M531 667l-13 -64l-450 -539h344l-14 -64h-435l14 64l453 539h-328l15 64h414z" />
    <glyph glyph-name="Eta" unicode="&#x397;" horiz-adv-x="648" 
d="M632 667l-142 -667h-77l66 310h-319l-66 -310h-78l142 667h78l-62 -290h319l62 290h77z" />
    <glyph glyph-name="Theta" unicode="&#x398;" horiz-adv-x="679" 
d="M193 306l14 69h281l-14 -69h-281zM638 422c0 -217 -116 -433 -366 -433c-178 0 -230 149 -230 246c0 214 125 442 362 442c185 0 234 -159 234 -255zM558 420c0 95 -45 193 -165 193c-183 0 -271 -208 -271 -376c0 -102 51 -184 158 -184c191 0 278 193 278 367z" />
    <glyph glyph-name="Iota" unicode="&#x399;" horiz-adv-x="253" 
d="M237 667l-142 -667h-79l142 667h79z" />
    <glyph glyph-name="Kappa" unicode="&#x39a;" horiz-adv-x="561" 
d="M618 667l-378 -320l256 -347h-95l-236 335l-72 -335h-77l142 667h77l-64 -301l344 301h103z" />
    <glyph glyph-name="Lambda" unicode="&#x39b;" horiz-adv-x="618" 
d="M476 0l-99 603l-355 -603h-84l402 667h93l120 -667h-77z" />
    <glyph glyph-name="Mu" unicode="&#x39c;" horiz-adv-x="863" 
d="M847 667l-142 -667h-76l130 603l-361 -603h-77l-104 604l-127 -604h-74l142 667h121l100 -579l348 579h120z" />
    <glyph glyph-name="Nu" unicode="&#x39d;" horiz-adv-x="671" 
d="M655 667l-142 -667h-108l-190 589l-126 -589h-73l142 667h109l191 -591l124 591h73z" />
    <glyph glyph-name="Xi" unicode="&#x39e;" horiz-adv-x="599" 
d="M-4 66h487l-16 -66h-486zM605 601h-486l16 66h485zM473 323h-345l15 66h345z" />
    <glyph glyph-name="Omicron" unicode="&#x39f;" horiz-adv-x="679" 
d="M638 422c0 -217 -116 -433 -366 -433c-178 0 -230 149 -230 246c0 214 125 442 362 442c185 0 234 -159 234 -255zM558 420c0 95 -45 193 -165 193c-183 0 -271 -208 -271 -376c0 -102 51 -184 158 -184c191 0 278 193 278 367z" />
    <glyph glyph-name="Pi" unicode="&#x3a0;" horiz-adv-x="640" 
d="M624 667l-140 -667h-79l126 601h-309l-128 -601h-78l142 667h466z" />
    <glyph glyph-name="Rho" unicode="&#x3a1;" horiz-adv-x="510" 
d="M508 513c0 -180 -147 -231 -260 -231h-94l-60 -282h-78l142 667h178c109 0 172 -78 172 -154zM429 508c0 50 -45 97 -112 97h-95l-55 -261h47c114 0 215 26 215 164z" />
    <glyph glyph-name="Tau" unicode="&#x3a4;" horiz-adv-x="463" 
d="M536 667l-14 -66h-195l-128 -601h-78l128 601h-195l14 66h468z" />
    <glyph glyph-name="Upsilon" unicode="&#x3a5;" horiz-adv-x="552" 
d="M626 667l-326 -389l-60 -278h-77l59 278l-160 389h88l125 -325l266 325h85z" />
    <glyph glyph-name="Chi" unicode="&#x3a7;" horiz-adv-x="587" 
d="M632 667l-289 -317l162 -350h-86l-131 306l-260 -306h-93l321 353l-155 314h86l124 -270l228 270h93z" />
    <glyph glyph-name="Phi" unicode="&#x3a6;" horiz-adv-x="751" 
d="M404 648l16 73h74l-16 -73c160 -12 245 -109 245 -222c0 -211 -153 -337 -365 -342l-17 -84h-74l17 84c-165 6 -245 109 -245 213c0 191 142 339 365 351zM463 578l-90 -427c149 0 273 103 273 261c0 94 -73 162 -183 166zM300 153l90 425c-149 -5 -270 -122 -270 -261
c0 -107 59 -161 180 -164z" />
    <glyph glyph-name="Sigma" unicode="&#x3a3;" horiz-adv-x="550" 
d="M430 0h-467l14 66l317 292l-206 242l14 67h445l-14 -67h-359l212 -248l-313 -286h371z" />
    <glyph glyph-name="Psi" unicode="&#x3a8;" horiz-adv-x="664" 
d="M102 667h78l-44 -208c-4 -20 -6 -38 -6 -55c0 -88 48 -135 150 -135l84 398h79l-84 -397c103 0 196 60 226 200l42 197h79l-40 -189c-41 -192 -143 -268 -322 -277l-42 -201h-79l42 201c-135 9 -213 87 -213 202c0 19 3 40 7 61z" />
    <glyph glyph-name="sigma1" unicode="&#x3c2;" horiz-adv-x="430" 
d="M409 498l-15 -68c-15 5 -49 15 -87 15c-119 0 -211 -120 -211 -250c0 -91 40 -122 111 -161c72 -39 88 -77 88 -100c0 -39 -18 -83 -47 -122h-68c24 35 45 68 45 91c0 34 -17 45 -78 80c-54 31 -127 85 -127 194c0 210 150 331 289 331c29 0 68 -3 100 -10z" />
    <glyph glyph-name="tonos" unicode="&#x384;" horiz-adv-x="224" 
d="M286 721l-86 -136h-62l61 136h87z" />
    <glyph glyph-name="anoteleia" unicode="&#x387;" horiz-adv-x="271" 
d="M215 498l-18 -89h-86l20 89h84z" />
    <glyph glyph-name="afii00208" unicode="&#x2015;" horiz-adv-x="1000" 
d="M1001 338l-12 -56h-991l12 56h991z" />
    <glyph glyph-name="dieresistonos" unicode="&#x385;" horiz-adv-x="305" 
d="M316 731l-94 -136h-61l70 136h85zM395 696l-18 -87h-65l18 87h65zM150 696l-18 -87h-65l18 87h65z" />
    <glyph glyph-name="cyrbreve" unicode="&#xe01f;" horiz-adv-x="224" 
d="M144 586c-91 0 -121 67 -125 96l47 26c6 -33 30 -63 84 -63s92 34 112 63l38 -26c-16 -32 -64 -96 -156 -96z" />
    <glyph glyph-name="cyrbreve.cap" unicode="&#xe020;" horiz-adv-x="224" 
d="M172 725c-91 0 -121 67 -125 96l48 27c6 -33 29 -64 83 -64s92 35 112 64l38 -27c-16 -32 -64 -96 -156 -96z" />
    <glyph glyph-name="afii10055" unicode="&#x406;" horiz-adv-x="253" 
d="M95 0h-79l142 667h79z" />
    <glyph glyph-name="afii10103" unicode="&#x456;" horiz-adv-x="224" 
d="M85 0h-73l104 498h74zM213 609h-76l18 87h75z" />
    <glyph glyph-name="afii10057" unicode="&#x408;" horiz-adv-x="311" 
d="M-69 1l16 65c17 -7 35 -11 55 -11c81 0 107 71 120 130l103 482h78l-104 -492c-24 -110 -83 -186 -199 -186c-28 0 -46 3 -69 12z" />
    <glyph glyph-name="afii10105" unicode="&#x458;" horiz-adv-x="232" 
d="M-131 -221l18 60c10 -4 21 -6 32 -6c52 0 74 48 82 93l120 572h73l-120 -580c-16 -79 -55 -145 -145 -145c-20 0 -41 1 -60 6zM217 609h-75l17 87h76z" />
    <glyph glyph-name="afii10098" unicode="&#x491;" horiz-adv-x="374" 
d="M12 0l105 498h226l29 133h67l-41 -191h-220l-94 -440h-72z" />
    <glyph glyph-name="afii10054" unicode="&#x405;" horiz-adv-x="467" 
d="M-15 15l23 71c28 -17 85 -34 132 -34c93 0 173 35 173 135c0 131 -228 140 -228 302c0 132 116 188 232 188c45 0 102 -8 139 -24l-21 -66c-31 17 -80 28 -119 28c-70 0 -150 -28 -150 -119c0 -120 228 -128 228 -303c0 -133 -105 -204 -257 -204c-53 0 -105 7 -152 26z
" />
    <glyph glyph-name="afii10102" unicode="&#x455;" horiz-adv-x="402" 
d="M-10 12l21 65c36 -21 76 -31 119 -31c55 0 116 21 116 92c0 98 -180 100 -180 228c0 101 96 142 183 142c39 0 89 -8 126 -23l-20 -60c-32 16 -68 26 -105 26c-56 0 -111 -20 -111 -82c0 -82 182 -92 182 -226c0 -115 -100 -154 -194 -154c-47 0 -94 6 -137 23z" />
    <glyph glyph-name="afii10104" unicode="&#x457;" horiz-adv-x="224" 
d="M85 0h-73l104 498h74zM128 609h-65l18 87h65zM280 609h-65l18 87h65z" />
    <glyph glyph-name="afii10145" unicode="&#x40f;" horiz-adv-x="641" 
d="M183 -171l36 171h-203l142 667h78l-129 -603h311l129 603h78l-142 -667h-189l-36 -171h-75z" />
    <glyph glyph-name="afii10193" unicode="&#x45f;" horiz-adv-x="531" 
d="M127 -166c1 0 30 141 31 141h70l-29 -141h-72zM171 -11c-81 0 -135 50 -135 130c0 19 2 39 7 60l68 319h73l-64 -300c-5 -21 -8 -42 -8 -61c0 -48 23 -88 87 -88c99 0 148 88 166 173l58 276h73l-79 -380c-8 -39 -15 -79 -19 -118h-67l14 91c-45 -64 -93 -102 -174 -102z
" />
    <glyph glyph-name="afii10058" unicode="&#x409;" horiz-adv-x="933" 
d="M10 -7c-25 0 -61 3 -80 13l18 61c16 -7 37 -9 54 -9c104 0 152 171 245 609h381l-57 -266h119c115 0 185 -78 185 -162c0 -191 -157 -239 -273 -239h-193l128 603h-227c-95 -442 -137 -610 -300 -610zM499 62h75c118 0 223 28 223 172c0 53 -48 104 -121 104h-118z" />
    <glyph glyph-name="afii10106" unicode="&#x459;" horiz-adv-x="783" 
d="M3 -6c-20 0 -48 4 -58 8c5 19 10 38 16 57c8 -3 22 -5 35 -5c79 0 118 116 188 444h319l-42 -193h130c86 0 139 -59 139 -130c0 -132 -103 -175 -201 -175h-205l94 439h-180c-65 -311 -109 -445 -235 -445zM409 58h119c80 0 130 39 130 115c0 41 -36 75 -96 75h-114z" />
    <glyph glyph-name="afii10059" unicode="&#x40a;" horiz-adv-x="917" 
d="M16 0l142 667h78l-61 -285h299l61 285h77l-59 -285h124c120 0 183 -71 183 -157c0 -134 -86 -225 -275 -225h-192l68 319h-299l-68 -319h-78zM485 61h111c107 0 183 54 183 161c0 60 -55 99 -137 99h-102z" />
    <glyph glyph-name="afii10107" unicode="&#x45a;" horiz-adv-x="773" 
d="M12 0l106 498h73l-42 -197h233l42 197h74l-43 -197h127c93 0 138 -65 138 -129c0 -96 -64 -172 -205 -172h-197l52 243h-233l-52 -243h-73zM404 57h114c77 0 129 36 129 113c0 41 -38 76 -97 76h-106z" />
    <glyph glyph-name="afii10053" unicode="&#x404;" horiz-adv-x="562" 
d="M327 -11c-203 0 -285 144 -285 274c0 256 185 414 404 414c66 0 120 -12 156 -26l-25 -67c-38 19 -83 29 -133 29c-161 0 -273 -101 -310 -238h311l-14 -62h-308c-1 -11 -2 -27 -2 -38c0 -126 70 -222 219 -222c49 0 92 9 142 31l-7 -67c-47 -20 -100 -28 -148 -28z" />
    <glyph glyph-name="afii10101" unicode="&#x454;" horiz-adv-x="457" 
d="M234 -11c-130 0 -200 86 -200 196c0 179 112 323 301 323c38 0 84 -5 116 -20l-18 -62c-28 16 -67 23 -105 23c-102 0 -172 -73 -203 -160h221l-11 -54h-223c-2 -13 -3 -30 -3 -43c0 -79 42 -144 140 -144c35 0 70 6 109 21l-9 -63c-33 -10 -74 -17 -115 -17z" />
    <glyph glyph-name="afii61352" unicode="&#x2116;" horiz-adv-x="1007" 
d="M23 0l144 667h102l185 -584l124 584h73l-141 -667h-105l-183 584l-126 -584h-73zM616 124l12 53h297l-12 -53h-297zM803 230c-83 0 -135 55 -135 142c0 104 67 210 178 210c84 0 136 -54 136 -141c0 -105 -66 -211 -179 -211zM808 283c73 0 109 94 109 156
c0 51 -25 91 -72 91c-75 0 -112 -91 -112 -160c0 -52 28 -87 75 -87z" />
    <glyph glyph-name="afii10060" unicode="&#x40b;" horiz-adv-x="722" 
d="M122 0l129 603h-168l13 64h463l-13 -64h-217l-54 -257c49 57 118 91 190 91c110 0 171 -55 171 -157c0 -20 -4 -45 -9 -70l-45 -210h-77l44 205c4 20 6 38 6 55c0 76 -43 116 -121 116c-87 0 -166 -64 -186 -159l-46 -217h-80z" />
    <glyph glyph-name="afii10051" unicode="&#x402;" horiz-adv-x="722" 
d="M413 -11c-60 0 -106 8 -138 20l19 66c20 -9 58 -20 99 -20c108 0 177 79 177 187c0 96 -57 134 -134 134c-89 0 -169 -66 -189 -161l-45 -215h-80l129 603h-168l13 64h463l-13 -64h-217l-54 -257c41 49 113 91 191 91c111 0 184 -74 184 -190c0 -154 -107 -258 -237 -258
z" />
    <glyph glyph-name="afii10108" unicode="&#x45b;" horiz-adv-x="535" 
d="M85 0h-73l125 590h-86l11 52h86l17 79h71l-17 -79h154l-11 -52h-155l-38 -175c47 61 99 93 174 93c77 0 133 -48 133 -124c0 -32 -1 -41 -12 -88l-63 -296h-73l63 297c5 23 7 46 7 66c0 49 -24 86 -84 86c-103 0 -153 -87 -172 -180z" />
    <glyph glyph-name="afii10099" unicode="&#x452;" horiz-adv-x="535" 
d="M167 -223c-23 0 -57 4 -75 9l18 60c15 -4 40 -6 48 -6c111 0 150 66 172 168l61 289c5 23 7 45 7 66c0 49 -24 86 -84 86c-105 0 -152 -87 -172 -180l-57 -269h-73l125 590h-86l12 52h85l17 79h71l-17 -79h154l-11 -52h-155l-38 -175c47 61 100 93 174 93
c77 0 133 -47 133 -124c0 -31 -2 -41 -12 -88l-62 -291c-35 -166 -100 -228 -235 -228z" />
    <glyph glyph-name="Aringacute" unicode="&#x1fa;" horiz-adv-x="618" 
d="M473 0l-33 182h-306l-115 -182h-81l383 598c-14 16 -23 37 -23 60c0 52 45 93 96 93c52 0 92 -41 92 -93c0 -33 -19 -61 -45 -78l112 -580h-80zM374 559l-200 -314h255zM390 600c32 0 60 24 60 58c0 32 -24 59 -56 59c-33 0 -61 -26 -61 -59c0 -34 26 -58 57 -58z
M435 778h-63l119 101h90z" />
    <glyph glyph-name="eng" unicode="&#x14b;" horiz-adv-x="533" 
d="M176 -220l18 59c10 -4 22 -6 33 -6c44 0 73 40 85 95l78 374c5 22 9 41 9 61c0 48 -24 86 -88 86c-99 0 -149 -85 -167 -171l-59 -278h-73l79 381c8 39 16 78 20 117h67l-14 -89c48 64 97 99 177 99c81 0 133 -48 133 -128c0 -19 -2 -37 -7 -60l-84 -402
c-17 -83 -63 -145 -149 -145c-21 0 -40 2 -58 7z" />
    <glyph glyph-name="Eng" unicode="&#x14a;" horiz-adv-x="671" 
d="M326 -227c-22 0 -42 4 -59 9l19 63c11 -4 25 -7 37 -7c53 0 88 28 102 94l10 49l-220 608l-126 -589h-73l142 667h107l200 -557l117 557h73l-156 -731c-24 -113 -83 -163 -173 -163z" />
    <glyph glyph-name="interrobang" unicode="&#x203d;" horiz-adv-x="409" 
d="M159 169h-64l70 364h65l-52 -216c22 30 49 58 72 79c64 57 83 89 83 139c0 56 -41 87 -110 87c-48 0 -98 -15 -137 -31l9 56c31 13 84 30 147 30c87 0 157 -47 157 -128c0 -170 -206 -198 -233 -345zM133 0h-85l19 89h84z" />
    <glyph glyph-name="published" unicode="&#x2117;" horiz-adv-x="790" 
d="M395 -11c-190 0 -344 154 -344 345c0 189 154 343 344 343s344 -154 344 -343c0 -190 -154 -345 -344 -345zM111 334c0 -158 127 -291 284 -291c158 0 284 133 284 291c0 157 -126 289 -284 289c-157 0 -284 -131 -284 -289zM351 139h-59v391h129c91 0 138 -46 138 -115
c0 -77 -59 -118 -143 -118h-65v-158zM351 482v-137h56c61 0 91 21 91 70c0 39 -26 67 -77 67h-70z" />
    <glyph glyph-name="afii61248" unicode="&#x2105;" horiz-adv-x="1016" 
d="M327 331l-8 -53c-27 -7 -59 -13 -95 -13c-110 0 -168 64 -168 151c0 138 96 261 250 261c30 0 67 -4 93 -16l-15 -51c-21 13 -52 18 -84 18c-110 0 -180 -104 -180 -199c0 -71 40 -115 119 -115c27 0 57 5 88 17zM281 -24h-59l503 715h60zM730 -11
c-98 0 -156 56 -156 152c0 120 83 260 234 260c105 0 156 -66 156 -148c0 -116 -79 -264 -234 -264zM638 143c0 -65 30 -105 101 -105c97 0 161 113 161 209c0 60 -28 105 -103 105c-102 0 -159 -121 -159 -209z" />
    <glyph glyph-name="uni0374" unicode="&#x374;" horiz-adv-x="243" 
d="M266 721l-105 -196h-57l81 196h81z" />
    <glyph glyph-name="uni0375" unicode="&#x375;" horiz-adv-x="243" 
d="M-23 -128l104 196h58l-82 -196h-80z" />
    <glyph glyph-name="kgreenlandic" unicode="&#x138;" horiz-adv-x="455" 
d="M85 0h-73l104 498h74l-44 -208l237 208h95l-265 -223l181 -275h-88l-166 269z" />
    <glyph glyph-name="onethird" unicode="&#x2153;" horiz-adv-x="900" 
d="M219 266h-63l75 336l-95 -60l-27 47l145 82h54zM206 -24h-58l423 715h58zM449 9l14 52c27 -12 67 -17 98 -17c68 0 126 27 126 87c0 40 -49 55 -97 55h-48l11 49h46c56 0 121 17 121 73c0 36 -38 54 -85 54c-39 0 -67 -7 -98 -19l8 51c27 9 60 17 108 17
c64 0 130 -28 130 -94c0 -60 -44 -95 -95 -108c39 -9 62 -41 62 -77c0 -99 -103 -139 -191 -139c-35 0 -75 4 -110 16z" />
    <glyph glyph-name="oneeighth" unicode="&#x215b;" horiz-adv-x="900" 
d="M226 266h-63l75 336l-95 -60l-27 47l145 82h54zM213 -24h-58l423 715h58zM670 162c-15 11 -31 21 -49 28c-54 -14 -107 -37 -107 -91c0 -39 38 -58 77 -58c57 0 102 30 102 82c0 15 -8 28 -23 39zM587 256c13 -11 27 -20 42 -26c49 15 95 42 95 85c0 31 -32 50 -67 50
c-53 0 -89 -27 -89 -68c0 -15 6 -29 19 -41zM520 195c13 7 28 12 43 16c-31 17 -55 41 -55 80c0 80 72 120 157 120c55 0 122 -26 122 -88c0 -61 -49 -95 -101 -113c39 -17 69 -44 69 -87c0 -97 -89 -130 -173 -130c-58 0 -131 26 -131 96c0 51 29 86 69 106z" />
    <glyph glyph-name="twothirds" unicode="&#x2154;" horiz-adv-x="900" 
d="M337 266h-275l12 52l141 110c75 59 117 97 117 142c0 31 -30 56 -74 56c-45 0 -74 -11 -105 -26l6 53c31 15 72 24 115 24c71 0 122 -36 122 -97c0 -72 -54 -122 -138 -186l-100 -77h191zM287 -24h-58l423 715h58zM489 9l14 52c27 -12 67 -17 98 -17c68 0 126 27 126 87
c0 40 -49 55 -97 55h-48l11 49h46c56 0 121 17 121 73c0 36 -38 54 -85 54c-39 0 -67 -7 -98 -19l8 51c27 9 60 17 108 17c64 0 130 -28 130 -94c0 -60 -44 -95 -95 -108c39 -9 62 -41 62 -77c0 -99 -103 -139 -191 -139c-35 0 -75 4 -110 16z" />
    <glyph glyph-name="threeeighths" unicode="&#x215c;" horiz-adv-x="900" 
d="M41 275l14 52c27 -12 67 -17 98 -17c68 0 126 27 126 87c0 40 -49 55 -97 55h-48l11 49h46c56 0 121 17 121 73c0 36 -38 54 -85 54c-39 0 -67 -7 -98 -19l8 51c27 9 60 17 108 17c64 0 130 -28 130 -94c0 -60 -44 -95 -95 -108c39 -9 62 -41 62 -77
c0 -99 -103 -139 -191 -139c-35 0 -75 4 -110 16zM266 -24h-58l423 715h58zM720 162c-15 11 -31 21 -49 28c-54 -14 -107 -37 -107 -91c0 -39 38 -58 77 -58c57 0 102 30 102 82c0 15 -8 28 -23 39zM637 256c13 -11 27 -20 42 -26c49 15 95 42 95 85c0 31 -32 50 -67 50
c-53 0 -89 -27 -89 -68c0 -15 6 -29 19 -41zM570 195c13 7 28 12 43 16c-31 17 -55 41 -55 80c0 80 72 120 157 120c55 0 122 -26 122 -88c0 -61 -49 -95 -101 -113c39 -17 69 -44 69 -87c0 -97 -89 -130 -173 -130c-58 0 -131 26 -131 96c0 51 29 86 69 106z" />
    <glyph glyph-name="fiveeighths" unicode="&#x215d;" horiz-adv-x="900" 
d="M58 274l11 54c27 -12 58 -18 89 -18c75 0 131 34 131 97c0 47 -41 65 -90 65c-37 0 -73 -9 -97 -16l52 215h236l-12 -50h-177l-27 -112c20 4 36 6 59 6c64 0 122 -31 122 -100c0 -106 -96 -156 -197 -156c-32 0 -69 6 -100 15zM272 -24h-58l423 715h58zM726 162
c-15 11 -31 21 -49 28c-54 -14 -107 -37 -107 -91c0 -39 38 -58 77 -58c57 0 102 30 102 82c0 15 -8 28 -23 39zM643 256c13 -11 27 -20 42 -26c49 15 95 42 95 85c0 31 -32 50 -67 50c-53 0 -89 -27 -89 -68c0 -15 6 -29 19 -41zM576 195c13 7 28 12 43 16
c-31 17 -55 41 -55 80c0 80 72 120 157 120c55 0 122 -26 122 -88c0 -61 -49 -95 -101 -113c39 -17 69 -44 69 -87c0 -97 -89 -130 -173 -130c-58 0 -131 26 -131 96c0 51 29 86 69 106z" />
    <glyph glyph-name="seveneighths" unicode="&#x215e;" horiz-adv-x="900" 
d="M189 266h-77l250 353h-220l12 52h287l-13 -53zM254 -24h-58l423 715h58zM709 162c-15 11 -31 21 -49 28c-54 -14 -107 -37 -107 -91c0 -39 38 -58 77 -58c57 0 102 30 102 82c0 15 -8 28 -23 39zM626 256c13 -11 27 -20 42 -26c49 15 95 42 95 85c0 31 -32 50 -67 50
c-53 0 -89 -27 -89 -68c0 -15 6 -29 19 -41zM559 195c13 7 28 12 43 16c-31 17 -55 41 -55 80c0 80 72 120 157 120c55 0 122 -26 122 -88c0 -61 -49 -95 -101 -113c39 -17 69 -44 69 -87c0 -97 -89 -130 -173 -130c-58 0 -131 26 -131 96c0 51 29 86 69 106z" />
    <glyph glyph-name="uni2010" unicode="&#x2010;" horiz-adv-x="320" 
d="M269 277h-238l14 66h238z" />
    <glyph glyph-name="tonos.cap" unicode="&#xe01b;" horiz-adv-x="224" 
d="M262 667l-86 -136h-62l61 136h87z" />
    <glyph glyph-name="Agrave" unicode="&#xc0;" horiz-adv-x="618" 
d="M19 0h-81l402 667h93l120 -667h-80l-30 182h-316zM374 603l-212 -358h272zM428 724h-59l-66 136h84z" />
    <glyph glyph-name="Aacute" unicode="&#xc1;" horiz-adv-x="618" 
d="M19 0h-81l402 667h93l120 -667h-80l-30 182h-316zM374 603l-212 -358h272zM416 724h-59l99 136h84z" />
    <glyph glyph-name="Acircumflex" unicode="&#xc2;" horiz-adv-x="618" 
d="M19 0h-81l402 667h93l120 -667h-80l-30 182h-316zM374 603l-212 -358h272zM319 724h-65l131 136h73l72 -136h-64l-54 96z" />
    <glyph glyph-name="Atilde" unicode="&#xc3;" horiz-adv-x="618" 
d="M19 0h-81l402 667h93l120 -667h-80l-30 182h-316zM374 603l-212 -358h272zM300 738h-47c10 47 52 100 109 100c46 0 77 -41 107 -41c24 0 42 26 47 45h47c-11 -43 -53 -99 -105 -99c-50 0 -69 40 -106 40c-24 0 -48 -25 -52 -45z" />
    <glyph glyph-name="Adieresis" unicode="&#xc4;" horiz-adv-x="618" 
d="M19 0h-81l402 667h93l120 -667h-80l-30 182h-316zM374 603l-212 -358h272zM350 748h-65l18 87h65zM502 748h-65l18 87h65z" />
    <glyph glyph-name="Amacron" unicode="&#x100;" horiz-adv-x="618" 
d="M517 767h-240l11 51h240zM19 0h-81l402 667h93l120 -667h-80l-30 182h-316zM374 603l-212 -358h272z" />
    <glyph glyph-name="Abreve" unicode="&#x102;" horiz-adv-x="618" 
d="M298 849h42c-1 -3 -1 -7 -1 -10c0 -39 24 -61 61 -61c43 0 77 31 90 71h42c-13 -67 -75 -117 -143 -117c-60 0 -94 34 -94 94c0 7 2 16 3 23zM19 0h-81l402 667h93l120 -667h-80l-30 182h-316zM374 603l-212 -358h272z" />
    <glyph glyph-name="Aring" unicode="&#xc5;" horiz-adv-x="618" 
d="M19 0h-81l402 667h93l120 -667h-80l-30 182h-316zM374 603l-212 -358h272zM359 750c11 -11 25 -17 40 -17c32 0 61 26 61 59c0 31 -25 58 -57 58s-60 -26 -60 -58c0 -17 5 -31 16 -42zM362 706c-32 14 -55 47 -55 86c0 52 46 92 97 92s91 -40 91 -92s-46 -93 -97 -93
c-13 0 -25 2 -36 7z" />
    <glyph glyph-name="Cacute" unicode="&#x106;" horiz-adv-x="562" 
d="M463 724h-59l99 136h84zM482 84l-7 -67c-48 -23 -111 -28 -160 -28c-196 0 -273 148 -273 272c0 260 186 416 406 416c68 0 119 -14 154 -26l-25 -68c-36 21 -78 29 -137 29c-195 0 -318 -150 -318 -337c0 -122 63 -221 208 -221c51 0 103 7 152 30z" />
    <glyph glyph-name="Ccircumflex" unicode="&#x108;" horiz-adv-x="562" 
d="M482 84l-7 -67c-48 -23 -111 -28 -160 -28c-196 0 -273 148 -273 272c0 260 186 416 406 416c68 0 119 -14 154 -26l-25 -68c-36 21 -78 29 -137 29c-195 0 -318 -150 -318 -337c0 -122 63 -221 208 -221c51 0 103 7 152 30zM365 724h-65l131 136h73l72 -136h-64l-54 96z
" />
    <glyph glyph-name="Ccaron" unicode="&#x10c;" horiz-adv-x="562" 
d="M481 724h-73l-72 136h64l53 -97l94 97h65zM482 84l-7 -67c-48 -23 -111 -28 -160 -28c-196 0 -273 148 -273 272c0 260 186 416 406 416c68 0 119 -14 154 -26l-25 -68c-36 21 -78 29 -137 29c-195 0 -318 -150 -318 -337c0 -122 63 -221 208 -221c51 0 103 7 152 30z
" />
    <glyph glyph-name="Cdotaccent" unicode="&#x10a;" horiz-adv-x="562" 
d="M482 84l-7 -67c-48 -23 -111 -28 -160 -28c-196 0 -273 148 -273 272c0 260 186 416 406 416c68 0 119 -14 154 -26l-25 -68c-36 21 -78 29 -137 29c-195 0 -318 -150 -318 -337c0 -122 63 -221 208 -221c51 0 103 7 152 30zM483 748h-76l18 87h75z" />
    <glyph glyph-name="Dcaron" unicode="&#x10e;" horiz-adv-x="644" 
d="M393 724h-73l-72 136h64l53 -97l94 97h65zM191 0h-175l142 667h174c152 0 270 -90 270 -248c0 -260 -150 -419 -411 -419zM223 604l-115 -541h55c237 0 359 111 359 351c0 127 -90 190 -209 190h-90z" />
    <glyph glyph-name="Egrave" unicode="&#xc8;" horiz-adv-x="489" 
d="M365 0h-349l142 667h339l-14 -63h-260l-50 -231h248l-14 -62h-246l-54 -248h272zM389 724h-59l-66 136h84z" />
    <glyph glyph-name="Eacute" unicode="&#xc9;" horiz-adv-x="489" 
d="M365 0h-349l142 667h339l-14 -63h-260l-50 -231h248l-14 -62h-246l-54 -248h272zM352 724h-59l99 136h84z" />
    <glyph glyph-name="Ecircumflex" unicode="&#xca;" horiz-adv-x="489" 
d="M365 0h-349l142 667h339l-14 -63h-260l-50 -231h248l-14 -62h-246l-54 -248h272zM267 724h-65l131 136h73l72 -136h-64l-54 96z" />
    <glyph glyph-name="Ecaron" unicode="&#x11a;" horiz-adv-x="489" 
d="M374 724h-73l-72 136h64l53 -97l94 97h65zM365 0h-349l142 667h339l-14 -63h-260l-50 -231h248l-14 -62h-246l-54 -248h272z" />
    <glyph glyph-name="Edieresis" unicode="&#xcb;" horiz-adv-x="489" 
d="M365 0h-349l142 667h339l-14 -63h-260l-50 -231h248l-14 -62h-246l-54 -248h272zM299 748h-65l18 87h65zM451 748h-65l18 87h65z" />
    <glyph glyph-name="Emacron" unicode="&#x112;" horiz-adv-x="489" 
d="M461 767h-240l11 51h240zM365 0h-349l142 667h339l-14 -63h-260l-50 -231h248l-14 -62h-246l-54 -248h272z" />
    <glyph glyph-name="Ebreve" unicode="&#x114;" horiz-adv-x="489" 
d="M365 0h-349l142 667h339l-14 -63h-260l-50 -231h248l-14 -62h-246l-54 -248h272zM246 849h42c-1 -3 -1 -7 -1 -10c0 -39 24 -61 61 -61c43 0 77 31 90 71h42c-13 -67 -75 -117 -143 -117c-60 0 -94 34 -94 94c0 7 2 16 3 23z" />
    <glyph glyph-name="Edotaccent" unicode="&#x116;" horiz-adv-x="489" 
d="M376 748h-76l18 87h75zM365 0h-349l142 667h339l-14 -63h-260l-50 -231h248l-14 -62h-246l-54 -248h272z" />
    <glyph glyph-name="Gcircumflex" unicode="&#x11c;" horiz-adv-x="649" 
d="M601 359l-70 -329c-73 -29 -143 -41 -215 -41c-191 0 -274 143 -274 275c0 263 193 413 413 413c59 0 129 -8 176 -32l-21 -68c-45 29 -104 36 -160 36c-197 0 -328 -146 -328 -347c0 -115 71 -213 207 -213c45 0 91 6 138 23l47 221h-143l14 62h216zM376 724h-65
l131 136h73l72 -136h-64l-54 96z" />
    <glyph glyph-name="Gbreve" unicode="&#x11e;" horiz-adv-x="649" 
d="M361 849h42c-1 -3 -1 -7 -1 -10c0 -39 24 -61 61 -61c43 0 77 31 90 71h42c-13 -67 -75 -117 -143 -117c-60 0 -94 34 -94 94c0 7 2 16 3 23zM601 359l-70 -329c-73 -29 -143 -41 -215 -41c-191 0 -274 143 -274 275c0 263 193 413 413 413c59 0 129 -8 176 -32l-21 -68
c-45 29 -104 36 -160 36c-197 0 -328 -146 -328 -347c0 -115 71 -213 207 -213c45 0 91 6 138 23l47 221h-143l14 62h216z" />
    <glyph glyph-name="Gdotaccent" unicode="&#x120;" horiz-adv-x="649" 
d="M601 359l-70 -329c-73 -29 -143 -41 -215 -41c-191 0 -274 143 -274 275c0 263 193 413 413 413c59 0 129 -8 176 -32l-21 -68c-45 29 -104 36 -160 36c-197 0 -328 -146 -328 -347c0 -115 71 -213 207 -213c45 0 91 6 138 23l47 221h-143l14 62h216zM496 748h-76l18 87
h75z" />
    <glyph glyph-name="Gcommaaccent" unicode="&#x122;" horiz-adv-x="649" 
d="M263 -227h-51l61 159h70zM601 359l-70 -329c-73 -29 -143 -41 -215 -41c-191 0 -274 143 -274 275c0 263 193 413 413 413c59 0 129 -8 176 -32l-21 -68c-45 29 -104 36 -160 36c-197 0 -328 -146 -328 -347c0 -115 71 -213 207 -213c45 0 91 6 138 23l47 221h-143l14 62
h216z" />
    <glyph glyph-name="Hcircumflex" unicode="&#x124;" horiz-adv-x="648" 
d="M94 0h-78l142 667h78l-62 -290h319l62 290h77l-142 -667h-77l66 310h-319zM324 724h-65l131 136h73l72 -136h-64l-54 96z" />
    <glyph glyph-name="Igrave" unicode="&#xcc;" horiz-adv-x="253" 
d="M95 0h-79l142 667h79zM248 724h-59l-66 136h84z" />
    <glyph glyph-name="Iacute" unicode="&#xcd;" horiz-adv-x="253" 
d="M95 0h-79l142 667h79zM229 724h-59l99 136h84z" />
    <glyph glyph-name="Icircumflex" unicode="&#xce;" horiz-adv-x="253" 
d="M95 0h-79l142 667h79zM135 724h-65l131 136h73l72 -136h-64l-54 96z" />
    <glyph glyph-name="Itilde" unicode="&#x128;" horiz-adv-x="253" 
d="M95 0h-79l142 667h79zM108 738h-47c10 47 52 100 109 100c46 0 77 -41 107 -41c24 0 42 26 47 45h47c-11 -43 -53 -99 -105 -99c-50 0 -69 40 -106 40c-24 0 -48 -25 -52 -45z" />
    <glyph glyph-name="Idieresis" unicode="&#xcf;" horiz-adv-x="253" 
d="M95 0h-79l142 667h79zM169 748h-65l18 87h65zM321 748h-65l18 87h65z" />
    <glyph glyph-name="Imacron" unicode="&#x12a;" horiz-adv-x="253" 
d="M332 767h-240l11 51h240zM95 0h-79l142 667h79z" />
    <glyph glyph-name="Idotaccent" unicode="&#x130;" horiz-adv-x="253" 
d="M248 748h-76l18 87h75zM95 0h-79l142 667h79z" />
    <glyph glyph-name="Jcircumflex" unicode="&#x134;" horiz-adv-x="311" 
d="M-69 1l16 65c17 -7 35 -11 55 -11c81 0 107 71 120 130l103 482h78l-104 -492c-24 -110 -83 -186 -199 -186c-28 0 -46 3 -69 12zM189 724h-65l131 136h73l72 -136h-64l-54 96z" />
    <glyph glyph-name="Kcommaaccent" unicode="&#x136;" horiz-adv-x="561" 
d="M193 -227h-51l61 159h70zM93 0h-77l142 667h77l-64 -301l344 301h103l-378 -320l256 -347h-95l-236 335z" />
    <glyph glyph-name="Lacute" unicode="&#x139;" horiz-adv-x="446" 
d="M240 723h-59l99 136h84zM373 0h-357l142 667h78l-128 -601h280z" />
    <glyph glyph-name="Lcaron" unicode="&#x13d;" horiz-adv-x="446" 
d="M356 557h-53l56 164h75zM373 0h-357l142 667h78l-128 -601h280z" />
    <glyph glyph-name="Lcommaaccent" unicode="&#x13b;" horiz-adv-x="446" 
d="M158 -227h-51l61 159h70zM373 0h-357l142 667h78l-128 -601h280z" />
    <glyph glyph-name="Ldot" unicode="&#x13f;" horiz-adv-x="446" 
d="M373 0h-357l142 667h78l-128 -601h280zM375 304h-76l18 87h75z" />
    <glyph glyph-name="Nacute" unicode="&#x143;" horiz-adv-x="671" 
d="M438 724h-59l99 136h84zM89 0h-73l142 667h109l191 -591l124 591h73l-142 -667h-108l-190 589z" />
    <glyph glyph-name="Ncaron" unicode="&#x147;" horiz-adv-x="671" 
d="M454 724h-73l-72 136h64l53 -97l94 97h65zM89 0h-73l142 667h109l191 -591l124 591h73l-142 -667h-108l-190 589z" />
    <glyph glyph-name="Ntilde" unicode="&#xd1;" horiz-adv-x="671" 
d="M89 0h-73l142 667h109l191 -591l124 591h73l-142 -667h-108l-190 589zM324 738h-47c10 47 52 100 109 100c46 0 77 -41 107 -41c24 0 42 26 47 45h47c-11 -43 -53 -99 -105 -99c-50 0 -69 40 -106 40c-24 0 -48 -25 -52 -45z" />
    <glyph glyph-name="Ncommaaccent" unicode="&#x145;" horiz-adv-x="671" 
d="M238 -227h-51l61 159h70zM89 0h-73l142 667h109l191 -591l124 591h73l-142 -667h-108l-190 589z" />
    <glyph glyph-name="Ograve" unicode="&#xd2;" horiz-adv-x="679" 
d="M161 14c-88 50 -119 146 -119 221c0 213 125 442 362 442c185 0 234 -159 234 -255c0 -217 -115 -433 -366 -433c-45 0 -82 8 -111 25zM160 107c27 -33 67 -54 120 -54c191 0 278 194 278 367c0 95 -45 193 -165 193c-183 0 -271 -208 -271 -376c0 -51 13 -97 38 -130z
M455 724h-59l-66 136h84z" />
    <glyph glyph-name="Oacute" unicode="&#xd3;" horiz-adv-x="679" 
d="M161 14c-88 50 -119 146 -119 221c0 213 125 442 362 442c185 0 234 -159 234 -255c0 -217 -115 -433 -366 -433c-45 0 -82 8 -111 25zM160 107c27 -33 67 -54 120 -54c191 0 278 194 278 367c0 95 -45 193 -165 193c-183 0 -271 -208 -271 -376c0 -51 13 -97 38 -130z
M441 724h-59l99 136h84z" />
    <glyph glyph-name="Ocircumflex" unicode="&#xd4;" horiz-adv-x="679" 
d="M161 14c-88 50 -119 146 -119 221c0 213 125 442 362 442c185 0 234 -159 234 -255c0 -217 -115 -433 -366 -433c-45 0 -82 8 -111 25zM160 107c27 -33 67 -54 120 -54c191 0 278 194 278 367c0 95 -45 193 -165 193c-183 0 -271 -208 -271 -376c0 -51 13 -97 38 -130z
M354 724h-65l131 136h73l72 -136h-64l-54 96z" />
    <glyph glyph-name="Otilde" unicode="&#xd5;" horiz-adv-x="679" 
d="M161 14c-88 50 -119 146 -119 221c0 213 125 442 362 442c185 0 234 -159 234 -255c0 -217 -115 -433 -366 -433c-45 0 -82 8 -111 25zM160 107c27 -33 67 -54 120 -54c191 0 278 194 278 367c0 95 -45 193 -165 193c-183 0 -271 -208 -271 -376c0 -51 13 -97 38 -130z
M328 738h-47c10 47 52 100 109 100c46 0 77 -41 107 -41c24 0 42 26 47 45h47c-11 -43 -53 -99 -105 -99c-50 0 -69 40 -106 40c-24 0 -48 -25 -52 -45z" />
    <glyph glyph-name="Odieresis" unicode="&#xd6;" horiz-adv-x="679" 
d="M161 14c-88 50 -119 146 -119 221c0 213 125 442 362 442c185 0 234 -159 234 -255c0 -217 -115 -433 -366 -433c-45 0 -82 8 -111 25zM160 107c27 -33 67 -54 120 -54c191 0 278 194 278 367c0 95 -45 193 -165 193c-183 0 -271 -208 -271 -376c0 -51 13 -97 38 -130z
M373 748h-65l18 87h65zM525 748h-65l18 87h65z" />
    <glyph glyph-name="Omacron" unicode="&#x14c;" horiz-adv-x="679" 
d="M540 767h-240l11 51h240zM161 14c-88 50 -119 146 -119 221c0 213 125 442 362 442c185 0 234 -159 234 -255c0 -217 -115 -433 -366 -433c-45 0 -82 8 -111 25zM160 107c27 -33 67 -54 120 -54c191 0 278 194 278 367c0 95 -45 193 -165 193c-183 0 -271 -208 -271 -376
c0 -51 13 -97 38 -130z" />
    <glyph glyph-name="Obreve" unicode="&#x14e;" horiz-adv-x="679" 
d="M161 14c-88 50 -119 146 -119 221c0 213 125 442 362 442c185 0 234 -159 234 -255c0 -217 -115 -433 -366 -433c-45 0 -82 8 -111 25zM160 107c27 -33 67 -54 120 -54c191 0 278 194 278 367c0 95 -45 193 -165 193c-183 0 -271 -208 -271 -376c0 -51 13 -97 38 -130z
M325 849h42c-1 -3 -1 -7 -1 -10c0 -39 24 -61 61 -61c43 0 77 31 90 71h42c-13 -67 -75 -117 -143 -117c-60 0 -94 34 -94 94c0 7 2 16 3 23z" />
    <glyph glyph-name="Ohungarumlaut" unicode="&#x150;" horiz-adv-x="679" 
d="M349 724h-59l99 136h84zM517 724h-59l98 136h84zM161 14c-88 50 -119 146 -119 221c0 213 125 442 362 442c185 0 234 -159 234 -255c0 -217 -115 -433 -366 -433c-45 0 -82 8 -111 25zM160 107c27 -33 67 -54 120 -54c191 0 278 194 278 367c0 95 -45 193 -165 193
c-183 0 -271 -208 -271 -376c0 -51 13 -97 38 -130z" />
    <glyph glyph-name="Racute" unicode="&#x154;" horiz-adv-x="528" 
d="M345 724h-59l99 136h84zM94 0h-78l141 667h177c89 0 173 -49 173 -140c0 -136 -110 -179 -186 -190c47 -11 57 -41 68 -84l61 -253h-85l-46 220c-13 64 -33 89 -109 89h-51zM221 605l-49 -234h68c76 0 187 21 187 145c0 56 -43 89 -136 89h-70z" />
    <glyph glyph-name="Rcaron" unicode="&#x158;" horiz-adv-x="528" 
d="M361 724h-73l-72 136h64l53 -97l94 97h65zM94 0h-78l141 667h177c89 0 173 -49 173 -140c0 -136 -110 -179 -186 -190c47 -11 57 -41 68 -84l61 -253h-85l-46 220c-13 64 -33 89 -109 89h-51zM221 605l-49 -234h68c76 0 187 21 187 145c0 56 -43 89 -136 89h-70z" />
    <glyph glyph-name="Rcommaaccent" unicode="&#x156;" horiz-adv-x="528" 
d="M186 -227h-51l61 159h70zM94 0h-78l141 667h177c89 0 173 -49 173 -140c0 -136 -110 -179 -186 -190c47 -11 57 -41 68 -84l61 -253h-85l-46 220c-13 64 -33 89 -109 89h-51zM221 605l-49 -234h68c76 0 187 21 187 145c0 56 -43 89 -136 89h-70z" />
    <glyph glyph-name="Sacute" unicode="&#x15a;" horiz-adv-x="467" 
d="M334 724h-59l99 136h84zM-15 15l23 71c28 -17 85 -34 132 -34c93 0 173 35 173 135c0 131 -228 140 -228 302c0 132 116 188 232 188c45 0 102 -8 139 -24l-21 -66c-31 17 -80 28 -119 28c-70 0 -150 -28 -150 -119c0 -120 228 -128 228 -303c0 -133 -105 -204 -257 -204
c-53 0 -105 7 -152 26z" />
    <glyph glyph-name="Scircumflex" unicode="&#x15c;" horiz-adv-x="467" 
d="M-15 15l23 71c28 -17 85 -34 132 -34c93 0 173 35 173 135c0 131 -228 140 -228 302c0 132 116 188 232 188c45 0 102 -8 139 -24l-21 -66c-31 17 -80 28 -119 28c-70 0 -150 -28 -150 -119c0 -120 228 -128 228 -303c0 -133 -105 -204 -257 -204c-53 0 -105 7 -152 26z
M237 724h-65l131 136h73l72 -136h-64l-54 96z" />
    <glyph glyph-name="Scaron" unicode="&#x160;" horiz-adv-x="467" 
d="M-15 15l23 71c28 -17 85 -34 132 -34c93 0 173 35 173 135c0 131 -228 140 -228 302c0 132 116 188 232 188c45 0 102 -8 139 -24l-21 -66c-31 17 -80 28 -119 28c-70 0 -150 -28 -150 -119c0 -120 228 -128 228 -303c0 -133 -105 -204 -257 -204c-53 0 -105 7 -152 26z
M351 724h-73l-72 136h64l53 -97l94 97h65z" />
    <glyph glyph-name="Scommaaccent" unicode="&#x218;" horiz-adv-x="467" 
d="M124 -227h-51l61 159h70zM-15 15l23 71c28 -17 85 -34 132 -34c93 0 173 35 173 135c0 131 -228 140 -228 302c0 132 116 188 232 188c45 0 102 -8 139 -24l-21 -66c-31 17 -80 28 -119 28c-70 0 -150 -28 -150 -119c0 -120 228 -128 228 -303
c0 -133 -105 -204 -257 -204c-53 0 -105 7 -152 26z" />
    <glyph glyph-name="Tcaron" unicode="&#x164;" horiz-adv-x="463" 
d="M345 724h-73l-72 136h64l53 -97l94 97h65zM199 0h-78l128 601h-195l14 66h468l-14 -66h-195z" />
    <glyph glyph-name="Tcommaaccent" unicode="&#x162;" horiz-adv-x="463" 
d="M102 -227h-51l61 159h70zM199 0h-78l128 601h-195l14 66h468l-14 -66h-195z" />
    <glyph glyph-name="uni021A" unicode="&#x21a;" horiz-adv-x="463" 
d="M102 -227h-51l61 159h70zM199 0h-78l128 601h-195l14 66h468l-14 -66h-195z" />
    <glyph glyph-name="Ugrave" unicode="&#xd9;" horiz-adv-x="642" 
d="M224 667l-92 -432c-5 -21 -7 -44 -7 -64c1 -67 41 -117 144 -117c108 0 175 75 196 182l91 431h78l-91 -431c-37 -175 -139 -247 -292 -247c-108 0 -204 52 -204 175c0 23 0 44 7 71l93 432h77zM434 724h-59l-66 136h84z" />
    <glyph glyph-name="Uacute" unicode="&#xda;" horiz-adv-x="642" 
d="M224 667l-92 -432c-5 -21 -7 -44 -7 -64c1 -67 41 -117 144 -117c108 0 175 75 196 182l91 431h78l-91 -431c-37 -175 -139 -247 -292 -247c-108 0 -204 52 -204 175c0 23 0 44 7 71l93 432h77zM413 724h-59l99 136h84z" />
    <glyph glyph-name="Ucircumflex" unicode="&#xdb;" horiz-adv-x="642" 
d="M224 667l-92 -432c-5 -21 -7 -44 -7 -64c1 -67 41 -117 144 -117c108 0 175 75 196 182l91 431h78l-91 -431c-37 -175 -139 -247 -292 -247c-108 0 -204 52 -204 175c0 23 0 44 7 71l93 432h77zM329 724h-65l131 136h73l72 -136h-64l-54 96z" />
    <glyph glyph-name="Utilde" unicode="&#x168;" horiz-adv-x="642" 
d="M224 667l-92 -432c-5 -21 -7 -44 -7 -64c1 -67 41 -117 144 -117c108 0 175 75 196 182l91 431h78l-91 -431c-37 -175 -139 -247 -292 -247c-108 0 -204 52 -204 175c0 23 0 44 7 71l93 432h77zM303 738h-47c10 47 52 100 109 100c46 0 77 -41 107 -41c24 0 42 26 47 45
h47c-11 -43 -53 -99 -105 -99c-50 0 -69 40 -106 40c-24 0 -48 -25 -52 -45z" />
    <glyph glyph-name="Udieresis" unicode="&#xdc;" horiz-adv-x="642" 
d="M224 667l-92 -432c-5 -21 -7 -44 -7 -64c1 -67 41 -117 144 -117c108 0 175 75 196 182l91 431h78l-91 -431c-37 -175 -139 -247 -292 -247c-108 0 -204 52 -204 175c0 23 0 44 7 71l93 432h77zM357 748h-65l18 87h65zM509 748h-65l18 87h65z" />
    <glyph glyph-name="Umacron" unicode="&#x16a;" horiz-adv-x="642" 
d="M525 767h-240l11 51h240zM224 667l-92 -432c-5 -21 -7 -44 -7 -64c1 -67 41 -117 144 -117c108 0 175 75 196 182l91 431h78l-91 -431c-37 -175 -139 -247 -292 -247c-108 0 -204 52 -204 175c0 23 0 44 7 71l93 432h77z" />
    <glyph glyph-name="Ubreve" unicode="&#x16c;" horiz-adv-x="642" 
d="M224 667l-92 -432c-5 -21 -7 -44 -7 -64c1 -67 41 -117 144 -117c108 0 175 75 196 182l91 431h78l-91 -431c-37 -175 -139 -247 -292 -247c-108 0 -204 52 -204 175c0 23 0 44 7 71l93 432h77zM304 849h42c-1 -3 -1 -7 -1 -10c0 -39 24 -61 61 -61c43 0 77 31 90 71h42
c-13 -67 -75 -117 -143 -117c-60 0 -94 34 -94 94c0 7 2 16 3 23z" />
    <glyph glyph-name="Uring" unicode="&#x16e;" horiz-adv-x="642" 
d="M364 750c11 -11 25 -17 40 -17c32 0 61 26 61 59c0 31 -25 58 -57 58s-60 -26 -60 -58c0 -17 5 -31 16 -42zM367 706c-32 14 -55 47 -55 86c0 52 46 92 97 92s91 -40 91 -92s-46 -93 -97 -93c-13 0 -25 2 -36 7zM224 667l-92 -432c-5 -21 -7 -44 -7 -64
c1 -67 41 -117 144 -117c108 0 175 75 196 182l91 431h78l-91 -431c-37 -175 -139 -247 -292 -247c-108 0 -204 52 -204 175c0 23 0 44 7 71l93 432h77z" />
    <glyph glyph-name="Uhungarumlaut" unicode="&#x170;" horiz-adv-x="642" 
d="M335 724h-59l99 136h84zM503 724h-59l98 136h84zM224 667l-92 -432c-5 -21 -7 -44 -7 -64c1 -67 41 -117 144 -117c108 0 175 75 196 182l91 431h78l-91 -431c-37 -175 -139 -247 -292 -247c-108 0 -204 52 -204 175c0 23 0 44 7 71l93 432h77z" />
    <glyph glyph-name="Wcircumflex" unicode="&#x174;" horiz-adv-x="891" 
d="M209 0h-95l-45 667h80l33 -588l287 588h90l37 -588l284 588h74l-329 -667h-92l-37 589zM449 724h-65l131 136h73l72 -136h-64l-54 96z" />
    <glyph glyph-name="Yacute" unicode="&#xdd;" horiz-adv-x="552" 
d="M240 0h-77l59 278l-160 389h88l125 -325l266 325h85l-326 -389zM375 724h-59l99 136h84z" />
    <glyph glyph-name="Ycircumflex" unicode="&#x176;" horiz-adv-x="552" 
d="M240 0h-77l59 278l-160 389h88l125 -325l266 325h85l-326 -389zM277 724h-65l131 136h73l72 -136h-64l-54 96z" />
    <glyph glyph-name="Ydieresis" unicode="&#x178;" horiz-adv-x="552" 
d="M240 0h-77l59 278l-160 389h88l125 -325l266 325h85l-326 -389zM313 748h-65l18 87h65zM465 748h-65l18 87h65z" />
    <glyph glyph-name="Zacute" unicode="&#x179;" horiz-adv-x="491" 
d="M346 724h-59l99 136h84zM398 0h-435l14 64l453 539h-328l15 64h414l-13 -64l-450 -539h344z" />
    <glyph glyph-name="Zcaron" unicode="&#x17d;" horiz-adv-x="491" 
d="M398 0h-435l14 64l453 539h-328l15 64h414l-13 -64l-450 -539h344zM366 724h-73l-72 136h64l53 -97l94 97h65z" />
    <glyph glyph-name="Zdotaccent" unicode="&#x17b;" horiz-adv-x="491" 
d="M365 748h-76l18 87h75zM398 0h-435l14 64l453 539h-328l15 64h414l-13 -64l-450 -539h344z" />
    <glyph glyph-name="agrave" unicode="&#xe0;" horiz-adv-x="539" 
d="M387 286l34 154c-19 7 -35 9 -54 9c-149 0 -266 -156 -266 -296c0 -56 18 -104 85 -104c80 0 172 106 201 237zM418 0h-72c1 27 6 76 17 132c-29 -59 -95 -143 -204 -143c-88 0 -133 67 -133 157c0 194 164 362 356 362c47 0 77 -6 121 -21l-57 -267
c-20 -93 -28 -169 -28 -220zM402 585h-59l-66 136h84z" />
    <glyph glyph-name="aacute" unicode="&#xe1;" horiz-adv-x="539" 
d="M387 286l34 154c-19 7 -35 9 -54 9c-149 0 -266 -156 -266 -296c0 -56 18 -104 85 -104c80 0 172 106 201 237zM418 0h-72c1 27 6 76 17 132c-29 -59 -95 -143 -204 -143c-88 0 -133 67 -133 157c0 194 164 362 356 362c47 0 77 -6 121 -21l-57 -267
c-20 -93 -28 -169 -28 -220zM374 585h-59l99 136h84z" />
    <glyph glyph-name="acircumflex" unicode="&#xe2;" horiz-adv-x="539" 
d="M387 286l34 154c-19 7 -35 9 -54 9c-149 0 -266 -156 -266 -296c0 -56 18 -104 85 -104c80 0 172 106 201 237zM418 0h-72c1 27 6 76 17 132c-29 -59 -95 -143 -204 -143c-88 0 -133 67 -133 157c0 194 164 362 356 362c47 0 77 -6 121 -21l-57 -267
c-20 -93 -28 -169 -28 -220zM287 585h-65l131 136h73l72 -136h-64l-54 96z" />
    <glyph glyph-name="atilde" unicode="&#xe3;" horiz-adv-x="539" 
d="M387 286l34 154c-19 7 -35 9 -54 9c-149 0 -266 -156 -266 -296c0 -56 18 -104 85 -104c80 0 172 106 201 237zM418 0h-72c1 27 6 76 17 132c-29 -59 -95 -143 -204 -143c-88 0 -133 67 -133 157c0 194 164 362 356 362c47 0 77 -6 121 -21l-57 -267
c-20 -93 -28 -169 -28 -220zM269 599h-47c10 47 53 100 109 100c46 0 77 -41 107 -41c24 0 42 26 47 45h47c-11 -43 -53 -99 -105 -99c-50 0 -69 40 -106 40c-24 0 -48 -25 -52 -45z" />
    <glyph glyph-name="adieresis" unicode="&#xe4;" horiz-adv-x="539" 
d="M387 286l34 154c-19 7 -35 9 -54 9c-149 0 -266 -156 -266 -296c0 -56 18 -104 85 -104c80 0 172 106 201 237zM418 0h-72c1 27 6 76 17 132c-29 -59 -95 -143 -204 -143c-88 0 -133 67 -133 157c0 194 164 362 356 362c47 0 77 -6 121 -21l-57 -267
c-20 -93 -28 -169 -28 -220zM476 609h-65l18 87h65zM324 609h-65l18 87h65z" />
    <glyph glyph-name="amacron" unicode="&#x101;" horiz-adv-x="539" 
d="M387 286l34 154c-19 7 -35 9 -54 9c-149 0 -266 -156 -266 -296c0 -56 18 -104 85 -104c80 0 172 106 201 237zM418 0h-72c1 27 6 76 17 132c-29 -59 -95 -143 -204 -143c-88 0 -133 67 -133 157c0 194 164 362 356 362c47 0 77 -6 121 -21l-57 -267
c-20 -93 -28 -169 -28 -220zM491 628h-240l11 51h240z" />
    <glyph glyph-name="abreve" unicode="&#x103;" horiz-adv-x="539" 
d="M271 710h42c0 -3 -1 -7 -1 -10c0 -39 24 -61 61 -61c43 0 77 31 90 71h42c-13 -67 -75 -117 -143 -117c-60 0 -94 34 -94 94c0 7 2 16 3 23zM387 286l34 154c-19 7 -35 9 -54 9c-149 0 -266 -156 -266 -296c0 -56 18 -104 85 -104c80 0 172 106 201 237zM418 0h-72
c1 27 6 76 17 132c-29 -59 -95 -143 -204 -143c-88 0 -133 67 -133 157c0 194 164 362 356 362c47 0 77 -6 121 -21l-57 -267c-20 -93 -28 -169 -28 -220z" />
    <glyph glyph-name="aring" unicode="&#xe5;" horiz-adv-x="539" 
d="M387 286l34 154c-19 7 -35 9 -54 9c-149 0 -266 -156 -266 -296c0 -56 18 -104 85 -104c80 0 172 106 201 237zM418 0h-72c1 27 6 76 17 132c-29 -59 -95 -143 -204 -143c-88 0 -133 67 -133 157c0 194 164 362 356 362c47 0 77 -6 121 -21l-57 -267
c-20 -93 -28 -169 -28 -220zM338 567c-32 14 -55 47 -55 86c0 52 46 92 97 92s91 -40 91 -92s-46 -93 -97 -93c-13 0 -25 2 -36 7zM335 611c11 -11 25 -17 40 -17c32 0 61 26 61 59c0 31 -25 58 -57 58s-60 -26 -60 -58c0 -17 5 -31 16 -42z" />
    <glyph glyph-name="cacute" unicode="&#x107;" horiz-adv-x="457" 
d="M354 585h-59l99 136h84zM358 69l-9 -63c-32 -11 -68 -17 -115 -17c-140 0 -200 87 -200 191c0 170 112 328 300 328c37 0 84 -7 117 -20l-18 -63c-33 17 -67 24 -102 24c-142 0 -221 -139 -221 -258c0 -76 37 -142 140 -142c37 0 72 5 108 20z" />
    <glyph glyph-name="ccircumflex" unicode="&#x109;" horiz-adv-x="457" 
d="M358 69l-9 -63c-32 -11 -68 -17 -115 -17c-140 0 -200 87 -200 191c0 170 112 328 300 328c37 0 84 -7 117 -20l-18 -63c-33 17 -67 24 -102 24c-142 0 -221 -139 -221 -258c0 -76 37 -142 140 -142c37 0 72 5 108 20zM249 585h-65l131 136h73l72 -136h-64l-54 96z" />
    <glyph glyph-name="ccaron" unicode="&#x10d;" horiz-adv-x="457" 
d="M363 585h-73l-72 136h64l53 -97l94 97h65zM358 69l-9 -63c-32 -11 -68 -17 -115 -17c-140 0 -200 87 -200 191c0 170 112 328 300 328c37 0 84 -7 117 -20l-18 -63c-33 17 -67 24 -102 24c-142 0 -221 -139 -221 -258c0 -76 37 -142 140 -142c37 0 72 5 108 20z" />
    <glyph glyph-name="cdotaccent" unicode="&#x10b;" horiz-adv-x="457" 
d="M358 69l-9 -63c-32 -11 -68 -17 -115 -17c-140 0 -200 87 -200 191c0 170 112 328 300 328c37 0 84 -7 117 -20l-18 -63c-33 17 -67 24 -102 24c-142 0 -221 -139 -221 -258c0 -76 37 -142 140 -142c37 0 72 5 108 20zM369 609h-76l18 87h75z" />
    <glyph glyph-name="dcaron" unicode="&#x10f;" horiz-adv-x="551" 
d="M626 557h-53l56 164h75zM387 286l34 154c-19 7 -39 9 -58 9c-148 0 -262 -156 -262 -296c0 -56 18 -104 85 -104c80 0 172 106 201 237zM418 0h-72c1 27 6 76 17 132c-29 -59 -95 -143 -204 -143c-88 0 -133 67 -133 157c0 194 161 362 353 362c19 0 40 -3 55 -8l46 221
h73l-107 -501c-20 -93 -28 -169 -28 -220z" />
    <glyph glyph-name="egrave" unicode="&#xe8;" horiz-adv-x="491" 
d="M354 84l5 -61c-47 -24 -106 -34 -159 -34c-100 0 -173 54 -173 161c0 188 148 358 304 358c68 0 131 -31 131 -106c0 -164 -220 -176 -349 -176c-7 -20 -10 -47 -10 -70c0 -72 42 -110 114 -110c45 0 98 14 137 38zM154 338c-12 -20 -22 -40 -29 -59
c109 0 266 11 266 117c0 45 -35 57 -74 57c-67 0 -126 -55 -163 -115zM365 585h-59l-66 136h84z" />
    <glyph glyph-name="eacute" unicode="&#xe9;" horiz-adv-x="491" 
d="M354 84l5 -61c-47 -24 -106 -34 -159 -34c-100 0 -173 54 -173 161c0 188 148 358 304 358c68 0 131 -31 131 -106c0 -164 -220 -176 -349 -176c-7 -20 -10 -47 -10 -70c0 -72 42 -110 114 -110c45 0 98 14 137 38zM154 338c-12 -20 -22 -40 -29 -59
c109 0 266 11 266 117c0 45 -35 57 -74 57c-67 0 -126 -55 -163 -115zM363 585h-59l99 136h84z" />
    <glyph glyph-name="ecircumflex" unicode="&#xea;" horiz-adv-x="491" 
d="M354 84l5 -61c-47 -24 -106 -34 -159 -34c-100 0 -173 54 -173 161c0 188 148 358 304 358c68 0 131 -31 131 -106c0 -164 -220 -176 -349 -176c-7 -20 -10 -47 -10 -70c0 -72 42 -110 114 -110c45 0 98 14 137 38zM154 338c-12 -20 -22 -40 -29 -59
c109 0 266 11 266 117c0 45 -35 57 -74 57c-67 0 -126 -55 -163 -115zM262 585h-65l131 136h73l72 -136h-64l-54 96z" />
    <glyph glyph-name="ecaron" unicode="&#x11b;" horiz-adv-x="491" 
d="M354 84l5 -61c-47 -24 -106 -34 -159 -34c-100 0 -173 54 -173 161c0 188 148 358 304 358c68 0 131 -31 131 -106c0 -164 -220 -176 -349 -176c-7 -20 -10 -47 -10 -70c0 -72 42 -110 114 -110c45 0 98 14 137 38zM154 338c-12 -20 -22 -40 -29 -59
c109 0 266 11 266 117c0 45 -35 57 -74 57c-67 0 -126 -55 -163 -115zM373 585h-73l-72 136h64l53 -97l94 97h65z" />
    <glyph glyph-name="edieresis" unicode="&#xeb;" horiz-adv-x="491" 
d="M354 84l5 -61c-47 -24 -106 -34 -159 -34c-100 0 -173 54 -173 161c0 188 148 358 304 358c68 0 131 -31 131 -106c0 -164 -220 -176 -349 -176c-7 -20 -10 -47 -10 -70c0 -72 42 -110 114 -110c45 0 98 14 137 38zM154 338c-12 -20 -22 -40 -29 -59
c109 0 266 11 266 117c0 45 -35 57 -74 57c-67 0 -126 -55 -163 -115zM450 609h-65l18 87h65zM298 609h-65l18 87h65z" />
    <glyph glyph-name="emacron" unicode="&#x113;" horiz-adv-x="491" 
d="M354 84l5 -61c-47 -24 -106 -34 -159 -34c-100 0 -173 54 -173 161c0 188 148 358 304 358c68 0 131 -31 131 -106c0 -164 -220 -176 -349 -176c-7 -20 -10 -47 -10 -70c0 -72 42 -110 114 -110c45 0 98 14 137 38zM154 338c-12 -20 -22 -40 -29 -59
c109 0 266 11 266 117c0 45 -35 57 -74 57c-67 0 -126 -55 -163 -115zM465 628h-240l11 51h240z" />
    <glyph glyph-name="ebreve" unicode="&#x115;" horiz-adv-x="491" 
d="M354 84l5 -61c-47 -24 -106 -34 -159 -34c-100 0 -173 54 -173 161c0 188 148 358 304 358c68 0 131 -31 131 -106c0 -164 -220 -176 -349 -176c-7 -20 -10 -47 -10 -70c0 -72 42 -110 114 -110c45 0 98 14 137 38zM154 338c-12 -20 -22 -40 -29 -59
c109 0 266 11 266 117c0 45 -35 57 -74 57c-67 0 -126 -55 -163 -115zM245 710h42c0 -3 -1 -7 -1 -10c0 -39 24 -61 61 -61c43 0 77 31 90 71h42c-13 -67 -75 -117 -143 -117c-60 0 -94 34 -94 94c0 7 2 16 3 23z" />
    <glyph glyph-name="edotaccent" unicode="&#x117;" horiz-adv-x="491" 
d="M378 609h-76l18 87h75zM354 84l5 -61c-47 -24 -106 -34 -159 -34c-100 0 -173 54 -173 161c0 188 148 358 304 358c68 0 131 -31 131 -106c0 -164 -220 -176 -349 -176c-7 -20 -10 -47 -10 -70c0 -72 42 -110 114 -110c45 0 98 14 137 38zM154 338
c-12 -20 -22 -40 -29 -59c109 0 266 11 266 117c0 45 -35 57 -74 57c-67 0 -126 -55 -163 -115z" />
    <glyph glyph-name="gcircumflex" unicode="&#x11d;" horiz-adv-x="543" 
d="M391 286l34 154c-19 7 -35 9 -54 9c-149 0 -266 -153 -266 -289c0 -53 19 -102 86 -102c81 0 171 98 200 228zM-25 -201l18 65c41 -23 90 -31 135 -31c122 0 180 72 204 178l25 107c-59 -85 -113 -118 -190 -118c-88 0 -137 65 -137 153c0 189 164 355 356 355
c47 0 77 -6 121 -21l-95 -449c-37 -171 -102 -265 -292 -265c-51 0 -101 10 -145 26zM287 585h-65l131 136h73l72 -136h-64l-54 96z" />
    <glyph glyph-name="gbreve" unicode="&#x11f;" horiz-adv-x="543" 
d="M272 710h42c0 -3 -1 -7 -1 -10c0 -39 24 -61 61 -61c43 0 77 31 90 71h42c-13 -67 -75 -117 -143 -117c-60 0 -94 34 -94 94c0 7 2 16 3 23zM391 286l34 154c-19 7 -35 9 -54 9c-149 0 -266 -153 -266 -289c0 -53 19 -102 86 -102c81 0 171 98 200 228zM-25 -201l18 65
c41 -23 90 -31 135 -31c122 0 180 72 204 178l25 107c-59 -85 -113 -118 -190 -118c-88 0 -137 65 -137 153c0 189 164 355 356 355c47 0 77 -6 121 -21l-95 -449c-37 -171 -102 -265 -292 -265c-51 0 -101 10 -145 26z" />
    <glyph glyph-name="gdotaccent" unicode="&#x121;" horiz-adv-x="543" 
d="M391 286l34 154c-19 7 -35 9 -54 9c-149 0 -266 -153 -266 -289c0 -53 19 -102 86 -102c81 0 171 98 200 228zM-25 -201l18 65c41 -23 90 -31 135 -31c122 0 180 72 204 178l25 107c-59 -85 -113 -118 -190 -118c-88 0 -137 65 -137 153c0 189 164 355 356 355
c47 0 77 -6 121 -21l-95 -449c-37 -171 -102 -265 -292 -265c-51 0 -101 10 -145 26zM405 609h-76l18 87h75z" />
    <glyph glyph-name="gcommaaccent" unicode="&#x123;" horiz-adv-x="543" 
d="M391 585h-63l65 136h45zM391 286l34 154c-19 7 -35 9 -54 9c-149 0 -266 -153 -266 -289c0 -53 19 -102 86 -102c81 0 171 98 200 228zM-25 -201l18 65c41 -23 90 -31 135 -31c122 0 180 72 204 178l25 107c-59 -85 -113 -118 -190 -118c-88 0 -137 65 -137 153
c0 189 164 355 356 355c47 0 77 -6 121 -21l-95 -449c-37 -171 -102 -265 -292 -265c-51 0 -101 10 -145 26z" />
    <glyph glyph-name="hcircumflex" unicode="&#x125;" horiz-adv-x="535" 
d="M85 0h-73l153 721h71l-67 -306c47 61 99 93 174 93c77 0 133 -48 133 -124c0 -32 -1 -41 -12 -88l-63 -296h-73l63 297c5 23 7 46 7 66c0 49 -24 86 -84 86c-103 0 -153 -87 -172 -180zM271 769h-65l131 136h73l72 -136h-64l-54 96z" />
    <glyph glyph-name="igrave" unicode="&#xec;" horiz-adv-x="224" 
d="M85 0h-73l104 498h74zM206 585h-59l-66 136h84z" />
    <glyph glyph-name="iacute" unicode="&#xed;" horiz-adv-x="224" 
d="M85 0h-73l104 498h74zM184 585h-59l99 136h84z" />
    </font>
</defs>
</svg>
