<?xml version="1.0" standalone="no"?>
<!DOCTYPE svg PUBLIC "-//W3C//DTD SVG 1.1//EN" "http://www.w3.org/Graphics/SVG/1.1/DTD/svg11.dtd" >
<svg>
<metadata>
Created by FontForge 20120731 at Tue Nov 26 20:33:43 2013
 By World Wide Web Server
Copyright (c) 2008 Linotype GmbH, www.linotype.com. All rights reserved. This font software may not be reproduced, modified, disclosed or transferred without the express written approval of Linotype GmbH. Frutiger is a trademark of Linotype Corp. registered in the U.S. Patent and Trademark Office and may be registered in certain other jurisdictions in the name of Linotype Corp. or its licensee Linotype GmbH. This typeface is original artwork of Adrian Frutiger and Linotype Design Studio. The design may be protected in certain jurisdictions.
</metadata>
<defs>
<font id="FrutigerNextLTW1G-Bold" horiz-adv-x="450" >
  <font-face 
    font-family="Frutiger Next LT W1G"
    font-weight="700"
    font-stretch="normal"
    units-per-em="1000"
    panose-1="2 11 8 3 4 2 4 2 2 3"
    ascent="721"
    descent="-279"
    x-height="502"
    cap-height="667"
    bbox="-221 -301 1326 905"
    underline-thickness="50"
    underline-position="-50"
    stemh="67"
    stemv="97"
    unicode-range="U+000D-FB04"
  />
<missing-glyph horiz-adv-x="512" 
d="M269 117h-59v64h59v-64zM263 241h-47v9c0 123 112 131 112 236c0 44 -31 77 -82 77c-33 0 -66 -8 -98 -21l-4 47c33 13 63 20 102 20c79 0 134 -44 134 -124c0 -115 -117 -128 -117 -233v-11zM512 0h-512v718h512v-718zM50 667v-617h412v617h-412z" />
    <glyph glyph-name="IJ" unicode="IJ" horiz-adv-x="662" 
d="M221 0h-148v667h148v-667zM292 5l5 109c19 -9 36 -11 56 -11c68 0 96 47 96 108v456h148v-478c0 -125 -70 -200 -195 -200c-39 0 -75 5 -110 16z" />
    <glyph glyph-name="fi" unicode="fi" horiz-adv-x="622" 
d="M249 0h-139v410h-93v92h93v51c0 99 35 178 162 178c32 0 67 -1 98 -12l-6 -88c-15 7 -33 8 -49 8c-60 0 -67 -58 -67 -87v-50h108v-92h-107v-410zM560 595h-138v111h138v-111zM560 0h-138v502h138v-502z" />
    <glyph glyph-name="fl" unicode="fl" horiz-adv-x="622" 
d="M249 0h-139v410h-93v92h93v51c0 99 35 178 162 178c32 0 67 -1 98 -12l-6 -88c-15 7 -33 8 -49 8c-60 0 -67 -58 -67 -87v-50h108v-92h-107v-410zM560 0h-138v721h138v-721z" />
    <glyph glyph-name="ij" unicode="ij" horiz-adv-x="523" 
d="M201 595h-138v111h138v-111zM201 0h-138v502h138v-502zM461 595h-138v111h138v-111zM221 -218l6 97c11 -4 23 -6 36 -6c50 0 60 40 60 82v547h138v-561c0 -95 -38 -168 -143 -168c-33 0 -66 2 -97 9z" />
    <glyph glyph-name="napostrophe" unicode="&#x22;n" horiz-adv-x="667" 
d="M283 0h-138v390c0 37 -1 75 -5 112h130l2 -84c33 64 92 94 163 94c121 0 170 -72 170 -187v-325h-138v293c0 60 -9 120 -84 120c-78 0 -100 -70 -100 -136v-277zM79 473h-95l59 248h130z" />
    <glyph glyph-name="f_f_i" unicode="ffi" horiz-adv-x="986" 
d="M249 0h-139v410h-93v92h93v51c0 99 35 178 162 178c32 0 67 -1 98 -12l-6 -88c-15 7 -33 8 -49 8c-60 0 -67 -58 -67 -87v-50h108v-92h-107v-410zM613 0h-139v410h-93v92h93v51c0 99 35 178 162 178c32 0 67 -1 98 -12l-6 -88c-15 7 -33 8 -49 8c-60 0 -67 -58 -67 -87
v-50h108v-92h-107v-410zM924 595h-138v111h138v-111zM924 0h-138v502h138v-502z" />
    <glyph glyph-name="f_f_l" unicode="ffl" horiz-adv-x="986" 
d="M249 0h-139v410h-93v92h93v51c0 99 35 178 162 178c32 0 67 -1 98 -12l-6 -88c-15 7 -33 8 -49 8c-60 0 -67 -58 -67 -87v-50h108v-92h-107v-410zM613 0h-139v410h-93v92h93v51c0 99 35 178 162 178c32 0 67 -1 98 -12l-6 -88c-15 7 -33 8 -49 8c-60 0 -67 -58 -67 -87
v-50h108v-92h-107v-410zM924 0h-138v721h138v-721z" />
    <glyph glyph-name=".notdef" horiz-adv-x="512" 
d="M269 117h-59v64h59v-64zM263 241h-47v9c0 123 112 131 112 236c0 44 -31 77 -82 77c-33 0 -66 -8 -98 -21l-4 47c33 13 63 20 102 20c79 0 134 -44 134 -124c0 -115 -117 -128 -117 -233v-11zM512 0h-512v718h512v-718zM50 667v-617h412v617h-412z" />
    <glyph glyph-name="afii10050" unicode="&#x490;" horiz-adv-x="505" 
d="M72 0v667h299v145h125v-262h-276v-550h-148z" />
    <glyph glyph-name="afii10194" unicode="&#x463;" horiz-adv-x="595" 
d="M379 0h-256v414h-107v88h107v219h138v-219h180v-88h-180v-89h122c105 0 188 -50 188 -162c0 -119 -89 -163 -192 -163zM261 86h83c62 0 93 24 93 77c0 50 -33 77 -98 77h-78v-154z" />
    <glyph glyph-name="afii10146" unicode="&#x462;" horiz-adv-x="688" 
d="M295 403h114c151 0 250 -55 250 -201c0 -142 -89 -202 -245 -202h-268v541h-130v102h130v78h149v-78h215v-102h-215v-138zM295 91h88c82 0 131 33 131 114c0 78 -56 107 -135 107h-84v-221z" />
    <glyph glyph-name="afii10147" unicode="&#x472;" horiz-adv-x="735" 
d="M695 333c0 -205 -118 -344 -328 -344c-214 0 -327 136 -327 344c0 203 118 344 327 344c213 0 328 -136 328 -344zM367 91c117 0 162 99 172 200h-343c10 -99 58 -200 171 -200zM367 575c-106 0 -154 -87 -168 -178h337c-14 92 -61 178 -169 178z" />
    <glyph glyph-name="afii10195" unicode="&#x473;" horiz-adv-x="594" 
d="M560 253c0 -162 -100 -264 -263 -264c-166 0 -263 103 -263 264c0 164 109 259 263 259c162 0 263 -93 263 -259zM297 82c75 0 107 64 114 137h-229c8 -73 40 -137 115 -137zM297 419c-73 0 -105 -60 -114 -126h227c-8 66 -38 126 -113 126z" />
    <glyph glyph-name="afii10148" unicode="&#x474;" horiz-adv-x="712" 
d="M414 0h-171l-244 667h157l175 -524l108 357c38 126 87 175 173 175c40 0 73 -7 100 -19l-6 -104c-12 6 -29 11 -46 11c-39 0 -62 -19 -92 -107z" />
    <glyph glyph-name="afii10196" unicode="&#x475;" horiz-adv-x="549" 
d="M339 0h-173l-160 502h144l105 -398l65 260c26 104 62 147 140 147c30 0 60 -8 83 -20l-8 -90c-10 5 -20 9 -34 9c-27 0 -44 -14 -60 -68z" />
    <glyph glyph-name="equal.inferior" unicode="&#x208c;" 
d="M393 -107h-336v68h336v-68zM393 23h-336v69h336v-69z" />
    <glyph glyph-name="minus.inferior" unicode="&#x208b;" 
d="M393 -42h-336v69h336v-69z" />
    <glyph glyph-name="plus.inferior" unicode="&#x208a;" 
d="M189 -42h-132v69h132v122h73v-122h131v-69h-131v-121h-73v121z" />
    <glyph glyph-name="parenleft.inferior" unicode="&#x208d;" horiz-adv-x="225" 
d="M203 -240h-74c-51 79 -91 162 -91 255c0 92 40 176 91 255h74c-45 -80 -79 -163 -79 -255s32 -176 79 -255z" />
    <glyph glyph-name="parenright.inferior" unicode="&#x208e;" horiz-adv-x="225" 
d="M96 -240h-74c45 79 79 163 79 255c0 91 -32 175 -79 255h74c51 -79 91 -163 91 -255c0 -93 -40 -176 -91 -255z" />
    <glyph glyph-name="zero.inferior" unicode="&#x2080;" 
d="M166 -60c9 -27 27 -46 59 -46c63 0 70 76 70 143c0 72 -8 141 -70 141s-70 -69 -70 -141c0 -33 2 -69 11 -97zM143 -155c-65 36 -89 109 -89 192c0 106 44 207 171 207s171 -102 171 -207c0 -107 -43 -209 -171 -209c-33 0 -60 6 -82 17z" />
    <glyph glyph-name="one.inferior" unicode="&#x2081;" 
d="M309 -165h-99v306l-92 -63l-35 68l141 92h85v-403z" />
    <glyph glyph-name="two.inferior" unicode="&#x2082;" 
d="M372 -165h-309v73l78 57c71 51 123 99 123 151c0 37 -31 56 -76 56s-80 -11 -111 -24l-3 72c43 13 85 24 130 24c80 0 164 -31 164 -120c0 -72 -57 -126 -129 -179l-55 -41h188v-69z" />
    <glyph glyph-name="three.inferior" unicode="&#x2083;" 
d="M63 -156l3 67c32 -11 73 -17 110 -17c51 0 97 18 97 62s-52 57 -103 57h-52v61h43c59 0 107 12 107 55c0 37 -47 49 -90 49c-32 0 -71 -6 -102 -17l-3 66c35 11 79 17 120 17c75 0 175 -21 175 -107c0 -51 -31 -80 -78 -92c47 -9 85 -41 85 -89c0 -99 -99 -128 -187 -128
c-43 0 -85 4 -125 16z" />
    <glyph glyph-name="four.inferior" unicode="&#x2084;" 
d="M249 160l-133 -175h133v175zM248 -82h-198v80l190 240h104v-251h61v-69h-61v-83h-96v83z" />
    <glyph glyph-name="five.inferior" unicode="&#x2085;" 
d="M73 -156l3 68c30 -9 61 -14 92 -14c48 0 106 16 106 67s-55 65 -102 65c-29 0 -57 -3 -88 -11l5 219h268v-67h-180l-2 -92c16 4 31 5 46 5c79 0 156 -26 156 -117c0 -98 -98 -139 -187 -139c-48 0 -81 5 -117 16z" />
    <glyph glyph-name="six.inferior" unicode="&#x2086;" 
d="M177 -87c13 -15 31 -23 54 -23c47 0 72 32 72 72s-22 72 -70 72c-43 0 -74 -29 -74 -68c0 -19 6 -37 18 -53zM369 234l-4 -67c-27 8 -56 12 -86 12c-79 0 -121 -56 -122 -124c27 27 63 40 102 40c81 0 137 -48 137 -129c0 -90 -79 -138 -164 -138
c-126 0 -172 91 -172 195c0 125 75 222 211 222c33 0 65 -4 98 -11z" />
    <glyph glyph-name="seven.inferior" unicode="&#x2087;" 
d="M219 -165h-117l176 326h-212v77h312v-76z" />
    <glyph glyph-name="eight.inferior" unicode="&#x2088;" 
d="M279 -3c-13 11 -31 20 -54 25c-45 -8 -74 -33 -74 -70s31 -62 74 -62s74 24 74 63c0 18 -7 33 -20 44zM178 91c13 -10 29 -17 48 -20c35 7 65 29 65 61c0 35 -31 54 -66 54s-66 -21 -66 -54c0 -17 6 -31 19 -41zM76 9c15 15 36 27 63 35c-47 15 -76 41 -76 92
c0 77 97 108 162 108c69 0 162 -24 162 -107c0 -49 -33 -77 -78 -93c56 -15 89 -42 89 -102c0 -86 -98 -114 -173 -114c-77 0 -172 28 -172 113c0 30 8 53 23 68z" />
    <glyph glyph-name="nine.inferior" unicode="&#x2089;" 
d="M163 59c12 -13 30 -20 53 -20c43 0 74 29 74 68s-24 76 -72 76c-47 0 -72 -32 -72 -73c0 -20 6 -37 17 -51zM81 -162l3 68c27 -8 56 -13 87 -13c80 0 121 56 122 124c-27 -27 -63 -40 -102 -40c-80 0 -137 49 -137 129c0 90 78 138 163 138c124 0 173 -87 173 -195
c0 -128 -69 -221 -208 -221c-35 0 -68 3 -101 10z" />
    <glyph glyph-name="a.inferior" unicode="&#x2090;" horiz-adv-x="367" 
d="M331 -165h-93l-2 45c-23 -35 -62 -52 -106 -52c-62 0 -108 30 -108 94c0 82 76 105 161 105h51v6c0 38 -28 55 -74 55c-33 0 -69 -8 -99 -23l-4 62c32 12 79 19 115 19c87 0 155 -27 155 -120v-117c0 -34 1 -54 4 -74zM234 -36v13h-21c-45 0 -100 -6 -100 -49
c0 -29 25 -41 50 -41c50 0 71 37 71 77z" />
    <glyph glyph-name="b.inferior" unicode="&#xe5f7;" horiz-adv-x="396" 
d="M371 -11c0 -83 -37 -161 -135 -161c-42 0 -82 18 -103 58l-2 -51h-88v436h97v-182c19 37 60 57 98 57c97 0 133 -76 133 -157zM267 -11c0 39 -10 90 -64 90c-53 0 -66 -52 -66 -90s13 -94 65 -94c55 0 65 54 65 94z" />
    <glyph glyph-name="c.inferior" unicode="&#xe601;" horiz-adv-x="317" 
d="M296 -159c-31 -10 -63 -13 -96 -13c-108 0 -175 58 -175 161c0 100 77 157 179 157c32 0 61 -3 90 -11l-4 -68c-19 9 -40 15 -64 15c-61 0 -97 -39 -97 -93c0 -53 29 -96 93 -96c25 0 46 4 69 15z" />
    <glyph glyph-name="d.inferior" unicode="&#xe60b;" horiz-adv-x="396" 
d="M356 -165h-90l-3 51c-23 -39 -59 -58 -101 -58c-99 0 -137 78 -137 161c0 81 41 157 135 157c45 0 79 -23 96 -54v179h97v-354c0 -35 2 -60 3 -82zM259 -12c0 39 -13 90 -66 90c-55 0 -64 -51 -64 -90s10 -93 65 -93c52 0 65 55 65 93z" />
    <glyph glyph-name="e.inferior" unicode="&#x2091;" horiz-adv-x="357" 
d="M335 -35h-215c2 -46 40 -77 101 -77c33 0 67 6 93 18l4 -61c-32 -11 -69 -17 -109 -17c-119 0 -184 56 -184 161c0 94 68 157 164 157c109 0 146 -64 146 -156v-25zM249 16c-1 37 -11 73 -60 73c-47 0 -67 -38 -69 -73h129z" />
    <glyph glyph-name="f.inferior" unicode="&#xe61e;" horiz-adv-x="248" 
d="M248 270l-4 -61c-11 3 -21 5 -32 5c-29 0 -42 -19 -42 -47v-27h69v-63h-68v-242h-98v242h-59v63h59v30c0 64 32 107 110 107c22 0 44 -2 65 -7z" />
    <glyph glyph-name="g.inferior" unicode="&#xe628;" horiz-adv-x="396" 
d="M353 -143c0 -107 -70 -158 -176 -158c-42 0 -85 4 -126 16l4 71c28 -14 63 -22 99 -22c69 0 102 32 102 93v30c-26 -35 -61 -52 -101 -52c-93 0 -130 76 -130 154c0 81 39 157 131 157c43 0 81 -16 103 -57v51h94v-283zM259 -12c0 39 -13 90 -66 90
c-54 0 -64 -51 -64 -90c0 -37 10 -87 64 -87c52 0 66 50 66 87z" />
    <glyph glyph-name="h.inferior" unicode="&#xe632;" horiz-adv-x="389" 
d="M346 -165h-97v177c0 31 -8 65 -51 65c-52 0 -59 -55 -59 -92v-150h-97v436h97v-183c23 39 59 58 101 58c71 0 106 -43 106 -112v-199z" />
    <glyph glyph-name="i.inferior" unicode="&#xe63b;" horiz-adv-x="182" 
d="M140 190h-97v74h97v-74zM140 -165h-97v305h97v-305z" />
    <glyph glyph-name="j.inferior" unicode="&#xe645;" horiz-adv-x="186" 
d="M143 190h-98v74h98v-74zM143 -195c0 -61 -32 -106 -97 -106c-23 0 -45 1 -65 6l4 67c7 -3 13 -4 22 -4c32 0 38 22 38 45v327h98v-335z" />
    <glyph glyph-name="k.inferior" unicode="&#xe64f;" horiz-adv-x="386" 
d="M381 -165h-120l-122 155v-155h-97v436h97v-259l114 128h117l-129 -137z" />
    <glyph glyph-name="l.inferior" unicode="&#xe659;" horiz-adv-x="182" 
d="M140 -165h-97v436h97v-436z" />
    <glyph glyph-name="m.inferior" unicode="&#xe663;" horiz-adv-x="579" 
d="M536 -165h-97v187c0 28 -8 55 -47 55c-42 0 -55 -37 -55 -72v-170h-96v187c0 28 -8 55 -46 55c-42 0 -55 -38 -55 -72v-170h-97v237c0 23 -1 46 -3 68h91l2 -52c23 38 59 58 104 58c46 0 81 -25 94 -61c20 38 61 61 102 61c77 0 103 -48 103 -116v-195z" />
    <glyph glyph-name="n.inferior" unicode="&#xe66c;" horiz-adv-x="389" 
d="M346 -165h-97v177c0 30 -8 65 -51 65c-46 0 -59 -38 -59 -73v-169h-97v237c0 23 0 45 -3 68h92l1 -52c25 39 64 58 107 58c73 0 107 -43 107 -112v-199z" />
    <glyph glyph-name="o.inferior" unicode="&#x2092;" horiz-adv-x="396" 
d="M371 -12c0 -100 -68 -160 -173 -160c-106 0 -173 60 -173 160c0 101 73 158 174 158c104 0 172 -56 172 -158zM268 -12c0 41 -16 94 -69 94c-52 0 -70 -51 -70 -94c0 -46 18 -95 69 -95c53 0 70 46 70 95z" />
    <glyph glyph-name="p.inferior" unicode="&#xe67f;" horiz-adv-x="396" 
d="M371 -11c0 -83 -36 -161 -134 -161c-40 0 -77 18 -97 58v-181h-97v350c0 35 -1 60 -3 85h92l2 -52c22 38 63 58 104 58c97 0 133 -76 133 -157zM267 -11c0 39 -10 90 -64 90c-53 0 -66 -51 -66 -90c0 -38 13 -93 65 -93c55 0 65 53 65 93z" />
    <glyph glyph-name="q.inferior" unicode="&#xe689;" horiz-adv-x="396" 
d="M353 -295h-97v181c-20 -39 -56 -58 -95 -58c-98 0 -136 78 -136 161c0 81 40 157 134 157c42 0 80 -16 103 -57l1 51h90v-435zM259 -11c0 39 -13 90 -66 90c-55 0 -64 -51 -64 -90s10 -93 65 -93c52 0 65 56 65 93z" />
    <glyph glyph-name="r.inferior" unicode="&#xe693;" horiz-adv-x="263" 
d="M250 144l-3 -86c-8 2 -17 3 -27 3c-59 0 -81 -48 -81 -94v-132h-97v237c0 23 0 45 -3 67h92l1 -60c19 35 51 67 95 67c7 0 15 0 23 -2z" />
    <glyph glyph-name="s.inferior" unicode="&#xe69d;" horiz-adv-x="302" 
d="M276 -71c0 -76 -76 -101 -142 -101c-37 0 -72 5 -106 14l4 65c28 -14 59 -20 92 -20c26 0 60 7 60 33c0 23 -25 31 -67 45s-90 30 -90 87c0 73 81 94 141 94c32 0 64 -5 94 -12l-5 -62c-26 10 -54 15 -84 15c-18 0 -54 -6 -54 -30c0 -16 15 -24 46 -35
c50 -17 111 -28 111 -93z" />
    <glyph glyph-name="t.inferior" unicode="&#xe6a7;" horiz-adv-x="258" 
d="M237 -97l4 -63c-24 -7 -48 -12 -73 -12c-66 0 -100 37 -100 108v140h-57v64h57v60l97 29v-89h71v-64h-71v-136c0 -23 6 -43 38 -43c12 0 23 2 34 6z" />
    <glyph glyph-name="u.inferior" unicode="&#xe6b1;" horiz-adv-x="387" 
d="M347 -165h-92l-1 51c-25 -41 -64 -58 -108 -58c-67 0 -105 41 -105 111v201h97v-180c0 -29 11 -64 50 -64c47 0 58 39 58 74v170h98v-237c0 -23 0 -46 3 -68z" />
    <glyph glyph-name="v.inferior" unicode="&#xe6bb;" horiz-adv-x="341" 
d="M334 140l-103 -305h-123l-102 305h102l65 -233l64 233h97z" />
    <glyph glyph-name="w.inferior" unicode="&#xe6c5;" horiz-adv-x="563" 
d="M554 140l-89 -305h-120l-62 235l-64 -235h-121l-89 305h97l60 -234l62 234h115l62 -234l59 234h90z" />
    <glyph glyph-name="x.inferior" unicode="&#x2093;" horiz-adv-x="362" 
d="M355 -165h-107l-69 117l-71 -117h-102l110 160l-99 145h107l61 -108l58 108h101l-98 -145z" />
    <glyph glyph-name="y.inferior" unicode="&#xe6d8;" horiz-adv-x="339" 
d="M333 140l-116 -332c-20 -58 -49 -109 -126 -109c-26 0 -44 3 -68 7l4 65c11 -3 24 -5 36 -5c30 0 49 20 58 46l5 15l-119 313h103l65 -225l63 225h95z" />
    <glyph glyph-name="z.inferior" unicode="&#xe6e2;" horiz-adv-x="329" 
d="M305 -165h-282v73l168 168h-162v64h274v-74l-166 -168h168v-63z" />
    <glyph glyph-name="exclam.sc" unicode="&#xef32;" horiz-adv-x="294" 
d="M213 0h-132v118h132v-118zM202 182h-110l-18 354h147z" />
    <glyph glyph-name="dollar.sc" unicode="&#xf101;" horiz-adv-x="508" 
d="M290 -86h-83v76c-53 2 -103 10 -152 25l5 106c56 -24 115 -35 166 -35c53 0 89 18 89 62c0 31 -30 49 -85 72l-61 25c-69 29 -117 70 -117 142c0 96 79 140 165 153v80h83v-74c41 -3 86 -8 130 -19l-4 -104c-51 17 -100 27 -139 27c-51 0 -92 -15 -92 -54
c0 -28 29 -45 72 -62l64 -26c81 -35 128 -66 128 -150c0 -102 -79 -152 -169 -165v-79z" />
    <glyph glyph-name="percent.sc" unicode="&#xf0f5;" horiz-adv-x="838" 
d="M287 -19h-81l345 573h80zM590 82c8 -19 20 -31 39 -31c37 0 49 48 49 106c0 60 -14 104 -50 104c-35 0 -49 -44 -49 -104c0 -29 3 -55 11 -75zM558 3c-57 28 -76 86 -76 154c0 85 38 167 146 167c109 0 147 -82 147 -167c0 -87 -39 -168 -147 -168c-28 0 -51 5 -70 14z
M172 304c8 -19 20 -31 39 -31c37 0 49 48 49 106c0 60 -14 104 -50 104c-35 0 -49 -44 -49 -104c0 -29 3 -55 11 -75zM140 225c-57 28 -76 86 -76 154c0 85 38 167 146 167c109 0 147 -82 147 -167c0 -87 -39 -168 -147 -168c-28 0 -51 5 -70 14z" />
    <glyph glyph-name="ampersand.sc" unicode="&#xef3a;" horiz-adv-x="600" 
d="M369 233h-75c-67 0 -113 -22 -113 -79c0 -56 50 -75 113 -75c27 0 48 0 75 7v147zM497 233v-217c-59 -15 -136 -27 -204 -27c-144 0 -253 45 -253 159c0 68 46 110 109 127c-52 19 -92 59 -92 115c0 100 99 156 236 156c60 0 112 -6 157 -19l-3 -95
c-56 19 -102 25 -153 25c-55 0 -101 -23 -101 -70c0 -53 43 -72 103 -72h73v54h128v-54h84v-82h-84z" />
    <glyph glyph-name="zero.sc" unicode="&#xf057;" horiz-adv-x="508" 
d="M212 99c11 -11 25 -16 43 -16c69 0 76 100 76 184c0 93 -8 186 -76 186c-69 0 -78 -93 -78 -186c0 -66 5 -134 35 -168zM149 12c-85 49 -114 147 -114 255c0 140 54 279 220 279c164 0 218 -140 218 -279c0 -137 -52 -278 -218 -278c-42 0 -77 8 -106 23z" />
    <glyph glyph-name="one.sc" unicode="&#xf061;" horiz-adv-x="508" 
d="M363 0h-135v394l-107 -74l-47 94l178 122h111v-536z" />
    <glyph glyph-name="two.sc" unicode="&#xf06c;" horiz-adv-x="508" 
d="M446 0h-398v98l111 93c88 75 142 125 142 181c0 51 -46 74 -91 74c-44 0 -97 -15 -144 -38l-4 106c56 19 113 32 169 32c104 0 208 -41 208 -160c0 -92 -73 -162 -159 -234l-65 -55h231v-97z" />
    <glyph glyph-name="three.sc" unicode="&#xf077;" horiz-adv-x="508" 
d="M44 12l5 96c51 -17 100 -25 144 -25c61 0 114 22 114 78c0 53 -58 71 -118 71h-76v86h65c69 0 122 19 122 72c0 45 -45 64 -106 64c-40 0 -88 -13 -132 -28l-5 95c52 16 103 25 158 25c116 0 222 -40 222 -146c0 -60 -41 -99 -98 -122c61 -17 108 -60 108 -119
c0 -122 -107 -170 -236 -170c-56 0 -111 4 -167 23z" />
    <glyph glyph-name="four.sc" unicode="&#xf082;" horiz-adv-x="508" 
d="M279 405l-148 -202h148v202zM278 109h-249v106l244 321h136v-330h77v-97h-77v-109h-131v109z" />
    <glyph glyph-name="five.sc" unicode="&#xf08c;" horiz-adv-x="508" 
d="M58 11l4 97c43 -13 89 -21 129 -21c75 0 119 30 119 87s-44 81 -117 81c-35 0 -74 -5 -122 -18l5 299h351v-94h-230l-2 -113c19 3 36 5 53 5c111 0 203 -43 203 -159c0 -128 -123 -186 -238 -186c-49 0 -107 7 -155 22z" />
    <glyph glyph-name="six.sc" unicode="&#xf096;" horiz-adv-x="508" 
d="M199 106c14 -19 34 -29 60 -29c55 0 84 39 84 92c0 55 -25 92 -80 92c-51 0 -84 -37 -84 -88c0 -25 7 -48 20 -67zM442 532l-5 -97c-41 12 -79 19 -116 19c-97 0 -140 -65 -145 -148c32 24 72 43 117 43c111 0 182 -65 182 -173c0 -119 -98 -187 -215 -187
c-140 0 -219 91 -219 252c0 175 94 305 272 305c43 0 86 -3 129 -14z" />
    <glyph glyph-name="seven.sc" unicode="&#xf0a0;" horiz-adv-x="508" 
d="M250 0h-158l220 431h-265v105h405v-99z" />
    <glyph glyph-name="eight.sc" unicode="&#xf0aa;" horiz-adv-x="508" 
d="M200 348c13 -13 32 -23 57 -32c47 15 71 41 71 80s-30 65 -73 65c-39 0 -74 -22 -74 -65c0 -19 6 -35 19 -48zM318 207c-13 15 -35 28 -65 37c-56 -15 -83 -45 -83 -88c0 -49 36 -78 85 -78c47 0 84 29 84 80c0 18 -7 34 -21 49zM61 223c21 23 47 41 79 55
c-57 31 -94 67 -94 126c0 91 102 142 209 142c108 0 208 -51 208 -142c0 -60 -34 -97 -95 -125c64 -31 110 -69 110 -136c0 -104 -115 -154 -224 -154c-124 0 -223 54 -223 154c0 31 10 58 30 80z" />
    <glyph glyph-name="nine.sc" unicode="&#xf0b4;" horiz-adv-x="508" 
d="M183 299c13 -17 34 -26 61 -26c52 0 84 37 84 90c0 49 -27 94 -79 94c-55 0 -86 -37 -86 -92c0 -27 7 -49 20 -66zM64 5l4 96c43 -12 83 -18 120 -18c97 0 131 61 142 141c-32 -27 -72 -38 -115 -38c-107 0 -182 63 -182 173c0 118 101 187 213 187
c147 0 222 -97 222 -245c0 -180 -84 -312 -269 -312c-43 0 -88 4 -135 16z" />
    <glyph glyph-name="question.sc" unicode="&#xef82;" horiz-adv-x="414" 
d="M246 0h-134v118h134v-118zM242 182h-124c0 63 26 96 75 135c31 25 46 48 46 76c0 35 -30 55 -77 55c-35 0 -74 -9 -121 -25l-5 101c51 15 98 22 151 22c111 0 192 -48 192 -138c0 -60 -31 -95 -74 -128c-45 -35 -63 -53 -63 -98z" />
    <glyph glyph-name="a.sc" unicode="&#xe5ec;" horiz-adv-x="596" 
d="M294 455l-82 -230h167zM139 0h-132l206 536h169l205 -536h-135l-46 129h-221z" />
    <glyph glyph-name="b.sc" unicode="&#xe5f5;" horiz-adv-x="543" 
d="M203 449v-134h50c47 0 96 14 96 70c0 50 -43 64 -86 64h-60zM203 234v-147h47c48 0 113 9 113 73c0 66 -67 74 -117 74h-43zM276 0h-209v536h207c92 0 212 -19 212 -139c0 -61 -45 -107 -101 -120c68 -16 118 -61 118 -124c0 -133 -125 -153 -227 -153z" />
    <glyph glyph-name="c.sc" unicode="&#xe5ff;" horiz-adv-x="514" 
d="M479 117l7 -103c-49 -19 -97 -25 -146 -25c-179 0 -302 100 -302 278c0 171 134 279 302 279c45 0 96 -6 143 -21l-5 -105c-40 15 -84 25 -117 25c-106 0 -174 -73 -174 -178c0 -107 64 -176 172 -176c36 0 76 9 120 26z" />
    <glyph glyph-name="d.sc" unicode="&#xe609;" horiz-adv-x="598" 
d="M207 440v-344h29c112 0 175 58 175 177c0 99 -51 167 -164 167h-40zM235 0h-168v536h176c179 0 317 -64 317 -263c0 -200 -149 -273 -325 -273z" />
    <glyph glyph-name="e.sc" unicode="&#xe613;" horiz-adv-x="489" 
d="M449 0h-382v536h375v-96h-237v-120h228v-95h-228v-128h244v-97z" />
    <glyph glyph-name="f.sc" unicode="&#xe61c;" horiz-adv-x="467" 
d="M207 0h-140v536h368v-96h-228v-126h219v-96h-219v-218z" />
    <glyph glyph-name="g.sc" unicode="&#xe626;" horiz-adv-x="592" 
d="M421 220h-96v86h211v-284c-67 -23 -121 -33 -189 -33c-176 0 -309 100 -309 278c0 181 154 279 334 279c47 0 102 -5 153 -20l-6 -110c-51 23 -100 31 -143 31c-108 0 -190 -69 -190 -180c0 -99 58 -179 170 -179c28 0 48 3 65 8v124z" />
    <glyph glyph-name="h.sc" unicode="&#xe630;" horiz-adv-x="610" 
d="M207 0h-140v536h140v-207h196v207h140v-536h-140v219h-196v-219z" />
    <glyph glyph-name="i.sc" unicode="&#xe63a;" horiz-adv-x="274" 
d="M207 0h-140v536h140v-536z" />
    <glyph glyph-name="j.sc" unicode="&#xe643;" horiz-adv-x="338" 
d="M7 4l5 104c23 -7 42 -12 57 -12c47 0 67 33 67 78v362h140v-381c0 -105 -60 -166 -168 -166c-31 0 -65 5 -101 15z" />
    <glyph glyph-name="k.sc" unicode="&#xe64d;" horiz-adv-x="569" 
d="M207 0h-140v536h140v-227l184 227h160l-225 -251l243 -285h-168l-194 249v-249z" />
    <glyph glyph-name="l.sc" unicode="&#xe657;" horiz-adv-x="459" 
d="M442 0h-375v536h140v-426h235v-110z" />
    <glyph glyph-name="m.sc" unicode="&#xe661;" horiz-adv-x="788" 
d="M190 0h-123v536h200l129 -403l128 403h197v-536h-128v431l-140 -431h-122l-141 434v-434z" />
    <glyph glyph-name="n.sc" unicode="&#xe66b;" horiz-adv-x="634" 
d="M187 0h-120v536h187l192 -424v424h121v-536h-188l-192 426v-426z" />
    <glyph glyph-name="o.sc" unicode="&#xe674;" horiz-adv-x="622" 
d="M215 142c20 -33 51 -56 96 -56c92 0 124 90 124 181s-32 183 -124 183c-91 0 -124 -92 -124 -183c0 -45 8 -90 28 -125zM194 9c-101 40 -156 131 -156 258c0 165 99 279 273 279c176 0 273 -108 273 -279c0 -166 -98 -278 -273 -278c-44 0 -83 7 -117 20z" />
    <glyph glyph-name="p.sc" unicode="&#xe67d;" horiz-adv-x="529" 
d="M205 442v-158h57c60 0 97 17 97 80c0 55 -37 78 -88 78h-66zM205 0h-138v536h247c107 0 189 -62 189 -171c0 -117 -83 -176 -192 -176h-106v-189z" />
    <glyph glyph-name="q.sc" unicode="&#xe687;" horiz-adv-x="622" 
d="M215 142c20 -33 51 -56 96 -56c92 0 124 90 124 181s-32 183 -124 183c-91 0 -124 -92 -124 -183c0 -45 8 -90 28 -125zM579 -102h-164l-84 92c-7 -1 -13 -1 -20 -1c-176 0 -273 110 -273 278c0 165 99 279 273 279c176 0 273 -108 273 -279c0 -109 -42 -192 -122 -239z
" />
    <glyph glyph-name="r.sc" unicode="&#xe691;" horiz-adv-x="547" 
d="M205 442v-134h57c49 0 92 17 92 69c0 55 -45 65 -97 65h-52zM205 0h-138v536h207c96 0 222 -23 222 -146c0 -65 -42 -110 -119 -123c39 -9 65 -39 76 -68l76 -199h-149l-51 150c-15 44 -32 63 -83 63h-41v-213z" />
    <glyph glyph-name="s.sc" unicode="&#xe69b;" horiz-adv-x="477" 
d="M44 14l5 106c56 -24 103 -34 154 -34c53 0 87 22 87 66c0 31 -26 49 -81 72l-52 21c-69 29 -106 70 -106 142c0 123 125 159 222 159c45 0 83 -4 134 -17l-4 -104c-48 19 -87 25 -126 25c-44 0 -87 -14 -87 -53c0 -32 25 -49 68 -66l52 -21c80 -35 120 -67 120 -150
c0 -123 -103 -171 -214 -171c-60 0 -112 6 -172 25z" />
    <glyph glyph-name="t.sc" unicode="&#xe6a5;" horiz-adv-x="506" 
d="M322 0h-140v426h-170v110h482v-110h-172v-426z" />
    <glyph glyph-name="u.sc" unicode="&#xe6af;" horiz-adv-x="603" 
d="M202 536v-332c0 -63 31 -112 98 -112c68 0 99 48 99 111v333h142v-331c0 -140 -105 -216 -241 -216c-137 0 -238 69 -238 211v336h140z" />
    <glyph glyph-name="v.sc" unicode="&#xe6b9;" horiz-adv-x="561" 
d="M358 0h-159l-199 536h150l133 -416l134 416h144z" />
    <glyph glyph-name="w.sc" unicode="&#xe6c3;" horiz-adv-x="825" 
d="M306 0h-151l-146 536h135l96 -412l107 412h139l103 -414l99 414h128l-147 -536h-149l-108 419z" />
    <glyph glyph-name="x.sc" unicode="&#xe6cd;" horiz-adv-x="578" 
d="M153 0h-152l210 277l-188 259h157l117 -184l116 184h148l-194 -259l210 -277h-162l-131 199z" />
    <glyph glyph-name="y.sc" unicode="&#xe6d6;" horiz-adv-x="538" 
d="M336 0h-140v197l-198 339h149l125 -245l123 245h145l-204 -340v-196z" />
    <glyph glyph-name="z.sc" unicode="&#xe6e0;" horiz-adv-x="484" 
d="M458 0h-432v105l276 331h-267v100h415v-106l-275 -329h283v-101z" />
    <glyph glyph-name="ae.sc" unicode="&#xeb99;" horiz-adv-x="786" 
d="M387 456l-131 -230h131v230zM131 0h-140l330 536h418v-96h-224v-120h214v-95h-214v-128h231v-97h-359v130h-180z" />
    <glyph glyph-name="aogonek.sc" unicode="&#xeb8f;" horiz-adv-x="596" 
d="M294 455l-82 -230h167zM139 0h-132l206 536h169l205 -536h-60c-56 -43 -72 -72 -72 -99s21 -40 46 -40c21 0 42 5 63 14l12 -46c-27 -13 -54 -21 -99 -21c-61 0 -100 31 -100 78c0 43 39 83 94 114h-19l-46 129h-221z" />
    <glyph glyph-name="ccedilla.sc" unicode="&#xebd5;" horiz-adv-x="514" 
d="M194 -172l19 46c32 -11 55 -18 82 -18c24 0 47 9 47 28s-20 29 -39 29c-14 0 -28 -2 -41 -7l-20 25l42 62c-148 19 -246 114 -246 274c0 171 134 279 302 279c45 0 96 -6 143 -21l-5 -105c-40 15 -84 25 -117 25c-106 0 -174 -73 -174 -178c0 -107 64 -176 172 -176
c36 0 76 9 120 26l7 -103c-49 -19 -97 -25 -149 -25l-27 -40c8 3 20 4 36 4c43 0 73 -23 73 -66c0 -51 -45 -79 -120 -79c-35 0 -68 5 -105 20z" />
    <glyph glyph-name="eth.sc" unicode="&#xebf3;" horiz-adv-x="598" 
d="M235 0h-167v232h-57v80h57v224h175c179 0 317 -64 317 -263c0 -200 -149 -273 -325 -273zM206 232v-136h30c112 0 175 58 175 177c0 99 -51 167 -164 167h-41v-128h114v-80h-114z" />
    <glyph glyph-name="dcroat.sc" unicode="&#xebe9;" horiz-adv-x="598" 
d="M235 0h-167v232h-57v80h57v224h175c179 0 317 -64 317 -263c0 -200 -149 -273 -325 -273zM206 232v-136h30c112 0 175 58 175 177c0 99 -51 167 -164 167h-41v-128h114v-80h-114z" />
    <glyph glyph-name="eogonek.sc" unicode="&#xec4d;" horiz-adv-x="489" 
d="M338 0h-271v536h375v-96h-237v-120h228v-95h-228v-128h244v-97h-55c-56 -43 -72 -72 -72 -99s21 -40 46 -40c21 0 42 5 63 14l12 -46c-27 -13 -54 -21 -99 -21c-61 0 -100 31 -100 78c0 43 39 83 94 114z" />
    <glyph glyph-name="hbar.sc" unicode="&#xec89;" horiz-adv-x="610" 
d="M207 373v-88h194v88h-194zM207 0h-140v536h140v-90h194v90h142v-536h-142v185h-194v-185z" />
    <glyph glyph-name="iogonek.sc" unicode="&#xecda;" horiz-adv-x="275" 
d="M145 0h-78v536h140v-536h-6c-56 -43 -72 -72 -72 -99s21 -40 46 -40c23 0 34 3 57 14l12 -46c-27 -13 -48 -21 -93 -21c-61 0 -100 31 -100 78c0 43 39 83 94 114z" />
    <glyph glyph-name="lslash.sc" unicode="&#xed20;" horiz-adv-x="459" 
d="M442 0h-375v209l-62 -45v85l62 46v241h140v-163l114 81v-88l-114 -81v-175h235v-110z" />
    <glyph glyph-name="oe.sc" unicode="&#xedca;" horiz-adv-x="785" 
d="M395 94v348c-20 7 -37 8 -60 8c-104 0 -148 -90 -148 -183c0 -86 41 -181 148 -181c23 0 39 1 60 8zM745 0h-300c-35 -7 -69 -11 -110 -11c-187 0 -297 110 -297 278c0 165 116 279 297 279c47 0 74 -2 111 -10h292v-96h-214v-120h204v-95h-204v-128h221v-97z" />
    <glyph glyph-name="oslash.sc" unicode="&#xedb6;" horiz-adv-x="622" 
d="M193 205l200 208c-19 23 -46 37 -82 37c-91 0 -124 -92 -124 -183c0 -21 2 -42 6 -62zM427 342l-204 -211c20 -28 48 -45 88 -45c92 0 124 90 124 181c0 25 -3 50 -8 75zM75 -23l-54 50l64 66c-31 47 -47 105 -47 174c0 165 99 279 273 279c67 0 122 -15 166 -46l57 59
l54 -50l-57 -59c35 -47 53 -108 53 -183c0 -166 -98 -278 -273 -278c-71 0 -130 17 -175 51z" />
    <glyph glyph-name="scedilla.sc" unicode="&#xee10;" horiz-adv-x="477" 
d="M116 -172l19 46c32 -11 55 -18 82 -18c24 0 47 9 47 28s-20 29 -39 29c-14 0 -28 -2 -41 -7l-20 25l38 58c-55 1 -102 9 -158 25l5 106c56 -24 103 -34 154 -34c53 0 87 22 87 66c0 31 -26 49 -81 72l-52 21c-69 29 -106 70 -106 142c0 123 125 159 222 159
c45 0 83 -4 134 -17l-4 -104c-48 19 -87 25 -126 25c-44 0 -87 -14 -87 -53c0 -32 25 -49 68 -66l52 -21c80 -35 120 -67 120 -150c0 -106 -77 -157 -170 -168l-28 -43c8 3 20 4 36 4c43 0 73 -23 73 -66c0 -51 -45 -79 -120 -79c-35 0 -68 5 -105 20z" />
    <glyph glyph-name="germandbls.sc" unicode="&#xee24;" horiz-adv-x="946" 
d="M513 14l5 106c56 -24 103 -34 154 -34c53 0 87 22 87 66c0 31 -26 49 -81 72l-52 21c-69 29 -106 70 -106 142c0 123 125 159 222 159c45 0 83 -4 134 -17l-4 -104c-48 19 -87 25 -126 25c-44 0 -87 -14 -87 -53c0 -32 25 -49 68 -66l52 -21c80 -35 120 -67 120 -150
c0 -123 -103 -171 -214 -171c-60 0 -112 6 -172 25zM44 14l5 106c56 -24 103 -34 154 -34c53 0 87 22 87 66c0 31 -26 49 -81 72l-52 21c-69 29 -106 70 -106 142c0 123 125 159 222 159c45 0 83 -4 134 -17l-4 -104c-48 19 -87 25 -126 25c-44 0 -87 -14 -87 -53
c0 -32 25 -49 68 -66l52 -21c80 -35 120 -67 120 -150c0 -123 -103 -171 -214 -171c-60 0 -112 6 -172 25z" />
    <glyph glyph-name="thorn.sc" unicode="&#xee4c;" horiz-adv-x="531" 
d="M206 350v-159h38c59 0 116 8 116 82c0 56 -44 77 -96 77h-58zM207 0h-140v536h140v-91h106c108 0 190 -62 190 -171c0 -117 -83 -176 -192 -176h-104v-98z" />
    <glyph glyph-name="tbar.sc" unicode="&#xee42;" horiz-adv-x="506" 
d="M322 0h-140v252h-113v81h113v93h-170v110h482v-110h-172v-93h114v-81h-114v-252z" />
    <glyph glyph-name="fl.sc" unicode="&#xf172;" horiz-adv-x="918" 
d="M198 0h-140v536h368v-96h-228v-126h219v-96h-219v-218zM901 0h-375v536h140v-426h235v-110z" />
    <glyph glyph-name="uogonek.sc" unicode="&#xeeb0;" horiz-adv-x="603" 
d="M410 -125l12 -46c-27 -13 -54 -21 -99 -21c-61 0 -100 31 -100 78c0 39 31 75 75 103c-137 0 -236 70 -236 211v336h140v-332c0 -63 31 -112 98 -112c68 0 99 48 99 111v333h142v-331c0 -115 -73 -188 -174 -209c-51 -40 -66 -68 -66 -95s21 -40 46 -40c21 0 42 5 63 14z
" />
    <glyph glyph-name="fi.sc" unicode="&#xf15b;" horiz-adv-x="734" 
d="M198 0h-140v536h368v-96h-228v-126h219v-96h-219v-218zM666 0h-140v536h140v-536z" />
    <glyph glyph-name="ij.sc" unicode="&#xf192;" horiz-adv-x="605" 
d="M196 0h-140v536h140v-536zM274 4l5 104c23 -7 42 -12 57 -12c47 0 67 33 67 78v362h140v-381c0 -105 -60 -166 -168 -166c-31 0 -65 5 -101 15z" />
    <glyph glyph-name="grave.sc" unicode="&#xe001;" horiz-adv-x="263" 
d="M187 606h-98l-112 136h138z" />
    <glyph glyph-name="acute.sc" unicode="&#xe003;" horiz-adv-x="263" 
d="M167 606h-99l72 136h138z" />
    <glyph glyph-name="circumflex.sc" unicode="&#xe005;" horiz-adv-x="263" 
d="M63 606h-93l103 136h117l103 -136h-94l-68 86z" />
    <glyph glyph-name="caron.sc" unicode="&#xe007;" horiz-adv-x="263" 
d="M190 606h-117l-103 136h94l68 -86l68 86h93z" />
    <glyph glyph-name="tilde.sc" unicode="&#xe00a;" horiz-adv-x="263" 
d="M25 612h-64c3 56 34 119 100 119c53 0 100 -39 137 -39c25 0 37 20 40 41h65c-3 -56 -39 -118 -103 -118c-55 0 -90 38 -132 38c-23 0 -43 -21 -43 -41z" />
    <glyph glyph-name="dieresis.sc" unicode="&#xe00c;" horiz-adv-x="263" 
d="M89 618h-107v111h107v-111zM281 618h-107v111h107v-111z" />
    <glyph glyph-name="macron.sc" unicode="&#xe00e;" horiz-adv-x="263" 
d="M284 639h-304v70h304v-70z" />
    <glyph glyph-name="breve.sc" unicode="&#xe010;" horiz-adv-x="263" 
d="M-14 739h67c3 -35 30 -64 79 -64s75 29 78 64h68c0 -58 -50 -132 -146 -132c-97 0 -146 74 -146 132z" />
    <glyph glyph-name="ring.sc" unicode="&#xe012;" horiz-adv-x="263" 
d="M78 674c0 -31 25 -54 54 -54c31 0 54 23 54 54c0 29 -23 53 -54 53s-54 -24 -54 -53zM61 602c-19 19 -30 44 -30 72c0 56 45 99 101 99c55 0 101 -43 101 -99c0 -55 -46 -100 -101 -100c-28 0 -52 11 -71 28z" />
    <glyph glyph-name="hungarumlaut.sc" unicode="&#xe014;" horiz-adv-x="263" 
d="M32 606h-99l72 136h139zM248 606h-99l72 136h139z" />
    <glyph glyph-name="dotaccent.sc" unicode="&#xe016;" horiz-adv-x="263" 
d="M193 618h-122v111h122v-111z" />
    <glyph glyph-name="exclamdown.sc" unicode="&#xefc2;" horiz-adv-x="294" 
d="M214 418h-134v118h134v-118zM221 0h-149l19 354h112z" />
    <glyph glyph-name="questiondown.sc" unicode="&#xefc6;" horiz-adv-x="414" 
d="M296 418h-134v118h134v-118zM367 113l5 -101c-51 -15 -98 -22 -151 -22c-111 0 -192 48 -192 138c0 60 31 95 74 128c45 33 63 54 63 98h124c0 -63 -27 -98 -76 -135c-31 -27 -47 -48 -47 -76c0 -36 33 -55 78 -55c35 0 75 9 122 25z" />
    <glyph glyph-name="Euro.sc" unicode="&#xf113;" horiz-adv-x="508" 
d="M79 184h-79l15 57h56c-1 12 -1 19 -1 27c0 4 0 11 1 26h-70l14 57h65c32 115 129 195 262 195c37 0 87 -3 136 -18l-27 -96c-31 12 -66 16 -90 16c-76 0 -127 -42 -146 -97h217l-15 -57h-213c-1 -13 -1 -21 -1 -26s0 -16 1 -27h205l-15 -57h-179c19 -56 72 -94 147 -94
c29 0 64 5 95 14l6 -101c-36 -9 -75 -14 -118 -14c-137 0 -235 70 -266 195z" />
    <glyph glyph-name="cent.sc" unicode="&#xf11c;" horiz-adv-x="508" 
d="M324 0h-80v74c-107 19 -177 89 -177 196c0 101 73 176 177 192v74h80v-70c31 -1 68 -6 99 -17l-4 -92c-35 15 -71 24 -98 24c-75 0 -120 -47 -120 -111c0 -67 45 -113 120 -113c29 0 65 7 98 23l6 -89c-33 -12 -70 -19 -101 -20v-71z" />
    <glyph glyph-name="sterling.sc" unicode="&#xf125;" horiz-adv-x="508" 
d="M464 0h-411v91h66v141h-62v88h62v35c0 123 73 191 205 191c43 0 95 -7 138 -19l-5 -94c-33 11 -77 20 -109 20c-73 0 -94 -45 -94 -103v-30h148v-88h-148v-141h210v-91z" />
    <glyph glyph-name="florin.sc" unicode="&#xf12e;" horiz-adv-x="508" 
d="M-6 -170l5 92c24 -4 43 -6 54 -6c31 0 48 20 59 75l51 249h-93v86h111l16 72c19 88 67 148 159 148c28 0 63 -3 91 -12l-5 -87c-23 7 -45 9 -56 9c-38 0 -51 -35 -59 -67l-13 -63h98v-86h-116l-54 -259c-20 -99 -69 -159 -153 -159c-29 0 -63 1 -95 8z" />
    <glyph glyph-name="yen.sc" unicode="&#xf137;" horiz-adv-x="508" 
d="M185 108h-125v57h125v53h-125v57h87l-143 261h138l114 -245l114 245h136l-150 -261h91v-57h-131v-53h131v-57h-131v-108h-131v108z" />
    <glyph glyph-name="perthousand.sc" unicode="&#xf0f9;" horiz-adv-x="1173" 
d="M287 -19h-81l345 573h80zM925 82c8 -19 20 -31 39 -31c37 0 49 48 49 106c0 60 -14 104 -50 104c-35 0 -49 -44 -49 -104c0 -29 3 -55 11 -75zM893 3c-57 28 -76 86 -76 154c0 85 38 167 146 167c109 0 147 -82 147 -167c0 -87 -39 -168 -147 -168c-28 0 -51 5 -70 14z
M590 82c8 -19 20 -31 39 -31c37 0 49 48 49 106c0 60 -14 104 -50 104c-35 0 -49 -44 -49 -104c0 -29 3 -55 11 -75zM558 3c-57 28 -76 86 -76 154c0 85 38 167 146 167c109 0 147 -82 147 -167c0 -87 -39 -168 -147 -168c-28 0 -51 5 -70 14zM172 304c8 -19 20 -31 39 -31
c37 0 49 48 49 106c0 60 -14 104 -50 104c-35 0 -49 -44 -49 -104c0 -29 3 -55 11 -75zM140 225c-57 28 -76 86 -76 154c0 85 38 167 146 167c109 0 147 -82 147 -167c0 -87 -39 -168 -147 -168c-28 0 -51 5 -70 14z" />
    <glyph glyph-name="ordfeminine.sc" horiz-adv-x="336" 
d="M167 473l-31 -80h60zM103 294h-88l104 246h100l102 -246h-90l-18 46h-93z" />
    <glyph glyph-name="zero.scprop" unicode="&#xf058;" horiz-adv-x="508" 
d="M212 99c11 -11 25 -16 43 -16c69 0 76 100 76 184c0 93 -8 186 -76 186c-69 0 -78 -93 -78 -186c0 -66 5 -134 35 -168zM149 12c-85 49 -114 147 -114 255c0 140 54 279 220 279c164 0 218 -140 218 -279c0 -137 -52 -278 -218 -278c-42 0 -77 8 -106 23z" />
    <glyph glyph-name="one.scprop" unicode="&#xf062;" horiz-adv-x="400" 
d="M305 0h-135v394l-107 -74l-47 94l178 122h111v-536z" />
    <glyph glyph-name="two.scprop" unicode="&#xf06d;" horiz-adv-x="508" 
d="M446 0h-398v98l111 93c88 75 142 125 142 181c0 51 -46 74 -91 74c-44 0 -97 -15 -144 -38l-4 106c56 19 113 32 169 32c104 0 208 -41 208 -160c0 -92 -73 -162 -159 -234l-65 -55h231v-97z" />
    <glyph glyph-name="three.scprop" unicode="&#xf078;" horiz-adv-x="508" 
d="M44 12l5 96c51 -17 100 -25 144 -25c61 0 114 22 114 78c0 53 -58 71 -118 71h-76v86h65c69 0 122 19 122 72c0 45 -45 64 -106 64c-40 0 -88 -13 -132 -28l-5 95c52 16 103 25 158 25c116 0 222 -40 222 -146c0 -60 -41 -99 -98 -122c61 -17 108 -60 108 -119
c0 -122 -107 -170 -236 -170c-56 0 -111 4 -167 23z" />
    <glyph glyph-name="four.scprop" unicode="&#xf083;" horiz-adv-x="508" 
d="M279 405l-148 -202h148v202zM278 109h-249v106l244 321h136v-330h77v-97h-77v-109h-131v109z" />
    <glyph glyph-name="five.scprop" unicode="&#xf08d;" horiz-adv-x="508" 
d="M58 11l4 97c43 -13 89 -21 129 -21c75 0 119 30 119 87s-44 81 -117 81c-35 0 -74 -5 -122 -18l5 299h351v-94h-230l-2 -113c19 3 36 5 53 5c111 0 203 -43 203 -159c0 -128 -123 -186 -238 -186c-49 0 -107 7 -155 22z" />
    <glyph glyph-name="six.scprop" unicode="&#xf097;" horiz-adv-x="508" 
d="M199 106c14 -19 34 -29 60 -29c55 0 84 39 84 92c0 55 -25 92 -80 92c-51 0 -84 -37 -84 -88c0 -25 7 -48 20 -67zM442 532l-5 -97c-41 12 -79 19 -116 19c-97 0 -140 -65 -145 -148c32 24 72 43 117 43c111 0 182 -65 182 -173c0 -119 -98 -187 -215 -187
c-140 0 -219 91 -219 252c0 175 94 305 272 305c43 0 86 -3 129 -14z" />
    <glyph glyph-name="seven.scprop" unicode="&#xf0a1;" horiz-adv-x="458" 
d="M219 0h-158l220 431h-265v105h405v-99z" />
    <glyph glyph-name="eight.scprop" unicode="&#xf0ab;" horiz-adv-x="508" 
d="M200 348c13 -13 32 -23 57 -32c47 15 71 41 71 80s-30 65 -73 65c-39 0 -74 -22 -74 -65c0 -19 6 -35 19 -48zM318 207c-13 15 -35 28 -65 37c-56 -15 -83 -45 -83 -88c0 -49 36 -78 85 -78c47 0 84 29 84 80c0 18 -7 34 -21 49zM61 223c21 23 47 41 79 55
c-57 31 -94 67 -94 126c0 91 102 142 209 142c108 0 208 -51 208 -142c0 -60 -34 -97 -95 -125c64 -31 110 -69 110 -136c0 -104 -115 -154 -224 -154c-124 0 -223 54 -223 154c0 31 10 58 30 80z" />
    <glyph glyph-name="nine.scprop" unicode="&#xf0b5;" horiz-adv-x="508" 
d="M183 299c13 -17 34 -26 61 -26c52 0 84 37 84 90c0 49 -27 94 -79 94c-55 0 -86 -37 -86 -92c0 -27 7 -49 20 -66zM64 5l4 96c43 -12 83 -18 120 -18c97 0 131 61 142 141c-32 -27 -72 -38 -115 -38c-107 0 -182 63 -182 173c0 118 101 187 213 187
c147 0 222 -97 222 -245c0 -180 -84 -312 -269 -312c-43 0 -88 4 -135 16z" />
    <glyph glyph-name="cyrbreve.sc" unicode="&#xe021;" horiz-adv-x="263" 
d="M132 598c-99 0 -151 62 -169 119l62 36c17 -35 45 -68 107 -68c60 0 89 35 107 68l62 -36c-17 -55 -72 -119 -169 -119z" />
    <glyph glyph-name="afii10103.sc" horiz-adv-x="274" 
d="M207 0h-140v536h140v-536z" />
    <glyph glyph-name="afii10105.sc" horiz-adv-x="338" 
d="M7 4l5 104c23 -7 42 -12 57 -12c47 0 67 33 67 78v362h140v-381c0 -105 -60 -166 -168 -166c-31 0 -65 5 -101 15z" />
    <glyph glyph-name="afii10077.sc" horiz-adv-x="620" 
d="M89 -7c-31 0 -64 4 -83 10l4 100c9 -5 25 -7 38 -7c75 0 86 89 88 440h417v-536h-140v436h-146c-4 -255 -6 -443 -178 -443z" />
    <glyph glyph-name="afii10065.sc" horiz-adv-x="596" 
d="M139 0h-132l206 536h169l205 -536h-135l-46 129h-221zM294 455l-82 -230h167z" />
    <glyph glyph-name="afii10066.sc" horiz-adv-x="540" 
d="M67 0v536h389v-96h-249v-114h93c122 0 200 -38 200 -158c0 -116 -84 -168 -208 -168h-225zM204 93h68c51 0 90 16 90 73c0 52 -37 69 -91 69h-67v-142z" />
    <glyph glyph-name="afii10067.sc" horiz-adv-x="543" 
d="M276 0h-209v536h207c92 0 212 -19 212 -139c0 -61 -45 -107 -101 -120c68 -16 118 -61 118 -124c0 -133 -125 -153 -227 -153zM203 234v-147h47c48 0 113 9 113 73c0 66 -67 74 -117 74h-43zM203 449v-134h50c47 0 96 14 96 70c0 50 -43 64 -86 64h-60z" />
    <glyph glyph-name="afii10068.sc" horiz-adv-x="433" 
d="M67 0v536h356v-103h-216v-433h-140z" />
    <glyph glyph-name="afii10069.sc" horiz-adv-x="626" 
d="M5 -137v238h54c46 64 68 165 68 272v163h414v-435h73v-238h-127v137h-355v-137h-127zM197 101h204v335h-148v-85c0 -95 -19 -186 -56 -250z" />
    <glyph glyph-name="afii10070.sc" horiz-adv-x="489" 
d="M449 0h-382v536h375v-96h-237v-120h228v-95h-228v-128h244v-97z" />
    <glyph glyph-name="afii10072.sc" horiz-adv-x="856" 
d="M0 0l220 286l-200 250h160l178 -244v244h140v-244l177 244h161l-200 -250l220 -286h-169l-189 269v-269h-140v269l-189 -269h-169z" />
    <glyph glyph-name="afii10073.sc" horiz-adv-x="488" 
d="M217 -11c-76 0 -140 11 -186 27l6 102c35 -17 85 -33 140 -33c67 0 120 22 120 75c0 64 -59 73 -117 73c-12 0 -46 0 -54 -1v90c5 -1 38 -1 46 -1c54 0 121 11 121 71c0 51 -52 61 -99 61c-52 0 -112 -18 -145 -31l-6 97c44 12 119 27 185 27c119 0 210 -33 210 -137
c0 -65 -45 -111 -111 -127c71 -10 121 -57 121 -130c0 -112 -101 -163 -231 -163z" />
    <glyph glyph-name="afii10074.sc" horiz-adv-x="615" 
d="M67 0v536h133v-371l195 371h153v-536h-133v370l-196 -370h-152z" />
    <glyph glyph-name="afii10076.sc" horiz-adv-x="569" 
d="M207 0h-140v536h140v-227l184 227h160l-225 -251l243 -285h-168l-194 249v-249z" />
    <glyph glyph-name="afii10078.sc" horiz-adv-x="788" 
d="M190 0h-123v536h200l129 -403l128 403h197v-536h-128v431l-140 -431h-122l-141 434v-434z" />
    <glyph glyph-name="afii10079.sc" horiz-adv-x="610" 
d="M207 0h-140v536h140v-207h196v207h140v-536h-140v219h-196v-219z" />
    <glyph glyph-name="afii10080.sc" horiz-adv-x="622" 
d="M194 9c-101 40 -156 131 -156 258c0 165 99 279 273 279c176 0 273 -108 273 -279c0 -166 -98 -278 -273 -278c-44 0 -83 7 -117 20zM215 142c20 -33 51 -56 96 -56c92 0 124 90 124 181s-32 183 -124 183c-91 0 -124 -92 -124 -183c0 -45 8 -90 28 -125z" />
    <glyph glyph-name="afii10081.sc" horiz-adv-x="600" 
d="M67 0v536h466v-536h-140v436h-186v-436h-140z" />
    <glyph glyph-name="afii10082.sc" horiz-adv-x="529" 
d="M205 0h-138v536h247c107 0 189 -62 189 -171c0 -117 -83 -176 -192 -176h-106v-189zM205 442v-158h57c60 0 97 17 97 80c0 55 -37 78 -88 78h-66z" />
    <glyph glyph-name="afii10083.sc" horiz-adv-x="514" 
d="M479 117l7 -103c-49 -19 -97 -25 -146 -25c-179 0 -302 100 -302 278c0 171 134 279 302 279c45 0 96 -6 143 -21l-5 -105c-40 15 -84 25 -117 25c-106 0 -174 -73 -174 -178c0 -107 64 -176 172 -176c36 0 76 9 120 26z" />
    <glyph glyph-name="afii10084.sc" horiz-adv-x="506" 
d="M322 0h-140v426h-170v110h482v-110h-172v-426z" />
    <glyph glyph-name="afii10085.sc" horiz-adv-x="554" 
d="M173 -11c-34 0 -73 5 -101 10l4 95c11 -3 37 -8 57 -8c29 0 49 23 70 63l-204 387h150l131 -286l131 286h144l-218 -417c-30 -57 -73 -130 -164 -130z" />
    <glyph glyph-name="afii10086.sc" horiz-adv-x="745" 
d="M303 -11v58c-100 0 -163 23 -206 62c-44 41 -69 100 -69 169s24 126 70 164c43 37 105 59 205 59v49h140v-49c100 0 161 -22 204 -58c45 -39 70 -96 70 -165s-25 -129 -70 -169c-43 -39 -103 -62 -204 -62v-58h-140zM305 139v270c-88 0 -132 -48 -132 -131
c0 -90 45 -138 132 -139zM440 139c87 1 133 49 133 139c0 83 -45 131 -133 131v-270z" />
    <glyph glyph-name="afii10087.sc" horiz-adv-x="578" 
d="M153 0h-152l210 277l-188 259h157l117 -184l116 184h148l-194 -259l210 -277h-162l-131 199z" />
    <glyph glyph-name="afii10088.sc" horiz-adv-x="619" 
d="M480 -137v137h-413v536h140v-435h186v435h140v-435h74v-238h-127z" />
    <glyph glyph-name="afii10089.sc" horiz-adv-x="565" 
d="M358 0v200c-21 -7 -91 -18 -129 -18c-106 0 -182 36 -182 177v177h135v-163c0 -65 22 -89 84 -89c27 0 77 8 92 14v238h140v-536h-140z" />
    <glyph glyph-name="afii10090.sc" horiz-adv-x="890" 
d="M67 0v536h140v-435h168v435h140v-435h168v435h140v-536h-756z" />
    <glyph glyph-name="afii10091.sc" horiz-adv-x="909" 
d="M770 -137v137h-703v536h140v-435h168v435h140v-435h168v435h140v-435h74v-238h-127z" />
    <glyph glyph-name="afii10092.sc" horiz-adv-x="611" 
d="M139 0v433h-129v103h269v-195h107c103 0 199 -48 199 -169c0 -127 -97 -172 -203 -172h-243zM279 94h61c60 0 102 16 102 79c0 55 -39 77 -90 77h-73v-156z" />
    <glyph glyph-name="afii10093.sc" horiz-adv-x="781" 
d="M67 0v536h140v-195h107c103 0 199 -48 199 -169c0 -127 -97 -172 -203 -172h-243zM207 94h61c60 0 102 16 102 79c0 55 -39 77 -90 77h-73v-156zM574 0v536h140v-536h-140z" />
    <glyph glyph-name="afii10094.sc" horiz-adv-x="539" 
d="M67 0v536h140v-195h107c103 0 199 -48 199 -169c0 -127 -97 -172 -203 -172h-243zM207 94h61c60 0 102 16 102 79c0 55 -39 77 -90 77h-73v-156z" />
    <glyph glyph-name="afii10095.sc" horiz-adv-x="514" 
d="M175 -11c-56 0 -105 8 -147 23l6 100c36 -16 69 -24 112 -24c110 0 167 54 180 137h-221v95h220c-17 76 -72 130 -177 130c-40 0 -80 -9 -112 -22l-6 96c44 14 99 22 152 22c181 0 294 -105 294 -275c0 -176 -119 -282 -301 -282z" />
    <glyph glyph-name="afii10096.sc" horiz-adv-x="861" 
d="M557 -11c-149 0 -248 87 -263 235h-87v-224h-140v536h140v-213h88c20 136 116 223 262 223c173 0 266 -109 266 -280c0 -162 -93 -277 -266 -277zM556 85c94 0 118 87 118 182c0 106 -34 184 -117 184c-85 0 -118 -90 -118 -184c0 -104 36 -182 117 -182z" />
    <glyph glyph-name="afii10097.sc" horiz-adv-x="548" 
d="M9 0l57 127c30 67 50 95 102 108c-77 15 -127 71 -127 144c0 137 119 157 234 157h206v-536h-140v192h-31c-42 0 -72 -14 -89 -53l-60 -139h-152zM284 281h60v161h-54c-63 0 -108 -18 -108 -79c0 -56 42 -82 102 -82z" />
    <glyph glyph-name="afii10102.sc" horiz-adv-x="477" 
d="M44 14l5 106c56 -24 103 -34 154 -34c53 0 87 22 87 66c0 31 -26 49 -81 72l-52 21c-69 29 -106 70 -106 142c0 123 125 159 222 159c45 0 83 -4 134 -17l-4 -104c-48 19 -87 25 -126 25c-44 0 -87 -14 -87 -53c0 -32 25 -49 68 -66l52 -21c80 -35 120 -67 120 -150
c0 -123 -103 -171 -214 -171c-60 0 -112 6 -172 25z" />
    <glyph glyph-name="afii10098.sc" horiz-adv-x="439" 
d="M67 0v536h238v126h124v-230h-222v-432h-140z" />
    <glyph glyph-name="afii10193.sc" horiz-adv-x="605" 
d="M239 -137v137h-172v536h140v-435h191v435h140v-536h-171v-137h-128z" />
    <glyph glyph-name="afii10106.sc" horiz-adv-x="867" 
d="M89 -7c-31 0 -64 4 -83 10l4 100c9 -5 25 -7 38 -7c75 0 86 89 88 440h407v-195h99c103 0 199 -48 199 -169c0 -127 -97 -172 -203 -172h-235v436h-136c-4 -255 -6 -443 -178 -443zM543 94h53c60 0 102 16 102 79c0 55 -39 77 -90 77h-65v-156z" />
    <glyph glyph-name="afii10107.sc" horiz-adv-x="856" 
d="M67 0v536h140v-204h186v204h140v-204h102c102 0 195 -44 195 -164c0 -126 -93 -168 -199 -168h-238v233h-186v-233h-140zM533 94h62c58 0 92 17 92 72c0 52 -34 70 -83 70h-71v-142z" />
    <glyph glyph-name="afii10101.sc" horiz-adv-x="514" 
d="M336 -11c-185 0 -298 106 -298 279c0 162 117 278 297 278c53 0 104 -8 149 -22l-6 -96c-32 13 -69 22 -109 22c-105 0 -161 -54 -179 -130h219v-95h-221c14 -83 67 -137 178 -137c42 0 78 8 114 24l6 -100c-42 -15 -94 -23 -150 -23z" />
    <glyph glyph-name="afii10108.sc" horiz-adv-x="650" 
d="M142 0v433h-131v103h481v-103h-210v-155c30 49 99 74 157 74c99 0 170 -56 170 -159v-193h-139v156c0 68 -39 102 -92 102c-50 0 -96 -38 -96 -98v-160h-140z" />
    <glyph glyph-name="afii10099.sc" horiz-adv-x="650" 
d="M429 -10c-30 0 -68 3 -94 10l3 86c14 -5 28 -8 42 -8c65 0 96 30 96 94c0 58 -39 86 -95 86c-55 0 -99 -34 -99 -100v-158h-140v433h-131v103h481v-103h-210v-155c30 49 101 74 159 74c99 0 178 -61 178 -174c0 -125 -87 -188 -190 -188z" />
    <glyph glyph-name="one.onum" unicode="&#xf05f;" horiz-adv-x="588" 
d="M405 0h-146v437h-155v107h301v-544z" />
    <glyph glyph-name="zero.onum" unicode="&#xf055;" horiz-adv-x="588" 
d="M204 137c19 -33 49 -50 90 -50c83 0 117 74 117 187c0 109 -33 182 -117 182c-83 0 -117 -73 -117 -185c0 -55 9 -100 27 -134zM178 9c-100 42 -152 136 -152 262c0 166 101 284 268 284c177 0 268 -114 268 -282c0 -166 -96 -284 -268 -284c-44 0 -83 7 -116 20z" />
    <glyph glyph-name="two.onum" unicode="&#xf06a;" horiz-adv-x="588" 
d="M500 0h-436v99c213 144 281 192 281 272c0 44 -31 82 -99 82c-51 0 -95 -10 -159 -34l-6 102c63 20 124 33 191 33c152 0 219 -73 219 -169c0 -109 -82 -184 -251 -291h260v-94z" />
    <glyph glyph-name="three.onum" unicode="&#xf075;" horiz-adv-x="588" 
d="M65 -157l-8 98c23 -3 49 -5 73 -5c152 0 220 53 220 145c0 74 -71 98 -147 98h-67v93h61c84 0 146 31 146 104c0 57 -53 80 -116 80c-43 0 -95 -10 -148 -30l-6 100c56 19 125 28 186 28c127 0 227 -50 227 -165c0 -80 -51 -137 -138 -154c100 -13 149 -67 149 -150
c0 -148 -125 -247 -353 -247c-21 0 -55 1 -79 5z" />
    <glyph glyph-name="four.onum" unicode="&#xf080;" horiz-adv-x="588" 
d="M343 0h-306v109l234 435h134l-243 -443h182v264h125v-264h97v-101h-96v-159h-127v159z" />
    <glyph glyph-name="five.onum" unicode="&#xf08a;" horiz-adv-x="588" 
d="M95 -157l-8 98c24 -3 49 -5 72 -5c152 0 219 59 219 152c0 72 -44 111 -147 111c-43 0 -81 -2 -134 -15l6 360h392v-99h-263l-4 -168c33 5 60 7 83 7c140 0 214 -69 214 -190c0 -149 -122 -256 -351 -256c-21 0 -54 1 -79 5z" />
    <glyph glyph-name="six.onum" unicode="&#xf094;" horiz-adv-x="588" 
d="M212 120c21 -25 51 -40 88 -40c76 0 121 54 121 134c0 81 -41 131 -117 131s-123 -55 -123 -128c0 -39 11 -72 31 -97zM491 700v-98c-24 3 -55 4 -78 4c-155 0 -232 -111 -240 -242c47 51 107 73 168 73c127 0 213 -77 213 -214c0 -149 -116 -234 -254 -234
c-165 0 -263 107 -263 311c0 232 138 404 378 404c24 0 49 -1 76 -4z" />
    <glyph glyph-name="seven.onum" unicode="&#xf09e;" horiz-adv-x="588" 
d="M232 -162l-148 14c75 189 193 410 297 585h-332v107h472v-108c-109 -201 -223 -422 -289 -598z" />
    <glyph glyph-name="eight.onum" unicode="&#xf0a8;" horiz-adv-x="588" 
d="M388 271c-17 21 -49 38 -95 50c-83 -17 -119 -65 -119 -126c0 -68 49 -112 121 -112s120 41 120 113c0 29 -9 54 -27 75zM214 439c17 -19 45 -33 84 -44c71 17 103 61 103 114c0 63 -49 98 -106 98c-56 0 -106 -36 -106 -97c0 -28 8 -52 25 -71zM71 289
c25 29 61 51 107 66c-75 32 -125 75 -125 160c0 112 104 181 243 181c131 0 242 -54 242 -177c0 -84 -46 -132 -129 -164c101 -35 148 -84 148 -175c0 -118 -106 -191 -262 -191c-154 0 -262 64 -262 188c0 46 13 83 38 112z" />
    <glyph glyph-name="nine.onum" unicode="&#xf0b2;" horiz-adv-x="588" 
d="M197 233c21 -23 50 -35 88 -35c75 0 122 55 122 128c0 76 -44 137 -119 137c-76 0 -122 -54 -122 -134c0 -40 10 -72 31 -96zM97 -158v98c24 -3 55 -4 78 -4c155 0 232 104 240 243c-47 -51 -105 -72 -168 -72c-126 0 -213 76 -213 213c0 147 117 234 253 234
c167 0 264 -106 264 -311c0 -241 -138 -405 -378 -405c-25 0 -49 1 -76 4z" />
    <glyph glyph-name="afii61352.sc" unicode="&#xe384;" horiz-adv-x="929" 
d="M64 0v536h178l193 -419v419h121v-536h-181l-191 418v-418h-120zM622 79v68h262v-68h-262zM750 183c-83 0 -132 56 -132 146c0 94 54 153 137 153s131 -53 131 -145c0 -98 -51 -154 -136 -154zM753 243c39 0 52 37 52 92c0 56 -12 86 -51 86c-48 0 -54 -47 -54 -92
c0 -48 6 -86 53 -86z" />
    <glyph glyph-name="minus.superior" unicode="&#x207b;" 
d="M393 494h-336v69h336v-69z" />
    <glyph glyph-name="n.superior" unicode="&#x207f;" horiz-adv-x="389" 
d="M346 366h-97v177c0 30 -8 65 -51 65c-46 0 -59 -38 -59 -73v-169h-97v237c0 23 0 45 -3 68h92l1 -52c25 39 64 58 107 58c73 0 107 -43 107 -112v-199z" />
    <glyph glyph-name="zero.superior" unicode="&#x2070;" 
d="M166 476c9 -27 27 -46 59 -46c63 0 70 76 70 143c0 72 -8 141 -70 141s-70 -69 -70 -141c0 -33 2 -69 11 -97zM143 381c-65 36 -89 109 -89 192c0 106 44 207 171 207s171 -102 171 -207c0 -107 -43 -209 -171 -209c-33 0 -60 6 -82 17z" />
    <glyph glyph-name="four.superior" unicode="&#x2074;" 
d="M249 696l-133 -175h133v175zM248 454h-198v80l190 240h104v-251h61v-69h-61v-83h-96v83z" />
    <glyph glyph-name="five.superior" unicode="&#x2075;" 
d="M73 380l3 68c30 -9 61 -14 92 -14c48 0 106 16 106 67s-55 65 -102 65c-29 0 -57 -3 -88 -11l5 219h268v-67h-180l-2 -92c16 4 31 5 46 5c79 0 156 -26 156 -117c0 -98 -98 -139 -187 -139c-48 0 -81 5 -117 16z" />
    <glyph glyph-name="six.superior" unicode="&#x2076;" 
d="M177 449c13 -15 31 -23 54 -23c47 0 72 32 72 72s-22 72 -70 72c-43 0 -74 -29 -74 -68c0 -19 6 -37 18 -53zM369 770l-4 -67c-27 8 -56 12 -86 12c-79 0 -121 -56 -122 -124c27 27 63 40 102 40c81 0 137 -48 137 -129c0 -90 -79 -138 -164 -138
c-126 0 -172 91 -172 195c0 125 75 222 211 222c33 0 65 -4 98 -11z" />
    <glyph glyph-name="seven.superior" unicode="&#x2077;" 
d="M219 371h-117l176 326h-212v77h312v-76z" />
    <glyph glyph-name="eight.superior" unicode="&#x2078;" 
d="M279 533c-13 11 -31 20 -54 25c-45 -8 -74 -33 -74 -70s31 -62 74 -62s74 24 74 63c0 18 -7 33 -20 44zM178 627c13 -10 29 -17 48 -20c35 7 65 29 65 61c0 35 -31 54 -66 54s-66 -21 -66 -54c0 -17 6 -31 19 -41zM76 545c15 15 36 27 63 35c-47 15 -76 41 -76 92
c0 77 97 108 162 108c69 0 162 -24 162 -107c0 -49 -33 -77 -78 -93c56 -15 89 -42 89 -102c0 -86 -98 -114 -173 -114c-77 0 -172 28 -172 113c0 30 8 53 23 68z" />
    <glyph glyph-name="nine.superior" unicode="&#x2079;" 
d="M163 595c12 -13 30 -20 53 -20c43 0 74 29 74 68s-24 76 -72 76c-47 0 -72 -32 -72 -73c0 -20 6 -37 17 -51zM81 374l3 68c27 -8 56 -13 87 -13c80 0 121 56 122 124c-27 -27 -63 -40 -102 -40c-80 0 -137 49 -137 129c0 90 78 138 163 138c124 0 173 -87 173 -195
c0 -128 -69 -221 -208 -221c-35 0 -68 3 -101 10z" />
    <glyph glyph-name="equal.superior" unicode="&#x207c;" 
d="M393 429h-336v68h336v-68zM393 559h-336v69h336v-69z" />
    <glyph glyph-name="parenleft.superior" unicode="&#x207d;" horiz-adv-x="225" 
d="M203 296h-74c-51 79 -91 162 -91 255c0 92 40 176 91 255h74c-45 -80 -79 -163 -79 -255s32 -176 79 -255z" />
    <glyph glyph-name="parenright.superior" unicode="&#x207e;" horiz-adv-x="225" 
d="M96 296h-74c45 79 79 163 79 255c0 91 -32 175 -79 255h74c51 -79 91 -163 91 -255c0 -93 -40 -176 -91 -255z" />
    <glyph glyph-name="plus.superior" unicode="&#x207a;" 
d="M189 494h-132v69h132v122h73v-122h131v-69h-131v-121h-73v121z" />
    <glyph glyph-name="a.superior" unicode="&#xe5ed;" horiz-adv-x="367" 
d="M331 366h-93l-2 45c-23 -35 -62 -52 -106 -52c-62 0 -108 30 -108 94c0 82 76 105 161 105h51v6c0 38 -28 55 -74 55c-33 0 -69 -8 -99 -23l-4 62c32 12 79 19 115 19c87 0 155 -27 155 -120v-117c0 -34 1 -54 4 -74zM234 495v13h-21c-45 0 -100 -6 -100 -49
c0 -29 25 -41 50 -41c50 0 71 37 71 77z" />
    <glyph glyph-name="b.superior" unicode="&#xe5f6;" horiz-adv-x="396" 
d="M371 520c0 -83 -37 -161 -135 -161c-42 0 -82 18 -103 58l-2 -51h-88v436h97v-182c19 37 60 57 98 57c97 0 133 -76 133 -157zM267 520c0 39 -10 90 -64 90c-53 0 -66 -52 -66 -90s13 -94 65 -94c55 0 65 54 65 94z" />
    <glyph glyph-name="c.superior" unicode="&#xe600;" horiz-adv-x="317" 
d="M296 372c-31 -10 -63 -13 -96 -13c-108 0 -175 58 -175 161c0 100 77 157 179 157c32 0 61 -3 90 -11l-4 -68c-19 9 -40 15 -64 15c-61 0 -97 -39 -97 -93c0 -53 29 -96 93 -96c25 0 46 4 69 15z" />
    <glyph glyph-name="d.superior" unicode="&#xe60a;" horiz-adv-x="396" 
d="M356 366h-90l-3 51c-23 -39 -59 -58 -101 -58c-99 0 -137 78 -137 161c0 81 41 157 135 157c45 0 79 -23 96 -54v179h97v-354c0 -35 2 -60 3 -82zM259 519c0 39 -13 90 -66 90c-55 0 -64 -51 -64 -90s10 -93 65 -93c52 0 65 55 65 93z" />
    <glyph glyph-name="e.superior" unicode="&#xe614;" horiz-adv-x="357" 
d="M335 496h-215c2 -46 40 -77 101 -77c33 0 67 6 93 18l4 -61c-32 -11 -69 -17 -109 -17c-119 0 -184 56 -184 161c0 94 68 157 164 157c109 0 146 -64 146 -156v-25zM249 547c-1 37 -11 73 -60 73c-47 0 -67 -38 -69 -73h129z" />
    <glyph glyph-name="f.superior" unicode="&#xe61d;" horiz-adv-x="248" 
d="M248 801l-4 -61c-11 3 -21 5 -32 5c-29 0 -42 -19 -42 -47v-27h69v-63h-68v-242h-98v242h-59v63h59v30c0 64 32 107 110 107c22 0 44 -2 65 -7z" />
    <glyph glyph-name="g.superior" unicode="&#xe627;" horiz-adv-x="396" 
d="M353 388c0 -107 -70 -158 -176 -158c-42 0 -85 4 -126 16l4 71c28 -14 63 -22 99 -22c69 0 102 32 102 93v30c-26 -35 -61 -52 -101 -52c-93 0 -130 76 -130 154c0 81 39 157 131 157c43 0 81 -16 103 -57v51h94v-283zM259 519c0 39 -13 90 -66 90c-54 0 -64 -51 -64 -90
c0 -37 10 -87 64 -87c52 0 66 50 66 87z" />
    <glyph glyph-name="h.superior" unicode="&#xe631;" horiz-adv-x="389" 
d="M346 366h-97v177c0 31 -8 65 -51 65c-52 0 -59 -55 -59 -92v-150h-97v436h97v-183c23 39 59 58 101 58c71 0 106 -43 106 -112v-199z" />
    <glyph glyph-name="i.superior" unicode="&#x2071;" horiz-adv-x="182" 
d="M140 721h-97v74h97v-74zM140 366h-97v305h97v-305z" />
    <glyph glyph-name="j.superior" unicode="&#xe644;" horiz-adv-x="186" 
d="M143 721h-98v74h98v-74zM143 336c0 -61 -32 -106 -97 -106c-23 0 -45 1 -65 6l4 67c7 -3 13 -4 22 -4c32 0 38 22 38 45v327h98v-335z" />
    <glyph glyph-name="k.superior" unicode="&#xe64e;" horiz-adv-x="386" 
d="M381 366h-120l-122 155v-155h-97v436h97v-259l114 128h117l-129 -137z" />
    <glyph glyph-name="l.superior" unicode="&#xe658;" horiz-adv-x="182" 
d="M140 366h-97v436h97v-436z" />
    <glyph glyph-name="m.superior" unicode="&#xe662;" horiz-adv-x="579" 
d="M536 366h-97v187c0 28 -8 55 -47 55c-42 0 -55 -37 -55 -72v-170h-96v187c0 28 -8 55 -46 55c-42 0 -55 -38 -55 -72v-170h-97v237c0 23 -1 46 -3 68h91l2 -52c23 38 59 58 104 58c46 0 81 -25 94 -61c20 38 61 61 102 61c77 0 103 -48 103 -116v-195z" />
    <glyph glyph-name="o.superior" unicode="&#xe675;" horiz-adv-x="396" 
d="M371 519c0 -100 -68 -160 -173 -160c-106 0 -173 60 -173 160c0 101 73 158 174 158c104 0 172 -56 172 -158zM268 519c0 41 -16 94 -69 94c-52 0 -70 -51 -70 -94c0 -46 18 -95 69 -95c53 0 70 46 70 95z" />
    <glyph glyph-name="p.superior" unicode="&#xe67e;" horiz-adv-x="396" 
d="M371 520c0 -83 -36 -161 -134 -161c-40 0 -77 18 -97 58v-181h-97v350c0 35 -1 60 -3 85h92l2 -52c22 38 63 58 104 58c97 0 133 -76 133 -157zM267 520c0 39 -10 90 -64 90c-53 0 -66 -51 -66 -90c0 -38 13 -93 65 -93c55 0 65 53 65 93z" />
    <glyph glyph-name="q.superior" unicode="&#xe688;" horiz-adv-x="396" 
d="M353 236h-97v181c-20 -39 -56 -58 -95 -58c-98 0 -136 78 -136 161c0 81 40 157 134 157c42 0 80 -16 103 -57l1 51h90v-435zM259 520c0 39 -13 90 -66 90c-55 0 -64 -51 -64 -90s10 -93 65 -93c52 0 65 56 65 93z" />
    <glyph glyph-name="r.superior" unicode="&#xe692;" horiz-adv-x="263" 
d="M250 675l-3 -86c-8 2 -17 3 -27 3c-59 0 -81 -48 -81 -94v-132h-97v237c0 23 0 45 -3 67h92l1 -60c19 35 51 67 95 67c7 0 15 0 23 -2z" />
    <glyph glyph-name="s.superior" unicode="&#xe69c;" horiz-adv-x="302" 
d="M276 460c0 -76 -76 -101 -142 -101c-37 0 -72 5 -106 14l4 65c28 -14 59 -20 92 -20c26 0 60 7 60 33c0 23 -25 31 -67 45s-90 30 -90 87c0 73 81 94 141 94c32 0 64 -5 94 -12l-5 -62c-26 10 -54 15 -84 15c-18 0 -54 -6 -54 -30c0 -16 15 -24 46 -35
c50 -17 111 -28 111 -93z" />
    <glyph glyph-name="t.superior" unicode="&#xe6a6;" horiz-adv-x="258" 
d="M237 434l4 -63c-24 -7 -48 -12 -73 -12c-66 0 -100 37 -100 108v140h-57v64h57v60l97 29v-89h71v-64h-71v-136c0 -23 6 -43 38 -43c12 0 23 2 34 6z" />
    <glyph glyph-name="u.superior" unicode="&#xe6b0;" horiz-adv-x="387" 
d="M347 366h-92l-1 51c-25 -41 -64 -58 -108 -58c-67 0 -105 41 -105 111v201h97v-180c0 -29 11 -64 50 -64c47 0 58 39 58 74v170h98v-237c0 -23 0 -46 3 -68z" />
    <glyph glyph-name="v.superior" unicode="&#xe6ba;" horiz-adv-x="341" 
d="M334 671l-103 -305h-123l-102 305h102l65 -233l64 233h97z" />
    <glyph glyph-name="w.superior" unicode="&#xe6c4;" horiz-adv-x="563" 
d="M554 671l-89 -305h-120l-62 235l-64 -235h-121l-89 305h97l60 -234l62 234h115l62 -234l59 234h90z" />
    <glyph glyph-name="x.superior" unicode="&#xe6ce;" horiz-adv-x="362" 
d="M355 366h-107l-69 117l-71 -117h-102l110 160l-99 145h107l61 -108l58 108h101l-98 -145z" />
    <glyph glyph-name="y.superior" unicode="&#xe6d7;" horiz-adv-x="339" 
d="M333 671l-116 -332c-20 -58 -49 -109 -126 -109c-26 0 -44 3 -68 7l4 65c11 -3 24 -5 36 -5c30 0 49 20 58 46l5 15l-119 313h103l65 -225l63 225h95z" />
    <glyph glyph-name="z.superior" unicode="&#xe6e1;" horiz-adv-x="329" 
d="M305 366h-282v73l168 168h-162v64h274v-74l-166 -168h168v-63z" />
    <glyph glyph-name="onesuperior" unicode="&#xb9;" 
d="M309 371h-99v306l-92 -63l-35 68l141 92h85v-403z" />
    <glyph glyph-name="twosuperior" unicode="&#xb2;" 
d="M372 371h-309v73l78 57c71 51 123 99 123 151c0 37 -31 56 -76 56s-80 -11 -111 -24l-3 72c43 13 85 24 130 24c80 0 164 -31 164 -120c0 -72 -57 -126 -129 -179l-55 -41h188v-69z" />
    <glyph glyph-name="threesuperior" unicode="&#xb3;" 
d="M63 380l3 67c32 -11 73 -17 110 -17c51 0 97 18 97 62s-52 57 -103 57h-52v61h43c59 0 107 12 107 55c0 37 -47 49 -90 49c-32 0 -71 -6 -102 -17l-3 66c35 11 79 17 120 17c75 0 175 -21 175 -107c0 -51 -31 -80 -78 -92c47 -9 85 -41 85 -89c0 -99 -99 -128 -187 -128
c-43 0 -85 4 -125 16z" />
    <glyph glyph-name="parenleft.denominator" unicode="&#xef45;" horiz-adv-x="225" 
d="M203 -75h-74c-51 78 -91 162 -91 255c0 92 40 177 91 255h74c-45 -79 -79 -164 -79 -255s33 -177 79 -255z" />
    <glyph glyph-name="parenright.denominator" unicode="&#xef4b;" horiz-adv-x="225" 
d="M22 435h74c51 -78 91 -163 91 -255c0 -93 -41 -177 -91 -255h-74c45 78 79 164 79 255c0 90 -33 176 -79 255z" />
    <glyph glyph-name="plus.denominator" 
d="M393 123h-131v-121h-73v121h-132v69h132v122h73v-122h131v-69z" />
    <glyph glyph-name="zero.denominator" unicode="&#xf05a;" 
d="M396 202c0 -107 -43 -209 -171 -209c-130 0 -171 101 -171 209c0 106 44 207 171 207s171 -102 171 -207zM295 202c0 72 -8 141 -70 141s-70 -69 -70 -141c0 -67 5 -143 70 -143c63 0 70 76 70 143z" />
    <glyph glyph-name="one.denominator" unicode="&#xf065;" 
d="M309 0h-99v306l-92 -63l-35 68l141 92h85v-403z" />
    <glyph glyph-name="two.denominator" unicode="&#xf070;" 
d="M372 0h-309v73l78 57c70 51 123 99 123 151c0 37 -31 56 -76 56s-80 -11 -111 -24l-3 72c42 13 85 24 130 24c80 0 164 -31 164 -120c0 -72 -58 -126 -129 -179l-55 -41h188v-69z" />
    <glyph glyph-name="three.denominator" unicode="&#xf07b;" 
d="M375 121c0 -98 -99 -128 -187 -128c-43 0 -85 4 -125 16l3 67c32 -11 73 -17 110 -17c50 0 97 18 97 62s-52 57 -103 57h-52v61h43c58 0 107 12 107 55c0 38 -47 49 -90 49c-32 0 -72 -6 -102 -17l-3 66c34 11 79 17 120 17c75 0 175 -21 175 -107c0 -50 -32 -80 -78 -92
c46 -9 85 -41 85 -89z" />
    <glyph glyph-name="four.denominator" unicode="&#xf085;" 
d="M405 83h-61v-83h-96v83h-198v80l190 240h104v-251h61v-69zM249 150v175l-133 -175h133z" />
    <glyph glyph-name="five.denominator" unicode="&#xf08f;" 
d="M377 132c0 -98 -98 -139 -187 -139c-48 0 -81 5 -117 16l3 68c29 -9 59 -14 92 -14c48 0 106 16 106 67c0 50 -55 65 -102 65c-29 0 -57 -3 -88 -11l5 219h268v-67h-180l-2 -92c16 4 32 5 46 5c79 0 156 -26 156 -117z" />
    <glyph glyph-name="six.denominator" unicode="&#xf099;" 
d="M396 131c0 -90 -79 -138 -164 -138c-126 0 -172 91 -172 195c0 126 75 222 211 222c34 0 67 -4 98 -11l-4 -67c-27 8 -56 12 -86 12c-78 0 -121 -56 -122 -124c26 27 63 40 102 40c81 0 137 -48 137 -129zM303 127c0 40 -22 72 -70 72c-43 0 -74 -29 -74 -68
s25 -76 72 -76c46 0 72 32 72 72z" />
    <glyph glyph-name="seven.denominator" unicode="&#xf0a3;" 
d="M378 327l-159 -327h-117l176 326h-212v77h312v-76z" />
    <glyph glyph-name="eight.denominator" unicode="&#xf0ad;" 
d="M398 107c0 -86 -99 -114 -173 -114c-77 0 -172 28 -172 113c0 59 33 87 86 103c-47 15 -76 41 -76 92c0 78 97 108 162 108c70 0 162 -24 162 -107c0 -49 -33 -77 -78 -93c56 -14 89 -42 89 -102zM291 297c0 34 -31 54 -66 54s-66 -21 -66 -54c0 -34 29 -54 67 -61
c34 7 65 29 65 61zM299 118c0 36 -28 59 -74 69c-45 -8 -74 -33 -74 -70s31 -62 74 -62s74 25 74 63z" />
    <glyph glyph-name="nine.denominator" unicode="&#xf0b7;" 
d="M390 214c0 -127 -69 -221 -208 -221c-35 0 -68 4 -101 10l3 68c27 -8 57 -13 87 -13c80 0 121 56 122 124c-26 -26 -63 -40 -102 -40c-80 0 -137 50 -137 129c0 90 77 138 163 138c124 0 173 -87 173 -195zM290 272c0 38 -24 76 -72 76c-46 0 -72 -32 -72 -73
c0 -40 23 -71 70 -71c43 0 74 29 74 68z" />
    <glyph glyph-name="less.denominator" 
d="M393 -3l-336 125v71l336 124v-72l-252 -88l252 -86v-74z" />
    <glyph glyph-name="equal.denominator" 
d="M393 188h-336v69h336v-69zM393 58h-336v68h336v-68z" />
    <glyph glyph-name="greater.denominator" 
d="M393 121l-336 -124v74l252 86l-252 88v73l336 -125v-72z" />
    <glyph glyph-name="minus.denominator" 
d="M393 123h-336v69h336v-69z" />
    <glyph glyph-name="plusminus.denominator" 
d="M392 167h-131v-93h-73v93h-131v69h131v97h73v-97h131v-69zM392 -18h-335v67h335v-67z" />
    <glyph glyph-name="multiply.denominator" 
d="M387 54l-50 -48l-112 104l-111 -104l-50 47l110 104l-111 104l51 49l111 -105l112 105l50 -48l-111 -104z" />
    <glyph glyph-name="divide.denominator" 
d="M273 273c0 -26 -21 -45 -48 -45c-29 0 -49 19 -49 45c0 25 21 46 49 46s48 -20 48 -46zM393 123h-336v69h336v-69zM273 41c0 -25 -21 -45 -48 -45c-29 0 -49 19 -49 45s20 47 49 47s48 -21 48 -47z" />
    <glyph glyph-name="notequal.denominator" 
d="M393 57h-183l-49 -92l-64 30l34 62h-74v69h110l35 63h-145v69h181l51 92l63 -29l-34 -63h75v-69h-112l-35 -63h147v-69z" />
    <glyph glyph-name="approxequal.denominator" 
d="M400 147c-4 -47 -32 -109 -92 -109c-56 0 -117 39 -169 39c-24 0 -39 -18 -41 -39h-48c3 47 30 110 91 110c56 0 117 -39 170 -39c25 0 37 17 40 38h49zM400 276c-4 -47 -32 -110 -92 -110c-56 0 -117 40 -169 40c-24 0 -39 -19 -41 -39h-48c3 47 30 109 91 109
c56 0 117 -38 170 -38c25 0 37 17 40 38h49z" />
    <glyph glyph-name="lessequal.denominator" 
d="M393 63l-337 106v69l337 99v-71l-235 -63l235 -69v-71zM393 -23h-337v68h337v-68z" />
    <glyph glyph-name="greaterequal.denominator" 
d="M393 169l-337 -106v71l235 69l-235 63v71l337 -99v-69zM393 -23h-337v68h337v-68z" />
    <glyph glyph-name="parenleft.numerator" horiz-adv-x="225" 
d="M203 193h-74c-51 78 -91 162 -91 255c0 92 40 177 91 255h74c-45 -79 -79 -164 -79 -255s33 -177 79 -255z" />
    <glyph glyph-name="parenright.numerator" horiz-adv-x="225" 
d="M22 703h74c51 -78 91 -163 91 -255c0 -93 -41 -177 -91 -255h-74c45 78 79 164 79 255c0 90 -33 176 -79 255z" />
    <glyph glyph-name="plus.numerator" 
d="M393 391h-131v-121h-73v121h-132v69h132v122h73v-122h131v-69z" />
    <glyph glyph-name="zero.numerator" 
d="M396 470c0 -107 -43 -209 -171 -209c-130 0 -171 101 -171 209c0 106 44 207 171 207s171 -102 171 -207zM295 470c0 72 -8 141 -70 141s-70 -69 -70 -141c0 -67 5 -143 70 -143c63 0 70 76 70 143z" />
    <glyph glyph-name="one.numerator" 
d="M309 268h-99v306l-92 -63l-35 68l141 92h85v-403z" />
    <glyph glyph-name="two.numerator" 
d="M372 268h-309v73l78 57c70 51 123 99 123 151c0 37 -31 56 -76 56s-80 -11 -111 -24l-3 72c42 13 85 24 130 24c80 0 164 -31 164 -120c0 -72 -58 -126 -129 -179l-55 -41h188v-69z" />
    <glyph glyph-name="three.numerator" 
d="M375 389c0 -98 -99 -128 -187 -128c-43 0 -85 4 -125 16l3 67c32 -11 73 -17 110 -17c50 0 97 18 97 62s-52 57 -103 57h-52v61h43c58 0 107 12 107 55c0 38 -47 49 -90 49c-32 0 -72 -6 -102 -17l-3 66c34 11 79 17 120 17c75 0 175 -21 175 -107c0 -50 -32 -80 -78 -92
c46 -9 85 -41 85 -89z" />
    <glyph glyph-name="four.numerator" 
d="M405 351h-61v-83h-96v83h-198v80l190 240h104v-251h61v-69zM249 418v175l-133 -175h133z" />
    <glyph glyph-name="five.numerator" 
d="M377 400c0 -98 -98 -139 -187 -139c-48 0 -81 5 -117 16l3 68c29 -9 59 -14 92 -14c48 0 106 16 106 67c0 50 -55 65 -102 65c-29 0 -57 -3 -88 -11l5 219h268v-67h-180l-2 -92c16 4 32 5 46 5c79 0 156 -26 156 -117z" />
    <glyph glyph-name="six.numerator" 
d="M396 399c0 -90 -79 -138 -164 -138c-126 0 -172 91 -172 195c0 126 75 222 211 222c34 0 67 -4 98 -11l-4 -67c-27 8 -56 12 -86 12c-78 0 -121 -56 -122 -124c26 27 63 40 102 40c81 0 137 -48 137 -129zM303 395c0 40 -22 72 -70 72c-43 0 -74 -29 -74 -68
s25 -76 72 -76c46 0 72 32 72 72z" />
    <glyph glyph-name="seven.numerator" 
d="M378 595l-159 -327h-117l176 326h-212v77h312v-76z" />
    <glyph glyph-name="eight.numerator" 
d="M398 375c0 -86 -99 -114 -173 -114c-77 0 -172 28 -172 113c0 59 33 87 86 103c-47 15 -76 41 -76 92c0 78 97 108 162 108c70 0 162 -24 162 -107c0 -49 -33 -77 -78 -93c56 -14 89 -42 89 -102zM291 565c0 34 -31 54 -66 54s-66 -21 -66 -54c0 -34 29 -54 67 -61
c34 7 65 29 65 61zM299 386c0 36 -28 59 -74 69c-45 -8 -74 -33 -74 -70s31 -62 74 -62s74 25 74 63z" />
    <glyph glyph-name="nine.numerator" 
d="M390 482c0 -127 -69 -221 -208 -221c-35 0 -68 4 -101 10l3 68c27 -8 57 -13 87 -13c80 0 121 56 122 124c-26 -26 -63 -40 -102 -40c-80 0 -137 50 -137 129c0 90 77 138 163 138c124 0 173 -87 173 -195zM290 540c0 38 -24 76 -72 76c-46 0 -72 -32 -72 -73
c0 -40 23 -71 70 -71c43 0 74 29 74 68z" />
    <glyph glyph-name="less.numerator" 
d="M393 265l-336 125v71l336 124v-72l-252 -88l252 -86v-74z" />
    <glyph glyph-name="equal.numerator" 
d="M393 456h-336v69h336v-69zM393 326h-336v68h336v-68z" />
    <glyph glyph-name="greater.numerator" 
d="M393 389l-336 -124v74l252 86l-252 88v73l336 -125v-72z" />
    <glyph glyph-name="minus.numerator" 
d="M393 391h-336v69h336v-69z" />
    <glyph glyph-name="plusminus.numerator" 
d="M392 435h-131v-93h-73v93h-131v69h131v97h73v-97h131v-69zM392 250h-335v67h335v-67z" />
    <glyph glyph-name="multiply.numerator" 
d="M387 322l-50 -48l-112 104l-111 -104l-50 47l110 104l-111 104l51 49l111 -105l112 105l50 -48l-111 -104z" />
    <glyph glyph-name="divide.numerator" 
d="M273 541c0 -26 -21 -45 -48 -45c-29 0 -49 19 -49 45c0 25 21 46 49 46s48 -20 48 -46zM393 391h-336v69h336v-69zM273 309c0 -25 -21 -45 -48 -45c-29 0 -49 19 -49 45s20 47 49 47s48 -21 48 -47z" />
    <glyph glyph-name="notequal.numerator" 
d="M393 325h-183l-49 -92l-64 30l34 62h-74v69h110l35 63h-145v69h181l51 92l63 -29l-34 -63h75v-69h-112l-35 -63h147v-69z" />
    <glyph glyph-name="approxequal.numerator" 
d="M400 415c-4 -47 -32 -109 -92 -109c-56 0 -117 39 -169 39c-24 0 -39 -18 -41 -39h-48c3 47 30 110 91 110c56 0 117 -39 170 -39c25 0 37 17 40 38h49zM400 544c-4 -47 -32 -110 -92 -110c-56 0 -117 40 -169 40c-24 0 -39 -19 -41 -39h-48c3 47 30 109 91 109
c56 0 117 -38 170 -38c25 0 37 17 40 38h49z" />
    <glyph glyph-name="lessequal.numerator" 
d="M393 331l-337 106v69l337 99v-71l-235 -63l235 -69v-71zM393 245h-337v68h337v-68z" />
    <glyph glyph-name="greaterequal.numerator" 
d="M393 437l-337 -106v71l235 69l-235 63v71l337 -99v-69zM393 245h-337v68h337v-68z" />
    <glyph glyph-name="zero.onumprop" unicode="&#xf056;" horiz-adv-x="656" 
d="M225 137c25 -33 59 -50 104 -50c88 0 140 73 140 186c0 109 -51 183 -140 183c-88 0 -141 -74 -141 -185c0 -55 12 -100 37 -134zM113 67c-49 49 -76 119 -76 203c0 166 112 284 292 284c186 0 291 -114 291 -282c0 -165 -110 -283 -291 -283c-93 0 -165 29 -216 78z" />
    <glyph glyph-name="one.onumprop" unicode="&#xf060;" horiz-adv-x="432" 
d="M329 0h-146v437h-155v107h301v-544z" />
    <glyph glyph-name="two.onumprop" unicode="&#xf06b;" horiz-adv-x="515" 
d="M466 0h-436v99c213 144 281 192 281 272c0 44 -31 82 -99 82c-51 0 -95 -10 -159 -34l-6 102c63 20 124 33 191 33c152 0 219 -73 219 -169c0 -109 -82 -184 -251 -291h260v-94z" />
    <glyph glyph-name="three.onumprop" unicode="&#xf076;" horiz-adv-x="492" 
d="M18 -157l-8 98c23 -3 49 -5 73 -5c152 0 220 53 220 145c0 74 -71 98 -147 98h-67v93h61c84 0 146 31 146 104c0 57 -53 80 -116 80c-43 0 -95 -10 -148 -30l-6 100c56 19 125 28 186 28c127 0 227 -50 227 -165c0 -80 -51 -137 -138 -154c100 -13 149 -67 149 -150
c0 -148 -125 -247 -353 -247c-21 0 -55 1 -79 5z" />
    <glyph glyph-name="four.onumprop" unicode="&#xf081;" horiz-adv-x="584" 
d="M342 0h-306v109l234 435h134l-243 -443h182v264h125v-264h97v-101h-96v-159h-127v159z" />
    <glyph glyph-name="five.onumprop" unicode="&#xf08b;" horiz-adv-x="539" 
d="M66 -157l-8 98c24 -3 49 -5 72 -5c152 0 219 59 219 152c0 72 -44 111 -147 111c-43 0 -81 -2 -134 -15l6 360h392v-99h-263l-4 -168c33 5 60 7 83 7c140 0 214 -69 214 -190c0 -149 -122 -256 -351 -256c-21 0 -54 1 -79 5z" />
    <glyph glyph-name="six.onumprop" unicode="&#xf095;" horiz-adv-x="598" 
d="M217 120c21 -25 51 -40 88 -40c76 0 121 54 121 134c0 81 -41 131 -117 131s-123 -55 -123 -128c0 -39 11 -72 31 -97zM496 700v-98c-24 3 -55 4 -78 4c-155 0 -232 -111 -240 -242c47 51 107 73 168 73c127 0 213 -77 213 -214c0 -149 -116 -234 -254 -234
c-165 0 -263 107 -263 311c0 232 138 404 378 404c24 0 49 -1 76 -4z" />
    <glyph glyph-name="seven.onumprop" unicode="&#xf09f;" horiz-adv-x="545" 
d="M211 -162l-148 14c75 189 193 410 297 585h-332v107h472v-108c-109 -201 -223 -422 -289 -598z" />
    <glyph glyph-name="eight.onumprop" unicode="&#xf0a9;" horiz-adv-x="606" 
d="M396 271c-17 21 -49 38 -95 50c-83 -17 -119 -65 -119 -126c0 -68 49 -112 121 -112s120 41 120 113c0 29 -9 54 -27 75zM222 439c17 -19 45 -33 84 -44c71 17 103 61 103 114c0 63 -49 98 -106 98c-56 0 -106 -36 -106 -97c0 -28 8 -52 25 -71zM79 289
c25 29 61 51 107 66c-75 32 -125 75 -125 160c0 112 104 181 243 181c131 0 242 -54 242 -177c0 -84 -46 -132 -129 -164c101 -35 148 -84 148 -175c0 -118 -106 -191 -262 -191c-154 0 -262 64 -262 188c0 46 13 83 38 112z" />
    <glyph glyph-name="nine.onumprop" unicode="&#xf0b3;" horiz-adv-x="599" 
d="M203 233c21 -23 50 -35 88 -35c75 0 122 55 122 128c0 76 -44 137 -119 137c-76 0 -122 -54 -122 -134c0 -40 10 -72 31 -96zM103 -158v98c24 -3 55 -4 78 -4c155 0 232 104 240 243c-47 -51 -105 -72 -168 -72c-126 0 -213 76 -213 213c0 147 117 234 253 234
c167 0 264 -106 264 -311c0 -241 -138 -405 -378 -405c-25 0 -49 1 -76 4z" />
    <glyph glyph-name="afii10029" unicode="&#x41b;" horiz-adv-x="720" 
d="M107 -7c-43 0 -78 5 -105 15l5 105c15 -6 38 -9 55 -9c93 0 104 149 107 563h473v-667h-148v559h-186c-2 -360 -19 -566 -201 -566z" />
    <glyph glyph-name="afii10017" unicode="&#x410;" horiz-adv-x="699" 
d="M347 573l-113 -305h223zM144 0h-146l254 667h194l255 -667h-154l-59 167h-284z" />
    <glyph glyph-name="afii10018" unicode="&#x411;" horiz-adv-x="621" 
d="M73 0v667h450v-102h-307v-162h114c151 0 250 -55 250 -201c0 -142 -89 -202 -245 -202h-262zM216 91h88c82 0 131 33 131 114c0 78 -56 107 -135 107h-84v-221z" />
    <glyph glyph-name="afii10019" unicode="&#x412;" horiz-adv-x="626" 
d="M215 300v-209h70c68 0 147 20 147 103c0 90 -80 106 -153 106h-64zM215 576v-191h71c66 0 132 21 132 99c0 70 -60 92 -120 92h-83zM317 0h-244v667h272c109 0 220 -37 220 -165c0 -85 -50 -137 -131 -156c84 -15 148 -67 148 -158c0 -158 -134 -188 -265 -188z" />
    <glyph glyph-name="afii10020" unicode="&#x413;" horiz-adv-x="500" 
d="M73 0v667h419v-117h-271v-550h-148z" />
    <glyph glyph-name="afii10021" unicode="&#x414;" horiz-adv-x="735" 
d="M6 -163v270h53c62 85 92 210 92 349v211h488v-560h84v-270h-135v163h-447v-163h-135zM211 107h280v452h-203v-125c0 -127 -25 -245 -77 -327z" />
    <glyph glyph-name="afii10022" unicode="&#x415;" horiz-adv-x="558" 
d="M517 0h-444v667h435v-102h-290v-175h277v-101h-277v-187h299v-102z" />
    <glyph glyph-name="afii10024" unicode="&#x416;" horiz-adv-x="995" 
d="M3 0l277 353l-249 314h172l221 -301v301h146v-301l222 301h172l-249 -314l277 -353h-181l-241 330v-330h-146v330l-239 -330h-182z" />
    <glyph glyph-name="afii10025" unicode="&#x417;" horiz-adv-x="550" 
d="M233 -11c-75 0 -149 10 -203 28l7 114c51 -27 118 -38 176 -38c62 0 136 22 136 103c0 92 -93 99 -152 99c-12 0 -43 0 -52 -2v98c5 -1 28 -1 36 -1c64 0 162 15 162 99c0 67 -68 86 -125 86c-51 0 -122 -13 -162 -31l-9 104c59 17 137 29 198 29c137 0 248 -48 248 -176
c0 -80 -52 -133 -132 -155c85 -11 145 -75 145 -164c0 -130 -120 -193 -273 -193z" />
    <glyph glyph-name="afii10026" unicode="&#x418;" horiz-adv-x="712" 
d="M72 0v667h139v-495l266 495h161v-667h-139v491l-270 -491h-157z" />
    <glyph glyph-name="afii10028" unicode="&#x41a;" horiz-adv-x="663" 
d="M221 0h-148v667h148v-288l241 288h175l-281 -312l305 -355h-185l-255 318v-318z" />
    <glyph glyph-name="afii10030" unicode="&#x41c;" horiz-adv-x="935" 
d="M204 0h-131v667h221l175 -507l173 507h221v-667h-137v572l-196 -572h-130l-196 572v-572z" />
    <glyph glyph-name="afii10031" unicode="&#x41d;" horiz-adv-x="706" 
d="M221 0h-148v667h148v-266h265v266h148v-667h-148v282h-265v-282z" />
    <glyph glyph-name="afii10032" unicode="&#x41e;" horiz-adv-x="735" 
d="M232 172c28 -47 71 -80 135 -80c132 0 173 130 173 241s-41 241 -173 241c-131 0 -172 -133 -172 -241c0 -55 10 -114 37 -161zM225 13c-121 50 -185 163 -185 320c0 204 118 344 327 344c212 0 328 -136 328 -344c0 -205 -117 -344 -328 -344c-53 0 -101 8 -142 24z" />
    <glyph glyph-name="afii10033" unicode="&#x41f;" horiz-adv-x="699" 
d="M73 0v667h554v-667h-149v559h-257v-559h-148z" />
    <glyph glyph-name="afii10034" unicode="&#x420;" horiz-adv-x="603" 
d="M218 0h-145v667h236c141 0 267 -54 267 -205c0 -155 -126 -216 -266 -216h-92v-246zM217 568v-222h52c80 0 158 15 158 115c0 79 -56 107 -149 107h-61z" />
    <glyph glyph-name="afii10035" unicode="&#x421;" horiz-adv-x="603" 
d="M568 125l6 -108c-51 -20 -113 -28 -169 -28c-215 0 -365 123 -365 344c0 208 161 344 365 344c53 0 116 -9 167 -24l-6 -111c-41 17 -93 27 -138 27c-141 0 -233 -97 -233 -236c0 -143 85 -236 230 -236c49 0 98 8 143 28z" />
    <glyph glyph-name="afii10036" unicode="&#x422;" horiz-adv-x="587" 
d="M368 0h-149v549h-209v118h567v-118h-209v-549z" />
    <glyph glyph-name="afii10037" unicode="&#x423;" horiz-adv-x="647" 
d="M197 -9c-41 0 -78 6 -108 12l4 104c13 -4 44 -10 69 -10c40 0 58 31 86 86l-251 484h162l167 -362l167 362h155l-267 -517c-35 -68 -80 -159 -184 -159z" />
    <glyph glyph-name="afii10038" unicode="&#x424;" horiz-adv-x="857" 
d="M354 -10v74c-106 0 -176 26 -228 70c-58 49 -93 122 -93 212c0 89 35 159 93 206c52 42 122 66 228 66v59h149v-59c106 0 177 -24 228 -65c59 -46 93 -117 93 -207s-34 -163 -93 -213c-51 -44 -123 -69 -228 -69v-74h-149zM357 156v370c-112 0 -176 -74 -176 -180
c0 -115 66 -188 176 -190zM500 156c111 2 177 75 177 190c0 106 -64 180 -177 180v-370z" />
    <glyph glyph-name="afii10039" unicode="&#x425;" horiz-adv-x="679" 
d="M164 0h-162l244 347l-218 320h169l153 -244l151 244h157l-222 -320l242 -347h-175l-168 270z" />
    <glyph glyph-name="afii10040" unicode="&#x426;" horiz-adv-x="723" 
d="M576 -163v163h-504v667h148v-560h258v560h148v-560h85v-270h-135z" />
    <glyph glyph-name="afii10041" unicode="&#x427;" horiz-adv-x="656" 
d="M436 0v258c-22 -7 -99 -20 -149 -20c-151 0 -237 37 -237 229v200h149v-192c0 -89 27 -126 118 -126c41 0 101 10 119 16v302h148v-667h-148z" />
    <glyph glyph-name="afii10042" unicode="&#x428;" horiz-adv-x="1057" 
d="M73 0v667h148v-560h233v560h149v-560h233v560h148v-667h-911z" />
    <glyph glyph-name="afii10043" unicode="&#x429;" horiz-adv-x="1079" 
d="M932 -163v163h-859v667h148v-560h233v560h148v-560h233v560h148v-560h84v-270h-135z" />
    <glyph glyph-name="afii10044" unicode="&#x42a;" horiz-adv-x="720" 
d="M169 0v555h-159v112h308v-245h135c142 0 238 -71 238 -211c0 -139 -87 -211 -239 -211h-283zM315 96h90c79 0 136 29 136 119c0 77 -50 110 -132 110h-94v-229z" />
    <glyph glyph-name="afii10045" unicode="&#x42b;" horiz-adv-x="892" 
d="M72 0v667h148v-245h135c142 0 238 -71 238 -211c0 -139 -87 -211 -239 -211h-282zM217 96h90c79 0 136 29 136 119c0 77 -50 110 -132 110h-94v-229zM671 0v667h149v-667h-149z" />
    <glyph glyph-name="afii10046" unicode="&#x42c;" horiz-adv-x="622" 
d="M72 0v667h148v-245h135c142 0 238 -71 238 -211c0 -139 -87 -211 -239 -211h-282zM217 96h90c79 0 136 29 136 119c0 77 -50 110 -132 110h-94v-229z" />
    <glyph glyph-name="afii10047" unicode="&#x42d;" horiz-adv-x="604" 
d="M204 -9c-52 0 -134 9 -175 25l6 103c41 -15 95 -24 144 -24c136 0 213 81 228 197h-281v98h278c-20 110 -96 182 -229 182c-45 0 -94 -8 -136 -26l-5 106c44 15 110 24 175 24c217 0 355 -128 355 -338c0 -220 -146 -347 -360 -347z" />
    <glyph glyph-name="afii10048" unicode="&#x42e;" horiz-adv-x="1004" 
d="M642 -10c-180 0 -297 111 -312 297h-110v-287h-148v667h148v-269h112c24 175 145 280 310 280c197 0 321 -127 321 -344s-123 -344 -321 -344zM642 91c103 0 165 85 165 239c0 138 -45 246 -159 246c-103 0 -168 -91 -168 -247c0 -132 54 -238 162 -238z" />
    <glyph glyph-name="afii10049" unicode="&#x42f;" horiz-adv-x="635" 
d="M10 0l87 201c27 61 50 94 108 108c-87 17 -156 72 -156 170c0 122 88 188 225 188h288v-667h-147v261h-62c-70 0 -83 -22 -118 -103l-69 -158h-156zM334 358h87v212h-82c-74 0 -142 -17 -142 -105c0 -82 69 -107 137 -107z" />
    <glyph glyph-name="afii10077" unicode="&#x43b;" horiz-adv-x="590" 
d="M82 -8c-25 0 -69 4 -86 9l6 92c7 -4 27 -5 39 -5c68 0 84 90 86 414h401v-502h-138v409h-134c-2 -241 -15 -417 -174 -417z" />
    <glyph glyph-name="afii10065" unicode="&#x430;" horiz-adv-x="548" 
d="M495 0h-130l-3 74c-35 -55 -88 -85 -164 -85c-92 0 -170 54 -170 154c0 133 128 169 269 169c19 0 41 -1 60 -2v17c0 71 -43 98 -119 98c-45 0 -100 -13 -147 -38l-6 92c52 21 117 33 173 33c135 0 232 -48 232 -195v-199c0 -51 1 -83 5 -118zM357 239h-28
c-81 0 -169 -15 -169 -90c0 -49 31 -74 74 -74c84 0 123 69 123 143v21z" />
    <glyph glyph-name="afii10066" unicode="&#x431;" horiz-adv-x="600" 
d="M308 -12c-180 0 -263 119 -263 297c0 162 18 299 108 374c56 46 129 60 215 65c57 3 115 4 160 16l-7 -119c-47 -11 -119 -13 -161 -15c-145 -8 -212 -45 -222 -211c24 50 92 106 185 106c159 0 244 -90 244 -254c0 -161 -93 -259 -259 -259zM309 83c72 0 110 64 110 164
c0 112 -39 165 -109 165c-79 0 -119 -70 -119 -166c0 -110 51 -163 118 -163z" />
    <glyph glyph-name="afii10067" unicode="&#x432;" horiz-adv-x="547" 
d="M62 0v502h267c83 0 165 -28 165 -124c0 -64 -37 -104 -98 -117c63 -12 111 -51 111 -119c0 -120 -101 -142 -199 -142h-246zM197 83h85c59 0 91 28 91 72c0 45 -33 64 -93 64h-83v-136zM197 301h79c50 0 81 16 81 61s-35 60 -88 60h-72v-121z" />
    <glyph glyph-name="afii10068" unicode="&#x433;" horiz-adv-x="422" 
d="M62 0v502h351v-93h-213v-409h-138z" />
    <glyph glyph-name="afii10069" unicode="&#x434;" horiz-adv-x="602" 
d="M5 -138v231h56c42 67 60 137 60 263v146h399v-409h70v-231h-122v138h-341v-138h-122zM192 93h190v320h-141v-76c0 -92 -10 -178 -49 -244z" />
    <glyph glyph-name="afii10070" unicode="&#x435;" horiz-adv-x="535" 
d="M504 221h-335c3 -87 58 -140 165 -140c49 0 103 13 138 33l6 -96c-40 -17 -105 -29 -160 -29c-185 0 -284 97 -284 264c0 149 101 259 249 259c161 0 221 -106 221 -258v-33zM169 299h211c0 63 -20 130 -96 130s-112 -66 -115 -130z" />
    <glyph glyph-name="afii10072" unicode="&#x436;" horiz-adv-x="841" 
d="M1 0l214 268l-196 234h156l178 -234v234h135v-234l178 234h156l-196 -234l214 -268h-165l-187 257v-257h-135v257l-187 -257h-165z" />
    <glyph glyph-name="afii10073" unicode="&#x437;" horiz-adv-x="473" 
d="M211 -11c-86 0 -138 13 -183 29l6 99c31 -15 77 -34 141 -34c68 0 111 27 111 68c0 56 -40 68 -113 68c-11 0 -44 0 -52 -1v87c10 -1 43 -1 49 -1c57 0 108 8 108 62c0 47 -47 55 -94 55c-59 0 -113 -23 -141 -35l-6 95c38 13 106 31 187 31c116 0 199 -24 199 -124
c0 -60 -44 -106 -109 -121c69 -10 119 -50 119 -121c0 -111 -96 -157 -222 -157z" />
    <glyph glyph-name="afii10074" unicode="&#x438;" horiz-adv-x="594" 
d="M62 0v502h129v-341l203 341h138v-502h-129v341l-202 -341h-139z" />
    <glyph glyph-name="afii10076" unicode="&#x43a;" horiz-adv-x="573" 
d="M61 0v502h138v-228l187 228h162l-205 -236l228 -266h-169l-203 251v-251h-138z" />
    <glyph glyph-name="afii10078" unicode="&#x43c;" horiz-adv-x="746" 
d="M62 0v502h201l109 -380l109 380h203v-502h-126v409l-127 -409h-123l-125 409v-409h-121z" />
    <glyph glyph-name="afii10079" unicode="&#x43d;" horiz-adv-x="591" 
d="M62 0v502h138v-193h191v193h138v-502h-138v216h-191v-216h-138z" />
    <glyph glyph-name="afii10080" unicode="&#x43e;" horiz-adv-x="593" 
d="M207 137c19 -32 47 -54 90 -54c88 0 115 85 115 170c0 77 -25 165 -115 165c-88 0 -115 -89 -115 -165c0 -41 8 -84 25 -116zM186 7c-98 38 -152 125 -152 246c0 164 109 259 263 259c163 0 263 -92 263 -259c0 -162 -99 -264 -263 -264c-41 0 -78 6 -111 18z" />
    <glyph glyph-name="afii10081" unicode="&#x43f;" horiz-adv-x="584" 
d="M62 0v502h460v-502h-138v409h-184v-409h-138z" />
    <glyph glyph-name="afii10082" unicode="&#x440;" horiz-adv-x="595" 
d="M219 143c16 -32 43 -57 86 -57c91 0 108 95 108 167s-16 162 -107 162c-87 0 -109 -93 -109 -162c0 -35 6 -77 22 -110zM201 -216h-138v572c0 60 -2 103 -5 146h131l3 -85c28 61 94 95 161 95c152 0 208 -125 208 -259c0 -135 -57 -264 -211 -264c-64 0 -124 32 -149 92
v-297z" />
    <glyph glyph-name="afii10083" unicode="&#x441;" horiz-adv-x="476" 
d="M443 106l5 -98c-45 -15 -87 -19 -138 -19c-164 0 -276 100 -276 264c0 163 121 259 280 259c51 0 89 -5 133 -18l-6 -98c-31 15 -64 22 -99 22c-102 0 -160 -69 -160 -165c0 -93 55 -167 159 -167c35 0 67 5 102 20z" />
    <glyph glyph-name="afii10084" unicode="&#x442;" horiz-adv-x="465" 
d="M163 0v409h-154v93h447v-93h-155v-409h-138z" />
    <glyph glyph-name="afii10085" unicode="&#x443;" horiz-adv-x="503" 
d="M30 -215l6 95c19 -7 35 -10 54 -10c47 0 71 27 86 71l13 41l-183 520h146l106 -383l105 383h136l-186 -559c-37 -108 -85 -170 -186 -170c-39 0 -62 5 -97 12z" />
    <glyph glyph-name="afii10086" unicode="&#x444;" horiz-adv-x="846" 
d="M354 -216v265c-29 -40 -72 -60 -126 -60c-127 0 -192 115 -192 258c0 150 60 265 195 265c58 0 100 -26 123 -58v267h138v-267c23 31 65 58 123 58c135 0 195 -115 195 -265c0 -143 -65 -258 -192 -258c-54 0 -97 20 -126 60v-265h-138zM282 84c38 0 63 25 78 57v218
c-15 31 -39 56 -77 56c-78 0 -99 -88 -99 -165c0 -78 20 -166 98 -166zM564 84c78 0 98 88 98 166c0 77 -21 165 -99 165c-38 0 -63 -25 -77 -56v-218c15 -32 40 -57 78 -57z" />
    <glyph glyph-name="afii10087" unicode="&#x445;" horiz-adv-x="532" 
d="M152 0h-144l170 263l-153 239h150l98 -179l93 179h143l-151 -239l168 -263h-152l-109 198z" />
    <glyph glyph-name="afii10088" unicode="&#x446;" horiz-adv-x="601" 
d="M467 -138v138h-405v502h138v-409h182v409h138v-409h69v-231h-122z" />
    <glyph glyph-name="afii10089" unicode="&#x447;" horiz-adv-x="548" 
d="M348 0v187c-25 -9 -78 -21 -133 -21c-122 0 -173 58 -173 162v174h134v-153c0 -66 29 -89 89 -89c30 0 71 10 83 16v226h138v-502h-138z" />
    <glyph glyph-name="afii10090" unicode="&#x448;" horiz-adv-x="868" 
d="M62 0v502h138v-409h165v409h138v-409h165v409h138v-502h-744z" />
    <glyph glyph-name="afii10091" unicode="&#x449;" horiz-adv-x="888" 
d="M754 -138v138h-692v502h138v-409h166v409h138v-409h166v409h138v-409h68v-231h-122z" />
    <glyph glyph-name="afii10092" unicode="&#x44a;" horiz-adv-x="618" 
d="M147 0v409h-131v93h269v-175h123c98 0 186 -45 186 -161c0 -122 -92 -166 -195 -166h-252zM285 86h85c59 0 90 29 90 81c0 49 -32 75 -94 75h-81v-156z" />
    <glyph glyph-name="afii10093" unicode="&#x44b;" horiz-adv-x="778" 
d="M62 0v502h138v-175h123c98 0 186 -45 186 -161c0 -122 -92 -166 -195 -166h-252zM200 86h85c59 0 90 29 90 81c0 49 -32 75 -94 75h-81v-156zM578 0v502h138v-502h-138z" />
    <glyph glyph-name="afii10094" unicode="&#x44c;" horiz-adv-x="533" 
d="M62 0v502h138v-175h123c98 0 186 -45 186 -161c0 -122 -92 -166 -195 -166h-252zM200 86h85c59 0 90 29 90 81c0 49 -32 75 -94 75h-81v-156z" />
    <glyph glyph-name="afii10095" unicode="&#x44d;" horiz-adv-x="479" 
d="M176 -10c-58 0 -102 4 -150 21l6 93c37 -16 67 -25 108 -25c87 0 146 58 157 135h-202v93h199c-18 68 -62 116 -151 116c-38 0 -74 -10 -107 -25l-4 93c32 10 82 21 147 21c164 0 266 -95 266 -256c0 -155 -89 -266 -269 -266z" />
    <glyph glyph-name="afii10096" unicode="&#x44e;" horiz-adv-x="825" 
d="M534 -12c-139 0 -239 81 -252 230h-82v-218h-138v502h138v-196h83c20 141 120 207 256 207c157 0 252 -95 252 -262c0 -162 -94 -263 -257 -263zM534 83c77 0 110 77 110 171c0 112 -41 166 -108 166c-79 0 -111 -74 -111 -167c0 -110 40 -170 109 -170z" />
    <glyph glyph-name="afii10097" unicode="&#x44f;" horiz-adv-x="540" 
d="M6 0l57 136c29 71 60 77 97 84c-75 17 -119 70 -119 137c0 108 84 145 221 145h216v-502h-138v186h-44c-57 0 -76 -22 -94 -70l-45 -116h-151zM274 267h69v153h-56c-74 0 -112 -15 -112 -74c0 -52 30 -79 99 -79z" />
    <glyph glyph-name="zero.prop" unicode="&#xf054;" horiz-adv-x="588" 
d="M169 18c-101 60 -133 182 -133 315c0 170 61 344 258 344c196 0 259 -175 259 -344c0 -170 -60 -344 -259 -344c-50 0 -92 10 -125 29zM197 168c15 -48 44 -82 97 -82c105 0 115 137 115 247c0 119 -11 247 -115 247c-103 0 -114 -130 -114 -247c0 -56 2 -117 17 -165z
" />
    <glyph glyph-name="one.prop" unicode="&#xf05e;" horiz-adv-x="451" 
d="M345 0h-142v523l-129 -99l-50 99l198 144h123v-667z" />
    <glyph glyph-name="two.prop" unicode="&#xf069;" horiz-adv-x="588" 
d="M517 0h-470v107l224 205c69 63 94 109 94 156c0 72 -64 104 -128 104c-59 0 -115 -20 -166 -44l-5 108c64 23 128 41 197 41c124 0 246 -50 246 -192c0 -91 -52 -158 -151 -249l-146 -134h305v-102z" />
    <glyph glyph-name="three.prop" unicode="&#xf074;" horiz-adv-x="588" 
d="M45 15l6 101c59 -23 128 -30 175 -30c77 0 150 28 150 109s-83 105 -159 105h-85v91h72c88 0 163 20 163 101c0 72 -75 88 -136 88c-52 0 -115 -12 -164 -31l-6 99c60 19 125 29 189 29c112 0 260 -37 260 -174c0 -84 -54 -134 -134 -154c82 -13 147 -71 147 -155
c0 -156 -147 -205 -284 -205c-67 0 -130 6 -194 26z" />
    <glyph glyph-name="four.prop" unicode="&#xf07f;" horiz-adv-x="588" 
d="M338 541l-209 -301h209v301zM336 141h-311v117l298 409h151v-424h96v-102h-96v-141h-138v141z" />
    <glyph glyph-name="five.prop" unicode="&#xf089;" horiz-adv-x="588" 
d="M62 15l6 105c47 -19 100 -27 151 -27c87 0 160 31 160 123c0 87 -74 113 -159 113c-43 0 -90 -7 -141 -22l7 360h408v-99h-279l-7 -160c27 7 56 8 81 8c125 0 237 -50 237 -198c0 -156 -143 -229 -283 -229c-60 0 -125 7 -181 26z" />
    <glyph glyph-name="six.prop" unicode="&#xf093;" horiz-adv-x="588" 
d="M218 127c20 -25 48 -42 87 -42c77 0 116 54 116 129c0 73 -39 125 -116 125c-76 0 -117 -44 -117 -117c0 -35 10 -70 30 -95zM516 661l-6 -102c-42 15 -86 22 -132 22c-133 0 -193 -103 -196 -218c35 47 98 67 155 67c130 0 218 -79 218 -210c0 -145 -111 -231 -254 -231
c-161 0 -258 109 -258 313c0 222 110 376 327 376c48 0 97 -6 146 -17z" />
    <glyph glyph-name="seven.prop" unicode="&#xf09d;" horiz-adv-x="527" 
d="M243 0h-164l272 554h-335v113h477v-113z" />
    <glyph glyph-name="eight.prop" unicode="&#xf0a7;" horiz-adv-x="588" 
d="M337 291c-14 7 -28 12 -43 17c-63 -16 -121 -56 -121 -121c0 -69 53 -106 121 -106c69 0 122 38 122 107c0 50 -36 84 -79 103zM254 403c13 -6 27 -11 41 -15c53 16 106 51 106 111c0 59 -51 91 -107 91s-107 -34 -107 -91c0 -46 29 -76 67 -96zM71 286
c27 27 62 47 107 60c-76 27 -126 71 -126 156c0 124 143 175 242 175c107 0 244 -41 244 -173c0 -82 -58 -131 -131 -158c89 -27 149 -76 149 -173c0 -136 -147 -184 -262 -184c-117 0 -262 49 -262 184c0 49 13 86 39 113z" />
    <glyph glyph-name="nine.prop" unicode="&#xf0b1;" horiz-adv-x="588" 
d="M196 362c19 -23 48 -35 87 -35c76 0 117 44 117 117c0 70 -41 137 -117 137c-77 0 -116 -54 -116 -129c0 -37 10 -67 29 -90zM72 5l6 102c42 -15 86 -22 132 -22c133 0 193 103 196 218c-35 -47 -98 -67 -155 -67c-130 0 -218 81 -218 213c0 145 114 228 254 228
c161 0 258 -109 258 -313c0 -222 -110 -376 -327 -376c-48 0 -97 6 -146 17z" />
    <glyph glyph-name=".null" horiz-adv-x="1000" 
 />
    <glyph glyph-name="CR" unicode="&#xd;" horiz-adv-x="0" 
 />
    <glyph glyph-name="space" unicode=" " horiz-adv-x="294" 
 />
    <glyph glyph-name="exclam" unicode="!" horiz-adv-x="292" 
d="M201 192h-109l-23 475h155zM213 0h-133v120h133v-120z" />
    <glyph glyph-name="quotedbl" unicode="&#x22;" horiz-adv-x="469" 
d="M373 459h-101v208h101v-208zM197 459h-100v208h100v-208z" />
    <glyph glyph-name="numbersign" unicode="#" horiz-adv-x="588" 
d="M167 0h-84l29 194h-76v79h87l19 122h-76v79h87l29 193h84l-29 -193h157l28 193h84l-28 -193h75v-79h-87l-19 -122h76v-79h-87l-28 -194h-84l28 194h-156zM226 395l-19 -122h156l19 122h-156z" />
    <glyph glyph-name="dollar" unicode="$" horiz-adv-x="588" 
d="M331 -108h-83v97c-60 1 -118 10 -174 29l6 114c52 -28 117 -40 178 -40s128 22 128 93c0 48 -55 73 -119 102l-68 31c-67 32 -130 77 -130 168c0 118 90 170 190 186v102h83v-97c55 -1 104 -8 149 -21l-6 -110c-39 19 -91 29 -144 29c-55 0 -132 -15 -132 -82
c0 -45 59 -71 102 -90l72 -31c73 -32 144 -76 144 -180c0 -124 -89 -183 -196 -199v-101z" />
    <glyph glyph-name="percent" unicode="%" horiz-adv-x="980" 
d="M665 6c-66 36 -89 109 -89 189c0 104 43 206 172 206c130 0 173 -102 173 -206s-42 -206 -173 -206c-33 0 -61 6 -83 17zM321 -24h-84l423 715h85zM149 282c-66 36 -90 108 -90 189c0 104 44 206 173 206c131 0 172 -102 172 -206s-41 -206 -172 -206c-33 0 -61 6 -83 17
zM688 101c9 -27 27 -45 60 -45c66 0 71 74 71 139c0 69 -6 139 -71 139c-64 0 -71 -70 -71 -139c0 -32 2 -67 11 -94zM172 377c9 -27 27 -45 60 -45c66 0 71 74 71 139c0 69 -6 139 -71 139c-64 0 -71 -70 -71 -139c0 -32 2 -67 11 -94z" />
    <glyph glyph-name="ampersand" unicode="&#x26;" horiz-adv-x="706" 
d="M582 299v-279c-53 -16 -170 -31 -239 -31c-160 0 -298 43 -298 192c0 91 71 154 162 162c-92 11 -142 70 -142 145c0 124 118 189 277 189c69 0 135 -10 186 -26l-5 -102c-56 25 -114 36 -181 36c-70 0 -143 -34 -143 -98c0 -75 53 -99 144 -99h107v61h132v-61h106v-89
h-106zM450 299h-107c-89 0 -158 -31 -158 -112c0 -83 73 -104 158 -104c37 0 71 4 107 15v201z" />
    <glyph glyph-name="quotesingle" unicode="'" horiz-adv-x="294" 
d="M197 459h-100v208h100v-208z" />
    <glyph glyph-name="parenleft" unicode="(" horiz-adv-x="297" 
d="M296 -128h-102c-81 129 -146 270 -146 425s66 296 146 424h102c-72 -133 -127 -272 -127 -424c0 -151 55 -295 127 -425z" />
    <glyph glyph-name="parenright" unicode=")" horiz-adv-x="297" 
d="M104 -128h-102c72 130 127 274 127 425c0 152 -55 291 -127 424h102c80 -128 145 -269 145 -424c0 -154 -65 -296 -145 -425z" />
    <glyph glyph-name="asterisk" unicode="*" horiz-adv-x="432" 
d="M154 310l-79 51l86 106l-124 32l27 92l119 -56l-14 132h96l-14 -132l118 56l26 -92l-122 -32l82 -106l-79 -51l-60 117z" />
    <glyph glyph-name="plus" unicode="+" horiz-adv-x="588" 
d="M242 206h-208v102h208v206h105v-206h208v-102h-208v-206h-105v206z" />
    <glyph glyph-name="comma" unicode="," horiz-adv-x="294" 
d="M125 -128h-95l59 248h130z" />
    <glyph glyph-name="hyphen" unicode="-" horiz-adv-x="333" 
d="M293 258h-252v104h252v-104z" />
    <glyph glyph-name="period" unicode="." horiz-adv-x="294" 
d="M214 0h-134v120h134v-120z" />
    <glyph glyph-name="slash" unicode="/" horiz-adv-x="316" 
d="M81 0h-107l262 667h106z" />
    <glyph glyph-name="zero" unicode="0" horiz-adv-x="588" 
d="M169 18c-101 60 -133 182 -133 315c0 170 61 344 258 344c196 0 259 -175 259 -344c0 -170 -60 -344 -259 -344c-50 0 -92 10 -125 29zM197 168c15 -48 44 -82 97 -82c105 0 115 137 115 247c0 119 -11 247 -115 247c-103 0 -114 -130 -114 -247c0 -56 2 -117 17 -165z
" />
    <glyph glyph-name="one" unicode="1" horiz-adv-x="588" 
d="M412 0h-142v523l-129 -99l-50 99l198 144h123v-667z" />
    <glyph glyph-name="two" unicode="2" horiz-adv-x="588" 
d="M517 0h-470v107l224 205c69 63 94 109 94 156c0 72 -64 104 -128 104c-59 0 -115 -20 -166 -44l-5 108c64 23 128 41 197 41c124 0 246 -50 246 -192c0 -91 -52 -158 -151 -249l-146 -134h305v-102z" />
    <glyph glyph-name="three" unicode="3" horiz-adv-x="588" 
d="M45 15l6 101c59 -23 128 -30 175 -30c77 0 150 28 150 109s-83 105 -159 105h-85v91h72c88 0 163 20 163 101c0 72 -75 88 -136 88c-52 0 -115 -12 -164 -31l-6 99c60 19 125 29 189 29c112 0 260 -37 260 -174c0 -84 -54 -134 -134 -154c82 -13 147 -71 147 -155
c0 -156 -147 -205 -284 -205c-67 0 -130 6 -194 26z" />
    <glyph glyph-name="four" unicode="4" horiz-adv-x="588" 
d="M338 541l-209 -301h209v301zM336 141h-311v117l298 409h151v-424h96v-102h-96v-141h-138v141z" />
    <glyph glyph-name="five" unicode="5" horiz-adv-x="588" 
d="M62 15l6 105c47 -19 100 -27 151 -27c87 0 160 31 160 123c0 87 -74 113 -159 113c-43 0 -90 -7 -141 -22l7 360h408v-99h-279l-7 -160c27 7 56 8 81 8c125 0 237 -50 237 -198c0 -156 -143 -229 -283 -229c-60 0 -125 7 -181 26z" />
    <glyph glyph-name="six" unicode="6" horiz-adv-x="588" 
d="M218 127c20 -25 48 -42 87 -42c77 0 116 54 116 129c0 73 -39 125 -116 125c-76 0 -117 -44 -117 -117c0 -35 10 -70 30 -95zM516 661l-6 -102c-42 15 -86 22 -132 22c-133 0 -193 -103 -196 -218c35 47 98 67 155 67c130 0 218 -79 218 -210c0 -145 -111 -231 -254 -231
c-161 0 -258 109 -258 313c0 222 110 376 327 376c48 0 97 -6 146 -17z" />
    <glyph glyph-name="seven" unicode="7" horiz-adv-x="588" 
d="M277 0h-164l272 554h-335v113h477v-113z" />
    <glyph glyph-name="eight" unicode="8" horiz-adv-x="588" 
d="M337 291c-14 7 -28 12 -43 17c-63 -16 -121 -56 -121 -121c0 -69 53 -106 121 -106c69 0 122 38 122 107c0 50 -36 84 -79 103zM254 403c13 -6 27 -11 41 -15c53 16 106 51 106 111c0 59 -51 91 -107 91s-107 -34 -107 -91c0 -46 29 -76 67 -96zM71 286
c27 27 62 47 107 60c-76 27 -126 71 -126 156c0 124 143 175 242 175c107 0 244 -41 244 -173c0 -82 -58 -131 -131 -158c89 -27 149 -76 149 -173c0 -136 -147 -184 -262 -184c-117 0 -262 49 -262 184c0 49 13 86 39 113z" />
    <glyph glyph-name="nine" unicode="9" horiz-adv-x="588" 
d="M196 362c19 -23 48 -35 87 -35c76 0 117 44 117 117c0 70 -41 137 -117 137c-77 0 -116 -54 -116 -129c0 -37 10 -67 29 -90zM72 5l6 102c42 -15 86 -22 132 -22c133 0 193 103 196 218c-35 -47 -98 -67 -155 -67c-130 0 -218 81 -218 213c0 145 114 228 254 228
c161 0 258 -109 258 -313c0 -222 -110 -376 -327 -376c-48 0 -97 6 -146 17z" />
    <glyph glyph-name="colon" unicode=":" horiz-adv-x="294" 
d="M214 382h-134v120h134v-120zM214 0h-134v120h134v-120z" />
    <glyph glyph-name="semicolon" unicode=";" horiz-adv-x="294" 
d="M213 382h-133v120h133v-120zM125 -128h-95l59 248h130z" />
    <glyph glyph-name="less" unicode="&#x3c;" horiz-adv-x="588" 
d="M555 -3l-521 205v108l521 206v-108l-402 -152l402 -151v-108z" />
    <glyph glyph-name="equal" unicode="=" horiz-adv-x="588" 
d="M555 312h-521v102h521v-102zM555 99h-521v101h521v-101z" />
    <glyph glyph-name="greater" unicode="&#x3e;" horiz-adv-x="588" 
d="M554 202l-521 -205v108l402 151l-402 152v108l521 -206v-108z" />
    <glyph glyph-name="question" unicode="?" horiz-adv-x="452" 
d="M249 192h-118v13c0 174 146 174 146 287c0 57 -53 80 -105 80c-47 0 -93 -12 -136 -28l-6 104c56 17 106 29 171 29c105 0 219 -46 219 -166c0 -149 -171 -165 -171 -304v-15zM257 0h-134v120h134v-120z" />
    <glyph glyph-name="at" unicode="@" horiz-adv-x="1075" 
d="M616 250l36 166c-20 5 -32 6 -51 6c-124 0 -197 -136 -197 -248c0 -61 27 -95 74 -95c66 0 117 75 138 171zM852 -79l9 -94c-100 -36 -194 -54 -315 -54c-294 0 -487 171 -487 447c0 308 220 511 520 511c247 0 437 -144 437 -400c0 -200 -123 -342 -271 -342
c-71 0 -122 34 -131 115c-44 -79 -97 -115 -173 -115c-90 0 -154 65 -154 173c0 195 127 350 328 350c49 0 108 -8 164 -25l-66 -303c-3 -15 -5 -36 -5 -48c0 -40 18 -65 57 -65c76 0 148 95 148 255c0 213 -150 316 -342 316c-232 0 -405 -168 -405 -421
c0 -225 148 -359 391 -359c108 0 195 18 295 59z" />
    <glyph glyph-name="A" unicode="A" horiz-adv-x="699" 
d="M144 0h-146l254 667h194l255 -667h-154l-59 167h-284zM347 573l-113 -305h223z" />
    <glyph glyph-name="B" unicode="B" horiz-adv-x="626" 
d="M317 0h-244v667h272c109 0 220 -37 220 -165c0 -85 -50 -137 -131 -156c84 -15 148 -67 148 -158c0 -158 -134 -188 -265 -188zM215 576v-191h71c66 0 132 21 132 99c0 70 -60 92 -120 92h-83zM215 300v-209h70c68 0 147 20 147 103c0 90 -80 106 -153 106h-64z" />
    <glyph glyph-name="C" unicode="C" horiz-adv-x="603" 
d="M568 125l6 -108c-51 -20 -113 -28 -169 -28c-215 0 -365 123 -365 344c0 208 161 344 365 344c53 0 116 -9 167 -24l-6 -111c-41 17 -93 27 -138 27c-141 0 -233 -97 -233 -236c0 -143 85 -236 230 -236c49 0 98 8 143 28z" />
    <glyph glyph-name="D" unicode="D" horiz-adv-x="700" 
d="M221 565v-463h47c157 0 237 88 237 241c0 140 -79 222 -220 222h-64zM289 0h-216v667h234c216 0 353 -104 353 -324c0 -228 -153 -343 -371 -343z" />
    <glyph glyph-name="E" unicode="E" horiz-adv-x="558" 
d="M517 0h-444v667h435v-102h-290v-175h277v-101h-277v-187h299v-102z" />
    <glyph glyph-name="F" unicode="F" horiz-adv-x="532" 
d="M221 0h-148v667h427v-102h-279v-183h267v-101h-267v-281z" />
    <glyph glyph-name="G" unicode="G" horiz-adv-x="697" 
d="M501 274h-130v97h261v-344c-64 -28 -151 -38 -218 -38c-213 0 -374 118 -374 344c0 219 181 344 386 344c68 0 135 -9 194 -30l-6 -112c-51 25 -109 37 -168 37c-147 0 -251 -87 -251 -239c0 -139 75 -239 224 -239c31 0 59 3 82 10v170z" />
    <glyph glyph-name="H" unicode="H" horiz-adv-x="706" 
d="M221 0h-148v667h148v-266h265v266h148v-667h-148v282h-265v-282z" />
    <glyph glyph-name="I" unicode="I" horiz-adv-x="293" 
d="M221 0h-148v667h148v-667z" />
    <glyph glyph-name="J" unicode="J" horiz-adv-x="375" 
d="M5 5l5 109c19 -9 36 -11 56 -11c68 0 96 47 96 108v456h148v-478c0 -125 -70 -200 -195 -200c-39 0 -75 5 -110 16z" />
    <glyph glyph-name="K" unicode="K" horiz-adv-x="663" 
d="M221 0h-148v667h148v-288l241 288h175l-281 -312l305 -355h-185l-255 318v-318z" />
    <glyph glyph-name="L" unicode="L" horiz-adv-x="526" 
d="M508 0h-435v667h148v-549h287v-118z" />
    <glyph glyph-name="M" unicode="M" horiz-adv-x="935" 
d="M204 0h-131v667h221l175 -507l173 507h221v-667h-137v572l-196 -572h-130l-196 572v-572z" />
    <glyph glyph-name="N" unicode="N" horiz-adv-x="739" 
d="M204 0h-131v667h216l247 -546v546h131v-667h-217l-246 545v-545z" />
    <glyph glyph-name="O" unicode="O" horiz-adv-x="735" 
d="M225 13c-121 50 -185 163 -185 320c0 204 118 344 327 344c212 0 328 -136 328 -344c0 -205 -117 -344 -328 -344c-53 0 -101 8 -142 24zM232 172c28 -47 71 -80 135 -80c132 0 173 130 173 241s-41 241 -173 241c-131 0 -172 -133 -172 -241c0 -55 10 -114 37 -161z" />
    <glyph glyph-name="P" unicode="P" horiz-adv-x="603" 
d="M217 568v-222h52c80 0 158 15 158 115c0 79 -56 107 -149 107h-61zM218 0h-145v667h236c141 0 267 -54 267 -205c0 -155 -126 -216 -266 -216h-92v-246z" />
    <glyph glyph-name="Q" unicode="Q" horiz-adv-x="732" 
d="M679 -128h-171l-107 119c-5 -1 -11 -2 -17 -2h-17c-214 0 -327 136 -327 344c0 204 118 344 327 344c212 0 328 -136 328 -344c0 -139 -53 -254 -158 -306zM232 172c28 -47 71 -80 135 -80c132 0 173 130 173 241s-41 241 -173 241c-131 0 -172 -133 -172 -241
c0 -55 10 -114 37 -161z" />
    <glyph glyph-name="R" unicode="R" horiz-adv-x="629" 
d="M217 568v-193h67c68 0 139 23 139 102c0 77 -63 91 -135 91h-71zM218 0h-145v667h264c115 0 235 -42 235 -175c0 -98 -69 -148 -154 -164c57 -13 81 -44 109 -113l85 -215h-160l-60 167c-30 81 -47 109 -120 109h-54v-276z" />
    <glyph glyph-name="S" unicode="S" horiz-adv-x="551" 
d="M58 16l7 117c61 -27 119 -38 168 -38c52 0 117 19 117 87c0 47 -37 72 -112 103l-54 23c-68 29 -127 75 -127 171c0 153 146 198 255 198c60 0 117 -6 157 -21l-5 -115c-47 20 -95 29 -142 29c-51 0 -116 -16 -116 -80c0 -44 44 -67 96 -88l44 -18
c88 -35 158 -81 158 -188c0 -159 -143 -207 -260 -207c-61 0 -118 6 -186 27z" />
    <glyph glyph-name="T" unicode="T" horiz-adv-x="587" 
d="M368 0h-149v549h-209v118h567v-118h-209v-549z" />
    <glyph glyph-name="U" unicode="U" horiz-adv-x="696" 
d="M214 667v-417c0 -85 39 -153 133 -153s136 66 136 152v418h148v-416c0 -173 -123 -262 -285 -262c-163 0 -280 84 -280 256v422h148z" />
    <glyph glyph-name="V" unicode="V" horiz-adv-x="661" 
d="M414 0h-171l-244 667h157l177 -524l180 524h150z" />
    <glyph glyph-name="W" unicode="W" horiz-adv-x="988" 
d="M352 0h-166l-179 667h143l129 -530l144 530h152l142 -530l130 530h135l-178 -667h-165l-145 531z" />
    <glyph glyph-name="X" unicode="X" horiz-adv-x="679" 
d="M164 0h-162l244 347l-218 320h169l153 -244l151 244h157l-222 -320l242 -347h-175l-168 270z" />
    <glyph glyph-name="Y" unicode="Y" horiz-adv-x="629" 
d="M387 0h-148v249l-246 418h162l164 -308l162 308h156l-250 -418v-249z" />
    <glyph glyph-name="Z" unicode="Z" horiz-adv-x="562" 
d="M536 0h-510v117l340 442h-328v108h489v-118l-334 -441h343v-108z" />
    <glyph glyph-name="bracketleft" unicode="[" horiz-adv-x="308" 
d="M299 -128h-222v849h222v-85h-108v-678h108v-86z" />
    <glyph glyph-name="backslash" unicode="\" horiz-adv-x="315" 
d="M342 0h-106l-262 667h107z" />
    <glyph glyph-name="bracketright" unicode="]" horiz-adv-x="308" 
d="M232 -128h-222v86h109v678h-109v85h222v-849z" />
    <glyph glyph-name="asciicircum" unicode="^" horiz-adv-x="600" 
d="M188 239h-112l176 428h97l176 -428h-112l-114 305z" />
    <glyph glyph-name="underscore" unicode="_" horiz-adv-x="500" 
d="M500 -125h-500v50h500v-50z" />
    <glyph glyph-name="grave" unicode="`" horiz-adv-x="263" 
d="M187 583h-98l-112 136h138z" />
    <glyph glyph-name="a" unicode="a" horiz-adv-x="548" 
d="M357 239h-28c-81 0 -169 -15 -169 -90c0 -49 31 -74 74 -74c84 0 123 69 123 143v21zM495 0h-130l-3 74c-35 -55 -88 -85 -164 -85c-92 0 -170 54 -170 154c0 133 128 169 269 169c19 0 41 -1 60 -2v17c0 71 -43 98 -119 98c-45 0 -100 -13 -147 -38l-6 92
c52 21 117 33 173 33c135 0 232 -48 232 -195v-199c0 -51 1 -83 5 -118z" />
    <glyph glyph-name="b" unicode="b" horiz-adv-x="595" 
d="M189 0h-126v721h138v-302c25 60 88 93 152 93c152 0 208 -125 208 -259c0 -135 -57 -264 -211 -264c-69 0 -128 29 -159 93zM219 143c16 -32 43 -57 86 -57c91 0 108 95 108 167s-16 162 -107 162c-87 0 -109 -93 -109 -162c0 -35 6 -77 22 -110z" />
    <glyph glyph-name="c" unicode="c" horiz-adv-x="476" 
d="M443 106l5 -98c-45 -15 -87 -19 -138 -19c-164 0 -276 100 -276 264c0 163 121 259 280 259c51 0 89 -5 133 -18l-6 -98c-31 15 -64 22 -99 22c-102 0 -160 -69 -160 -165c0 -93 55 -167 159 -167c35 0 67 5 102 20z" />
    <glyph glyph-name="d" unicode="d" horiz-adv-x="595" 
d="M537 0h-128l-5 82c-31 -64 -90 -93 -159 -93c-154 0 -211 129 -211 264c0 134 59 259 210 259c64 0 126 -33 151 -93v302h138v-581c0 -57 1 -99 4 -140zM202 141c16 -32 43 -56 88 -56c85 0 108 98 108 167c0 70 -22 163 -109 163c-91 0 -107 -91 -107 -163
c0 -36 4 -78 20 -111z" />
    <glyph glyph-name="e" unicode="e" horiz-adv-x="535" 
d="M169 299h211c0 63 -20 130 -96 130s-112 -66 -115 -130zM504 221h-335c3 -87 58 -140 165 -140c49 0 103 13 138 33l6 -96c-40 -17 -105 -29 -160 -29c-185 0 -284 97 -284 264c0 149 101 259 249 259c161 0 221 -106 221 -258v-33z" />
    <glyph glyph-name="f" unicode="f" horiz-adv-x="364" 
d="M249 0h-139v410h-93v92h93v51c0 99 35 178 162 178c32 0 67 -1 98 -12l-6 -88c-15 7 -33 8 -49 8c-60 0 -67 -58 -67 -87v-50h108v-92h-107v-410z" />
    <glyph glyph-name="g" unicode="g" horiz-adv-x="595" 
d="M75 -200l6 105c47 -25 98 -37 153 -37c111 0 161 63 161 164v54c-35 -55 -93 -86 -157 -86c-146 0 -204 125 -204 253c0 134 58 259 206 259c69 0 128 -29 159 -93v83h134v-470c0 -172 -100 -259 -269 -259c-64 0 -128 8 -189 27zM202 148c16 -29 43 -52 87 -52
c85 0 109 88 109 156c0 70 -22 163 -109 163c-91 0 -107 -91 -107 -163c0 -35 4 -73 20 -104z" />
    <glyph glyph-name="h" unicode="h" horiz-adv-x="585" 
d="M201 0h-138v721h138v-302c31 63 85 93 154 93c118 0 168 -71 168 -186v-326h-138v294c0 60 -9 119 -84 119c-76 0 -100 -70 -100 -135v-278z" />
    <glyph glyph-name="i" unicode="i" horiz-adv-x="263" 
d="M201 595h-138v111h138v-111zM201 0h-138v502h138v-502z" />
    <glyph glyph-name="j" unicode="j" horiz-adv-x="268" 
d="M206 595h-138v111h138v-111zM-34 -218l6 97c11 -4 23 -6 36 -6c50 0 60 40 60 82v547h138v-561c0 -95 -38 -168 -143 -168c-33 0 -66 2 -97 9z" />
    <glyph glyph-name="k" unicode="k" horiz-adv-x="567" 
d="M201 0h-138v721h138v-425l182 206h161l-204 -224l224 -278h-168l-195 255v-255z" />
    <glyph glyph-name="l" unicode="l" horiz-adv-x="263" 
d="M201 0h-138v721h138v-721z" />
    <glyph glyph-name="m" unicode="m" horiz-adv-x="877" 
d="M201 0h-138v390c0 37 -1 75 -5 112h130l2 -84c31 63 86 94 158 94c76 0 130 -40 149 -99c24 61 92 99 155 99c120 0 163 -78 163 -187v-325h-138v313c0 53 -16 100 -77 100c-70 0 -93 -71 -93 -135v-278h-137v313c0 53 -14 100 -76 100c-70 0 -93 -71 -93 -135v-278z" />
    <glyph glyph-name="n" unicode="n" horiz-adv-x="585" 
d="M201 0h-138v390c0 37 -1 75 -5 112h130l2 -84c33 64 92 94 163 94c121 0 170 -72 170 -187v-325h-138v293c0 60 -9 120 -84 120c-78 0 -100 -70 -100 -136v-277z" />
    <glyph glyph-name="o" unicode="o" horiz-adv-x="593" 
d="M186 7c-98 38 -152 125 -152 246c0 164 109 259 263 259c163 0 263 -92 263 -259c0 -162 -99 -264 -263 -264c-41 0 -78 6 -111 18zM207 137c19 -32 47 -54 90 -54c88 0 115 85 115 170c0 77 -25 165 -115 165c-88 0 -115 -89 -115 -165c0 -41 8 -84 25 -116z" />
    <glyph glyph-name="p" unicode="p" horiz-adv-x="595" 
d="M201 -216h-138v572c0 60 -2 103 -5 146h131l3 -85c28 61 94 95 161 95c152 0 208 -125 208 -259c0 -135 -57 -264 -211 -264c-64 0 -124 32 -149 92v-297zM219 143c16 -32 43 -57 86 -57c91 0 108 95 108 167s-16 162 -107 162c-87 0 -109 -93 -109 -162
c0 -35 6 -77 22 -110z" />
    <glyph glyph-name="q" unicode="q" horiz-adv-x="595" 
d="M533 -216h-138v298c-25 -60 -86 -93 -150 -93c-154 0 -211 129 -211 264c0 134 59 259 208 259c71 0 129 -29 161 -93l1 83h129v-718zM202 143c16 -33 43 -57 88 -57c85 0 108 99 108 168s-22 162 -109 162c-91 0 -107 -90 -107 -162c0 -36 4 -78 20 -111z" />
    <glyph glyph-name="r" unicode="r" horiz-adv-x="385" 
d="M201 0h-138v390c0 37 -1 74 -5 111h130l3 -97c24 55 73 109 141 109c15 0 27 -1 40 -5l-4 -124c-13 5 -28 7 -43 7c-92 0 -124 -89 -124 -167v-224z" />
    <glyph glyph-name="s" unicode="s" horiz-adv-x="446" 
d="M44 13l6 105c44 -23 91 -34 138 -34c53 0 87 15 87 58c0 86 -234 55 -234 218c0 113 115 153 207 153c49 0 99 -8 138 -19l-6 -100c-40 16 -81 24 -124 24c-35 0 -82 -8 -82 -51c0 -79 232 -41 232 -215c0 -121 -109 -163 -210 -163c-57 0 -104 7 -152 24z" />
    <glyph glyph-name="t" unicode="t" horiz-adv-x="379" 
d="M355 100l4 -92c-36 -12 -76 -19 -115 -19c-115 0 -142 73 -142 178v244h-90v91h90v102l138 45v-147h112v-91h-112v-246c0 -43 11 -76 60 -76c19 0 37 4 55 11z" />
    <glyph glyph-name="u" unicode="u" horiz-adv-x="582" 
d="M525 0h-130l-3 84c-33 -64 -91 -95 -162 -95c-121 0 -169 74 -169 189v324h138v-293c0 -60 8 -120 83 -120c78 0 100 70 100 137v276h138v-389c0 -37 1 -76 5 -113z" />
    <glyph glyph-name="v" unicode="v" horiz-adv-x="506" 
d="M339 0h-173l-160 502h145l106 -398l105 398h138z" />
    <glyph glyph-name="w" unicode="w" horiz-adv-x="848" 
d="M323 0h-171l-143 502h139l100 -395l100 395h164l103 -395l97 395h128l-141 -502h-171l-101 398z" />
    <glyph glyph-name="x" unicode="x" horiz-adv-x="532" 
d="M152 0h-144l170 263l-153 239h150l98 -179l93 179h143l-151 -239l168 -263h-152l-109 198z" />
    <glyph glyph-name="y" unicode="y" horiz-adv-x="503" 
d="M30 -215l6 95c19 -7 35 -10 54 -10c47 0 71 27 86 71l13 41l-183 520h146l106 -383l105 383h136l-186 -559c-37 -108 -85 -170 -186 -170c-39 0 -62 5 -97 12z" />
    <glyph glyph-name="z" unicode="z" horiz-adv-x="487" 
d="M457 0h-427v106l268 304h-259v92h416v-105l-267 -305h269v-92z" />
    <glyph glyph-name="braceleft" unicode="{" horiz-adv-x="311" 
d="M301 -128h-90c-69 0 -113 63 -113 127v163c0 45 -20 98 -73 98v74c53 0 73 54 73 100v161c0 64 45 126 114 126h89v-71h-36c-41 0 -54 -36 -54 -75v-159c0 -57 -34 -104 -93 -119c59 -15 93 -61 93 -120v-157c0 -38 13 -77 54 -77h36v-71z" />
    <glyph glyph-name="bar" unicode="|" horiz-adv-x="214" 
d="M161 -216h-107v991h107v-991z" />
    <glyph glyph-name="braceright" unicode="}" horiz-adv-x="311" 
d="M101 -128h-90v71h36c41 0 54 39 54 77v157c0 59 34 105 93 120c-59 15 -93 62 -93 119v159c0 39 -13 75 -54 75h-36v71h89c69 0 114 -62 114 -126v-161c0 -46 20 -100 73 -100v-74c-53 0 -73 -53 -73 -98v-163c0 -64 -44 -127 -113 -127z" />
    <glyph glyph-name="asciitilde" unicode="~" horiz-adv-x="588" 
d="M92 171h-69c5 77 49 171 137 171s190 -67 270 -67c43 0 60 32 67 69h69c-5 -76 -44 -172 -135 -172c-90 0 -191 67 -271 67c-41 0 -63 -31 -68 -68z" />
    <glyph glyph-name="uni00A0" unicode="&#xa0;" horiz-adv-x="294" 
 />
    <glyph glyph-name="Aogonek" unicode="&#x104;" horiz-adv-x="699" 
d="M347 573l-113 -305h223zM144 0h-146l254 667h194l255 -667h-71c-56 -43 -72 -72 -72 -99s21 -40 46 -40c21 0 42 5 63 14l12 -46c-27 -13 -54 -21 -99 -21c-61 0 -100 31 -100 78c0 43 39 83 94 114h-27l-59 167h-284z" />
    <glyph glyph-name="AE" unicode="&#xc6;" horiz-adv-x="950" 
d="M138 0h-149l404 667h507v-102h-276v-176h261v-100h-261v-187h285v-102h-430v167h-242zM479 582l-189 -314h189v314z" />
    <glyph glyph-name="Ccedilla" unicode="&#xc7;" horiz-adv-x="603" 
d="M253 -172l19 46c32 -11 55 -18 82 -18c24 0 47 9 47 28s-20 29 -39 29c-14 0 -28 -2 -41 -7l-20 25l42 62c-182 21 -303 140 -303 340c0 208 161 344 365 344c53 0 116 -9 167 -24l-6 -111c-41 17 -93 27 -138 27c-141 0 -233 -97 -233 -236c0 -143 85 -236 230 -236
c49 0 98 8 143 28l6 -108c-51 -20 -113 -28 -169 -28h-9l-27 -40c8 3 20 4 36 4c43 0 73 -23 73 -66c0 -51 -45 -79 -120 -79c-35 0 -68 5 -105 20z" />
    <glyph glyph-name="Dcroat" unicode="&#x110;" horiz-adv-x="700" 
d="M221 293v-191h55c153 0 229 88 229 241c0 133 -66 222 -207 222h-77v-188h142v-84h-142zM297 0h-224v293h-76v84h76v290h247c216 0 340 -104 340 -324c0 -228 -144 -343 -363 -343z" />
    <glyph glyph-name="Eth" unicode="&#xd0;" horiz-adv-x="700" 
d="M221 293v-191h55c153 0 229 88 229 241c0 133 -66 222 -207 222h-77v-188h142v-84h-142zM297 0h-224v293h-76v84h76v290h247c216 0 340 -104 340 -324c0 -228 -144 -343 -363 -343z" />
    <glyph glyph-name="Eogonek" unicode="&#x118;" horiz-adv-x="558" 
d="M394 0h-321v667h435v-102h-290v-175h277v-101h-277v-187h299v-102h-67c-56 -43 -72 -72 -72 -99s21 -40 46 -40c21 0 42 5 63 14l12 -46c-27 -13 -54 -21 -99 -21c-61 0 -100 31 -100 78c0 43 39 83 94 114z" />
    <glyph glyph-name="Hbar" unicode="&#x126;" horiz-adv-x="706" 
d="M221 463v-102h265v102h-265zM221 0h-148v667h148v-120h265v120h148v-667h-148v246h-265v-246z" />
    <glyph glyph-name="Iogonek" unicode="&#x12e;" horiz-adv-x="293" 
d="M154 0h-81v667h148v-667h-11c-56 -43 -72 -72 -72 -99s21 -40 46 -40c23 0 34 3 57 14l12 -46c-27 -13 -48 -21 -93 -21c-61 0 -100 31 -100 78c0 43 39 83 94 114z" />
    <glyph glyph-name="Lslash" unicode="&#x141;" horiz-adv-x="526" 
d="M508 0h-435v278l-79 -58v87l79 58v302h148v-220l144 106v-87l-144 -107v-241h287v-118z" />
    <glyph glyph-name="Oslash" unicode="&#xd8;" horiz-adv-x="735" 
d="M81 -25l-53 49l76 83c-43 59 -62 135 -62 226c0 204 118 344 327 344c88 0 159 -22 212 -65l73 79l54 -49l-75 -81c43 -59 64 -137 64 -228c0 -205 -117 -344 -328 -344c-88 0 -159 22 -213 66zM221 224l268 296c-28 33 -65 54 -120 54c-131 0 -173 -133 -173 -241
c0 -39 8 -77 25 -109zM517 446l-268 -297c27 -35 67 -57 120 -57c132 0 173 130 173 241c0 39 -8 80 -25 113z" />
    <glyph glyph-name="OE" unicode="&#x152;" horiz-adv-x="943" 
d="M902 0h-380c-45 0 -103 -11 -155 -11c-214 0 -327 136 -327 344c0 204 118 344 327 344c51 0 112 -10 155 -10h371v-102h-277v-176h263v-100h-263v-187h286v-102zM474 103v460c-25 7 -74 11 -107 11c-131 0 -173 -133 -173 -241s44 -241 173 -241c35 0 83 4 107 11z" />
    <glyph glyph-name="Scedilla" unicode="&#x15e;" horiz-adv-x="551" 
d="M151 -172l19 46c32 -11 55 -18 82 -18c24 0 47 9 47 28s-20 29 -39 29c-14 0 -28 -2 -41 -7l-20 25l39 58c-60 1 -115 7 -180 27l7 117c61 -27 119 -38 168 -38c52 0 117 19 117 87c0 47 -37 72 -112 103l-54 23c-68 29 -127 75 -127 171c0 153 146 198 255 198
c60 0 117 -6 157 -21l-5 -115c-47 20 -95 29 -142 29c-51 0 -116 -16 -116 -80c0 -44 44 -67 96 -88l44 -18c88 -35 158 -81 158 -188c0 -135 -105 -192 -208 -203l-29 -44c8 3 20 4 36 4c43 0 73 -23 73 -66c0 -51 -45 -79 -120 -79c-35 0 -68 5 -105 20z" />
    <glyph glyph-name="Tbar" unicode="&#x166;" horiz-adv-x="587" 
d="M368 0h-149v332h-136v84h136v133h-209v118h567v-118h-209v-133h142v-84h-142v-332z" />
    <glyph glyph-name="Thorn" unicode="&#xde;" horiz-adv-x="603" 
d="M218 0h-145v667h145v-119h136c128 0 225 -74 225 -208c0 -141 -100 -213 -229 -213h-132v-127zM217 448v-221h52c80 0 161 12 161 112c0 79 -60 109 -132 109h-81z" />
    <glyph glyph-name="Uogonek" unicode="&#x172;" horiz-adv-x="696" 
d="M462 -125l12 -46c-27 -13 -54 -21 -99 -21c-61 0 -100 31 -100 78c0 39 31 75 75 103h-4c-163 0 -280 84 -280 256v422h148v-417c0 -85 39 -153 133 -153s136 66 136 152v418h148v-416c0 -145 -87 -231 -212 -255c-51 -41 -66 -68 -66 -95s21 -40 46 -40c21 0 42 5 63 14
z" />
    <glyph glyph-name="aogonek" unicode="&#x105;" horiz-adv-x="548" 
d="M357 239h-28c-81 0 -169 -15 -169 -90c0 -49 31 -74 74 -74c84 0 123 69 123 143v21zM480 -125l12 -46c-27 -13 -54 -21 -99 -21c-61 0 -100 31 -100 78c0 43 39 83 94 114h-22l-3 74c-35 -55 -88 -85 -164 -85c-92 0 -170 54 -170 154c0 133 128 169 269 169
c19 0 41 -1 60 -2v17c0 71 -43 98 -119 98c-45 0 -100 -13 -147 -38l-6 92c52 21 117 33 173 33c135 0 232 -48 232 -195v-199c0 -51 1 -83 5 -118h-52c-56 -43 -72 -72 -72 -99s21 -40 46 -40c21 0 42 5 63 14z" />
    <glyph glyph-name="ae" unicode="&#xe6;" horiz-adv-x="841" 
d="M474 299h211c0 63 -20 130 -96 130s-112 -66 -115 -130zM88 386l-6 94c52 19 115 32 171 32c79 0 139 -21 170 -80c44 52 93 80 164 80c161 0 222 -106 222 -258v-31h-335c3 -87 58 -142 165 -142c49 0 103 13 138 33l6 -96c-40 -17 -105 -29 -160 -29
c-92 0 -172 21 -223 96c-43 -68 -114 -96 -195 -96c-99 0 -178 48 -178 148c0 134 128 163 259 163c19 0 45 0 64 -1v29c0 68 -46 98 -111 98c-53 0 -104 -12 -151 -40zM350 230h-22c-88 0 -172 -8 -172 -85c0 -47 34 -71 83 -71c76 0 111 57 111 130v26z" />
    <glyph glyph-name="ccedilla" unicode="&#xe7;" horiz-adv-x="476" 
d="M171 -172l19 46c32 -11 55 -18 82 -18c24 0 47 9 47 28s-20 29 -39 29c-14 0 -28 -2 -41 -7l-20 25l40 62c-136 19 -225 112 -225 260c0 163 121 259 280 259c51 0 89 -5 133 -18l-6 -98c-31 15 -64 22 -99 22c-102 0 -160 -69 -160 -165c0 -93 55 -167 159 -167
c35 0 67 5 102 20l5 -98c-45 -15 -87 -19 -136 -19l-25 -40c8 3 20 4 36 4c43 0 73 -23 73 -66c0 -51 -45 -79 -120 -79c-35 0 -68 5 -105 20z" />
    <glyph glyph-name="dcroat" unicode="&#x111;" horiz-adv-x="595" 
d="M537 0h-128l-5 82c-31 -64 -90 -93 -159 -93c-154 0 -211 129 -211 264c0 134 59 259 210 259c64 0 126 -33 151 -93v163h-150v72h150v67h138v-67h80v-72h-80v-442c0 -57 1 -99 4 -140zM202 141c16 -32 43 -56 88 -56c85 0 108 98 108 167c0 70 -22 163 -109 163
c-91 0 -107 -91 -107 -163c0 -36 4 -78 20 -111z" />
    <glyph glyph-name="eth" unicode="&#xf0;" horiz-adv-x="593" 
d="M184 530l-47 46l100 51c-32 19 -74 32 -110 40l59 64c49 -8 106 -33 149 -57l109 57l47 -46l-89 -46c118 -91 158 -221 158 -361c0 -171 -96 -289 -265 -289c-164 0 -261 93 -261 260c0 140 80 251 231 251c67 0 110 -23 154 -72c-19 65 -59 123 -115 163zM207 134
c19 -31 47 -51 90 -51c85 0 115 82 115 166c0 75 -26 157 -115 157c-85 0 -115 -82 -115 -157c0 -43 8 -83 25 -115z" />
    <glyph glyph-name="eogonek" unicode="&#x119;" horiz-adv-x="535" 
d="M169 299h211c0 63 -20 130 -96 130s-112 -66 -115 -130zM400 -125l12 -46c-27 -13 -54 -21 -99 -21c-61 0 -100 31 -100 78c0 37 29 76 72 104c-164 11 -251 106 -251 263c0 149 101 259 249 259c161 0 221 -106 221 -258v-33h-335c3 -87 58 -140 165 -140
c49 0 103 13 138 33l6 -96c-33 -15 -84 -24 -131 -28c-43 -36 -56 -65 -56 -89c0 -27 21 -40 46 -40c21 0 42 5 63 14z" />
    <glyph glyph-name="hbar" unicode="&#x127;" horiz-adv-x="585" 
d="M201 0h-138v582h-80v72h80v67h138v-67h150v-72h-150v-163c31 63 85 93 154 93c118 0 168 -71 168 -186v-326h-138v294c0 60 -9 119 -84 119c-76 0 -100 -70 -100 -135v-278z" />
    <glyph glyph-name="dotlessi" unicode="&#x131;" horiz-adv-x="263" 
d="M201 0h-138v502h138v-502z" />
    <glyph glyph-name="iogonek" unicode="&#x12f;" horiz-adv-x="263" 
d="M201 595h-138v111h138v-111zM139 0h-76v502h138v-502h-6c-56 -43 -72 -72 -72 -99s21 -40 46 -40c23 0 34 3 57 14l12 -46c-27 -13 -48 -21 -93 -21c-61 0 -100 31 -100 78c0 43 39 83 94 114z" />
    <glyph glyph-name="dotlessj" unicode="&#x237;" horiz-adv-x="268" 
d="M-34 -218l6 97c11 -4 23 -6 36 -6c50 0 60 40 60 82v547h138v-561c0 -95 -38 -168 -143 -168c-33 0 -66 2 -97 9z" />
    <glyph glyph-name="lslash" unicode="&#x142;" horiz-adv-x="263" 
d="M201 0h-138v314l-73 -55v87l73 55v320h138v-244l74 55v-87l-74 -55v-390z" />
    <glyph glyph-name="oslash" unicode="&#xf8;" horiz-adv-x="593" 
d="M404 334l-192 -209c18 -28 47 -42 86 -42c85 0 118 74 118 171c0 27 -5 61 -12 80zM190 170l191 210c-18 25 -46 38 -83 38c-87 0 -119 -75 -119 -164c0 -25 2 -60 11 -84zM71 -26l-46 39l63 68c-35 45 -53 101 -53 172c0 164 106 259 263 259c67 0 122 -16 165 -48
l60 64l46 -40l-61 -64c35 -40 52 -100 52 -171c0 -162 -99 -264 -262 -264c-68 0 -122 18 -165 51z" />
    <glyph glyph-name="oe" unicode="&#x153;" horiz-adv-x="906" 
d="M539 299h211c0 63 -20 130 -96 130s-112 -66 -115 -130zM874 221h-335c3 -87 58 -140 165 -140c49 0 103 13 138 33l6 -96c-40 -17 -105 -29 -160 -29c-99 0 -169 28 -213 93c-41 -61 -109 -93 -192 -93c-160 0 -249 111 -249 264c0 152 98 259 250 259
c88 0 149 -31 193 -94c39 56 95 94 175 94c161 0 222 -109 222 -260v-31zM199 137c19 -32 47 -54 90 -54c87 0 116 85 116 170c0 77 -26 165 -116 165c-88 0 -115 -89 -115 -165c0 -41 8 -84 25 -116z" />
    <glyph glyph-name="scedilla" unicode="&#x15f;" horiz-adv-x="446" 
d="M104 -172l19 46c32 -11 55 -18 82 -18c24 0 47 9 47 28s-20 29 -39 29c-14 0 -28 -2 -41 -7l-20 25l38 58c-56 1 -99 8 -146 24l6 105c44 -23 91 -34 138 -34c53 0 87 15 87 58c0 86 -234 55 -234 218c0 113 115 153 207 153c49 0 99 -8 138 -19l-6 -100
c-40 16 -81 24 -124 24c-35 0 -82 -8 -82 -51c0 -79 232 -41 232 -215c0 -100 -75 -146 -158 -159l-28 -44c8 3 20 4 36 4c43 0 73 -23 73 -66c0 -51 -45 -79 -120 -79c-35 0 -68 5 -105 20z" />
    <glyph glyph-name="germandbls" unicode="&#xdf;" horiz-adv-x="613" 
d="M201 0h-138v477c0 144 84 254 262 254c124 0 223 -66 223 -210c0 -19 -1 -38 -5 -59c-80 -3 -130 -12 -130 -72c0 -84 171 -96 171 -240c0 -115 -97 -161 -190 -161c-40 0 -78 5 -121 17l6 94c27 -13 58 -20 87 -20c47 0 82 23 82 70c0 97 -160 93 -160 236
c0 76 58 117 126 125c3 15 3 25 3 36c0 55 -32 94 -96 94c-95 0 -120 -86 -120 -164v-477z" />
    <glyph glyph-name="tbar" unicode="&#x167;" horiz-adv-x="379" 
d="M102 258h-76v72h76v81h-90v91h90v102l138 45v-147h112v-91h-112v-81h91v-72h-91v-93c0 -43 11 -76 60 -76c19 0 37 4 55 11l4 -92c-36 -12 -76 -19 -115 -19c-115 0 -142 73 -142 178v91z" />
    <glyph glyph-name="thorn" unicode="&#xfe;" horiz-adv-x="595" 
d="M201 -216h-138v937h138v-302c25 60 88 93 152 93c152 0 208 -125 208 -259c0 -135 -57 -264 -211 -264c-64 0 -124 32 -149 92v-297zM219 143c16 -32 43 -57 86 -57c91 0 108 95 108 167s-16 162 -107 162c-87 0 -109 -93 -109 -162c0 -35 6 -77 22 -110z" />
    <glyph glyph-name="uogonek" unicode="&#x173;" horiz-adv-x="582" 
d="M514 -125l12 -46c-27 -13 -54 -21 -99 -21c-61 0 -100 31 -100 78c0 43 39 83 94 114h-26l-3 84c-33 -64 -91 -95 -162 -95c-121 0 -169 74 -169 189v324h138v-293c0 -60 8 -120 83 -120c78 0 100 70 100 137v276h138v-389c0 -37 1 -76 5 -113h-48
c-56 -43 -72 -72 -72 -99s21 -40 46 -40c21 0 42 5 63 14z" />
    <glyph glyph-name="grave.cap" unicode="&#xe000;" horiz-adv-x="263" 
d="M187 724h-98l-112 136h138z" />
    <glyph glyph-name="acute" unicode="&#xb4;" horiz-adv-x="263" 
d="M167 583h-99l72 136h138z" />
    <glyph glyph-name="acute.cap" unicode="&#xe002;" horiz-adv-x="263" 
d="M167 724h-99l72 136h138z" />
    <glyph glyph-name="circumflex" unicode="&#x2c6;" horiz-adv-x="263" 
d="M63 583h-93l103 136h117l103 -136h-94l-68 86z" />
    <glyph glyph-name="circumflex.cap" unicode="&#xe004;" horiz-adv-x="263" 
d="M63 724h-93l103 136h117l103 -136h-94l-68 86z" />
    <glyph glyph-name="caron" unicode="&#x2c7;" horiz-adv-x="263" 
d="M190 583h-117l-103 136h94l68 -86l68 86h93z" />
    <glyph glyph-name="caron.cap" unicode="&#xe006;" horiz-adv-x="263" 
d="M190 724h-117l-103 136h94l68 -86l68 86h93z" />
    <glyph glyph-name="caron.alt" unicode="&#xe008;" horiz-adv-x="263" 
d="M209 557h-84l19 162h109z" />
    <glyph glyph-name="tilde" unicode="&#x2dc;" horiz-adv-x="263" 
d="M25 589h-64c3 56 34 119 100 119c53 0 100 -39 137 -39c25 0 37 20 40 41h65c-3 -56 -39 -118 -103 -118c-55 0 -90 38 -132 38c-23 0 -43 -21 -43 -41z" />
    <glyph glyph-name="tilde.cap" unicode="&#xe009;" horiz-adv-x="263" 
d="M25 730h-64c3 56 34 119 100 119c53 0 100 -39 137 -39c25 0 37 20 40 41h65c-3 -56 -40 -118 -103 -118c-55 0 -90 38 -132 38c-23 0 -43 -21 -43 -41z" />
    <glyph glyph-name="dieresis" unicode="&#xa8;" horiz-adv-x="263" 
d="M281 595h-107v111h107v-111zM89 595h-107v111h107v-111z" />
    <glyph glyph-name="dieresis.cap" unicode="&#xe00b;" horiz-adv-x="263" 
d="M89 736h-107v111h107v-111zM281 736h-107v111h107v-111z" />
    <glyph glyph-name="macron" unicode="&#xaf;" horiz-adv-x="263" 
d="M284 616h-304v70h304v-70z" />
    <glyph glyph-name="macron.cap" unicode="&#xe00d;" horiz-adv-x="263" 
d="M284 757h-304v70h304v-70z" />
    <glyph glyph-name="uni02C9" unicode="&#x2c9;" horiz-adv-x="263" 
d="M284 616h-304v70h304v-70z" />
    <glyph glyph-name="breve" unicode="&#x2d8;" horiz-adv-x="263" 
d="M-14 716h67c3 -35 30 -64 79 -64s75 29 78 64h68c0 -58 -50 -132 -146 -132c-97 0 -146 74 -146 132z" />
    <glyph glyph-name="breve.cap" unicode="&#xe00f;" horiz-adv-x="263" 
d="M-14 857h67c3 -35 30 -64 79 -64s75 29 78 64h68c0 -58 -50 -132 -146 -132c-97 0 -146 74 -146 132z" />
    <glyph glyph-name="ring" unicode="&#x2da;" horiz-adv-x="263" 
d="M61 579c-19 19 -30 44 -30 72c0 56 45 99 101 99c55 0 101 -43 101 -99c0 -55 -46 -100 -101 -100c-28 0 -52 11 -71 28zM78 651c0 -31 25 -54 54 -54c31 0 54 23 54 54c0 29 -23 53 -54 53s-54 -24 -54 -53z" />
    <glyph glyph-name="ring.cap" unicode="&#xe011;" horiz-adv-x="263" 
d="M78 792c0 -31 25 -54 54 -54c31 0 54 23 54 54c0 29 -23 53 -54 53s-54 -24 -54 -53zM61 720c-19 19 -30 44 -30 72c0 56 45 99 101 99c55 0 101 -43 101 -99c0 -55 -46 -100 -101 -100c-28 0 -52 11 -71 28z" />
    <glyph glyph-name="hungarumlaut" unicode="&#x2dd;" horiz-adv-x="263" 
d="M248 583h-99l72 136h139zM32 583h-99l72 136h139z" />
    <glyph glyph-name="hungarumlaut.cap" unicode="&#xe013;" horiz-adv-x="263" 
d="M32 724h-99l72 136h139zM248 724h-99l72 136h139z" />
    <glyph glyph-name="dotaccent" unicode="&#x2d9;" horiz-adv-x="263" 
d="M201 595h-138v111h138v-111z" />
    <glyph glyph-name="dotaccent.cap" unicode="&#xe015;" horiz-adv-x="263" 
d="M193 736h-122v111h122v-111z" />
    <glyph glyph-name="cedilla" unicode="&#xb8;" horiz-adv-x="263" 
d="M19 -172l19 46c32 -11 55 -18 82 -18c24 0 47 9 47 28s-20 29 -39 29c-14 0 -28 -2 -41 -7l-20 25l47 69h56l-35 -51c8 3 20 4 36 4c43 0 73 -23 73 -66c0 -51 -45 -79 -120 -79c-35 0 -68 5 -105 20z" />
    <glyph glyph-name="ogonek" unicode="&#x2db;" horiz-adv-x="263" 
d="M223 -125l12 -46c-27 -13 -54 -21 -99 -21c-61 0 -100 31 -100 78c0 43 39 83 94 114h56c-56 -43 -72 -72 -72 -99s21 -40 46 -40c21 0 42 5 63 14z" />
    <glyph glyph-name="commaaccent" unicode="&#xe017;" horiz-adv-x="263" 
d="M115 -227h-86l41 159h119z" />
    <glyph glyph-name="commaaccent.alt" unicode="&#xe01a;" horiz-adv-x="263" 
d="M353 583h-118l74 136h83z" />
    <glyph glyph-name="ellipsis" unicode="&#x2026;" horiz-adv-x="1000" 
d="M901 0h-134v120h134v-120zM568 0h-134v120h134v-120zM234 0h-134v120h134v-120z" />
    <glyph glyph-name="uni00AD" unicode="&#xad;" horiz-adv-x="333" 
d="M293 258h-252v104h252v-104z" />
    <glyph glyph-name="exclamdown" unicode="&#xa1;" horiz-adv-x="292" 
d="M213 382h-133v120h133v-120zM224 -165h-155l23 475h109z" />
    <glyph glyph-name="questiondown" unicode="&#xbf;" horiz-adv-x="452" 
d="M329 382h-133v120h133v-120zM417 -42l6 -104c-56 -17 -106 -29 -171 -29c-105 0 -219 46 -219 166c0 150 171 165 171 305v14h117v-13c0 -174 -145 -173 -145 -286c0 -57 53 -80 105 -80c47 0 93 11 136 27z" />
    <glyph glyph-name="quoteleft" unicode="&#x2018;" horiz-adv-x="294" 
d="M175 473h-130l94 248h95z" />
    <glyph glyph-name="quoteright" unicode="&#x2019;" horiz-adv-x="294" 
d="M155 473h-95l59 248h130z" />
    <glyph glyph-name="quotedblleft" unicode="&#x201c;" horiz-adv-x="496" 
d="M377 473h-130l94 248h95zM175 473h-130l94 248h95z" />
    <glyph glyph-name="quotedblright" unicode="&#x201d;" horiz-adv-x="496" 
d="M357 473h-95l58 248h131zM155 473h-95l59 248h130z" />
    <glyph glyph-name="quotesinglbase" unicode="&#x201a;" horiz-adv-x="294" 
d="M125 -128h-95l59 248h130z" />
    <glyph glyph-name="quotedblbase" unicode="&#x201e;" horiz-adv-x="496" 
d="M327 -127h-95l59 248h130zM125 -127h-95l59 248h130z" />
    <glyph glyph-name="guilsinglleft" unicode="&#x2039;" horiz-adv-x="299" 
d="M267 55h-112l-133 202l133 200h112l-127 -200z" />
    <glyph glyph-name="guilsinglright" unicode="&#x203a;" horiz-adv-x="299" 
d="M145 55h-113l127 201l-127 201h113l132 -201z" />
    <glyph glyph-name="guillemotleft" unicode="&#xab;" horiz-adv-x="500" 
d="M469 55h-113l-133 202l133 200h113l-127 -200zM267 55h-112l-133 202l133 200h112l-127 -200z" />
    <glyph glyph-name="guillemotright" unicode="&#xbb;" horiz-adv-x="500" 
d="M346 55h-113l127 201l-127 201h113l133 -201zM144 55h-112l127 201l-127 201h112l133 -201z" />
    <glyph glyph-name="endash" unicode="&#x2013;" horiz-adv-x="500" 
d="M500 265h-500v90h500v-90z" />
    <glyph glyph-name="emdash" unicode="&#x2014;" horiz-adv-x="1000" 
d="M1000 265h-1000v90h1000v-90z" />
    <glyph glyph-name="bullet" unicode="&#x2022;" horiz-adv-x="588" 
d="M239 182c-49 21 -84 69 -84 128c0 77 62 139 139 139s140 -62 140 -139s-63 -139 -140 -139c-19 0 -38 4 -55 11z" />
    <glyph glyph-name="periodcentered" unicode="&#xb7;" horiz-adv-x="294" 
d="M214 250h-134v120h134v-120z" />
    <glyph glyph-name="uni2219" unicode="&#x2219;" horiz-adv-x="294" 
d="M214 250h-134v120h134v-120z" />
    <glyph glyph-name="dagger" unicode="&#x2020;" horiz-adv-x="588" 
d="M362 -128h-136v533h-176v112h176v204h136v-204h176v-112h-176v-533z" />
    <glyph glyph-name="daggerdbl" unicode="&#x2021;" horiz-adv-x="588" 
d="M362 -128h-136v204h-176v112h176v217h-176v112h176v204h136v-204h176v-112h-176v-217h176v-112h-176v-204z" />
    <glyph glyph-name="section" unicode="&#xa7;" horiz-adv-x="588" 
d="M87 -98l6 94c52 -21 104 -30 160 -30c44 0 113 14 113 69c0 35 -42 55 -79 71l-96 39c-62 24 -115 66 -115 143c0 59 44 98 90 128c-44 23 -68 58 -68 109c0 109 109 152 209 152c67 0 111 -8 165 -21l-6 -92c-41 13 -91 23 -134 23c-40 0 -103 -11 -103 -62
c0 -43 43 -55 91 -74l78 -33c64 -27 117 -54 117 -133c0 -60 -34 -96 -78 -131c41 -29 60 -65 60 -118c0 -114 -121 -160 -224 -160c-67 0 -125 9 -186 26zM267 226l92 -39c23 23 44 50 44 83c0 44 -43 61 -86 77l-77 29c-29 -16 -51 -42 -51 -77c0 -37 38 -56 78 -73z" />
    <glyph glyph-name="paragraph" unicode="&#xb6;" horiz-adv-x="583" 
d="M331 -108h-95v430c-104 0 -205 58 -205 173c0 138 106 178 226 178h278v-781h-95v708h-109v-708z" />
    <glyph glyph-name="brokenbar" unicode="&#xa6;" horiz-adv-x="214" 
d="M161 379h-107v396h107v-396zM161 -216h-107v397h107v-397z" />
    <glyph glyph-name="copyright" unicode="&#xa9;" horiz-adv-x="776" 
d="M254 16c-124 53 -210 175 -210 318c0 189 154 343 344 343s344 -154 344 -343c0 -190 -154 -345 -344 -345c-47 0 -92 9 -134 27zM197 138c48 -51 115 -82 191 -82c151 0 270 126 270 278c0 151 -119 276 -270 276s-269 -125 -269 -276c0 -76 30 -145 78 -196zM512 231
l4 -64c-29 -11 -62 -16 -94 -16c-124 0 -210 66 -210 183c0 113 92 183 210 183c31 0 65 -6 94 -14l-4 -64c-23 9 -51 15 -78 15c-83 0 -134 -47 -134 -120c0 -75 49 -120 133 -120c28 0 52 6 79 17z" />
    <glyph glyph-name="registered" unicode="&#xae;" horiz-adv-x="768" 
d="M250 16c-124 53 -210 175 -210 318c0 189 154 343 344 343s344 -154 344 -343c0 -190 -154 -345 -344 -345c-47 0 -92 9 -134 27zM192 139c49 -51 116 -83 192 -83c151 0 270 129 270 278c0 150 -119 276 -270 276s-270 -125 -270 -276c0 -75 30 -144 78 -195zM325 162
h-84v357h158c67 0 131 -24 131 -95c0 -49 -41 -81 -90 -89c35 -7 50 -21 62 -52l48 -121h-89l-38 100c-13 35 -23 46 -66 46h-32v-146zM325 463v-99h38c40 0 81 9 81 52c0 40 -41 47 -81 47h-38z" />
    <glyph glyph-name="trademark" unicode="&#x2122;" horiz-adv-x="1007" 
d="M528 266h-91v401h154l110 -298l105 298h155v-401h-96v341l-123 -341h-90l-124 341v-341zM246 266h-103v326h-137v75h378v-75h-138v-326z" />
    <glyph glyph-name="currency" unicode="&#xa4;" horiz-adv-x="588" 
d="M111 86l-64 63l65 66c-24 39 -36 71 -36 118c0 45 12 82 36 119l-65 66l63 63l66 -66c37 24 74 36 118 36c47 0 81 -12 120 -35l64 64l64 -63l-65 -65c23 -37 36 -75 36 -120c0 -44 -12 -81 -36 -117l65 -66l-63 -64l-66 66c-36 -24 -74 -37 -118 -37s-83 14 -120 37z
M180 284c19 -43 63 -75 114 -75c69 0 124 56 124 124s-56 124 -124 124c-69 0 -123 -55 -123 -124c0 -17 3 -34 9 -49z" />
    <glyph glyph-name="Euro" unicode="&#x20ac;" horiz-adv-x="588" 
d="M120 236h-89l15 61h66c-1 12 -2 25 -2 37c0 11 1 24 2 35h-80l15 61h74c32 144 148 247 299 247c47 0 98 -9 142 -25l-25 -102c-29 13 -62 19 -94 19c-88 0 -147 -60 -171 -139h241l-15 -61h-241c-1 -12 -2 -24 -2 -36s1 -24 2 -36h227l-15 -61h-198
c23 -80 81 -137 169 -137c32 0 69 5 98 20l6 -109c-36 -17 -84 -21 -124 -21c-158 0 -268 94 -300 247z" />
    <glyph glyph-name="cent" unicode="&#xa2;" horiz-adv-x="588" 
d="M367 0h-72v93c-128 17 -202 107 -202 243c0 132 81 220 202 239v92h72v-89c39 -1 75 -9 112 -21l-6 -92c-31 15 -63 24 -96 24c-92 0 -145 -65 -145 -153c0 -85 51 -157 142 -157c33 0 67 8 100 24l6 -93c-39 -13 -74 -19 -113 -20v-90z" />
    <glyph glyph-name="sterling" unicode="&#xa3;" horiz-adv-x="588" 
d="M527 0h-447v95h77v204h-73v93h73v52c0 149 81 233 238 233c45 0 97 -5 140 -20l-8 -98c-32 15 -70 20 -106 20c-102 0 -127 -62 -127 -142v-45h163v-93h-163v-204h233v-95z" />
    <glyph glyph-name="florin" unicode="&#x192;" horiz-adv-x="588" 
d="M12 -218l6 94c15 -4 27 -4 42 -4c52 0 80 70 88 114l67 323h-108v91h127l22 99c24 109 75 178 184 178c29 0 58 -3 86 -12l-6 -88c-16 4 -32 7 -47 7c-56 0 -74 -50 -84 -94l-20 -90h108v-91h-127l-70 -331c-21 -98 -67 -205 -175 -205c-31 0 -62 2 -93 9z" />
    <glyph glyph-name="yen" unicode="&#xa5;" horiz-adv-x="588" 
d="M219 124h-147v84h147v63h-147v84h104l-163 312h146l136 -291l138 291h142l-171 -312h110v-84h-154v-63h154v-84h-154v-124h-141v124z" />
    <glyph glyph-name="ordfeminine" unicode="&#xaa;" horiz-adv-x="388" 
d="M336 369h-92l-2 50c-23 -33 -63 -56 -104 -56c-63 0 -113 26 -113 87c0 83 87 109 175 109c13 0 30 -1 43 -2v8c0 40 -35 53 -79 53c-33 0 -66 -8 -98 -25l-3 65c35 11 78 19 115 19c85 0 156 -26 156 -118v-118v-41c0 -11 1 -21 2 -31zM243 504h-13
c-51 0 -113 -12 -113 -52c0 -31 26 -36 53 -36c40 0 69 34 72 75z" />
    <glyph glyph-name="ordmasculine" unicode="&#xba;" horiz-adv-x="396" 
d="M68 405c-31 28 -46 67 -46 117c0 100 73 155 174 155c107 0 174 -52 174 -155c0 -100 -66 -159 -174 -159c-55 0 -97 14 -128 42zM141 457c11 -17 28 -29 55 -29c53 0 70 45 70 94c0 40 -14 90 -70 90c-53 0 -70 -50 -70 -90c0 -24 4 -48 15 -65z" />
    <glyph glyph-name="fraction" unicode="&#x2044;" horiz-adv-x="173" 
d="M-85 -24h-81l424 715h81z" />
    <glyph glyph-name="uni2215" unicode="&#x2215;" horiz-adv-x="173" 
d="M-85 -24h-81l424 715h81z" />
    <glyph glyph-name="onequarter" unicode="&#xbc;" horiz-adv-x="920" 
d="M689 84h-200v79l193 238h104v-248h63v-69h-63v-84h-97v84zM255 -24h-84l423 715h85zM259 266h-99v309l-85 -61l-35 65l134 88h85v-401zM691 329l-141 -178h141v178z" />
    <glyph glyph-name="onehalf" unicode="&#xbd;" horiz-adv-x="961" 
d="M877 0h-312v73l77 62c42 31 130 83 130 139c0 43 -41 61 -84 61c-39 0 -77 -12 -109 -27l-3 74c43 15 85 25 132 25c82 0 165 -35 165 -122c0 -74 -86 -135 -144 -174l-48 -42h196v-69zM255 -24h-84l423 715h85zM259 266h-99v309l-85 -61l-35 65l134 88h85v-401z" />
    <glyph glyph-name="threequarters" unicode="&#xbe;" horiz-adv-x="1019" 
d="M788 84h-200v79l193 238h104v-248h63v-69h-63v-84h-97v84zM354 -24h-84l423 715h85zM65 280l4 69c35 -13 74 -17 111 -17c43 0 99 14 99 59c0 44 -63 55 -103 55h-54v62h46c41 0 105 12 105 55c0 40 -58 47 -94 47c-35 0 -68 -6 -100 -17l-3 67c40 11 79 17 122 17
c73 0 176 -20 176 -104c0 -51 -35 -84 -86 -96c51 -7 94 -38 94 -89c0 -95 -100 -123 -188 -123c-44 0 -86 3 -129 15zM790 329l-141 -178h141v178z" />
    <glyph glyph-name="perthousand" unicode="&#x2030;" horiz-adv-x="1400" 
d="M1069 6c-65 37 -88 108 -88 189c0 104 42 206 171 206c130 0 174 -102 174 -206s-43 -206 -174 -206c-33 0 -61 6 -83 17zM682 6c-66 36 -90 108 -90 189c0 104 44 206 173 206c131 0 172 -102 172 -206s-41 -206 -172 -206c-33 0 -61 6 -83 17zM337 -24h-85l424 715h84z
M164 282c-66 36 -90 108 -90 189c0 104 44 206 173 206c131 0 172 -102 172 -206s-41 -206 -172 -206c-33 0 -61 6 -83 17zM1092 101c9 -27 27 -45 60 -45c67 0 73 74 73 139c0 69 -9 139 -73 139s-69 -70 -69 -139c0 -32 1 -67 9 -94zM704 101c11 -27 28 -45 61 -45
c66 0 71 74 71 139c0 69 -6 139 -71 139s-72 -70 -72 -139c0 -32 2 -67 11 -94zM187 377c9 -27 27 -45 60 -45c66 0 71 74 71 139c0 69 -6 139 -71 139c-64 0 -71 -70 -71 -139c0 -32 2 -67 11 -94z" />
    <glyph glyph-name="minus" unicode="&#x2212;" horiz-adv-x="588" 
d="M555 206h-521v101h521v-101z" />
    <glyph glyph-name="plusminus" unicode="&#xb1;" horiz-adv-x="588" 
d="M242 275h-208v101h208v166h105v-166h208v-101h-208v-161h-105v161zM555 -29h-521v101h521v-101z" />
    <glyph glyph-name="multiply" unicode="&#xd7;" horiz-adv-x="588" 
d="M295 185l-179 -178l-71 72l178 178l-178 177l71 73l178 -179l179 178l71 -72l-178 -177l178 -178l-71 -72z" />
    <glyph glyph-name="divide" unicode="&#xf7;" horiz-adv-x="588" 
d="M294 375c-39 0 -70 32 -70 71s31 72 70 72s71 -33 71 -72s-32 -71 -71 -71zM555 205h-521v102h521v-102zM294 -5c-39 0 -70 32 -70 71s31 71 70 71s71 -32 71 -71s-32 -71 -71 -71z" />
    <glyph glyph-name="notequal" unicode="&#x2260;" horiz-adv-x="588" 
d="M191 -53l-89 45l55 107h-123v101h174l57 112h-231v102h283l79 153l88 -45l-56 -108h127v-102h-178l-58 -112h236v-101h-287z" />
    <glyph glyph-name="approxequal" unicode="&#x2248;" horiz-adv-x="600" 
d="M98 272h-69c5 77 47 173 139 173c88 0 185 -67 268 -67c43 0 60 30 67 67h69c-5 -77 -47 -171 -138 -171c-88 0 -189 67 -269 67c-39 0 -63 -33 -67 -69zM98 68h-69c5 77 47 172 139 172c88 0 185 -66 268 -66c43 0 60 30 67 67h69c-5 -77 -47 -172 -138 -172
c-88 0 -189 68 -269 68c-39 0 -63 -33 -67 -69z" />
    <glyph glyph-name="lessequal" unicode="&#x2264;" horiz-adv-x="588" 
d="M555 97l-521 179v104l521 171v-107l-380 -117l380 -124v-106zM555 -39h-521v102h521v-102z" />
    <glyph glyph-name="greaterequal" unicode="&#x2265;" horiz-adv-x="588" 
d="M555 276l-521 -179v106l379 124l-379 117v107l521 -171v-104zM555 -39h-521v102h521v-102z" />
    <glyph glyph-name="logicalnot" unicode="&#xac;" horiz-adv-x="600" 
d="M455 312h-415v102h521v-315h-106v213z" />
    <glyph glyph-name="Delta" unicode="&#x2206;" horiz-adv-x="750" 
d="M707 0h-664l266 689h121zM371 575l-183 -477h371z" />
    <glyph glyph-name="Omega" unicode="&#x2126;" horiz-adv-x="750" 
d="M339 0h-280v97h189v51c-120 27 -189 141 -189 259c0 181 150 292 318 292s315 -115 315 -292c0 -115 -70 -235 -190 -259v-51h189v-97h-280v196c107 8 164 102 164 201c0 112 -84 204 -198 204c-116 0 -201 -94 -201 -207c0 -101 59 -190 163 -198v-196z" />
    <glyph glyph-name="mu" unicode="&#xb5;" horiz-adv-x="588" 
d="M199 -216h-137v718h138v-297c0 -60 9 -118 84 -118c80 0 100 67 100 135v280h137v-390c0 -43 1 -79 5 -112h-130l-3 87c-27 -55 -78 -93 -130 -93c-27 0 -49 9 -64 24v-234z" />
    <glyph glyph-name="degree" unicode="&#xb0;" horiz-adv-x="400" 
d="M90 414c-28 28 -46 66 -46 110c0 88 71 153 156 153s156 -65 156 -153s-71 -153 -156 -153c-43 0 -82 16 -110 43zM120 491c14 -30 45 -51 80 -51c46 0 87 37 87 84c0 51 -38 85 -87 85s-87 -34 -87 -85c0 -12 2 -23 7 -33z" />
    <glyph glyph-name="afii61289" unicode="&#x2113;" horiz-adv-x="500" 
d="M248 553v-185c61 68 90 138 90 202c0 41 -18 73 -43 73s-47 -33 -47 -90zM76 139h-2l-42 63l99 85v244c0 111 70 190 165 190c84 0 137 -55 137 -143c0 -101 -60 -199 -185 -310v-122c0 -57 34 -74 65 -74c27 0 57 13 88 38h2l40 -61c-48 -42 -101 -63 -158 -63
c-96 0 -153 56 -153 141v64z" />
    <glyph glyph-name="estimated" unicode="&#x212e;" horiz-adv-x="600" 
d="M157 440v-145h291v145c-42 40 -91 60 -147 60s-104 -20 -144 -60zM157 259v-181c39 -39 88 -59 145 -59c84 0 142 36 193 120l35 -21c-61 -96 -123 -135 -228 -135c-157 0 -258 122 -258 276c0 155 101 276 258 276c154 0 259 -114 259 -276h-404z" />
    <glyph glyph-name="infinity" unicode="&#x221e;" horiz-adv-x="872" 
d="M473 144c-12 14 -24 29 -35 45c-45 -61 -95 -113 -178 -113c-107 0 -179 79 -179 184c0 104 68 182 175 182c84 0 134 -55 179 -119c48 64 92 117 180 117c107 0 178 -76 178 -180c0 -103 -69 -186 -176 -186c-63 0 -105 29 -144 70zM514 284l-24 -30
c31 -42 70 -91 127 -91c53 0 89 43 89 95c0 50 -37 92 -89 92c-37 0 -74 -33 -103 -66zM192 194c17 -18 38 -27 64 -27c56 0 96 54 127 93c-29 39 -73 93 -127 93c-52 0 -89 -43 -89 -94c0 -25 8 -47 25 -65z" />
    <glyph glyph-name="partialdiff" unicode="&#x2202;" horiz-adv-x="600" 
d="M159 588l-57 65c51 44 101 67 169 67c200 0 258 -195 258 -359c0 -154 -44 -374 -241 -374c-132 0 -217 103 -217 231c0 122 83 218 208 218c56 0 102 -23 145 -60c1 15 -1 34 -2 50c-8 85 -35 217 -144 217c-47 0 -87 -20 -119 -55zM201 109c20 -28 49 -48 89 -48
c108 0 129 158 132 238c-33 35 -76 62 -125 62c-85 0 -125 -75 -125 -151c0 -36 9 -73 29 -101z" />
    <glyph glyph-name="integral" unicode="&#x222b;" horiz-adv-x="588" 
d="M117 -215l6 90c15 -6 31 -9 48 -9c60 0 68 58 68 88v653c0 99 30 178 148 178c28 0 59 -1 86 -12l-6 -90c-15 6 -32 9 -49 9c-60 0 -67 -58 -67 -88v-653c0 -99 -30 -178 -148 -178c-28 0 -59 1 -86 12z" />
    <glyph glyph-name="radical" unicode="&#x221a;" horiz-adv-x="600" 
d="M367 -200h-94l-150 320l-51 -24l-39 78l144 65l129 -288l158 849h103z" />
    <glyph glyph-name="summation" unicode="&#x2211;" horiz-adv-x="750" 
d="M690 -200h-622v92l279 416l-263 401v91h591v-100h-457l253 -392l-271 -405h490v-103z" />
    <glyph glyph-name="product" unicode="&#x220f;" horiz-adv-x="750" 
d="M184 -200h-104v1000h591v-1000h-104v898h-383v-898z" />
    <glyph glyph-name="lozenge" unicode="&#x25ca;" horiz-adv-x="600" 
d="M348 0h-97l-180 400l181 400h96l182 -400zM177 400l123 -294l123 294l-123 293z" />
    <glyph glyph-name="uniF8FF" unicode="&#xf8ff;" horiz-adv-x="512" 
d="M269 117h-59v64h59v-64zM263 241h-47v9c0 123 112 131 112 236c0 44 -31 77 -82 77c-33 0 -66 -8 -98 -21l-4 47c33 13 63 20 102 20c79 0 134 -44 134 -124c0 -115 -117 -128 -117 -233v-11zM512 0h-512v718h512v-718zM50 667v-617h412v617h-412z" />
    <glyph glyph-name="pi" unicode="&#x3c0;" horiz-adv-x="657" 
d="M619 96l13 -92c-29 -9 -54 -15 -83 -15c-114 0 -142 69 -142 174v246h-161v-409h-141v409h-93v93h625v-93h-97v-244c0 -42 11 -76 49 -76c11 0 24 4 30 7z" />
    <glyph glyph-name="uni0394" unicode="&#x394;" horiz-adv-x="699" 
d="M701 0h-703l254 667h194zM511 106l-164 467l-163 -467h327z" />
    <glyph glyph-name="uni03A9" unicode="&#x3a9;" horiz-adv-x="750" 
d="M400 0v93c104 42 162 163 162 264c0 135 -63 217 -184 217c-122 0 -191 -84 -191 -217c0 -114 73 -227 170 -264v-93h-321v105h86c14 0 54 -4 67 -7c-85 48 -148 139 -148 259c0 202 145 320 345 320c195 0 324 -131 324 -320c0 -130 -80 -223 -162 -263
c15 4 88 11 98 11h68v-105h-314z" />
    <glyph glyph-name="uni03BC" unicode="&#x3bc;" horiz-adv-x="591" 
d="M568 96l13 -92c-31 -11 -48 -15 -73 -15c-60 0 -95 31 -108 82c-30 -50 -67 -82 -131 -82c-33 0 -58 12 -81 37v-242h-130v718h127v-276c0 -94 38 -135 95 -135c41 0 101 29 101 106v305h127v-337c0 -51 8 -76 31 -76c11 0 18 2 29 7z" />
    <glyph glyph-name="alpha" unicode="&#x3b1;" horiz-adv-x="620" 
d="M597 96l13 -92c-33 -10 -63 -15 -89 -15c-50 0 -101 25 -116 93c-31 -63 -91 -93 -160 -93c-154 0 -211 129 -211 264c0 134 59 259 210 259c63 0 126 -34 151 -93v83h133v-343c0 -52 13 -70 40 -70c10 0 19 2 29 7zM398 252c0 70 -22 163 -109 163
c-90 0 -107 -91 -107 -163s18 -167 108 -167c86 0 108 98 108 167z" />
    <glyph glyph-name="nu" unicode="&#x3bd;" horiz-adv-x="520" 
d="M365 502h140c-10 -130 -85 -354 -163 -502h-176l-160 502h143l113 -397c47 102 96 273 103 397z" />
    <glyph glyph-name="gamma" unicode="&#x3b3;" horiz-adv-x="534" 
d="M359 502h139c0 -179 -78 -377 -192 -516c4 -46 6 -95 6 -146c0 -18 0 -38 -1 -56h-135v76c0 67 -1 119 -7 164c-18 141 -68 318 -154 478h146c53 -106 98 -273 118 -381c49 97 80 246 80 358v23z" />
    <glyph glyph-name="omicron" unicode="&#x3bf;" horiz-adv-x="593" 
d="M560 253c0 -162 -100 -264 -263 -264c-166 0 -263 103 -263 264c0 164 109 259 263 259c162 0 263 -93 263 -259zM412 253c0 77 -25 165 -115 165c-87 0 -115 -89 -115 -165c0 -83 29 -170 115 -170c87 0 115 86 115 170z" />
    <glyph glyph-name="tau" unicode="&#x3c4;" horiz-adv-x="445" 
d="M391 8c-36 -12 -75 -19 -113 -19c-114 0 -139 73 -139 178v242h-127v93h413v-93h-153v-244c0 -42 11 -76 60 -76c19 0 38 4 55 11z" />
    <glyph glyph-name="iota" unicode="&#x3b9;" horiz-adv-x="315" 
d="M287 96l13 -92c-29 -9 -59 -15 -88 -15c-114 0 -142 73 -142 178v335h138v-337c0 -42 11 -76 49 -76c10 0 23 3 30 7z" />
    <glyph glyph-name="eta" unicode="&#x3b7;" horiz-adv-x="585" 
d="M523 -216h-138v509c0 60 -10 120 -84 120c-78 0 -100 -70 -100 -136v-277h-138v390c0 37 -1 75 -5 112h130l2 -84c33 63 93 94 163 94c121 0 170 -72 170 -187v-541z" />
    <glyph glyph-name="kappa" unicode="&#x3ba;" horiz-adv-x="567" 
d="M564 0h-168l-195 255v-255h-139v502h139v-206l182 206h161l-204 -224z" />
    <glyph glyph-name="lambda" unicode="&#x3bb;" horiz-adv-x="572" 
d="M379 549l97 -372c22 -86 39 -88 58 -88c9 0 20 2 26 5l4 -93c-16 -6 -44 -12 -64 -12c-77 0 -117 45 -139 130l-56 221l-137 -340h-151l240 503c-13 69 -35 134 -99 134c-17 0 -36 -5 -55 -13l-6 92c26 9 54 15 92 15c94 0 157 -56 190 -182z" />
    <glyph glyph-name="theta" unicode="&#x3b8;" horiz-adv-x="606" 
d="M566 364c0 -205 -93 -375 -263 -375c-171 0 -263 170 -263 375c0 207 102 367 264 367c172 0 262 -156 262 -367zM305 86c72 0 114 94 118 234h-239c3 -137 43 -234 121 -234zM305 638c-70 0 -111 -94 -120 -220h237c-8 128 -43 220 -117 220z" />
    <glyph glyph-name="rho" unicode="&#x3c1;" horiz-adv-x="585" 
d="M552 251c0 -158 -76 -262 -224 -262c-60 0 -106 26 -137 62v-267h-137v452c0 152 67 276 245 276c183 0 253 -126 253 -261zM404 251c0 93 -32 163 -106 163c-65 0 -114 -66 -114 -150v-20c0 -98 40 -158 108 -158c82 0 112 70 112 165z" />
    <glyph glyph-name="upsilon" unicode="&#x3c5;" horiz-adv-x="564" 
d="M338 502h146c27 -73 42 -150 42 -226c0 -175 -73 -287 -244 -287c-155 0 -228 73 -228 254v259h141v-263c0 -95 14 -155 90 -155c79 0 103 82 103 196c0 74 -19 153 -50 222z" />
    <glyph glyph-name="beta" unicode="&#x3b2;" horiz-adv-x="589" 
d="M508 558c0 -78 -41 -139 -128 -153c96 -20 172 -92 172 -205c0 -73 -45 -211 -213 -211c-69 0 -112 26 -143 62v-267h-138v670c0 182 84 277 229 277c136 0 221 -70 221 -173zM192 487v-233c0 -104 34 -169 110 -169c69 0 105 61 105 129c0 78 -36 131 -156 131h-11v85
h36c61 0 92 43 92 98c0 73 -30 111 -82 111c-60 0 -94 -55 -94 -152z" />
    <glyph glyph-name="epsilon" unicode="&#x3b5;" horiz-adv-x="480" 
d="M368 211h-59c-69 0 -136 -1 -136 -50c0 -55 63 -76 132 -76c43 0 88 7 134 33l5 -98c-39 -20 -88 -31 -167 -31c-134 0 -243 58 -243 152c0 58 39 105 125 119c-68 14 -105 55 -105 110c0 82 102 142 215 142c60 0 101 -6 166 -29l-6 -101c-64 26 -104 35 -149 35
c-60 0 -87 -24 -87 -61c0 -44 60 -54 100 -54h75v-91z" />
    <glyph glyph-name="delta" unicode="&#x3b4;" horiz-adv-x="565" 
d="M392 227c0 88 -48 142 -109 183c-64 -34 -109 -111 -109 -187c0 -109 66 -141 109 -141c53 0 109 40 109 145zM366 480c107 -75 169 -126 169 -256c0 -121 -88 -235 -255 -235c-145 0 -250 95 -250 229c0 103 58 186 190 244c-44 35 -98 79 -99 137c0 29 12 67 68 98
c46 25 104 34 158 34c55 0 93 -7 132 -19l-6 -96c-48 17 -77 21 -119 21c-50 0 -79 -20 -79 -53c0 -39 52 -77 91 -104z" />
    <glyph glyph-name="sigma" unicode="&#x3c3;" horiz-adv-x="617" 
d="M34 242c0 160 115 260 273 260h280v-93h-88c-18 0 -49 4 -60 7c61 -31 116 -84 116 -176c0 -174 -124 -251 -267 -251c-154 0 -254 104 -254 253zM414 248c0 103 -45 158 -111 158c-68 0 -121 -53 -121 -158c0 -118 55 -166 116 -166c71 0 116 72 116 166z" />
    <glyph glyph-name="phi" unicode="&#x3c6;" horiz-adv-x="775" 
d="M453 -216h-129v205c-171 9 -290 110 -290 261c0 149 116 249 290 258v141h129v-142c174 -9 288 -108 288 -258c0 -153 -117 -252 -288 -261v-204zM178 249c0 -128 79 -167 145 -167v336c-79 -1 -145 -53 -145 -169zM597 248c0 116 -64 168 -143 169v-336
c65 0 143 39 143 167z" />
    <glyph glyph-name="omega" unicode="&#x3c9;" horiz-adv-x="802" 
d="M254 -11c-192 0 -220 170 -220 254c0 93 32 187 81 259h140c-69 -93 -87 -189 -87 -261c0 -97 42 -157 97 -157c51 0 70 52 70 150v148h129v-147c0 -99 29 -151 80 -151c58 0 90 62 90 159c0 88 -29 184 -90 259h140c48 -72 84 -158 84 -257c0 -106 -62 -256 -213 -256
c-76 0 -122 12 -154 57c-36 -43 -87 -57 -147 -57z" />
    <glyph glyph-name="zeta" unicode="&#x3b6;" horiz-adv-x="441" 
d="M431 -84c0 -27 -11 -60 -36 -102h-132c16 25 30 47 30 77c0 39 -19 56 -93 98c-50 28 -155 103 -155 238c0 160 135 314 280 403h-235v91h387v-84c-214 -141 -282 -292 -282 -394c0 -78 38 -131 139 -194c84 -52 97 -95 97 -133z" />
    <glyph glyph-name="xi" unicode="&#x3be;" horiz-adv-x="476" 
d="M349 425h77v-103h-76c-97 0 -162 -33 -162 -118c0 -74 75 -108 137 -132c99 -38 140 -82 140 -151c0 -37 -17 -73 -35 -107h-133c16 24 30 50 30 79c0 41 -14 58 -93 92c-85 37 -194 86 -194 211c0 102 61 160 160 177c-64 13 -137 59 -137 166c0 117 81 192 247 192
c53 0 117 -9 161 -23l-8 -97c-42 17 -96 27 -142 27c-69 0 -120 -34 -120 -105c0 -89 69 -108 148 -108z" />
    <glyph glyph-name="psi" unicode="&#x3c8;" horiz-adv-x="765" 
d="M450 649v-569c70 3 130 56 130 187c0 73 -12 166 -36 235h136c24 -70 41 -136 41 -222c0 -176 -121 -279 -271 -291v-205h-131v207c-128 4 -265 70 -265 230v281h138v-280c0 -111 76 -139 127 -139v566h131z" />
    <glyph glyph-name="chi" unicode="&#x3c7;" horiz-adv-x="574" 
d="M573 -216h-154l-136 288l-125 -288h-153l191 363l-179 355h153l118 -272l126 272h140l-180 -351z" />
    <glyph glyph-name="Alpha" unicode="&#x391;" horiz-adv-x="699" 
d="M701 0h-154l-59 167h-284l-60 -167h-146l254 667h194zM457 268l-110 305l-113 -305h223z" />
    <glyph glyph-name="Beta" unicode="&#x392;" horiz-adv-x="626" 
d="M582 188c0 -158 -134 -188 -265 -188h-244v667h272c109 0 220 -37 220 -165c0 -85 -50 -138 -131 -156c84 -14 148 -68 148 -158zM418 484c0 70 -60 92 -120 92h-83v-191h71c66 0 132 21 132 99zM432 194c0 90 -80 106 -153 106h-64v-209h70c68 0 147 20 147 103z" />
    <glyph glyph-name="Gamma" unicode="&#x393;" horiz-adv-x="495" 
d="M485 549h-262v-549h-149v667h411v-118z" />
    <glyph glyph-name="Epsilon" unicode="&#x395;" horiz-adv-x="558" 
d="M517 0h-444v667h435v-102h-290v-175h277v-101h-277v-187h299v-102z" />
    <glyph glyph-name="Zeta" unicode="&#x396;" horiz-adv-x="562" 
d="M536 0h-510v117l340 442h-328v108h489v-118l-334 -441h343v-108z" />
    <glyph glyph-name="Eta" unicode="&#x397;" horiz-adv-x="706" 
d="M634 0h-148v282h-265v-282h-148v667h148v-266h265v266h148v-667z" />
    <glyph glyph-name="Theta" unicode="&#x398;" horiz-adv-x="735" 
d="M695 333c0 -205 -118 -344 -328 -344c-214 0 -327 136 -327 344c0 203 118 344 327 344c213 0 328 -136 328 -344zM540 333c0 111 -40 241 -173 241c-130 0 -172 -133 -172 -241s43 -241 172 -241c133 0 173 130 173 241zM484 281h-231v118h231v-118z" />
    <glyph glyph-name="Iota" unicode="&#x399;" horiz-adv-x="293" 
d="M221 0h-148v667h148v-667z" />
    <glyph glyph-name="Kappa" unicode="&#x39a;" horiz-adv-x="663" 
d="M661 0h-185l-255 318v-318h-148v667h148v-288l241 288h175l-281 -312z" />
    <glyph glyph-name="Lambda" unicode="&#x39b;" horiz-adv-x="699" 
d="M542 0l-195 573l-198 -573h-151l254 667h194l255 -667h-159z" />
    <glyph glyph-name="Mu" unicode="&#x39c;" horiz-adv-x="935" 
d="M863 0h-137v572l-196 -572h-130l-196 572v-572h-131v667h221l175 -507l173 507h221v-667z" />
    <glyph glyph-name="Nu" unicode="&#x39d;" horiz-adv-x="739" 
d="M667 0h-217l-246 545v-545h-131v667h216l247 -546v546h131v-667z" />
    <glyph glyph-name="Xi" unicode="&#x39e;" horiz-adv-x="598" 
d="M118 399h359v-110h-359v110zM57 114h485v-114h-485v114zM58 558v109h483v-109h-483z" />
    <glyph glyph-name="Omicron" unicode="&#x39f;" horiz-adv-x="735" 
d="M695 333c0 -205 -118 -344 -328 -344c-214 0 -327 136 -327 344c0 203 118 344 327 344c213 0 328 -136 328 -344zM540 333c0 111 -40 241 -173 241c-130 0 -172 -133 -172 -241s43 -241 172 -241c133 0 173 130 173 241z" />
    <glyph glyph-name="Pi" unicode="&#x3a0;" horiz-adv-x="704" 
d="M632 0h-144v549h-267v-549h-148v667h559v-667z" />
    <glyph glyph-name="Rho" unicode="&#x3a1;" horiz-adv-x="603" 
d="M576 462c0 -155 -126 -216 -266 -216h-92v-246h-145v667h236c141 0 267 -54 267 -205zM427 461c0 79 -56 107 -149 107h-61v-222h52c81 0 158 14 158 115z" />
    <glyph glyph-name="Tau" unicode="&#x3a4;" horiz-adv-x="587" 
d="M577 549h-209v-549h-149v549h-209v118h567v-118z" />
    <glyph glyph-name="Upsilon" unicode="&#x3a5;" horiz-adv-x="629" 
d="M637 667l-250 -418v-249h-148v249l-246 418h162l164 -308l162 308h156z" />
    <glyph glyph-name="Chi" unicode="&#x3a7;" horiz-adv-x="679" 
d="M678 0h-175l-168 270l-171 -270h-162l244 347l-218 320h169l153 -244l151 244h157l-222 -320z" />
    <glyph glyph-name="Phi" unicode="&#x3a6;" horiz-adv-x="840" 
d="M490 648v1c183 -6 327 -93 327 -285c0 -202 -160 -272 -327 -280v-84h-140v84c-167 7 -327 77 -327 279c0 192 144 279 327 285v73h140v-73zM174 363c0 -102 67 -178 176 -183v373c-135 -5 -176 -99 -176 -190zM666 364c0 91 -41 185 -176 190v-373c109 5 176 81 176 183
z" />
    <glyph glyph-name="Sigma" unicode="&#x3a3;" horiz-adv-x="562" 
d="M524 0h-498v106l228 244l-219 194v123h489v-113h-319l214 -200l-215 -239h320v-115z" />
    <glyph glyph-name="Psi" unicode="&#x3a8;" horiz-adv-x="772" 
d="M45 667h138v-210c0 -107 44 -153 135 -155v365h140v-365c102 1 131 57 131 152v213h138v-213c0 -142 -98 -243 -269 -253v-201h-140v201c-175 3 -273 98 -273 249v217z" />
    <glyph glyph-name="sigma1" unicode="&#x3c2;" horiz-adv-x="458" 
d="M438 494l-6 -98c-40 17 -69 22 -104 22c-101 0 -155 -77 -155 -171c0 -109 80 -151 135 -177c106 -50 124 -88 124 -142c0 -43 -16 -82 -36 -114h-132c17 26 30 46 30 82s-21 63 -84 90c-99 42 -184 113 -184 253c0 136 91 273 290 273c35 0 88 -6 122 -18z" />
    <glyph glyph-name="tonos" unicode="&#x384;" horiz-adv-x="263" 
d="M278 719l-87 -147h-85l34 147h138z" />
    <glyph glyph-name="anoteleia" unicode="&#x387;" horiz-adv-x="294" 
d="M214 382h-134v120h134v-120z" />
    <glyph glyph-name="afii00208" unicode="&#x2015;" horiz-adv-x="1000" 
d="M1000 265h-1000v90h1000v-90z" />
    <glyph glyph-name="dieresistonos" unicode="&#x385;" horiz-adv-x="263" 
d="M277 719l-87 -145h-78l48 145h117zM408 595h-107v111h107v-111zM89 595h-107v111h107v-111z" />
    <glyph glyph-name="cyrbreve" unicode="&#xe01f;" horiz-adv-x="263" 
d="M132 577c-99 0 -151 62 -169 119l62 36c17 -35 45 -68 107 -68c60 0 89 35 107 68l62 -36c-17 -55 -72 -119 -169 -119z" />
    <glyph glyph-name="cyrbreve.cap" unicode="&#xe020;" horiz-adv-x="263" 
d="M132 717c-99 0 -151 62 -169 119l62 36c17 -35 45 -68 107 -68c60 0 89 35 107 68l62 -36c-17 -55 -72 -119 -169 -119z" />
    <glyph glyph-name="afii10055" unicode="&#x406;" horiz-adv-x="293" 
d="M221 0h-148v667h148v-667z" />
    <glyph glyph-name="afii10103" unicode="&#x456;" horiz-adv-x="263" 
d="M201 0h-138v502h138v-502zM201 595h-138v111h138v-111z" />
    <glyph glyph-name="afii10057" unicode="&#x408;" horiz-adv-x="375" 
d="M5 5l5 109c19 -9 36 -11 56 -11c68 0 96 47 96 108v456h148v-478c0 -125 -70 -200 -195 -200c-39 0 -75 5 -110 16z" />
    <glyph glyph-name="afii10105" unicode="&#x458;" horiz-adv-x="268" 
d="M-34 -218l6 97c11 -4 23 -6 36 -6c50 0 60 40 60 82v547h138v-561c0 -95 -38 -168 -143 -168c-33 0 -66 2 -97 9zM206 595h-138v111h138v-111z" />
    <glyph glyph-name="afii10098" unicode="&#x491;" horiz-adv-x="426" 
d="M61 0v502h238v131h118v-224h-218v-409h-138z" />
    <glyph glyph-name="afii10054" unicode="&#x405;" horiz-adv-x="551" 
d="M58 16l7 117c61 -27 119 -38 168 -38c52 0 117 19 117 87c0 47 -37 72 -112 103l-54 23c-68 29 -127 75 -127 171c0 153 146 198 255 198c60 0 117 -6 157 -21l-5 -115c-47 20 -95 29 -142 29c-51 0 -116 -16 -116 -80c0 -44 44 -67 96 -88l44 -18
c88 -35 158 -81 158 -188c0 -159 -143 -207 -260 -207c-61 0 -118 6 -186 27z" />
    <glyph glyph-name="afii10102" unicode="&#x455;" horiz-adv-x="446" 
d="M44 13l6 105c44 -23 91 -34 138 -34c53 0 87 15 87 58c0 86 -234 55 -234 218c0 113 115 153 207 153c49 0 99 -8 138 -19l-6 -100c-40 16 -81 24 -124 24c-35 0 -82 -8 -82 -51c0 -79 232 -41 232 -215c0 -121 -109 -163 -210 -163c-57 0 -104 7 -152 24z" />
    <glyph glyph-name="afii10104" unicode="&#x457;" horiz-adv-x="263" 
d="M201 0h-138v502h138v-502zM89 595h-107v111h107v-111zM281 595h-107v111h107v-111z" />
    <glyph glyph-name="afii10145" unicode="&#x40f;" horiz-adv-x="702" 
d="M283 -163v163h-211v667h148v-560h261v560h148v-667h-211v-163h-135z" />
    <glyph glyph-name="afii10193" unicode="&#x45f;" horiz-adv-x="585" 
d="M230 -138v138h-168v502h138v-409h185v409h138v-502h-171v-138h-122z" />
    <glyph glyph-name="afii10058" unicode="&#x409;" horiz-adv-x="1019" 
d="M107 -7c-43 0 -78 5 -105 15l5 105c15 -6 38 -9 55 -9c93 0 104 149 107 563h463v-245h120c142 0 238 -71 238 -211c0 -139 -87 -211 -239 -211h-267v559h-176c-2 -360 -19 -566 -201 -566zM629 96h75c79 0 136 29 136 119c0 77 -50 110 -132 110h-79v-229z" />
    <glyph glyph-name="afii10106" unicode="&#x459;" horiz-adv-x="861" 
d="M82 -8c-25 0 -69 4 -86 9l6 92c7 -4 27 -5 39 -5c68 0 84 90 86 414h401v-175h123c98 0 186 -45 186 -161c0 -122 -92 -166 -195 -166h-252v409h-134c-2 -241 -15 -417 -174 -417zM528 86h85c59 0 90 29 90 81c0 49 -32 75 -94 75h-81v-156z" />
    <glyph glyph-name="afii10059" unicode="&#x40a;" horiz-adv-x="1005" 
d="M73 0v667h148v-263h250v263h148v-263h132c123 0 225 -62 225 -203c0 -144 -95 -201 -222 -201h-283v303h-250v-303h-148zM615 100h98c71 0 115 33 115 105c0 90 -66 98 -145 98h-68v-203z" />
    <glyph glyph-name="afii10107" unicode="&#x45a;" horiz-adv-x="850" 
d="M62 0v502h138v-183h179v183h138v-183h128c97 0 181 -46 181 -157c0 -118 -85 -162 -185 -162h-262v233h-179v-233h-138zM517 86h90c58 0 86 25 86 76c0 49 -29 71 -91 71h-85v-147z" />
    <glyph glyph-name="afii10053" unicode="&#x404;" horiz-adv-x="601" 
d="M394 -10c-215 0 -354 127 -354 347c0 212 154 340 364 340c67 0 118 -11 167 -24l-7 -104c-42 18 -92 25 -136 25c-135 0 -208 -74 -229 -181h278v-102h-280c15 -115 90 -197 226 -197c45 0 99 6 142 25l6 -103c-40 -17 -125 -26 -177 -26z" />
    <glyph glyph-name="afii10101" unicode="&#x454;" horiz-adv-x="479" 
d="M307 -10c-171 0 -273 102 -273 266c0 160 109 256 273 256c52 0 101 -5 145 -19l-5 -93c-35 16 -64 23 -104 23c-86 0 -140 -47 -158 -116h201v-93h-205c13 -77 74 -136 162 -136c39 0 73 8 107 25l7 -91c-49 -17 -91 -22 -150 -22z" />
    <glyph glyph-name="afii61352" unicode="&#x2116;" horiz-adv-x="1095" 
d="M73 0v667h188l245 -529v529h133v-667h-193l-241 519v-519h-132zM720 101v79h326v-79h-326zM879 228c-102 0 -163 69 -163 181c0 116 66 190 169 190c104 0 164 -66 164 -180c0 -123 -63 -191 -170 -191zM884 300c49 0 66 46 66 117c0 69 -15 108 -65 108
c-61 0 -70 -59 -70 -116c0 -62 9 -109 69 -109z" />
    <glyph glyph-name="afii10060" unicode="&#x40b;" horiz-adv-x="773" 
d="M167 0v559h-157v108h547v-108h-241v-200c37 60 116 91 188 91c125 0 208 -70 208 -201v-249h-149v217c0 88 -52 131 -120 131c-65 0 -127 -49 -127 -126v-222h-149z" />
    <glyph glyph-name="afii10051" unicode="&#x402;" horiz-adv-x="773" 
d="M505 -11c-48 0 -90 4 -134 18l6 102c19 -9 48 -16 79 -16c72 0 117 48 117 131s-52 124 -125 124c-70 0 -132 -52 -132 -136v-212h-149v559h-157v108h547v-108h-241v-200c37 60 119 91 191 91c124 0 222 -68 222 -214c0 -158 -90 -247 -224 -247z" />
    <glyph glyph-name="afii10108" unicode="&#x45b;" horiz-adv-x="585" 
d="M201 0h-138v582h-80v72h80v67h138v-67h150v-72h-150v-163c31 63 85 93 154 93c118 0 168 -71 168 -186v-326h-138v294c0 60 -9 119 -84 119c-76 0 -100 -70 -100 -135v-278z" />
    <glyph glyph-name="afii10099" unicode="&#x452;" horiz-adv-x="585" 
d="M332 -223c-36 0 -76 6 -109 16l7 92c16 -5 38 -8 51 -8c73 0 104 46 104 127v290c0 60 -9 119 -84 119c-76 0 -100 -70 -100 -135v-278h-138v582h-80v72h80v67h138v-67h150v-72h-150v-163c31 63 85 93 154 93c118 0 168 -71 168 -186v-305c0 -136 -26 -244 -191 -244z
" />
    <glyph glyph-name="Aringacute" unicode="&#x1fa;" horiz-adv-x="699" 
d="M547 0l-64 167h-275l-64 -167h-146l248 607h15c-8 14 -13 31 -13 49c0 56 45 100 101 100c55 0 101 -44 101 -100c0 -18 -5 -35 -14 -49h15l250 -607h-154zM347 526l-100 -258h198zM385 782h-102l99 100h146zM295 656c0 -30 24 -53 54 -53s54 23 54 53s-24 54 -54 54
c-31 0 -54 -24 -54 -54z" />
    <glyph glyph-name="eng" unicode="&#x14b;" horiz-adv-x="585" 
d="M385 -50v343c0 60 -10 120 -84 120c-78 0 -100 -70 -100 -136v-277h-138v390c0 37 0 75 -4 112h129l2 -84c33 63 92 94 163 94c121 0 170 -72 170 -187v-383c0 -113 -56 -169 -164 -169c-29 0 -54 6 -73 12l6 95c9 -4 20 -7 32 -7c39 0 61 21 61 77z" />
    <glyph glyph-name="Eng" unicode="&#x14a;" horiz-adv-x="733" 
d="M478 -227c-27 0 -58 6 -78 13l6 99c12 -5 28 -8 41 -8c56 0 83 25 83 80v15l-326 573v-545h-131v667h206l251 -444v444h131v-679c0 -149 -55 -215 -183 -215z" />
    <glyph glyph-name="interrobang" unicode="&#x203d;" horiz-adv-x="466" 
d="M250 192h-116l-9 329h108l-6 -193c8 17 21 36 44 64c34 41 49 63 49 104c0 58 -45 93 -142 93c-47 0 -99 -10 -142 -27l-6 86c56 18 108 29 175 29c119 0 229 -50 229 -166c0 -150 -184 -168 -184 -304v-15zM259 0h-134v120h134v-120z" />
    <glyph glyph-name="published" unicode="&#x2117;" horiz-adv-x="773" 
d="M386 -11c-191 0 -344 155 -344 345c0 189 154 343 344 343s344 -154 344 -343c0 -190 -154 -345 -344 -345zM116 334c0 -151 120 -278 270 -278c151 0 270 127 270 278c0 150 -119 276 -270 276c-150 0 -270 -125 -270 -276zM353 155h-85v357h155c90 0 138 -41 138 -112
c0 -76 -55 -115 -142 -115h-66v-130zM352 456v-115h47c52 0 76 18 76 59c0 35 -22 56 -68 56h-55z" />
    <glyph glyph-name="afii61248" unicode="&#x2105;" horiz-adv-x="1110" 
d="M386 362l5 -81c-38 -12 -76 -16 -114 -16c-136 0 -223 79 -223 208c0 128 95 204 222 204c39 0 75 -3 111 -15l-4 -81c-24 11 -50 19 -79 19c-79 0 -129 -52 -129 -127c0 -72 48 -131 129 -131c32 0 55 6 82 20zM352 -24h-86l473 715h86zM843 -11
c-127 0 -213 73 -213 208c0 129 90 204 213 204c131 0 213 -72 213 -204c0 -131 -87 -208 -213 -208zM843 66c65 0 91 55 91 131c0 71 -24 127 -91 127c-65 0 -91 -57 -91 -127c0 -76 25 -131 91 -131z" />
    <glyph glyph-name="uni0374" unicode="&#x374;" horiz-adv-x="224" 
d="M216 721l-77 -207h-96l43 207h130z" />
    <glyph glyph-name="uni0375" unicode="&#x375;" horiz-adv-x="223" 
d="M8 -128l77 206h96l-43 -206h-130z" />
    <glyph glyph-name="kgreenlandic" unicode="&#x138;" horiz-adv-x="567" 
d="M201 0h-138v502h138v-206l182 206h161l-204 -224l224 -278h-168l-195 255v-255z" />
    <glyph glyph-name="onethird" unicode="&#x2153;" horiz-adv-x="980" 
d="M284 268h-99v306l-92 -63l-35 68l141 92h85v-403zM275 -24h-81l424 715h81zM580 9l3 67c32 -11 73 -17 110 -17c51 0 97 18 97 62s-52 57 -103 57h-52v61h43c59 0 107 12 107 55c0 37 -47 49 -90 49c-32 0 -71 -6 -102 -17l-3 66c35 11 79 17 120 17
c75 0 175 -21 175 -107c0 -51 -31 -80 -78 -92c47 -9 85 -41 85 -89c0 -99 -99 -128 -187 -128c-43 0 -85 4 -125 16z" />
    <glyph glyph-name="oneeighth" unicode="&#x215b;" horiz-adv-x="980" 
d="M284 268h-99v306l-92 -63l-35 68l141 92h85v-403zM277 -24h-81l424 715h81zM787 162c-13 11 -31 20 -54 25c-45 -8 -74 -33 -74 -70s31 -62 74 -62s74 24 74 63c0 18 -7 33 -20 44zM686 256c13 -10 29 -17 48 -20c35 7 65 29 65 61c0 35 -31 54 -66 54s-66 -21 -66 -54
c0 -17 6 -31 19 -41zM584 174c15 15 36 27 63 35c-47 15 -76 41 -76 92c0 77 97 108 162 108c69 0 162 -24 162 -107c0 -49 -33 -77 -78 -93c56 -15 89 -42 89 -102c0 -86 -98 -114 -173 -114c-77 0 -172 28 -172 113c0 30 8 53 23 68z" />
    <glyph glyph-name="twothirds" unicode="&#x2154;" horiz-adv-x="980" 
d="M346 268h-309v73l78 57c71 51 123 99 123 151c0 37 -31 56 -76 56s-80 -11 -111 -24l-3 72c43 13 85 24 130 24c80 0 164 -31 164 -120c0 -72 -57 -126 -129 -179l-55 -41h188v-69zM325 -24h-81l424 715h81zM630 9l3 67c32 -11 73 -17 110 -17c51 0 97 18 97 62
s-52 57 -103 57h-52v61h43c59 0 107 12 107 55c0 37 -47 49 -90 49c-32 0 -71 -6 -102 -17l-3 66c35 11 79 17 120 17c75 0 175 -21 175 -107c0 -51 -31 -80 -78 -92c47 -9 85 -41 85 -89c0 -99 -99 -128 -187 -128c-43 0 -85 4 -125 16z" />
    <glyph glyph-name="threeeighths" unicode="&#x215c;" horiz-adv-x="980" 
d="M49 277l3 67c32 -11 73 -17 110 -17c51 0 97 18 97 62s-52 57 -103 57h-52v61h43c59 0 107 12 107 55c0 37 -47 49 -90 49c-32 0 -71 -6 -102 -17l-3 66c35 11 79 17 120 17c75 0 175 -21 175 -107c0 -51 -31 -80 -78 -92c47 -9 85 -41 85 -89c0 -99 -99 -128 -187 -128
c-43 0 -85 4 -125 16zM303 -24h-81l424 715h81zM807 162c-13 11 -31 20 -54 25c-45 -8 -74 -33 -74 -70s31 -62 74 -62s74 24 74 63c0 18 -7 33 -20 44zM706 256c13 -10 29 -17 48 -20c35 7 65 29 65 61c0 35 -31 54 -66 54s-66 -21 -66 -54c0 -17 6 -31 19 -41zM604 174
c15 15 36 27 63 35c-47 15 -76 41 -76 92c0 77 97 108 162 108c69 0 162 -24 162 -107c0 -49 -33 -77 -78 -93c56 -15 89 -42 89 -102c0 -86 -98 -114 -173 -114c-77 0 -172 28 -172 113c0 30 8 53 23 68z" />
    <glyph glyph-name="fiveeighths" unicode="&#x215d;" horiz-adv-x="980" 
d="M71 277l3 68c30 -9 61 -14 92 -14c48 0 106 16 106 67s-55 65 -102 65c-29 0 -57 -3 -88 -11l5 219h268v-67h-180l-2 -92c16 4 31 5 46 5c79 0 156 -26 156 -117c0 -98 -98 -139 -187 -139c-48 0 -81 5 -117 16zM303 -24h-81l424 715h81zM807 162c-13 11 -31 20 -54 25
c-45 -8 -74 -33 -74 -70s31 -62 74 -62s74 24 74 63c0 18 -7 33 -20 44zM706 256c13 -10 29 -17 48 -20c35 7 65 29 65 61c0 35 -31 54 -66 54s-66 -21 -66 -54c0 -17 6 -31 19 -41zM604 174c15 15 36 27 63 35c-47 15 -76 41 -76 92c0 77 97 108 162 108
c69 0 162 -24 162 -107c0 -49 -33 -77 -78 -93c56 -15 89 -42 89 -102c0 -86 -98 -114 -173 -114c-77 0 -172 28 -172 113c0 30 8 53 23 68z" />
    <glyph glyph-name="seveneighths" unicode="&#x215e;" horiz-adv-x="980" 
d="M242 268h-117l176 326h-212v77h312v-76zM285 -24h-81l424 715h81zM789 162c-13 11 -31 20 -54 25c-45 -8 -74 -33 -74 -70s31 -62 74 -62s74 24 74 63c0 18 -7 33 -20 44zM688 256c13 -10 29 -17 48 -20c35 7 65 29 65 61c0 35 -31 54 -66 54s-66 -21 -66 -54
c0 -17 6 -31 19 -41zM586 174c15 15 36 27 63 35c-47 15 -76 41 -76 92c0 77 97 108 162 108c69 0 162 -24 162 -107c0 -49 -33 -77 -78 -93c56 -15 89 -42 89 -102c0 -86 -98 -114 -173 -114c-77 0 -172 28 -172 113c0 30 8 53 23 68z" />
    <glyph glyph-name="uni2010" unicode="&#x2010;" horiz-adv-x="333" 
d="M293 258h-252v104h252v-104z" />
    <glyph glyph-name="tonos.cap" unicode="&#xe01b;" horiz-adv-x="225" 
d="M240 667l-87 -147h-85l34 147h138z" />
    <glyph glyph-name="Agrave" unicode="&#xc0;" horiz-adv-x="699" 
d="M144 0h-146l254 667h194l255 -667h-154l-59 167h-284zM347 573l-113 -305h223zM411 724h-98l-112 136h138z" />
    <glyph glyph-name="Aacute" unicode="&#xc1;" horiz-adv-x="699" 
d="M144 0h-146l254 667h194l255 -667h-154l-59 167h-284zM347 573l-113 -305h223zM394 724h-99l72 136h138z" />
    <glyph glyph-name="Acircumflex" unicode="&#xc2;" horiz-adv-x="699" 
d="M144 0h-146l254 667h194l255 -667h-154l-59 167h-284zM347 573l-113 -305h223zM278 724h-93l103 136h117l103 -136h-94l-68 86z" />
    <glyph glyph-name="Atilde" unicode="&#xc3;" horiz-adv-x="699" 
d="M144 0h-146l254 667h194l255 -667h-154l-59 167h-284zM347 573l-113 -305h223zM243 730h-64c3 56 34 119 100 119c53 0 100 -39 137 -39c25 0 37 20 40 41h65c-3 -56 -40 -118 -103 -118c-55 0 -90 38 -132 38c-23 0 -43 -21 -43 -41z" />
    <glyph glyph-name="Adieresis" unicode="&#xc4;" horiz-adv-x="699" 
d="M144 0h-146l254 667h194l255 -667h-154l-59 167h-284zM347 573l-113 -305h223zM307 736h-107v111h107v-111zM499 736h-107v111h107v-111z" />
    <glyph glyph-name="Amacron" unicode="&#x100;" horiz-adv-x="699" 
d="M144 0h-146l254 667h194l255 -667h-154l-59 167h-284zM347 573l-113 -305h223zM500 757h-304v70h304v-70z" />
    <glyph glyph-name="Abreve" unicode="&#x102;" horiz-adv-x="699" 
d="M144 0h-146l254 667h194l255 -667h-154l-59 167h-284zM347 573l-113 -305h223zM203 857h67c3 -35 30 -64 79 -64s75 29 78 64h68c0 -58 -50 -132 -146 -132c-97 0 -146 74 -146 132z" />
    <glyph glyph-name="Aring" unicode="&#xc5;" horiz-adv-x="699" 
d="M144 0h-146l254 667h194l255 -667h-154l-59 167h-284zM347 573l-113 -305h223zM292 792c0 -31 25 -54 54 -54c31 0 54 23 54 54c0 29 -23 53 -54 53s-54 -24 -54 -53zM275 720c-19 19 -30 44 -30 72c0 56 45 99 101 99c55 0 101 -43 101 -99c0 -55 -46 -100 -101 -100
c-28 0 -52 11 -71 28z" />
    <glyph glyph-name="Cacute" unicode="&#x106;" horiz-adv-x="603" 
d="M568 125l6 -108c-51 -20 -113 -28 -169 -28c-215 0 -365 123 -365 344c0 208 161 344 365 344c53 0 116 -9 167 -24l-6 -111c-41 17 -93 27 -138 27c-141 0 -233 -97 -233 -236c0 -143 85 -236 230 -236c49 0 98 8 143 28zM420 724h-99l72 136h138z" />
    <glyph glyph-name="Ccircumflex" unicode="&#x108;" horiz-adv-x="603" 
d="M568 125l6 -108c-51 -20 -113 -28 -169 -28c-215 0 -365 123 -365 344c0 208 161 344 365 344c53 0 116 -9 167 -24l-6 -111c-41 17 -93 27 -138 27c-141 0 -233 -97 -233 -236c0 -143 85 -236 230 -236c49 0 98 8 143 28zM313 724h-93l103 136h117l103 -136h-94l-68 86z
" />
    <glyph glyph-name="Ccaron" unicode="&#x10c;" horiz-adv-x="603" 
d="M568 125l6 -108c-51 -20 -113 -28 -169 -28c-215 0 -365 123 -365 344c0 208 161 344 365 344c53 0 116 -9 167 -24l-6 -111c-41 17 -93 27 -138 27c-141 0 -233 -97 -233 -236c0 -143 85 -236 230 -236c49 0 98 8 143 28zM443 724h-117l-103 136h94l68 -86l68 86h93z
" />
    <glyph glyph-name="Cdotaccent" unicode="&#x10a;" horiz-adv-x="603" 
d="M568 125l6 -108c-51 -20 -113 -28 -169 -28c-215 0 -365 123 -365 344c0 208 161 344 365 344c53 0 116 -9 167 -24l-6 -111c-41 17 -93 27 -138 27c-141 0 -233 -97 -233 -236c0 -143 85 -236 230 -236c49 0 98 8 143 28zM445 736h-122v111h122v-111z" />
    <glyph glyph-name="Dcaron" unicode="&#x10e;" horiz-adv-x="700" 
d="M221 565v-463h47c157 0 237 88 237 241c0 140 -79 222 -220 222h-64zM289 0h-216v667h234c216 0 353 -104 353 -324c0 -228 -153 -343 -371 -343zM367 724h-117l-103 136h94l68 -86l68 86h93z" />
    <glyph glyph-name="Egrave" unicode="&#xc8;" horiz-adv-x="558" 
d="M517 0h-444v667h435v-102h-290v-175h277v-101h-277v-187h299v-102zM360 724h-98l-112 136h138z" />
    <glyph glyph-name="Eacute" unicode="&#xc9;" horiz-adv-x="558" 
d="M517 0h-444v667h435v-102h-290v-175h277v-101h-277v-187h299v-102zM319 724h-99l72 136h138z" />
    <glyph glyph-name="Ecircumflex" unicode="&#xca;" horiz-adv-x="558" 
d="M517 0h-444v667h435v-102h-290v-175h277v-101h-277v-187h299v-102zM221 724h-93l103 136h117l103 -136h-94l-68 86z" />
    <glyph glyph-name="Ecaron" unicode="&#x11a;" horiz-adv-x="558" 
d="M517 0h-444v667h435v-102h-290v-175h277v-101h-277v-187h299v-102zM348 724h-117l-103 136h94l68 -86l68 86h93z" />
    <glyph glyph-name="Edieresis" unicode="&#xcb;" horiz-adv-x="558" 
d="M517 0h-444v667h435v-102h-290v-175h277v-101h-277v-187h299v-102zM249 736h-107v111h107v-111zM441 736h-107v111h107v-111z" />
    <glyph glyph-name="Emacron" unicode="&#x112;" horiz-adv-x="558" 
d="M517 0h-444v667h435v-102h-290v-175h277v-101h-277v-187h299v-102zM441 757h-304v70h304v-70z" />
    <glyph glyph-name="Ebreve" unicode="&#x114;" horiz-adv-x="558" 
d="M517 0h-444v667h435v-102h-290v-175h277v-101h-277v-187h299v-102zM143 857h67c3 -35 30 -64 79 -64s75 29 78 64h68c0 -58 -50 -132 -146 -132c-97 0 -146 74 -146 132z" />
    <glyph glyph-name="Edotaccent" unicode="&#x116;" horiz-adv-x="558" 
d="M517 0h-444v667h435v-102h-290v-175h277v-101h-277v-187h299v-102zM351 736h-122v111h122v-111z" />
    <glyph glyph-name="Gcircumflex" unicode="&#x11c;" horiz-adv-x="697" 
d="M501 274h-130v97h261v-344c-64 -28 -151 -38 -218 -38c-213 0 -374 118 -374 344c0 219 181 344 386 344c68 0 135 -9 194 -30l-6 -112c-51 25 -109 37 -168 37c-147 0 -251 -87 -251 -239c0 -139 75 -239 224 -239c31 0 59 3 82 10v170zM330 724h-93l103 136h117
l103 -136h-94l-68 86z" />
    <glyph glyph-name="Gbreve" unicode="&#x11e;" horiz-adv-x="697" 
d="M501 274h-130v97h261v-344c-64 -28 -151 -38 -218 -38c-213 0 -374 118 -374 344c0 219 181 344 386 344c68 0 135 -9 194 -30l-6 -112c-51 25 -109 37 -168 37c-147 0 -251 -87 -251 -239c0 -139 75 -239 224 -239c31 0 59 3 82 10v170zM253 857h67c3 -35 30 -64 79 -64
s75 29 78 64h68c0 -58 -50 -132 -146 -132c-97 0 -146 74 -146 132z" />
    <glyph glyph-name="Gdotaccent" unicode="&#x120;" horiz-adv-x="697" 
d="M501 274h-130v97h261v-344c-64 -28 -151 -38 -218 -38c-213 0 -374 118 -374 344c0 219 181 344 386 344c68 0 135 -9 194 -30l-6 -112c-51 25 -109 37 -168 37c-147 0 -251 -87 -251 -239c0 -139 75 -239 224 -239c31 0 59 3 82 10v170zM458 736h-122v111h122v-111z" />
    <glyph glyph-name="Gcommaaccent" unicode="&#x122;" horiz-adv-x="697" 
d="M501 274h-130v97h261v-344c-64 -28 -151 -38 -218 -38c-213 0 -374 118 -374 344c0 219 181 344 386 344c68 0 135 -9 194 -30l-6 -112c-51 25 -109 37 -168 37c-147 0 -251 -87 -251 -239c0 -139 75 -239 224 -239c31 0 59 3 82 10v170zM369 -227h-86l41 159h119z" />
    <glyph glyph-name="Hcircumflex" unicode="&#x124;" horiz-adv-x="706" 
d="M221 0h-148v667h148v-266h265v266h148v-667h-148v282h-265v-282zM287 724h-93l103 136h117l103 -136h-94l-68 86z" />
    <glyph glyph-name="Igrave" unicode="&#xcc;" horiz-adv-x="293" 
d="M221 0h-148v667h148v-667zM208 724h-98l-112 136h138z" />
    <glyph glyph-name="Iacute" unicode="&#xcd;" horiz-adv-x="293" 
d="M221 0h-148v667h148v-667zM185 724h-99l72 136h138z" />
    <glyph glyph-name="Icircumflex" unicode="&#xce;" horiz-adv-x="293" 
d="M221 0h-148v667h148v-667zM78 724h-93l103 136h117l103 -136h-94l-68 86z" />
    <glyph glyph-name="Itilde" unicode="&#x128;" horiz-adv-x="293" 
d="M221 0h-148v667h148v-667zM40 730h-64c3 56 34 119 100 119c53 0 100 -39 137 -39c25 0 37 20 40 41h65c-3 -56 -40 -118 -103 -118c-55 0 -90 38 -132 38c-23 0 -43 -21 -43 -41z" />
    <glyph glyph-name="Idieresis" unicode="&#xcf;" horiz-adv-x="293" 
d="M221 0h-148v667h148v-667zM104 736h-107v111h107v-111zM296 736h-107v111h107v-111z" />
    <glyph glyph-name="Imacron" unicode="&#x12a;" horiz-adv-x="293" 
d="M221 0h-148v667h148v-667zM299 757h-304v70h304v-70z" />
    <glyph glyph-name="Idotaccent" unicode="&#x130;" horiz-adv-x="293" 
d="M221 0h-148v667h148v-667zM208 736h-122v111h122v-111z" />
    <glyph glyph-name="Jcircumflex" unicode="&#x134;" horiz-adv-x="375" 
d="M5 5l5 109c19 -9 36 -11 56 -11c68 0 96 47 96 108v456h148v-478c0 -125 -70 -200 -195 -200c-39 0 -75 5 -110 16zM163 724h-93l103 136h117l103 -136h-94l-68 86z" />
    <glyph glyph-name="Kcommaaccent" unicode="&#x136;" horiz-adv-x="663" 
d="M221 0h-148v667h148v-288l241 288h175l-281 -312l305 -355h-185l-255 318v-318zM332 -227h-86l41 159h119z" />
    <glyph glyph-name="Lacute" unicode="&#x139;" horiz-adv-x="526" 
d="M508 0h-435v667h148v-549h287v-118zM201 724h-99l72 136h138z" />
    <glyph glyph-name="Lcaron" unicode="&#x13d;" horiz-adv-x="526" 
d="M508 0h-435v667h148v-549h287v-118zM388 557h-84l19 162h109z" />
    <glyph glyph-name="Lcommaaccent" unicode="&#x13b;" horiz-adv-x="526" 
d="M508 0h-435v667h148v-549h287v-118zM277 -227h-86l41 159h119z" />
    <glyph glyph-name="Ldot" unicode="&#x13f;" horiz-adv-x="526" 
d="M508 0h-435v667h148v-549h287v-118zM474 292h-138v111h138v-111z" />
    <glyph glyph-name="Nacute" unicode="&#x143;" horiz-adv-x="739" 
d="M204 0h-131v667h216l247 -546v546h131v-667h-217l-246 545v-545zM413 724h-99l72 136h138z" />
    <glyph glyph-name="Ncaron" unicode="&#x147;" horiz-adv-x="739" 
d="M204 0h-131v667h216l247 -546v546h131v-667h-217l-246 545v-545zM436 724h-117l-103 136h94l68 -86l68 86h93z" />
    <glyph glyph-name="Ntilde" unicode="&#xd1;" horiz-adv-x="739" 
d="M204 0h-131v667h216l247 -546v546h131v-667h-217l-246 545v-545zM273 730h-64c3 56 34 119 100 119c53 0 100 -39 137 -39c25 0 37 20 40 41h65c-3 -56 -40 -118 -103 -118c-55 0 -90 38 -132 38c-23 0 -43 -21 -43 -41z" />
    <glyph glyph-name="Ncommaaccent" unicode="&#x145;" horiz-adv-x="739" 
d="M204 0h-131v667h216l247 -546v546h131v-667h-217l-246 545v-545zM370 -227h-86l41 159h119z" />
    <glyph glyph-name="Ograve" unicode="&#xd2;" horiz-adv-x="735" 
d="M225 13c-121 50 -185 163 -185 320c0 204 118 344 327 344c212 0 328 -136 328 -344c0 -205 -117 -344 -328 -344c-53 0 -101 8 -142 24zM232 172c28 -47 71 -80 135 -80c132 0 173 130 173 241s-41 241 -173 241c-131 0 -172 -133 -172 -241c0 -55 10 -114 37 -161z
M428 724h-98l-112 136h138z" />
    <glyph glyph-name="Oacute" unicode="&#xd3;" horiz-adv-x="735" 
d="M225 13c-121 50 -185 163 -185 320c0 204 118 344 327 344c212 0 328 -136 328 -344c0 -205 -117 -344 -328 -344c-53 0 -101 8 -142 24zM232 172c28 -47 71 -80 135 -80c132 0 173 130 173 241s-41 241 -173 241c-131 0 -172 -133 -172 -241c0 -55 10 -114 37 -161z
M406 724h-99l72 136h138z" />
    <glyph glyph-name="Ocircumflex" unicode="&#xd4;" horiz-adv-x="735" 
d="M225 13c-121 50 -185 163 -185 320c0 204 118 344 327 344c212 0 328 -136 328 -344c0 -205 -117 -344 -328 -344c-53 0 -101 8 -142 24zM232 172c28 -47 71 -80 135 -80c132 0 173 130 173 241s-41 241 -173 241c-131 0 -172 -133 -172 -241c0 -55 10 -114 37 -161z
M299 724h-93l103 136h117l103 -136h-94l-68 86z" />
    <glyph glyph-name="Otilde" unicode="&#xd5;" horiz-adv-x="735" 
d="M225 13c-121 50 -185 163 -185 320c0 204 118 344 327 344c212 0 328 -136 328 -344c0 -205 -117 -344 -328 -344c-53 0 -101 8 -142 24zM232 172c28 -47 71 -80 135 -80c132 0 173 130 173 241s-41 241 -173 241c-131 0 -172 -133 -172 -241c0 -55 10 -114 37 -161z
M261 730h-64c3 56 34 119 100 119c53 0 100 -39 137 -39c25 0 37 20 40 41h65c-3 -56 -40 -118 -103 -118c-55 0 -90 38 -132 38c-23 0 -43 -21 -43 -41z" />
    <glyph glyph-name="Odieresis" unicode="&#xd6;" horiz-adv-x="735" 
d="M225 13c-121 50 -185 163 -185 320c0 204 118 344 327 344c212 0 328 -136 328 -344c0 -205 -117 -344 -328 -344c-53 0 -101 8 -142 24zM232 172c28 -47 71 -80 135 -80c132 0 173 130 173 241s-41 241 -173 241c-131 0 -172 -133 -172 -241c0 -55 10 -114 37 -161z
M325 736h-107v111h107v-111zM517 736h-107v111h107v-111z" />
    <glyph glyph-name="Omacron" unicode="&#x14c;" horiz-adv-x="735" 
d="M225 13c-121 50 -185 163 -185 320c0 204 118 344 327 344c212 0 328 -136 328 -344c0 -205 -117 -344 -328 -344c-53 0 -101 8 -142 24zM232 172c28 -47 71 -80 135 -80c132 0 173 130 173 241s-41 241 -173 241c-131 0 -172 -133 -172 -241c0 -55 10 -114 37 -161z
M520 757h-304v70h304v-70z" />
    <glyph glyph-name="Obreve" unicode="&#x14e;" horiz-adv-x="735" 
d="M225 13c-121 50 -185 163 -185 320c0 204 118 344 327 344c212 0 328 -136 328 -344c0 -205 -117 -344 -328 -344c-53 0 -101 8 -142 24zM232 172c28 -47 71 -80 135 -80c132 0 173 130 173 241s-41 241 -173 241c-131 0 -172 -133 -172 -241c0 -55 10 -114 37 -161z
M222 857h67c3 -35 30 -64 79 -64s75 29 78 64h68c0 -58 -50 -132 -146 -132c-97 0 -146 74 -146 132z" />
    <glyph glyph-name="Ohungarumlaut" unicode="&#x150;" horiz-adv-x="735" 
d="M225 13c-121 50 -185 163 -185 320c0 204 118 344 327 344c212 0 328 -136 328 -344c0 -205 -117 -344 -328 -344c-53 0 -101 8 -142 24zM232 172c28 -47 71 -80 135 -80c132 0 173 130 173 241s-41 241 -173 241c-131 0 -172 -133 -172 -241c0 -55 10 -114 37 -161z
M303 724h-99l72 136h139zM519 724h-99l72 136h139z" />
    <glyph glyph-name="Racute" unicode="&#x154;" horiz-adv-x="629" 
d="M217 568v-193h67c68 0 139 23 139 102c0 77 -63 91 -135 91h-71zM218 0h-145v667h264c115 0 235 -42 235 -175c0 -98 -69 -148 -154 -164c57 -13 81 -44 109 -113l85 -215h-160l-60 167c-30 81 -47 109 -120 109h-54v-276zM331 724h-99l72 136h138z" />
    <glyph glyph-name="Rcaron" unicode="&#x158;" horiz-adv-x="629" 
d="M217 568v-193h67c68 0 139 23 139 102c0 77 -63 91 -135 91h-71zM218 0h-145v667h264c115 0 235 -42 235 -175c0 -98 -69 -148 -154 -164c57 -13 81 -44 109 -113l85 -215h-160l-60 167c-30 81 -47 109 -120 109h-54v-276zM355 724h-117l-103 136h94l68 -86l68 86h93z
" />
    <glyph glyph-name="Rcommaaccent" unicode="&#x156;" horiz-adv-x="629" 
d="M217 568v-193h67c68 0 139 23 139 102c0 77 -63 91 -135 91h-71zM218 0h-145v667h264c115 0 235 -42 235 -175c0 -98 -69 -148 -154 -164c57 -13 81 -44 109 -113l85 -215h-160l-60 167c-30 81 -47 109 -120 109h-54v-276zM326 -227h-86l41 159h119z" />
    <glyph glyph-name="Sacute" unicode="&#x15a;" horiz-adv-x="551" 
d="M58 16l7 117c61 -27 119 -38 168 -38c52 0 117 19 117 87c0 47 -37 72 -112 103l-54 23c-68 29 -127 75 -127 171c0 153 146 198 255 198c60 0 117 -6 157 -21l-5 -115c-47 20 -95 29 -142 29c-51 0 -116 -16 -116 -80c0 -44 44 -67 96 -88l44 -18
c88 -35 158 -81 158 -188c0 -159 -143 -207 -260 -207c-61 0 -118 6 -186 27zM316 724h-99l72 136h138z" />
    <glyph glyph-name="Scircumflex" unicode="&#x15c;" horiz-adv-x="551" 
d="M58 16l7 117c61 -27 119 -38 168 -38c52 0 117 19 117 87c0 47 -37 72 -112 103l-54 23c-68 29 -127 75 -127 171c0 153 146 198 255 198c60 0 117 -6 157 -21l-5 -115c-47 20 -95 29 -142 29c-51 0 -116 -16 -116 -80c0 -44 44 -67 96 -88l44 -18
c88 -35 158 -81 158 -188c0 -159 -143 -207 -260 -207c-61 0 -118 6 -186 27zM214 724h-93l103 136h117l103 -136h-94l-68 86z" />
    <glyph glyph-name="Scaron" unicode="&#x160;" horiz-adv-x="551" 
d="M58 16l7 117c61 -27 119 -38 168 -38c52 0 117 19 117 87c0 47 -37 72 -112 103l-54 23c-68 29 -127 75 -127 171c0 153 146 198 255 198c60 0 117 -6 157 -21l-5 -115c-47 20 -95 29 -142 29c-51 0 -116 -16 -116 -80c0 -44 44 -67 96 -88l44 -18
c88 -35 158 -81 158 -188c0 -159 -143 -207 -260 -207c-61 0 -118 6 -186 27zM334 724h-117l-103 136h94l68 -86l68 86h93z" />
    <glyph glyph-name="Scommaaccent" unicode="&#x218;" horiz-adv-x="551" 
d="M58 16l7 117c61 -27 119 -38 168 -38c52 0 117 19 117 87c0 47 -37 72 -112 103l-54 23c-68 29 -127 75 -127 171c0 153 146 198 255 198c60 0 117 -6 157 -21l-5 -115c-47 20 -95 29 -142 29c-51 0 -116 -16 -116 -80c0 -44 44 -67 96 -88l44 -18
c88 -35 158 -81 158 -188c0 -159 -143 -207 -260 -207c-61 0 -118 6 -186 27zM271 -227h-86l41 159h119z" />
    <glyph glyph-name="Tcaron" unicode="&#x164;" horiz-adv-x="587" 
d="M368 0h-149v549h-209v118h567v-118h-209v-549zM354 724h-117l-103 136h94l68 -86l68 86h93z" />
    <glyph glyph-name="Tcommaaccent" unicode="&#x162;" horiz-adv-x="587" 
d="M368 0h-149v549h-209v118h567v-118h-209v-549zM282 -227h-86l41 159h119z" />
    <glyph glyph-name="uni021A" unicode="&#x21a;" horiz-adv-x="587" 
d="M368 0h-149v549h-209v118h567v-118h-209v-549zM282 -227h-86l41 159h119z" />
    <glyph glyph-name="Ugrave" unicode="&#xd9;" horiz-adv-x="696" 
d="M214 667v-417c0 -85 39 -153 133 -153s136 66 136 152v418h148v-416c0 -173 -123 -262 -285 -262c-163 0 -280 84 -280 256v422h148zM421 724h-98l-112 136h138z" />
    <glyph glyph-name="Uacute" unicode="&#xda;" horiz-adv-x="696" 
d="M214 667v-417c0 -85 39 -153 133 -153s136 66 136 152v418h148v-416c0 -173 -123 -262 -285 -262c-163 0 -280 84 -280 256v422h148zM375 724h-99l72 136h138z" />
    <glyph glyph-name="Ucircumflex" unicode="&#xdb;" horiz-adv-x="696" 
d="M214 667v-417c0 -85 39 -153 133 -153s136 66 136 152v418h148v-416c0 -173 -123 -262 -285 -262c-163 0 -280 84 -280 256v422h148zM278 724h-93l103 136h117l103 -136h-94l-68 86z" />
    <glyph glyph-name="Utilde" unicode="&#x168;" horiz-adv-x="696" 
d="M214 667v-417c0 -85 39 -153 133 -153s136 66 136 152v418h148v-416c0 -173 -123 -262 -285 -262c-163 0 -280 84 -280 256v422h148zM241 730h-64c3 56 34 119 100 119c53 0 100 -39 137 -39c25 0 37 20 40 41h65c-3 -56 -40 -118 -103 -118c-55 0 -90 38 -132 38
c-23 0 -43 -21 -43 -41z" />
    <glyph glyph-name="Udieresis" unicode="&#xdc;" horiz-adv-x="696" 
d="M214 667v-417c0 -85 39 -153 133 -153s136 66 136 152v418h148v-416c0 -173 -123 -262 -285 -262c-163 0 -280 84 -280 256v422h148zM306 736h-107v111h107v-111zM498 736h-107v111h107v-111z" />
    <glyph glyph-name="Umacron" unicode="&#x16a;" horiz-adv-x="696" 
d="M214 667v-417c0 -85 39 -153 133 -153s136 66 136 152v418h148v-416c0 -173 -123 -262 -285 -262c-163 0 -280 84 -280 256v422h148zM500 757h-304v70h304v-70z" />
    <glyph glyph-name="Ubreve" unicode="&#x16c;" horiz-adv-x="696" 
d="M214 667v-417c0 -85 39 -153 133 -153s136 66 136 152v418h148v-416c0 -173 -123 -262 -285 -262c-163 0 -280 84 -280 256v422h148zM204 857h67c3 -35 30 -64 79 -64s75 29 78 64h68c0 -58 -50 -132 -146 -132c-97 0 -146 74 -146 132z" />
    <glyph glyph-name="Uring" unicode="&#x16e;" horiz-adv-x="696" 
d="M214 667v-417c0 -85 39 -153 133 -153s136 66 136 152v418h148v-416c0 -173 -123 -262 -285 -262c-163 0 -280 84 -280 256v422h148zM294 792c0 -31 25 -54 54 -54c31 0 54 23 54 54c0 29 -23 53 -54 53s-54 -24 -54 -53zM277 720c-19 19 -30 44 -30 72
c0 56 45 99 101 99c55 0 101 -43 101 -99c0 -55 -46 -100 -101 -100c-28 0 -52 11 -71 28z" />
    <glyph glyph-name="Uhungarumlaut" unicode="&#x170;" horiz-adv-x="696" 
d="M214 667v-417c0 -85 39 -153 133 -153s136 66 136 152v418h148v-416c0 -173 -123 -262 -285 -262c-163 0 -280 84 -280 256v422h148zM279 724h-99l72 136h139zM495 724h-99l72 136h139z" />
    <glyph glyph-name="Wcircumflex" unicode="&#x174;" horiz-adv-x="988" 
d="M352 0h-166l-179 667h143l129 -530l144 530h152l142 -530l130 530h135l-178 -667h-165l-145 531zM434 724h-93l103 136h117l103 -136h-94l-68 86z" />
    <glyph glyph-name="Yacute" unicode="&#xdd;" horiz-adv-x="629" 
d="M387 0h-148v249l-246 418h162l164 -308l162 308h156l-250 -418v-249zM355 724h-99l72 136h138z" />
    <glyph glyph-name="Ycircumflex" unicode="&#x176;" horiz-adv-x="629" 
d="M387 0h-148v249l-246 418h162l164 -308l162 308h156l-250 -418v-249zM251 724h-93l103 136h117l103 -136h-94l-68 86z" />
    <glyph glyph-name="Ydieresis" unicode="&#x178;" horiz-adv-x="629" 
d="M387 0h-148v249l-246 418h162l164 -308l162 308h156l-250 -418v-249zM276 736h-107v111h107v-111zM468 736h-107v111h107v-111z" />
    <glyph glyph-name="Zacute" unicode="&#x179;" horiz-adv-x="562" 
d="M536 0h-510v117l340 442h-328v108h489v-118l-334 -441h343v-108zM322 724h-99l72 136h138z" />
    <glyph glyph-name="Zcaron" unicode="&#x17d;" horiz-adv-x="562" 
d="M536 0h-510v117l340 442h-328v108h489v-118l-334 -441h343v-108zM340 724h-117l-103 136h94l68 -86l68 86h93z" />
    <glyph glyph-name="Zdotaccent" unicode="&#x17b;" horiz-adv-x="562" 
d="M536 0h-510v117l340 442h-328v108h489v-118l-334 -441h343v-108zM346 736h-122v111h122v-111z" />
    <glyph glyph-name="agrave" unicode="&#xe0;" horiz-adv-x="548" 
d="M357 239h-28c-81 0 -169 -15 -169 -90c0 -49 31 -74 74 -74c84 0 123 69 123 143v21zM495 0h-130l-3 74c-35 -55 -88 -85 -164 -85c-92 0 -170 54 -170 154c0 133 128 169 269 169c19 0 41 -1 60 -2v17c0 71 -43 98 -119 98c-45 0 -100 -13 -147 -38l-6 92
c52 21 117 33 173 33c135 0 232 -48 232 -195v-199c0 -51 1 -83 5 -118zM340 583h-98l-112 136h138z" />
    <glyph glyph-name="aacute" unicode="&#xe1;" horiz-adv-x="548" 
d="M357 239h-28c-81 0 -169 -15 -169 -90c0 -49 31 -74 74 -74c84 0 123 69 123 143v21zM495 0h-130l-3 74c-35 -55 -88 -85 -164 -85c-92 0 -170 54 -170 154c0 133 128 169 269 169c19 0 41 -1 60 -2v17c0 71 -43 98 -119 98c-45 0 -100 -13 -147 -38l-6 92
c52 21 117 33 173 33c135 0 232 -48 232 -195v-199c0 -51 1 -83 5 -118zM304 583h-99l72 136h138z" />
    <glyph glyph-name="acircumflex" unicode="&#xe2;" horiz-adv-x="548" 
d="M357 239h-28c-81 0 -169 -15 -169 -90c0 -49 31 -74 74 -74c84 0 123 69 123 143v21zM495 0h-130l-3 74c-35 -55 -88 -85 -164 -85c-92 0 -170 54 -170 154c0 133 128 169 269 169c19 0 41 -1 60 -2v17c0 71 -43 98 -119 98c-45 0 -100 -13 -147 -38l-6 92
c52 21 117 33 173 33c135 0 232 -48 232 -195v-199c0 -51 1 -83 5 -118zM209 583h-93l103 136h117l103 -136h-94l-68 86z" />
    <glyph glyph-name="atilde" unicode="&#xe3;" horiz-adv-x="548" 
d="M357 239h-28c-81 0 -169 -15 -169 -90c0 -49 31 -74 74 -74c84 0 123 69 123 143v21zM495 0h-130l-3 74c-35 -55 -88 -85 -164 -85c-92 0 -170 54 -170 154c0 133 128 169 269 169c19 0 41 -1 60 -2v17c0 71 -43 98 -119 98c-45 0 -100 -13 -147 -38l-6 92
c52 21 117 33 173 33c135 0 232 -48 232 -195v-199c0 -51 1 -83 5 -118zM174 589h-64c3 56 34 119 100 119c53 0 100 -39 137 -39c25 0 37 20 40 41h65c-3 -56 -39 -118 -103 -118c-55 0 -90 38 -132 38c-23 0 -43 -21 -43 -41z" />
    <glyph glyph-name="adieresis" unicode="&#xe4;" horiz-adv-x="548" 
d="M357 239h-28c-81 0 -169 -15 -169 -90c0 -49 31 -74 74 -74c84 0 123 69 123 143v21zM495 0h-130l-3 74c-35 -55 -88 -85 -164 -85c-92 0 -170 54 -170 154c0 133 128 169 269 169c19 0 41 -1 60 -2v17c0 71 -43 98 -119 98c-45 0 -100 -13 -147 -38l-6 92
c52 21 117 33 173 33c135 0 232 -48 232 -195v-199c0 -51 1 -83 5 -118zM426 595h-107v111h107v-111zM234 595h-107v111h107v-111z" />
    <glyph glyph-name="amacron" unicode="&#x101;" horiz-adv-x="548" 
d="M357 239h-28c-81 0 -169 -15 -169 -90c0 -49 31 -74 74 -74c84 0 123 69 123 143v21zM495 0h-130l-3 74c-35 -55 -88 -85 -164 -85c-92 0 -170 54 -170 154c0 133 128 169 269 169c19 0 41 -1 60 -2v17c0 71 -43 98 -119 98c-45 0 -100 -13 -147 -38l-6 92
c52 21 117 33 173 33c135 0 232 -48 232 -195v-199c0 -51 1 -83 5 -118zM429 616h-304v70h304v-70z" />
    <glyph glyph-name="abreve" unicode="&#x103;" horiz-adv-x="548" 
d="M357 239h-28c-81 0 -169 -15 -169 -90c0 -49 31 -74 74 -74c84 0 123 69 123 143v21zM495 0h-130l-3 74c-35 -55 -88 -85 -164 -85c-92 0 -170 54 -170 154c0 133 128 169 269 169c19 0 41 -1 60 -2v17c0 71 -43 98 -119 98c-45 0 -100 -13 -147 -38l-6 92
c52 21 117 33 173 33c135 0 232 -48 232 -195v-199c0 -51 1 -83 5 -118zM131 716h67c3 -35 30 -64 79 -64s75 29 78 64h68c0 -58 -50 -132 -146 -132c-97 0 -146 74 -146 132z" />
    <glyph glyph-name="aring" unicode="&#xe5;" horiz-adv-x="548" 
d="M357 239h-28c-81 0 -169 -15 -169 -90c0 -49 31 -74 74 -74c84 0 123 69 123 143v21zM495 0h-130l-3 74c-35 -55 -88 -85 -164 -85c-92 0 -170 54 -170 154c0 133 128 169 269 169c19 0 41 -1 60 -2v17c0 71 -43 98 -119 98c-45 0 -100 -13 -147 -38l-6 92
c52 21 117 33 173 33c135 0 232 -48 232 -195v-199c0 -51 1 -83 5 -118zM200 579c-19 19 -30 44 -30 72c0 56 45 99 101 99c55 0 101 -43 101 -99c0 -55 -46 -100 -101 -100c-28 0 -52 11 -71 28zM217 651c0 -31 25 -54 54 -54c31 0 54 23 54 54c0 29 -23 53 -54 53
s-54 -24 -54 -53z" />
    <glyph glyph-name="cacute" unicode="&#x107;" horiz-adv-x="476" 
d="M443 106l5 -98c-45 -15 -87 -19 -138 -19c-164 0 -276 100 -276 264c0 163 121 259 280 259c51 0 89 -5 133 -18l-6 -98c-31 15 -64 22 -99 22c-102 0 -160 -69 -160 -165c0 -93 55 -167 159 -167c35 0 67 5 102 20zM320 583h-99l72 136h138z" />
    <glyph glyph-name="ccircumflex" unicode="&#x109;" horiz-adv-x="476" 
d="M443 106l5 -98c-45 -15 -87 -19 -138 -19c-164 0 -276 100 -276 264c0 163 121 259 280 259c51 0 89 -5 133 -18l-6 -98c-31 15 -64 22 -99 22c-102 0 -160 -69 -160 -165c0 -93 55 -167 159 -167c35 0 67 5 102 20zM220 583h-93l103 136h117l103 -136h-94l-68 86z" />
    <glyph glyph-name="ccaron" unicode="&#x10d;" horiz-adv-x="476" 
d="M443 106l5 -98c-45 -15 -87 -19 -138 -19c-164 0 -276 100 -276 264c0 163 121 259 280 259c51 0 89 -5 133 -18l-6 -98c-31 15 -64 22 -99 22c-102 0 -160 -69 -160 -165c0 -93 55 -167 159 -167c35 0 67 5 102 20zM349 583h-117l-103 136h94l68 -86l68 86h93z" />
    <glyph glyph-name="cdotaccent" unicode="&#x10b;" horiz-adv-x="476" 
d="M443 106l5 -98c-45 -15 -87 -19 -138 -19c-164 0 -276 100 -276 264c0 163 121 259 280 259c51 0 89 -5 133 -18l-6 -98c-31 15 -64 22 -99 22c-102 0 -160 -69 -160 -165c0 -93 55 -167 159 -167c35 0 67 5 102 20zM358 595h-138v111h138v-111z" />
    <glyph glyph-name="dcaron" unicode="&#x10f;" horiz-adv-x="595" 
d="M537 0h-128l-5 82c-31 -64 -90 -93 -159 -93c-154 0 -211 129 -211 264c0 134 59 259 210 259c64 0 126 -33 151 -93v302h138v-581c0 -57 1 -99 4 -140zM202 141c16 -32 43 -56 88 -56c85 0 108 98 108 167c0 70 -22 163 -109 163c-91 0 -107 -91 -107 -163
c0 -36 4 -78 20 -111zM673 557h-84l19 162h109z" />
    <glyph glyph-name="egrave" unicode="&#xe8;" horiz-adv-x="535" 
d="M169 299h211c0 63 -20 130 -96 130s-112 -66 -115 -130zM504 221h-335c3 -87 58 -140 165 -140c49 0 103 13 138 33l6 -96c-40 -17 -105 -29 -160 -29c-185 0 -284 97 -284 264c0 149 101 259 249 259c161 0 221 -106 221 -258v-33zM342 583h-98l-112 136h138z" />
    <glyph glyph-name="eacute" unicode="&#xe9;" horiz-adv-x="535" 
d="M169 299h211c0 63 -20 130 -96 130s-112 -66 -115 -130zM504 221h-335c3 -87 58 -140 165 -140c49 0 103 13 138 33l6 -96c-40 -17 -105 -29 -160 -29c-185 0 -284 97 -284 264c0 149 101 259 249 259c161 0 221 -106 221 -258v-33zM311 583h-99l72 136h138z" />
    <glyph glyph-name="ecircumflex" unicode="&#xea;" horiz-adv-x="535" 
d="M169 299h211c0 63 -20 130 -96 130s-112 -66 -115 -130zM504 221h-335c3 -87 58 -140 165 -140c49 0 103 13 138 33l6 -96c-40 -17 -105 -29 -160 -29c-185 0 -284 97 -284 264c0 149 101 259 249 259c161 0 221 -106 221 -258v-33zM208 583h-93l103 136h117l103 -136
h-94l-68 86z" />
    <glyph glyph-name="ecaron" unicode="&#x11b;" horiz-adv-x="535" 
d="M169 299h211c0 63 -20 130 -96 130s-112 -66 -115 -130zM504 221h-335c3 -87 58 -140 165 -140c49 0 103 13 138 33l6 -96c-40 -17 -105 -29 -160 -29c-185 0 -284 97 -284 264c0 149 101 259 249 259c161 0 221 -106 221 -258v-33zM334 583h-117l-103 136h94l68 -86
l68 86h93z" />
    <glyph glyph-name="edieresis" unicode="&#xeb;" horiz-adv-x="535" 
d="M169 299h211c0 63 -20 130 -96 130s-112 -66 -115 -130zM504 221h-335c3 -87 58 -140 165 -140c49 0 103 13 138 33l6 -96c-40 -17 -105 -29 -160 -29c-185 0 -284 97 -284 264c0 149 101 259 249 259c161 0 221 -106 221 -258v-33zM426 595h-107v111h107v-111zM234 595
h-107v111h107v-111z" />
    <glyph glyph-name="emacron" unicode="&#x113;" horiz-adv-x="535" 
d="M169 299h211c0 63 -20 130 -96 130s-112 -66 -115 -130zM504 221h-335c3 -87 58 -140 165 -140c49 0 103 13 138 33l6 -96c-40 -17 -105 -29 -160 -29c-185 0 -284 97 -284 264c0 149 101 259 249 259c161 0 221 -106 221 -258v-33zM429 616h-304v70h304v-70z" />
    <glyph glyph-name="ebreve" unicode="&#x115;" horiz-adv-x="535" 
d="M169 299h211c0 63 -20 130 -96 130s-112 -66 -115 -130zM504 221h-335c3 -87 58 -140 165 -140c49 0 103 13 138 33l6 -96c-40 -17 -105 -29 -160 -29c-185 0 -284 97 -284 264c0 149 101 259 249 259c161 0 221 -106 221 -258v-33zM130 716h67c3 -35 30 -64 79 -64
s75 29 78 64h68c0 -58 -50 -132 -146 -132c-97 0 -146 74 -146 132z" />
    <glyph glyph-name="edotaccent" unicode="&#x117;" horiz-adv-x="535" 
d="M169 299h211c0 63 -20 130 -96 130s-112 -66 -115 -130zM504 221h-335c3 -87 58 -140 165 -140c49 0 103 13 138 33l6 -96c-40 -17 -105 -29 -160 -29c-185 0 -284 97 -284 264c0 149 101 259 249 259c161 0 221 -106 221 -258v-33zM345 595h-138v111h138v-111z" />
    <glyph glyph-name="gcircumflex" unicode="&#x11d;" horiz-adv-x="595" 
d="M75 -200l6 105c47 -25 98 -37 153 -37c111 0 161 63 161 164v54c-35 -55 -93 -86 -157 -86c-146 0 -204 125 -204 253c0 134 58 259 206 259c69 0 128 -29 159 -93v83h134v-470c0 -172 -100 -259 -269 -259c-64 0 -128 8 -189 27zM202 148c16 -29 43 -52 87 -52
c85 0 109 88 109 156c0 70 -22 163 -109 163c-91 0 -107 -91 -107 -163c0 -35 4 -73 20 -104zM232 583h-93l103 136h117l103 -136h-94l-68 86z" />
    <glyph glyph-name="gbreve" unicode="&#x11f;" horiz-adv-x="595" 
d="M75 -200l6 105c47 -25 98 -37 153 -37c111 0 161 63 161 164v54c-35 -55 -93 -86 -157 -86c-146 0 -204 125 -204 253c0 134 58 259 206 259c69 0 128 -29 159 -93v83h134v-470c0 -172 -100 -259 -269 -259c-64 0 -128 8 -189 27zM202 148c16 -29 43 -52 87 -52
c85 0 109 88 109 156c0 70 -22 163 -109 163c-91 0 -107 -91 -107 -163c0 -35 4 -73 20 -104zM153 716h67c3 -35 30 -64 79 -64s75 29 78 64h68c0 -58 -50 -132 -146 -132c-97 0 -146 74 -146 132z" />
    <glyph glyph-name="gdotaccent" unicode="&#x121;" horiz-adv-x="595" 
d="M75 -200l6 105c47 -25 98 -37 153 -37c111 0 161 63 161 164v54c-35 -55 -93 -86 -157 -86c-146 0 -204 125 -204 253c0 134 58 259 206 259c69 0 128 -29 159 -93v83h134v-470c0 -172 -100 -259 -269 -259c-64 0 -128 8 -189 27zM202 148c16 -29 43 -52 87 -52
c85 0 109 88 109 156c0 70 -22 163 -109 163c-91 0 -107 -91 -107 -163c0 -35 4 -73 20 -104zM369 595h-138v111h138v-111z" />
    <glyph glyph-name="gcommaaccent" unicode="&#x123;" horiz-adv-x="595" 
d="M75 -200l6 105c47 -25 98 -37 153 -37c111 0 161 63 161 164v54c-35 -55 -93 -86 -157 -86c-146 0 -204 125 -204 253c0 134 58 259 206 259c69 0 128 -29 159 -93v83h134v-470c0 -172 -100 -259 -269 -259c-64 0 -128 8 -189 27zM202 148c16 -29 43 -52 87 -52
c85 0 109 88 109 156c0 70 -22 163 -109 163c-91 0 -107 -91 -107 -163c0 -35 4 -73 20 -104zM351 583h-118l74 136h83z" />
    <glyph glyph-name="hcircumflex" unicode="&#x125;" horiz-adv-x="585" 
d="M201 0h-138v721h138v-302c31 63 85 93 154 93c118 0 168 -71 168 -186v-326h-138v294c0 60 -9 119 -84 119c-76 0 -100 -70 -100 -135v-278zM213 769h-93l103 136h117l103 -136h-94l-68 86z" />
    <glyph glyph-name="igrave" unicode="&#xec;" horiz-adv-x="263" 
d="M201 0h-138v502h138v-502zM195 583h-98l-112 136h138z" />
    <glyph glyph-name="iacute" unicode="&#xed;" horiz-adv-x="263" 
d="M201 0h-138v502h138v-502zM162 583h-99l72 136h138z" />
    <glyph glyph-name="icircumflex" unicode="&#xee;" horiz-adv-x="263" 
d="M201 0h-138v502h138v-502zM63 583h-93l103 136h117l103 -136h-94l-68 86z" />
    <glyph glyph-name="itilde" unicode="&#x129;" horiz-adv-x="263" 
d="M201 0h-138v502h138v-502zM25 589h-64c3 56 34 119 100 119c53 0 100 -39 137 -39c25 0 37 20 40 41h65c-3 -56 -39 -118 -103 -118c-55 0 -90 38 -132 38c-23 0 -43 -21 -43 -41z" />
    <glyph glyph-name="idieresis" unicode="&#xef;" horiz-adv-x="263" 
d="M201 0h-138v502h138v-502zM281 595h-107v111h107v-111zM89 595h-107v111h107v-111z" />
    <glyph glyph-name="imacron" unicode="&#x12b;" horiz-adv-x="263" 
d="M285 616h-304v70h304v-70zM201 0h-138v502h138v-502z" />
    <glyph glyph-name="jcircumflex" unicode="&#x135;" horiz-adv-x="268" 
d="M-34 -218l6 97c11 -4 23 -6 36 -6c50 0 60 40 60 82v547h138v-561c0 -95 -38 -168 -143 -168c-33 0 -66 2 -97 9zM63 583h-93l103 136h117l103 -136h-94l-68 86z" />
    <glyph glyph-name="kcommaaccent" unicode="&#x137;" horiz-adv-x="567" 
d="M201 0h-138v721h138v-425l182 206h161l-204 -224l224 -278h-168l-195 255v-255zM284 -227h-86l41 159h119z" />
    <glyph glyph-name="lacute" unicode="&#x13a;" horiz-adv-x="263" 
d="M201 0h-138v721h138v-721zM170 769h-99l72 136h138z" />
    <glyph glyph-name="lcaron" unicode="&#x13e;" horiz-adv-x="263" 
d="M201 0h-138v721h138v-721zM341 557h-84l19 162h109z" />
    <glyph glyph-name="lcommaaccent" unicode="&#x13c;" horiz-adv-x="263" 
d="M201 0h-138v721h138v-721zM119 -227h-86l41 159h119z" />
    <glyph glyph-name="ldot" unicode="&#x140;" horiz-adv-x="401" 
d="M201 0h-138v721h138v-721zM399 292h-138v111h138v-111z" />
    <glyph glyph-name="nacute" unicode="&#x144;" horiz-adv-x="585" 
d="M201 0h-138v390c0 37 -1 75 -5 112h130l2 -84c33 64 92 94 163 94c121 0 170 -72 170 -187v-325h-138v293c0 60 -9 120 -84 120c-78 0 -100 -70 -100 -136v-277zM327 583h-99l72 136h138z" />
    <glyph glyph-name="ncaron" unicode="&#x148;" horiz-adv-x="585" 
d="M201 0h-138v390c0 37 -1 75 -5 112h130l2 -84c33 64 92 94 163 94c121 0 170 -72 170 -187v-325h-138v293c0 60 -9 120 -84 120c-78 0 -100 -70 -100 -136v-277zM354 583h-117l-103 136h94l68 -86l68 86h93z" />
    <glyph glyph-name="ntilde" unicode="&#xf1;" horiz-adv-x="585" 
d="M201 0h-138v390c0 37 -1 75 -5 112h130l2 -84c33 64 92 94 163 94c121 0 170 -72 170 -187v-325h-138v293c0 60 -9 120 -84 120c-78 0 -100 -70 -100 -136v-277zM189 589h-64c3 56 34 119 100 119c53 0 100 -39 137 -39c25 0 37 20 40 41h65c-3 -56 -39 -118 -103 -118
c-55 0 -90 38 -132 38c-23 0 -43 -21 -43 -41z" />
    <glyph glyph-name="ncommaaccent" unicode="&#x146;" horiz-adv-x="585" 
d="M201 0h-138v390c0 37 -1 75 -5 112h130l2 -84c33 64 92 94 163 94c121 0 170 -72 170 -187v-325h-138v293c0 60 -9 120 -84 120c-78 0 -100 -70 -100 -136v-277zM283 -227h-86l41 159h119z" />
    <glyph glyph-name="ograve" unicode="&#xf2;" horiz-adv-x="593" 
d="M186 7c-98 38 -152 125 -152 246c0 164 109 259 263 259c163 0 263 -92 263 -259c0 -162 -99 -264 -263 -264c-41 0 -78 6 -111 18zM207 137c19 -32 47 -54 90 -54c88 0 115 85 115 170c0 77 -25 165 -115 165c-88 0 -115 -89 -115 -165c0 -41 8 -84 25 -116zM360 583
h-98l-112 136h138z" />
    <glyph glyph-name="oacute" unicode="&#xf3;" horiz-adv-x="593" 
d="M186 7c-98 38 -152 125 -152 246c0 164 109 259 263 259c163 0 263 -92 263 -259c0 -162 -99 -264 -263 -264c-41 0 -78 6 -111 18zM207 137c19 -32 47 -54 90 -54c88 0 115 85 115 170c0 77 -25 165 -115 165c-88 0 -115 -89 -115 -165c0 -41 8 -84 25 -116zM330 583
h-99l72 136h138z" />
    <glyph glyph-name="ocircumflex" unicode="&#xf4;" horiz-adv-x="593" 
d="M186 7c-98 38 -152 125 -152 246c0 164 109 259 263 259c163 0 263 -92 263 -259c0 -162 -99 -264 -263 -264c-41 0 -78 6 -111 18zM207 137c19 -32 47 -54 90 -54c88 0 115 85 115 170c0 77 -25 165 -115 165c-88 0 -115 -89 -115 -165c0 -41 8 -84 25 -116zM228 583
h-93l103 136h117l103 -136h-94l-68 86z" />
    <glyph glyph-name="otilde" unicode="&#xf5;" horiz-adv-x="593" 
d="M186 7c-98 38 -152 125 -152 246c0 164 109 259 263 259c163 0 263 -92 263 -259c0 -162 -99 -264 -263 -264c-41 0 -78 6 -111 18zM207 137c19 -32 47 -54 90 -54c88 0 115 85 115 170c0 77 -25 165 -115 165c-88 0 -115 -89 -115 -165c0 -41 8 -84 25 -116zM190 589
h-64c3 56 34 119 100 119c53 0 100 -39 137 -39c25 0 37 20 40 41h65c-3 -56 -39 -118 -103 -118c-55 0 -90 38 -132 38c-23 0 -43 -21 -43 -41z" />
    <glyph glyph-name="odieresis" unicode="&#xf6;" horiz-adv-x="593" 
d="M186 7c-98 38 -152 125 -152 246c0 164 109 259 263 259c163 0 263 -92 263 -259c0 -162 -99 -264 -263 -264c-41 0 -78 6 -111 18zM207 137c19 -32 47 -54 90 -54c88 0 115 85 115 170c0 77 -25 165 -115 165c-88 0 -115 -89 -115 -165c0 -41 8 -84 25 -116zM446 595
h-107v111h107v-111zM254 595h-107v111h107v-111z" />
    <glyph glyph-name="omacron" unicode="&#x14d;" horiz-adv-x="593" 
d="M186 7c-98 38 -152 125 -152 246c0 164 109 259 263 259c163 0 263 -92 263 -259c0 -162 -99 -264 -263 -264c-41 0 -78 6 -111 18zM207 137c19 -32 47 -54 90 -54c88 0 115 85 115 170c0 77 -25 165 -115 165c-88 0 -115 -89 -115 -165c0 -41 8 -84 25 -116zM448 616
h-304v70h304v-70z" />
    <glyph glyph-name="obreve" unicode="&#x14f;" horiz-adv-x="593" 
d="M186 7c-98 38 -152 125 -152 246c0 164 109 259 263 259c163 0 263 -92 263 -259c0 -162 -99 -264 -263 -264c-41 0 -78 6 -111 18zM207 137c19 -32 47 -54 90 -54c88 0 115 85 115 170c0 77 -25 165 -115 165c-88 0 -115 -89 -115 -165c0 -41 8 -84 25 -116zM142 716h67
c3 -35 30 -64 79 -64s75 29 78 64h68c0 -58 -50 -132 -146 -132c-97 0 -146 74 -146 132z" />
    <glyph glyph-name="ohungarumlaut" unicode="&#x151;" horiz-adv-x="593" 
d="M186 7c-98 38 -152 125 -152 246c0 164 109 259 263 259c163 0 263 -92 263 -259c0 -162 -99 -264 -263 -264c-41 0 -78 6 -111 18zM207 137c19 -32 47 -54 90 -54c88 0 115 85 115 170c0 77 -25 165 -115 165c-88 0 -115 -89 -115 -165c0 -41 8 -84 25 -116zM443 583
h-99l72 136h139zM227 583h-99l72 136h139z" />
    <glyph glyph-name="racute" unicode="&#x155;" horiz-adv-x="385" 
d="M201 0h-138v390c0 37 -1 74 -5 111h130l3 -97c24 55 73 109 141 109c15 0 27 -1 40 -5l-4 -124c-13 5 -28 7 -43 7c-92 0 -124 -89 -124 -167v-224zM254 583h-99l72 136h138z" />
    <glyph glyph-name="rcaron" unicode="&#x159;" horiz-adv-x="385" 
d="M201 0h-138v390c0 37 -1 74 -5 111h130l3 -97c24 55 73 109 141 109c15 0 27 -1 40 -5l-4 -124c-13 5 -28 7 -43 7c-92 0 -124 -89 -124 -167v-224zM280 583h-117l-103 136h94l68 -86l68 86h93z" />
    <glyph glyph-name="rcommaaccent" unicode="&#x157;" horiz-adv-x="385" 
d="M201 0h-138v390c0 37 -1 74 -5 111h130l3 -97c24 55 73 109 141 109c15 0 27 -1 40 -5l-4 -124c-13 5 -28 7 -43 7c-92 0 -124 -89 -124 -167v-224zM119 -227h-86l41 159h119z" />
    <glyph glyph-name="sacute" unicode="&#x15b;" horiz-adv-x="446" 
d="M44 13l6 105c44 -23 91 -34 138 -34c53 0 87 15 87 58c0 86 -234 55 -234 218c0 113 115 153 207 153c49 0 99 -8 138 -19l-6 -100c-40 16 -81 24 -124 24c-35 0 -82 -8 -82 -51c0 -79 232 -41 232 -215c0 -121 -109 -163 -210 -163c-57 0 -104 7 -152 24zM259 583h-99
l72 136h138z" />
    <glyph glyph-name="scircumflex" unicode="&#x15d;" horiz-adv-x="446" 
d="M44 13l6 105c44 -23 91 -34 138 -34c53 0 87 15 87 58c0 86 -234 55 -234 218c0 113 115 153 207 153c49 0 99 -8 138 -19l-6 -100c-40 16 -81 24 -124 24c-35 0 -82 -8 -82 -51c0 -79 232 -41 232 -215c0 -121 -109 -163 -210 -163c-57 0 -104 7 -152 24zM158 583h-93
l103 136h117l103 -136h-94l-68 86z" />
    <glyph glyph-name="scaron" unicode="&#x161;" horiz-adv-x="446" 
d="M44 13l6 105c44 -23 91 -34 138 -34c53 0 87 15 87 58c0 86 -234 55 -234 218c0 113 115 153 207 153c49 0 99 -8 138 -19l-6 -100c-40 16 -81 24 -124 24c-35 0 -82 -8 -82 -51c0 -79 232 -41 232 -215c0 -121 -109 -163 -210 -163c-57 0 -104 7 -152 24zM286 583h-117
l-103 136h94l68 -86l68 86h93z" />
    <glyph glyph-name="scommaaccent" unicode="&#x219;" horiz-adv-x="446" 
d="M44 13l6 105c44 -23 91 -34 138 -34c53 0 87 15 87 58c0 86 -234 55 -234 218c0 113 115 153 207 153c49 0 99 -8 138 -19l-6 -100c-40 16 -81 24 -124 24c-35 0 -82 -8 -82 -51c0 -79 232 -41 232 -215c0 -121 -109 -163 -210 -163c-57 0 -104 7 -152 24zM220 -227h-86
l41 159h119z" />
    <glyph glyph-name="tcaron" unicode="&#x165;" horiz-adv-x="379" 
d="M355 100l4 -92c-36 -12 -76 -19 -115 -19c-115 0 -142 73 -142 178v244h-90v91h90v102l138 45v-147h112v-91h-112v-246c0 -43 11 -76 60 -76c19 0 37 4 55 11zM373 557h-84l19 162h109z" />
    <glyph glyph-name="tcommaaccent" unicode="&#x163;" horiz-adv-x="379" 
d="M355 100l4 -92c-36 -12 -76 -19 -115 -19c-115 0 -142 73 -142 178v244h-90v91h90v102l138 45v-147h112v-91h-112v-246c0 -43 11 -76 60 -76c19 0 37 4 55 11zM205 -227h-86l41 159h119z" />
    <glyph glyph-name="uni021B" unicode="&#x21b;" horiz-adv-x="379" 
d="M355 100l4 -92c-36 -12 -76 -19 -115 -19c-115 0 -142 73 -142 178v244h-90v91h90v102l138 45v-147h112v-91h-112v-246c0 -43 11 -76 60 -76c19 0 37 4 55 11zM205 -227h-86l41 159h119z" />
    <glyph glyph-name="ugrave" unicode="&#xf9;" horiz-adv-x="582" 
d="M525 0h-130l-3 84c-33 -64 -91 -95 -162 -95c-121 0 -169 74 -169 189v324h138v-293c0 -60 8 -120 83 -120c78 0 100 70 100 137v276h138v-389c0 -37 1 -76 5 -113zM359 583h-98l-112 136h138z" />
    <glyph glyph-name="uacute" unicode="&#xfa;" horiz-adv-x="582" 
d="M525 0h-130l-3 84c-33 -64 -91 -95 -162 -95c-121 0 -169 74 -169 189v324h138v-293c0 -60 8 -120 83 -120c78 0 100 70 100 137v276h138v-389c0 -37 1 -76 5 -113zM320 583h-99l72 136h138z" />
    <glyph glyph-name="ucircumflex" unicode="&#xfb;" horiz-adv-x="582" 
d="M525 0h-130l-3 84c-33 -64 -91 -95 -162 -95c-121 0 -169 74 -169 189v324h138v-293c0 -60 8 -120 83 -120c78 0 100 70 100 137v276h138v-389c0 -37 1 -76 5 -113zM223 583h-93l103 136h117l103 -136h-94l-68 86z" />
    </font>
</defs>
</svg>
