<?xml version="1.0" standalone="no"?>
<!DOCTYPE svg PUBLIC "-//W3C//DTD SVG 1.1//EN" "http://www.w3.org/Graphics/SVG/1.1/DTD/svg11.dtd" >
<svg>
<metadata>
Created by FontForge 20120731 at Tue Nov 26 20:22:32 2013
 By World Wide Web Server
Copyright (c) 2008 Linotype GmbH, www.linotype.com. All rights reserved. This font software may not be reproduced, modified, disclosed or transferred without the express written approval of Linotype GmbH. Frutiger is a trademark of Linotype Corp. registered in the U.S. Patent and Trademark Office and may be registered in certain other jurisdictions in the name of Linotype Corp. or its licensee Linotype GmbH. This typeface is original artwork of Adrian Frutiger and Linotype Design Studio. The design may be protected in certain jurisdictions.
</metadata>
<defs>
<font id="FrutigerNextLTW1G-Regular" horiz-adv-x="400" >
  <font-face 
    font-family="Frutiger Next LT W1G"
    font-weight="400"
    font-stretch="normal"
    units-per-em="1000"
    panose-1="2 11 5 3 4 2 4 2 2 3"
    ascent="721"
    descent="-279"
    x-height="498"
    cap-height="667"
    bbox="-165 -302 1186 905"
    underline-thickness="50"
    underline-position="-50"
    stemh="52"
    stemv="58"
    unicode-range="U+000D-FB04"
  />
<missing-glyph horiz-adv-x="512" 
d="M269 117h-59v64h59v-64zM263 241h-47v9c0 123 112 131 112 236c0 44 -31 77 -82 77c-33 0 -66 -8 -98 -21l-4 47c33 13 63 20 102 20c79 0 134 -44 134 -124c0 -114 -117 -129 -117 -233v-11zM512 0h-512v718h512v-718zM50 667v-617h412v617h-412z" />
    <glyph glyph-name="napostrophe" unicode="&#x22;n" horiz-adv-x="580" 
d="M187 0h-73v381c0 39 -1 78 -5 117h67l3 -86c35 64 89 96 161 96c128 0 167 -84 167 -199v-309h-72v295c0 79 -16 151 -112 151c-104 0 -136 -90 -136 -178v-268zM11 504h-59l58 217h84z" />
    <glyph glyph-name="IJ" unicode="IJ" horiz-adv-x="556" 
d="M164 0h-79v667h79v-667zM241 2l6 65c19 -8 37 -9 57 -9c73 0 97 58 97 119v490h79v-492c0 -107 -48 -186 -162 -186c-27 0 -53 4 -77 13z" />
    <glyph glyph-name="ij" unicode="ij" horiz-adv-x="435" 
d="M146 609h-73v87h73v-87zM146 0h-73v498h73v-498zM362 609h-72v87h72v-87zM185 -221l6 63c11 -4 22 -6 34 -6c60 0 65 45 65 93v569h72v-580c0 -80 -23 -145 -115 -145c-21 0 -42 1 -62 6z" />
    <glyph glyph-name="fi" unicode="fi" horiz-adv-x="524" 
d="M191 0h-73v440h-97v58h97v64c0 71 12 169 134 169c19 0 47 -1 64 -10l-6 -60c-15 7 -32 9 -48 9c-61 0 -72 -49 -72 -105v-67h112v-58h-111v-440zM451 609h-73v87h73v-87zM451 0h-73v498h73v-498z" />
    <glyph glyph-name="fl" unicode="fl" horiz-adv-x="524" 
d="M191 0h-73v440h-97v58h97v64c0 71 12 169 134 169c19 0 47 -1 64 -10l-6 -60c-15 7 -32 9 -48 9c-61 0 -72 -49 -72 -105v-67h112v-58h-111v-440zM451 0h-73v721h73v-721z" />
    <glyph glyph-name="f_f_i" unicode="ffi" horiz-adv-x="829" 
d="M191 0h-73v440h-97v58h97v64c0 71 12 169 134 169c19 0 47 -1 64 -10l-6 -60c-15 7 -32 9 -48 9c-61 0 -72 -49 -72 -105v-67h112v-58h-111v-440zM497 0h-73v440h-97v58h97v64c0 71 12 169 134 169c19 0 47 -1 64 -10l-6 -60c-15 7 -32 9 -48 9c-61 0 -72 -49 -72 -105
v-67h112v-58h-111v-440zM757 609h-73v87h73v-87zM757 0h-73v498h73v-498z" />
    <glyph glyph-name="f_f_l" unicode="ffl" horiz-adv-x="829" 
d="M191 0h-73v440h-97v58h97v64c0 71 12 169 134 169c19 0 47 -1 64 -10l-6 -60c-15 7 -32 9 -48 9c-61 0 -72 -49 -72 -105v-67h112v-58h-111v-440zM497 0h-73v440h-97v58h97v64c0 71 12 169 134 169c19 0 47 -1 64 -10l-6 -60c-15 7 -32 9 -48 9c-61 0 -72 -49 -72 -105
v-67h112v-58h-111v-440zM757 0h-73v721h73v-721z" />
    <glyph glyph-name=".notdef" horiz-adv-x="512" 
d="M269 117h-59v64h59v-64zM263 241h-47v9c0 123 112 131 112 236c0 44 -31 77 -82 77c-33 0 -66 -8 -98 -21l-4 47c33 13 63 20 102 20c79 0 134 -44 134 -124c0 -114 -117 -129 -117 -233v-11zM512 0h-512v718h512v-718zM50 667v-617h412v617h-412z" />
    <glyph glyph-name=".null" horiz-adv-x="1000" 
 />
    <glyph glyph-name="CR" unicode="&#xd;" horiz-adv-x="0" 
 />
    <glyph glyph-name="space" unicode=" " horiz-adv-x="271" 
 />
    <glyph glyph-name="exclam" unicode="!" horiz-adv-x="268" 
d="M166 169h-64l-13 498h90zM177 0h-86v89h86v-89z" />
    <glyph glyph-name="quotedbl" unicode="&#x22;" horiz-adv-x="415" 
d="M313 459h-67v208h67v-208zM169 459h-67v208h67v-208z" />
    <glyph glyph-name="numbersign" unicode="#" horiz-adv-x="542" 
d="M138 0h-54l31 209h-82v53h90l23 143h-82v53h90l32 209h55l-32 -209h164l32 209h55l-32 -209h82v-53h-90l-23 -143h82v-53h-90l-31 -209h-55l31 209h-164zM201 405l-23 -143h164l23 143h-164z" />
    <glyph glyph-name="dollar" unicode="$" horiz-adv-x="542" 
d="M291 -108h-55v97c-52 0 -104 8 -152 28l5 77c47 -29 98 -39 153 -39c81 0 146 36 146 124c0 60 -58 92 -119 127l-69 37c-63 34 -121 78 -121 159c0 100 78 158 169 171v101h55v-97c45 0 89 -6 130 -21l-6 -71c-35 19 -86 26 -127 26c-69 0 -142 -26 -142 -106
c0 -51 47 -84 100 -111l70 -37c70 -38 140 -84 140 -177c0 -108 -77 -171 -177 -187v-101z" />
    <glyph glyph-name="percent" unicode="%" horiz-adv-x="900" 
d="M604 8c-60 38 -77 115 -77 187c0 91 33 206 154 206c123 0 154 -115 154 -206c0 -93 -31 -206 -154 -206c-31 0 -57 6 -77 19zM269 -24h-59l424 715h59zM142 284c-60 38 -77 115 -77 187c0 91 34 206 155 206c123 0 154 -115 154 -206c0 -93 -31 -206 -154 -206
c-31 0 -57 6 -78 19zM605 96c12 -31 35 -54 76 -54c82 0 89 93 89 153c0 62 -5 153 -89 153c-81 0 -89 -93 -89 -153c0 -31 1 -68 13 -99zM144 372c12 -31 35 -54 76 -54c82 0 89 93 89 153c0 62 -5 153 -89 153c-81 0 -89 -93 -89 -153c0 -31 1 -68 13 -99z" />
    <glyph glyph-name="ampersand" unicode="&#x26;" horiz-adv-x="643" 
d="M519 315v-297c-61 -19 -143 -29 -210 -29c-130 0 -254 44 -254 189c0 95 72 162 164 167c-95 9 -148 59 -148 152c0 119 117 180 235 180c56 0 105 -9 156 -28l-4 -69c-49 23 -97 35 -153 35c-80 0 -159 -41 -159 -118c0 -101 75 -120 163 -120h135v79h75v-79h104v-62
h-104zM444 315h-135c-93 0 -177 -33 -177 -137c0 -101 90 -126 177 -126c48 0 90 5 135 20v243z" />
    <glyph glyph-name="quotesingle" unicode="'" horiz-adv-x="271" 
d="M169 459h-67v208h67v-208z" />
    <glyph glyph-name="parenleft" unicode="(" horiz-adv-x="269" 
d="M263 -128h-55c-83 129 -156 268 -156 425c0 156 74 296 156 424h55c-70 -134 -138 -270 -138 -424c0 -155 68 -291 138 -425z" />
    <glyph glyph-name="parenright" unicode=")" horiz-adv-x="269" 
d="M62 -128h-55c69 134 139 270 139 425c0 153 -70 291 -139 424h55c82 -128 156 -268 156 -424c0 -157 -73 -296 -156 -425z" />
    <glyph glyph-name="asterisk" unicode="*" horiz-adv-x="401" 
d="M143 353l-54 32l73 110l-116 37l20 61l111 -51l-8 125h65l-9 -125l110 51l20 -61l-114 -37l72 -110l-54 -32l-58 112z" />
    <glyph glyph-name="plus" unicode="+" horiz-adv-x="542" 
d="M238 215h-218v60h218v215h66v-215h219v-60h-219v-215h-66v215z" />
    <glyph glyph-name="comma" unicode="," horiz-adv-x="271" 
d="M97 -128h-59l58 217h84z" />
    <glyph glyph-name="hyphen" unicode="-" horiz-adv-x="320" 
d="M281 277h-242v66h242v-66z" />
    <glyph glyph-name="period" unicode="." horiz-adv-x="271" 
d="M179 0h-86v89h86v-89z" />
    <glyph glyph-name="slash" unicode="/" horiz-adv-x="290" 
d="M50 0h-71l262 667h70z" />
    <glyph glyph-name="zero" unicode="0" horiz-adv-x="542" 
d="M155 21c-90 62 -110 197 -110 312c0 148 42 344 226 344c185 0 227 -197 227 -344c0 -148 -41 -344 -227 -344c-47 0 -86 11 -116 32zM147 153c20 -56 56 -99 124 -99c133 0 146 175 146 279c0 107 -13 279 -146 279s-145 -175 -145 -279c0 -53 2 -123 21 -180z" />
    <glyph glyph-name="one" unicode="1" horiz-adv-x="542" 
d="M340 0h-78v581l-111 -95l-38 52l158 129h69v-667z" />
    <glyph glyph-name="two" unicode="2" horiz-adv-x="542" 
d="M463 0h-412v63l149 162c112 122 168 186 168 272c0 69 -57 113 -124 113c-60 0 -113 -18 -162 -45l-6 69c53 25 110 43 170 43c111 0 203 -55 203 -176c0 -108 -75 -188 -189 -313l-112 -123h315v-65z" />
    <glyph glyph-name="three" unicode="3" horiz-adv-x="542" 
d="M48 15l6 69c51 -24 107 -30 156 -30c84 0 175 38 175 140c0 91 -83 126 -159 126h-91v63h78c84 0 161 26 161 122c0 80 -76 107 -148 107c-51 0 -106 -12 -153 -33l-6 68c53 19 112 30 169 30c104 0 218 -44 218 -166c0 -86 -67 -141 -139 -157c84 -11 152 -65 152 -157
c0 -142 -118 -208 -254 -208c-57 0 -110 6 -165 26z" />
    <glyph glyph-name="four" unicode="4" horiz-adv-x="542" 
d="M345 151h-319v73l301 443h95v-451h96v-65h-96v-151h-77v151zM345 594l-254 -378h254v378z" />
    <glyph glyph-name="five" unicode="5" horiz-adv-x="542" 
d="M69 13l6 73c44 -23 93 -31 142 -31c92 0 175 51 175 151s-74 141 -166 141c-43 0 -85 -7 -141 -26l7 346h349v-64h-276l-6 -208c31 11 63 13 95 13c121 0 219 -68 219 -197c0 -144 -115 -222 -251 -222c-51 0 -106 5 -153 24z" />
    <glyph glyph-name="six" unicode="6" horiz-adv-x="542" 
d="M178 103c24 -31 59 -50 106 -50c85 0 137 66 137 155c0 84 -43 148 -132 148c-81 0 -148 -56 -148 -140c0 -43 13 -82 37 -113zM466 662l-6 -69c-31 13 -67 19 -108 19c-157 0 -218 -141 -223 -278c32 47 92 86 168 86c125 0 203 -83 203 -207c0 -135 -90 -224 -217 -224
c-183 0 -228 161 -228 311c0 201 84 377 303 377c38 0 74 -5 108 -15z" />
    <glyph glyph-name="seven" unicode="7" horiz-adv-x="542" 
d="M215 0h-88l267 600h-341v67h419v-65z" />
    <glyph glyph-name="eight" unicode="8" horiz-adv-x="542" 
d="M386 259c-25 22 -63 42 -115 60c-87 -26 -151 -67 -151 -147c0 -83 73 -119 151 -119c77 0 152 39 152 122c0 35 -12 63 -37 84zM224 396l48 -21c60 24 130 62 130 132c0 76 -64 107 -131 107s-130 -34 -130 -107c0 -54 38 -87 83 -111zM132 320c19 10 39 19 61 27
c-79 37 -131 80 -131 161c0 116 116 169 209 169c101 0 210 -48 210 -167c0 -80 -66 -129 -137 -161c92 -32 160 -76 160 -179c0 -127 -124 -181 -233 -181c-112 0 -232 52 -232 175c0 76 38 126 93 156z" />
    <glyph glyph-name="nine" unicode="9" horiz-adv-x="542" 
d="M155 352c22 -28 55 -42 100 -42c81 0 148 56 148 140s-51 163 -143 163c-85 0 -137 -66 -137 -155c0 -42 11 -77 32 -106zM78 4l6 69c34 -13 70 -19 108 -19c157 0 218 141 223 278c-29 -47 -93 -86 -168 -86c-125 0 -203 83 -203 207c0 135 90 224 217 224
c183 0 228 -162 228 -311c0 -201 -84 -377 -303 -377c-39 0 -73 4 -108 15z" />
    <glyph glyph-name="colon" unicode=":" horiz-adv-x="271" 
d="M179 409h-86v89h86v-89zM179 0h-86v89h86v-89z" />
    <glyph glyph-name="semicolon" unicode=";" horiz-adv-x="271" 
d="M178 409h-86v89h86v-89zM97 -128h-59l58 217h84z" />
    <glyph glyph-name="less" unicode="&#x3c;" horiz-adv-x="542" 
d="M523 11l-503 200v65l503 202v-66l-428 -169l428 -167v-65z" />
    <glyph glyph-name="equal" unicode="=" horiz-adv-x="542" 
d="M523 309h-503v60h503v-60zM523 119h-503v60h503v-60z" />
    <glyph glyph-name="greater" unicode="&#x3e;" horiz-adv-x="542" 
d="M522 211l-503 -200v65l428 167l-428 169v66l503 -202v-65z" />
    <glyph glyph-name="question" unicode="?" horiz-adv-x="406" 
d="M202 169h-71v13c0 171 156 180 156 322c0 69 -51 106 -118 106c-47 0 -92 -11 -135 -26l-6 68c47 15 88 25 148 25c107 0 192 -57 192 -169c0 -157 -166 -174 -166 -324v-15zM210 0h-87v89h87v-89z" />
    <glyph glyph-name="at" unicode="@" horiz-adv-x="1040" 
d="M620 244l43 199c-25 5 -42 7 -66 7c-149 0 -243 -145 -243 -288c0 -72 35 -115 95 -115c82 0 147 89 171 197zM829 -108l9 -62c-95 -40 -183 -57 -303 -57c-279 0 -466 174 -466 448c0 302 211 510 495 510c232 0 406 -146 406 -406c0 -195 -111 -336 -247 -336
c-64 0 -114 36 -115 119c-45 -79 -104 -119 -175 -119c-88 0 -149 61 -149 169c0 191 128 350 325 350c40 0 89 -7 132 -20l-69 -321c-4 -17 -6 -37 -6 -48c0 -47 22 -76 67 -76c91 0 172 114 172 281c0 231 -153 348 -348 348c-240 0 -421 -184 -421 -451
c0 -241 160 -389 409 -389c104 0 188 17 284 60z" />
    <glyph glyph-name="A" unicode="A" horiz-adv-x="634" 
d="M81 0h-77l266 667h93l267 -667h-82l-69 181h-327zM316 603l-141 -358h280z" />
    <glyph glyph-name="B" unicode="B" horiz-adv-x="549" 
d="M236 0h-151v667h177c109 0 214 -39 214 -165c0 -83 -49 -134 -128 -153c84 -13 147 -71 147 -159c0 -153 -131 -190 -259 -190zM163 605v-229h75c81 0 157 27 157 121c0 84 -70 108 -141 108h-91zM163 317v-255h71c84 0 179 22 179 125c0 112 -101 130 -190 130h-60z" />
    <glyph glyph-name="C" unicode="C" horiz-adv-x="589" 
d="M547 86l6 -67c-44 -23 -110 -30 -159 -30c-211 0 -343 136 -343 344c0 199 140 344 343 344c48 0 113 -7 157 -26l-6 -71c-43 20 -100 29 -147 29c-165 0 -264 -119 -264 -276c0 -164 95 -276 263 -276c51 0 103 6 150 29z" />
    <glyph glyph-name="D" unicode="D" horiz-adv-x="651" 
d="M164 602v-537h56c188 0 301 83 301 278c0 168 -96 259 -265 259h-92zM222 0h-137v667h174c213 0 345 -107 345 -324c0 -236 -161 -343 -382 -343z" />
    <glyph glyph-name="E" unicode="E" horiz-adv-x="486" 
d="M440 0h-355v667h344v-65h-265v-228h252v-63h-252v-246h276v-65z" />
    <glyph glyph-name="F" unicode="F" horiz-adv-x="456" 
d="M164 0h-79v667h335v-65h-256v-230h245v-63h-245v-309z" />
    <glyph glyph-name="G" unicode="G" horiz-adv-x="669" 
d="M596 359v-337c-68 -24 -118 -33 -187 -33c-212 0 -358 124 -358 344c0 215 155 344 358 344c57 0 130 -10 182 -33l-6 -72c-52 29 -112 38 -171 38c-165 0 -280 -99 -280 -277c0 -172 105 -277 276 -277c43 0 71 3 110 14v226h-150v63h226z" />
    <glyph glyph-name="H" unicode="H" horiz-adv-x="653" 
d="M164 0h-79v667h79v-289h325v289h80v-667h-80v309h-325v-309z" />
    <glyph glyph-name="I" unicode="I" horiz-adv-x="248" 
d="M164 0h-79v667h79v-667z" />
    <glyph glyph-name="J" unicode="J" horiz-adv-x="319" 
d="M4 2l6 65c19 -8 37 -9 57 -9c73 0 97 58 97 119v490h79v-492c0 -107 -48 -186 -162 -186c-27 0 -53 4 -77 13z" />
    <glyph glyph-name="K" unicode="K" horiz-adv-x="586" 
d="M164 0h-79v667h79v-301l292 301h98l-315 -313l343 -354h-106l-312 333v-333z" />
    <glyph glyph-name="L" unicode="L" horiz-adv-x="452" 
d="M434 0h-349v667h79v-599h270v-68z" />
    <glyph glyph-name="M" unicode="M" horiz-adv-x="869" 
d="M159 0h-74v667h122l229 -579l227 579h122v-667h-77v602l-236 -602h-77l-236 602v-602z" />
    <glyph glyph-name="N" unicode="N" horiz-adv-x="676" 
d="M159 0h-74v667h111l321 -585v585h74v-667h-111l-321 585v-585z" />
    <glyph glyph-name="O" unicode="O" horiz-adv-x="701" 
d="M217 16c-112 54 -166 173 -166 317c0 184 99 344 300 344c205 0 300 -155 300 -344c0 -185 -99 -344 -300 -344c-51 0 -96 9 -134 27zM185 144c36 -53 90 -89 166 -89c156 0 216 143 216 278s-60 278 -216 278c-153 0 -217 -145 -217 -278c0 -67 16 -136 51 -189z" />
    <glyph glyph-name="P" unicode="P" horiz-adv-x="508" 
d="M163 603v-258h51c101 0 184 22 184 135c0 92 -73 123 -171 123h-64zM164 0h-79v667h156c133 0 239 -50 239 -186c0 -148 -115 -200 -251 -200h-65v-281z" />
    <glyph glyph-name="Q" unicode="Q" horiz-adv-x="701" 
d="M621 -128h-103l-118 121c-16 -3 -32 -4 -49 -4c-205 0 -300 154 -300 344c0 184 99 344 300 344c205 0 300 -155 300 -344c0 -140 -56 -267 -171 -318zM185 144c36 -53 90 -89 166 -89c156 0 216 143 216 278s-60 278 -216 278c-153 0 -217 -145 -217 -278
c0 -67 16 -136 51 -189z" />
    <glyph glyph-name="R" unicode="R" horiz-adv-x="548" 
d="M163 603v-231h68c77 0 163 29 163 124c0 92 -82 107 -167 107h-64zM164 0h-79v667h164c109 0 227 -31 227 -164c0 -89 -68 -154 -151 -165c43 -9 72 -41 91 -85l109 -253h-89l-92 220c-29 69 -51 88 -130 88h-50v-308z" />
    <glyph glyph-name="S" unicode="S" horiz-adv-x="484" 
d="M48 20l9 74c47 -29 98 -39 154 -39c76 0 136 33 136 121c0 70 -53 103 -115 135l-54 29c-64 35 -115 76 -115 164c0 121 107 173 215 173c47 0 88 -7 129 -24l-9 -71c-36 20 -78 29 -119 29c-70 0 -135 -24 -135 -104c0 -55 40 -86 93 -114l54 -29
c75 -40 138 -81 138 -183c0 -125 -103 -192 -217 -192c-57 0 -113 8 -164 31z" />
    <glyph glyph-name="T" unicode="T" horiz-adv-x="496" 
d="M288 0h-80v599h-198v68h477v-68h-199v-599z" />
    <glyph glyph-name="U" unicode="U" horiz-adv-x="650" 
d="M156 667v-431c0 -107 58 -179 169 -179s170 72 170 179v431h79v-431c0 -152 -97 -247 -249 -247c-153 0 -248 93 -248 246v432h79z" />
    <glyph glyph-name="V" unicode="V" horiz-adv-x="598" 
d="M342 0h-87l-249 667h84l210 -591l213 591h79z" />
    <glyph glyph-name="W" unicode="W" horiz-adv-x="922" 
d="M297 0h-95l-191 667h81l161 -588l166 588h92l165 -588l161 588h75l-190 -667h-94l-165 589z" />
    <glyph glyph-name="X" unicode="X" horiz-adv-x="602" 
d="M96 0h-88l247 350l-223 317h92l182 -268l181 268h86l-221 -317l243 -350h-95l-198 303z" />
    <glyph glyph-name="Y" unicode="Y" horiz-adv-x="576" 
d="M327 0h-79v278l-246 389h88l200 -325l200 325h85l-248 -389v-278z" />
    <glyph glyph-name="Z" unicode="Z" horiz-adv-x="494" 
d="M468 0h-442v66l348 535h-336v66h422v-66l-345 -535h353v-66z" />
    <glyph glyph-name="bracketleft" unicode="[" horiz-adv-x="270" 
d="M256 -128h-165v849h165v-52h-96v-745h96v-52z" />
    <glyph glyph-name="backslash" unicode="\" horiz-adv-x="290" 
d="M311 0h-70l-262 667h71z" />
    <glyph glyph-name="bracketright" unicode="]" horiz-adv-x="270" 
d="M181 -128h-166v52h97v745h-97v52h166v-849z" />
    <glyph glyph-name="asciicircum" unicode="^" horiz-adv-x="600" 
d="M169 249h-70l170 418h63l169 -418h-69l-133 342z" />
    <glyph glyph-name="underscore" unicode="_" horiz-adv-x="500" 
d="M500 -125h-500v50h500v-50z" />
    <glyph glyph-name="grave" unicode="`" horiz-adv-x="218" 
d="M154 585h-59l-97 136h85z" />
    <glyph glyph-name="a" unicode="a" horiz-adv-x="493" 
d="M348 250h-37c-93 0 -202 -10 -202 -110c0 -67 47 -92 96 -92c106 0 143 80 143 172v30zM426 0h-71l-3 80c-29 -64 -92 -91 -155 -91c-89 0 -163 47 -163 148c0 128 112 166 258 166h56v24c0 76 -29 123 -112 123c-51 0 -98 -14 -141 -42l-6 65c43 21 103 35 150 35
c125 0 181 -61 181 -186v-216c0 -37 1 -71 6 -106z" />
    <glyph glyph-name="b" unicode="b" horiz-adv-x="543" 
d="M140 0h-67v721h73v-307c25 59 90 94 153 94c152 0 202 -125 202 -257c0 -128 -55 -262 -203 -262c-69 0 -124 30 -156 94zM173 118c23 -39 58 -67 111 -67c111 0 138 109 138 200c0 92 -25 195 -138 195c-104 0 -141 -107 -141 -195c0 -44 9 -93 30 -133z" />
    <glyph glyph-name="c" unicode="c" horiz-adv-x="443" 
d="M405 73l5 -65c-43 -15 -85 -19 -129 -19c-153 0 -238 117 -238 262c0 148 93 257 245 257c41 0 83 -8 122 -21l-6 -65c-32 15 -68 25 -104 25c-120 0 -179 -84 -179 -196c0 -105 59 -201 174 -201c39 0 75 8 110 23z" />
    <glyph glyph-name="d" unicode="d" horiz-adv-x="543" 
d="M476 0h-68l-6 83c-32 -64 -87 -94 -156 -94c-148 0 -203 134 -203 262c0 132 56 257 205 257c63 0 125 -35 150 -94v307h73v-563c0 -55 2 -106 5 -158zM149 116c21 -37 55 -65 111 -65c106 0 140 112 140 199s-37 196 -141 196c-113 0 -138 -104 -138 -196
c0 -45 7 -95 28 -134z" />
    <glyph glyph-name="e" unicode="e" horiz-adv-x="491" 
d="M117 294h274c-5 68 -30 156 -127 156c-95 0 -144 -85 -147 -156zM462 240h-345c0 -96 51 -192 176 -192c48 0 100 14 137 38l3 -65c-43 -21 -93 -32 -140 -32c-172 0 -252 113 -252 262c0 127 73 257 222 257c155 0 199 -124 199 -256v-12z" />
    <glyph glyph-name="f" unicode="f" horiz-adv-x="316" 
d="M191 0h-73v440h-97v58h97v64c0 71 12 169 134 169c19 0 47 -1 64 -10l-6 -60c-15 7 -32 9 -48 9c-61 0 -72 -49 -72 -105v-67h112v-58h-111v-440z" />
    <glyph glyph-name="g" unicode="g" horiz-adv-x="543" 
d="M83 -201l6 71c44 -23 93 -36 144 -36c120 0 165 82 165 190v64c-31 -56 -91 -88 -154 -88c-148 0 -201 128 -201 251c0 132 56 257 203 257c71 0 124 -30 156 -94v84h69v-473c0 -155 -70 -252 -233 -252c-52 0 -104 10 -155 26zM148 124c21 -36 55 -62 111 -62
c107 0 141 104 141 188c0 87 -37 196 -140 196c-112 0 -139 -104 -139 -196c0 -43 7 -90 27 -126z" />
    <glyph glyph-name="h" unicode="h" horiz-adv-x="539" 
d="M146 0h-73v721h73v-307c32 63 83 94 154 94c122 0 166 -84 166 -199v-309h-72v296c0 79 -16 150 -112 150c-103 0 -136 -89 -136 -177v-269z" />
    <glyph glyph-name="i" unicode="i" horiz-adv-x="218" 
d="M146 609h-73v87h73v-87zM146 0h-73v498h73v-498z" />
    <glyph glyph-name="j" unicode="j" horiz-adv-x="224" 
d="M151 609h-72v87h72v-87zM-26 -221l6 63c11 -4 22 -6 34 -6c60 0 65 45 65 93v569h72v-580c0 -80 -23 -145 -115 -145c-21 0 -42 1 -62 6z" />
    <glyph glyph-name="k" unicode="k" horiz-adv-x="479" 
d="M146 0h-73v721h73v-429l211 206h91l-229 -220l256 -278h-96l-233 260v-260z" />
    <glyph glyph-name="l" unicode="l" horiz-adv-x="218" 
d="M146 0h-73v721h73v-721z" />
    <glyph glyph-name="m" unicode="m" horiz-adv-x="810" 
d="M146 0h-73v381c0 39 -1 78 -5 117h67l3 -86c33 64 83 96 149 96c83 0 131 -52 145 -104c24 62 87 104 151 104c101 0 155 -73 155 -169v-339h-73v326c0 67 -24 120 -99 120c-91 0 -124 -90 -124 -177v-269h-73v326c0 67 -23 120 -98 120c-92 0 -125 -90 -125 -177v-269z
" />
    <glyph glyph-name="n" unicode="n" horiz-adv-x="539" 
d="M146 0h-73v381c0 39 -1 78 -5 117h67l3 -86c35 64 89 96 161 96c128 0 167 -84 167 -199v-309h-72v295c0 79 -16 151 -112 151c-104 0 -136 -90 -136 -178v-268z" />
    <glyph glyph-name="o" unicode="o" horiz-adv-x="551" 
d="M174 9c-87 42 -131 133 -131 242c0 143 85 257 233 257c156 0 233 -110 233 -257c0 -144 -79 -262 -233 -262c-39 0 -73 7 -102 20zM157 114c25 -37 64 -64 119 -64c109 0 155 105 155 201c0 100 -43 196 -155 196c-110 0 -155 -100 -155 -196c0 -48 11 -98 36 -137z" />
    <glyph glyph-name="p" unicode="p" horiz-adv-x="543" 
d="M146 -216h-73v547c0 59 -2 111 -5 167h69l4 -87c27 59 92 97 158 97c152 0 202 -125 202 -257c0 -128 -55 -262 -203 -262c-65 0 -127 33 -152 92v-297zM173 118c23 -39 58 -67 111 -67c111 0 138 109 138 200c0 92 -25 195 -138 195c-104 0 -141 -107 -141 -195
c0 -44 9 -93 30 -133z" />
    <glyph glyph-name="q" unicode="q" horiz-adv-x="543" 
d="M471 -216h-73v299c-25 -59 -88 -94 -152 -94c-148 0 -203 134 -203 262c0 132 55 257 202 257c71 0 126 -30 158 -94v84h68v-714zM149 117c21 -39 55 -66 111 -66c106 0 140 113 140 200c0 88 -37 195 -141 195c-113 0 -138 -103 -138 -195c0 -45 7 -95 28 -134z" />
    <glyph glyph-name="r" unicode="r" horiz-adv-x="328" 
d="M146 0h-73v381c0 39 -1 78 -5 117h67l4 -94c19 51 71 104 132 104c15 0 27 0 42 -4l-4 -73c-13 4 -27 6 -40 6c-101 0 -123 -112 -123 -190v-247z" />
    <glyph glyph-name="s" unicode="s" horiz-adv-x="389" 
d="M42 12l9 68c40 -21 77 -31 122 -31c56 0 95 27 95 83c0 121 -215 86 -215 238c0 100 83 138 161 138c41 0 78 -8 113 -21l-10 -63c-31 15 -67 25 -102 25c-39 0 -89 -15 -89 -75c0 -100 217 -69 217 -236c0 -96 -81 -149 -169 -149c-48 0 -92 6 -132 23z" />
    <glyph glyph-name="t" unicode="t" horiz-adv-x="328" 
d="M303 65l4 -61c-25 -11 -54 -15 -81 -15c-102 0 -115 74 -115 165v287h-94v57h94v112l72 25v-137h113v-57h-113v-306c0 -44 12 -83 64 -83c20 0 37 5 56 13z" />
    <glyph glyph-name="u" unicode="u" horiz-adv-x="535" 
d="M144 498v-295c0 -79 15 -151 110 -151c104 0 136 90 136 178v268h72v-381c0 -39 1 -78 5 -117h-67l-2 86c-35 -64 -88 -97 -161 -97c-127 0 -166 85 -166 201v308h73z" />
    <glyph glyph-name="v" unicode="v" horiz-adv-x="443" 
d="M264 0h-86l-167 498h79l133 -434l134 434h76z" />
    <glyph glyph-name="w" unicode="w" horiz-adv-x="771" 
d="M259 0h-88l-158 498h78l127 -430l129 430h87l129 -430l126 430h70l-155 -498h-89l-127 429z" />
    <glyph glyph-name="x" unicode="x" horiz-adv-x="452" 
d="M94 0h-81l172 261l-155 237h85l116 -191l113 191h81l-153 -237l168 -261h-86l-126 215z" />
    <glyph glyph-name="y" unicode="y" horiz-adv-x="444" 
d="M31 -219l6 63c15 -5 29 -9 45 -9c55 0 82 80 93 115l10 33l-173 515h79l134 -429l133 429h76l-200 -585c-27 -77 -67 -140 -143 -140c-24 0 -37 3 -60 8z" />
    <glyph glyph-name="z" unicode="z" horiz-adv-x="424" 
d="M395 0h-365v59l281 381h-270v58h352v-59l-281 -381h283v-58z" />
    <glyph glyph-name="braceleft" unicode="{" horiz-adv-x="272" 
d="M264 -128h-60c-67 0 -98 58 -98 118v160c0 48 -14 122 -75 122v50c61 0 75 76 75 124v158c0 60 32 117 99 117h59v-50h-46c-38 0 -44 -58 -44 -86v-155c0 -53 -29 -117 -84 -133c55 -16 84 -81 84 -134v-153c0 -29 6 -88 44 -88h46v-50z" />
    <glyph glyph-name="bar" unicode="|" horiz-adv-x="216" 
d="M145 -216h-73v991h73v-991z" />
    <glyph glyph-name="braceright" unicode="}" horiz-adv-x="272" 
d="M68 -128h-60v50h46c38 0 44 59 44 88v153c0 53 27 118 84 134c-57 16 -84 79 -84 133v155c0 28 -6 86 -44 86h-46v50h59c66 0 100 -57 100 -117v-158c0 -48 13 -124 74 -124v-50c-61 0 -74 -74 -74 -122v-160c0 -60 -32 -118 -99 -118z" />
    <glyph glyph-name="asciitilde" unicode="~" horiz-adv-x="542" 
d="M53 172h-45c11 71 42 140 124 140c91 0 202 -74 280 -74c47 0 70 38 79 79h43c-5 -68 -43 -138 -121 -138c-94 0 -200 72 -281 72c-47 0 -72 -36 -79 -79z" />
    <glyph glyph-name="uni00A0" unicode="&#xa0;" horiz-adv-x="271" 
 />
    <glyph glyph-name="Agrave" unicode="&#xc0;" horiz-adv-x="634" 
d="M81 0h-77l266 667h93l267 -667h-82l-69 181h-327zM316 603l-141 -358h280zM359 724h-59l-97 136h85z" />
    <glyph glyph-name="Aacute" unicode="&#xc1;" horiz-adv-x="634" 
d="M81 0h-77l266 667h93l267 -667h-82l-69 181h-327zM316 603l-141 -358h280zM336 724h-61l72 136h85z" />
    <glyph glyph-name="Acircumflex" unicode="&#xc2;" horiz-adv-x="634" 
d="M81 0h-77l266 667h93l267 -667h-82l-69 181h-327zM316 603l-141 -358h280zM242 724h-65l103 136h74l103 -136h-65l-75 96z" />
    <glyph glyph-name="Atilde" unicode="&#xc3;" horiz-adv-x="634" 
d="M81 0h-77l266 667h93l267 -667h-82l-69 181h-327zM316 603l-141 -358h280zM219 738h-48c0 47 33 100 89 100c48 0 85 -41 117 -41c25 0 39 26 39 45h47c0 -43 -33 -99 -85 -99c-50 0 -78 40 -116 40c-24 0 -43 -25 -43 -45z" />
    <glyph glyph-name="Adieresis" unicode="&#xc4;" horiz-adv-x="634" 
d="M81 0h-77l266 667h93l267 -667h-82l-69 181h-327zM316 603l-141 -358h280zM273 748h-66v87h66v-87zM428 748h-66v87h66v-87z" />
    <glyph glyph-name="Amacron" unicode="&#x100;" horiz-adv-x="634" 
d="M81 0h-77l266 667h93l267 -667h-82l-69 181h-327zM316 603l-141 -358h280zM440 767h-245v51h245v-51z" />
    <glyph glyph-name="Abreve" unicode="&#x102;" horiz-adv-x="634" 
d="M81 0h-77l266 667h93l267 -667h-82l-69 181h-327zM316 603l-141 -358h280zM197 849h43c4 -40 31 -71 76 -71s72 31 77 71h43c0 -28 -22 -117 -120 -117c-97 0 -119 89 -119 117z" />
    <glyph glyph-name="Aring" unicode="&#xc5;" horiz-adv-x="634" 
d="M81 0h-77l266 667h93l267 -667h-82l-69 181h-327zM316 603l-141 -358h280zM256 792c0 -33 27 -59 59 -59c33 0 60 26 60 59c0 32 -27 58 -60 58s-59 -26 -59 -58zM278 706c-34 14 -58 47 -58 86c0 52 43 92 95 92s96 -40 96 -92s-44 -93 -96 -93c-13 0 -26 2 -37 7z" />
    <glyph glyph-name="Aringacute" unicode="&#x1fa;" horiz-adv-x="634" 
d="M548 0l-75 181h-316l-76 -181h-77l251 587c-20 17 -33 42 -33 71c0 52 43 93 95 93s96 -41 96 -93c0 -29 -14 -55 -35 -72l252 -586h-82zM316 559l-132 -314h262zM258 658c0 -34 27 -58 59 -58c34 0 60 24 60 58c0 33 -26 59 -60 59s-59 -26 -59 -59zM335 779h-64
l103 100h95z" />
    <glyph glyph-name="Aogonek" unicode="&#x104;" horiz-adv-x="634" 
d="M316 603l-141 -358h280zM81 0h-77l266 667h93l267 -667h-26c-51 -29 -73 -61 -73 -93c0 -35 26 -47 49 -47c21 0 36 4 59 15l11 -35c-24 -12 -46 -20 -81 -20c-57 0 -92 35 -92 76c0 46 26 81 79 104h-8l-69 181h-327z" />
    <glyph glyph-name="AE" unicode="&#xc6;" horiz-adv-x="854" 
d="M82 0h-86l418 667h382v-65h-261v-229h247v-62h-247v-246h273v-65h-351v181h-264zM457 612l-227 -367h227v367z" />
    <glyph glyph-name="AEacute" unicode="&#x1fc;" horiz-adv-x="854" 
d="M82 0h-86l418 667h382v-65h-261v-229h247v-62h-247v-246h273v-65h-351v181h-264zM457 612l-227 -367h227v367zM529 724h-61l72 136h85z" />
    <glyph glyph-name="Cacute" unicode="&#x106;" horiz-adv-x="589" 
d="M547 86l6 -67c-44 -23 -110 -30 -159 -30c-211 0 -343 136 -343 344c0 199 140 344 343 344c48 0 113 -7 157 -26l-6 -71c-43 20 -100 29 -147 29c-165 0 -264 -119 -264 -276c0 -164 95 -276 263 -276c51 0 103 6 150 29zM395 724h-61l72 136h85z" />
    <glyph glyph-name="Ccircumflex" unicode="&#x108;" horiz-adv-x="589" 
d="M547 86l6 -67c-44 -23 -110 -30 -159 -30c-211 0 -343 136 -343 344c0 199 140 344 343 344c48 0 113 -7 157 -26l-6 -71c-43 20 -100 29 -147 29c-165 0 -264 -119 -264 -276c0 -164 95 -276 263 -276c51 0 103 6 150 29zM298 724h-65l103 136h74l103 -136h-65l-75 96z
" />
    <glyph glyph-name="Ccaron" unicode="&#x10c;" horiz-adv-x="589" 
d="M547 86l6 -67c-44 -23 -110 -30 -159 -30c-211 0 -343 136 -343 344c0 199 140 344 343 344c48 0 113 -7 157 -26l-6 -71c-43 20 -100 29 -147 29c-165 0 -264 -119 -264 -276c0 -164 95 -276 263 -276c51 0 103 6 150 29zM415 724h-74l-103 136h65l75 -97l75 97h65z" />
    <glyph glyph-name="Cdotaccent" unicode="&#x10a;" horiz-adv-x="589" 
d="M547 86l6 -67c-44 -23 -110 -30 -159 -30c-211 0 -343 136 -343 344c0 199 140 344 343 344c48 0 113 -7 157 -26l-6 -71c-43 20 -100 29 -147 29c-165 0 -264 -119 -264 -276c0 -164 95 -276 263 -276c51 0 103 6 150 29zM412 748h-73v87h73v-87z" />
    <glyph glyph-name="Ccedilla" unicode="&#xc7;" horiz-adv-x="589" 
d="M259 -161l13 35c25 -11 50 -17 74 -17c27 0 50 11 50 34s-20 29 -39 29c-12 0 -25 -2 -39 -7l-15 18l43 61c-182 19 -295 149 -295 341c0 199 140 344 343 344c48 0 113 -7 157 -26l-6 -71c-43 20 -100 29 -147 29c-165 0 -264 -119 -264 -276c0 -164 95 -276 263 -276
c51 0 103 6 150 29l6 -67c-44 -23 -110 -30 -159 -30h-13l-31 -42c15 3 19 4 32 4c39 0 66 -21 66 -57c0 -45 -40 -74 -101 -74c-31 0 -55 4 -88 19z" />
    <glyph glyph-name="Dcaron" unicode="&#x10e;" horiz-adv-x="651" 
d="M164 602v-537h56c188 0 301 83 301 278c0 168 -96 259 -265 259h-92zM222 0h-137v667h174c213 0 345 -107 345 -324c0 -236 -161 -343 -382 -343zM323 724h-74l-103 136h65l75 -97l75 97h65z" />
    <glyph glyph-name="Dcroat" unicode="&#x110;" horiz-adv-x="651" 
d="M164 305v-240h56c188 0 301 83 301 278c0 168 -96 259 -265 259h-92v-237h176v-60h-176zM222 0h-137v305h-74v60h74v302h174c213 0 345 -107 345 -324c0 -236 -161 -343 -382 -343z" />
    <glyph glyph-name="Eth" unicode="&#xd0;" horiz-adv-x="651" 
d="M164 305v-240h56c188 0 301 83 301 278c0 168 -96 259 -265 259h-92v-237h176v-60h-176zM222 0h-137v305h-74v60h74v302h174c213 0 345 -107 345 -324c0 -236 -161 -343 -382 -343z" />
    <glyph glyph-name="Egrave" unicode="&#xc8;" horiz-adv-x="486" 
d="M440 0h-355v667h344v-65h-265v-228h252v-63h-252v-246h276v-65zM306 724h-59l-97 136h85z" />
    <glyph glyph-name="Eacute" unicode="&#xc9;" horiz-adv-x="486" 
d="M440 0h-355v667h344v-65h-265v-228h252v-63h-252v-246h276v-65zM269 724h-61l72 136h85z" />
    <glyph glyph-name="Ecircumflex" unicode="&#xca;" horiz-adv-x="486" 
d="M440 0h-355v667h344v-65h-265v-228h252v-63h-252v-246h276v-65zM180 724h-65l103 136h74l103 -136h-65l-75 96z" />
    <glyph glyph-name="Ecaron" unicode="&#x11a;" horiz-adv-x="486" 
d="M440 0h-355v667h344v-65h-265v-228h252v-63h-252v-246h276v-65zM293 724h-74l-103 136h65l75 -97l75 97h65z" />
    <glyph glyph-name="Edieresis" unicode="&#xcb;" horiz-adv-x="486" 
d="M440 0h-355v667h344v-65h-265v-228h252v-63h-252v-246h276v-65zM214 748h-66v87h66v-87zM369 748h-66v87h66v-87z" />
    <glyph glyph-name="Emacron" unicode="&#x112;" horiz-adv-x="486" 
d="M440 0h-355v667h344v-65h-265v-228h252v-63h-252v-246h276v-65zM380 767h-245v51h245v-51z" />
    <glyph glyph-name="Ebreve" unicode="&#x114;" horiz-adv-x="486" 
d="M440 0h-355v667h344v-65h-265v-228h252v-63h-252v-246h276v-65zM138 849h43c4 -40 31 -71 76 -71s72 31 77 71h43c0 -28 -22 -117 -120 -117c-97 0 -119 89 -119 117z" />
    <glyph glyph-name="Edotaccent" unicode="&#x116;" horiz-adv-x="486" 
d="M440 0h-355v667h344v-65h-265v-228h252v-63h-252v-246h276v-65zM294 748h-73v87h73v-87z" />
    <glyph glyph-name="Eogonek" unicode="&#x118;" horiz-adv-x="486" 
d="M347 0h-262v667h344v-65h-265v-228h252v-63h-252v-246h276v-65h-48c-49 -30 -73 -61 -73 -93c0 -35 26 -47 49 -47c21 0 36 4 59 15l11 -35c-24 -12 -46 -20 -81 -20c-57 0 -92 35 -92 76c0 45 30 81 82 104z" />
    <glyph glyph-name="Gcircumflex" unicode="&#x11c;" horiz-adv-x="669" 
d="M596 359v-337c-68 -24 -118 -33 -187 -33c-212 0 -358 124 -358 344c0 215 155 344 358 344c57 0 130 -10 182 -33l-6 -72c-52 29 -112 38 -171 38c-165 0 -280 -99 -280 -277c0 -172 105 -277 276 -277c43 0 71 3 110 14v226h-150v63h226zM307 724h-65l103 136h74
l103 -136h-65l-75 96z" />
    <glyph glyph-name="Gbreve" unicode="&#x11e;" horiz-adv-x="669" 
d="M596 359v-337c-68 -24 -118 -33 -187 -33c-212 0 -358 124 -358 344c0 215 155 344 358 344c57 0 130 -10 182 -33l-6 -72c-52 29 -112 38 -171 38c-165 0 -280 -99 -280 -277c0 -172 105 -277 276 -277c43 0 71 3 110 14v226h-150v63h226zM264 849h43
c4 -40 31 -71 76 -71s72 31 77 71h43c0 -28 -22 -117 -120 -117c-97 0 -119 89 -119 117z" />
    <glyph glyph-name="Gdotaccent" unicode="&#x120;" horiz-adv-x="669" 
d="M596 359v-337c-68 -24 -118 -33 -187 -33c-212 0 -358 124 -358 344c0 215 155 344 358 344c57 0 130 -10 182 -33l-6 -72c-52 29 -112 38 -171 38c-165 0 -280 -99 -280 -277c0 -172 105 -277 276 -277c43 0 71 3 110 14v226h-150v63h226zM420 748h-73v87h73v-87z" />
    <glyph glyph-name="Gcommaaccent" unicode="&#x122;" horiz-adv-x="669" 
d="M596 359v-337c-68 -24 -118 -33 -187 -33c-212 0 -358 124 -358 344c0 215 155 344 358 344c57 0 130 -10 182 -33l-6 -72c-52 29 -112 38 -171 38c-165 0 -280 -99 -280 -277c0 -172 105 -277 276 -277c43 0 71 3 110 14v226h-150v63h226zM366 -227h-50l47 159h67z" />
    <glyph glyph-name="Hcircumflex" unicode="&#x124;" horiz-adv-x="653" 
d="M164 0h-79v667h79v-289h325v289h80v-667h-80v309h-325v-309zM255 724h-65l103 136h74l103 -136h-65l-75 96z" />
    <glyph glyph-name="Hbar" unicode="&#x126;" horiz-adv-x="653" 
d="M164 464v-117h325v117h-325zM164 0h-79v667h79v-145h325v145h80v-667h-80v280h-325v-280z" />
    <glyph glyph-name="Igrave" unicode="&#xcc;" horiz-adv-x="248" 
d="M164 0h-79v667h79v-667zM169 724h-59l-97 136h85z" />
    <glyph glyph-name="Iacute" unicode="&#xcd;" horiz-adv-x="248" 
d="M164 0h-79v667h79v-667zM141 724h-61l72 136h85z" />
    <glyph glyph-name="Ibreve" unicode="&#x12c;" horiz-adv-x="248" 
d="M164 0h-79v667h79v-667zM4 849h43c4 -40 31 -71 76 -71s72 31 77 71h43c0 -28 -22 -117 -120 -117c-97 0 -119 89 -119 117z" />
    <glyph glyph-name="Icircumflex" unicode="&#xce;" horiz-adv-x="248" 
d="M164 0h-79v667h79v-667zM49 724h-65l103 136h74l103 -136h-65l-75 96z" />
    <glyph glyph-name="Itilde" unicode="&#x128;" horiz-adv-x="248" 
d="M164 0h-79v667h79v-667zM25 738h-48c0 47 33 100 89 100c48 0 85 -41 117 -41c25 0 39 26 39 45h47c0 -43 -33 -99 -85 -99c-50 0 -78 40 -116 40c-24 0 -43 -25 -43 -45z" />
    <glyph glyph-name="Idieresis" unicode="&#xcf;" horiz-adv-x="248" 
d="M164 0h-79v667h79v-667zM80 748h-66v87h66v-87zM235 748h-66v87h66v-87z" />
    <glyph glyph-name="Imacron" unicode="&#x12a;" horiz-adv-x="248" 
d="M164 0h-79v667h79v-667zM247 767h-245v51h245v-51z" />
    <glyph glyph-name="Idotaccent" unicode="&#x130;" horiz-adv-x="248" 
d="M164 0h-79v667h79v-667zM161 748h-73v87h73v-87z" />
    <glyph glyph-name="Iogonek" unicode="&#x12e;" horiz-adv-x="248" 
d="M181 -130l11 -35c-20 -9 -36 -15 -65 -15c-51 0 -88 29 -88 76c0 45 33 79 80 104h-34v667h79v-667c-51 -28 -71 -63 -71 -95c0 -31 20 -45 45 -45c12 0 24 2 43 10z" />
    <glyph glyph-name="Jcircumflex" unicode="&#x134;" horiz-adv-x="319" 
d="M4 2l6 65c19 -8 37 -9 57 -9c73 0 97 58 97 119v490h79v-492c0 -107 -48 -186 -162 -186c-27 0 -53 4 -77 13zM124 724h-65l103 136h74l103 -136h-65l-75 96z" />
    <glyph glyph-name="Kcommaaccent" unicode="&#x136;" horiz-adv-x="586" 
d="M164 0h-79v667h79v-301l292 301h98l-315 -313l343 -354h-106l-312 333v-333zM296 -227h-50l47 159h67z" />
    <glyph glyph-name="Lacute" unicode="&#x139;" horiz-adv-x="452" 
d="M434 0h-349v667h79v-599h270v-68zM157 724h-61l72 136h85z" />
    <glyph glyph-name="Lcaron" unicode="&#x13d;" horiz-adv-x="452" 
d="M434 0h-349v667h79v-599h270v-68zM308 557h-53l21 164h75z" />
    <glyph glyph-name="Lcommaaccent" unicode="&#x13b;" horiz-adv-x="452" 
d="M434 0h-349v667h79v-599h270v-68zM239 -227h-50l47 159h67z" />
    <glyph glyph-name="Lslash" unicode="&#x141;" horiz-adv-x="452" 
d="M434 0h-349v292l-75 -72v66l75 72v309h79v-246l136 131v-67l-136 -131v-286h270v-68z" />
    <glyph glyph-name="Ldot" unicode="&#x13f;" horiz-adv-x="452" 
d="M434 0h-349v667h79v-599h270v-68zM386 304h-73v87h73v-87z" />
    <glyph glyph-name="Nacute" unicode="&#x143;" horiz-adv-x="676" 
d="M159 0h-74v667h111l321 -585v585h74v-667h-111l-321 585v-585zM363 724h-61l72 136h85z" />
    <glyph glyph-name="Ncaron" unicode="&#x147;" horiz-adv-x="676" 
d="M159 0h-74v667h111l321 -585v585h74v-667h-111l-321 585v-585zM382 724h-74l-103 136h65l75 -97l75 97h65z" />
    <glyph glyph-name="Ntilde" unicode="&#xd1;" horiz-adv-x="676" 
d="M159 0h-74v667h111l321 -585v585h74v-667h-111l-321 585v-585zM249 738h-48c0 47 33 100 89 100c48 0 85 -41 117 -41c25 0 39 26 39 45h47c0 -43 -33 -99 -85 -99c-50 0 -78 40 -116 40c-24 0 -43 -25 -43 -45z" />
    <glyph glyph-name="Ncommaaccent" unicode="&#x145;" horiz-adv-x="676" 
d="M330 -227h-50l47 159h67zM159 0h-74v667h111l321 -585v585h74v-667h-111l-321 585v-585z" />
    <glyph glyph-name="Ograve" unicode="&#xd2;" horiz-adv-x="701" 
d="M217 16c-112 54 -166 173 -166 317c0 184 99 344 300 344c205 0 300 -155 300 -344c0 -185 -99 -344 -300 -344c-51 0 -96 9 -134 27zM185 144c36 -53 90 -89 166 -89c156 0 216 143 216 278s-60 278 -216 278c-153 0 -217 -145 -217 -278c0 -67 16 -136 51 -189z
M387 724h-59l-97 136h85z" />
    <glyph glyph-name="Oacute" unicode="&#xd3;" horiz-adv-x="701" 
d="M217 16c-112 54 -166 173 -166 317c0 184 99 344 300 344c205 0 300 -155 300 -344c0 -185 -99 -344 -300 -344c-51 0 -96 9 -134 27zM185 144c36 -53 90 -89 166 -89c156 0 216 143 216 278s-60 278 -216 278c-153 0 -217 -145 -217 -278c0 -67 16 -136 51 -189z
M374 724h-61l72 136h85z" />
    <glyph glyph-name="Ocircumflex" unicode="&#xd4;" horiz-adv-x="701" 
d="M217 16c-112 54 -166 173 -166 317c0 184 99 344 300 344c205 0 300 -155 300 -344c0 -185 -99 -344 -300 -344c-51 0 -96 9 -134 27zM185 144c36 -53 90 -89 166 -89c156 0 216 143 216 278s-60 278 -216 278c-153 0 -217 -145 -217 -278c0 -67 16 -136 51 -189z
M275 724h-65l103 136h74l103 -136h-65l-75 96z" />
    <glyph glyph-name="Otilde" unicode="&#xd5;" horiz-adv-x="701" 
d="M217 16c-112 54 -166 173 -166 317c0 184 99 344 300 344c205 0 300 -155 300 -344c0 -185 -99 -344 -300 -344c-51 0 -96 9 -134 27zM185 144c36 -53 90 -89 166 -89c156 0 216 143 216 278s-60 278 -216 278c-153 0 -217 -145 -217 -278c0 -67 16 -136 51 -189z
M252 738h-48c0 47 33 100 89 100c48 0 85 -41 117 -41c25 0 39 26 39 45h47c0 -43 -33 -99 -85 -99c-50 0 -78 40 -116 40c-24 0 -43 -25 -43 -45z" />
    <glyph glyph-name="Odieresis" unicode="&#xd6;" horiz-adv-x="701" 
d="M217 16c-112 54 -166 173 -166 317c0 184 99 344 300 344c205 0 300 -155 300 -344c0 -185 -99 -344 -300 -344c-51 0 -96 9 -134 27zM185 144c36 -53 90 -89 166 -89c156 0 216 143 216 278s-60 278 -216 278c-153 0 -217 -145 -217 -278c0 -67 16 -136 51 -189z
M306 748h-66v87h66v-87zM461 748h-66v87h66v-87z" />
    <glyph glyph-name="Omacron" unicode="&#x14c;" horiz-adv-x="701" 
d="M217 16c-112 54 -166 173 -166 317c0 184 99 344 300 344c205 0 300 -155 300 -344c0 -185 -99 -344 -300 -344c-51 0 -96 9 -134 27zM185 144c36 -53 90 -89 166 -89c156 0 216 143 216 278s-60 278 -216 278c-153 0 -217 -145 -217 -278c0 -67 16 -136 51 -189z
M474 767h-245v51h245v-51z" />
    <glyph glyph-name="Obreve" unicode="&#x14e;" horiz-adv-x="701" 
d="M217 16c-112 54 -166 173 -166 317c0 184 99 344 300 344c205 0 300 -155 300 -344c0 -185 -99 -344 -300 -344c-51 0 -96 9 -134 27zM185 144c36 -53 90 -89 166 -89c156 0 216 143 216 278s-60 278 -216 278c-153 0 -217 -145 -217 -278c0 -67 16 -136 51 -189z
M231 849h43c4 -40 31 -71 76 -71s72 31 77 71h43c0 -28 -22 -117 -120 -117c-97 0 -119 89 -119 117z" />
    <glyph glyph-name="Ohungarumlaut" unicode="&#x150;" horiz-adv-x="701" 
d="M217 16c-112 54 -166 173 -166 317c0 184 99 344 300 344c205 0 300 -155 300 -344c0 -185 -99 -344 -300 -344c-51 0 -96 9 -134 27zM185 144c36 -53 90 -89 166 -89c156 0 216 143 216 278s-60 278 -216 278c-153 0 -217 -145 -217 -278c0 -67 16 -136 51 -189z
M290 724h-60l72 136h85zM460 724h-60l72 136h85z" />
    <glyph glyph-name="Oslash" unicode="&#xd8;" horiz-adv-x="701" 
d="M74 -25l-39 35l80 93c-43 61 -62 142 -62 230c0 184 99 344 300 344c87 0 152 -27 200 -72l74 86l40 -35l-78 -90c44 -61 64 -144 64 -233c0 -185 -99 -344 -300 -344c-88 0 -155 27 -203 74zM176 169l325 378c-35 39 -83 64 -148 64c-153 0 -217 -145 -217 -278
c0 -57 13 -116 40 -164zM529 500l-325 -377c35 -40 84 -68 149 -68c156 0 216 143 216 278c0 60 -12 119 -40 167z" />
    <glyph glyph-name="Oslashacute" unicode="&#x1fe;" horiz-adv-x="701" 
d="M74 -25l-39 35l80 93c-43 61 -62 142 -62 230c0 184 99 344 300 344c87 0 152 -27 200 -72l74 86l40 -35l-78 -90c44 -61 64 -144 64 -233c0 -185 -99 -344 -300 -344c-88 0 -155 27 -203 74zM176 169l325 378c-35 39 -83 64 -148 64c-153 0 -217 -145 -217 -278
c0 -57 13 -116 40 -164zM529 500l-325 -377c35 -40 84 -68 149 -68c156 0 216 143 216 278c0 60 -12 119 -40 167zM374 724h-61l72 136h85z" />
    <glyph glyph-name="OE" unicode="&#x152;" horiz-adv-x="873" 
d="M476 66v534c-28 8 -61 11 -94 11c-166 0 -250 -144 -250 -278s76 -278 250 -278c39 0 65 3 94 11zM827 0h-334c-32 -7 -68 -11 -111 -11c-223 0 -331 154 -331 344c0 184 125 344 331 344c44 0 75 -3 107 -10h328v-65h-262v-228h248v-62h-248v-247h272v-65z" />
    <glyph glyph-name="Racute" unicode="&#x154;" horiz-adv-x="548" 
d="M163 603v-231h68c77 0 163 29 163 124c0 92 -82 107 -167 107h-64zM164 0h-79v667h164c109 0 227 -31 227 -164c0 -89 -68 -154 -151 -165c43 -9 72 -41 91 -85l109 -253h-89l-92 220c-29 69 -51 88 -130 88h-50v-308zM277 724h-61l72 136h85z" />
    <glyph glyph-name="Rcaron" unicode="&#x158;" horiz-adv-x="548" 
d="M163 603v-231h68c77 0 163 29 163 124c0 92 -82 107 -167 107h-64zM164 0h-79v667h164c109 0 227 -31 227 -164c0 -89 -68 -154 -151 -165c43 -9 72 -41 91 -85l109 -253h-89l-92 220c-29 69 -51 88 -130 88h-50v-308zM296 724h-74l-103 136h65l75 -97l75 97h65z" />
    <glyph glyph-name="Rcommaaccent" unicode="&#x156;" horiz-adv-x="548" 
d="M163 603v-231h68c77 0 163 29 163 124c0 92 -82 107 -167 107h-64zM164 0h-79v667h164c109 0 227 -31 227 -164c0 -89 -68 -154 -151 -165c43 -9 72 -41 91 -85l109 -253h-89l-92 220c-29 69 -51 88 -130 88h-50v-308zM266 -227h-50l47 159h67z" />
    <glyph glyph-name="Sacute" unicode="&#x15a;" horiz-adv-x="484" 
d="M48 20l9 74c47 -29 98 -39 154 -39c76 0 136 33 136 121c0 70 -53 103 -115 135l-54 29c-64 35 -115 76 -115 164c0 121 107 173 215 173c47 0 88 -7 129 -24l-9 -71c-36 20 -78 29 -119 29c-70 0 -135 -24 -135 -104c0 -55 40 -86 93 -114l54 -29
c75 -40 138 -81 138 -183c0 -125 -103 -192 -217 -192c-57 0 -113 8 -164 31zM266 724h-61l72 136h85z" />
    <glyph glyph-name="Scircumflex" unicode="&#x15c;" horiz-adv-x="484" 
d="M48 20l9 74c47 -29 98 -39 154 -39c76 0 136 33 136 121c0 70 -53 103 -115 135l-54 29c-64 35 -115 76 -115 164c0 121 107 173 215 173c47 0 88 -7 129 -24l-9 -71c-36 20 -78 29 -119 29c-70 0 -135 -24 -135 -104c0 -55 40 -86 93 -114l54 -29
c75 -40 138 -81 138 -183c0 -125 -103 -192 -217 -192c-57 0 -113 8 -164 31zM172 724h-65l103 136h74l103 -136h-65l-75 96z" />
    <glyph glyph-name="Scaron" unicode="&#x160;" horiz-adv-x="484" 
d="M48 20l9 74c47 -29 98 -39 154 -39c76 0 136 33 136 121c0 70 -53 103 -115 135l-54 29c-64 35 -115 76 -115 164c0 121 107 173 215 173c47 0 88 -7 129 -24l-9 -71c-36 20 -78 29 -119 29c-70 0 -135 -24 -135 -104c0 -55 40 -86 93 -114l54 -29
c75 -40 138 -81 138 -183c0 -125 -103 -192 -217 -192c-57 0 -113 8 -164 31zM279 724h-74l-103 136h65l75 -97l75 97h65z" />
    <glyph glyph-name="Scedilla" unicode="&#x15e;" horiz-adv-x="484" 
d="M132 -161l13 35c25 -11 50 -17 74 -17c27 0 50 11 50 34s-20 29 -39 29c-12 0 -25 -2 -39 -7l-15 18l40 58h-4c-57 0 -113 8 -164 31l9 74c47 -29 98 -39 154 -39c76 0 136 33 136 121c0 70 -53 103 -115 135l-54 29c-64 35 -115 76 -115 164c0 121 107 173 215 173
c47 0 88 -7 129 -24l-9 -71c-36 20 -78 29 -119 29c-70 0 -135 -24 -135 -104c0 -55 40 -86 93 -114l54 -29c75 -40 138 -81 138 -183c0 -110 -79 -173 -174 -189l-32 -45c15 3 19 4 32 4c39 0 66 -21 66 -57c0 -45 -40 -74 -101 -74c-31 0 -55 4 -88 19z" />
    <glyph glyph-name="Scommaaccent" unicode="&#x218;" horiz-adv-x="484" 
d="M224 -227h-50l47 159h67zM48 20l9 74c47 -29 98 -39 154 -39c76 0 136 33 136 121c0 70 -53 103 -115 135l-54 29c-64 35 -115 76 -115 164c0 121 107 173 215 173c47 0 88 -7 129 -24l-9 -71c-36 20 -78 29 -119 29c-70 0 -135 -24 -135 -104c0 -55 40 -86 93 -114
l54 -29c75 -40 138 -81 138 -183c0 -125 -103 -192 -217 -192c-57 0 -113 8 -164 31z" />
    <glyph glyph-name="Tcaron" unicode="&#x164;" horiz-adv-x="496" 
d="M288 0h-80v599h-198v68h477v-68h-199v-599zM285 724h-74l-103 136h65l75 -97l75 97h65z" />
    <glyph glyph-name="Tcommaaccent" unicode="&#x162;" horiz-adv-x="496" 
d="M288 0h-80v599h-198v68h477v-68h-199v-599zM215 -227h-50l47 159h67z" />
    <glyph glyph-name="uni021A" unicode="&#x21a;" horiz-adv-x="496" 
d="M288 0h-80v599h-198v68h477v-68h-199v-599zM215 -227h-50l47 159h67z" />
    <glyph glyph-name="Tbar" unicode="&#x166;" horiz-adv-x="496" 
d="M288 0h-80v387h-137v60h137v152h-198v68h477v-68h-199v-152h140v-60h-140v-387z" />
    <glyph glyph-name="Thorn" unicode="&#xde;" horiz-adv-x="508" 
d="M164 0h-79v667h79v-135h103c120 0 213 -65 213 -191c0 -135 -107 -195 -219 -195h-97v-146zM163 468v-258h51c95 0 184 14 184 130c0 84 -56 128 -137 128h-98z" />
    <glyph glyph-name="Ugrave" unicode="&#xd9;" horiz-adv-x="650" 
d="M156 667v-431c0 -107 58 -179 169 -179s170 72 170 179v431h79v-431c0 -152 -97 -247 -249 -247c-153 0 -248 93 -248 246v432h79zM374 724h-59l-97 136h85z" />
    <glyph glyph-name="Uacute" unicode="&#xda;" horiz-adv-x="650" 
d="M156 667v-431c0 -107 58 -179 169 -179s170 72 170 179v431h79v-431c0 -152 -97 -247 -249 -247c-153 0 -248 93 -248 246v432h79zM336 724h-61l72 136h85z" />
    <glyph glyph-name="Ucircumflex" unicode="&#xdb;" horiz-adv-x="650" 
d="M156 667v-431c0 -107 58 -179 169 -179s170 72 170 179v431h79v-431c0 -152 -97 -247 -249 -247c-153 0 -248 93 -248 246v432h79zM250 724h-65l103 136h74l103 -136h-65l-75 96z" />
    <glyph glyph-name="Utilde" unicode="&#x168;" horiz-adv-x="650" 
d="M156 667v-431c0 -107 58 -179 169 -179s170 72 170 179v431h79v-431c0 -152 -97 -247 -249 -247c-153 0 -248 93 -248 246v432h79zM226 738h-48c0 47 33 100 89 100c48 0 85 -41 117 -41c25 0 39 26 39 45h47c0 -43 -33 -99 -85 -99c-50 0 -78 40 -116 40
c-24 0 -43 -25 -43 -45z" />
    <glyph glyph-name="Udieresis" unicode="&#xdc;" horiz-adv-x="650" 
d="M156 667v-431c0 -107 58 -179 169 -179s170 72 170 179v431h79v-431c0 -152 -97 -247 -249 -247c-153 0 -248 93 -248 246v432h79zM281 748h-66v87h66v-87zM436 748h-66v87h66v-87z" />
    <glyph glyph-name="Umacron" unicode="&#x16a;" horiz-adv-x="650" 
d="M156 667v-431c0 -107 58 -179 169 -179s170 72 170 179v431h79v-431c0 -152 -97 -247 -249 -247c-153 0 -248 93 -248 246v432h79zM448 767h-245v51h245v-51z" />
    <glyph glyph-name="Ubreve" unicode="&#x16c;" horiz-adv-x="650" 
d="M156 667v-431c0 -107 58 -179 169 -179s170 72 170 179v431h79v-431c0 -152 -97 -247 -249 -247c-153 0 -248 93 -248 246v432h79zM206 849h43c4 -40 31 -71 76 -71s72 31 77 71h43c0 -28 -22 -117 -120 -117c-97 0 -119 89 -119 117z" />
    <glyph glyph-name="Uring" unicode="&#x16e;" horiz-adv-x="650" 
d="M156 667v-431c0 -107 58 -179 169 -179s170 72 170 179v431h79v-431c0 -152 -97 -247 -249 -247c-153 0 -248 93 -248 246v432h79zM266 792c0 -33 27 -59 59 -59c33 0 60 26 60 59c0 32 -27 58 -60 58s-59 -26 -59 -58zM288 706c-34 14 -58 47 -58 86c0 52 43 92 95 92
s96 -40 96 -92s-44 -93 -96 -93c-13 0 -26 2 -37 7z" />
    <glyph glyph-name="Uhungarumlaut" unicode="&#x170;" horiz-adv-x="650" 
d="M156 667v-431c0 -107 58 -179 169 -179s170 72 170 179v431h79v-431c0 -152 -97 -247 -249 -247c-153 0 -248 93 -248 246v432h79zM258 724h-60l72 136h85zM428 724h-60l72 136h85z" />
    <glyph glyph-name="Uogonek" unicode="&#x172;" horiz-adv-x="650" 
d="M425 -125l11 -35c-24 -12 -46 -20 -81 -20c-57 0 -92 35 -92 76c0 39 20 70 60 93c-152 1 -246 93 -246 246v432h79v-431c0 -107 58 -179 169 -179s170 72 170 179v431h79v-431c0 -133 -74 -221 -194 -242c-42 -28 -63 -57 -63 -87c0 -35 26 -47 49 -47c21 0 36 4 59 15z
" />
    <glyph glyph-name="Wacute" unicode="&#x1e82;" horiz-adv-x="922" 
d="M297 0h-95l-191 667h81l161 -588l166 588h92l165 -588l161 588h75l-190 -667h-94l-165 589zM492 724h-61l72 136h85z" />
    <glyph glyph-name="Wcircumflex" unicode="&#x174;" horiz-adv-x="922" 
d="M297 0h-95l-191 667h81l161 -588l166 588h92l165 -588l161 588h75l-190 -667h-94l-165 589zM392 724h-65l103 136h74l103 -136h-65l-75 96z" />
    <glyph glyph-name="Wdieresis" unicode="&#x1e84;" horiz-adv-x="922" 
d="M297 0h-95l-191 667h81l161 -588l166 588h92l165 -588l161 588h75l-190 -667h-94l-165 589zM416 748h-66v87h66v-87zM571 748h-66v87h66v-87z" />
    <glyph glyph-name="Wgrave" unicode="&#x1e80;" horiz-adv-x="922" 
d="M297 0h-95l-191 667h81l161 -588l166 588h92l165 -588l161 588h75l-190 -667h-94l-165 589zM499 724h-59l-97 136h85z" />
    <glyph glyph-name="Yacute" unicode="&#xdd;" horiz-adv-x="576" 
d="M327 0h-79v278l-246 389h88l200 -325l200 325h85l-248 -389v-278zM308 724h-61l72 136h85z" />
    <glyph glyph-name="Ycircumflex" unicode="&#x176;" horiz-adv-x="576" 
d="M327 0h-79v278l-246 389h88l200 -325l200 325h85l-248 -389v-278zM218 724h-65l103 136h74l103 -136h-65l-75 96z" />
    <glyph glyph-name="Ydieresis" unicode="&#x178;" horiz-adv-x="576" 
d="M327 0h-79v278l-246 389h88l200 -325l200 325h85l-248 -389v-278zM245 748h-66v87h66v-87zM400 748h-66v87h66v-87z" />
    <glyph glyph-name="Ygrave" unicode="&#x1ef2;" horiz-adv-x="576" 
d="M327 0h-79v278l-246 389h88l200 -325l200 325h85l-248 -389v-278zM331 724h-59l-97 136h85z" />
    <glyph glyph-name="Zacute" unicode="&#x179;" horiz-adv-x="494" 
d="M468 0h-442v66l348 535h-336v66h422v-66l-345 -535h353v-66zM270 724h-61l72 136h85z" />
    <glyph glyph-name="Zcaron" unicode="&#x17d;" horiz-adv-x="494" 
d="M468 0h-442v66l348 535h-336v66h422v-66l-345 -535h353v-66zM284 724h-74l-103 136h65l75 -97l75 97h65z" />
    <glyph glyph-name="Zdotaccent" unicode="&#x17b;" horiz-adv-x="494" 
d="M468 0h-442v66l348 535h-336v66h422v-66l-345 -535h353v-66zM287 748h-73v87h73v-87z" />
    <glyph glyph-name="agrave" unicode="&#xe0;" horiz-adv-x="493" 
d="M348 250h-37c-93 0 -202 -10 -202 -110c0 -67 47 -92 96 -92c106 0 143 80 143 172v30zM426 0h-71l-3 80c-29 -64 -92 -91 -155 -91c-89 0 -163 47 -163 148c0 128 112 166 258 166h56v24c0 76 -29 123 -112 123c-51 0 -98 -14 -141 -42l-6 65c43 21 103 35 150 35
c125 0 181 -61 181 -186v-216c0 -37 1 -71 6 -106zM284 585h-59l-97 136h85z" />
    <glyph glyph-name="aacute" unicode="&#xe1;" horiz-adv-x="493" 
d="M348 250h-37c-93 0 -202 -10 -202 -110c0 -67 47 -92 96 -92c106 0 143 80 143 172v30zM426 0h-71l-3 80c-29 -64 -92 -91 -155 -91c-89 0 -163 47 -163 148c0 128 112 166 258 166h56v24c0 76 -29 123 -112 123c-51 0 -98 -14 -141 -42l-6 65c43 21 103 35 150 35
c125 0 181 -61 181 -186v-216c0 -37 1 -71 6 -106zM257 586h-61l72 136h85z" />
    <glyph glyph-name="acircumflex" unicode="&#xe2;" horiz-adv-x="493" 
d="M348 250h-37c-93 0 -202 -10 -202 -110c0 -67 47 -92 96 -92c106 0 143 80 143 172v30zM426 0h-71l-3 80c-29 -64 -92 -91 -155 -91c-89 0 -163 47 -163 148c0 128 112 166 258 166h56v24c0 76 -29 123 -112 123c-51 0 -98 -14 -141 -42l-6 65c43 21 103 35 150 35
c125 0 181 -61 181 -186v-216c0 -37 1 -71 6 -106zM168 585h-65l103 136h74l103 -136h-65l-75 96z" />
    <glyph glyph-name="atilde" unicode="&#xe3;" horiz-adv-x="493" 
d="M348 250h-37c-93 0 -202 -10 -202 -110c0 -67 47 -92 96 -92c106 0 143 80 143 172v30zM426 0h-71l-3 80c-29 -64 -92 -91 -155 -91c-89 0 -163 47 -163 148c0 128 112 166 258 166h56v24c0 76 -29 123 -112 123c-51 0 -98 -14 -141 -42l-6 65c43 21 103 35 150 35
c125 0 181 -61 181 -186v-216c0 -37 1 -71 6 -106zM150 599h-48c0 47 33 100 89 100c48 0 85 -41 117 -41c25 0 39 26 39 45h47c0 -43 -33 -99 -85 -99c-50 0 -78 40 -116 40c-24 0 -43 -25 -43 -45z" />
    <glyph glyph-name="adieresis" unicode="&#xe4;" horiz-adv-x="493" 
d="M348 250h-37c-93 0 -202 -10 -202 -110c0 -67 47 -92 96 -92c106 0 143 80 143 172v30zM426 0h-71l-3 80c-29 -64 -92 -91 -155 -91c-89 0 -163 47 -163 148c0 128 112 166 258 166h56v24c0 76 -29 123 -112 123c-51 0 -98 -14 -141 -42l-6 65c43 21 103 35 150 35
c125 0 181 -61 181 -186v-216c0 -37 1 -71 6 -106zM353 609h-66v87h66v-87zM198 609h-66v87h66v-87z" />
    <glyph glyph-name="amacron" unicode="&#x101;" horiz-adv-x="493" 
d="M365 628h-245v51h245v-51zM348 250h-37c-93 0 -202 -10 -202 -110c0 -67 47 -92 96 -92c106 0 143 80 143 172v30zM426 0h-71l-3 80c-29 -64 -92 -91 -155 -91c-89 0 -163 47 -163 148c0 128 112 166 258 166h56v24c0 76 -29 123 -112 123c-51 0 -98 -14 -141 -42l-6 65
c43 21 103 35 150 35c125 0 181 -61 181 -186v-216c0 -37 1 -71 6 -106z" />
    <glyph glyph-name="abreve" unicode="&#x103;" horiz-adv-x="493" 
d="M348 250h-37c-93 0 -202 -10 -202 -110c0 -67 47 -92 96 -92c106 0 143 80 143 172v30zM426 0h-71l-3 80c-29 -64 -92 -91 -155 -91c-89 0 -163 47 -163 148c0 128 112 166 258 166h56v24c0 76 -29 123 -112 123c-51 0 -98 -14 -141 -42l-6 65c43 21 103 35 150 35
c125 0 181 -61 181 -186v-216c0 -37 1 -71 6 -106zM123 710h43c4 -40 31 -71 76 -71s72 31 77 71h43c0 -28 -22 -117 -120 -117c-97 0 -119 89 -119 117z" />
    <glyph glyph-name="aring" unicode="&#xe5;" horiz-adv-x="493" 
d="M348 250h-37c-93 0 -202 -10 -202 -110c0 -67 47 -92 96 -92c106 0 143 80 143 172v30zM426 0h-71l-3 80c-29 -64 -92 -91 -155 -91c-89 0 -163 47 -163 148c0 128 112 166 258 166h56v24c0 76 -29 123 -112 123c-51 0 -98 -14 -141 -42l-6 65c43 21 103 35 150 35
c125 0 181 -61 181 -186v-216c0 -37 1 -71 6 -106zM202 567c-34 14 -58 47 -58 86c0 52 43 92 95 92s96 -40 96 -92s-44 -93 -96 -93c-13 0 -26 2 -37 7zM180 653c0 -33 27 -59 59 -59c33 0 60 26 60 59c0 32 -27 58 -60 58s-59 -26 -59 -58z" />
    <glyph glyph-name="aringacute" unicode="&#x1fb;" horiz-adv-x="493" 
d="M249 779h-64l103 100h95zM348 250h-37c-93 0 -202 -10 -202 -110c0 -67 47 -92 96 -92c106 0 143 80 143 172v30zM426 0h-71l-3 80c-29 -64 -92 -91 -155 -91c-89 0 -163 47 -163 148c0 128 112 166 258 166h56v24c0 76 -29 123 -112 123c-51 0 -98 -14 -141 -42l-6 65
c43 21 103 35 150 35c125 0 181 -61 181 -186v-216c0 -37 1 -71 6 -106zM202 567c-34 14 -58 47 -58 86c0 52 43 92 95 92s96 -40 96 -92s-44 -93 -96 -93c-13 0 -26 2 -37 7zM180 653c0 -33 27 -59 59 -59c33 0 60 26 60 59c0 32 -27 58 -60 58s-59 -26 -59 -58z" />
    <glyph glyph-name="aogonek" unicode="&#x105;" horiz-adv-x="493" 
d="M348 250h-37c-93 0 -202 -10 -202 -110c0 -67 47 -92 96 -92c106 0 143 80 143 172v30zM448 -125l11 -35c-24 -12 -46 -20 -81 -20c-57 0 -92 35 -92 76c0 45 30 81 82 104h-13l-3 80c-29 -64 -92 -91 -155 -91c-89 0 -163 47 -163 148c0 128 112 166 258 166h56v24
c0 76 -29 123 -112 123c-51 0 -98 -14 -141 -42l-6 65c43 21 103 35 150 35c125 0 181 -61 181 -186v-216c0 -37 1 -71 6 -106h-13c-49 -30 -73 -61 -73 -93c0 -35 26 -47 49 -47c21 0 36 4 59 15z" />
    <glyph glyph-name="ae" unicode="&#xe6;" horiz-adv-x="790" 
d="M415 294h265c-5 68 -26 156 -123 156c-95 0 -139 -85 -142 -156zM94 408l-6 65c43 20 99 35 150 35c81 0 133 -29 157 -87c36 55 96 87 161 87c156 0 195 -124 195 -256v-12h-336c0 -96 45 -192 171 -192c48 0 96 14 133 38l3 -65c-44 -21 -89 -32 -136 -32
c-90 0 -170 35 -205 108c-36 -68 -102 -108 -185 -108c-77 0 -162 36 -162 142c0 132 135 163 272 163h41v33c0 76 -30 123 -111 123c-52 0 -99 -14 -142 -42zM347 240h-16c-119 0 -222 -13 -222 -106c0 -70 57 -86 95 -86c100 0 143 72 143 164v28z" />
    <glyph glyph-name="aeacute" unicode="&#x1fd;" horiz-adv-x="790" 
d="M415 294h265c-5 68 -26 156 -123 156c-95 0 -139 -85 -142 -156zM94 408l-6 65c43 20 99 35 150 35c81 0 133 -29 157 -87c36 55 96 87 161 87c156 0 195 -124 195 -256v-12h-336c0 -96 45 -192 171 -192c48 0 96 14 133 38l3 -65c-44 -21 -89 -32 -136 -32
c-90 0 -170 35 -205 108c-36 -68 -102 -108 -185 -108c-77 0 -162 36 -162 142c0 132 135 163 272 163h41v33c0 76 -30 123 -111 123c-52 0 -99 -14 -142 -42zM347 240h-16c-119 0 -222 -13 -222 -106c0 -70 57 -86 95 -86c100 0 143 72 143 164v28zM431 585h-61l72 136h85z
" />
    <glyph glyph-name="cacute" unicode="&#x107;" horiz-adv-x="443" 
d="M405 73l5 -65c-43 -15 -85 -19 -129 -19c-153 0 -238 117 -238 262c0 148 93 257 245 257c41 0 83 -8 122 -21l-6 -65c-32 15 -68 25 -104 25c-120 0 -179 -84 -179 -196c0 -105 59 -201 174 -201c39 0 75 8 110 23zM288 585h-61l72 136h85z" />
    <glyph glyph-name="ccircumflex" unicode="&#x109;" horiz-adv-x="443" 
d="M405 73l5 -65c-43 -15 -85 -19 -129 -19c-153 0 -238 117 -238 262c0 148 93 257 245 257c41 0 83 -8 122 -21l-6 -65c-32 15 -68 25 -104 25c-120 0 -179 -84 -179 -196c0 -105 59 -201 174 -201c39 0 75 8 110 23zM199 585h-65l103 136h74l103 -136h-65l-75 96z" />
    <glyph glyph-name="ccaron" unicode="&#x10d;" horiz-adv-x="443" 
d="M405 73l5 -65c-43 -15 -85 -19 -129 -19c-153 0 -238 117 -238 262c0 148 93 257 245 257c41 0 83 -8 122 -21l-6 -65c-32 15 -68 25 -104 25c-120 0 -179 -84 -179 -196c0 -105 59 -201 174 -201c39 0 75 8 110 23zM312 585h-74l-103 136h65l75 -97l75 97h65z" />
    <glyph glyph-name="cdotaccent" unicode="&#x10b;" horiz-adv-x="443" 
d="M405 73l5 -65c-43 -15 -85 -19 -129 -19c-153 0 -238 117 -238 262c0 148 93 257 245 257c41 0 83 -8 122 -21l-6 -65c-32 15 -68 25 -104 25c-120 0 -179 -84 -179 -196c0 -105 59 -201 174 -201c39 0 75 8 110 23zM311 609h-73v87h73v-87z" />
    <glyph glyph-name="ccedilla" unicode="&#xe7;" horiz-adv-x="443" 
d="M171 -161l13 35c25 -11 50 -17 74 -17c27 0 50 11 50 34s-20 29 -39 29c-12 0 -25 -2 -39 -7l-15 18l42 59c-139 11 -214 123 -214 261c0 148 93 257 245 257c41 0 83 -8 122 -21l-6 -65c-32 15 -68 25 -104 25c-120 0 -179 -84 -179 -196c0 -105 59 -201 174 -201
c39 0 75 8 110 23l5 -65c-37 -11 -76 -18 -117 -19l-31 -42c15 3 19 4 32 4c39 0 66 -21 66 -57c0 -45 -40 -74 -101 -74c-31 0 -55 4 -88 19z" />
    <glyph glyph-name="dcaron" unicode="&#x10f;" horiz-adv-x="543" 
d="M476 0h-68l-6 83c-32 -64 -87 -94 -156 -94c-148 0 -203 134 -203 262c0 132 56 257 205 257c63 0 125 -35 150 -94v307h73v-563c0 -55 2 -106 5 -158zM149 116c21 -37 55 -65 111 -65c106 0 140 112 140 199s-37 196 -141 196c-113 0 -138 -104 -138 -196
c0 -45 7 -95 28 -134zM579 557h-53l21 164h75z" />
    <glyph glyph-name="dcroat" unicode="&#x111;" horiz-adv-x="543" 
d="M476 0h-68l-6 83c-32 -64 -87 -94 -156 -94c-148 0 -203 134 -203 262c0 132 56 257 205 257c64 0 125 -34 150 -94v176h-153v52h153v79h73v-79h85v-52h-85v-432c0 -56 2 -106 5 -158zM149 116c21 -37 55 -65 111 -65c106 0 140 112 140 199s-37 196 -141 196
c-113 0 -138 -104 -138 -196c0 -45 7 -95 28 -134z" />
    <glyph glyph-name="eth" unicode="&#xf0;" horiz-adv-x="551" 
d="M313 604l-108 -64l-32 41l93 55c-35 23 -88 41 -129 50l34 45c49 -7 111 -33 152 -60l101 60l32 -41l-85 -51c106 -96 138 -226 138 -357c0 -161 -72 -293 -234 -293c-153 0 -232 110 -232 255c0 140 79 252 228 252c63 0 114 -25 155 -76c-17 72 -56 139 -113 184z
M158 110c25 -36 63 -60 118 -60c109 0 155 95 155 194s-43 191 -155 191c-109 0 -155 -94 -155 -191c0 -49 12 -98 37 -134z" />
    <glyph glyph-name="egrave" unicode="&#xe8;" horiz-adv-x="491" 
d="M117 294h274c-5 68 -30 156 -127 156c-95 0 -144 -85 -147 -156zM462 240h-345c0 -96 51 -192 176 -192c48 0 100 14 137 38l3 -65c-43 -21 -93 -32 -140 -32c-172 0 -252 113 -252 262c0 127 73 257 222 257c155 0 199 -124 199 -256v-12zM297 585h-59l-97 136h85z" />
    <glyph glyph-name="eacute" unicode="&#xe9;" horiz-adv-x="491" 
d="M117 294h274c-5 68 -30 156 -127 156c-95 0 -144 -85 -147 -156zM462 240h-345c0 -96 51 -192 176 -192c48 0 100 14 137 38l3 -65c-43 -21 -93 -32 -140 -32c-172 0 -252 113 -252 262c0 127 73 257 222 257c155 0 199 -124 199 -256v-12zM269 585h-61l72 136h85z" />
    <glyph glyph-name="ecircumflex" unicode="&#xea;" horiz-adv-x="491" 
d="M117 294h274c-5 68 -30 156 -127 156c-95 0 -144 -85 -147 -156zM462 240h-345c0 -96 51 -192 176 -192c48 0 100 14 137 38l3 -65c-43 -21 -93 -32 -140 -32c-172 0 -252 113 -252 262c0 127 73 257 222 257c155 0 199 -124 199 -256v-12zM178 585h-65l103 136h74
l103 -136h-65l-75 96z" />
    <glyph glyph-name="ecaron" unicode="&#x11b;" horiz-adv-x="491" 
d="M117 294h274c-5 68 -30 156 -127 156c-95 0 -144 -85 -147 -156zM462 240h-345c0 -96 51 -192 176 -192c48 0 100 14 137 38l3 -65c-43 -21 -93 -32 -140 -32c-172 0 -252 113 -252 262c0 127 73 257 222 257c155 0 199 -124 199 -256v-12zM289 585h-74l-103 136h65
l75 -97l75 97h65z" />
    <glyph glyph-name="edieresis" unicode="&#xeb;" horiz-adv-x="491" 
d="M117 294h274c-5 68 -30 156 -127 156c-95 0 -144 -85 -147 -156zM462 240h-345c0 -96 51 -192 176 -192c48 0 100 14 137 38l3 -65c-43 -21 -93 -32 -140 -32c-172 0 -252 113 -252 262c0 127 73 257 222 257c155 0 199 -124 199 -256v-12zM364 609h-66v87h66v-87z
M209 609h-66v87h66v-87z" />
    <glyph glyph-name="emacron" unicode="&#x113;" horiz-adv-x="491" 
d="M117 294h274c-5 68 -30 156 -127 156c-95 0 -144 -85 -147 -156zM462 240h-345c0 -96 51 -192 176 -192c48 0 100 14 137 38l3 -65c-43 -21 -93 -32 -140 -32c-172 0 -252 113 -252 262c0 127 73 257 222 257c155 0 199 -124 199 -256v-12zM375 628h-245v51h245v-51z" />
    <glyph glyph-name="ebreve" unicode="&#x115;" horiz-adv-x="491" 
d="M117 294h274c-5 68 -30 156 -127 156c-95 0 -144 -85 -147 -156zM462 240h-345c0 -96 51 -192 176 -192c48 0 100 14 137 38l3 -65c-43 -21 -93 -32 -140 -32c-172 0 -252 113 -252 262c0 127 73 257 222 257c155 0 199 -124 199 -256v-12zM135 710h43
c4 -40 31 -71 76 -71s72 31 77 71h43c0 -28 -22 -117 -120 -117c-97 0 -119 89 -119 117z" />
    <glyph glyph-name="edotaccent" unicode="&#x117;" horiz-adv-x="491" 
d="M117 294h274c-5 68 -30 156 -127 156c-95 0 -144 -85 -147 -156zM462 240h-345c0 -96 51 -192 176 -192c48 0 100 14 137 38l3 -65c-43 -21 -93 -32 -140 -32c-172 0 -252 113 -252 262c0 127 73 257 222 257c155 0 199 -124 199 -256v-12zM291 609h-73v87h73v-87z" />
    <glyph glyph-name="eogonek" unicode="&#x119;" horiz-adv-x="491" 
d="M117 294h274c-5 68 -30 156 -127 156c-95 0 -144 -85 -147 -156zM362 -125l11 -35c-24 -12 -46 -20 -81 -20c-57 0 -92 35 -92 76c0 37 22 72 59 95c-149 13 -218 120 -218 260c0 127 73 257 222 257c155 0 199 -124 199 -256v-12h-345c0 -96 51 -192 176 -192
c48 0 100 14 137 38l3 -65c-39 -19 -81 -30 -126 -32c-35 -26 -53 -53 -53 -82c0 -35 26 -47 49 -47c21 0 36 4 59 15z" />
    <glyph glyph-name="gcircumflex" unicode="&#x11d;" horiz-adv-x="543" 
d="M83 -201l6 71c44 -23 93 -36 144 -36c120 0 165 82 165 190v64c-31 -56 -91 -88 -154 -88c-148 0 -201 128 -201 251c0 132 56 257 203 257c71 0 124 -30 156 -94v84h69v-473c0 -155 -70 -252 -233 -252c-52 0 -104 10 -155 26zM148 124c21 -36 55 -62 111 -62
c107 0 141 104 141 188c0 87 -37 196 -140 196c-112 0 -139 -104 -139 -196c0 -43 7 -90 27 -126zM196 585h-65l103 136h74l103 -136h-65l-75 96z" />
    <glyph glyph-name="gbreve" unicode="&#x11f;" horiz-adv-x="543" 
d="M83 -201l6 71c44 -23 93 -36 144 -36c120 0 165 82 165 190v64c-31 -56 -91 -88 -154 -88c-148 0 -201 128 -201 251c0 132 56 257 203 257c71 0 124 -30 156 -94v84h69v-473c0 -155 -70 -252 -233 -252c-52 0 -104 10 -155 26zM148 124c21 -36 55 -62 111 -62
c107 0 141 104 141 188c0 87 -37 196 -140 196c-112 0 -139 -104 -139 -196c0 -43 7 -90 27 -126zM152 710h43c4 -40 31 -71 76 -71s72 31 77 71h43c0 -28 -22 -117 -120 -117c-97 0 -119 89 -119 117z" />
    <glyph glyph-name="gdotaccent" unicode="&#x121;" horiz-adv-x="543" 
d="M83 -201l6 71c44 -23 93 -36 144 -36c120 0 165 82 165 190v64c-31 -56 -91 -88 -154 -88c-148 0 -201 128 -201 251c0 132 56 257 203 257c71 0 124 -30 156 -94v84h69v-473c0 -155 -70 -252 -233 -252c-52 0 -104 10 -155 26zM148 124c21 -36 55 -62 111 -62
c107 0 141 104 141 188c0 87 -37 196 -140 196c-112 0 -139 -104 -139 -196c0 -43 7 -90 27 -126zM308 609h-73v87h73v-87z" />
    <glyph glyph-name="gcommaaccent" unicode="&#x123;" horiz-adv-x="543" 
d="M83 -201l6 71c44 -23 93 -36 144 -36c120 0 165 82 165 190v64c-31 -56 -91 -88 -154 -88c-148 0 -201 128 -201 251c0 132 56 257 203 257c71 0 124 -30 156 -94v84h69v-473c0 -155 -70 -252 -233 -252c-52 0 -104 10 -155 26zM148 124c21 -36 55 -62 111 -62
c107 0 141 104 141 188c0 87 -37 196 -140 196c-112 0 -139 -104 -139 -196c0 -43 7 -90 27 -126zM299 585h-63l50 136h46z" />
    <glyph glyph-name="hcircumflex" unicode="&#x125;" horiz-adv-x="539" 
d="M146 0h-73v721h73v-307c32 63 83 94 154 94c122 0 166 -84 166 -199v-309h-72v296c0 79 -16 150 -112 150c-103 0 -136 -89 -136 -177v-269zM182 769h-65l103 136h74l103 -136h-65l-75 96z" />
    <glyph glyph-name="hbar" unicode="&#x127;" horiz-adv-x="539" 
d="M146 0h-73v590h-85v52h85v79h73v-79h153v-52h-153v-176c32 63 83 94 154 94c122 0 166 -84 166 -199v-309h-72v296c0 79 -16 150 -112 150c-103 0 -136 -89 -136 -177v-269z" />
    <glyph glyph-name="dotlessi" unicode="&#x131;" horiz-adv-x="218" 
d="M146 0h-73v498h73v-498z" />
    <glyph glyph-name="igrave" unicode="&#xec;" horiz-adv-x="218" 
d="M146 0h-73v498h73v-498zM154 585h-59l-97 136h85z" />
    <glyph glyph-name="iacute" unicode="&#xed;" horiz-adv-x="218" 
d="M146 0h-73v498h73v-498zM123 585h-61l72 136h85z" />
    <glyph glyph-name="ibreve" unicode="&#x12d;" horiz-adv-x="218" 
d="M146 0h-73v498h73v-498zM-10 710h43c4 -40 31 -71 76 -71s72 31 77 71h43c0 -28 -22 -117 -120 -117c-97 0 -119 89 -119 117z" />
    <glyph glyph-name="icircumflex" unicode="&#xee;" horiz-adv-x="218" 
d="M146 0h-73v498h73v-498zM34 585h-65l103 136h74l103 -136h-65l-75 96z" />
    <glyph glyph-name="itilde" unicode="&#x129;" horiz-adv-x="218" 
d="M146 0h-73v498h73v-498zM11 599h-48c0 47 33 100 89 100c48 0 85 -41 117 -41c25 0 39 26 39 45h47c0 -43 -33 -99 -85 -99c-50 0 -78 40 -116 40c-24 0 -43 -25 -43 -45z" />
    <glyph glyph-name="idieresis" unicode="&#xef;" horiz-adv-x="218" 
d="M146 0h-73v498h73v-498zM220 609h-66v87h66v-87zM65 609h-66v87h66v-87z" />
    <glyph glyph-name="imacron" unicode="&#x12b;" horiz-adv-x="218" 
d="M146 0h-73v498h73v-498zM232 628h-245v51h245v-51z" />
    <glyph glyph-name="iogonek" unicode="&#x12f;" horiz-adv-x="218" 
d="M146 609h-73v87h73v-87zM166 -130l11 -35c-20 -9 -36 -15 -65 -15c-51 0 -88 29 -88 76c0 45 30 79 77 104h-28v498h73v-498c-51 -28 -68 -63 -68 -95c0 -31 20 -45 45 -45c12 0 24 2 43 10z" />
    <glyph glyph-name="dotlessj" unicode="&#x237;" horiz-adv-x="224" 
d="M-26 -221l6 63c11 -4 22 -6 34 -6c60 0 65 45 65 93v569h72v-580c0 -80 -23 -145 -115 -145c-21 0 -42 1 -62 6z" />
    <glyph glyph-name="jcircumflex" unicode="&#x135;" horiz-adv-x="224" 
d="M-26 -221l6 63c11 -4 22 -6 34 -6c60 0 65 45 65 93v569h72v-580c0 -80 -23 -145 -115 -145c-21 0 -42 1 -62 6zM34 585h-65l103 136h74l103 -136h-65l-75 96z" />
    <glyph glyph-name="kcommaaccent" unicode="&#x137;" horiz-adv-x="479" 
d="M146 0h-73v721h73v-429l211 206h91l-229 -220l256 -278h-96l-233 260v-260zM240 -227h-50l47 159h67z" />
    <glyph glyph-name="kgreenlandic" unicode="&#x138;" horiz-adv-x="479" 
d="M146 0h-73v498h73v-206l211 206h91l-229 -220l256 -278h-96l-233 260v-260z" />
    <glyph glyph-name="lacute" unicode="&#x13a;" horiz-adv-x="218" 
d="M146 0h-73v721h73v-721zM130 769h-61l72 136h85z" />
    <glyph glyph-name="lcaron" unicode="&#x13e;" horiz-adv-x="218" 
d="M254 557h-53l21 164h75zM146 0h-73v721h73v-721z" />
    <glyph glyph-name="lcommaaccent" unicode="&#x13c;" horiz-adv-x="218" 
d="M77 -227h-50l47 159h67zM146 0h-73v721h73v-721z" />
    <glyph glyph-name="lslash" unicode="&#x142;" horiz-adv-x="218" 
d="M147 0h-74v327l-68 -68v66l68 67v329h74v-270l69 68v-66l-69 -68v-385z" />
    <glyph glyph-name="ldot" unicode="&#x140;" horiz-adv-x="315" 
d="M146 0h-73v721h73v-721zM304 304h-73v87h73v-87z" />
    <glyph glyph-name="nacute" unicode="&#x144;" horiz-adv-x="539" 
d="M146 0h-73v381c0 39 -1 78 -5 117h67l3 -86c35 64 89 96 161 96c128 0 167 -84 167 -199v-309h-72v295c0 79 -16 151 -112 151c-104 0 -136 -90 -136 -178v-268zM284 585h-61l72 136h85z" />
    <glyph glyph-name="ncaron" unicode="&#x148;" horiz-adv-x="539" 
d="M305 585h-74l-103 136h65l75 -97l75 97h65zM146 0h-73v381c0 39 -1 78 -5 117h67l3 -86c35 64 89 96 161 96c128 0 167 -84 167 -199v-309h-72v295c0 79 -16 151 -112 151c-104 0 -136 -90 -136 -178v-268z" />
    <glyph glyph-name="ntilde" unicode="&#xf1;" horiz-adv-x="539" 
d="M146 0h-73v381c0 39 -1 78 -5 117h67l3 -86c35 64 89 96 161 96c128 0 167 -84 167 -199v-309h-72v295c0 79 -16 151 -112 151c-104 0 -136 -90 -136 -178v-268zM174 599h-48c0 47 33 100 89 100c48 0 85 -41 117 -41c25 0 39 26 39 45h47c0 -43 -33 -99 -85 -99
c-50 0 -78 40 -116 40c-24 0 -43 -25 -43 -45z" />
    <glyph glyph-name="ncommaaccent" unicode="&#x146;" horiz-adv-x="539" 
d="M146 0h-73v381c0 39 -1 78 -5 117h67l3 -86c35 64 89 96 161 96c128 0 167 -84 167 -199v-309h-72v295c0 79 -16 151 -112 151c-104 0 -136 -90 -136 -178v-268zM250 -227h-50l47 159h67z" />
    <glyph glyph-name="ograve" unicode="&#xf2;" horiz-adv-x="551" 
d="M174 9c-87 42 -131 133 -131 242c0 143 85 257 233 257c156 0 233 -110 233 -257c0 -144 -79 -262 -233 -262c-39 0 -73 7 -102 20zM157 114c25 -37 64 -64 119 -64c109 0 155 105 155 201c0 100 -43 196 -155 196c-110 0 -155 -100 -155 -196c0 -48 11 -98 36 -137z
M319 585h-59l-97 136h85z" />
    <glyph glyph-name="oacute" unicode="&#xf3;" horiz-adv-x="551" 
d="M174 9c-87 42 -131 133 -131 242c0 143 85 257 233 257c156 0 233 -110 233 -257c0 -144 -79 -262 -233 -262c-39 0 -73 7 -102 20zM157 114c25 -37 64 -64 119 -64c109 0 155 105 155 201c0 100 -43 196 -155 196c-110 0 -155 -100 -155 -196c0 -48 11 -98 36 -137z
M291 585h-61l72 136h85z" />
    <glyph glyph-name="ocircumflex" unicode="&#xf4;" horiz-adv-x="551" 
d="M174 9c-87 42 -131 133 -131 242c0 143 85 257 233 257c156 0 233 -110 233 -257c0 -144 -79 -262 -233 -262c-39 0 -73 7 -102 20zM157 114c25 -37 64 -64 119 -64c109 0 155 105 155 201c0 100 -43 196 -155 196c-110 0 -155 -100 -155 -196c0 -48 11 -98 36 -137z
M200 585h-65l103 136h74l103 -136h-65l-75 96z" />
    <glyph glyph-name="otilde" unicode="&#xf5;" horiz-adv-x="551" 
d="M174 9c-87 42 -131 133 -131 242c0 143 85 257 233 257c156 0 233 -110 233 -257c0 -144 -79 -262 -233 -262c-39 0 -73 7 -102 20zM157 114c25 -37 64 -64 119 -64c109 0 155 105 155 201c0 100 -43 196 -155 196c-110 0 -155 -100 -155 -196c0 -48 11 -98 36 -137z
M177 599h-48c0 47 33 100 89 100c48 0 85 -41 117 -41c25 0 39 26 39 45h47c0 -43 -33 -99 -85 -99c-50 0 -78 40 -116 40c-24 0 -43 -25 -43 -45z" />
    <glyph glyph-name="odieresis" unicode="&#xf6;" horiz-adv-x="551" 
d="M174 9c-87 42 -131 133 -131 242c0 143 85 257 233 257c156 0 233 -110 233 -257c0 -144 -79 -262 -233 -262c-39 0 -73 7 -102 20zM157 114c25 -37 64 -64 119 -64c109 0 155 105 155 201c0 100 -43 196 -155 196c-110 0 -155 -100 -155 -196c0 -48 11 -98 36 -137z
M386 609h-66v87h66v-87zM231 609h-66v87h66v-87z" />
    <glyph glyph-name="omacron" unicode="&#x14d;" horiz-adv-x="551" 
d="M174 9c-87 42 -131 133 -131 242c0 143 85 257 233 257c156 0 233 -110 233 -257c0 -144 -79 -262 -233 -262c-39 0 -73 7 -102 20zM157 114c25 -37 64 -64 119 -64c109 0 155 105 155 201c0 100 -43 196 -155 196c-110 0 -155 -100 -155 -196c0 -48 11 -98 36 -137z
M398 628h-245v51h245v-51z" />
    <glyph glyph-name="obreve" unicode="&#x14f;" horiz-adv-x="551" 
d="M174 9c-87 42 -131 133 -131 242c0 143 85 257 233 257c156 0 233 -110 233 -257c0 -144 -79 -262 -233 -262c-39 0 -73 7 -102 20zM157 114c25 -37 64 -64 119 -64c109 0 155 105 155 201c0 100 -43 196 -155 196c-110 0 -155 -100 -155 -196c0 -48 11 -98 36 -137z
M155 710h43c4 -40 31 -71 76 -71s72 31 77 71h43c0 -28 -22 -117 -120 -117c-97 0 -119 89 -119 117z" />
    <glyph glyph-name="ohungarumlaut" unicode="&#x151;" horiz-adv-x="551" 
d="M174 9c-87 42 -131 133 -131 242c0 143 85 257 233 257c156 0 233 -110 233 -257c0 -144 -79 -262 -233 -262c-39 0 -73 7 -102 20zM157 114c25 -37 64 -64 119 -64c109 0 155 105 155 201c0 100 -43 196 -155 196c-110 0 -155 -100 -155 -196c0 -48 11 -98 36 -137z
M382 585h-60l72 136h85zM212 585h-60l72 136h85z" />
    <glyph glyph-name="oslash" unicode="&#xf8;" horiz-adv-x="551" 
d="M407 368l-235 -271c24 -29 58 -47 105 -47c109 0 155 102 155 201c0 43 -6 84 -25 117zM149 133l233 272c-24 27 -58 42 -105 42c-110 0 -155 -100 -155 -196c0 -40 6 -85 27 -118zM64 -28l-37 27l67 77c-35 47 -50 107 -50 175c0 143 81 257 233 257
c64 0 113 -18 152 -51l59 68l37 -27l-64 -74c33 -45 49 -105 49 -173c0 -144 -79 -262 -233 -262c-64 0 -115 21 -152 54z" />
    <glyph glyph-name="oslashacute" unicode="&#x1ff;" horiz-adv-x="551" 
d="M407 368l-235 -271c24 -29 58 -47 105 -47c109 0 155 102 155 201c0 43 -6 84 -25 117zM149 133l233 272c-24 27 -58 42 -105 42c-110 0 -155 -100 -155 -196c0 -40 6 -85 27 -118zM64 -28l-37 27l67 77c-35 47 -50 107 -50 175c0 143 81 257 233 257
c64 0 113 -18 152 -51l59 68l37 -27l-64 -74c33 -45 49 -105 49 -173c0 -144 -79 -262 -233 -262c-64 0 -115 21 -152 54zM291 585h-61l72 136h85z" />
    <glyph glyph-name="oe" unicode="&#x153;" horiz-adv-x="876" 
d="M499 294h270c-5 68 -30 156 -127 156c-95 0 -140 -85 -143 -156zM840 240h-341c0 -96 46 -192 172 -192c48 0 100 14 137 38l3 -65c-43 -21 -95 -32 -142 -32c-99 0 -174 40 -209 112c-37 -67 -95 -112 -187 -112c-154 0 -230 121 -230 262c0 140 84 257 230 257
c95 0 155 -41 191 -109c35 64 92 109 176 109c155 0 200 -124 200 -256v-12zM155 114c25 -37 64 -64 119 -64c106 0 152 101 152 201c0 101 -43 196 -152 196c-110 0 -154 -100 -154 -196c0 -48 11 -98 35 -137z" />
    <glyph glyph-name="racute" unicode="&#x155;" horiz-adv-x="328" 
d="M146 0h-73v381c0 39 -1 78 -5 117h67l4 -94c19 51 71 104 132 104c15 0 27 0 42 -4l-4 -73c-13 4 -27 6 -40 6c-101 0 -123 -112 -123 -190v-247zM211 585h-61l72 136h85z" />
    <glyph glyph-name="rcaron" unicode="&#x159;" horiz-adv-x="328" 
d="M146 0h-73v381c0 39 -1 78 -5 117h67l4 -94c19 51 71 104 132 104c15 0 27 0 42 -4l-4 -73c-13 4 -27 6 -40 6c-101 0 -123 -112 -123 -190v-247zM233 585h-74l-103 136h65l75 -97l75 97h65z" />
    <glyph glyph-name="rcommaaccent" unicode="&#x157;" horiz-adv-x="328" 
d="M146 0h-73v381c0 39 -1 78 -5 117h67l4 -94c19 51 71 104 132 104c15 0 27 0 42 -4l-4 -73c-13 4 -27 6 -40 6c-101 0 -123 -112 -123 -190v-247zM77 -227h-50l47 159h67z" />
    <glyph glyph-name="sacute" unicode="&#x15b;" horiz-adv-x="389" 
d="M212 585h-61l72 136h85zM42 12l9 68c40 -21 77 -31 122 -31c56 0 95 27 95 83c0 121 -215 86 -215 238c0 100 83 138 161 138c41 0 78 -8 113 -21l-10 -63c-31 15 -67 25 -102 25c-39 0 -89 -15 -89 -75c0 -100 217 -69 217 -236c0 -96 -81 -149 -169 -149
c-48 0 -92 6 -132 23z" />
    <glyph glyph-name="scircumflex" unicode="&#x15d;" horiz-adv-x="389" 
d="M42 12l9 68c40 -21 77 -31 122 -31c56 0 95 27 95 83c0 121 -215 86 -215 238c0 100 83 138 161 138c41 0 78 -8 113 -21l-10 -63c-31 15 -67 25 -102 25c-39 0 -89 -15 -89 -75c0 -100 217 -69 217 -236c0 -96 -81 -149 -169 -149c-48 0 -92 6 -132 23zM121 585h-65
l103 136h74l103 -136h-65l-75 96z" />
    <glyph glyph-name="scaron" unicode="&#x161;" horiz-adv-x="389" 
d="M42 12l9 68c40 -21 77 -31 122 -31c56 0 95 27 95 83c0 121 -215 86 -215 238c0 100 83 138 161 138c41 0 78 -8 113 -21l-10 -63c-31 15 -67 25 -102 25c-39 0 -89 -15 -89 -75c0 -100 217 -69 217 -236c0 -96 -81 -149 -169 -149c-48 0 -92 6 -132 23zM235 585h-74
l-103 136h65l75 -97l75 97h65z" />
    <glyph glyph-name="scedilla" unicode="&#x15f;" horiz-adv-x="389" 
d="M85 -161l13 35c25 -11 50 -17 74 -17c27 0 50 11 50 34s-20 29 -39 29c-12 0 -25 -2 -39 -7l-15 18l41 58c-47 1 -89 7 -128 23l9 68c40 -21 77 -31 122 -31c56 0 95 27 95 83c0 121 -215 86 -215 238c0 100 83 138 161 138c41 0 78 -8 113 -21l-10 -63
c-31 15 -67 25 -102 25c-39 0 -89 -15 -89 -75c0 -100 217 -69 217 -236c0 -84 -62 -135 -136 -146l-31 -45c15 3 19 4 32 4c39 0 66 -21 66 -57c0 -45 -40 -74 -101 -74c-31 0 -55 4 -88 19z" />
    <glyph glyph-name="scommaaccent" unicode="&#x219;" horiz-adv-x="389" 
d="M42 12l9 68c40 -21 77 -31 122 -31c56 0 95 27 95 83c0 121 -215 86 -215 238c0 100 83 138 161 138c41 0 78 -8 113 -21l-10 -63c-31 15 -67 25 -102 25c-39 0 -89 -15 -89 -75c0 -100 217 -69 217 -236c0 -96 -81 -149 -169 -149c-48 0 -92 6 -132 23zM177 -227h-50
l47 159h67z" />
    <glyph glyph-name="germandbls" unicode="&#xdf;" horiz-adv-x="550" 
d="M146 0h-73v487c0 125 67 244 223 244c121 0 188 -62 188 -194c0 -19 -2 -50 -6 -73c-84 0 -163 -8 -163 -84c0 -92 203 -90 203 -247c0 -104 -84 -144 -167 -144c-35 0 -72 5 -115 20l6 65c35 -17 69 -26 109 -26c53 0 92 27 92 83c0 120 -200 101 -200 246
c0 97 74 133 167 138c3 9 3 23 3 34c0 70 -33 122 -117 122c-120 0 -150 -100 -150 -184v-487z" />
    <glyph glyph-name="tcaron" unicode="&#x165;" horiz-adv-x="328" 
d="M303 65l4 -61c-25 -11 -54 -15 -81 -15c-102 0 -115 74 -115 165v287h-94v57h94v112l72 25v-137h113v-57h-113v-306c0 -44 12 -83 64 -83c20 0 37 5 56 13zM298 557h-53l21 164h75z" />
    <glyph glyph-name="tcommaaccent" unicode="&#x163;" horiz-adv-x="328" 
d="M303 65l4 -61c-25 -11 -54 -15 -81 -15c-102 0 -115 74 -115 165v287h-94v57h94v112l72 25v-137h113v-57h-113v-306c0 -44 12 -83 64 -83c20 0 37 5 56 13zM165 -227h-50l47 159h67z" />
    <glyph glyph-name="uni021B" unicode="&#x21b;" horiz-adv-x="328" 
d="M303 65l4 -61c-25 -11 -54 -15 -81 -15c-102 0 -115 74 -115 165v287h-94v57h94v112l72 25v-137h113v-57h-113v-306c0 -44 12 -83 64 -83c20 0 37 5 56 13zM165 -227h-50l47 159h67z" />
    <glyph glyph-name="tbar" unicode="&#x167;" horiz-adv-x="328" 
d="M303 65l4 -61c-25 -11 -54 -15 -81 -15c-102 0 -115 74 -115 165v144h-82v51h82v92h-94v57h94v112l72 25v-137h113v-57h-113v-92h97v-51h-97v-163c0 -44 12 -83 64 -83c20 0 37 5 56 13z" />
    <glyph glyph-name="thorn" unicode="&#xfe;" horiz-adv-x="543" 
d="M146 -216h-73v937h73v-307c25 59 90 94 153 94c152 0 202 -125 202 -257c0 -128 -55 -262 -203 -262c-65 0 -127 33 -152 92v-297zM173 118c23 -39 58 -67 111 -67c111 0 138 109 138 200c0 92 -25 195 -138 195c-104 0 -141 -107 -141 -195c0 -44 9 -93 30 -133z" />
    <glyph glyph-name="ugrave" unicode="&#xf9;" horiz-adv-x="535" 
d="M144 498v-295c0 -79 15 -151 110 -151c104 0 136 90 136 178v268h72v-381c0 -39 1 -78 5 -117h-67l-2 86c-35 -64 -88 -97 -161 -97c-127 0 -166 85 -166 201v308h73zM312 585h-59l-97 136h85z" />
    <glyph glyph-name="uacute" unicode="&#xfa;" horiz-adv-x="535" 
d="M144 498v-295c0 -79 15 -151 110 -151c104 0 136 90 136 178v268h72v-381c0 -39 1 -78 5 -117h-67l-2 86c-35 -64 -88 -97 -161 -97c-127 0 -166 85 -166 201v308h73zM284 585h-61l72 136h85z" />
    <glyph glyph-name="ucircumflex" unicode="&#xfb;" horiz-adv-x="535" 
d="M144 498v-295c0 -79 15 -151 110 -151c104 0 136 90 136 178v268h72v-381c0 -39 1 -78 5 -117h-67l-2 86c-35 -64 -88 -97 -161 -97c-127 0 -166 85 -166 201v308h73zM193 585h-65l103 136h74l103 -136h-65l-75 96z" />
    <glyph glyph-name="utilde" unicode="&#x169;" horiz-adv-x="535" 
d="M144 498v-295c0 -79 15 -151 110 -151c104 0 136 90 136 178v268h72v-381c0 -39 1 -78 5 -117h-67l-2 86c-35 -64 -88 -97 -161 -97c-127 0 -166 85 -166 201v308h73zM172 599h-48c0 47 33 100 89 100c48 0 85 -41 117 -41c25 0 39 26 39 45h47c0 -43 -33 -99 -85 -99
c-50 0 -78 40 -116 40c-24 0 -43 -25 -43 -45z" />
    <glyph glyph-name="udieresis" unicode="&#xfc;" horiz-adv-x="535" 
d="M144 498v-295c0 -79 15 -151 110 -151c104 0 136 90 136 178v268h72v-381c0 -39 1 -78 5 -117h-67l-2 86c-35 -64 -88 -97 -161 -97c-127 0 -166 85 -166 201v308h73zM378 609h-66v87h66v-87zM223 609h-66v87h66v-87z" />
    <glyph glyph-name="umacron" unicode="&#x16b;" horiz-adv-x="535" 
d="M144 498v-295c0 -79 15 -151 110 -151c104 0 136 90 136 178v268h72v-381c0 -39 1 -78 5 -117h-67l-2 86c-35 -64 -88 -97 -161 -97c-127 0 -166 85 -166 201v308h73zM391 628h-245v51h245v-51z" />
    <glyph glyph-name="ubreve" unicode="&#x16d;" horiz-adv-x="535" 
d="M144 498v-295c0 -79 15 -151 110 -151c104 0 136 90 136 178v268h72v-381c0 -39 1 -78 5 -117h-67l-2 86c-35 -64 -88 -97 -161 -97c-127 0 -166 85 -166 201v308h73zM148 710h43c4 -40 31 -71 76 -71s72 31 77 71h43c0 -28 -22 -117 -120 -117c-97 0 -119 89 -119 117z
" />
    <glyph glyph-name="uring" unicode="&#x16f;" horiz-adv-x="535" 
d="M144 498v-295c0 -79 15 -151 110 -151c104 0 136 90 136 178v268h72v-381c0 -39 1 -78 5 -117h-67l-2 86c-35 -64 -88 -97 -161 -97c-127 0 -166 85 -166 201v308h73zM230 567c-34 14 -58 47 -58 86c0 52 43 92 95 92s96 -40 96 -92s-44 -93 -96 -93c-13 0 -26 2 -37 7z
M208 653c0 -33 27 -59 59 -59c33 0 60 26 60 59c0 32 -27 58 -60 58s-59 -26 -59 -58z" />
    <glyph glyph-name="uhungarumlaut" unicode="&#x171;" horiz-adv-x="535" 
d="M144 498v-295c0 -79 15 -151 110 -151c104 0 136 90 136 178v268h72v-381c0 -39 1 -78 5 -117h-67l-2 86c-35 -64 -88 -97 -161 -97c-127 0 -166 85 -166 201v308h73zM376 585h-60l72 136h85zM206 585h-60l72 136h85z" />
    <glyph glyph-name="uogonek" unicode="&#x173;" horiz-adv-x="535" 
d="M492 -125l11 -35c-24 -12 -46 -20 -81 -20c-57 0 -92 35 -92 76c0 45 30 81 82 104h-11l-3 86c-35 -64 -88 -97 -161 -97c-127 0 -166 85 -166 201v308h73v-295c0 -79 15 -151 110 -151c104 0 136 90 136 178v268h72v-381c0 -39 1 -78 5 -117h-10
c-49 -30 -73 -61 -73 -93c0 -35 26 -47 49 -47c21 0 36 4 59 15z" />
    <glyph glyph-name="wacute" unicode="&#x1e83;" horiz-adv-x="771" 
d="M259 0h-88l-158 498h78l127 -430l129 430h87l129 -430l126 430h70l-155 -498h-89l-127 429zM414 585h-61l72 136h85z" />
    <glyph glyph-name="wcircumflex" unicode="&#x175;" horiz-adv-x="771" 
d="M259 0h-88l-158 498h78l127 -430l129 430h87l129 -430l126 430h70l-155 -498h-89l-127 429zM314 585h-65l103 136h74l103 -136h-65l-75 96z" />
    <glyph glyph-name="wdieresis" unicode="&#x1e85;" horiz-adv-x="771" 
d="M259 0h-88l-158 498h78l127 -430l129 430h87l129 -430l126 430h70l-155 -498h-89l-127 429zM496 609h-66v87h66v-87zM341 609h-66v87h66v-87z" />
    <glyph glyph-name="wgrave" unicode="&#x1e81;" horiz-adv-x="771" 
d="M259 0h-88l-158 498h78l127 -430l129 430h87l129 -430l126 430h70l-155 -498h-89l-127 429zM420 585h-59l-97 136h85z" />
    <glyph glyph-name="yacute" unicode="&#xfd;" horiz-adv-x="444" 
d="M31 -219l6 63c15 -5 29 -9 45 -9c55 0 82 80 93 115l10 33l-173 515h79l134 -429l133 429h76l-200 -585c-27 -77 -67 -140 -143 -140c-24 0 -37 3 -60 8zM252 585h-61l72 136h85z" />
    <glyph glyph-name="ycircumflex" unicode="&#x177;" horiz-adv-x="444" 
d="M31 -219l6 63c15 -5 29 -9 45 -9c55 0 82 80 93 115l10 33l-173 515h79l134 -429l133 429h76l-200 -585c-27 -77 -67 -140 -143 -140c-24 0 -37 3 -60 8zM150 585h-65l103 136h74l103 -136h-65l-75 96z" />
    <glyph glyph-name="ydieresis" unicode="&#xff;" horiz-adv-x="444" 
d="M31 -219l6 63c15 -5 29 -9 45 -9c55 0 82 80 93 115l10 33l-173 515h79l134 -429l133 429h76l-200 -585c-27 -77 -67 -140 -143 -140c-24 0 -37 3 -60 8zM337 609h-66v87h66v-87zM182 609h-66v87h66v-87z" />
    <glyph glyph-name="ygrave" unicode="&#x1ef3;" horiz-adv-x="444" 
d="M31 -219l6 63c15 -5 29 -9 45 -9c55 0 82 80 93 115l10 33l-173 515h79l134 -429l133 429h76l-200 -585c-27 -77 -67 -140 -143 -140c-24 0 -37 3 -60 8zM261 585h-59l-97 136h85z" />
    <glyph glyph-name="zacute" unicode="&#x17a;" horiz-adv-x="424" 
d="M395 0h-365v59l281 381h-270v58h352v-59l-281 -381h283v-58zM232 585h-61l72 136h85z" />
    <glyph glyph-name="zcaron" unicode="&#x17e;" horiz-adv-x="424" 
d="M395 0h-365v59l281 381h-270v58h352v-59l-281 -381h283v-58zM253 585h-74l-103 136h65l75 -97l75 97h65z" />
    <glyph glyph-name="zdotaccent" unicode="&#x17c;" horiz-adv-x="424" 
d="M395 0h-365v59l281 381h-270v58h352v-59l-281 -381h283v-58zM256 609h-73v87h73v-87z" />
    <glyph glyph-name="f_f" unicode="&#xfb00;" horiz-adv-x="622" 
d="M191 0h-73v440h-97v58h97v64c0 71 12 169 134 169c19 0 47 -1 64 -10l-6 -60c-15 7 -32 9 -48 9c-61 0 -72 -49 -72 -105v-67h112v-58h-111v-440zM497 0h-73v440h-97v58h97v64c0 71 12 169 134 169c19 0 47 -1 64 -10l-6 -60c-15 7 -32 9 -48 9c-61 0 -72 -49 -72 -105
v-67h112v-58h-111v-440z" />
    <glyph glyph-name="grave.cap" unicode="&#xe000;" horiz-adv-x="218" 
d="M154 724h-59l-97 136h85z" />
    <glyph glyph-name="acute" unicode="&#xb4;" horiz-adv-x="218" 
d="M123 585h-61l72 136h85z" />
    <glyph glyph-name="acute.cap" unicode="&#xe002;" horiz-adv-x="218" 
d="M123 724h-61l72 136h85z" />
    <glyph glyph-name="circumflex" unicode="&#x2c6;" horiz-adv-x="218" 
d="M34 585h-65l103 136h74l103 -136h-65l-75 96z" />
    <glyph glyph-name="circumflex.cap" unicode="&#xe004;" horiz-adv-x="218" 
d="M34 724h-65l103 136h74l103 -136h-65l-75 96z" />
    <glyph glyph-name="caron" unicode="&#x2c7;" horiz-adv-x="218" 
d="M146 585h-74l-103 136h65l75 -97l75 97h65z" />
    <glyph glyph-name="caron.cap" unicode="&#xe006;" horiz-adv-x="218" 
d="M146 724h-74l-103 136h65l75 -97l75 97h65z" />
    <glyph glyph-name="caron.alt" unicode="&#xe008;" horiz-adv-x="218" 
d="M190 557h-53l21 164h75z" />
    <glyph glyph-name="tilde" unicode="&#x2dc;" horiz-adv-x="218" 
d="M11 599h-48c0 47 33 100 89 100c48 0 85 -41 117 -41c25 0 39 26 39 45h47c0 -43 -33 -99 -85 -99c-50 0 -78 40 -116 40c-24 0 -43 -25 -43 -45z" />
    <glyph glyph-name="tilde.cap" unicode="&#xe009;" horiz-adv-x="218" 
d="M11 738h-48c0 47 33 100 89 100c48 0 85 -41 117 -41c25 0 39 26 39 45h47c0 -43 -33 -99 -85 -99c-50 0 -78 40 -116 40c-24 0 -43 -25 -43 -45z" />
    <glyph glyph-name="dieresis" unicode="&#xa8;" horiz-adv-x="218" 
d="M220 609h-66v87h66v-87zM65 609h-66v87h66v-87z" />
    <glyph glyph-name="dieresis.cap" unicode="&#xe00b;" horiz-adv-x="218" 
d="M65 748h-66v87h66v-87zM220 748h-66v87h66v-87z" />
    <glyph glyph-name="macron" unicode="&#xaf;" horiz-adv-x="218" 
d="M232 628h-245v51h245v-51z" />
    <glyph glyph-name="macron.cap" unicode="&#xe00d;" horiz-adv-x="218" 
d="M232 767h-245v51h245v-51z" />
    <glyph glyph-name="uni02C9" unicode="&#x2c9;" horiz-adv-x="218" 
d="M232 628h-245v51h245v-51z" />
    <glyph glyph-name="breve" unicode="&#x2d8;" horiz-adv-x="218" 
d="M-10 710h43c4 -40 31 -71 76 -71s72 31 77 71h43c0 -28 -22 -117 -120 -117c-97 0 -119 89 -119 117z" />
    <glyph glyph-name="breve.cap" unicode="&#xe00f;" horiz-adv-x="218" 
d="M-10 849h43c4 -40 31 -71 76 -71s72 31 77 71h43c0 -28 -22 -117 -120 -117c-97 0 -119 89 -119 117z" />
    <glyph glyph-name="ring" unicode="&#x2da;" horiz-adv-x="218" 
d="M72 567c-34 14 -58 47 -58 86c0 52 43 92 95 92s96 -40 96 -92s-44 -93 -96 -93c-13 0 -26 2 -37 7zM50 653c0 -33 27 -59 59 -59c33 0 60 26 60 59c0 32 -27 58 -60 58s-59 -26 -59 -58z" />
    <glyph glyph-name="ring.cap" unicode="&#xe011;" horiz-adv-x="218" 
d="M50 792c0 -33 27 -59 59 -59c33 0 60 26 60 59c0 32 -27 58 -60 58s-59 -26 -59 -58zM72 706c-34 14 -58 47 -58 86c0 52 43 92 95 92s96 -40 96 -92s-44 -93 -96 -93c-13 0 -26 2 -37 7z" />
    <glyph glyph-name="hungarumlaut" unicode="&#x2dd;" horiz-adv-x="218" 
d="M179 585h-60l72 136h85zM9 585h-60l72 136h85z" />
    <glyph glyph-name="hungarumlaut.cap" unicode="&#xe013;" horiz-adv-x="218" 
d="M9 724h-60l72 136h85zM179 724h-60l72 136h85z" />
    <glyph glyph-name="dotaccent" unicode="&#x2d9;" horiz-adv-x="218" 
d="M146 609h-73v87h73v-87z" />
    <glyph glyph-name="dotaccent.cap" unicode="&#xe015;" horiz-adv-x="218" 
d="M146 748h-73v87h73v-87z" />
    <glyph glyph-name="cedilla" unicode="&#xb8;" horiz-adv-x="218" 
d="M16 -161l13 35c25 -11 50 -17 74 -17c27 0 50 11 50 34s-20 29 -39 29c-12 0 -25 -2 -39 -7l-15 18l49 69h37l-39 -53c15 3 19 4 32 4c39 0 66 -21 66 -57c0 -45 -40 -74 -101 -74c-31 0 -55 4 -88 19z" />
    <glyph glyph-name="ogonek" unicode="&#x2db;" horiz-adv-x="218" 
d="M189 -125l11 -35c-24 -12 -46 -20 -81 -20c-57 0 -92 35 -92 76c0 45 30 81 82 104h45c-49 -30 -73 -61 -73 -93c0 -35 26 -47 49 -47c21 0 36 4 59 15z" />
    <glyph glyph-name="commaaccent" unicode="&#xe017;" horiz-adv-x="218" 
d="M79 -227h-50l47 159h67z" />
    <glyph glyph-name="commaaccent.alt" unicode="&#xe01a;" horiz-adv-x="218" 
d="M294 585h-63l50 136h46z" />
    <glyph glyph-name="ellipsis" unicode="&#x2026;" horiz-adv-x="1000" 
d="M877 0h-87v89h87v-89zM544 0h-87v89h87v-89zM210 0h-87v89h87v-89z" />
    <glyph glyph-name="uni00AD" unicode="&#xad;" horiz-adv-x="320" 
d="M281 277h-242v66h242v-66z" />
    <glyph glyph-name="exclamdown" unicode="&#xa1;" horiz-adv-x="268" 
d="M177 409h-86v89h86v-89zM179 -169h-90l13 499h64z" />
    <glyph glyph-name="questiondown" unicode="&#xbf;" horiz-adv-x="406" 
d="M283 409h-86v89h86v-89zM372 -86l6 -68c-47 -15 -88 -25 -148 -25c-107 0 -192 57 -192 169c0 156 167 176 167 325v15h70v-13c0 -172 -156 -179 -156 -323c0 -69 51 -106 118 -106c47 0 92 11 135 26z" />
    <glyph glyph-name="quoteleft" unicode="&#x2018;" horiz-adv-x="271" 
d="M122 504h-84l83 217h59z" />
    <glyph glyph-name="quoteright" unicode="&#x2019;" horiz-adv-x="271" 
d="M97 504h-59l58 217h84z" />
    <glyph glyph-name="quotedblleft" unicode="&#x201c;" horiz-adv-x="443" 
d="M294 504h-83l83 217h58zM122 504h-84l83 217h59z" />
    <glyph glyph-name="quotedblright" unicode="&#x201d;" horiz-adv-x="443" 
d="M269 504h-59l58 217h84zM97 504h-59l58 217h84z" />
    <glyph glyph-name="quotesinglbase" unicode="&#x201a;" horiz-adv-x="271" 
d="M97 -128h-59l58 217h84z" />
    <glyph glyph-name="quotedblbase" unicode="&#x201e;" horiz-adv-x="443" 
d="M269 -128h-58l58 217h83zM97 -128h-59l58 217h84z" />
    <glyph glyph-name="guilsinglleft" unicode="&#x2039;" horiz-adv-x="266" 
d="M227 55h-66l-131 200l131 198h66l-126 -198z" />
    <glyph glyph-name="guilsinglright" unicode="&#x203a;" horiz-adv-x="266" 
d="M106 55h-66l125 199l-125 199h66l131 -199z" />
    <glyph glyph-name="guillemotleft" unicode="&#xab;" horiz-adv-x="438" 
d="M399 55h-66l-131 200l131 198h66l-126 -198zM227 55h-66l-131 200l131 198h66l-126 -198z" />
    <glyph glyph-name="guillemotright" unicode="&#xbb;" horiz-adv-x="438" 
d="M277 55h-65l125 199l-125 199h65l132 -199zM105 55h-65l125 199l-125 199h65l132 -199z" />
    <glyph glyph-name="endash" unicode="&#x2013;" horiz-adv-x="500" 
d="M500 282h-500v56h500v-56z" />
    <glyph glyph-name="emdash" unicode="&#x2014;" horiz-adv-x="1000" 
d="M1000 282h-1000v56h1000v-56z" />
    <glyph glyph-name="bullet" unicode="&#x2022;" horiz-adv-x="542" 
d="M226 205c-40 18 -69 57 -69 105c0 63 51 114 114 114s115 -51 115 -114s-52 -114 -115 -114c-16 0 -31 3 -45 9z" />
    <glyph glyph-name="periodcentered" unicode="&#xb7;" horiz-adv-x="271" 
d="M179 266h-86v88h86v-88z" />
    <glyph glyph-name="uni2219" unicode="&#x2219;" horiz-adv-x="271" 
d="M179 266h-86v88h86v-88z" />
    <glyph glyph-name="dagger" unicode="&#x2020;" horiz-adv-x="542" 
d="M310 -128h-77v556h-176v66h176v227h77v-227h176v-66h-176v-556z" />
    <glyph glyph-name="daggerdbl" unicode="&#x2021;" horiz-adv-x="542" 
d="M310 -128h-77v227h-176v66h176v263h-176v66h176v227h77v-227h176v-66h-176v-263h176v-66h-176v-227z" />
    <glyph glyph-name="section" unicode="&#xa7;" horiz-adv-x="542" 
d="M225 219l108 -48c27 28 54 61 54 102c0 47 -45 69 -82 85l-83 36c-35 -19 -63 -58 -63 -98c0 -37 33 -62 66 -77zM88 -96l6 63c49 -23 101 -31 154 -31c57 0 128 29 128 96c0 44 -47 67 -82 83l-115 50c-52 23 -91 65 -91 126c0 55 44 99 84 131c-43 23 -68 63 -68 112
c0 99 91 143 179 143c55 0 91 -5 142 -21l-6 -64c-33 15 -85 25 -121 25c-49 0 -119 -20 -119 -80c0 -51 33 -65 90 -92l95 -43c57 -27 94 -55 94 -123c0 -61 -32 -90 -72 -130c43 -28 65 -65 65 -118c0 -104 -103 -155 -197 -155c-57 0 -111 9 -166 28z" />
    <glyph glyph-name="paragraph" unicode="&#xb6;" horiz-adv-x="541" 
d="M306 -108h-65v430c-103 0 -201 63 -201 173c0 133 100 181 220 181h238v-784h-66v729h-126v-729z" />
    <glyph glyph-name="brokenbar" unicode="&#xa6;" horiz-adv-x="216" 
d="M145 379h-73v396h73v-396zM145 -216h-73v397h73v-397z" />
    <glyph glyph-name="copyright" unicode="&#xa9;" horiz-adv-x="791" 
d="M262 16c-124 53 -210 175 -210 318c0 189 154 343 344 343s344 -154 344 -343c0 -190 -154 -345 -344 -345c-47 0 -92 9 -134 27zM194 129c52 -53 122 -86 202 -86c160 0 284 133 284 291c0 157 -125 289 -284 289s-284 -132 -284 -289c0 -79 31 -152 82 -205zM522 206
l4 -54c-31 -13 -63 -19 -96 -19c-134 0 -220 78 -220 201c0 120 91 201 220 201c31 0 67 -6 96 -17l-4 -54c-27 11 -59 19 -88 19c-103 0 -162 -61 -162 -149c0 -89 58 -149 162 -149c32 0 59 9 88 21z" />
    <glyph glyph-name="registered" unicode="&#xae;" horiz-adv-x="789" 
d="M261 16c-124 53 -210 175 -210 318c0 189 154 343 344 343s344 -154 344 -343c0 -190 -154 -345 -344 -345c-47 0 -92 9 -134 27zM193 129c52 -52 122 -86 202 -86c159 0 284 134 284 291s-125 289 -284 289s-284 -132 -284 -289c0 -79 31 -152 82 -205zM322 145h-59v391
h130c72 0 134 -28 134 -103c0 -52 -46 -87 -98 -95c33 -7 49 -24 61 -51l64 -142h-63l-54 122c-16 39 -32 51 -80 51h-35v-173zM322 488v-122h44c48 0 99 13 99 65c0 49 -49 57 -100 57h-43z" />
    <glyph glyph-name="trademark" unicode="&#x2122;" horiz-adv-x="916" 
d="M449 266h-59v401h98l141 -336l137 336h97v-401h-62v357l-145 -357h-59l-148 357v-357zM199 266h-63v353h-131v48h326v-48h-132v-353z" />
    <glyph glyph-name="currency" unicode="&#xa4;" horiz-adv-x="542" 
d="M81 101l-41 40l63 64c-29 39 -43 77 -43 128c0 47 14 89 43 128l-64 64l41 40l63 -64c37 29 80 43 128 43c51 0 89 -14 129 -42l63 62l41 -40l-64 -63c27 -39 43 -80 43 -129c0 -47 -14 -89 -43 -126l64 -66l-41 -40l-64 65c-37 -30 -80 -45 -127 -45s-91 17 -128 44z
M133 273c23 -52 75 -91 138 -91c83 0 151 67 151 150s-68 151 -151 151c-84 0 -150 -67 -150 -151c0 -21 4 -40 12 -59z" />
    <glyph glyph-name="Euro" unicode="&#x20ac;" horiz-adv-x="542" 
d="M118 241h-89l11 50h72c-1 15 -2 28 -2 43c0 13 1 28 2 41h-82l11 50h78c27 137 119 252 269 252c41 0 89 -8 126 -27l-14 -65c-31 17 -70 25 -106 25c-112 0 -172 -85 -194 -185h269l-11 -50h-266c-1 -15 -2 -27 -2 -42s1 -27 2 -42h250l-11 -50h-231
c19 -101 82 -185 193 -185c35 0 77 6 108 25l6 -68c-32 -19 -82 -24 -119 -24c-152 0 -246 109 -270 252z" />
    <glyph glyph-name="cent" unicode="&#xa2;" horiz-adv-x="542" 
d="M326 0h-50v92c-124 16 -191 122 -191 244c0 123 73 221 191 240v91h50v-89c36 0 71 -9 106 -21l-6 -64c-32 15 -64 25 -97 25c-110 0 -167 -79 -167 -182c0 -97 56 -186 161 -186c35 0 69 8 104 23l6 -64c-35 -13 -71 -19 -107 -19v-90z" />
    <glyph glyph-name="sterling" unicode="&#xa3;" horiz-adv-x="542" 
d="M478 0h-397v63h80v266h-76v63h76v57c0 133 58 228 214 228c35 0 80 -5 112 -20l-9 -67c-29 17 -64 22 -99 22c-124 0 -141 -81 -141 -169v-51h168v-63h-168v-266h240v-63z" />
    <glyph glyph-name="florin" unicode="&#x192;" horiz-adv-x="542" 
d="M-7 -222l6 63c16 -4 30 -4 45 -4c66 0 92 95 102 147l74 359h-108v57h120l25 108c19 89 53 169 157 169c20 0 41 -3 60 -10l-6 -60c-16 4 -32 7 -47 7c-60 0 -79 -60 -90 -112l-24 -102h109v-57h-121l-76 -364c-19 -85 -52 -206 -157 -206c-23 0 -45 1 -69 5z" />
    <glyph glyph-name="yen" unicode="&#xa5;" horiz-adv-x="542" 
d="M308 0h-78v148h-146v56h146v71h-146v56h119l-174 336h82l161 -323l160 323h82l-180 -336h124v-56h-150v-71h150v-56h-150v-148z" />
    <glyph glyph-name="ordfeminine" unicode="&#xaa;" horiz-adv-x="370" 
d="M242 513h-24c-57 0 -121 -7 -121 -58c0 -35 27 -49 58 -49c61 0 87 44 87 93v14zM303 366h-57l-3 49c-21 -37 -62 -56 -102 -56c-56 0 -102 28 -102 92c0 81 72 105 161 105h42v9c0 43 -23 65 -75 65c-31 0 -61 -7 -90 -22l-4 50c27 12 68 19 99 19
c80 0 127 -35 127 -116v-126c0 -28 1 -49 4 -69z" />
    <glyph glyph-name="ordmasculine" unicode="&#xba;" horiz-adv-x="370" 
d="M116 444c15 -21 37 -35 69 -35c65 0 91 54 91 109c0 51 -25 109 -89 109c-66 0 -91 -56 -91 -109c0 -27 7 -53 20 -74zM185 359c-100 0 -153 67 -153 159c0 91 57 159 155 159c99 0 152 -66 152 -159c0 -91 -56 -159 -154 -159z" />
    <glyph glyph-name="onesuperior" unicode="&#xb9;" 
d="M258 369h-63v335l-85 -62l-29 45l123 87h54v-405z" />
    <glyph glyph-name="twosuperior" unicode="&#xb2;" 
d="M328 369h-273v52l73 67c88 80 127 128 127 176c0 40 -37 62 -80 62c-40 0 -71 -10 -102 -25l-3 54c35 15 73 25 112 25c72 0 138 -33 138 -114c0 -68 -53 -126 -118 -185l-66 -60h192v-52z" />
    <glyph glyph-name="threesuperior" unicode="&#xb3;" 
d="M55 377l3 53c29 -11 67 -16 100 -16c56 0 108 23 108 76c0 50 -52 66 -103 66h-54v49h45c57 0 106 14 106 66c0 43 -50 58 -95 58c-33 0 -68 -6 -96 -18l-3 52c34 11 70 17 108 17c71 0 149 -24 149 -104c0 -51 -31 -81 -75 -93c45 -11 83 -43 83 -92
c0 -91 -84 -129 -169 -129c-39 0 -72 4 -107 15z" />
    <glyph glyph-name="fraction" unicode="&#x2044;" horiz-adv-x="169" 
d="M-98 -24h-59l424 715h59z" />
    <glyph glyph-name="uni2215" unicode="&#x2215;" horiz-adv-x="169" 
d="M-98 -24h-59l424 715h59z" />
    <glyph glyph-name="onehalf" unicode="&#xbd;" horiz-adv-x="900" 
d="M226 265h-63v335l-85 -62l-29 45l123 87h54v-405zM796 0h-273v52l73 67c88 80 127 128 127 176c0 40 -37 62 -80 62c-40 0 -71 -10 -102 -25l-3 54c35 15 73 25 112 25c72 0 138 -33 138 -114c0 -68 -53 -126 -118 -185l-66 -60h192v-52zM206 -24h-59l424 715h59z" />
    <glyph glyph-name="onethird" unicode="&#x2153;" horiz-adv-x="900" 
d="M243 265h-63v335l-85 -62l-29 45l123 87h54v-405zM223 -24h-59l424 715h59zM539 8l3 53c29 -11 67 -16 100 -16c56 0 108 23 108 76c0 50 -52 66 -103 66h-54v49h45c57 0 106 14 106 66c0 43 -50 58 -95 58c-33 0 -68 -6 -96 -18l-3 52c34 11 70 17 108 17
c71 0 149 -24 149 -104c0 -51 -31 -81 -75 -93c45 -11 83 -43 83 -92c0 -91 -84 -129 -169 -129c-39 0 -72 4 -107 15z" />
    <glyph glyph-name="onequarter" unicode="&#xbc;" horiz-adv-x="900" 
d="M671 343l-146 -203h146v203zM670 88h-199v59l189 258h71v-265h61v-52h-61v-88h-61v88zM248 265h-63v335l-85 -62l-29 45l123 87h54v-405zM226 -24h-59l424 715h59z" />
    <glyph glyph-name="oneeighth" unicode="&#x215b;" horiz-adv-x="900" 
d="M243 265h-63v335l-85 -62l-29 45l123 87h54v-405zM223 -24h-59l424 715h59zM729 160c-16 13 -38 23 -65 31c-53 -13 -90 -38 -90 -81s41 -68 89 -68c49 0 90 25 90 69c0 21 -8 37 -24 49zM609 258c16 -11 35 -19 56 -25c36 10 77 35 77 71c0 40 -38 60 -79 60
c-40 0 -78 -22 -78 -61c0 -19 8 -34 24 -45zM536 173c16 16 37 28 62 37c-43 19 -74 44 -74 95c0 75 80 106 139 106c65 0 140 -28 140 -105c0 -48 -37 -78 -76 -95c53 -16 89 -44 89 -105c0 -80 -83 -113 -153 -113c-71 0 -151 31 -151 111c0 30 8 53 24 69z" />
    <glyph glyph-name="twothirds" unicode="&#x2154;" horiz-adv-x="900" 
d="M325 265h-273v52l73 67c88 80 127 128 127 176c0 40 -37 62 -80 62c-40 0 -71 -10 -102 -25l-3 54c35 15 73 25 112 25c72 0 138 -33 138 -114c0 -68 -53 -126 -118 -185l-66 -60h192v-52zM278 -24h-59l424 715h59zM580 8l3 53c29 -11 67 -16 100 -16c56 0 108 23 108 76
c0 50 -52 66 -103 66h-54v49h45c57 0 106 14 106 66c0 43 -50 58 -95 58c-33 0 -68 -6 -96 -18l-3 52c34 11 70 17 108 17c71 0 149 -24 149 -104c0 -51 -31 -81 -75 -93c45 -11 83 -43 83 -92c0 -91 -84 -129 -169 -129c-39 0 -72 4 -107 15z" />
    <glyph glyph-name="threequarters" unicode="&#xbe;" horiz-adv-x="900" 
d="M744 343l-146 -203h146v203zM743 88h-199v59l189 258h71v-265h61v-52h-61v-88h-61v88zM60 273l3 53c29 -11 67 -16 100 -16c56 0 108 23 108 76c0 50 -52 66 -103 66h-54v49h45c57 0 106 14 106 66c0 43 -50 58 -95 58c-33 0 -68 -6 -96 -18l-3 52c34 11 70 17 108 17
c71 0 149 -24 149 -104c0 -51 -31 -81 -75 -93c45 -11 83 -43 83 -92c0 -91 -84 -129 -169 -129c-39 0 -72 4 -107 15zM299 -24h-59l424 715h59z" />
    <glyph glyph-name="threeeighths" unicode="&#x215c;" horiz-adv-x="900" 
d="M60 273l3 53c29 -11 67 -16 100 -16c56 0 108 23 108 76c0 50 -52 66 -103 66h-54v49h45c57 0 106 14 106 66c0 43 -50 58 -95 58c-33 0 -68 -6 -96 -18l-3 52c34 11 70 17 108 17c71 0 149 -24 149 -104c0 -51 -31 -81 -75 -93c45 -11 83 -43 83 -92
c0 -91 -84 -129 -169 -129c-39 0 -72 4 -107 15zM256 -24h-59l424 715h59zM754 160c-16 13 -38 23 -65 31c-53 -13 -90 -38 -90 -81s41 -68 89 -68c49 0 90 25 90 69c0 21 -8 37 -24 49zM634 258c16 -11 35 -19 56 -25c36 10 77 35 77 71c0 40 -38 60 -79 60
c-40 0 -78 -22 -78 -61c0 -19 8 -34 24 -45zM561 173c16 16 37 28 62 37c-43 19 -74 44 -74 95c0 75 80 106 139 106c65 0 140 -28 140 -105c0 -48 -37 -78 -76 -95c53 -16 89 -44 89 -105c0 -80 -83 -113 -153 -113c-71 0 -151 31 -151 111c0 30 8 53 24 69z" />
    <glyph glyph-name="fiveeighths" unicode="&#x215d;" horiz-adv-x="900" 
d="M74 272l4 54c26 -10 55 -15 87 -15c56 0 112 26 112 82s-49 77 -105 77c-28 0 -55 -5 -87 -13l4 213h233v-51h-176l-3 -111c21 7 40 8 57 8c76 0 142 -35 142 -119c0 -94 -82 -139 -168 -139c-33 0 -69 3 -100 14zM256 -24h-59l424 715h59zM754 160c-16 13 -38 23 -65 31
c-53 -13 -90 -38 -90 -81s41 -68 89 -68c49 0 90 25 90 69c0 21 -8 37 -24 49zM634 258c16 -11 35 -19 56 -25c36 10 77 35 77 71c0 40 -38 60 -79 60c-40 0 -78 -22 -78 -61c0 -19 8 -34 24 -45zM561 173c16 16 37 28 62 37c-43 19 -74 44 -74 95c0 75 80 106 139 106
c65 0 140 -28 140 -105c0 -48 -37 -78 -76 -95c53 -16 89 -44 89 -105c0 -80 -83 -113 -153 -113c-71 0 -151 31 -151 111c0 30 8 53 24 69z" />
    <glyph glyph-name="seveneighths" unicode="&#x215e;" horiz-adv-x="900" 
d="M209 265h-74l171 349h-212v56h276v-53zM232 -24h-59l424 715h59zM740 160c-16 13 -38 23 -65 31c-53 -13 -90 -38 -90 -81s41 -68 89 -68c49 0 90 25 90 69c0 21 -8 37 -24 49zM620 258c16 -11 35 -19 56 -25c36 10 77 35 77 71c0 40 -38 60 -79 60
c-40 0 -78 -22 -78 -61c0 -19 8 -34 24 -45zM547 173c16 16 37 28 62 37c-43 19 -74 44 -74 95c0 75 80 106 139 106c65 0 140 -28 140 -105c0 -48 -37 -78 -76 -95c53 -16 89 -44 89 -105c0 -80 -83 -113 -153 -113c-71 0 -151 31 -151 111c0 30 8 53 24 69z" />
    <glyph glyph-name="perthousand" unicode="&#x2030;" horiz-adv-x="1250" 
d="M952 8c-59 38 -74 115 -74 187c0 91 30 206 151 206c124 0 157 -115 157 -206c0 -93 -33 -206 -157 -206c-31 0 -57 6 -77 19zM606 8c-60 38 -77 115 -77 187c0 91 33 206 154 206c123 0 154 -115 154 -206c0 -93 -31 -206 -154 -206c-31 0 -57 6 -77 19zM270 -24h-60
l424 715h60zM142 284c-60 38 -77 115 -77 187c0 91 33 206 154 206c123 0 155 -115 155 -206c0 -93 -32 -206 -155 -206c-31 0 -57 6 -77 19zM955 96c11 -31 33 -54 74 -54c82 0 92 93 92 153c0 62 -8 153 -92 153c-81 0 -86 -93 -86 -153c0 -31 1 -68 12 -99zM607 96
c12 -31 35 -54 76 -54c82 0 89 93 89 153c0 62 -5 153 -89 153c-81 0 -89 -93 -89 -153c0 -31 1 -68 13 -99zM143 372c12 -31 35 -54 76 -54c82 0 89 93 89 153c0 62 -5 153 -89 153c-81 0 -89 -93 -89 -153c0 -31 1 -68 13 -99z" />
    <glyph glyph-name="minus" unicode="&#x2212;" horiz-adv-x="542" 
d="M523 215h-503v59h503v-59z" />
    <glyph glyph-name="plusminus" unicode="&#xb1;" horiz-adv-x="600" 
d="M268 266h-219v60h219v175h65v-175h219v-60h-219v-174h-65v174zM552 -13h-503v60h503v-60z" />
    <glyph glyph-name="multiply" unicode="&#xd7;" horiz-adv-x="542" 
d="M79 8l-45 44l193 192l-193 193l44 45l193 -194l193 193l45 -44l-193 -193l193 -192l-45 -45l-192 194z" />
    <glyph glyph-name="divide" unicode="&#xf7;" horiz-adv-x="542" 
d="M271 372c-28 0 -51 23 -51 52s22 53 51 53s52 -24 52 -53s-23 -52 -52 -52zM523 214h-503v60h503v-60zM271 11c-29 0 -51 24 -51 53s23 52 51 52c29 0 52 -23 52 -52s-23 -53 -52 -53z" />
    <glyph glyph-name="notequal" unicode="&#x2260;" horiz-adv-x="542" 
d="M159 -24l-52 28l62 115h-149v60h181l68 130h-249v60h281l77 147l53 -27l-64 -120h156v-60h-188l-69 -130h257v-60h-288z" />
    <glyph glyph-name="approxequal" unicode="&#x2248;" horiz-adv-x="600" 
d="M82 256h-45c11 70 42 141 125 141c92 0 194 -73 279 -73c47 0 70 35 79 78h43c-5 -68 -45 -138 -122 -138c-92 0 -200 72 -280 72c-45 0 -72 -37 -79 -80zM82 86h-45c11 70 41 140 125 140c92 0 194 -72 279 -72c47 0 70 35 79 78h43c-5 -69 -45 -139 -122 -139
c-92 0 -200 73 -280 73c-45 0 -72 -37 -79 -80z" />
    <glyph glyph-name="lessequal" unicode="&#x2264;" horiz-adv-x="542" 
d="M523 74l-503 189v66l503 188v-66l-420 -155l420 -157v-65zM523 -28h-503v60h503v-60z" />
    <glyph glyph-name="greaterequal" unicode="&#x2265;" horiz-adv-x="542" 
d="M523 263l-503 -189v65l419 157l-419 155v66l503 -188v-66zM523 -28h-503v60h503v-60z" />
    <glyph glyph-name="logicalnot" unicode="&#xac;" horiz-adv-x="600" 
d="M489 309h-440v60h503v-250h-63v190z" />
    <glyph glyph-name="Delta" unicode="&#x2206;" horiz-adv-x="750" 
d="M695 0h-640l280 672h78zM374 605l-227 -546h456z" />
    <glyph glyph-name="uni0394" unicode="&#x394;" horiz-adv-x="696" 
d="M35 0l266 667h93l267 -667h-626zM347 603l-208 -539h413z" />
    <glyph glyph-name="Omega" unicode="&#x2126;" horiz-adv-x="750" 
d="M338 0h-263v62h201v73c-122 24 -201 145 -201 265c0 164 144 282 300 282c157 0 301 -118 301 -282c0 -121 -79 -241 -202 -265v-73h201v-62h-263v177c118 3 193 106 193 218c0 125 -106 226 -230 226s-229 -101 -229 -226c0 -112 75 -215 192 -218v-177z" />
    <glyph glyph-name="uni03A9" unicode="&#x3a9;" horiz-adv-x="701" 
d="M404 0v54c117 47 163 166 163 279c0 135 -60 278 -216 278c-153 0 -217 -145 -217 -278c0 -112 55 -235 170 -279v-54h-258v66h86c14 0 33 -2 46 -5c-79 60 -127 162 -127 272c0 184 100 344 300 344c205 0 300 -155 300 -344c0 -130 -66 -228 -134 -272c15 4 60 5 70 5
h68v-66h-251z" />
    <glyph glyph-name="mu" unicode="&#xb5;" horiz-adv-x="542" 
d="M145 -216h-73v714h73v-296c0 -79 15 -151 110 -151c104 0 136 90 136 178v269h72v-381c0 -40 1 -78 5 -117h-66l-4 86c-35 -61 -84 -96 -153 -96c-41 0 -77 16 -100 39v-245z" />
    <glyph glyph-name="uni03BC" unicode="&#x3bc;" horiz-adv-x="547" 
d="M513 57l4 -61c-11 -5 -24 -7 -34 -7c-51 0 -81 40 -81 86v8c-25 -48 -69 -94 -144 -94c-33 0 -88 14 -112 59v-264h-73v714h73v-293c0 -100 57 -154 128 -154c73 0 118 52 118 138v309h72v-381c0 -51 9 -63 32 -63c5 0 14 2 17 3z" />
    <glyph glyph-name="pi" unicode="&#x3c0;" horiz-adv-x="572" 
d="M386 93v342h-202v-435h-73v435h-88v63h521v-63h-86v-331c0 -39 9 -50 31 -50c7 0 14 2 17 4l4 -63c-8 -3 -19 -6 -34 -6c-62 0 -90 31 -90 104z" />
    <glyph glyph-name="degree" unicode="&#xb0;" 
d="M96 430c-27 25 -44 60 -44 103c0 84 68 144 148 144s148 -60 148 -144s-68 -142 -148 -142c-40 0 -77 15 -104 39zM110 496c16 -34 51 -56 90 -56c52 0 98 40 98 93c0 59 -42 95 -98 95s-98 -36 -98 -95c0 -13 3 -26 8 -37z" />
    <glyph glyph-name="afii61289" unicode="&#x2113;" horiz-adv-x="500" 
d="M226 557v-222c75 87 114 177 114 253c0 51 -22 85 -53 85s-61 -36 -61 -116zM100 166h-2l-26 37l86 84v259c0 112 57 175 129 175c64 0 110 -48 110 -128c0 -99 -59 -203 -171 -318v-150c0 -69 41 -87 75 -87c27 0 57 11 88 38h2l24 -35c-39 -37 -83 -55 -130 -55
c-73 0 -127 41 -127 128v114z" />
    <glyph glyph-name="estimated" unicode="&#x212e;" horiz-adv-x="600" 
d="M157 440v-145h291v145c-42 40 -91 60 -147 60s-104 -20 -144 -60zM157 259v-181c39 -39 88 -59 145 -59c84 0 142 36 193 120l35 -21c-61 -96 -123 -135 -228 -135c-157 0 -258 122 -258 276c0 155 101 276 258 276c154 0 259 -114 259 -276h-404z" />
    <glyph glyph-name="eng" unicode="&#x14b;" horiz-adv-x="539" 
d="M394 -78v373c0 79 -17 151 -112 151c-103 0 -136 -88 -136 -178v-268h-73v381c0 39 -1 79 -5 117h67l3 -86c35 64 87 96 161 96c127 0 167 -84 167 -199v-394c0 -98 -48 -142 -128 -142c-17 0 -35 3 -50 7l6 63c10 -4 21 -7 31 -7c43 0 69 22 69 86z" />
    <glyph glyph-name="Eng" unicode="&#x14a;" horiz-adv-x="676" 
d="M450 -227c-21 0 -40 4 -58 8l6 65c11 -4 26 -7 38 -7c57 0 81 27 81 93v49l-358 604v-585h-74v667h111l321 -545v545h74v-731c0 -111 -50 -163 -141 -163z" />
    <glyph glyph-name="infinity" unicode="&#x221e;" horiz-adv-x="777" 
d="M146 176c19 -19 44 -30 72 -30c64 0 99 66 136 106c-33 44 -76 101 -135 101c-56 0 -101 -48 -101 -104c0 -28 11 -53 28 -73zM450 274l-26 -32c35 -45 74 -101 135 -101c57 0 100 49 100 105c0 53 -43 102 -98 102c-39 0 -80 -37 -111 -74zM423 157
c-11 14 -21 29 -32 44c-46 -59 -88 -109 -168 -109c-88 0 -158 66 -158 155c0 88 64 159 155 159c77 0 127 -55 167 -114c45 58 85 111 166 111c90 0 160 -65 160 -156c0 -88 -64 -159 -155 -159c-62 0 -101 29 -135 69z" />
    <glyph glyph-name="partialdiff" unicode="&#x2202;" horiz-adv-x="542" 
d="M155 87c24 -32 57 -55 104 -55c121 0 146 180 154 270c-40 43 -87 76 -148 76c-99 0 -144 -84 -144 -173c0 -41 11 -85 34 -118zM130 620l-36 44c44 36 88 56 145 56c189 0 243 -205 243 -357c0 -142 -43 -376 -226 -376c-124 0 -198 113 -198 228c0 116 74 209 194 209
c65 0 118 -29 163 -74v34c-4 106 -25 289 -166 289c-45 0 -88 -18 -119 -53z" />
    <glyph glyph-name="integral" unicode="&#x222b;" horiz-adv-x="542" 
d="M111 -217l6 61c14 -7 30 -10 47 -10c71 0 72 74 72 106v676c0 71 12 169 135 169c19 0 44 -1 61 -10l-6 -61c-14 7 -30 10 -47 10c-71 0 -72 -73 -72 -106v-676c0 -71 -10 -169 -134 -169c-19 0 -45 2 -62 10z" />
    <glyph glyph-name="radical" unicode="&#x221a;" horiz-adv-x="600" 
d="M352 -200h-58l-158 345l-46 -22l-23 45l102 47l149 -331l160 916h56z" />
    <glyph glyph-name="summation" unicode="&#x2211;" horiz-adv-x="750" 
d="M685 -200h-605v60l274 448l-255 435v57h569v-58h-491l255 -434l-275 -445h528v-63z" />
    <glyph glyph-name="product" unicode="&#x220f;" horiz-adv-x="750" 
d="M172 -200h-66v1000h539v-1000h-65v937h-408v-937z" />
    <glyph glyph-name="lozenge" unicode="&#x25ca;" horiz-adv-x="600" 
d="M331 0h-63l-170 400l170 400h63l172 -400zM163 400l137 -333l137 333l-137 333z" />
    <glyph glyph-name="f_i" unicode="&#xf001;" horiz-adv-x="524" 
d="M191 0h-73v440h-97v58h97v64c0 71 12 169 134 169c19 0 47 -1 64 -10l-6 -60c-15 7 -32 9 -48 9c-61 0 -72 -49 -72 -105v-67h112v-58h-111v-440zM451 609h-73v87h73v-87zM451 0h-73v498h73v-498z" />
    <glyph glyph-name="f_l" unicode="&#xf002;" horiz-adv-x="524" 
d="M191 0h-73v440h-97v58h97v64c0 71 12 169 134 169c19 0 47 -1 64 -10l-6 -60c-15 7 -32 9 -48 9c-61 0 -72 -49 -72 -105v-67h112v-58h-111v-440zM451 0h-73v721h73v-721z" />
    <glyph glyph-name="uniF8FF" unicode="&#xf8ff;" horiz-adv-x="512" 
d="M269 117h-59v64h59v-64zM263 241h-47v9c0 123 112 131 112 236c0 44 -31 77 -82 77c-33 0 -66 -8 -98 -21l-4 47c33 13 63 20 102 20c79 0 134 -44 134 -124c0 -114 -117 -129 -117 -233v-11zM512 0h-512v718h512v-718zM50 667v-617h412v617h-412z" />
    <glyph glyph-name="uni2010" unicode="&#x2010;" horiz-adv-x="320" 
d="M281 277h-242v66h242v-66z" />
    <glyph glyph-name="afii00208" unicode="&#x2015;" horiz-adv-x="1000" 
d="M1000 282h-1000v56h1000v-56z" />
    <glyph glyph-name="interrobang" unicode="&#x203d;" horiz-adv-x="408" 
d="M201 169h-69l-9 364h73l-6 -233c9 19 23 41 48 72c44 52 62 78 62 133c0 72 -49 113 -130 113c-47 0 -93 -10 -136 -27l-6 61c48 14 88 25 149 25c110 0 194 -58 194 -169c0 -156 -170 -175 -170 -324v-15zM210 0h-87v89h87v-89z" />
    <glyph glyph-name="zero.superior" unicode="&#x2070;" 
d="M126 469c12 -32 34 -55 74 -55c80 0 88 94 88 158c0 67 -8 156 -88 156c-77 0 -88 -89 -88 -156c0 -32 2 -71 14 -103zM124 381c-59 38 -76 115 -76 191c0 96 34 208 152 208c120 0 153 -112 153 -208c0 -97 -33 -210 -153 -210c-31 0 -56 6 -76 19z" />
    <glyph glyph-name="four.superior" unicode="&#x2074;" 
d="M241 712l-146 -203h146v203zM240 457h-199v59l189 258h71v-265h61v-52h-61v-88h-61v88z" />
    <glyph glyph-name="five.superior" unicode="&#x2075;" 
d="M66 376l4 54c26 -10 55 -15 87 -15c56 0 112 26 112 82s-49 77 -105 77c-28 0 -55 -5 -87 -13l4 213h233v-51h-176l-3 -111c21 7 40 8 57 8c76 0 142 -35 142 -119c0 -94 -82 -139 -168 -139c-33 0 -69 3 -100 14z" />
    <glyph glyph-name="six.superior" unicode="&#x2076;" 
d="M143 439c15 -16 35 -28 63 -28c55 0 85 38 85 85c0 45 -25 83 -81 83c-48 0 -88 -31 -88 -78c0 -23 8 -45 21 -62zM329 770l-4 -51c-23 7 -47 11 -72 11c-95 0 -133 -75 -136 -151c25 31 64 48 105 48c80 0 130 -48 130 -128c0 -85 -65 -137 -145 -137
c-119 0 -151 98 -151 193c0 124 60 225 196 225c27 0 52 -3 77 -10z" />
    <glyph glyph-name="seven.superior" unicode="&#x2077;" 
d="M173 369h-74l171 349h-212v56h276v-53z" />
    <glyph glyph-name="eight.superior" unicode="&#x2078;" 
d="M266 529c-16 13 -38 23 -65 31c-53 -13 -90 -38 -90 -81s41 -68 89 -68c49 0 90 25 90 69c0 21 -8 37 -24 49zM146 627c16 -11 35 -19 56 -25c36 10 77 35 77 71c0 40 -38 60 -79 60c-40 0 -78 -22 -78 -61c0 -19 8 -34 24 -45zM73 542c16 16 37 28 62 37
c-43 19 -74 44 -74 95c0 75 80 106 139 106c65 0 140 -28 140 -105c0 -48 -37 -78 -76 -95c53 -16 89 -44 89 -105c0 -80 -83 -113 -153 -113c-71 0 -151 31 -151 111c0 30 8 53 24 69z" />
    <glyph glyph-name="nine.superior" unicode="&#x2079;" 
d="M129 588c13 -16 34 -24 62 -24c48 0 88 32 88 77c0 44 -29 91 -85 91c-55 0 -84 -39 -84 -86c0 -23 6 -42 19 -58zM72 372l4 52c21 -8 45 -12 72 -12c95 0 133 76 136 151c-25 -31 -64 -48 -105 -48c-80 0 -130 48 -130 128c0 85 65 137 145 137c117 0 150 -97 150 -193
c0 -124 -58 -225 -194 -225c-27 0 -51 3 -78 10z" />
    <glyph glyph-name="plus.superior" unicode="&#x207a;" 
d="M175 494h-136v49h136v126h51v-126h136v-49h-136v-125h-51v125z" />
    <glyph glyph-name="minus.superior" unicode="&#x207b;" 
d="M362 494h-323v49h323v-49z" />
    <glyph glyph-name="equal.superior" unicode="&#x207c;" 
d="M362 435h-323v48h323v-48zM362 553h-323v49h323v-49z" />
    <glyph glyph-name="parenleft.superior" unicode="&#x207d;" horiz-adv-x="190" 
d="M180 292h-49c-52 79 -95 160 -95 255c0 93 44 176 95 255h49c-45 -80 -85 -163 -85 -255s38 -175 85 -255z" />
    <glyph glyph-name="parenright.superior" unicode="&#x207e;" horiz-adv-x="190" 
d="M59 292h-49c45 80 84 163 84 255s-39 175 -84 255h49c51 -79 95 -162 95 -255s-45 -178 -95 -255z" />
    <glyph glyph-name="n.superior" unicode="&#x207f;" horiz-adv-x="364" 
d="M110 365h-59v233c0 25 -1 49 -3 72h54l2 -54c27 40 62 60 105 60c75 0 104 -48 104 -119v-192h-59v179c0 40 -10 79 -66 79c-61 0 -78 -47 -78 -93v-165z" />
    <glyph glyph-name="zero.inferior" unicode="&#x2080;" 
d="M126 -66c12 -32 34 -55 74 -55c80 0 88 94 88 158c0 67 -8 156 -88 156c-77 0 -88 -89 -88 -156c0 -32 2 -71 14 -103zM124 -154c-59 38 -76 115 -76 191c0 96 34 208 152 208c120 0 153 -112 153 -208c0 -97 -33 -210 -153 -210c-31 0 -56 6 -76 19z" />
    <glyph glyph-name="one.inferior" unicode="&#x2081;" 
d="M258 -166h-63v335l-85 -62l-29 45l123 87h54v-405z" />
    <glyph glyph-name="two.inferior" unicode="&#x2082;" 
d="M328 -166h-273v52l73 67c88 80 127 128 127 176c0 40 -37 62 -80 62c-40 0 -71 -10 -102 -25l-3 54c35 15 73 25 112 25c72 0 138 -33 138 -114c0 -68 -53 -126 -118 -185l-66 -60h192v-52z" />
    <glyph glyph-name="three.inferior" unicode="&#x2083;" 
d="M55 -158l3 53c29 -11 67 -16 100 -16c56 0 108 23 108 76c0 50 -52 66 -103 66h-54v49h45c57 0 106 14 106 66c0 43 -50 58 -95 58c-33 0 -68 -6 -96 -18l-3 52c34 11 70 17 108 17c71 0 149 -24 149 -104c0 -51 -31 -81 -75 -93c45 -11 83 -43 83 -92
c0 -91 -84 -129 -169 -129c-39 0 -72 4 -107 15z" />
    <glyph glyph-name="four.inferior" unicode="&#x2084;" 
d="M241 177l-146 -203h146v203zM240 -78h-199v59l189 258h71v-265h61v-52h-61v-88h-61v88z" />
    <glyph glyph-name="five.inferior" unicode="&#x2085;" 
d="M66 -159l4 54c26 -10 55 -15 87 -15c56 0 112 26 112 82s-49 77 -105 77c-28 0 -55 -5 -87 -13l4 213h233v-51h-176l-3 -111c21 7 40 8 57 8c76 0 142 -35 142 -119c0 -94 -82 -139 -168 -139c-33 0 -69 3 -100 14z" />
    <glyph glyph-name="six.inferior" unicode="&#x2086;" 
d="M143 -96c15 -16 35 -28 63 -28c55 0 85 38 85 85c0 45 -25 83 -81 83c-48 0 -88 -31 -88 -78c0 -23 8 -45 21 -62zM329 235l-4 -51c-23 7 -47 11 -72 11c-95 0 -133 -75 -136 -151c25 31 64 48 105 48c80 0 130 -48 130 -128c0 -85 -65 -137 -145 -137
c-119 0 -151 98 -151 193c0 124 60 225 196 225c27 0 52 -3 77 -10z" />
    <glyph glyph-name="seven.inferior" unicode="&#x2087;" 
d="M173 -166h-74l171 349h-212v56h276v-53z" />
    <glyph glyph-name="eight.inferior" unicode="&#x2088;" 
d="M266 -6c-16 13 -38 23 -65 31c-53 -13 -90 -38 -90 -81s41 -68 89 -68c49 0 90 25 90 69c0 21 -8 37 -24 49zM146 92c16 -11 35 -19 56 -25c36 10 77 35 77 71c0 40 -38 60 -79 60c-40 0 -78 -22 -78 -61c0 -19 8 -34 24 -45zM73 7c16 16 37 28 62 37
c-43 19 -74 44 -74 95c0 75 80 106 139 106c65 0 140 -28 140 -105c0 -48 -37 -78 -76 -95c53 -16 89 -44 89 -105c0 -80 -83 -113 -153 -113c-71 0 -151 31 -151 111c0 30 8 53 24 69z" />
    <glyph glyph-name="nine.inferior" unicode="&#x2089;" 
d="M129 53c13 -16 34 -24 62 -24c48 0 88 32 88 77c0 44 -29 91 -85 91c-55 0 -84 -39 -84 -86c0 -23 6 -42 19 -58zM72 -163l4 52c21 -8 45 -12 72 -12c95 0 133 76 136 151c-25 -31 -64 -48 -105 -48c-80 0 -130 48 -130 128c0 85 65 137 145 137c117 0 150 -97 150 -193
c0 -124 -58 -225 -194 -225c-27 0 -51 3 -78 10z" />
    <glyph glyph-name="plus.inferior" unicode="&#x208a;" 
d="M175 -38h-136v49h136v126h51v-126h136v-49h-136v-125h-51v125z" />
    <glyph glyph-name="minus.inferior" unicode="&#x208b;" 
d="M362 -38h-323v49h323v-49z" />
    <glyph glyph-name="equal.inferior" unicode="&#x208c;" 
d="M362 -97h-323v48h323v-48zM362 21h-323v49h323v-49z" />
    <glyph glyph-name="parenleft.inferior" unicode="&#x208d;" horiz-adv-x="190" 
d="M180 -240h-49c-52 79 -95 160 -95 255c0 93 44 176 95 255h49c-45 -80 -85 -163 -85 -255s38 -175 85 -255z" />
    <glyph glyph-name="parenright.inferior" unicode="&#x208e;" horiz-adv-x="190" 
d="M59 -240h-49c45 80 84 163 84 255s-39 175 -84 255h49c51 -79 95 -162 95 -255s-45 -178 -95 -255z" />
    <glyph glyph-name="afii61248" unicode="&#x2105;" horiz-adv-x="1018" 
d="M352 338l5 -59c-32 -10 -63 -14 -96 -14c-133 0 -210 91 -210 208c0 119 85 204 209 204c34 0 63 -2 94 -13l-4 -60c-23 11 -51 18 -78 18c-94 0 -151 -62 -151 -149c0 -81 56 -153 150 -153c32 0 54 5 81 18zM300 -24h-62l473 715h62zM774 -11c-122 0 -193 85 -193 207
c0 115 74 205 193 205c127 0 193 -86 193 -205c0 -117 -69 -207 -193 -207zM774 44c86 0 122 75 122 152c0 78 -34 150 -122 150c-87 0 -122 -74 -122 -150c0 -78 34 -152 122 -152z" />
    <glyph glyph-name="afii61352" unicode="&#x2116;" horiz-adv-x="1009" 
d="M85 0v667h102l308 -579v579h78v-667h-108l-302 567v-567h-78zM662 123v55h292v-55h-292zM805 230c-93 0 -149 63 -149 171c0 113 60 183 153 183c95 0 151 -63 151 -170c0 -118 -59 -184 -155 -184zM808 283c56 0 83 45 83 132c0 78 -25 115 -81 115
c-71 0 -86 -66 -86 -128c0 -63 14 -119 84 -119z" />
    <glyph glyph-name="published" unicode="&#x2117;" horiz-adv-x="789" 
d="M395 -11c-190 0 -344 154 -344 345c0 189 154 343 344 343s344 -154 344 -343c0 -190 -154 -345 -344 -345zM111 334c0 -158 127 -291 284 -291c158 0 284 133 284 291c0 157 -126 289 -284 289c-157 0 -284 -131 -284 -289zM351 139h-59v391h129c91 0 138 -46 138 -115
c0 -77 -59 -118 -143 -118h-65v-158zM351 482v-137h56c61 0 91 21 91 70c0 39 -26 67 -77 67h-70z" />
    <glyph glyph-name="uni0374" unicode="&#x374;" horiz-adv-x="173" 
d="M163 721l-66 -196h-58l45 196h79z" />
    <glyph glyph-name="uni0375" unicode="&#x375;" horiz-adv-x="171" 
d="M9 -128l67 196h57l-44 -196h-80z" />
    <glyph glyph-name="uni037E" unicode="&#x37e;" horiz-adv-x="271" 
d="M178 409h-86v89h86v-89zM97 -128h-59l58 217h84z" />
    <glyph glyph-name="tonos" unicode="&#x384;" horiz-adv-x="218" 
d="M219 721l-57 -136h-62l33 136h86z" />
    <glyph glyph-name="tonos.cap" unicode="&#xe01b;" horiz-adv-x="218" 
d="M221 667l-57 -136h-62l33 136h86z" />
    <glyph glyph-name="dieresistonos" unicode="&#x385;" horiz-adv-x="218" 
d="M228 731l-60 -136h-61l36 136h85zM318 609h-66v87h66v-87zM73 609h-66v87h66v-87z" />
    <glyph glyph-name="Alphatonos" unicode="&#x386;" horiz-adv-x="634" 
d="M630 0h-82l-69 181h-327l-71 -181h-77l266 667h93zM455 245l-139 358l-141 -358h280zM152 667l-57 -136h-62l33 136h86z" />
    <glyph glyph-name="anoteleia" unicode="&#x387;" horiz-adv-x="271" 
d="M179 409h-86v89h86v-89z" />
    <glyph glyph-name="Epsilontonos" unicode="&#x388;" horiz-adv-x="486" 
d="M440 0h-355v667h344v-65h-265v-228h252v-63h-252v-246h276v-65zM27 667l-57 -136h-62l33 136h86z" />
    <glyph glyph-name="Etatonos" unicode="&#x389;" horiz-adv-x="653" 
d="M569 0h-80v309h-325v-309h-79v667h79v-289h325v289h80v-667zM32 667l-57 -136h-62l33 136h86z" />
    <glyph glyph-name="Iotatonos" unicode="&#x38a;" horiz-adv-x="248" 
d="M164 0h-79v667h79v-667zM31 667l-57 -136h-62l33 136h86z" />
    <glyph glyph-name="Omicrontonos" unicode="&#x38c;" horiz-adv-x="701" 
d="M651 333c0 -185 -99 -344 -300 -344c-206 0 -300 154 -300 344c0 184 100 344 300 344c205 0 300 -155 300 -344zM567 333c0 135 -60 278 -216 278c-153 0 -217 -145 -217 -278s65 -278 217 -278c156 0 216 143 216 278zM88 667l-57 -136h-62l33 136h86z" />
    <glyph glyph-name="Upsilontonos" unicode="&#x38e;" horiz-adv-x="576" 
d="M575 667l-248 -389v-278h-79v278l-246 389h88l200 -325l200 325h85zM-46 667l-57 -136h-62l33 136h86z" />
    <glyph glyph-name="Omegatonos" unicode="&#x38f;" horiz-adv-x="701" 
d="M404 0v54c117 47 163 166 163 279c0 135 -60 278 -216 278c-153 0 -217 -145 -217 -278c0 -112 55 -235 170 -279v-54h-258v66h86c14 0 33 -2 46 -5c-79 60 -127 162 -127 272c0 184 100 344 300 344c205 0 300 -155 300 -344c0 -130 -66 -228 -134 -272c15 4 60 5 70 5
h68v-66h-251zM70 667l-57 -136h-62l33 136h86z" />
    <glyph glyph-name="iotadieresistonos" unicode="&#x390;" horiz-adv-x="241" 
d="M76 92v406h72v-395c0 -39 9 -49 31 -49c6 0 14 2 17 4l4 -63c-8 -3 -19 -6 -34 -6c-62 0 -90 31 -90 103zM204 731l-60 -136h-61l36 136h85zM294 609h-66v87h66v-87zM49 609h-66v87h66v-87z" />
    <glyph glyph-name="Alpha" unicode="&#x391;" horiz-adv-x="634" 
d="M630 0h-82l-69 181h-327l-71 -181h-77l266 667h93zM455 245l-139 358l-141 -358h280z" />
    <glyph glyph-name="Beta" unicode="&#x392;" horiz-adv-x="549" 
d="M495 190c0 -153 -130 -190 -259 -190h-151v667h177c109 0 214 -39 214 -165c0 -82 -50 -135 -128 -153c84 -13 147 -71 147 -159zM395 497c0 83 -70 108 -141 108h-91v-229h75c81 0 157 27 157 121zM413 187c0 111 -101 130 -190 130h-60v-255h71c84 0 179 22 179 125z
" />
    <glyph glyph-name="Gamma" unicode="&#x393;" horiz-adv-x="450" 
d="M164 0h-79v667h356v-68h-277v-599z" />
    <glyph glyph-name="Epsilon" unicode="&#x395;" horiz-adv-x="486" 
d="M440 0h-355v667h344v-65h-265v-228h252v-63h-252v-246h276v-65z" />
    <glyph glyph-name="Zeta" unicode="&#x396;" horiz-adv-x="494" 
d="M468 0h-442v66l348 535h-336v66h422v-66l-345 -535h353v-66z" />
    <glyph glyph-name="Eta" unicode="&#x397;" horiz-adv-x="653" 
d="M569 0h-80v309h-325v-309h-79v667h79v-289h325v289h80v-667z" />
    <glyph glyph-name="Theta" unicode="&#x398;" horiz-adv-x="701" 
d="M651 333c0 -185 -99 -344 -300 -344c-206 0 -300 154 -300 344c0 184 100 344 300 344c205 0 300 -155 300 -344zM567 333c0 135 -60 278 -216 278c-153 0 -217 -145 -217 -278s65 -278 217 -278c156 0 216 143 216 278zM199 306v69h301v-69h-301z" />
    <glyph glyph-name="Iota" unicode="&#x399;" horiz-adv-x="248" 
d="M164 0h-79v667h79v-667z" />
    <glyph glyph-name="Kappa" unicode="&#x39a;" horiz-adv-x="586" 
d="M582 0h-106l-312 333v-333h-79v667h79v-301l292 301h98l-315 -313z" />
    <glyph glyph-name="Lambda" unicode="&#x39b;" horiz-adv-x="576" 
d="M488 0l-199 599l-204 -599h-81l239 667h93l236 -667h-84z" />
    <glyph glyph-name="Mu" unicode="&#x39c;" horiz-adv-x="869" 
d="M785 0h-77v602l-236 -602h-77l-236 602v-602h-74v667h122l229 -579l227 579h122v-667z" />
    <glyph glyph-name="Nu" unicode="&#x39d;" horiz-adv-x="676" 
d="M591 0h-111l-321 585v-585h-74v667h111l321 -585v585h74v-667z" />
    <glyph glyph-name="Xi" unicode="&#x39e;" horiz-adv-x="525" 
d="M45 69h435v-69h-435v69zM480 596h-434v71h434v-71zM417 310h-304v71h304v-71z" />
    <glyph glyph-name="Omicron" unicode="&#x39f;" horiz-adv-x="701" 
d="M651 333c0 -185 -99 -344 -300 -344c-206 0 -300 154 -300 344c0 184 100 344 300 344c205 0 300 -155 300 -344zM567 333c0 135 -60 278 -216 278c-153 0 -217 -145 -217 -278s65 -278 217 -278c156 0 216 143 216 278z" />
    <glyph glyph-name="Pi" unicode="&#x3a0;" horiz-adv-x="629" 
d="M544 0h-79v602h-301v-602h-79v667h459v-667z" />
    <glyph glyph-name="Rho" unicode="&#x3a1;" horiz-adv-x="508" 
d="M480 481c0 -149 -115 -200 -251 -200h-65v-281h-79v667h156c134 0 239 -49 239 -186zM398 480c0 92 -73 123 -171 123h-64v-258h51c102 0 184 22 184 135z" />
    <glyph glyph-name="Sigma" unicode="&#x3a3;" horiz-adv-x="549" 
d="M508 0h-467v66l246 277l-234 258v66h449v-66h-357l234 -255l-249 -280h378v-66z" />
    <glyph glyph-name="Tau" unicode="&#x3a4;" horiz-adv-x="496" 
d="M487 599h-199v-599h-80v599h-198v68h477v-68z" />
    <glyph glyph-name="Upsilon" unicode="&#x3a5;" horiz-adv-x="576" 
d="M575 667l-248 -389v-278h-79v278l-246 389h88l200 -325l200 325h85z" />
    <glyph glyph-name="Phi" unicode="&#x3a6;" horiz-adv-x="768" 
d="M347 648v73h74v-73c184 -7 297 -116 297 -279c0 -156 -103 -279 -297 -285v-84h-74v84c-184 7 -297 116 -297 279c0 156 103 279 297 285zM636 370c0 125 -85 210 -215 215v-437c148 5 215 105 215 222zM132 363c0 -125 85 -210 215 -215v437
c-148 -5 -215 -105 -215 -222z" />
    <glyph glyph-name="Chi" unicode="&#x3a7;" horiz-adv-x="602" 
d="M595 0h-95l-198 303l-206 -303h-88l247 350l-223 317h92l182 -268l181 268h86l-221 -317z" />
    <glyph glyph-name="Psi" unicode="&#x3a8;" horiz-adv-x="699" 
d="M47 667h79v-210c0 -126 76 -186 184 -190v400h79v-400c104 1 184 77 184 187v213h79v-213c0 -142 -92 -243 -263 -253v-201h-79v201c-175 3 -263 98 -263 249v217z" />
    <glyph glyph-name="Iotadieresis" unicode="&#x3aa;" horiz-adv-x="248" 
d="M164 0h-79v667h79v-667zM79 748h-66v87h66v-87zM234 748h-66v87h66v-87z" />
    <glyph glyph-name="Upsilondieresis" unicode="&#x3ab;" horiz-adv-x="576" 
d="M575 667l-248 -389v-278h-79v278l-246 389h88l200 -325l200 325h85zM245 748h-66v87h66v-87zM400 748h-66v87h66v-87z" />
    <glyph glyph-name="alphatonos" unicode="&#x3ac;" horiz-adv-x="542" 
d="M513 57l4 -61c-10 -4 -21 -7 -35 -7c-41 0 -79 31 -79 107v3c-23 -69 -89 -110 -156 -110c-146 0 -204 128 -204 262c0 136 70 257 207 257c97 0 136 -66 147 -111v111h67v-359c0 -65 0 -95 30 -95c5 0 12 1 19 3zM394 250c0 99 -39 196 -137 196
c-97 0 -136 -99 -136 -196c0 -96 31 -199 139 -199c98 0 134 104 134 199zM356 721l-57 -136h-62l33 136h86z" />
    <glyph glyph-name="epsilontonos" unicode="&#x3ad;" horiz-adv-x="441" 
d="M324 231h-80c-76 0 -117 -26 -117 -81c0 -73 55 -101 129 -101c65 0 100 15 149 39l3 -66c-34 -18 -86 -33 -152 -33c-112 0 -206 47 -206 149c0 73 47 109 107 125c-38 10 -95 38 -95 107c0 98 96 138 184 138c58 0 115 -12 151 -26l-6 -65c-42 17 -80 32 -143 32
c-77 0 -112 -36 -112 -77c0 -52 40 -78 108 -78h80v-63zM329 721l-57 -136h-62l33 136h86z" />
    <glyph glyph-name="etatonos" unicode="&#x3ae;" horiz-adv-x="545" 
d="M469 -216h-72v511c0 79 -17 151 -112 151c-104 0 -136 -89 -136 -178v-268h-73v381c0 39 -1 78 -5 117h67l3 -86c35 63 88 96 161 96c127 0 167 -84 167 -199v-525zM368 721l-57 -136h-62l33 136h86z" />
    <glyph glyph-name="iotatonos" unicode="&#x3af;" horiz-adv-x="241" 
d="M76 92v406h72v-395c0 -39 9 -49 31 -49c6 0 14 2 17 4l4 -63c-8 -3 -19 -6 -34 -6c-62 0 -90 31 -90 103zM205 721l-57 -136h-62l33 136h86z" />
    <glyph glyph-name="upsilondieresistonos" unicode="&#x3b0;" horiz-adv-x="518" 
d="M341 498h83c19 -40 39 -130 39 -236c0 -198 -98 -273 -209 -273c-110 0 -186 67 -186 212v297h73v-291c0 -108 44 -155 122 -155c76 0 127 67 127 214c0 81 -15 169 -49 232zM306 731l-60 -136h-61l36 136h85zM396 609h-66v87h66v-87zM151 609h-66v87h66v-87z" />
    <glyph glyph-name="alpha" unicode="&#x3b1;" horiz-adv-x="542" 
d="M513 57l4 -61c-10 -4 -21 -7 -35 -7c-41 0 -79 31 -79 107v3c-23 -69 -89 -110 -156 -110c-146 0 -204 128 -204 262c0 136 70 257 207 257c97 0 136 -66 147 -111v111h67v-359c0 -65 0 -95 30 -95c5 0 12 1 19 3zM394 250c0 99 -39 196 -137 196
c-97 0 -136 -99 -136 -196c0 -96 31 -199 139 -199c98 0 134 104 134 199z" />
    <glyph glyph-name="beta" unicode="&#x3b2;" horiz-adv-x="547" 
d="M442 561c0 -74 -49 -137 -95 -152c98 -25 150 -102 150 -205c0 -109 -67 -215 -198 -215c-78 0 -131 42 -153 92v-297h-73v724c0 169 91 223 190 223c120 0 179 -83 179 -170zM142 502v-240c0 -142 59 -211 142 -211s134 64 134 149c0 84 -42 165 -151 165h-45v65h43
c68 0 104 70 104 129c0 69 -44 114 -108 114c-76 0 -119 -53 -119 -171z" />
    <glyph glyph-name="gamma" unicode="&#x3b3;" horiz-adv-x="469" 
d="M348 498h74c1 -20 1 -31 1 -45c0 -199 -109 -382 -174 -467c2 -46 6 -102 6 -146c0 -18 0 -38 -1 -56h-72c3 26 4 48 4 71c0 70 -3 123 -9 169c-18 142 -87 345 -167 474h84c66 -117 120 -279 144 -421c82 124 114 275 114 370c0 15 -1 32 -4 51z" />
    <glyph glyph-name="delta" unicode="&#x3b4;" horiz-adv-x="539" 
d="M294 502l40 -30c80 -59 155 -135 155 -247c0 -110 -67 -236 -220 -236c-132 0 -219 97 -219 232c0 112 62 195 182 241l-30 25c-45 37 -74 75 -74 119c0 84 79 125 169 125c60 0 117 -19 143 -32l-12 -66c-30 18 -86 39 -137 39c-48 0 -87 -27 -87 -64
c0 -35 36 -65 90 -106zM282 426c-111 -40 -152 -127 -152 -204c0 -105 59 -171 141 -171c95 0 140 82 140 175c0 82 -54 153 -129 200z" />
    <glyph glyph-name="epsilon" unicode="&#x3b5;" horiz-adv-x="441" 
d="M324 231h-80c-76 0 -117 -26 -117 -81c0 -73 55 -101 129 -101c65 0 100 15 149 39l3 -66c-34 -18 -86 -33 -152 -33c-112 0 -206 47 -206 149c0 73 47 109 107 125c-38 10 -95 38 -95 107c0 98 96 138 184 138c58 0 115 -12 151 -26l-6 -65c-42 17 -80 32 -143 32
c-77 0 -112 -36 -112 -77c0 -52 40 -78 108 -78h80v-63z" />
    <glyph glyph-name="zeta" unicode="&#x3b6;" horiz-adv-x="414" 
d="M397 -82c0 -33 -11 -70 -26 -106h-74c17 29 30 60 30 89c0 40 -22 58 -84 80c-106 37 -185 115 -185 273c0 132 84 276 268 407c-15 -2 -36 -3 -53 -3h-181v63h314v-66c-169 -139 -269 -267 -269 -405c0 -121 49 -172 131 -206c111 -46 129 -82 129 -126z" />
    <glyph glyph-name="eta" unicode="&#x3b7;" horiz-adv-x="545" 
d="M469 -216h-72v511c0 79 -17 151 -112 151c-104 0 -136 -89 -136 -178v-268h-73v381c0 39 -1 78 -5 117h67l3 -86c35 63 88 96 161 96c127 0 167 -84 167 -199v-525z" />
    <glyph glyph-name="theta" unicode="&#x3b8;" horiz-adv-x="552" 
d="M502 361c0 -200 -75 -372 -226 -372c-154 0 -226 167 -226 372c0 199 75 370 226 370c153 0 226 -166 226 -370zM276 54c104 0 146 153 149 293h-298c2 -138 47 -293 149 -293zM276 664c-95 0 -139 -130 -148 -257h295c-8 127 -51 257 -147 257z" />
    <glyph glyph-name="iota" unicode="&#x3b9;" horiz-adv-x="241" 
d="M76 92v406h72v-395c0 -39 9 -49 31 -49c6 0 14 2 17 4l4 -63c-8 -3 -19 -6 -34 -6c-62 0 -90 31 -90 103z" />
    <glyph glyph-name="kappa" unicode="&#x3ba;" horiz-adv-x="485" 
d="M478 0h-96l-233 260v-260h-73v498h73v-206l211 206h91l-229 -220z" />
    <glyph glyph-name="lambda" unicode="&#x3bb;" horiz-adv-x="503" 
d="M290 586l102 -419c21 -86 33 -114 66 -114c8 0 13 1 17 3l4 -61c-8 -3 -20 -6 -35 -6c-54 0 -84 24 -104 107l-76 317l-156 -413h-82l211 511l-14 57c-17 65 -45 102 -91 102c-15 0 -29 -4 -38 -8l-6 61c14 4 33 8 50 8c70 0 126 -37 152 -145z" />
    <glyph glyph-name="nu" unicode="&#x3bd;" horiz-adv-x="468" 
d="M367 498h81c-20 -128 -112 -372 -186 -498h-71l-175 498h80l139 -421c41 84 120 293 132 421z" />
    <glyph glyph-name="xi" unicode="&#x3be;" horiz-adv-x="429" 
d="M302 407h82v-67h-73c-116 0 -181 -60 -181 -145c0 -76 60 -119 149 -152c103 -38 130 -75 130 -126c0 -24 -9 -58 -30 -105h-72c20 38 31 64 31 87c0 29 -2 55 -84 82c-141 47 -199 111 -199 206s62 163 132 188c-48 20 -112 70 -112 170c0 122 88 186 219 186
c47 0 92 -10 127 -21l-5 -68c-45 18 -89 27 -132 27c-56 0 -137 -29 -137 -124c0 -56 39 -138 155 -138z" />
    <glyph glyph-name="omicron" unicode="&#x3bf;" horiz-adv-x="551" 
d="M508 251c0 -144 -79 -262 -233 -262c-155 0 -233 118 -233 262c0 143 86 257 233 257c156 0 233 -110 233 -257zM430 251c0 99 -42 196 -155 196c-110 0 -155 -100 -155 -196s45 -201 155 -201s155 104 155 201z" />
    <glyph glyph-name="rho" unicode="&#x3c1;" horiz-adv-x="535" 
d="M492 251c0 -140 -63 -262 -209 -262c-76 0 -125 45 -146 83v-288h-73v482c0 138 71 242 206 242c161 0 222 -119 222 -257zM412 251c0 111 -45 196 -143 196c-103 0 -136 -107 -136 -189v-23c0 -97 53 -184 139 -184c94 0 140 77 140 200z" />
    <glyph glyph-name="sigma1" unicode="&#x3c2;" horiz-adv-x="429" 
d="M405 486l-9 -68c-28 14 -66 25 -113 25c-87 0 -166 -81 -166 -198c0 -129 111 -187 181 -226c56 -31 77 -63 77 -101c0 -33 -15 -77 -29 -106h-74c22 31 32 64 32 82c0 36 -20 56 -67 80c-87 45 -194 122 -194 266c0 178 119 268 247 268c45 0 82 -10 115 -22z" />
    <glyph glyph-name="sigma" unicode="&#x3c3;" horiz-adv-x="549" 
d="M43 248c0 153 104 250 229 250h243v-63h-67c-17 0 -56 4 -66 7c64 -26 110 -110 110 -198c0 -164 -88 -255 -219 -255c-137 0 -230 98 -230 259zM416 243c0 92 -50 193 -135 193h-12c-62 0 -147 -51 -147 -188c0 -124 63 -198 150 -198c88 0 144 69 144 193z" />
    <glyph glyph-name="tau" unicode="&#x3c4;" horiz-adv-x="418" 
d="M354 4c-25 -10 -55 -15 -81 -15c-102 0 -115 74 -115 165v287h-137v57h371v-57h-162v-306c0 -44 12 -83 64 -83c20 0 38 5 56 13z" />
    <glyph glyph-name="upsilon" unicode="&#x3c5;" horiz-adv-x="518" 
d="M341 498h83c19 -40 39 -130 39 -236c0 -198 -98 -273 -209 -273c-110 0 -186 67 -186 212v297h73v-291c0 -108 44 -155 122 -155c76 0 127 67 127 214c0 81 -15 169 -49 232z" />
    <glyph glyph-name="phi" unicode="&#x3c6;" horiz-adv-x="717" 
d="M396 645v-137c192 -4 279 -108 279 -258c0 -167 -122 -257 -279 -261v-205h-75v205c-157 4 -279 80 -279 261c0 150 97 254 279 258v137h75zM122 249c0 -145 95 -196 200 -200v400c-132 -4 -200 -83 -200 -200zM597 249c0 125 -82 196 -202 200v-400c95 4 202 56 202 200
z" />
    <glyph glyph-name="chi" unicode="&#x3c7;" horiz-adv-x="462" 
d="M456 -216h-85l-142 309l-141 -309h-79l173 369l-171 345h83l132 -274l129 274h80l-163 -333z" />
    <glyph glyph-name="psi" unicode="&#x3c8;" horiz-adv-x="687" 
d="M383 -216h-73v205c-144 5 -232 83 -232 224v285h73v-280c0 -119 74 -165 159 -167v594h73v-594c121 5 176 103 176 221c0 81 -14 157 -50 226h85c25 -68 38 -141 38 -220c0 -170 -95 -284 -249 -289v-205z" />
    <glyph glyph-name="omega" unicode="&#x3c9;" horiz-adv-x="747" 
d="M231 -11c-114 0 -176 88 -176 254c0 98 27 191 63 255h93c-64 -86 -79 -172 -79 -257c0 -97 28 -191 103 -191c72 0 99 78 99 143v175h78v-174c0 -84 29 -144 91 -144c77 0 112 95 112 193c0 100 -30 192 -80 255h93c37 -67 64 -155 64 -253c0 -143 -64 -256 -184 -256
c-77 0 -122 38 -135 113c-7 -47 -55 -113 -142 -113z" />
    <glyph glyph-name="iotadieresis" unicode="&#x3ca;" horiz-adv-x="241" 
d="M76 92v406h72v-395c0 -39 9 -49 31 -49c6 0 14 2 17 4l4 -63c-8 -3 -19 -6 -34 -6c-62 0 -90 31 -90 103zM224 609h-66v87h66v-87zM69 609h-66v87h66v-87z" />
    <glyph glyph-name="upsilondieresis" unicode="&#x3cb;" horiz-adv-x="518" 
d="M341 498h83c19 -40 39 -130 39 -236c0 -198 -98 -273 -209 -273c-110 0 -186 67 -186 212v297h73v-291c0 -108 44 -155 122 -155c76 0 127 67 127 214c0 81 -15 169 -49 232zM365 609h-66v87h66v-87zM210 609h-66v87h66v-87z" />
    <glyph glyph-name="omicrontonos" unicode="&#x3cc;" horiz-adv-x="533" 
d="M508 251c0 -144 -79 -262 -233 -262c-155 0 -233 118 -233 262c0 143 86 257 233 257c156 0 233 -110 233 -257zM430 251c0 99 -42 196 -155 196c-110 0 -155 -100 -155 -196s45 -201 155 -201s155 104 155 201zM356 721l-57 -136h-62l33 136h86z" />
    <glyph glyph-name="upsilontonos" unicode="&#x3cd;" horiz-adv-x="518" 
d="M341 498h83c19 -40 39 -130 39 -236c0 -198 -98 -273 -209 -273c-110 0 -186 67 -186 212v297h73v-291c0 -108 44 -155 122 -155c76 0 127 67 127 214c0 81 -15 169 -49 232zM336 721l-57 -136h-62l33 136h86z" />
    <glyph glyph-name="omegatonos" unicode="&#x3ce;" horiz-adv-x="747" 
d="M231 -11c-114 0 -176 88 -176 254c0 98 27 191 63 255h93c-64 -86 -79 -172 -79 -257c0 -97 28 -191 103 -191c72 0 99 78 99 143v175h78v-174c0 -84 29 -144 91 -144c77 0 112 95 112 193c0 100 -30 192 -80 255h93c37 -67 64 -155 64 -253c0 -143 -64 -256 -184 -256
c-77 0 -122 38 -135 113c-7 -47 -55 -113 -142 -113zM461 721l-57 -136h-62l33 136h86z" />
    <glyph glyph-name="uni0400" unicode="&#x400;" horiz-adv-x="486" 
d="M440 0h-355v667h344v-65h-265v-228h252v-63h-252v-246h276v-65zM306 724h-59l-97 136h85z" />
    <glyph glyph-name="afii10023" unicode="&#x401;" horiz-adv-x="486" 
d="M369 748h-66v87h66v-87zM214 748h-66v87h66v-87zM440 0h-355v667h344v-65h-265v-228h252v-63h-252v-246h276v-65z" />
    <glyph glyph-name="afii10051" unicode="&#x402;" horiz-adv-x="707" 
d="M431 -11c-47 0 -82 5 -122 20l6 69c22 -11 61 -22 103 -22c95 0 157 57 157 173c0 111 -67 163 -161 163c-88 0 -166 -67 -166 -163v-229h-80v601h-158v66h473v-66h-235v-237c36 57 112 91 184 91c132 0 227 -69 227 -222c0 -157 -89 -244 -228 -244z" />
    <glyph glyph-name="afii10052" unicode="&#x403;" horiz-adv-x="445" 
d="M276 724h-61l72 136h85zM85 0v667h351v-68h-271v-599h-80z" />
    <glyph glyph-name="afii10053" unicode="&#x404;" horiz-adv-x="586" 
d="M390 -10c-211 0 -339 135 -339 344c0 205 135 343 342 343c65 0 122 -13 157 -26l-6 -66c-42 22 -100 27 -146 27c-157 0 -246 -94 -261 -234h310v-65h-312c8 -151 97 -257 261 -257c44 0 108 3 148 25l5 -64c-35 -21 -115 -27 -159 -27z" />
    <glyph glyph-name="afii10054" unicode="&#x405;" horiz-adv-x="484" 
d="M48 20l9 74c47 -29 98 -39 154 -39c76 0 136 33 136 121c0 70 -53 103 -115 135l-54 29c-64 35 -115 76 -115 164c0 121 107 173 215 173c47 0 88 -7 129 -24l-9 -71c-36 20 -78 29 -119 29c-70 0 -135 -24 -135 -104c0 -55 40 -86 93 -114l54 -29
c75 -40 138 -81 138 -183c0 -125 -103 -192 -217 -192c-57 0 -113 8 -164 31z" />
    <glyph glyph-name="afii10055" unicode="&#x406;" horiz-adv-x="248" 
d="M164 0h-79v667h79v-667z" />
    <glyph glyph-name="afii10056" unicode="&#x407;" horiz-adv-x="248" 
d="M235 748h-66v87h66v-87zM80 748h-66v87h66v-87zM164 0h-79v667h79v-667z" />
    <glyph glyph-name="afii10057" unicode="&#x408;" horiz-adv-x="319" 
d="M4 2l6 65c19 -8 37 -9 57 -9c73 0 97 58 97 119v490h79v-492c0 -107 -48 -186 -162 -186c-27 0 -53 4 -77 13z" />
    <glyph glyph-name="afii10058" unicode="&#x409;" horiz-adv-x="932" 
d="M82 -7c-25 0 -55 3 -75 13l5 63c17 -7 38 -10 57 -10c103 0 118 170 118 608h379v-267h105c145 0 229 -74 229 -196c0 -115 -64 -204 -231 -204h-183v601h-221c-1 -400 -13 -608 -183 -608zM566 66h98c92 0 153 36 153 140c0 87 -57 128 -155 128h-96v-268z" />
    <glyph glyph-name="afii10059" unicode="&#x40a;" horiz-adv-x="909" 
d="M85 0v667h80v-284h306v284h80v-284h112c118 0 214 -62 214 -188c0 -130 -83 -195 -208 -195h-198v317h-306v-317h-80zM551 66h120c80 0 126 49 126 129c0 112 -89 122 -183 122h-63v-251z" />
    <glyph glyph-name="afii10060" unicode="&#x40b;" horiz-adv-x="707" 
d="M168 0v601h-158v66h473v-66h-235v-237c36 57 108 91 179 91c133 0 212 -77 212 -227v-228h-80v223c0 112 -57 169 -150 169c-87 0 -161 -66 -161 -161v-231h-80z" />
    <glyph glyph-name="afii10061" unicode="&#x40c;" horiz-adv-x="586" 
d="M325 724h-61l72 136h85zM164 0h-79v667h79v-301l292 301h98l-315 -313l343 -354h-106l-312 333v-333z" />
    <glyph glyph-name="uni040D" unicode="&#x40d;" horiz-adv-x="663" 
d="M85 0v667h80v-564l323 564h91v-667h-80v563l-322 -563h-92zM381 724h-59l-97 136h85z" />
    <glyph glyph-name="afii10062" unicode="&#x40e;" horiz-adv-x="585" 
d="M157 -7c-27 0 -52 3 -76 8l7 65c12 -4 32 -8 56 -8c46 0 69 44 108 121l-249 488h90l201 -411l204 411h84l-260 -511c-45 -88 -83 -163 -165 -163zM298 722c-92 0 -133 65 -145 98l46 28c14 -33 44 -64 99 -64s85 35 99 64l46 -28c-11 -32 -52 -98 -145 -98z" />
    <glyph glyph-name="afii10145" unicode="&#x40f;" horiz-adv-x="647" 
d="M287 -171v171h-202v667h80v-601h318v601h80v-667h-203v-171h-73z" />
    <glyph glyph-name="afii10017" unicode="&#x410;" horiz-adv-x="634" 
d="M316 603l-141 -358h280zM81 0h-77l266 667h93l267 -667h-82l-69 181h-327z" />
    <glyph glyph-name="afii10018" unicode="&#x411;" horiz-adv-x="549" 
d="M85 0v667h363v-66h-283v-204h99c147 0 231 -71 231 -194c0 -118 -70 -203 -237 -203h-173zM165 66h93c93 0 156 37 156 137c0 87 -58 128 -155 128h-94v-265z" />
    <glyph glyph-name="afii10019" unicode="&#x412;" horiz-adv-x="549" 
d="M163 317v-255h71c84 0 179 22 179 125c0 112 -101 130 -190 130h-60zM163 605v-229h75c81 0 157 27 157 121c0 84 -70 108 -141 108h-91zM236 0h-151v667h177c109 0 214 -39 214 -165c0 -83 -49 -134 -128 -153c84 -13 147 -71 147 -159c0 -153 -131 -190 -259 -190z" />
    <glyph glyph-name="afii10020" unicode="&#x413;" horiz-adv-x="445" 
d="M85 0v667h351v-68h-271v-599h-80z" />
    <glyph glyph-name="afii10021" unicode="&#x414;" horiz-adv-x="673" 
d="M10 -171v236h55c75 102 105 243 105 402v200h399v-602h87v-236h-73v171h-500v-171h-73zM155 65h334v536h-242v-168c0 -141 -29 -272 -92 -368z" />
    <glyph glyph-name="afii10022" unicode="&#x415;" horiz-adv-x="486" 
d="M440 0h-355v667h344v-65h-265v-228h252v-63h-252v-246h276v-65z" />
    <glyph glyph-name="afii10024" unicode="&#x416;" horiz-adv-x="885" 
d="M5 0l313 353l-281 314h99l266 -308v308h80v-308l267 308h99l-282 -314l314 -353h-104l-294 341v-341h-80v341l-292 -341h-105z" />
    <glyph glyph-name="afii10025" unicode="&#x417;" horiz-adv-x="498" 
d="M191 -11c-67 0 -117 9 -156 25l7 75c41 -25 98 -34 149 -34c77 0 167 34 167 134c0 114 -112 124 -180 124c-13 0 -26 0 -38 -1v66c8 -1 19 -1 29 -1c73 0 178 24 178 130c0 74 -69 106 -143 106c-46 0 -106 -16 -140 -33l-10 67c49 17 113 30 161 30
c114 0 216 -48 216 -169c0 -80 -52 -137 -134 -159c88 -9 147 -78 147 -168c0 -122 -106 -192 -253 -192z" />
    <glyph glyph-name="afii10026" unicode="&#x418;" horiz-adv-x="663" 
d="M85 0v667h80v-564l323 564h91v-667h-80v563l-322 -563h-92z" />
    <glyph glyph-name="afii10027" unicode="&#x419;" horiz-adv-x="663" 
d="M85 0v667h80v-564l323 564h91v-667h-80v563l-322 -563h-92zM331 722c-92 0 -133 65 -145 98l46 28c14 -33 44 -64 99 -64s85 35 99 64l46 -28c-11 -32 -52 -98 -145 -98z" />
    <glyph glyph-name="afii10028" unicode="&#x41a;" horiz-adv-x="586" 
d="M164 0h-79v667h79v-301l292 301h98l-315 -313l343 -354h-106l-312 333v-333z" />
    <glyph glyph-name="afii10029" unicode="&#x41b;" horiz-adv-x="668" 
d="M82 -7c-25 0 -55 3 -75 13l5 63c17 -7 38 -10 57 -10c103 0 118 170 118 608h397v-667h-80v601h-239c-1 -400 -13 -608 -183 -608z" />
    <glyph glyph-name="afii10030" unicode="&#x41c;" horiz-adv-x="869" 
d="M159 0h-74v667h122l229 -579l227 579h122v-667h-77v602l-236 -602h-77l-236 602v-602z" />
    <glyph glyph-name="afii10031" unicode="&#x41d;" horiz-adv-x="653" 
d="M164 0h-79v667h79v-289h325v289h80v-667h-80v309h-325v-309z" />
    <glyph glyph-name="afii10032" unicode="&#x41e;" horiz-adv-x="701" 
d="M185 144c36 -53 90 -89 166 -89c156 0 216 143 216 278s-60 278 -216 278c-153 0 -217 -145 -217 -278c0 -67 16 -136 51 -189zM217 16c-112 54 -166 173 -166 317c0 184 99 344 300 344c205 0 300 -155 300 -344c0 -185 -99 -344 -300 -344c-51 0 -96 9 -134 27z" />
    <glyph glyph-name="afii10033" unicode="&#x41f;" horiz-adv-x="646" 
d="M85 0v667h477v-667h-80v601h-317v-601h-80z" />
    <glyph glyph-name="afii10034" unicode="&#x420;" horiz-adv-x="508" 
d="M164 0h-79v667h156c133 0 239 -50 239 -186c0 -148 -115 -200 -251 -200h-65v-281zM163 603v-258h51c101 0 184 22 184 135c0 92 -73 123 -171 123h-64z" />
    <glyph glyph-name="afii10035" unicode="&#x421;" horiz-adv-x="589" 
d="M547 86l6 -67c-44 -23 -110 -30 -159 -30c-211 0 -343 136 -343 344c0 199 140 344 343 344c48 0 113 -7 157 -26l-6 -71c-43 20 -100 29 -147 29c-165 0 -264 -119 -264 -276c0 -164 95 -276 263 -276c51 0 103 6 150 29z" />
    <glyph glyph-name="afii10036" unicode="&#x422;" horiz-adv-x="496" 
d="M288 0h-80v599h-198v68h477v-68h-199v-599z" />
    <glyph glyph-name="afii10037" unicode="&#x423;" horiz-adv-x="585" 
d="M157 -7c-27 0 -52 3 -76 8l7 65c12 -4 32 -8 56 -8c46 0 69 44 108 121l-249 488h90l201 -411l204 411h84l-260 -511c-45 -88 -83 -163 -165 -163z" />
    <glyph glyph-name="afii10038" unicode="&#x424;" horiz-adv-x="770" 
d="M345 -10v77c-101 0 -176 31 -227 81c-50 49 -77 118 -77 197c0 81 28 149 78 197c51 49 125 77 226 77v58h80v-58c100 0 174 -28 224 -75c52 -48 80 -116 80 -199c0 -80 -28 -150 -79 -200c-50 -49 -125 -78 -225 -78v-77h-80zM345 128v430c-133 0 -221 -81 -221 -213
c0 -135 90 -217 221 -217zM425 128c131 0 221 82 221 217c0 132 -88 213 -221 213v-430z" />
    <glyph glyph-name="afii10039" unicode="&#x425;" horiz-adv-x="602" 
d="M96 0h-88l247 350l-223 317h92l182 -268l181 268h86l-221 -317l243 -350h-95l-198 303z" />
    <glyph glyph-name="afii10040" unicode="&#x426;" horiz-adv-x="667" 
d="M577 -171v171h-492v667h80v-601h316v601h80v-601h89v-237h-73z" />
    <glyph glyph-name="afii10041" unicode="&#x427;" horiz-adv-x="596" 
d="M431 0v284c-25 -8 -101 -21 -150 -21c-109 0 -219 17 -219 207v197h80v-196c0 -105 39 -142 151 -142c50 0 118 13 138 20v318h80v-667h-80z" />
    <glyph glyph-name="afii10042" unicode="&#x428;" horiz-adv-x="977" 
d="M85 0v667h80v-601h284v601h80v-601h284v601h80v-667h-808z" />
    <glyph glyph-name="afii10043" unicode="&#x429;" horiz-adv-x="998" 
d="M908 -171v171h-823v667h80v-601h284v601h80v-601h284v601h80v-601h88v-237h-73z" />
    <glyph glyph-name="afii10044" unicode="&#x42a;" horiz-adv-x="630" 
d="M176 0v601h-167v66h247v-266h114c146 0 228 -75 228 -196c0 -116 -63 -205 -229 -205h-193zM256 66h105c92 0 153 36 153 140c0 87 -57 128 -155 128h-103v-268z" />
    <glyph glyph-name="afii10045" unicode="&#x42b;" horiz-adv-x="766" 
d="M85 0v667h80v-266h113c146 0 228 -75 228 -196c0 -116 -63 -205 -229 -205h-192zM165 66h105c92 0 153 36 153 140c0 87 -57 128 -155 128h-103v-268zM601 0v667h80v-667h-80z" />
    <glyph glyph-name="afii10046" unicode="&#x42c;" horiz-adv-x="538" 
d="M85 0v667h80v-266h113c146 0 228 -75 228 -196c0 -116 -63 -205 -229 -205h-192zM165 66h105c92 0 153 36 153 140c0 87 -57 128 -155 128h-103v-268z" />
    <glyph glyph-name="afii10047" unicode="&#x42d;" horiz-adv-x="592" 
d="M214 -9c-44 0 -127 9 -164 27l6 63c36 -14 101 -24 152 -24c164 0 255 106 263 257h-314v63h312c-14 140 -107 234 -262 234c-46 0 -103 -7 -145 -28l-5 67c37 17 97 26 158 26c223 0 340 -138 340 -341c0 -209 -131 -344 -341 -344z" />
    <glyph glyph-name="afii10048" unicode="&#x42e;" horiz-adv-x="933" 
d="M583 -10c-175 0 -283 126 -289 323h-129v-313h-80v667h80v-288h131c17 184 132 298 291 298c177 0 295 -128 295 -341c0 -215 -114 -346 -299 -346zM584 55c129 0 211 105 211 275c0 143 -55 281 -202 281c-129 0 -216 -108 -216 -279c0 -140 69 -277 207 -277z" />
    <glyph glyph-name="afii10049" unicode="&#x42f;" horiz-adv-x="562" 
d="M8 0l119 229c25 48 47 75 89 85c-83 14 -155 71 -155 166c0 122 83 187 206 187h210v-667h-80v286h-69c-66 0 -86 -6 -131 -91l-102 -195h-87zM300 349h99v254h-88c-88 0 -168 -20 -168 -126c0 -91 80 -128 157 -128z" />
    <glyph glyph-name="afii10065" unicode="&#x430;" horiz-adv-x="493" 
d="M426 0h-71l-3 80c-29 -64 -92 -91 -155 -91c-89 0 -163 47 -163 148c0 128 112 166 258 166h56v24c0 76 -29 123 -112 123c-51 0 -98 -14 -141 -42l-6 65c43 21 103 35 150 35c125 0 181 -61 181 -186v-216c0 -37 1 -71 6 -106zM348 250h-37c-93 0 -202 -10 -202 -110
c0 -67 47 -92 96 -92c106 0 143 80 143 172v30z" />
    <glyph glyph-name="afii10066" unicode="&#x431;" horiz-adv-x="555" 
d="M285 -12c-169 0 -235 133 -235 286c0 151 10 292 94 372c55 53 126 64 200 71c49 4 98 6 142 19l-5 -73c-39 -11 -90 -13 -134 -17c-171 -16 -222 -64 -236 -259c16 41 74 111 181 111c154 0 223 -106 223 -254c0 -154 -87 -256 -230 -256zM287 48c92 0 149 77 149 196
c0 123 -53 196 -147 196c-97 0 -160 -76 -160 -199c0 -120 68 -193 158 -193z" />
    <glyph glyph-name="afii10067" unicode="&#x432;" horiz-adv-x="496" 
d="M73 0v498h196c89 0 166 -29 166 -120c0 -56 -36 -99 -92 -113c49 -7 108 -47 108 -114c0 -114 -83 -151 -182 -151h-196zM146 58h114c76 0 115 38 115 93c0 53 -35 84 -116 84h-113v-177zM146 290h112c64 0 100 24 100 79c0 52 -39 73 -105 73h-107v-152z" />
    <glyph glyph-name="afii10068" unicode="&#x433;" horiz-adv-x="383" 
d="M73 0v498h302v-60h-229v-438h-73z" />
    <glyph glyph-name="afii10069" unicode="&#x434;" horiz-adv-x="550" 
d="M6 -145v203h56c54 85 71 138 71 301v139h331v-440h71v-203h-67v145h-395v-145h-67zM139 58h252v382h-190v-100c0 -112 -8 -203 -62 -282z" />
    <glyph glyph-name="afii10070" unicode="&#x435;" horiz-adv-x="491" 
d="M462 240h-345c0 -96 51 -192 176 -192c48 0 100 14 137 38l3 -65c-43 -21 -93 -32 -140 -32c-172 0 -252 113 -252 262c0 127 73 257 222 257c155 0 199 -124 199 -256v-12zM117 294h274c-5 68 -30 156 -127 156c-95 0 -144 -85 -147 -156z" />
    <glyph glyph-name="afii10072" unicode="&#x436;" horiz-adv-x="723" 
d="M2 0l241 266l-217 232h87l212 -235v235h73v-235l212 235h87l-218 -232l242 -266h-95l-228 260v-260h-73v260l-228 -260h-95z" />
    <glyph glyph-name="afii10073" unicode="&#x437;" horiz-adv-x="435" 
d="M190 -11c-77 0 -118 12 -158 29l6 68c32 -18 73 -36 141 -36c79 0 131 40 131 92c0 70 -47 94 -132 94c-8 0 -23 0 -45 -1v59c9 -1 41 -1 42 -1c74 0 125 25 125 86c0 57 -56 70 -106 70c-56 0 -113 -25 -139 -39l-6 64c32 14 83 34 157 34c100 0 174 -30 174 -119
c0 -58 -43 -106 -108 -121c69 -10 119 -51 119 -123c0 -105 -96 -156 -201 -156z" />
    <glyph glyph-name="afii10074" unicode="&#x438;" horiz-adv-x="555" 
d="M73 0v498h73v-406l252 406h84v-498h-73v405l-252 -405h-84z" />
    <glyph glyph-name="afii10075" unicode="&#x439;" horiz-adv-x="555" 
d="M73 0v498h73v-406l252 406h84v-498h-73v405l-252 -405h-84zM281 585c-92 0 -133 65 -145 98l46 28c14 -33 44 -64 99 -64s85 35 99 64l46 -28c-11 -32 -52 -98 -145 -98z" />
    <glyph glyph-name="afii10076" unicode="&#x43a;" horiz-adv-x="488" 
d="M73 0v498h73v-229l220 229h90l-228 -232l258 -266h-97l-243 254v-254h-73z" />
    <glyph glyph-name="afii10077" unicode="&#x43b;" horiz-adv-x="540" 
d="M56 -6c-19 0 -43 2 -57 6l5 61c9 -4 27 -5 41 -5c79 0 97 115 97 442h325v-498h-73v440h-181c-1 -278 -14 -446 -157 -446z" />
    <glyph glyph-name="afii10078" unicode="&#x43c;" horiz-adv-x="691" 
d="M73 0v498h113l160 -428l159 428h113v-498h-72v431l-166 -431h-70l-166 431v-431h-71z" />
    <glyph glyph-name="afii10079" unicode="&#x43d;" horiz-adv-x="544" 
d="M73 0v498h73v-204h252v204h73v-498h-73v234h-252v-234h-73z" />
    <glyph glyph-name="afii10080" unicode="&#x43e;" horiz-adv-x="551" 
d="M157 114c25 -37 64 -64 119 -64c109 0 155 105 155 201c0 100 -43 196 -155 196c-110 0 -155 -100 -155 -196c0 -48 11 -98 36 -137zM174 9c-87 42 -131 133 -131 242c0 143 85 257 233 257c156 0 233 -110 233 -257c0 -144 -79 -262 -233 -262c-39 0 -73 7 -102 20z" />
    <glyph glyph-name="afii10081" unicode="&#x43f;" horiz-adv-x="539" 
d="M73 0v498h393v-498h-73v440h-247v-440h-73z" />
    <glyph glyph-name="afii10082" unicode="&#x440;" horiz-adv-x="543" 
d="M173 118c23 -39 58 -67 111 -67c111 0 138 109 138 200c0 92 -25 195 -138 195c-104 0 -141 -107 -141 -195c0 -44 9 -93 30 -133zM146 -216h-73v547c0 59 -2 111 -5 167h69l4 -87c27 59 92 97 158 97c152 0 202 -125 202 -257c0 -128 -55 -262 -203 -262
c-65 0 -127 33 -152 92v-297z" />
    <glyph glyph-name="afii10083" unicode="&#x441;" horiz-adv-x="443" 
d="M405 73l5 -65c-43 -15 -85 -19 -129 -19c-153 0 -238 117 -238 262c0 148 93 257 245 257c41 0 83 -8 122 -21l-6 -65c-32 15 -68 25 -104 25c-120 0 -179 -84 -179 -196c0 -105 59 -201 174 -201c39 0 75 8 110 23z" />
    <glyph glyph-name="afii10084" unicode="&#x442;" horiz-adv-x="420" 
d="M173 0v438h-165v60h403v-60h-165v-438h-73z" />
    <glyph glyph-name="afii10085" unicode="&#x443;" horiz-adv-x="444" 
d="M31 -219l6 63c15 -5 29 -9 45 -9c55 0 82 80 93 115l10 33l-173 515h79l134 -429l133 429h76l-200 -585c-27 -77 -67 -140 -143 -140c-24 0 -37 3 -60 8z" />
    <glyph glyph-name="afii10086" unicode="&#x444;" horiz-adv-x="770" 
d="M348 -216v268c-26 -39 -68 -63 -123 -63c-120 0 -183 112 -183 259c0 151 56 260 184 260c61 0 102 -34 122 -64v277h73v-277c20 29 61 64 122 64c128 0 184 -109 184 -260c0 -147 -63 -259 -183 -259c-55 0 -97 24 -123 63v-268h-73zM246 49c51 0 84 35 103 81v237
c-19 45 -51 81 -102 81c-96 0 -126 -107 -126 -199c0 -93 28 -200 125 -200zM523 49c97 0 125 107 125 200c0 92 -30 199 -125 199c-52 0 -84 -36 -102 -81v-237c19 -46 50 -81 102 -81z" />
    <glyph glyph-name="afii10087" unicode="&#x445;" horiz-adv-x="452" 
d="M94 0h-81l172 261l-155 237h85l116 -191l113 191h81l-153 -237l168 -261h-86l-126 215z" />
    <glyph glyph-name="afii10088" unicode="&#x446;" horiz-adv-x="547" 
d="M465 -145v145h-392v498h73v-440h243v440h73v-440h70v-203h-67z" />
    <glyph glyph-name="afii10089" unicode="&#x447;" horiz-adv-x="497" 
d="M351 0v202c-22 -6 -75 -20 -131 -20c-116 0 -170 50 -170 158v158h72v-142c0 -89 39 -114 118 -114c40 0 95 13 111 19v237h73v-498h-73z" />
    <glyph glyph-name="afii10090" unicode="&#x448;" horiz-adv-x="795" 
d="M73 0v498h73v-440h215v440h73v-440h215v440h73v-498h-649z" />
    <glyph glyph-name="afii10091" unicode="&#x449;" horiz-adv-x="808" 
d="M726 -145v145h-653v498h73v-440h215v440h73v-440h215v440h73v-440h71v-203h-67z" />
    <glyph glyph-name="afii10092" unicode="&#x44a;" horiz-adv-x="547" 
d="M149 0v440h-141v58h214v-186h123c95 0 173 -43 173 -149c0 -115 -73 -163 -177 -163h-192zM222 58h112c79 0 109 40 109 102c0 59 -33 94 -115 94h-106v-196z" />
    <glyph glyph-name="afii10093" unicode="&#x44b;" horiz-adv-x="683" 
d="M537 0v498h73v-498h-73zM73 0v498h73v-186h123c95 0 173 -43 173 -149c0 -115 -73 -163 -177 -163h-192zM146 58h112c79 0 109 40 109 102c0 59 -33 94 -115 94h-106v-196z" />
    <glyph glyph-name="afii10094" unicode="&#x44c;" horiz-adv-x="471" 
d="M73 0v498h73v-186h123c95 0 173 -43 173 -149c0 -115 -73 -163 -177 -163h-192zM146 58h112c79 0 109 40 109 102c0 59 -33 94 -115 94h-106v-196z" />
    <glyph glyph-name="afii10095" unicode="&#x44d;" horiz-adv-x="447" 
d="M160 -10c-49 0 -87 3 -131 19l6 63c38 -13 70 -22 110 -22c105 0 177 78 180 183h-228v57h227c-15 93 -69 158 -177 158c-34 0 -73 -10 -107 -25l-4 63c21 7 65 21 125 21c150 0 243 -102 243 -256c0 -142 -80 -261 -244 -261z" />
    <glyph glyph-name="afii10096" unicode="&#x44e;" horiz-adv-x="743" 
d="M469 -11c-130 0 -219 96 -225 245h-98v-234h-73v498h73v-206h99c16 138 105 216 230 216c140 0 226 -108 226 -257c0 -158 -91 -262 -232 -262zM471 50c95 0 150 83 150 202c0 124 -60 195 -147 195c-99 0 -152 -76 -152 -198c0 -121 58 -199 149 -199z" />
    <glyph glyph-name="afii10097" unicode="&#x44f;" horiz-adv-x="495" 
d="M11 0l73 142c34 67 54 74 90 81c-83 16 -121 76 -121 131c0 89 70 144 171 144h198v-498h-74v200h-77c-70 0 -88 -24 -115 -80l-59 -120h-86zM250 255h99v185h-80c-98 0 -139 -19 -139 -91c0 -55 31 -94 120 -94z" />
    <glyph glyph-name="uni0450" unicode="&#x450;" horiz-adv-x="491" 
d="M462 240h-345c0 -96 51 -192 176 -192c48 0 100 14 137 38l3 -65c-43 -21 -93 -32 -140 -32c-172 0 -252 113 -252 262c0 127 73 257 222 257c155 0 199 -124 199 -256v-12zM117 294h274c-5 68 -30 156 -127 156c-95 0 -144 -85 -147 -156zM297 585h-59l-97 136h85z" />
    <glyph glyph-name="afii10071" unicode="&#x451;" horiz-adv-x="491" 
d="M209 609h-66v87h66v-87zM364 609h-66v87h66v-87zM462 240h-345c0 -96 51 -192 176 -192c48 0 100 14 137 38l3 -65c-43 -21 -93 -32 -140 -32c-172 0 -252 113 -252 262c0 127 73 257 222 257c155 0 199 -124 199 -256v-12zM117 294h274c-5 68 -30 156 -127 156
c-95 0 -144 -85 -147 -156z" />
    <glyph glyph-name="afii10099" unicode="&#x452;" horiz-adv-x="539" 
d="M271 -223c-23 0 -49 4 -68 9l5 61c16 -5 42 -7 50 -7c113 0 136 78 136 168v288c0 79 -16 150 -112 150c-103 0 -136 -89 -136 -177v-269h-73v590h-85v52h85v79h73v-79h153v-52h-153v-176c32 63 83 94 154 94c122 0 166 -84 166 -199v-292c0 -141 -38 -240 -195 -240z
" />
    <glyph glyph-name="afii10100" unicode="&#x453;" horiz-adv-x="383" 
d="M236 585h-61l72 136h85zM73 0v498h302v-60h-229v-438h-73z" />
    <glyph glyph-name="afii10101" unicode="&#x454;" horiz-adv-x="447" 
d="M285 -10c-149 0 -242 105 -242 261c0 153 100 256 251 256c38 0 76 -4 116 -18l-4 -64c-37 17 -62 23 -100 23c-100 0 -171 -59 -181 -158h224v-57h-227c6 -105 71 -185 178 -185c36 0 75 8 109 23l7 -61c-45 -15 -82 -20 -131 -20z" />
    <glyph glyph-name="afii10102" unicode="&#x455;" horiz-adv-x="389" 
d="M42 12l9 68c40 -21 77 -31 122 -31c56 0 95 27 95 83c0 121 -215 86 -215 238c0 100 83 138 161 138c41 0 78 -8 113 -21l-10 -63c-31 15 -67 25 -102 25c-39 0 -89 -15 -89 -75c0 -100 217 -69 217 -236c0 -96 -81 -149 -169 -149c-48 0 -92 6 -132 23z" />
    <glyph glyph-name="afii10103" unicode="&#x456;" horiz-adv-x="218" 
d="M146 0h-73v498h73v-498zM146 609h-73v87h73v-87z" />
    <glyph glyph-name="afii10104" unicode="&#x457;" horiz-adv-x="218" 
d="M146 0h-73v498h73v-498zM65 609h-66v87h66v-87zM220 609h-66v87h66v-87z" />
    <glyph glyph-name="afii10105" unicode="&#x458;" horiz-adv-x="224" 
d="M-26 -221l6 63c11 -4 22 -6 34 -6c60 0 65 45 65 93v569h72v-580c0 -80 -23 -145 -115 -145c-21 0 -42 1 -62 6zM151 609h-72v87h72v-87z" />
    <glyph glyph-name="afii10106" unicode="&#x459;" horiz-adv-x="792" 
d="M56 -6c-19 0 -43 2 -57 6l5 61c9 -4 27 -5 41 -5c79 0 97 115 97 442h325v-186h123c95 0 173 -43 173 -149c0 -115 -73 -163 -177 -163h-192v440h-181c-1 -278 -14 -446 -157 -446zM467 58h112c79 0 109 40 109 102c0 59 -33 94 -115 94h-106v-196z" />
    <glyph glyph-name="afii10107" unicode="&#x45a;" horiz-adv-x="779" 
d="M73 0v498h73v-197h235v197h73v-197h130c94 0 166 -44 166 -143c0 -108 -70 -158 -170 -158h-199v243h-235v-243h-73zM454 58h114c75 0 106 40 106 97c0 54 -32 88 -113 88h-107v-185z" />
    <glyph glyph-name="afii10108" unicode="&#x45b;" horiz-adv-x="539" 
d="M146 0h-73v590h-85v52h85v79h73v-79h153v-52h-153v-176c32 63 83 94 154 94c122 0 166 -84 166 -199v-309h-72v296c0 79 -16 150 -112 150c-103 0 -136 -89 -136 -177v-269z" />
    <glyph glyph-name="afii10109" unicode="&#x45c;" horiz-adv-x="488" 
d="M269 585h-61l72 136h85zM73 0v498h73v-229l220 229h90l-228 -232l258 -266h-97l-243 254v-254h-73z" />
    <glyph glyph-name="uni045D" unicode="&#x45d;" horiz-adv-x="555" 
d="M73 0v498h73v-406l252 406h84v-498h-73v405l-252 -405h-84zM333 585h-59l-97 136h85z" />
    <glyph glyph-name="afii10110" unicode="&#x45e;" horiz-adv-x="444" 
d="M31 -219l6 63c15 -5 29 -9 45 -9c55 0 82 80 93 115l10 33l-173 515h79l134 -429l133 429h76l-200 -585c-27 -77 -67 -140 -143 -140c-24 0 -37 3 -60 8zM224 585c-92 0 -133 65 -145 98l46 28c14 -33 44 -64 99 -64s85 35 99 64l46 -28c-11 -32 -52 -98 -145 -98z" />
    <glyph glyph-name="afii10193" unicode="&#x45f;" horiz-adv-x="539" 
d="M239 -145v145h-166v498h73v-440h247v440h73v-498h-159v-145h-68z" />
    <glyph glyph-name="afii10146" unicode="&#x462;" horiz-adv-x="600" 
d="M317 0h-173v572h-126v66h126v83h80v-83h205v-66h-205v-175h99c147 0 231 -71 231 -194c0 -118 -70 -203 -237 -203zM224 66h93c93 0 156 37 156 137c0 87 -58 128 -155 128h-94v-265z" />
    <glyph glyph-name="afii10194" unicode="&#x463;" horiz-adv-x="522" 
d="M192 310h123c95 0 175 -41 175 -147c0 -115 -75 -163 -179 -163h-192v441h-111v57h111v223h73v-223h182v-57h-182v-131zM298 252h-106v-194h112c79 0 111 40 111 102c0 59 -35 92 -117 92z" />
    <glyph glyph-name="afii10147" unicode="&#x472;" horiz-adv-x="702" 
d="M651 333c0 -185 -100 -344 -300 -344c-207 0 -300 154 -300 344c0 184 100 344 300 344c205 0 300 -155 300 -344zM351 55c146 0 209 126 216 254h-433c8 -126 73 -254 217 -254zM351 611c-140 0 -204 -119 -215 -240h430c-11 122 -75 240 -215 240z" />
    <glyph glyph-name="afii10195" unicode="&#x473;" horiz-adv-x="552" 
d="M509 251c0 -144 -79 -262 -233 -262c-155 0 -233 118 -233 262c0 143 86 257 233 257c156 0 233 -110 233 -257zM276 50c101 0 147 87 154 178h-308c6 -90 52 -178 154 -178zM276 447c-99 0 -145 -79 -154 -165h307c-8 87 -52 165 -153 165z" />
    <glyph glyph-name="afii10148" unicode="&#x474;" horiz-adv-x="668" 
d="M342 0h-87l-249 667h84l210 -591l146 443c38 115 81 155 151 155c25 0 47 -5 66 -13l-4 -62c-15 6 -30 10 -46 10c-40 0 -63 -18 -94 -106z" />
    <glyph glyph-name="afii10196" unicode="&#x475;" horiz-adv-x="497" 
d="M264 0h-86l-167 498h79l133 -434l90 313c27 93 62 128 124 128c20 0 36 -3 49 -10l-5 -58c-9 4 -18 7 -33 7c-29 0 -47 -15 -67 -78z" />
    <glyph glyph-name="afii10050" unicode="&#x490;" horiz-adv-x="450" 
d="M85 0v667h283v147h73v-215h-276v-599h-80z" />
    <glyph glyph-name="afii10098" unicode="&#x491;" horiz-adv-x="386" 
d="M73 0v498h238v133h67v-193h-232v-438h-73z" />
    <glyph glyph-name="exclam.sc" unicode="&#xef32;" horiz-adv-x="271" 
d="M176 0h-82v84h82v-84zM165 165h-58l-12 368h83z" />
    <glyph glyph-name="dollar.sc" unicode="&#xf101;" horiz-adv-x="455" 
d="M242 -86h-45v75c-47 1 -91 8 -132 23l5 66c39 -20 83 -29 130 -29c67 0 117 29 117 93c0 45 -41 69 -93 96l-60 31c-60 31 -102 66 -102 131c0 84 69 126 145 139v80h45v-76c35 0 77 -6 113 -17l-5 -63c-35 11 -72 20 -107 20c-60 0 -115 -21 -115 -81
c0 -39 36 -60 79 -83l64 -33c69 -37 113 -70 113 -141c0 -90 -68 -142 -152 -153v-78z" />
    <glyph glyph-name="percent.sc" unicode="&#xf0f5;" horiz-adv-x="748" 
d="M237 -19h-56l332 571h55zM508 70c11 -23 29 -38 57 -38c57 0 70 62 70 121c0 61 -13 120 -70 120c-53 0 -70 -59 -70 -120c0 -31 4 -60 13 -83zM502 4c-49 31 -64 90 -64 149c0 75 30 164 127 164c96 0 128 -89 128 -164c0 -76 -32 -164 -128 -164c-25 0 -46 5 -63 15z
M126 296c11 -23 29 -38 57 -38c57 0 70 62 70 121c0 61 -13 120 -70 120c-53 0 -70 -59 -70 -120c0 -31 4 -60 13 -83zM120 230c-49 31 -64 90 -64 149c0 75 30 164 127 164c96 0 128 -89 128 -164c0 -76 -32 -164 -128 -164c-25 0 -46 5 -63 15z" />
    <glyph glyph-name="ampersand.sc" unicode="&#xef3a;" horiz-adv-x="532" 
d="M362 248h-105c-77 0 -140 -25 -140 -105c0 -78 69 -97 140 -97c39 0 68 3 105 12v190zM430 248v-235c-69 -17 -120 -24 -173 -24c-112 0 -215 37 -215 153c0 73 50 125 121 132c-64 15 -107 54 -107 122c0 96 95 147 199 147c48 0 90 -5 129 -17l-3 -61
c-41 15 -80 21 -127 21c-65 0 -125 -29 -125 -90c0 -76 60 -93 132 -93h101v60h68v-60h85v-55h-85z" />
    <glyph glyph-name="zero.sc" unicode="&#xf057;" horiz-adv-x="455" 
d="M132 124c16 -43 44 -76 96 -76c100 0 112 133 112 218c0 89 -10 218 -112 218c-101 0 -113 -131 -113 -218c0 -44 2 -98 17 -142zM133 14c-73 53 -93 156 -93 252c0 124 39 277 188 277s188 -154 188 -277s-39 -277 -188 -277c-39 0 -70 8 -95 25z" />
    <glyph glyph-name="one.sc" unicode="&#xf061;" horiz-adv-x="455" 
d="M291 0h-72v455l-96 -78l-32 48l137 108h63v-533z" />
    <glyph glyph-name="two.sc" unicode="&#xf06c;" horiz-adv-x="455" 
d="M386 0h-339v59l125 131c80 84 130 142 130 203c0 59 -49 88 -102 88c-49 0 -91 -13 -130 -33l-5 63c44 20 95 32 142 32c90 0 170 -44 170 -144c0 -85 -67 -153 -141 -233l-103 -108h253v-58z" />
    <glyph glyph-name="three.sc" unicode="&#xf077;" horiz-adv-x="455" 
d="M44 9l5 61c40 -15 87 -22 131 -22c69 0 136 31 136 106c0 69 -68 92 -132 92h-69v58h59c71 0 133 25 133 98c0 56 -56 82 -123 82c-41 0 -83 -10 -120 -25l-5 59c44 16 89 25 136 25c89 0 185 -38 185 -137c0 -68 -44 -109 -108 -129c69 -9 118 -59 118 -123
c0 -115 -98 -165 -209 -165c-45 0 -90 4 -137 20z" />
    <glyph glyph-name="four.sc" unicode="&#xf082;" horiz-adv-x="455" 
d="M281 458l-193 -281h193v281zM281 120h-254v64l245 349h80v-356h78v-57h-78v-120h-71v120z" />
    <glyph glyph-name="five.sc" unicode="&#xf08c;" horiz-adv-x="455" 
d="M61 8l5 62c33 -15 73 -21 113 -21c77 0 141 40 141 116c0 77 -59 106 -136 106c-35 0 -67 -4 -110 -19l4 281h291v-57h-226l-3 -161c28 9 52 10 75 10c100 0 180 -51 180 -156c0 -119 -99 -180 -208 -180c-39 0 -87 7 -126 19z" />
    <glyph glyph-name="six.sc" unicode="&#xf096;" horiz-adv-x="455" 
d="M149 83c19 -23 45 -37 81 -37c73 0 114 48 114 117c0 68 -34 118 -107 118c-68 0 -114 -46 -114 -113c0 -32 9 -62 26 -85zM390 531l-5 -61c-29 9 -57 14 -92 14c-128 0 -175 -105 -175 -215c29 39 71 69 131 69c104 0 168 -67 168 -170c0 -108 -78 -179 -186 -179
c-109 0 -184 76 -184 239c0 176 72 315 248 315c32 0 64 -4 95 -12z" />
    <glyph glyph-name="seven.sc" unicode="&#xf0a0;" horiz-adv-x="455" 
d="M188 0h-82l217 472h-275v61h346v-60z" />
    <glyph glyph-name="eight.sc" unicode="&#xf0aa;" horiz-adv-x="455" 
d="M152 349c18 -15 44 -31 79 -46c71 27 100 57 100 104c0 48 -43 80 -103 80c-51 0 -102 -27 -102 -80c0 -23 9 -43 26 -58zM317 201c-19 17 -50 34 -91 50c-80 -24 -117 -57 -117 -110c0 -63 58 -95 119 -95c60 0 118 32 118 97c0 21 -10 41 -29 58zM68 221
c23 23 54 42 95 57c-68 35 -109 71 -109 135c0 76 81 130 174 130c95 0 174 -53 174 -130c0 -64 -37 -102 -110 -134c74 -34 129 -72 129 -145c0 -93 -97 -145 -193 -145c-112 0 -193 56 -193 145c0 36 11 65 33 87z" />
    <glyph glyph-name="nine.sc" unicode="&#xf0b4;" horiz-adv-x="455" 
d="M135 282c18 -22 45 -33 82 -33c69 0 113 45 113 114c0 65 -35 122 -106 122c-72 0 -115 -46 -115 -118c0 -34 9 -62 26 -85zM62 2l5 60c30 -9 61 -14 94 -14c131 0 167 97 175 209c-31 -41 -79 -64 -130 -64c-103 0 -169 66 -169 171c0 107 83 179 186 179
c126 0 185 -96 185 -229c0 -183 -64 -325 -247 -325c-32 0 -66 4 -99 13z" />
    <glyph glyph-name="question.sc" unicode="&#xef82;" horiz-adv-x="353" 
d="M187 0h-82v84h82v-84zM179 165h-66c0 59 25 90 70 133c39 35 56 63 56 106c0 52 -41 78 -96 78c-39 0 -69 -7 -108 -19l-4 61c40 13 76 19 121 19c90 0 161 -45 161 -134c0 -59 -33 -97 -70 -132c-45 -42 -64 -67 -64 -112z" />
    <glyph glyph-name="a.sc" unicode="&#xe5ec;" horiz-adv-x="528" 
d="M262 467l-104 -268h207zM85 0h-74l212 533h81l213 -533h-78l-53 141h-247z" />
    <glyph glyph-name="b.sc" unicode="&#xe5f5;" horiz-adv-x="466" 
d="M148 479v-178h59c64 0 125 20 125 94c0 66 -57 84 -113 84h-71zM148 250v-196h55c64 0 142 14 142 96c0 86 -82 100 -150 100h-47zM201 0h-126v533h154c82 0 179 -28 179 -132c0 -65 -38 -108 -99 -123c64 -15 114 -60 114 -128c0 -131 -121 -150 -222 -150z" />
    <glyph glyph-name="c.sc" unicode="&#xe5ff;" horiz-adv-x="482" 
d="M447 74l6 -63c-39 -16 -82 -22 -129 -22c-170 0 -280 108 -280 277c0 161 117 277 280 277c39 0 89 -6 126 -21l-5 -64c-33 13 -78 22 -115 22c-131 0 -208 -90 -208 -214c0 -127 75 -214 207 -214c43 0 82 7 118 22z" />
    <glyph glyph-name="d.sc" unicode="&#xe609;" horiz-adv-x="546" 
d="M148 475v-418h45c133 0 231 55 231 213c0 128 -70 205 -202 205h-74zM190 0h-115v533h143c163 0 284 -75 284 -263c0 -202 -143 -270 -312 -270z" />
    <glyph glyph-name="e.sc" unicode="&#xe613;" horiz-adv-x="417" 
d="M376 0h-301v533h293v-57h-220v-174h209v-57h-209v-187h228v-58z" />
    <glyph glyph-name="f.sc" unicode="&#xe61c;" horiz-adv-x="391" 
d="M148 0h-73v533h285v-57h-212v-177h203v-57h-203v-242z" />
    <glyph glyph-name="g.sc" unicode="&#xe626;" horiz-adv-x="555" 
d="M500 284v-263c-58 -21 -116 -32 -175 -32c-169 0 -281 108 -281 277c0 163 118 277 287 277c51 0 99 -7 144 -26l-5 -64c-41 17 -87 27 -136 27c-130 0 -212 -88 -212 -214c0 -117 69 -217 204 -217c36 0 72 4 104 16v163h-103v56h173z" />
    <glyph glyph-name="h.sc" unicode="&#xe630;" horiz-adv-x="554" 
d="M148 0h-73v533h73v-227h257v227h73v-533h-73v242h-257v-242z" />
    <glyph glyph-name="i.sc" unicode="&#xe63a;" horiz-adv-x="223" 
d="M148 0h-73v533h73v-533z" />
    <glyph glyph-name="j.sc" unicode="&#xe643;" horiz-adv-x="279" 
d="M6 -1l5 61c15 -5 33 -9 49 -9c59 0 75 43 75 95v387h73v-393c0 -89 -40 -151 -135 -151c-22 0 -44 3 -67 10z" />
    <glyph glyph-name="k.sc" unicode="&#xe64d;" horiz-adv-x="495" 
d="M148 0h-73v533h73v-240l230 240h90l-251 -250l272 -283h-96l-245 265v-265z" />
    <glyph glyph-name="l.sc" unicode="&#xe657;" horiz-adv-x="385" 
d="M371 0h-296v533h73v-471h223v-62z" />
    <glyph glyph-name="m.sc" unicode="&#xe661;" horiz-adv-x="722" 
d="M144 0h-69v533h119l168 -447l169 447h116v-533h-72v474l-182 -474h-68l-181 474v-474z" />
    <glyph glyph-name="n.sc" unicode="&#xe66b;" horiz-adv-x="571" 
d="M143 0h-68v533h99l254 -457v457h68v-533h-101l-252 456v-456z" />
    <glyph glyph-name="o.sc" unicode="&#xe674;" horiz-adv-x="580" 
d="M161 118c28 -40 70 -67 129 -67c123 0 168 108 168 215s-45 215 -168 215c-119 0 -168 -108 -168 -215c0 -53 12 -107 39 -148zM181 10c-92 44 -137 137 -137 256c0 151 83 277 246 277c166 0 246 -122 246 -277c0 -152 -82 -277 -246 -277c-42 0 -78 7 -109 21z" />
    <glyph glyph-name="p.sc" unicode="&#xe67d;" horiz-adv-x="444" 
d="M147 476v-201h41c76 0 148 9 148 101c0 68 -47 100 -111 100h-78zM147 0h-72v533h166c97 0 173 -53 173 -156c0 -109 -84 -159 -177 -159h-90v-218z" />
    <glyph glyph-name="q.sc" unicode="&#xe687;" horiz-adv-x="580" 
d="M161 118c28 -40 70 -67 129 -67c123 0 168 108 168 215s-45 215 -168 215c-119 0 -168 -108 -168 -215c0 -53 12 -107 39 -148zM515 -104h-96l-92 96c-12 -2 -24 -3 -37 -3c-167 0 -246 121 -246 277c0 151 83 277 246 277c166 0 246 -122 246 -277
c0 -113 -47 -209 -136 -252z" />
    <glyph glyph-name="r.sc" unicode="&#xe691;" horiz-adv-x="466" 
d="M147 476v-178h57c61 0 129 19 129 91s-57 87 -126 87h-60zM147 0h-72v533h158c86 0 177 -34 177 -140c0 -68 -51 -114 -119 -125c36 -11 56 -35 71 -68l85 -200h-81l-69 170c-21 51 -39 70 -104 70h-46v-240z" />
    <glyph glyph-name="s.sc" unicode="&#xe69b;" horiz-adv-x="408" 
d="M40 11l6 67c39 -20 81 -29 120 -29c76 0 117 29 117 90c0 48 -39 76 -91 103l-47 24c-60 31 -97 63 -97 134c0 99 90 143 181 143c37 0 75 -6 112 -17l-5 -63c-35 13 -72 20 -104 20c-59 0 -108 -21 -108 -81c0 -44 31 -63 74 -86l51 -26c69 -36 111 -72 111 -145
c0 -99 -78 -156 -189 -156c-39 0 -87 6 -131 22z" />
    <glyph glyph-name="t.sc" unicode="&#xe6a5;" horiz-adv-x="415" 
d="M244 0h-74v470h-162v63h399v-63h-163v-470z" />
    <glyph glyph-name="u.sc" unicode="&#xe6af;" horiz-adv-x="555" 
d="M144 533v-342c0 -81 44 -140 132 -140c89 0 134 56 134 140v342h74v-342c0 -122 -83 -202 -208 -202c-127 0 -205 72 -205 200v344h73z" />
    <glyph glyph-name="v.sc" unicode="&#xe6b9;" horiz-adv-x="496" 
d="M287 0h-81l-199 533h78l164 -459l167 459h72z" />
    <glyph glyph-name="w.sc" unicode="&#xe6c3;" horiz-adv-x="757" 
d="M246 0h-83l-153 533h72l126 -458l134 458h79l132 -458l125 458h69l-152 -533h-83l-133 460z" />
    <glyph glyph-name="x.sc" unicode="&#xe6cd;" horiz-adv-x="502" 
d="M90 0h-81l199 277l-181 256h86l142 -211l140 211h81l-180 -254l196 -279h-87l-154 234z" />
    <glyph glyph-name="y.sc" unicode="&#xe6d6;" horiz-adv-x="476" 
d="M273 0h-73v217l-197 316h82l154 -257l155 257h78l-199 -316v-217z" />
    <glyph glyph-name="z.sc" unicode="&#xe6e0;" horiz-adv-x="418" 
d="M392 0h-366v62l283 412h-274v59h350v-62l-279 -412h286v-59z" />
    <glyph glyph-name="agrave.sc" unicode="&#xeb35;" horiz-adv-x="528" 
d="M262 467l-104 -268h207zM85 0h-74l212 533h81l213 -533h-78l-53 141h-247zM297 610h-59l-97 136h85z" />
    <glyph glyph-name="aacute.sc" unicode="&#xeb3f;" horiz-adv-x="528" 
d="M262 467l-104 -268h207zM85 0h-74l212 533h81l213 -533h-78l-53 141h-247zM285 610h-61l72 136h85z" />
    <glyph glyph-name="acircumflex.sc" unicode="&#xeb49;" horiz-adv-x="528" 
d="M262 467l-104 -268h207zM85 0h-74l212 533h81l213 -533h-78l-53 141h-247zM187 610h-65l103 136h74l103 -136h-65l-75 96z" />
    <glyph glyph-name="atilde.sc" unicode="&#xeb53;" horiz-adv-x="528" 
d="M262 467l-104 -268h207zM85 0h-74l212 533h81l213 -533h-78l-53 141h-247zM164 624h-48c0 47 33 100 89 100c48 0 85 -41 117 -41c25 0 39 26 39 45h47c0 -43 -33 -99 -85 -99c-50 0 -78 40 -116 40c-24 0 -43 -25 -43 -45z" />
    <glyph glyph-name="adieresis.sc" unicode="&#xeb5d;" horiz-adv-x="528" 
d="M262 467l-104 -268h207zM85 0h-74l212 533h81l213 -533h-78l-53 141h-247zM218 634h-66v87h66v-87zM373 634h-66v87h66v-87z" />
    <glyph glyph-name="aring.sc" unicode="&#xeb7b;" horiz-adv-x="528" 
d="M262 467l-104 -268h207zM85 0h-74l212 533h81l213 -533h-78l-53 141h-247zM202 678c0 -33 27 -59 59 -59c33 0 60 26 60 59c0 32 -27 58 -60 58s-59 -26 -59 -58zM224 592c-34 14 -58 47 -58 86c0 52 43 92 95 92s96 -40 96 -92s-44 -93 -96 -93c-13 0 -26 2 -37 7z" />
    <glyph glyph-name="amacron.sc" unicode="&#xeb67;" horiz-adv-x="528" 
d="M262 467l-104 -268h207zM85 0h-74l212 533h81l213 -533h-78l-53 141h-247zM385 653h-245v51h245v-51z" />
    <glyph glyph-name="abreve.sc" unicode="&#xeb71;" horiz-adv-x="528" 
d="M262 467l-104 -268h207zM85 0h-74l212 533h81l213 -533h-78l-53 141h-247zM143 735h43c4 -40 31 -71 76 -71s72 31 77 71h43c0 -28 -22 -117 -120 -117c-97 0 -119 89 -119 117z" />
    <glyph glyph-name="aogonek.sc" unicode="&#xeb8f;" horiz-adv-x="528" 
d="M262 467l-104 -268h207zM85 0h-74l212 533h81l213 -533h-25c-49 -30 -73 -61 -73 -93c0 -35 26 -47 49 -47c21 0 36 4 59 15l11 -35c-24 -12 -46 -20 -81 -20c-57 0 -92 35 -92 76c0 45 30 81 82 104h-8l-53 141h-247z" />
    <glyph glyph-name="ae.sc" unicode="&#xeb99;" horiz-adv-x="711" 
d="M375 482l-179 -283h179v283zM78 0h-78l337 533h325v-57h-216v-174h205v-57h-205v-187h224v-58h-295v143h-208z" />
    <glyph glyph-name="cacute.sc" unicode="&#xebad;" horiz-adv-x="482" 
d="M447 74l6 -63c-39 -16 -82 -22 -129 -22c-170 0 -280 108 -280 277c0 161 117 277 280 277c39 0 89 -6 126 -21l-5 -64c-33 13 -78 22 -115 22c-131 0 -208 -90 -208 -214c0 -127 75 -214 207 -214c43 0 82 7 118 22zM317 610h-61l72 136h85z" />
    <glyph glyph-name="ccircumflex.sc" unicode="&#xebb7;" horiz-adv-x="482" 
d="M447 74l6 -63c-39 -16 -82 -22 -129 -22c-170 0 -280 108 -280 277c0 161 117 277 280 277c39 0 89 -6 126 -21l-5 -64c-33 13 -78 22 -115 22c-131 0 -208 -90 -208 -214c0 -127 75 -214 207 -214c43 0 82 7 118 22zM223 610h-65l103 136h74l103 -136h-65l-75 96z" />
    <glyph glyph-name="ccaron.sc" unicode="&#xebc1;" horiz-adv-x="482" 
d="M447 74l6 -63c-39 -16 -82 -22 -129 -22c-170 0 -280 108 -280 277c0 161 117 277 280 277c39 0 89 -6 126 -21l-5 -64c-33 13 -78 22 -115 22c-131 0 -208 -90 -208 -214c0 -127 75 -214 207 -214c43 0 82 7 118 22zM340 610h-74l-103 136h65l75 -97l75 97h65z" />
    <glyph glyph-name="cdotaccent.sc" unicode="&#xebcb;" horiz-adv-x="482" 
d="M447 74l6 -63c-39 -16 -82 -22 -129 -22c-170 0 -280 108 -280 277c0 161 117 277 280 277c39 0 89 -6 126 -21l-5 -64c-33 13 -78 22 -115 22c-131 0 -208 -90 -208 -214c0 -127 75 -214 207 -214c43 0 82 7 118 22zM340 634h-73v87h73v-87z" />
    <glyph glyph-name="ccedilla.sc" unicode="&#xebd5;" horiz-adv-x="482" 
d="M195 -161l13 35c25 -11 50 -17 74 -17c27 0 50 11 50 34s-20 29 -39 29c-12 0 -25 -2 -39 -7l-15 18l43 61c-147 16 -238 119 -238 274c0 161 117 277 280 277c39 0 89 -6 126 -21l-5 -64c-33 13 -78 22 -115 22c-131 0 -208 -90 -208 -214c0 -127 75 -214 207 -214
c43 0 82 7 118 22l6 -63c-39 -16 -82 -22 -129 -22h-7l-31 -42c15 3 19 4 32 4c39 0 66 -21 66 -57c0 -45 -40 -74 -101 -74c-31 0 -55 4 -88 19z" />
    <glyph glyph-name="dcaron.sc" unicode="&#xebdf;" horiz-adv-x="546" 
d="M147 475v-418h45c133 0 231 55 231 213c0 128 -70 205 -202 205h-74zM189 0h-115v533h143c163 0 284 -75 284 -263c0 -202 -143 -270 -312 -270zM287 610h-74l-103 136h65l75 -97l75 97h65z" />
    <glyph glyph-name="dcroat.sc" unicode="&#xebe9;" horiz-adv-x="546" 
d="M148 245v-188h45c133 0 231 55 231 213c0 128 -70 205 -202 205h-74v-178h137v-52h-137zM190 0h-114v245h-58v52h58v236h142c163 0 284 -75 284 -263c0 -202 -143 -270 -312 -270z" />
    <glyph glyph-name="eth.sc" unicode="&#xebf3;" horiz-adv-x="546" 
d="M148 245v-188h45c133 0 231 55 231 213c0 128 -70 205 -202 205h-74v-178h137v-52h-137zM190 0h-114v245h-58v52h58v236h142c163 0 284 -75 284 -263c0 -202 -143 -270 -312 -270z" />
    <glyph glyph-name="egrave.sc" unicode="&#xebfd;" horiz-adv-x="417" 
d="M376 0h-301v533h293v-57h-220v-174h209v-57h-209v-187h228v-58zM265 610h-59l-97 136h85z" />
    <glyph glyph-name="eacute.sc" unicode="&#xec07;" horiz-adv-x="417" 
d="M376 0h-301v533h293v-57h-220v-174h209v-57h-209v-187h228v-58zM238 610h-61l72 136h85z" />
    <glyph glyph-name="ecircumflex.sc" unicode="&#xec11;" horiz-adv-x="417" 
d="M376 0h-301v533h293v-57h-220v-174h209v-57h-209v-187h228v-58zM146 610h-65l103 136h74l103 -136h-65l-75 96z" />
    <glyph glyph-name="ecaron.sc" unicode="&#xec1b;" horiz-adv-x="417" 
d="M376 0h-301v533h293v-57h-220v-174h209v-57h-209v-187h228v-58zM259 610h-74l-103 136h65l75 -97l75 97h65z" />
    <glyph glyph-name="edieresis.sc" unicode="&#xec25;" horiz-adv-x="417" 
d="M376 0h-301v533h293v-57h-220v-174h209v-57h-209v-187h228v-58zM177 634h-66v87h66v-87zM332 634h-66v87h66v-87z" />
    <glyph glyph-name="edotaccent.sc" unicode="&#xec43;" horiz-adv-x="417" 
d="M376 0h-301v533h293v-57h-220v-174h209v-57h-209v-187h228v-58zM259 634h-73v87h73v-87z" />
    <glyph glyph-name="emacron.sc" unicode="&#xec2f;" horiz-adv-x="417" 
d="M376 0h-301v533h293v-57h-220v-174h209v-57h-209v-187h228v-58zM344 653h-245v51h245v-51z" />
    <glyph glyph-name="ebreve.sc" unicode="&#xec39;" horiz-adv-x="417" 
d="M376 0h-301v533h293v-57h-220v-174h209v-57h-209v-187h228v-58zM102 735h43c4 -40 31 -71 76 -71s72 31 77 71h43c0 -28 -22 -117 -120 -117c-97 0 -119 89 -119 117z" />
    <glyph glyph-name="eogonek.sc" unicode="&#xec4d;" horiz-adv-x="417" 
d="M289 0h-214v533h293v-57h-220v-174h209v-57h-209v-187h228v-58h-42c-49 -30 -73 -61 -73 -93c0 -35 26 -47 49 -47c21 0 36 4 59 15l11 -35c-24 -12 -46 -20 -81 -20c-57 0 -92 35 -92 76c0 45 30 81 82 104z" />
    <glyph glyph-name="gcircumflex.sc" unicode="&#xec57;" horiz-adv-x="555" 
d="M500 284v-263c-58 -21 -116 -32 -175 -32c-169 0 -281 108 -281 277c0 163 118 277 287 277c51 0 99 -7 144 -26l-5 -64c-41 17 -87 27 -136 27c-130 0 -212 -88 -212 -214c0 -117 69 -217 204 -217c36 0 72 4 104 16v163h-103v56h173zM234 610h-65l103 136h74l103 -136
h-65l-75 96z" />
    <glyph glyph-name="gdotaccent.sc" unicode="&#xec6b;" horiz-adv-x="555" 
d="M500 284v-263c-58 -21 -116 -32 -175 -32c-169 0 -281 108 -281 277c0 163 118 277 287 277c51 0 99 -7 144 -26l-5 -64c-41 17 -87 27 -136 27c-130 0 -212 -88 -212 -214c0 -117 69 -217 204 -217c36 0 72 4 104 16v163h-103v56h173zM346 634h-73v87h73v-87z" />
    <glyph glyph-name="gbreve.sc" unicode="&#xec61;" horiz-adv-x="555" 
d="M500 284v-263c-58 -21 -116 -32 -175 -32c-169 0 -281 108 -281 277c0 163 118 277 287 277c51 0 99 -7 144 -26l-5 -64c-41 17 -87 27 -136 27c-130 0 -212 -88 -212 -214c0 -117 69 -217 204 -217c36 0 72 4 104 16v163h-103v56h173zM190 735h43c4 -40 31 -71 76 -71
s72 31 77 71h43c0 -28 -22 -117 -120 -117c-97 0 -119 89 -119 117z" />
    <glyph glyph-name="gcommaaccent.sc" unicode="&#xec75;" horiz-adv-x="555" 
d="M500 284v-263c-58 -21 -116 -32 -175 -32c-169 0 -281 108 -281 277c0 163 118 277 287 277c51 0 99 -7 144 -26l-5 -64c-41 17 -87 27 -136 27c-130 0 -212 -88 -212 -214c0 -117 69 -217 204 -217c36 0 72 4 104 16v163h-103v56h173zM295 -227h-50l47 159h67z" />
    <glyph glyph-name="hcircumflex.sc" unicode="&#xec7f;" horiz-adv-x="554" 
d="M148 0h-73v533h73v-227h257v227h73v-533h-73v242h-257v-242zM202 610h-65l103 136h74l103 -136h-65l-75 96z" />
    <glyph glyph-name="hbar.sc" unicode="&#xec89;" horiz-adv-x="554" 
d="M149 374v-97h254v97h-254zM149 0h-74v533h74v-106h254v106h76v-533h-76v216h-254v-216z" />
    <glyph glyph-name="igrave.sc" unicode="&#xec93;" horiz-adv-x="223" 
d="M156 610h-59l-97 136h85zM148 0h-73v533h73v-533z" />
    <glyph glyph-name="iacute.sc" unicode="&#xec9d;" horiz-adv-x="223" 
d="M127 610h-61l72 136h85zM148 0h-73v533h73v-533z" />
    <glyph glyph-name="icircumflex.sc" unicode="&#xecb1;" horiz-adv-x="223" 
d="M37 610h-65l103 136h74l103 -136h-65l-75 96zM148 0h-73v533h73v-533z" />
    <glyph glyph-name="itilde.sc" unicode="&#xecbb;" horiz-adv-x="223" 
d="M15 624h-48c0 47 33 100 89 100c48 0 85 -41 117 -41c25 0 39 26 39 45h47c0 -43 -33 -99 -85 -99c-50 0 -78 40 -116 40c-24 0 -43 -25 -43 -45zM148 0h-73v533h73v-533z" />
    <glyph glyph-name="idieresis.sc" unicode="&#xecc5;" horiz-adv-x="223" 
d="M68 634h-66v87h66v-87zM223 634h-66v87h66v-87zM148 0h-73v533h73v-533z" />
    <glyph glyph-name="imacron.sc" unicode="&#xecd0;" horiz-adv-x="223" 
d="M235 653h-245v51h245v-51zM148 0h-73v533h73v-533z" />
    <glyph glyph-name="idotaccent.sc" unicode="&#xeccf;" horiz-adv-x="223" 
d="M148 0h-73v533h73v-533zM148 634h-73v87h73v-87z" />
    <glyph glyph-name="iogonek.sc" unicode="&#xecda;" horiz-adv-x="223" 
d="M167 -130l11 -35c-20 -9 -36 -15 -65 -15c-51 0 -88 29 -88 76c0 45 31 79 78 104h-28v533h73v-533c-51 -28 -69 -63 -69 -95c0 -31 20 -45 45 -45c12 0 24 2 43 10z" />
    <glyph glyph-name="jcircumflex.sc" unicode="&#xece4;" horiz-adv-x="279" 
d="M90 610h-65l103 136h74l103 -136h-65l-75 96zM6 -1l5 61c15 -5 33 -9 49 -9c59 0 75 43 75 95v387h73v-393c0 -89 -40 -151 -135 -151c-22 0 -44 3 -67 10z" />
    <glyph glyph-name="kcommaaccent.sc" unicode="&#xecee;" horiz-adv-x="495" 
d="M148 0h-73v533h73v-240l230 240h90l-251 -250l272 -283h-96l-245 265v-265zM246 -227h-50l47 159h67z" />
    <glyph glyph-name="lacute.sc" unicode="&#xed02;" horiz-adv-x="385" 
d="M371 0h-296v533h73v-471h223v-62zM143 610h-61l72 136h85z" />
    <glyph glyph-name="lcaron.sc" unicode="&#xed0c;" horiz-adv-x="385" 
d="M371 0h-296v533h73v-471h223v-62zM278 437h-53l21 164h75z" />
    <glyph glyph-name="lcommaaccent.sc" unicode="&#xed16;" horiz-adv-x="385" 
d="M371 0h-296v533h73v-471h223v-62zM198 -227h-50l47 159h67z" />
    <glyph glyph-name="ldot.sc" unicode="&#xed2a;" horiz-adv-x="385" 
d="M371 0h-296v533h73v-471h223v-62zM336 263h-73v87h73v-87z" />
    <glyph glyph-name="lslash.sc" unicode="&#xed20;" horiz-adv-x="385" 
d="M371 0h-296v232l-60 -54v55l60 54v246h73v-193l112 98v-58l-112 -97v-221h223v-62z" />
    <glyph glyph-name="nacute.sc" unicode="&#xed34;" horiz-adv-x="571" 
d="M143 0h-68v533h99l254 -457v457h68v-533h-101l-252 456v-456zM309 610h-61l72 136h85z" />
    <glyph glyph-name="ncaron.sc" unicode="&#xed3e;" horiz-adv-x="571" 
d="M143 0h-68v533h99l254 -457v457h68v-533h-101l-252 456v-456zM328 610h-74l-103 136h65l75 -97l75 97h65z" />
    <glyph glyph-name="ntilde.sc" unicode="&#xed48;" horiz-adv-x="571" 
d="M143 0h-68v533h99l254 -457v457h68v-533h-101l-252 456v-456zM189 624h-48c0 47 33 100 89 100c48 0 85 -41 117 -41c25 0 39 26 39 45h47c0 -43 -33 -99 -85 -99c-50 0 -78 40 -116 40c-24 0 -43 -25 -43 -45z" />
    <glyph glyph-name="ncommaaccent.sc" unicode="&#xed52;" horiz-adv-x="571" 
d="M143 0h-68v533h99l254 -457v457h68v-533h-101l-252 456v-456zM277 -227h-50l47 159h67z" />
    <glyph glyph-name="ograve.sc" unicode="&#xed66;" horiz-adv-x="580" 
d="M161 118c28 -40 70 -67 129 -67c123 0 168 108 168 215s-45 215 -168 215c-119 0 -168 -108 -168 -215c0 -53 12 -107 39 -148zM181 10c-92 44 -137 137 -137 256c0 151 83 277 246 277c166 0 246 -122 246 -277c0 -152 -82 -277 -246 -277c-42 0 -78 7 -109 21zM332 610
h-59l-97 136h85z" />
    <glyph glyph-name="oacute.sc" unicode="&#xed70;" horiz-adv-x="580" 
d="M161 118c28 -40 70 -67 129 -67c123 0 168 108 168 215s-45 215 -168 215c-119 0 -168 -108 -168 -215c0 -53 12 -107 39 -148zM181 10c-92 44 -137 137 -137 256c0 151 83 277 246 277c166 0 246 -122 246 -277c0 -152 -82 -277 -246 -277c-42 0 -78 7 -109 21zM305 610
h-61l72 136h85z" />
    <glyph glyph-name="ocircumflex.sc" unicode="&#xed7a;" horiz-adv-x="580" 
d="M161 118c28 -40 70 -67 129 -67c123 0 168 108 168 215s-45 215 -168 215c-119 0 -168 -108 -168 -215c0 -53 12 -107 39 -148zM181 10c-92 44 -137 137 -137 256c0 151 83 277 246 277c166 0 246 -122 246 -277c0 -152 -82 -277 -246 -277c-42 0 -78 7 -109 21zM215 610
h-65l103 136h74l103 -136h-65l-75 96z" />
    <glyph glyph-name="otilde.sc" unicode="&#xed84;" horiz-adv-x="580" 
d="M161 118c28 -40 70 -67 129 -67c123 0 168 108 168 215s-45 215 -168 215c-119 0 -168 -108 -168 -215c0 -53 12 -107 39 -148zM181 10c-92 44 -137 137 -137 256c0 151 83 277 246 277c166 0 246 -122 246 -277c0 -152 -82 -277 -246 -277c-42 0 -78 7 -109 21zM192 624
h-48c0 47 33 100 89 100c48 0 85 -41 117 -41c25 0 39 26 39 45h47c0 -43 -33 -99 -85 -99c-50 0 -78 40 -116 40c-24 0 -43 -25 -43 -45z" />
    <glyph glyph-name="odieresis.sc" unicode="&#xed8e;" horiz-adv-x="580" 
d="M161 118c28 -40 70 -67 129 -67c123 0 168 108 168 215s-45 215 -168 215c-119 0 -168 -108 -168 -215c0 -53 12 -107 39 -148zM181 10c-92 44 -137 137 -137 256c0 151 83 277 246 277c166 0 246 -122 246 -277c0 -152 -82 -277 -246 -277c-42 0 -78 7 -109 21zM247 634
h-66v87h66v-87zM402 634h-66v87h66v-87z" />
    <glyph glyph-name="omacron.sc" unicode="&#xed98;" horiz-adv-x="580" 
d="M161 118c28 -40 70 -67 129 -67c123 0 168 108 168 215s-45 215 -168 215c-119 0 -168 -108 -168 -215c0 -53 12 -107 39 -148zM181 10c-92 44 -137 137 -137 256c0 151 83 277 246 277c166 0 246 -122 246 -277c0 -152 -82 -277 -246 -277c-42 0 -78 7 -109 21zM413 653
h-245v51h245v-51z" />
    <glyph glyph-name="obreve.sc" unicode="&#xeda2;" horiz-adv-x="580" 
d="M161 118c28 -40 70 -67 129 -67c123 0 168 108 168 215s-45 215 -168 215c-119 0 -168 -108 -168 -215c0 -53 12 -107 39 -148zM181 10c-92 44 -137 137 -137 256c0 151 83 277 246 277c166 0 246 -122 246 -277c0 -152 -82 -277 -246 -277c-42 0 -78 7 -109 21zM171 735
h43c4 -40 31 -71 76 -71s72 31 77 71h43c0 -28 -22 -117 -120 -117c-97 0 -119 89 -119 117z" />
    <glyph glyph-name="ohungarumlaut.sc" unicode="&#xedac;" horiz-adv-x="580" 
d="M161 118c28 -40 70 -67 129 -67c123 0 168 108 168 215s-45 215 -168 215c-119 0 -168 -108 -168 -215c0 -53 12 -107 39 -148zM181 10c-92 44 -137 137 -137 256c0 151 83 277 246 277c166 0 246 -122 246 -277c0 -152 -82 -277 -246 -277c-42 0 -78 7 -109 21zM218 610
h-60l72 136h85zM388 610h-60l72 136h85z" />
    <glyph glyph-name="oslash.sc" unicode="&#xedb6;" horiz-adv-x="580" 
d="M147 143l258 289c-27 31 -64 49 -115 49c-119 0 -168 -108 -168 -215c0 -43 8 -87 25 -123zM432 391l-258 -289c27 -32 65 -51 116 -51c123 0 168 108 168 215c0 44 -7 88 -26 125zM67 -18l-35 31l62 70c-35 48 -50 111 -50 183c0 151 83 277 246 277
c69 0 123 -21 163 -57l58 65l34 -33l-61 -68c35 -48 52 -112 52 -184c0 -152 -82 -277 -246 -277c-72 0 -125 21 -165 58z" />
    <glyph glyph-name="oe.sc" unicode="&#xedca;" horiz-adv-x="724" 
d="M389 61v410c-24 7 -45 10 -76 10c-133 0 -191 -112 -191 -215s58 -215 191 -215c31 0 51 3 76 10zM683 0h-281c-33 -7 -54 -11 -89 -11c-180 0 -269 121 -269 277c0 151 94 277 269 277c39 0 63 -3 90 -10h272v-57h-216v-174h205v-57h-205v-187h224v-58z" />
    <glyph glyph-name="racute.sc" unicode="&#xedd4;" horiz-adv-x="466" 
d="M147 476v-178h57c61 0 129 19 129 91s-57 87 -126 87h-60zM147 0h-72v533h158c86 0 177 -34 177 -140c0 -68 -51 -114 -119 -125c36 -11 56 -35 71 -68l85 -200h-81l-69 170c-21 51 -39 70 -104 70h-46v-240zM247 610h-61l72 136h85z" />
    <glyph glyph-name="rcaron.sc" unicode="&#xedde;" horiz-adv-x="466" 
d="M147 476v-178h57c61 0 129 19 129 91s-57 87 -126 87h-60zM147 0h-72v533h158c86 0 177 -34 177 -140c0 -68 -51 -114 -119 -125c36 -11 56 -35 71 -68l85 -200h-81l-69 170c-21 51 -39 70 -104 70h-46v-240zM267 610h-74l-103 136h65l75 -97l75 97h65z" />
    <glyph glyph-name="rcommaaccent.sc" unicode="&#xede8;" horiz-adv-x="466" 
d="M147 476v-178h57c61 0 129 19 129 91s-57 87 -126 87h-60zM147 0h-72v533h158c86 0 177 -34 177 -140c0 -68 -51 -114 -119 -125c36 -11 56 -35 71 -68l85 -200h-81l-69 170c-21 51 -39 70 -104 70h-46v-240zM233 -227h-50l47 159h67z" />
    <glyph glyph-name="sacute.sc" unicode="&#xedf2;" horiz-adv-x="408" 
d="M40 11l6 67c39 -20 81 -29 120 -29c76 0 117 29 117 90c0 48 -39 76 -91 103l-47 24c-60 31 -97 63 -97 134c0 99 90 143 181 143c37 0 75 -6 112 -17l-5 -63c-35 13 -72 20 -104 20c-59 0 -108 -21 -108 -81c0 -44 31 -63 74 -86l51 -26c69 -36 111 -72 111 -145
c0 -99 -78 -156 -189 -156c-39 0 -87 6 -131 22zM222 610h-61l72 136h85z" />
    <glyph glyph-name="scircumflex.sc" unicode="&#xedfc;" horiz-adv-x="408" 
d="M40 11l6 67c39 -20 81 -29 120 -29c76 0 117 29 117 90c0 48 -39 76 -91 103l-47 24c-60 31 -97 63 -97 134c0 99 90 143 181 143c37 0 75 -6 112 -17l-5 -63c-35 13 -72 20 -104 20c-59 0 -108 -21 -108 -81c0 -44 31 -63 74 -86l51 -26c69 -36 111 -72 111 -145
c0 -99 -78 -156 -189 -156c-39 0 -87 6 -131 22zM127 610h-65l103 136h74l103 -136h-65l-75 96z" />
    <glyph glyph-name="scaron.sc" unicode="&#xee06;" horiz-adv-x="408" 
d="M40 11l6 67c39 -20 81 -29 120 -29c76 0 117 29 117 90c0 48 -39 76 -91 103l-47 24c-60 31 -97 63 -97 134c0 99 90 143 181 143c37 0 75 -6 112 -17l-5 -63c-35 13 -72 20 -104 20c-59 0 -108 -21 -108 -81c0 -44 31 -63 74 -86l51 -26c69 -36 111 -72 111 -145
c0 -99 -78 -156 -189 -156c-39 0 -87 6 -131 22zM245 610h-74l-103 136h65l75 -97l75 97h65z" />
    <glyph glyph-name="scedilla.sc" unicode="&#xee10;" horiz-adv-x="408" 
d="M98 -161l13 35c25 -11 50 -17 74 -17c27 0 50 11 50 34s-20 29 -39 29c-12 0 -25 -2 -39 -7l-15 18l39 58h-10c-39 0 -87 6 -131 22l6 67c39 -20 81 -29 120 -29c76 0 117 29 117 90c0 48 -39 76 -91 103l-47 24c-60 31 -97 63 -97 134c0 99 90 143 181 143
c37 0 75 -6 112 -17l-5 -63c-35 13 -72 20 -104 20c-59 0 -108 -21 -108 -81c0 -44 31 -63 74 -86l51 -26c69 -36 111 -72 111 -145c0 -84 -55 -137 -139 -152l-32 -46c15 3 19 4 32 4c39 0 66 -21 66 -57c0 -45 -40 -74 -101 -74c-31 0 -55 4 -88 19z" />
    <glyph glyph-name="scommaaccent.sc" unicode="&#xee1a;" horiz-adv-x="408" 
d="M40 11l6 67c39 -20 81 -29 120 -29c76 0 117 29 117 90c0 48 -39 76 -91 103l-47 24c-60 31 -97 63 -97 134c0 99 90 143 181 143c37 0 75 -6 112 -17l-5 -63c-35 13 -72 20 -104 20c-59 0 -108 -21 -108 -81c0 -44 31 -63 74 -86l51 -26c69 -36 111 -72 111 -145
c0 -99 -78 -156 -189 -156c-39 0 -87 6 -131 22zM184 -227h-50l47 159h67z" />
    <glyph glyph-name="germandbls.sc" unicode="&#xee24;" horiz-adv-x="808" 
d="M440 11l6 67c39 -20 81 -29 120 -29c76 0 117 29 117 90c0 48 -39 76 -91 103l-47 24c-60 31 -97 63 -97 134c0 99 90 143 181 143c37 0 75 -6 112 -17l-5 -63c-35 13 -72 20 -104 20c-59 0 -108 -21 -108 -81c0 -44 31 -63 74 -86l51 -26c69 -36 111 -72 111 -145
c0 -99 -78 -156 -189 -156c-39 0 -87 6 -131 22zM40 11l6 67c39 -20 81 -29 120 -29c76 0 117 29 117 90c0 48 -39 76 -91 103l-47 24c-60 31 -97 63 -97 134c0 99 90 143 181 143c37 0 75 -6 112 -17l-5 -63c-35 13 -72 20 -104 20c-59 0 -108 -21 -108 -81
c0 -44 31 -63 74 -86l51 -26c69 -36 111 -72 111 -145c0 -99 -78 -156 -189 -156c-39 0 -87 6 -131 22z" />
    <glyph glyph-name="tcaron.sc" unicode="&#xee2e;" horiz-adv-x="415" 
d="M246 0h-74v470h-162v63h399v-63h-163v-470zM246 610h-74l-103 136h65l75 -97l75 97h65z" />
    <glyph glyph-name="tcommaaccent.sc" unicode="&#xee38;" horiz-adv-x="415" 
d="M246 0h-74v470h-162v63h399v-63h-163v-470zM179 -227h-50l47 159h67z" />
    <glyph glyph-name="tbar.sc" unicode="&#xee42;" horiz-adv-x="415" 
d="M246 0h-74v295h-112v52h112v123h-162v63h399v-63h-163v-123h114v-52h-114v-295z" />
    <glyph glyph-name="thorn.sc" unicode="&#xee4c;" horiz-adv-x="446" 
d="M148 370v-201h41c75 0 147 10 147 103c0 67 -48 98 -112 98h-76zM148 0h-73v533h73v-105h93c97 0 173 -54 173 -155c0 -110 -84 -160 -178 -160h-88v-113z" />
    <glyph glyph-name="ugrave.sc" unicode="&#xee56;" horiz-adv-x="555" 
d="M144 533v-342c0 -81 44 -140 132 -140c89 0 134 56 134 140v342h74v-342c0 -122 -83 -202 -208 -202c-127 0 -205 72 -205 200v344h73zM321 610h-59l-97 136h85z" />
    <glyph glyph-name="uacute.sc" unicode="&#xee60;" horiz-adv-x="555" 
d="M144 533v-342c0 -81 44 -140 132 -140c89 0 134 56 134 140v342h74v-342c0 -122 -83 -202 -208 -202c-127 0 -205 72 -205 200v344h73zM293 610h-61l72 136h85z" />
    <glyph glyph-name="ucircumflex.sc" unicode="&#xee6a;" horiz-adv-x="555" 
d="M144 533v-342c0 -81 44 -140 132 -140c89 0 134 56 134 140v342h74v-342c0 -122 -83 -202 -208 -202c-127 0 -205 72 -205 200v344h73zM202 610h-65l103 136h74l103 -136h-65l-75 96z" />
    <glyph glyph-name="utilde.sc" unicode="&#xee74;" horiz-adv-x="555" 
d="M144 533v-342c0 -81 44 -140 132 -140c89 0 134 56 134 140v342h74v-342c0 -122 -83 -202 -208 -202c-127 0 -205 72 -205 200v344h73zM180 624h-48c0 47 33 100 89 100c48 0 85 -41 117 -41c25 0 39 26 39 45h47c0 -43 -33 -99 -85 -99c-50 0 -78 40 -116 40
c-24 0 -43 -25 -43 -45z" />
    <glyph glyph-name="udieresis.sc" unicode="&#xee7e;" horiz-adv-x="555" 
d="M144 533v-342c0 -81 44 -140 132 -140c89 0 134 56 134 140v342h74v-342c0 -122 -83 -202 -208 -202c-127 0 -205 72 -205 200v344h73zM234 634h-66v87h66v-87zM389 634h-66v87h66v-87z" />
    <glyph glyph-name="umacron.sc" unicode="&#xee88;" horiz-adv-x="555" 
d="M144 533v-342c0 -81 44 -140 132 -140c89 0 134 56 134 140v342h74v-342c0 -122 -83 -202 -208 -202c-127 0 -205 72 -205 200v344h73zM401 653h-245v51h245v-51z" />
    <glyph glyph-name="ubreve.sc" unicode="&#xee92;" horiz-adv-x="555" 
d="M144 533v-342c0 -81 44 -140 132 -140c89 0 134 56 134 140v342h74v-342c0 -122 -83 -202 -208 -202c-127 0 -205 72 -205 200v344h73zM158 735h43c4 -40 31 -71 76 -71s72 31 77 71h43c0 -28 -22 -117 -120 -117c-97 0 -119 89 -119 117z" />
    <glyph glyph-name="uring.sc" unicode="&#xee9c;" horiz-adv-x="555" 
d="M144 533v-342c0 -81 44 -140 132 -140c89 0 134 56 134 140v342h74v-342c0 -122 -83 -202 -208 -202c-127 0 -205 72 -205 200v344h73zM219 678c0 -33 27 -59 59 -59c33 0 60 26 60 59c0 32 -27 58 -60 58s-59 -26 -59 -58zM241 592c-34 14 -58 47 -58 86
c0 52 43 92 95 92s96 -40 96 -92s-44 -93 -96 -93c-13 0 -26 2 -37 7z" />
    <glyph glyph-name="uhungarumlaut.sc" unicode="&#xeea6;" horiz-adv-x="555" 
d="M144 533v-342c0 -81 44 -140 132 -140c89 0 134 56 134 140v342h74v-342c0 -122 -83 -202 -208 -202c-127 0 -205 72 -205 200v344h73zM211 610h-60l72 136h85zM381 610h-60l72 136h85z" />
    <glyph glyph-name="uogonek.sc" unicode="&#xeeb0;" horiz-adv-x="555" 
d="M374 -125l11 -35c-24 -12 -46 -20 -81 -20c-57 0 -92 35 -92 76c0 39 20 70 60 93c-125 3 -201 73 -201 200v344h73v-342c0 -81 44 -140 132 -140c89 0 134 56 134 140v342h74v-342c0 -104 -59 -177 -154 -196c-43 -29 -64 -58 -64 -88c0 -35 26 -47 49 -47
c21 0 36 4 59 15z" />
    <glyph glyph-name="wcircumflex.sc" unicode="&#xeec4;" horiz-adv-x="757" 
d="M246 0h-83l-153 533h72l126 -458l134 458h79l132 -458l125 458h69l-152 -533h-83l-133 460zM307 610h-65l103 136h74l103 -136h-65l-75 96z" />
    <glyph glyph-name="yacute.sc" unicode="&#xeee2;" horiz-adv-x="476" 
d="M273 0h-73v217l-197 316h82l154 -257l155 257h78l-199 -316v-217zM257 610h-61l72 136h85z" />
    <glyph glyph-name="ycircumflex.sc" unicode="&#xeeec;" horiz-adv-x="476" 
d="M273 0h-73v217l-197 316h82l154 -257l155 257h78l-199 -316v-217zM164 610h-65l103 136h74l103 -136h-65l-75 96z" />
    <glyph glyph-name="ydieresis.sc" unicode="&#xeef6;" horiz-adv-x="476" 
d="M273 0h-73v217l-197 316h82l154 -257l155 257h78l-199 -316v-217zM194 634h-66v87h66v-87zM349 634h-66v87h66v-87z" />
    <glyph glyph-name="zacute.sc" unicode="&#xef0a;" horiz-adv-x="418" 
d="M392 0h-366v62l283 412h-274v59h350v-62l-279 -412h286v-59zM229 610h-61l72 136h85z" />
    <glyph glyph-name="zcaron.sc" unicode="&#xef14;" horiz-adv-x="418" 
d="M392 0h-366v62l283 412h-274v59h350v-62l-279 -412h286v-59zM249 610h-74l-103 136h65l75 -97l75 97h65z" />
    <glyph glyph-name="zdotaccent.sc" unicode="&#xef1e;" horiz-adv-x="418" 
d="M392 0h-366v62l283 412h-274v59h350v-62l-279 -412h286v-59zM250 634h-73v87h73v-87z" />
    <glyph glyph-name="fi.sc" unicode="&#xf15b;" horiz-adv-x="606" 
d="M148 0h-73v533h285v-57h-212v-177h203v-57h-203v-242zM531 0h-73v533h73v-533z" />
    <glyph glyph-name="fl.sc" unicode="&#xf172;" horiz-adv-x="768" 
d="M148 0h-73v533h285v-57h-212v-177h203v-57h-203v-242zM754 0h-296v533h73v-471h223v-62z" />
    <glyph glyph-name="ij.sc" unicode="&#xf192;" horiz-adv-x="494" 
d="M148 0h-73v533h73v-533zM221 -1l5 61c15 -5 33 -9 49 -9c59 0 75 43 75 95v387h73v-393c0 -89 -40 -151 -135 -151c-22 0 -44 3 -67 10z" />
    <glyph glyph-name="grave.sc" unicode="&#xe001;" horiz-adv-x="219" 
d="M154 610h-59l-97 136h85z" />
    <glyph glyph-name="acute.sc" unicode="&#xe003;" horiz-adv-x="218" 
d="M123 610h-61l72 136h85z" />
    <glyph glyph-name="circumflex.sc" unicode="&#xe005;" horiz-adv-x="218" 
d="M34 610h-65l103 136h74l103 -136h-65l-75 96z" />
    <glyph glyph-name="caron.sc" unicode="&#xe007;" horiz-adv-x="218" 
d="M146 610h-74l-103 136h65l75 -97l75 97h65z" />
    <glyph glyph-name="tilde.sc" unicode="&#xe00a;" horiz-adv-x="218" 
d="M11 624h-48c0 47 33 100 89 100c48 0 85 -41 117 -41c25 0 39 26 39 45h47c0 -43 -33 -99 -85 -99c-50 0 -78 40 -116 40c-24 0 -43 -25 -43 -45z" />
    <glyph glyph-name="dieresis.sc" unicode="&#xe00c;" horiz-adv-x="218" 
d="M65 634h-66v87h66v-87zM220 634h-66v87h66v-87z" />
    <glyph glyph-name="macron.sc" unicode="&#xe00e;" horiz-adv-x="218" 
d="M232 653h-245v51h245v-51z" />
    <glyph glyph-name="breve.sc" unicode="&#xe010;" horiz-adv-x="218" 
d="M-10 735h43c4 -40 31 -71 76 -71s72 31 77 71h43c0 -28 -22 -117 -120 -117c-97 0 -119 89 -119 117z" />
    <glyph glyph-name="ring.sc" unicode="&#xe012;" horiz-adv-x="218" 
d="M50 678c0 -33 27 -59 59 -59c33 0 60 26 60 59c0 32 -27 58 -60 58s-59 -26 -59 -58zM72 592c-34 14 -58 47 -58 86c0 52 43 92 95 92s96 -40 96 -92s-44 -93 -96 -93c-13 0 -26 2 -37 7z" />
    <glyph glyph-name="hungarumlaut.sc" unicode="&#xe014;" horiz-adv-x="218" 
d="M9 610h-60l72 136h85zM179 610h-60l72 136h85z" />
    <glyph glyph-name="dotaccent.sc" unicode="&#xe016;" horiz-adv-x="218" 
d="M146 634h-73v87h73v-87z" />
    <glyph glyph-name="exclamdown.sc" unicode="&#xefc2;" horiz-adv-x="271" 
d="M178 449h-82v84h82v-84zM177 0h-83l13 368h58z" />
    <glyph glyph-name="questiondown.sc" unicode="&#xefc6;" horiz-adv-x="353" 
d="M239 449h-82v84h82v-84zM309 70l4 -61c-40 -13 -76 -19 -121 -19c-91 0 -161 45 -161 134c0 59 31 97 70 132c43 43 64 66 64 112h66c0 -59 -25 -92 -70 -133c-39 -35 -56 -63 -56 -106c0 -52 41 -78 96 -78c39 0 69 7 108 19z" />
    <glyph glyph-name="Euro.sc" unicode="&#xf113;" horiz-adv-x="455" 
d="M88 187h-75l9 44h61c-1 23 -1 27 -1 36c0 8 0 14 1 33h-69l8 44h67c24 112 111 199 242 199c33 0 80 -2 115 -17l-16 -60c-25 11 -62 16 -91 16c-99 0 -160 -61 -176 -138h236l-10 -44h-234c-3 -20 -2 -27 -2 -34c0 -11 0 -18 1 -35h222l-10 -44h-204
c19 -78 78 -138 180 -138c28 0 66 3 91 14l6 -61c-29 -8 -65 -13 -104 -13c-136 0 -223 81 -247 198z" />
    <glyph glyph-name="cent.sc" unicode="&#xf11c;" horiz-adv-x="455" 
d="M276 0h-42v74c-110 11 -173 95 -173 194c0 100 66 179 173 192v73h42v-72c31 0 66 -4 97 -15l-5 -56c-29 11 -62 18 -89 18c-97 0 -147 -60 -147 -140c0 -83 52 -142 147 -142c29 0 63 5 90 16l7 -54c-32 -11 -69 -16 -100 -16v-72z" />
    <glyph glyph-name="sterling.sc" unicode="&#xf125;" horiz-adv-x="455" 
d="M411 0h-366v55h69v203h-65v55h65v46c0 109 55 184 179 184c37 0 80 -6 113 -17l-6 -59c-27 11 -64 19 -99 19c-99 0 -115 -63 -115 -132v-41h157v-55h-157v-203h225v-55z" />
    <glyph glyph-name="florin.sc" unicode="&#xf12e;" horiz-adv-x="455" 
d="M-19 -177l5 56c17 -3 34 -4 49 -4c41 0 63 26 78 102l58 291h-92v51h102l21 85c18 74 48 139 131 139c20 0 44 -4 61 -9l-4 -54c-16 5 -31 8 -46 8c-49 0 -67 -48 -75 -89l-17 -80h104v-51h-114l-61 -296c-23 -107 -58 -155 -133 -155c-23 0 -45 2 -67 6z" />
    <glyph glyph-name="yen.sc" unicode="&#xf137;" horiz-adv-x="455" 
d="M189 110h-126v43h126v70h-126v43h104l-158 267h75l144 -254l143 254h73l-162 -267h109v-43h-130v-70h130v-43h-130v-110h-72v110z" />
    <glyph glyph-name="perthousand.sc" unicode="&#xf0f9;" horiz-adv-x="1043" 
d="M237 -19h-56l332 571h55zM508 70c11 -23 29 -38 57 -38c57 0 70 62 70 121c0 61 -13 120 -70 120c-53 0 -70 -59 -70 -120c0 -31 4 -60 13 -83zM502 4c-49 31 -64 90 -64 149c0 75 30 164 127 164c96 0 128 -89 128 -164c0 -76 -32 -164 -128 -164c-25 0 -46 5 -63 15z
M126 296c11 -23 29 -38 57 -38c57 0 70 62 70 121c0 61 -13 120 -70 120c-53 0 -70 -59 -70 -120c0 -31 4 -60 13 -83zM120 230c-49 31 -64 90 -64 149c0 75 30 164 127 164c96 0 128 -89 128 -164c0 -76 -32 -164 -128 -164c-25 0 -46 5 -63 15zM803 70
c11 -23 29 -38 57 -38c57 0 70 62 70 121c0 61 -13 120 -70 120c-53 0 -70 -59 -70 -120c0 -31 4 -60 13 -83zM797 4c-49 31 -64 90 -64 149c0 75 30 164 127 164c96 0 128 -89 128 -164c0 -76 -32 -164 -128 -164c-25 0 -46 5 -63 15z" />
    <glyph glyph-name="ordfeminine.sc" horiz-adv-x="308" 
d="M153 495l-42 -107h84zM80 300h-51l100 238h51l99 -238h-52l-20 51h-106z" />
    <glyph glyph-name="napostrophe.sc" unicode="&#xed5c;" horiz-adv-x="601" 
d="M55 554h-46l45 167h65zM173 0h-68v533h99l254 -457v457h68v-533h-101l-252 456v-456z" />
    <glyph glyph-name="zero.onum" unicode="&#xf055;" horiz-adv-x="542" 
d="M153 117c25 -39 65 -62 118 -62c108 0 157 100 157 217s-48 212 -157 212c-107 0 -156 -100 -156 -216c0 -59 13 -112 38 -151zM165 10c-90 44 -133 139 -133 258c0 155 84 282 239 282c164 0 240 -122 240 -279c0 -155 -83 -282 -240 -282c-41 0 -76 7 -106 21z" />
    <glyph glyph-name="one.onum" unicode="&#xf05f;" horiz-adv-x="542" 
d="M340 0h-79v474h-153v66h232v-540z" />
    <glyph glyph-name="two.onum" unicode="&#xf06a;" horiz-adv-x="542" 
d="M445 0h-378v61c174 139 286 239 286 332c0 65 -53 91 -110 91c-49 0 -97 -17 -145 -41l-9 70c48 23 110 37 157 37c99 0 187 -36 187 -148c0 -109 -113 -218 -255 -336h267v-66z" />
    <glyph glyph-name="three.onum" unicode="&#xf075;" horiz-adv-x="542" 
d="M70 -158l-8 66c20 -2 39 -3 57 -3c172 0 243 77 243 178c0 96 -98 115 -167 115h-54v65h52c77 0 159 31 159 126c0 73 -69 95 -125 95c-47 0 -100 -13 -143 -34l-6 69c49 19 106 31 159 31c88 0 194 -35 194 -158c0 -84 -53 -143 -145 -158c101 -7 156 -62 156 -151
c0 -150 -120 -244 -321 -244c-16 0 -33 1 -51 3z" />
    <glyph glyph-name="four.onum" unicode="&#xf080;" horiz-adv-x="542" 
d="M340 0h-295v74l261 466h84l-271 -475h221v302h76v-302h100v-65h-100v-160h-76v160z" />
    <glyph glyph-name="five.onum" unicode="&#xf08a;" horiz-adv-x="542" 
d="M102 -158l-8 66c20 -2 39 -3 57 -3c175 0 243 75 243 183c0 79 -46 125 -157 125c-39 0 -83 -6 -134 -19l6 346h335v-66h-260l-6 -202c27 4 60 6 87 6c129 0 209 -58 209 -190c0 -157 -117 -249 -321 -249c-16 0 -33 1 -51 3z" />
    <glyph glyph-name="six.onum" unicode="&#xf094;" horiz-adv-x="542" 
d="M446 697v-66c-20 2 -39 3 -57 3c-168 0 -260 -150 -265 -291c29 51 99 87 170 87c132 0 206 -86 206 -215c0 -138 -88 -226 -224 -226c-188 0 -230 170 -230 323c0 204 124 388 349 388c16 0 33 -1 51 -3zM170 107c25 -32 62 -53 107 -53c93 0 142 64 142 156
c0 89 -48 154 -137 154c-91 0 -151 -56 -151 -140c0 -43 14 -85 39 -117z" />
    <glyph glyph-name="seven.onum" unicode="&#xf09e;" horiz-adv-x="542" 
d="M165 -161l-77 15c69 168 211 451 304 618h-338v68h417v-64c-101 -192 -223 -440 -306 -637z" />
    <glyph glyph-name="eight.onum" unicode="&#xf0a8;" horiz-adv-x="542" 
d="M322 301c-17 9 -33 17 -49 24c-75 -24 -151 -69 -151 -149c0 -85 69 -122 148 -122c80 0 149 41 149 125c0 58 -46 99 -97 122zM228 404l47 -22c59 24 123 63 123 136c0 75 -61 109 -128 109c-65 0 -126 -39 -126 -112c0 -53 40 -88 84 -111zM133 325c19 11 39 21 61 29
c-75 32 -131 80 -131 168c0 115 115 170 207 170c101 0 209 -46 209 -167c0 -86 -68 -136 -136 -171c88 -32 159 -80 159 -184c0 -124 -120 -181 -232 -181c-113 0 -230 51 -230 178c0 73 38 127 93 158z" />
    <glyph glyph-name="nine.onum" unicode="&#xf0b2;" horiz-adv-x="542" 
d="M96 -158v66c20 -2 39 -3 57 -3c168 0 260 140 265 290c-29 -51 -99 -87 -170 -87c-132 0 -206 86 -206 215c0 139 88 227 224 227c188 0 230 -171 230 -324c0 -216 -123 -387 -349 -387c-16 0 -33 1 -51 3zM158 217c23 -29 57 -43 102 -43c91 0 151 56 151 140
s-55 171 -146 171c-93 0 -142 -65 -142 -157c0 -45 12 -82 35 -111z" />
    <glyph glyph-name="zero.onumprop" unicode="&#xf056;" horiz-adv-x="622" 
d="M174 124c31 -41 77 -69 138 -69c123 0 181 111 181 216c0 108 -56 213 -181 213c-124 0 -182 -109 -182 -213c0 -52 15 -106 44 -147zM199 11c-98 46 -152 142 -152 260c0 155 106 279 265 279c168 0 264 -119 264 -279c0 -155 -99 -282 -264 -282c-42 0 -80 7 -113 22z
" />
    <glyph glyph-name="one.onumprop" unicode="&#xf060;" horiz-adv-x="363" 
d="M256 0h-79v474h-153v66h232v-540z" />
    <glyph glyph-name="two.onumprop" unicode="&#xf06b;" horiz-adv-x="456" 
d="M408 0h-378v61c174 139 286 239 286 332c0 65 -53 91 -110 91c-49 0 -97 -17 -145 -41l-9 70c48 23 110 37 157 37c99 0 187 -36 187 -148c0 -109 -113 -218 -255 -336h267v-66z" />
    <glyph glyph-name="three.onumprop" unicode="&#xf076;" horiz-adv-x="442" 
d="M20 -158l-8 66c20 -2 39 -3 57 -3c172 0 243 77 243 178c0 96 -98 115 -167 115h-54v65h52c77 0 159 31 159 126c0 73 -69 95 -125 95c-47 0 -100 -13 -143 -34l-6 69c49 19 106 31 159 31c88 0 194 -35 194 -158c0 -84 -53 -143 -145 -158c101 -7 156 -62 156 -151
c0 -150 -120 -244 -321 -244c-16 0 -33 1 -51 3z" />
    <glyph glyph-name="four.onumprop" unicode="&#xf081;" horiz-adv-x="527" 
d="M332 0h-295v74l261 466h84l-271 -475h221v302h76v-302h100v-65h-100v-160h-76v160z" />
    <glyph glyph-name="five.onumprop" unicode="&#xf08b;" horiz-adv-x="500" 
d="M78 -158l-8 66c20 -2 39 -3 57 -3c175 0 243 75 243 183c0 79 -46 125 -157 125c-39 0 -83 -6 -134 -19l6 346h335v-66h-260l-6 -202c27 4 60 6 87 6c129 0 209 -58 209 -190c0 -157 -117 -249 -321 -249c-16 0 -33 1 -51 3z" />
    <glyph glyph-name="six.onumprop" unicode="&#xf095;" horiz-adv-x="553" 
d="M451 697v-66c-20 2 -39 3 -57 3c-168 0 -260 -150 -265 -291c29 51 99 87 170 87c132 0 206 -86 206 -215c0 -138 -88 -226 -224 -226c-188 0 -230 170 -230 323c0 204 124 388 349 388c16 0 33 -1 51 -3zM175 107c25 -32 62 -53 107 -53c93 0 142 64 142 156
c0 89 -48 154 -137 154c-91 0 -151 -56 -151 -140c0 -43 14 -85 39 -117z" />
    <glyph glyph-name="seven.onumprop" unicode="&#xf09f;" horiz-adv-x="500" 
d="M144 -161l-77 15c69 168 211 451 304 618h-338v68h417v-64c-101 -192 -223 -440 -306 -637z" />
    <glyph glyph-name="eight.onumprop" unicode="&#xf0a9;" horiz-adv-x="557" 
d="M330 301c-17 9 -33 17 -49 24c-75 -24 -151 -69 -151 -149c0 -85 69 -122 148 -122c80 0 149 41 149 125c0 58 -46 99 -97 122zM236 404l47 -22c59 24 123 63 123 136c0 75 -61 109 -128 109c-65 0 -126 -39 -126 -112c0 -53 40 -88 84 -111zM141 325c19 11 39 21 61 29
c-75 32 -131 80 -131 168c0 115 115 170 207 170c101 0 209 -46 209 -167c0 -86 -68 -136 -136 -171c88 -32 159 -80 159 -184c0 -124 -120 -181 -232 -181c-113 0 -230 51 -230 178c0 73 38 127 93 158z" />
    <glyph glyph-name="nine.onumprop" unicode="&#xf0b3;" horiz-adv-x="554" 
d="M103 -158v66c20 -2 39 -3 57 -3c168 0 260 140 265 290c-29 -51 -99 -87 -170 -87c-132 0 -206 86 -206 215c0 139 88 227 224 227c188 0 230 -171 230 -324c0 -216 -123 -387 -349 -387c-16 0 -33 1 -51 3zM165 217c23 -29 57 -43 102 -43c91 0 151 56 151 140
s-55 171 -146 171c-93 0 -142 -65 -142 -157c0 -45 12 -82 35 -111z" />
    <glyph glyph-name="zero.prop" unicode="&#xf054;" horiz-adv-x="542" 
d="M155 21c-90 62 -110 197 -110 312c0 148 42 344 226 344c185 0 227 -197 227 -344c0 -148 -41 -344 -227 -344c-47 0 -86 11 -116 32zM147 153c20 -56 56 -99 124 -99c133 0 146 175 146 279c0 107 -13 279 -146 279s-145 -175 -145 -279c0 -53 2 -123 21 -180z" />
    <glyph glyph-name="one.prop" unicode="&#xf05e;" horiz-adv-x="385" 
d="M266 0h-78v581l-111 -95l-38 52l158 129h69v-667z" />
    <glyph glyph-name="two.prop" unicode="&#xf069;" horiz-adv-x="542" 
d="M463 0h-412v63l149 162c112 122 168 186 168 272c0 69 -57 113 -124 113c-60 0 -113 -18 -162 -45l-6 69c53 25 110 43 170 43c111 0 203 -55 203 -176c0 -108 -75 -188 -189 -313l-112 -123h315v-65z" />
    <glyph glyph-name="three.prop" unicode="&#xf074;" horiz-adv-x="542" 
d="M48 15l6 69c51 -24 107 -30 156 -30c84 0 175 38 175 140c0 91 -83 126 -159 126h-91v63h78c84 0 161 26 161 122c0 80 -76 107 -148 107c-51 0 -106 -12 -153 -33l-6 68c53 19 112 30 169 30c104 0 218 -44 218 -166c0 -86 -67 -141 -139 -157c84 -11 152 -65 152 -157
c0 -142 -118 -208 -254 -208c-57 0 -110 6 -165 26z" />
    <glyph glyph-name="four.prop" unicode="&#xf07f;" horiz-adv-x="542" 
d="M345 151h-319v73l301 443h95v-451h96v-65h-96v-151h-77v151zM345 594l-254 -378h254v378z" />
    </font>
</defs>
</svg>
